<?xml version="1.0" encoding="utf-8"?>
<svg version="1.1" xmlns:xlink="http://www.w3.org/1999/xlink" width="180px" height="8px" viewBox="234 362 180 8" xmlns="http://www.w3.org/2000/svg">
  <g transform="matrix(0.8660254037844394 -0.4999999999999987 0.49999999999999906 0.866025403784437 -139.59223082615802 211.03470221489565 )">
    <path d="M 269.99620438495606 333.3725965361938  C 267.130775722552 331.67032621854383  264.26742279650955 329.9645642408176  261.40615198660515 328.25531440358856  L 260.8933145959475 329.11380016977427  C 263.75528293586143 330.82346669355076  266.61933389910786 332.52964450730997  269.4854611051363 334.2323298100172  L 269.99620438495606 333.3725965361938  Z M 281.18187465988615 339.99373294046086  C 278.311066245529 338.3005511127373  275.4423224927715 336.6038710648936  272.57564979340276 334.9036965772686  L 272.06553533915195 335.76380310762653  C 274.9329068854209 337.4643920693806  277.80234998957445 339.1614857392354  280.67385825905 340.8550803363944  L 281.18187465988615 339.99373294046086  Z M 292.38846977061695 346.57939105544864  C 289.5123104308376 344.89531471932884  286.63820465716566 343.20773363817295  283.76615885333575 341.5166515720444  L 283.25877245768316 342.37837023002197  C 286.13151841828625 344.0698645536991  289.006324850525 345.7578570386915  291.88318534988883 347.44234392448  L 292.38846977061695 346.57939105544864  Z M 303.6158771888231 353.1295047528571  C 300.73439580388316 351.4545508185882  297.85495686893694 349.77608564955796  294.9775667996024 348.09411298551936  L 294.4729135573465 348.9574351183762  C 297.3510050862969 350.63981781924343  300.2311459799446 352.3186921698043  303.1133298218947 353.9940544298528  L 303.6158771888231 353.1295047528571  Z M 314.8639841771949 359.6440082612956  C 311.9772096807957 357.9781935475241  309.09246649776804 356.30886114452335  306.2097610555482 354.63601477169806  L 305.7078460340428 355.50093171059297  C 308.59125423167717 357.1741858954094  311.47670066649346 358.8439252535266  314.36417891027463 360.51014606508824  L 314.8639841771949 359.6440082612956  Z M 326.1326777905779 366.12283616694873  C 323.2406391695704 364.46617740055194  320.35062070491546 362.8059945257799  317.4626288358029 361.142291241652  L 316.96345707490696 362.00879430172967  C 319.8521529881767 363.67290316891655  322.7428759906446 365.3334907683041  325.63561964233986 366.9905534004242  L 326.1326777905779 366.12283616694873  Z M 337.4218448770974 372.5659234142247  C 334.524571171191 370.9184372301427  331.62930644433294 369.267420553926  328.73605714740256 367.61287706417136  L 328.23963365942905 368.4809575446501  C 331.13358828218986 370.13590438445897  334.029558825811 371.78732355072617  336.9275388386315 373.43521136440927  L 337.4218448770974 372.5659234142247  Z M 348.7313720793008 378.97320530641406  C 345.8288923807715 377.3349082474825  342.92841046381443 375.693074348108  340.0299327909321 374.04770726642647  L 339.53626256059795 374.9173564506852  C 342.4354468339014 376.563124645366  345.3366358394846 378.2053587961847  348.23982311406195 379.8440552445622  L 348.7313720793008 378.97320530641406  Z M 360.0611458352946 385.3446175063396  C 357.15348928869344 383.7155260231239  354.2478193061272 382.0828913866711  351.34414236165856 380.44671723462017  L 350.85323034603437 381.3179263902859  C 353.75761515841947 382.9544994142534  356.66399349437523 384.5875320595254  359.57235887905335 386.21702068802136  L 360.0611458352946 385.3446175063396  Z M 371.41105237988376 391.68009603700017  C 368.49824818174375 390.0602264876302  365.587419310154 388.4368075078063  362.67857225067183 386.8098427146346  L 362.1904233791326 387.6826030936705  C 365.099979566919 389.309964513671  368.0115180495481 390.9337792556921  370.92503234067664 392.55404370218906  L 371.41105237988376 391.68009603700017  Z M 382.78097774571484 397.97957728221303  C 379.86305514425777 396.3689459322187  376.94709661203194 394.754758910195  374.0331086460234 393.1370198126777  L 373.54772782019825 394.0113226514706  C 376.46242616777806 395.6294561267463  379.3790955615684 397.2440366603714  382.29772950379515 398.8550606553741  L 382.78097774571484 397.97957728221303  Z M 394.170807764421 404.24299798725514  C 391.247796059264 402.64162100940325  388.3267371462974 401.03668215364945  385.40763753387085 399.4281849959241  L 384.9250296275946 400.3040215153726  C 387.8448408677262 401.91291079782576  390.76661188564447 403.51824091063406  393.69033617220947 405.1200082774329  L 394.170807764421 404.24299798725514  Z M 405.5801617330838 410.47045416069744  C 403.7989034226404 409.5026401206405  402.0187098763006 408.5328676678843  400.23958432432505 407.5611385621337  C 399.0934389859753 406.9357311955115  397.94759231150874 406.30977663325154  396.8020446996211 405.68327509315395  L 396.32221455888475 406.5606364987566  C 397.46798262727464 407.18725860681377  398.61404979788347 407.81333365844927  399.7604156771083 408.4388614386453  C 401.54012583778444 409.4109096800724  403.3209043072458 410.3810006897105  405.1027478564494 411.34913270851627  L 405.5801617330838 410.47045416069744  Z M 417.0154588425961 416.648849711049  C 414.07961291830793 415.0715390424694  411.1466208232631 413.4889222992024  408.21649693524364 411.90100723937326  L 407.7400364134767 412.7802031056042  C 410.67121989648285 414.36869238922077  413.60527262406885 415.9518814404803  416.5421802125535 417.52976249807443  L 417.0154588425961 416.648849711049  Z M 428.47966938935235 422.7734287250764  C 425.53644220432193 421.20993456977266  422.5960438773473 419.6411209847972  419.65848882252163 418.06699566061263  L 419.1861659683204 418.9484212793685  C 422.12478330561953 420.52311584079695  425.06624494294806 422.09249674201413  428.01053646161506 423.6565562901046  L 428.47966938935235 422.7734287250764  Z M 439.97254010498915 428.84405589803373  C 437.02199668125314 427.29441279685767  434.0742570818953 425.7394370285445  431.1293357569909 424.179136215721  L 430.66116100495384 425.0627721144683  C 433.60714727591227 426.62363716518155  436.5559528408234 428.17917524592076  439.5075632436837 429.7293787309318  L 439.97254010498915 428.84405589803373  Z M 451.49381708798353 434.8605971170847  C 448.53602260921105 433.3248393048903  445.58100685919254 431.78373570590236  442.6287843236746 430.23729387474503  L 442.16476801676026 431.1231205321208  C 445.11805813882484 432.67012158958113  448.07414248516784 434.21178248429305  451.03300656542035 435.7480956592216  L 451.49381708798353 434.8605971170847  Z M 463.04324580925476 440.822919464264  C 460.07826561930494 439.30108086914964  457.1160390011001 437.77388348568473  454.1565804757319 436.2413348003243  L 453.6967328650299 437.129332646567  C 456.6572615936329 438.662435534173  459.6205594157647 440.19018518457943  462.5866118057009 441.71257410894265  L 463.04324580925476 440.822919464264  Z M 474.62057111779546 446.7308912194137  C 471.6484707192753 445.2230054619735  468.6790986746572 443.7097480330132  465.7124695400606 442.191126350652  L 465.25680078456537 443.08127576803395  C 468.22450271522064 444.6004466162267  471.19494854814604 446.11425127137113  474.1681237212501 447.6226823123045  L 474.62057111779546 446.7308912194137  Z M 486.22553724629955 452.584381863095  C 483.24638229911625 451.09048225567574  480.269930427717 449.59119821223766  477.2961962229277 448.0865370824014  L 476.844716389314 448.9788184056623  C 479.8195259597279 450.4840236530102  482.79705417920707 451.9838498693343  485.77728645227086 453.4782897026695  L 486.22553724629955 452.584381863095  Z M 497.85788781682237 458.3832620794712  C 494.8717441367327 456.90338162543605  491.88827819459294 455.41810408983696  488.90750461561197 453.92743675363346  L 488.46022367801265 454.82183027041464  C 491.44207516798355 456.31303666356473  494.42661999508476 457.7988513072214  497.41384352810695 459.2792669174376  L 497.85788781682237 458.3832620794712  Z M 509.51736584643555 464.1274037591618  C 506.524299403592 462.66157515216184  503.5338853017074 461.19033693728596  500.54613820005073 459.713696326671  L 500.10306603983605 460.6101822779512  C 503.09189357425646 462.087356873151  506.0833890737056 463.55912711916653  509.0775378728994 465.0254858009014  L 509.51736584643555 464.1274037591618  Z M 521.203713752912 469.81668000207793  C 518.2037906704057 468.3649356253297  515.206494473271 466.90776923390223  512.2118398545143 465.4451879709521  L 511.7729862600741 466.34374655148366  C 514.7687238097228 467.80685671496934  517.7671038926871 469.2645500486471  520.768111811274 470.716819407082  L 521.203713752912 469.81668000207793  Z M 530.7043468677216 474.39195904541793  C 528.4361957533891 473.3049939706417  526.1695286412289 472.21493496305067  523.9043518592792 471.1217850658513  L 523.4697265258061 472.0223964245979  C 526.4723079081355 473.4714098329911  529.4775063350289 474.9149940512745  532.4853070740269 476.35314200252884  L 530.7043468677216 474.39195904541793  Z M 258.83157126404177 326.7160483271933  C 255.97155112610287 325.0047066125544  253.11361777844388 323.2898798329447  250.2577775887657 321.5715718091323  L 249.7422224112343 322.4284281908677  C 252.59875880702765 324.1471551094621  255.45738887068853 325.86239993495064  258.3181062337441 327.57415884610185  L 258.83157126404177 326.7160483271933  Z M 526.8785243146018 480.1195564895489  L 535 477  L 532.2800868631156 468.7360982261523  L 526.8785243146018 480.1195564895489  Z " fill-rule="nonzero" fill="rgba(121, 121, 121, 1)" stroke="none" class="fill" />
  </g>
</svg>