<?xml version="1.0" encoding="utf-8"?>
<svg version="1.1" xmlns:xlink="http://www.w3.org/1999/xlink" width="160px" height="14px" viewBox="446 392 160 14" xmlns="http://www.w3.org/2000/svg">
  <g transform="matrix(0.8090169943749472 -0.587785252292475 0.5877852522924725 0.8090169943749502 -134.06925470591887 385.37726195023674 )">
    <path d="M 334.9803067435497 322.28245962346807  C 331.66116968222127 321.9352263595333  328.3381035832002 321.6266363056089  325.01178364655186 321.3567521628324  L 324.930913441509 322.35347680381216  C 328.2494994566685 322.62273344748724  331.5648391995885 322.9306060084173  334.87625904010474 323.2770319312506  L 334.9803067435497 322.28245962346807  Z M 347.9023315091966 323.8322894793003  C 344.59522009861405 323.384789882079  341.283012242812 322.97579692406714  337.9663809355678 322.60539370684774  L 337.8553904052727 323.59921517078624  C 341.1643103177467 323.9687571751763  344.4688170636217 324.37679919657234  347.76823921384533 324.8232583266045  L 347.9023315091966 323.8322894793003  Z M 360.7715478176133 325.77238438244314  C 357.47949025546325 325.2250282105061  354.18117350714414 324.7160068478889  350.8772677440026 324.2454237205383  L 350.73625851831395 325.2354320024586  C 354.03248247445396 325.7049209918338  357.3231304106061 326.212758844947  360.60753371363273 326.7588423763261  L 360.7715478176133 325.77238438244314  Z M 373.5761718109198 328.10096786088263  C 370.30218251062246 327.4542563077114  367.02077701453084 326.8456726322288  363.7326220578646 326.2753404900362  L 363.5617232536327 327.26062907654887  C 366.8422330249927 327.8296351574789  370.11600902875136 328.43680383426926  373.382386079863 329.08201173882026  L 373.5761718109198 328.10096786088263  Z M 386.304478775992 330.815907718212  C 383.0515556065466 330.07043295327895  379.79006602241384 329.36284422213816  376.52067271218147 328.693285296819  L 376.3200408150206 329.6729519961824  C 379.58183256206627 330.34095415117906  382.8357389597092 331.04689769009474  386.0810988601724 331.79063917518283  L 386.304478775992 330.815907718212  Z M 398.94190544008677 333.9328975087682  C 396.0172327696668 333.1584999137621  393.0835027479175 332.4187227105291  390.14133099182925 331.7137211346948  C 389.8375361509729 331.6411644703524  389.53366236328685 331.5689387558432  389.22971016941295 331.49704411966866  L 388.99952889041384 332.47019188789216  C 389.30265393335895 332.5418908758158  389.60570081460924 332.61391990998266  389.9086689953565 332.6862788623273  C 392.84305140338404 333.38941696900054  395.7690147403193 334.12723721373493  398.68594506926524 334.899584784245  L 398.94190544008677 333.9328975087682  Z M 411.46631091071316 337.47752031785666  C 408.2706052071265 336.51424027907126  405.0624657761415 335.59270177477794  401.8427119444005 334.71314015667053  L 401.57919106461185 335.6777938488915  C 404.79055309990986 336.5550630240222  407.9903310056007 337.4741996789947  411.17770759051626 338.43496907553055  L 411.46631091071316 337.47752031785666  Z M 423.8632747555861 341.4449339187157  C 420.7020827097207 340.3738091704872  417.52704820958445 339.3439801815873  414.33898212710864 338.35570995999944  L 414.04289162827416 339.3108698505413  C 417.22264850357675 340.2965642967839  420.38940776137804 341.32370919376405  423.5423606431408 342.39204221898206  L 423.8632747555861 341.4449339187157  Z M 436.1185291558504 345.8305721660143  C 432.9954890226961 344.6528354790515  429.8572136398283 343.51590124844773  426.70450449126827 342.42005983578963  L 426.3761851476012 343.3646266193333  C 429.5206772414343 344.4576118887713  432.6507731889904 345.5915828740066  435.76567359517367 346.76624997022867  L 436.1185291558504 345.8305721660143  Z M 448.21796938780176 350.62938757450854  C 445.1366755128334 349.3463944205156  442.03877112714576 348.10366345986085  438.9250474044128 346.9015120735536  L 438.5648770827022 347.8343986365177  C 441.6704853602646 349.0334167989005  444.7603155314765 350.2729087711737  447.8335784847179 351.5525579995257  L 448.21796938780176 350.62938757450854  Z M 460.14767005618734 355.83585712825476  C 457.1116687385953 354.44908411990406  454.05770076652027 353.1019867036153  450.9865460927173 351.7949089145421  L 450.59493931743634 352.71504158625527  C 453.6580894957911 354.01871267676574  456.70409776693987 355.362299089452  459.73218621093594 356.7454576858267  L 460.14767005618734 355.83585712825476  Z M 471.8895845296028 361.45410432357227  C 468.9038492572444 359.962183326835  465.8987731222361 358.50928648045004  462.8751235908485 357.09578483968335  L 462.45163171911577 358.00168474286045  C 465.46740056995105 359.4115023075543  468.46464443313664 360.86061240028647  471.4425978426663 362.3486449328805  L 471.8895845296028 361.45410432357227  Z M 483.43286288253614 367.4689034156508  C 480.4994520557878 365.8765641620286  477.5453877885118 364.32257055578833  474.5714245190602 362.80731947129334  L 474.11744802592375 363.6983331320638  C 477.08366011447373 365.2096349461061  480.0300250645665 366.7595783054348  482.95579040415953 368.347767370069  L 483.43286288253614 367.4689034156508  Z M 494.7654752867717 373.87179177534705  C 491.8877650043965 372.1808669077605  488.9881124739159 370.5275650521061  486.0672582374708 368.91230844507703  L 485.5833196100856 369.78741038481  C 488.49656108621645 371.39845707227454  491.388656115379 373.0474498492301  494.2588660855646 374.73396757949166  L 494.7654752867717 373.87179177534705  Z M 505.8743788986777 380.6554002393393  C 503.05568115299417 378.8678358641101  500.2137776052318 377.117128564574  497.34939404902144 375.40372545379654  L 496.8360502583327 376.26190850685765  C 499.69296823642253 377.9708458941995  502.5274647967808 379.7169902426368  505.33881603742907 381.499895604425  L 505.8743788986777 380.6554002393393  Z M 516.7467883438355 387.8119214688342  C 513.9903472089044 385.9297749158873  511.20946342576553 384.08367708313074  508.4048472042145 382.27409944541444  L 507.8626890639335 383.114375918325  C 510.6599954817906 384.9192371683947  513.4336313162189 386.7605234292016  516.1828882084592 388.63776445471143  L 516.7467883438355 387.8119214688342  Z M 527.3704564481221 395.3333701276232  C 527.3539317079277 395.32122642990294  527.3374060991404 395.30908391398196  527.3208796220752 395.29694258009187  C 524.6459914047874 393.33486698900526  521.9457690752847 391.40756512966584  519.2208938454222 389.51552322161933  L 518.6505453320509 390.3369260298049  C 521.3682169404116 392.22396603771966  524.0613017460029 394.14617146954555  526.729120388449 396.1030574277399  C 526.7455086890216 396.11509727078715  526.761896132611 396.1271382780306  526.7782827212517 396.139180450965  L 527.3704564481221 395.3333701276232  Z M 537.7399769722306 403.1980850446507  C 535.1118109289048 401.1413923062535  532.4597960403507 399.11535845887295  529.7844711585119 397.12039516395225  L 529.1866846822352 397.9220505317886  C 531.8557892506383 399.9123754005237  534.5016380230804 401.93369858055314  537.1236934004974 403.9856093675842  L 537.7399769722306 403.1980850446507  Z M 547.8667916454602 411.3729441382425  C 545.3020570814288 409.2376740411398  542.7125569617023 407.13232721705674  540.0988174360707 405.0573314426828  L 539.4770493988306 405.8405328905023  C 542.0847118011882 407.910704157694  544.6681911559305 410.01115590633714  547.2269625365774 412.14146135433225  L 547.8667916454602 411.3729441382425  Z M 557.7416277240771 419.8504619970539  C 555.2426730704358 417.63856972786203  552.7180588274855 415.4558377140462  550.1682979611593 413.30270945590223  L 549.5231176925876 414.0667398355638  C 552.0669501904011 416.21486192315353  554.5856945324714 418.3925189356678  557.0788389455216 420.59926840395815  L 557.7416277240771 419.8504619970539  Z M 567.3554431916792 428.6228760764801  C 564.9245566473131 426.3363869818447  562.4671399755642 424.0782684240062  559.9836924887687 421.84897922074083  L 559.3156907561983 422.5931389383303  C 561.793364057627 424.81724489163184  564.245067067447 427.07011316929487  566.6703016342345 429.3512860203044  L 567.3554431916792 428.6228760764801  Z M 576.6994350386318 437.682153806526  C 574.3388424750165 435.3231615386027  571.9508735386015 432.99172411107884  569.5360134308922 430.68831523905624  L 568.8458018984128 431.41192289547814  C 571.2550472911056 433.70997618423456  573.6374640363288 436.0359928601934  575.9925680606815 438.3895003096511  L 576.6994350386318 437.682153806526  Z M 582.9227891228322 444.03119304689153  C 581.563670801064 442.61565190524135  580.1948803987243 441.20942917716735  578.8165140861217 439.8126236629483  L 578.1047247545025 440.5150166778573  C 580.4433361829624 442.88491306100417  582.7542851740928 445.28194828918726  585.0371021757309 447.70563531873705  L 582.9227891228322 444.03119304689153  Z M 322.01730573327313 321.1243139359186  C 318.68918223029124 320.8776649537231  315.35830069486224 320.66976036820773  312.0253379149911 320.50064242264295  L 311.9746620850089 321.49935757735705  C 315.2998754983106 321.66808231212406  318.623012506245 321.87550350525163  321.9433978943074 322.121579011683  L 322.01730573327313 321.1243139359186  Z M 577.3000981239678 447.95867993935434  L 586 448  L 586.465404075933 439.31245724925026  L 577.3000981239678 447.95867993935434  Z " fill-rule="nonzero" fill="rgba(121, 121, 121, 1)" stroke="none" class="fill" />
  </g>
</svg>