<svg width="16" height="16" viewBox="0 0 16 16" fill="none" xmlns="http://www.w3.org/2000/svg">
<path d="M11.9999 5.33329V3.99996C11.9999 3.64634 11.8594 3.3072 11.6094 3.05715C11.3593 2.8071 11.0202 2.66663 10.6666 2.66663H2.66659C2.31296 2.66663 1.97382 2.8071 1.72378 3.05715C1.47373 3.3072 1.33325 3.64634 1.33325 3.99996V8.66663C1.33325 9.02025 1.47373 9.35939 1.72378 9.60943C1.97382 9.85948 2.31296 9.99996 2.66659 9.99996H7.99992" stroke="#1E293B" stroke-linecap="round" stroke-linejoin="round"/>
<path d="M6.66675 12.6666V10.0266V12.1266" stroke="#1E293B" stroke-linecap="round" stroke-linejoin="round"/>
<path d="M4.66675 12.6666H8.00008" stroke="#1E293B" stroke-linecap="round" stroke-linejoin="round"/>
<path d="M13.3334 8H12.0001C11.2637 8 10.6667 8.59695 10.6667 9.33333V13.3333C10.6667 14.0697 11.2637 14.6667 12.0001 14.6667H13.3334C14.0698 14.6667 14.6667 14.0697 14.6667 13.3333V9.33333C14.6667 8.59695 14.0698 8 13.3334 8Z" stroke="#1E293B" stroke-linecap="round" stroke-linejoin="round"/>
</svg>
