<?xml version="1.0" encoding="utf-8"?>
<svg version="1.1" xmlns:xlink="http://www.w3.org/1999/xlink" width="66px" height="66px" xmlns="http://www.w3.org/2000/svg">
  <g transform="matrix(1 0 0 1 -630 -582 )">
    <path d="M 663 584  C 680.36 584  694 597.64  694 615  C 694 632.36  680.36 646  663 646  C 645.64 646  632 632.36  632 615  C 632 597.64  645.64 584  663 584  Z " fill-rule="nonzero" fill="#ffffff" stroke="none" />
    <path d="M 663 583.5  C 680.64 583.5  694.5 597.36  694.5 615  C 694.5 632.64  680.64 646.5  663 646.5  C 645.36 646.5  631.5 632.64  631.5 615  C 631.5 597.36  645.36 583.5  663 583.5  Z " stroke-width="3" stroke="#d9001b" fill="none" />
  </g>
</svg>