<?xml version="1.0" encoding="utf-8"?>
<svg version="1.1" xmlns:xlink="http://www.w3.org/1999/xlink" width="66px" height="66px" xmlns="http://www.w3.org/2000/svg">
  <g transform="matrix(1 0 0 1 -1782 -697 )">
    <path d="M 1815 699  C 1832.36 699  1846 712.64  1846 730  C 1846 747.36  1832.36 761  1815 761  C 1797.64 761  1784 747.36  1784 730  C 1784 712.64  1797.64 699  1815 699  Z " fill-rule="nonzero" fill="#ffffff" stroke="none" />
    <path d="M 1815 698.5  C 1832.64 698.5  1846.5 712.36  1846.5 730  C 1846.5 747.64  1832.64 761.5  1815 761.5  C 1797.36 761.5  1783.5 747.64  1783.5 730  C 1783.5 712.36  1797.36 698.5  1815 698.5  Z " stroke-width="3" stroke="#797979" fill="none" />
  </g>
</svg>