<?xml version="1.0" encoding="utf-8"?>
<svg version="1.1" xmlns:xlink="http://www.w3.org/1999/xlink" width="42px" height="8px" viewBox="1790 776  42 8" xmlns="http://www.w3.org/2000/svg">
  <g transform="matrix(-0.173648177666929 -0.984807753012182 0.984807753012205 -0.173648177666927 1357.32680240529 2698.93241928526 )">
    <path d="M 1811.88085154462 776.589106184538  C 1812.30932810608 774.658405970443  1812.80288943482 772.742727745398  1813.3606915289 770.845347365964  L 1811.44189183839 770.281248307549  C 1810.87138858232 772.221832066479  1810.36658885478 774.181130313238  1809.92835587563 776.155792599961  L 1811.88085154462 776.589106184538  Z M 1810.51689323354 784.377853076162  C 1810.76999964593 782.416442200179  1811.08927806382 780.46413916555  1811.47418251332 778.524282458168  L 1809.51242698444 778.135032866161  C 1809.11875825489 780.119060139661  1808.79220986267 782.115817143459  1808.5333402135 784.121889374301  L 1810.51689323354 784.377853076162  Z M 1809.85892819456 792.257703482332  C 1809.93461318607 790.281477973317  1810.0770211379 788.308372344517  1810.28590852897 786.341760654765  L 1808.29709598377 786.130515157716  C 1808.08345222369 788.141906624934  1807.93780164067 790.159939898283  1807.86039330078 792.181164091571  L 1809.85892819456 792.257703482332  Z M 1809.93993471673 800.156052058635  C 1809.86904226935 798.966799663685  1809.82235312139 797.776228007407  1809.79989625661 796.585076175265  C 1809.7912787746 795.801536233731  1809.79314679153 795.017916054253  1809.80549980569 794.234426102808  L 1807.8057483467 794.202896715553  C 1807.79307278473 795.006844262349  1807.79119113729 795.810925756079  1807.80010391306 796.614923822183  C 1807.82301474152 797.835817738333  1807.8708162838 799.056117619197  1807.94347873794 800.275062666487  L 1809.93993471673 800.156052058635  Z M 1810.76527534149 808.020133268113  C 1810.47052686933 806.06454670174  1810.24190996832 804.099563200608  1810.07981557896 802.128542934513  L 1808.08654468949 802.292467188983  C 1808.25232997052 804.308367615892  1808.48615248176 806.318093820606  1808.78761238103 808.31820912222  L 1810.76527534149 808.020133268113  Z M 1812.29451282732 815.778122255477  C 1811.82508674602 813.85696774982  1811.42067916243 811.920506969557  1811.0819816234 809.972051309947  L 1809.11153006969 810.314572366936  C 1809.45793975673 812.307394390934  1809.87155570702 814.287948412  1810.35167062718 816.252847634363  L 1812.29451282732 815.778122255477  Z M 1814.51525364489 823.36714529124  C 1813.87495436414 821.49599262203  1813.29803357271 819.603748386323  1812.78547781926 817.693648367993  L 1810.8538148993 818.211990304988  C 1811.37804155489 820.165583329184  1811.96809884133 822.100913994314  1812.62297774624 824.01467283767  L 1814.51525364489 823.36714529124  Z M 1813.93974908453 768.954585810848  C 1814.54012325605 767.07024339648  1815.20396748461 765.206715374858  1815.93014658036 763.367188424442  L 1814.06985341964 762.632811575558  C 1813.32713921506 764.514224582033  1812.64817924353 766.420185164455  1812.03413454319 768.347434083664  L 1813.93974908453 768.954585810848  Z M 1806.29004675221 826.46774747142  L 1816 830  L 1820.31707436766 820.612621830134  L 1806.29004675221 826.46774747142  Z " fill-rule="nonzero" fill="#797979" stroke="none" />
  </g>
</svg>