<?xml version="1.0" encoding="utf-8"?>
<svg version="1.1" xmlns:xlink="http://www.w3.org/1999/xlink" width="44px" height="8px" viewBox="2110 778  44 8" xmlns="http://www.w3.org/2000/svg">
  <g transform="matrix(-0.139173100960071 -0.990268068741524 0.99026806874156 -0.139173100960071 1654.32742149097 3002.08488750771 )">
    <path d="M 2134.77085686477 777.074264454472  C 2134.94922080795 775.061339721065  2135.06518643621 773.043372727711  2135.11858690697 771.023266772987  L 2133.11928532322 770.970416255168  C 2133.06697630623 772.949233205744  2132.95338090281 774.925954913265  2132.77866254543 776.897737419714  L 2134.77085686477 777.074264454472  Z M 2133.72594851536 785.086720895634  C 2134.06978341593 783.095375310427  2134.35184876473 781.093856399141  2134.57173874743 779.085043796112  L 2132.58361420906 778.867418384128  C 2132.36821856409 780.835172808157  2132.09191835713 782.795782616425  2131.75511110805 784.746427031516  L 2133.72594851536 785.086720895634  Z M 2132.0235241662 792.985647595862  C 2132.53048544044 791.029459991114  2132.97672712788 789.058037365273  2133.36160720964 787.07421605245  L 2131.39821658484 786.693299717234  C 2131.02120307822 788.636573648769  2130.58408213756 790.567702310428  2130.08748265949 792.483907340047  L 2132.0235241662 792.985647595862  Z M 2129.66882400876 800.723176851476  C 2129.72782610821 800.558449628007  2129.78638626333 800.39356444284  2129.8445038421 800.228523075516  C 2130.44502404681 798.480407040103  2130.99589183577 796.715626545096  2131.49644408742 794.93630599137  L 2129.57117558571 794.39469617209  C 2129.08154802505 796.135182563874  2128.54277258962 797.861466859285  2127.95549601089 799.571476873357  C 2127.89940442996 799.730724087446  2127.84289219163 799.889822821171  2127.78595988767 800.048771408497  L 2129.66882400876 800.723176851476  Z M 2126.63236431998 808.211247646987  C 2127.46842899923 806.371498878629  2128.24730211211 804.506292325109  2128.96786307476 802.618311504849  L 2127.09932591451 801.905171349778  C 2126.39349251825 803.754563675352  2125.6305388155 805.581647218075  2124.81156248645 807.383793308053  L 2126.63236431998 808.211247646987  Z M 2122.98844389725 815.42326093268  C 2123.97344901092 813.658765366062  2124.90355797972 811.864180143954  2125.77743263305 810.042087180126  L 2123.97410477305 809.177212258925  C 2123.11809126907 810.962063411872  2122.20699282444 812.719969054625  2121.24212025883 814.448400045232  L 2122.98844389725 815.42326093268  Z M 2118.76191035345 822.310038545123  C 2119.88913922749 820.632828139688  2120.96414171074 818.921101387476  2121.98537117077 817.177320991742  L 2120.25954936486 816.166608819923  C 2119.25919284336 817.87474803762  2118.20616236701 819.551488757152  2117.10197295659 821.194418610511  L 2118.76191035345 822.310038545123  Z M 2114.58972220399 828.055968448175  C 2115.63414564081 826.722203451778  2116.6437573629 825.361541450605  2117.61753646311 823.975358329587  L 2115.98098895735 822.825700875648  C 2114.84311077243 824.445480488262  2113.65532879812 826.029622718668  2112.41935192548 827.575848422581  L 2114.58972220399 828.055968448175  Z M 2135.15112406481 769.002914596068  C 2135.1628008006 766.982136693277  2135.11187594764 764.96148197943  2134.99842277276 762.943857620021  L 2133.00157722724 763.056142379979  C 2133.11271152939 765.032528456646  2133.16259552781 767.011882950249  2133.15115745316 768.991358114933  L 2135.15112406481 769.002914596068  Z M 2108.85311072732 821.731375700892  L 2110 832  L 2120.32810392894 831.699551613408  L 2108.85311072732 821.731375700892  Z " fill-rule="nonzero" fill="#797979" stroke="none" />
  </g>
</svg>