<?xml version="1.0" encoding="utf-8"?>
<svg version="1.1" xmlns:xlink="http://www.w3.org/1999/xlink" width="48px" height="8px" viewBox="2528 778  48 8" xmlns="http://www.w3.org/2000/svg">
  <g transform="matrix(-0.342020143325677 -0.939692620785937 0.939692620785899 -0.342020143325677 2689.99577631256 3447.55532032639 )">
    <path d="M 2555.88916621065 776.931727091149  C 2556.4598891381 774.995271445444  2556.97624916153 773.043206717266  2557.43763860475 771.077830186067  L 2555.49057213875 770.620739191854  C 2555.03771980369 772.54975027894  2554.53091401136 774.465695871843  2553.97075119409 776.366321197787  L 2555.88916621065 776.931727091149  Z M 2553.31938061104 784.58461669106  C 2554.03303688666 782.696157041508  2554.69364684153 780.788074531684  2555.30043303953 778.862614680732  L 2553.39291137745 778.261481493582  C 2552.79735256984 780.151314480417  2552.14896590857 782.024091659804  2551.44851444486 783.877609061512  L 2553.31938061104 784.58461669106  Z M 2550.18559770779 792.024369507632  C 2551.0382065667 790.194439656133  2551.8393815798 788.340982622586  2552.58817988753 786.466179640397  L 2550.7308431589 785.724357372941  C 2549.99589989756 787.564470797179  2549.20954905922 789.38363323775  2548.37271605768 791.17970382071  L 2550.18559770779 792.024369507632  Z M 2546.50529769874 799.209486702203  C 2547.49210330048 797.448293972235  2548.42937442861 795.659800972773  2549.31600805944 793.846112484526  L 2547.51921646294 792.967739011148  C 2546.64898825125 794.747868745476  2545.72905948997 796.503269184206  2544.76051279354 798.231874491466  L 2546.50529769874 799.209486702203  Z M 2542.26489387557 806.087326010157  C 2543.12199969271 804.816002309971  2543.95195787751 803.526585435098  2544.75420493366 802.219950829199  C 2545.00636537332 801.802076693219  2545.25569267554 801.382499476557  2545.50216968462 800.961248049442  L 2543.775945699 799.951222925267  C 2543.53532428916 800.362466605427  2543.29193518209 800.772084624223  2543.04579494609 801.180049097631  C 2542.25964093992 802.460264451371  2541.44638223785 803.723636484798  2540.60656911825 804.969310357649  L 2542.26489387557 806.087326010157  Z M 2537.50530671937 812.607820420778  C 2538.75561966069 811.022795917361  2539.96128186555 809.403054263688  2541.12087445523 807.750501646184  L 2539.48371753707 806.601712185355  C 2538.34558093754 808.2236875527  2537.16222715087 809.813459058832  2535.93504880217 811.369155787609  L 2537.50530671937 812.607820420778  Z M 2532.2723445846 818.754903025759  C 2533.63746685209 817.267614781163  2534.96065398738 815.742373757002  2536.24034880307 814.180974926979  L 2534.69349645508 812.913202150218  C 2533.43747988606 814.445710352418  2532.13877573764 815.942729778147  2530.79891238454 817.40249866618  L 2532.2723445846 818.754903025759  Z M 2526.59519686192 824.494285483062  C 2528.06751382238 823.113029570623  2529.50084516852 821.690796949367  2530.89350409016 820.229261367982  L 2529.44558463341 818.849576894363  C 2528.07869413801 820.284069621784  2526.67188378168 821.679986613402  2525.22680916349 823.035685089948  L 2526.59519686192 824.494285483062  Z M 2521.32785031243 829.12392646712  C 2522.61358204696 828.06577137034  2523.87469020536 826.978046782773  2525.11016494261 825.861623710798  L 2523.76925485187 824.377723401296  C 2522.29911492643 825.706199073285  2520.79204553096 826.99322722504  2519.24982025399 828.237293222692  L 2521.32785031243 829.12392646712  Z M 2557.88062027796 769.108388420596  C 2558.30522637263 767.134738301638  2558.67445621552 765.149579945252  2558.98787528 763.155249577005  L 2557.01212472 762.844750422995  C 2556.70450486157 764.802179613073  2556.3421068939 766.750606501393  2555.92535730355 768.6877380897  L 2557.88062027796 769.108388420596  Z M 2517.04 821.72  L 2516 832  L 2526.16 833.88  L 2517.04 821.72  Z " fill-rule="nonzero" fill="#797979" stroke="none" />
  </g>
</svg>