<?xml version="1.0" encoding="utf-8"?>
<svg version="1.1" xmlns:xlink="http://www.w3.org/1999/xlink" width="42px" height="8px" viewBox="1906 776  42 8" xmlns="http://www.w3.org/2000/svg">
  <g transform="matrix(0.139173100960049 -0.990268068741558 0.990268068741576 0.139173100960061 886.404340831556 2579.69154971613 )">
    <path d="M 1927.55900205343 776.339785168076  C 1927.19066641706 774.351930585925  1926.75826478567 772.376482641166  1926.26247252402 770.416526770721  L 1924.32354587746 770.906999460316  C 1924.80878415182 772.825233523191  1925.23198119962 774.758629878809  1925.59247603264 776.704168770283  L 1927.55900205343 776.339785168076  Z M 1928.68847210625 784.344058234064  C 1928.4923723516 782.331899724645  1928.23137727375 780.326594929202  1927.90589451888 778.331275917846  L 1925.93198415801 778.653266425858  C 1926.25053832379 780.606110850368  1926.5059775692 782.568728490433  1926.69790292566 784.53805394866  L 1928.68847210625 784.344058234064  Z M 1929.12572809208 792.41579268943  C 1929.10331585279 790.394225309324  1929.01565935144 788.373907984967  1928.86289549805 786.357996234449  L 1926.86861334652 786.509121017627  C 1927.01812529807 788.482119821284  1927.10391584532 790.459430416806  1927.12585099269 792.437964458009  L 1929.12572809208 792.41579268943  Z M 1928.85123826151 800.501910242176  C 1928.90772062908 799.820845657198  1928.95677038745 799.139185076866  1928.9983787785 798.457050215895  C 1929.06972675458 797.118190268532  1929.11240734985 795.777956454276  1929.12639123647 794.437269711126  L 1927.12650002065 794.416410064267  C 1927.11284052144 795.725996590377  1927.07120470162 797.035141850062  1927.00162105959 798.342949774815  C 1926.96099874123 799.008004525719  1926.91314915519 799.672598111317  1926.85808078001 800.336612771173  L 1928.85123826151 800.501910242176  Z M 1927.837202911 808.52162483953  C 1928.17686131892 806.528669961286  1928.45210466389 804.525271135699  1928.66250304546 802.514557455978  L 1926.67336319235 802.306416530681  C 1926.4674435855 804.274327915473  1926.19805937748 806.235080158272  1925.86563131743 808.185610775251  L 1927.837202911 808.52162483953  Z M 1926.13755984365 816.424491620559  C 1926.64727207369 814.4681096478  1927.09370540171 812.495785375035  1927.47616254694 810.510599360362  L 1925.51227646139 810.132245765145  C 1925.1379607257 812.07517289525  1924.70103067563 814.005512072833  1924.20216874886 815.920248316  L 1926.13755984365 816.424491620559  Z M 1923.7648907122 824.15200940493  C 1924.4408836061 822.246682506948  1925.05520218266 820.320032969583  1925.60688694241 818.375070011933  L 1923.68279234311 817.82930451929  C 1923.14285136072 819.732864825247  1922.54160985484 821.618501550806  1921.88000689995 823.483269534487  L 1923.7648907122 824.15200940493  Z M 1922.32585983021 827.945953565924  C 1922.58025405373 827.316588010263  1922.82781984684 826.684483853647  1923.06851359397 826.049752458721  L 1921.19845364208 825.340615112144  C 1920.49688434039 827.190717438448  1919.73578208484 829.017693236262  1918.9163356352 830.818688966143  L 1922.32585983021 827.945953565924  Z M 1925.74567886557 768.462225334507  C 1925.20783396177 766.513389825736  1924.60722664134 764.58242203731  1923.94479498824 762.672337932938  L 1922.05520501176 763.327662067062  C 1922.70353540555 765.197085989923  1923.2913575284 767.086949043445  1923.81775326546 768.994299465072  L 1925.74567886557 768.462225334507  Z M 1915.08238312165 823.439023167351  L 1919 833  L 1928.85018976066 829.880102296715  L 1915.08238312165 823.439023167351  Z " fill-rule="nonzero" fill="#797979" stroke="none" />
  </g>
</svg>