<?xml version="1.0" encoding="utf-8"?>
<svg version="1.1" xmlns:xlink="http://www.w3.org/1999/xlink" width="42px" height="8px" viewBox="2006 812  42 8" xmlns="http://www.w3.org/2000/svg">
  <g transform="matrix(-0.275637355816994 -0.961261695938308 0.961261695938324 -0.27563735581699 1801.32737635537 2989.39754001361 )">
    <path d="M 2031.14899056118 776.473563479768  C 2030.84343245121 774.474823509062  2030.47264718495 772.486601267716  2030.03722825042 770.51207915325  L 2028.0841521163 770.942768849324  C 2028.5101892063 772.874746512893  2028.87298527081 774.820129110713  2029.17195960949 776.77580281545  L 2031.14899056118 776.473563479768  Z M 2032.02153762666 784.510907520978  C 2031.89105942419 782.493160592413  2031.69468627037 780.480215739931  2031.43273248489 778.475294932685  L 2029.4495878289 778.734403545807  C 2029.70589737272 780.696124910411  2029.89803933159 782.665697428481  2030.02570615837 784.639968553718  L 2032.02153762666 784.510907520978  Z M 2032.19140335738 792.593690658722  C 2032.23699487606 790.572243493327  2032.21652353046 788.549846321978  2032.1300220875 786.529736243437  L 2030.13185313624 786.615298163746  C 2030.21649075788 788.591881520854  2030.23652101339 790.570702691445  2030.19191184184 792.548594325586  L 2032.19140335738 792.593690658722  Z M 2031.63739416214 800.666399505866  C 2031.73477673327 799.841005915039  2031.82106913343 799.014341613271  2031.89624801541 798.186630262229  C 2031.99505674692 796.997427518755  2032.07092397439 795.806429935698  2032.12380738724 794.61430172315  L 2030.12577234231 794.525667873982  C 2030.07414187131 795.689551552914  2030.00012133093 796.852334047485  2029.90375182103 798.013369723587  C 2029.83035612726 798.820690423445  2029.74615481948 799.626992276211  2029.65117053591 800.432058500913  L 2031.63739416214 800.666399505866  Z M 2030.34137063659 808.64640957099  C 2030.75211583436 806.666607658788  2031.09806143424 804.673913242524  2031.37865370715 802.671515878005  L 2029.39800508588 802.393971216626  C 2029.12345865266 804.353223510382  2028.78496704152 806.302981922474  2028.38307205047 808.240125621519  L 2030.34137063659 808.64640957099  Z M 2028.35588014641 816.483377424164  C 2028.9373403963 814.546826054627  2029.4553686795 812.591792527425  2029.90913582717 810.621406117417  L 2027.96015047816 810.172567494602  C 2027.51616051859 812.10049856453  2027.0092940394 814.013407555724  2026.44036234357 815.908232618909  L 2028.35588014641 816.483377424164  Z M 2025.69598471382 824.117851466686  C 2026.44374903161 822.239241407598  2027.12993021175 820.336699743749  2027.75342993573 818.413271730211  L 2025.8508929515 817.796544056403  C 2025.24082759384 819.678528528702  2024.56943135904 821.540076683386  2023.83777890045 823.378208880601  L 2025.69598471382 824.117851466686  Z M 2024.47214728088 827.045814471016  C 2024.62624755577 826.694156677579  2024.77816449179 826.341546155485  2024.92788931688 825.988003265355  L 2023.08623343053 825.208065065063  C 2022.31472065865 827.029826118939  2021.48388791096 828.825891647164  2020.59506503883 830.59338682299  L 2024.47214728088 827.045814471016  Z M 2029.58038134313 768.542630196773  C 2029.10206130355 766.578059717308  2028.55967671893 764.62964283249  2027.95409574342 762.700498226412  L 2026.04590425658 763.299501773588  C 2026.6384369558 765.18707966468  2027.1691349383 767.093514580353  2027.63714875579 769.015755033892  L 2029.58038134313 768.542630196773  Z M 2017.3676195482 822.32705772511  L 2021 832  L 2030.93837308736 829.173564015137  L 2017.3676195482 822.32705772511  Z " fill-rule="nonzero" fill="#797979" stroke="none" />
  </g>
</svg>