<?xml version="1.0" encoding="utf-8"?>
<svg version="1.1" xmlns:xlink="http://www.w3.org/1999/xlink" width="44px" height="8px" viewBox="2204 810  44 8" xmlns="http://www.w3.org/2000/svg">
  <g transform="matrix(-0.499999999999983 -0.866025403784411 0.866025403784447 -0.499999999999983 2634.05532131942 3148.77254882408 )">
    <path d="M 2239.79594639681 777.074336139418  C 2239.97530636162 775.060840721495  2240.09029500786 773.04212914109  2240.14073638511 771.021290339394  L 2238.14135912639 770.971384655436  C 2238.09198064714 772.949640450038  2237.9794150355 774.925813848059  2237.80383453426 776.896880998279  L 2239.79594639681 777.074336139418  Z M 2238.73663098548 785.087360012047  C 2239.08665341576 783.096426036932  2239.37298174576 781.094817953143  2239.59517784883 779.085598530893  L 2237.60729657038 778.86576217627  C 2237.38978257171 780.832643434374  2237.10948773696 782.792073739732  2236.7668409606 784.741054860665  L 2238.73663098548 785.087360012047  Z M 2236.99939016237 792.981199068331  C 2237.51753664379 791.027265083066  2237.97312816224 789.057276453164  2238.36546759219 787.074247566162  L 2236.40349870247 786.686074826564  C 2236.01942662799 788.627317434976  2235.57343530963 790.555794569891  2235.06620718315 792.468555362779  L 2236.99939016237 792.981199068331  Z M 2234.58206866808 800.701629979737  C 2234.7746226546 800.177650664945  2234.96255014175 799.651982758932  2235.14582918946 799.124687632157  C 2235.61639598254 797.736564777156  2236.05474504324 796.337727904403  2236.46052365548 794.929302583281  L 2234.53869564245 794.375608544711  C 2234.14217667228 795.75189438399  2233.71388721347 797.118827632934  2233.25417065874 798.475312315642  C 2233.07555200475 798.98906246556  2232.89242552869 799.501234252663  2232.70481241016 800.011768441385  L 2234.58206866808 800.701629979737  Z M 2231.47357169697 808.162725563131  C 2232.32974570972 806.331523811587  2233.12719943909 804.473437058189  2233.86471265743 802.591308463288  L 2232.00257248698 801.861627721053  C 2231.28060010771 803.704096202921  2230.49995028065 805.523029451683  2229.66181752088 807.315644217911  L 2231.47357169697 808.162725563131  Z M 2227.7415391305 815.332288565632  C 2228.75041146511 813.580572148099  2229.70306387842 811.797072158468  2230.5980386648 809.984517627775  L 2228.80473367391 809.099047577659  C 2227.92861774834 810.873408056271  2226.9960395757 812.619326229572  2226.00842614494 814.334130572489  L 2227.7415391305 815.332288565632  Z M 2223.41303621971 822.158324258126  C 2224.56729038508 820.498796880619  2225.66823270643 818.802817859916  2226.7141785716 817.072982306423  L 2225.00271407276 816.038144507924  C 2223.97880832289 817.731529059199  2222.90106499922 819.391770500742  2221.77113321585 821.016328406153  L 2223.41303621971 822.158324258126  Z M 2220.56925127707 826.033794395637  C 2221.13747336435 825.299182090428  2221.69488254176 824.556269246573  2222.24129870448 823.805295907131  L 2220.62408649084 822.628595156704  C 2219.4598164323 824.228723105937  2218.24472391126 825.791247499737  2216.98066820734 827.31377743393  L 2220.56925127707 826.033794395637  Z M 2240.16965408463 769.000239082283  C 2240.17705083904 766.978784387514  2240.11986588689 764.957609304828  2239.99818673001 762.939806544953  L 2238.00181326999 763.060193455047  C 2238.12092841019 765.03547718314  2238.17690836409 767.014062172651  2238.16966747369 768.992920882262  L 2240.16965408463 769.000239082283  Z M 2214.81145073352 819.736114252334  L 2216 830  L 2226.32679969208 829.657643285834  L 2214.81145073352 819.736114252334  Z " fill-rule="nonzero" fill="#797979" stroke="none" />
  </g>
</svg>