<?xml version="1.0" encoding="utf-8"?>
<svg version="1.1" xmlns:xlink="http://www.w3.org/1999/xlink" width="44px" height="8px" viewBox="2306 812  44 8" xmlns="http://www.w3.org/2000/svg">
  <g transform="matrix(-0.573576436351043 -0.819152044288966 0.819152044288987 -0.573576436351038 2994.85787568542 3191.02433116716 )">
    <path d="M 2346.65056109261 777.09021642229  C 2346.9857452759 775.097759562679  2347.26018414706 773.095558718503  2347.47349622632 771.086397019939  L 2345.48467382271 770.875244357365  C 2345.27564795154 772.844034759823  2345.00672354591 774.806004176528  2344.67827442029 776.758425400423  L 2346.65056109261 777.09021642229  Z M 2344.98806739795 784.996282608055  C 2345.48373757459 783.037572866888  2345.91965278696 781.064224736927  2346.29520709746 779.078981242034  L 2344.33006076699 778.70722877083  C 2343.96205269545 780.652581572483  2343.53489658999 782.586278029951  2343.04918621275 784.505630236572  L 2344.98806739795 784.996282608055  Z M 2342.68986072931 792.74147556412  C 2343.34275131823 790.829417339837  2343.93727096921 788.89792276335  2344.47259327888 786.949676680609  L 2342.54406982561 786.419773585515  C 2342.01950406953 788.328872386304  2341.43693045996 790.22155627895  2340.79715879488 792.095194365717  L 2342.68986072931 792.74147556412  Z M 2339.77108216344 800.274768303812  C 2340.57689178188 798.421958644681  2341.32609904895 796.545042720783  2342.01766253999 794.646629511809  L 2340.13846748864 793.962066907679  C 2339.46079999935 795.822334156646  2338.72664700513 797.661536078444  2337.93702900469 799.477116117161  L 2339.77108216344 800.274768303812  Z M 2336.19244186571 807.526509980415  C 2337.15966453166 805.752612269545  2338.0726501869 803.949675191406  2338.93012974901 802.120204892463  L 2337.1191796797 801.271405831159  C 2336.27892997088 803.064115481511  2335.38428948629 804.830825059051  2334.43650180793 806.569078774813  L 2336.19244186571 807.526509980415  Z M 2332.04023338887 814.456800925485  C 2333.14813469327 812.767189291448  2334.20433276947 811.044235276329  2335.20735946472 809.290333847293  L 2333.47121326092 808.297461066401  C 2332.48834098518 810.016120297659  2331.45336573305 811.704453960047  2330.36772615685 813.360115209878  L 2332.04023338887 814.456800925485  Z M 2327.33964961467 821.027514737559  C 2328.58093046691 819.433320702944  2329.7733825054 817.801700940163  2330.91534817953 816.134923458533  L 2329.26544394352 815.004518216153  C 2328.14642447348 816.637804133961  2326.977933092 818.236638778139  2325.76159404353 819.79879971185  L 2327.33964961467 821.027514737559  Z M 2322.12165899373 827.195362149601  C 2323.48814157025 825.707088605453  2324.80899144212 824.177552554756  2326.08237258117 822.608880106842  L 2324.52958023472 821.348389754327  C 2323.28178590983 822.885541921945  2321.98747666997 824.384344083559  2320.64845165088 825.842712851007  L 2322.12165899373 827.195362149601  Z M 2347.66638894947 769.07536386072  C 2347.83887887437 767.062286614328  2347.95003334238 765.04442398306  2347.99969784483 763.024580867536  L 2346.00030215517 762.975419132464  C 2345.95163559148 764.954676323735  2345.84271461715 766.931992825818  2345.6736906362 768.90462009864  L 2347.66638894947 769.07536386072  Z M 2316.68519276042 820.672323765633  L 2317 831  L 2327.31868174181 831.533673225194  L 2316.68519276042 820.672323765633  Z " fill-rule="nonzero" fill="#797979" stroke="none" />
  </g>
</svg>