<?xml version="1.0" encoding="utf-8"?>
<svg version="1.1" xmlns:xlink="http://www.w3.org/1999/xlink" width="40px" height="8px" viewBox="2428 776  40 8" xmlns="http://www.w3.org/2000/svg">
  <g transform="matrix(-0.275637355817019 -0.961261695938298 0.96126169593831 -0.275637355816996 2372.97612420818 3348.16576919421 )">
    <path d="M 2450.72668321274 777.039932183943  C 2451.20120404127 775.074607307042  2451.61185323572 773.094408044303  2451.95798308421 771.102457739587  L 2449.98751011821 770.760059885813  C 2449.64878422513 772.709401004145  2449.24691909924 774.647242443366  2448.78254859745 776.570527670088  L 2450.72668321274 777.039932183943  Z M 2448.49142003038 784.808724352897  C 2449.13393195506 782.891734442874  2449.71409583018 780.954408512878  2450.23099657042 778.999802283169  L 2448.29746503317 778.48847480058  C 2447.79162115511 780.401270659345  2447.22386738411 782.297155855879  2446.59509923119 784.173140033894  L 2448.49142003038 784.808724352897  Z M 2445.59344353512 792.355396830996  C 2446.39914347595 790.50107229256  2447.14448503283 788.621102121365  2447.82829258774 786.718451571121  L 2445.94615654041 786.042016874079  C 2445.27697609919 787.903968421076  2444.54757791059 789.743724737925  2443.75911244537 791.558383999728  L 2445.59344353512 792.355396830996  Z M 2442.03560394354 799.622331221423  C 2442.39439912062 798.971975493205  2442.74543182089 798.31736739369  2443.08862728247 797.658646339317  C 2443.67200064216 796.517628719464  2444.23185400295 795.364738025311  2444.76783248288 794.20070505556  L 2442.95116178111 793.364219812813  C 2442.42771930411 794.501027210523  2441.88100785534 795.62697540457  2441.31137257273 796.741353585902  C 2440.97664753258 797.383685111377  2440.63430713391 798.022019410416  2440.28442377458 798.656221488607  L 2442.03560394354 799.622331221423  Z M 2437.82825941717 806.525141177906  C 2438.95416458358 804.845852803399  2440.02530455352 803.130486648373  2441.03998983114 801.381748338655  L 2439.31010653248 800.378003464191  C 2438.31712607049 802.089335059289  2437.26889852087 803.76800835304  2436.16707723997 805.411375594786  L 2437.82825941717 806.525141177906  Z M 2433.04037622643 813.038719903203  C 2434.30712995799 811.462963934767  2435.52243958901 809.84653441827  2436.68438822661 808.191980928031  L 2435.04767424052 807.042560496787  C 2433.91058048306 808.66172195045  2432.72126716052 810.24357492837  2431.48161016211 811.785624393391  L 2433.04037622643 813.038719903203  Z M 2427.70774605882 819.114375320876  C 2429.10587877327 817.653931278385  2430.45627305206 816.148521974276  2431.75679893493 814.60052187207  L 2430.22548947127 813.314018344483  C 2428.95278273107 814.828905660333  2427.63127431424 816.302113224528  2426.2630486197 817.731317364972  L 2427.70774605882 819.114375320876  Z M 2425.09501375599 821.737549678391  C 2425.49821717428 821.348455361986  2425.89791474198 820.955744369784  2426.2940580127 820.559464301344  L 2424.87960033273 819.145494898722  C 2423.48079469359 820.544783578801  2422.03697008187 821.898332807134  2420.55040382428 823.204007647235  L 2425.09501375599 821.737549678391  Z M 2452.2825234345 769.107095713728  C 2452.58550589962 767.108127601351  2452.8235706168 765.099857930343  2452.99634208947 763.085454319668  L 2451.00365791053 762.914545680332  C 2450.83458213843 764.885859812971  2450.60160978921 766.851171215138  2450.30510832731 768.807380025398  L 2452.2825234345 769.107095713728  Z M 2420.31512105273 814.672333336028  L 2420 825  L 2430.26698456936 826.161476582867  L 2420.31512105273 814.672333336028  Z " fill-rule="nonzero" fill="#797979" stroke="none" />
  </g>
</svg>