<?xml version="1.0" encoding="utf-8"?>
<svg version="1.1" xmlns:xlink="http://www.w3.org/1999/xlink" width="696px" height="48px" viewBox="620 990  696 48" xmlns="http://www.w3.org/2000/svg">
  <g transform="matrix(0.990268068741571 -0.139173100960065 0.139173100960065 0.99026806874157 -131.701014915346 144.587740025392 )">
    <path d="M 677.131761321672 964.968063842373  C 670.757274380209 963.028013550398  664.393042221533 961.054427260898  658.039329275999 959.047386975298  L 657.436901518393 960.954500185588  C 663.797305989729 962.963654221364  670.168240752726 964.939319028377  676.549441098494 966.881412518824  L 677.131761321672 964.968063842373  Z M 702.0431940507 972.36391420565  C 695.64275714291 970.511271149994  689.252115166365 968.624954914774  682.871533648734 966.705043875393  L 682.295258368883 968.620221883264  C 688.68255970943 970.542154911105  695.079932104265 972.430457753827  701.487109746029 974.28505195347  L 702.0431940507 972.36391420565  Z M 727.053495945116 979.418195342592  C 720.628307541634 977.653306427433  714.21245238395 975.854613455965  707.80619704697 974.022191162794  L 707.256182151419 975.94507535449  C 713.669184350154 977.779427495792  720.091796479839 979.580014792762  726.523751684773 981.346762432074  L 727.053495945116 979.418195342592  Z M 752.157983869329 986.129586351309  C 745.709247075643 984.452782049064  739.269380094318 982.742049143416  732.838650498293 980.997458714381  L 732.314998976375 982.927689033176  C 738.752501209657 984.674116808652  745.199150451463 986.386651403094  751.654678847007 988.065221661615  L 752.157983869329 986.129586351309  Z M 777.351957051578 992.49683053549  C 770.880879382393 990.908424824835  764.418206431452 989.285972316808  757.964206719271 987.629540423419  L 757.467016623824 989.566755437038  C 763.927813480599 991.224931831138  770.397292710534 992.849093053889  776.875185510267 994.43917162227  L 777.351957051578 992.49683053549  Z M 802.630697964141 998.518735639721  C 796.138491117511 997.019025946867  789.65422232124 995.485157637874  783.178160993139 993.917194444127  L 782.707525422147 995.861031412423  C 789.190407129425 997.430645934497  795.681504948738 998.966129664189  802.180549178485 1000.46741880298  L 802.630697964141 998.518735639721  Z M 827.989473206688 1004.19417407273  C 821.477352837069 1002.78344121571  814.972702363538 1001.33844431993  808.475792050753 999.859243424209  L 808.031799129907 1001.80933836709  C 814.535551779408 1003.29009710956  821.047052741187 1004.7366158295  827.566031466264 1006.14883442493  L 827.989473206688 1004.19417407273  Z M 853.423534392597 1009.52208311853  C 846.892719883158 1008.20059125461  840.368905716991 1006.84473634522  833.852362954634 1005.45457472531  L 833.435095820839 1007.41056249088  C 839.958501596055 1008.80218818422  846.489186433295 1010.15947103635  853.026878986136 1011.48235465291  L 853.423534392597 1009.52208311853  Z M 878.928119038086 1014.5014651354  C 872.379833272622 1013.26946171167  865.83807698645 1012.0030026701  859.303121985956 1010.70214063138  L 858.912658771757 1012.66365496432  C 865.454496176407 1013.96588702905  872.003142029472 1015.23367986447  878.558324238625 1016.46698079453  L 878.928119038086 1014.5014651354  Z M 904.498451453977 1019.13138774271  C 897.933920587503 1017.98910344964  891.375447114072 1016.81227741819  884.823303534293 1015.60095854479  L 884.459717353249 1017.56763215497  C 891.018761439581 1018.78022675038  897.58414208603 1019.9582921771  904.155586504949 1021.10177948719  L 904.498451453977 1019.13138774271  Z M 930.129743639937 1023.41098399549  C 923.550196869578 1022.35863272385  916.976234271409 1021.27166006112  910.408128989973 1020.15011117041  L 910.071487922965 1022.1215758016  C 916.646510521366 1023.24430587147  923.227396605076 1024.33242329878  929.813872742208 1025.38588287289  L 930.129743639937 1023.41098399549  Z M 955.817196181019 1027.33945254678  C 949.223865515419 1026.37723134751  942.635644755716 1025.38031558725  936.052807638868 1024.34874668732  L 935.743174721351 1026.32463318618  C 942.332944670197 1027.35728850125  948.928103931802 1028.35525418108  955.528378480867 1029.31848876072  L 955.817196181019 1027.33945254678  Z M 981.55590785085 1030.90685309148  C 978.622959129381 1030.52363985562  975.691019280351 1030.13274431125  972.760118482062 1029.73417048184  C 969.089432354895 1029.2322118064  965.42022300327 1028.71951241996  961.752537559439 1028.19607890829  L 961.469970769639 1030.17601729352  C 965.141764362755 1030.70003709947  968.815083672256 1031.2133100385  972.489881506381 1031.71582951651  C 975.424488692404 1032.11490868955  978.360136333338 1032.50629922388  981.296794207516 1032.88999709024  L 981.55590785085 1030.90685309148  Z M 1007.34637997428 1034.07557175633  C 1000.72731645032 1033.31381998941  994.11280535167 1032.51301825301  987.503192121878 1031.67320836909  L 987.251101138737 1033.65725729394  C 993.868519118654 1034.49805884047  1000.49084075096 1035.29980617796  1007.11772018412 1036.06245743506  L 1007.34637997428 1034.07557175633  Z M 1033.18242831455 1036.84826656196  C 1026.55245770565 1036.18814731997  1019.92643992175 1035.48891286525  1013.30472100735 1034.7505997154  L 1013.08309693341 1036.73828247929  C 1019.71263489254 1037.47746744258  1026.34647679739 1038.17752756592  1032.98427619478 1038.83842628857  L 1033.18242831455 1036.84826656196  Z M 1059.05797211651 1039.22428492876  C 1052.41865484813 1038.66595357693  1045.78268987413 1038.06845097525  1039.15042375848 1037.43180832836  L 1038.95931875503 1039.42265711158  C 1045.59941636974 1040.06005151756  1052.24321721052 1040.65825966105  1058.89037430408 1041.21725030058  L 1059.05797211651 1039.22428492876  Z M 1084.96692132934 1041.20306763863  C 1078.3198200268 1040.74665558546  1071.675469699 1040.25102546463  1065.03421734786 1039.71620316049  L 1064.87367639324 1041.7097493982  C 1071.52277085456 1042.24520323014  1078.17496695071 1042.74141859992  1084.82991726997 1043.19836959265  L 1084.96692132934 1041.20306763863  Z M 1110.90317803999 1042.78414896658  C 1104.24985716062 1042.4297636329  1097.5986852889 1042.03612264411  1090.950009783 1041.60324655814  L 1090.82007066204 1043.59902105062  C 1097.47659704351 1044.03240828446  1104.13562273858 1044.42651409161  1110.79679997885 1044.78131788986  L 1110.90317803999 1042.78414896658  Z M 1136.8606379083 1043.96715679037  C 1130.20266337329 1043.71488158408  1123.54623537305 1043.4233223744  1116.89170154024 1043.09249438803  L 1116.79239483531 1045.09002741113  C 1123.4547864613 1045.42124604513  1130.11907449143 1045.71314953317  1136.78491088247 1045.96572263056  L 1136.8606379083 1043.96715679037  Z M 1162.83319160378 1044.75181267806  C 1156.17213042958 1044.60170697448  1149.51201295328 1044.41229816509  1142.85318700023 1044.18359614178  L 1142.7845360841 1046.18241755744  C 1149.45122489855 1046.41138963621  1156.11920676134 1046.60102210293  1162.78813343631 1046.75130505402  L 1162.83319160378 1044.75181267806  Z M 1188.81472624343 1045.13793195355  C 1182.15214617298 1045.09003108147  1175.48990674145 1045.0028172515  1168.828355885 1044.87629501841  L 1168.79037691531 1046.87593438536  C 1175.45979385077 1047.00260601818  1182.12990017443 1047.08992283181  1188.80034753919 1047.1378802661  L 1188.81472624343 1045.13793195355  Z M 1214.79912683052 1045.12542374008  C 1208.13659596432 1045.17973897341  1201.47380259767 1045.19474064946  1194.81109469607 1045.17042798476  L 1194.80379661151 1047.17041466921  C 1201.47437195844 1047.19475604273  1208.14503287119 1047.17973665244  1214.81543097368 1047.1253572827  L 1214.79912683052 1045.12542374008  Z M 1240.78027769382 1044.71429098157  C 1234.11936412061 1044.87080953671  1227.45758496961 1044.98802318799  1220.7952881533 1045.0659258139  L 1220.81867267155 1047.06578910031  C 1227.48883644777 1046.98779448557  1234.15848194727 1046.8704424263  1240.82726084703 1046.71373905124  L 1240.78027769382 1044.71429098157  Z M 1266.7520639269 1043.90463044194  C 1260.09433535483 1044.1633154808  1253.4351383315 1044.38271351997  1246.77482063417 1044.5628131014  L 1246.82888225146 1046.56208230326  C 1253.49706457166 1046.38177005702  1260.1641248946 1046.16211294869  1266.82971503224 1045.90312244989  L 1266.7520639269 1043.90463044194  Z M 1292.70837282741 1042.69663268238  C 1286.05539621512 1043.057423321  1279.40034862352 1043.37895411071  1272.74357761319 1043.66120825951  L 1272.82830360562 1045.65941283017  C 1279.49293505083 1045.37682539059  1286.15584104231 1045.05491493155  1292.81667360898 1044.69369826485  L 1292.70837282741 1042.69663268238  Z M 1318.64139343238 1041.0800191903  C 1315.07382128914 1041.33199000161  1311.5054600111 1041.57266039397  1307.93636329573 1041.8020267457  C 1304.85657316048 1041.99687698766  1301.77625625885 1042.18330993178  1298.69544710096 1042.36132348937  L 1298.81081752748 1044.35799313272  C 1301.89559505076 1044.1797502773  1304.97987963019 1043.99307628718  1308.06363670398 1043.79797325417  C 1311.63727836806 1043.56831692498  1315.21018359565 1043.32734111408  1318.78229861174 1043.07504944832  L 1318.64139343238 1041.0800191903  Z M 1344.5464240364 1039.0505809106  C 1337.90821115587 1039.62189294559  1331.26668496007 1040.15403041442  1324.62219230343 1040.64696552615  L 1324.77015971762 1042.64148442662  C 1331.42249831065 1042.14796724825  1338.07186694001 1041.61520142193  1344.71791834165 1041.04321477141  L 1344.5464240364 1039.0505809106  Z M 1370.41727258489 1036.62397305037  C 1363.78860537019 1037.29705450558  1357.15602425413 1037.93101683415  1350.51987562397 1038.52582692734  L 1350.69842348825 1040.51784114922  C 1357.34240820201 1039.92232869358  1363.98282118913 1039.28761777089  1370.61931565324 1038.613741529  L 1370.41727258489 1036.62397305037  Z M 1396.24785013213 1033.80076673444  C 1389.63028870197 1034.57545919385  1383.00821370553 1035.31109717322  1376.38197098138 1036.00764225376  L 1376.59105727284 1037.9966829579  C 1383.22512438346 1037.29931538441  1389.85501884526 1036.56280875048  1396.48039441086 1035.78720152029  L 1396.24785013213 1033.80076673444  Z M 1422.03207721055 1030.58162643075  C 1415.42717906979 1031.45774756327  1408.81716876014 1032.29488805417  1402.20239149009 1033.09300418368  L 1402.44196699831 1035.07860323079  C 1409.06455511628 1034.2795446714  1415.68237064497 1033.44141566996  1422.29506796819 1032.56425999785  L 1422.03207721055 1030.58162643075  Z M 1447.76388526159 1026.96730979404  C 1441.17320493468 1027.94465339638  1434.57681503946 1028.88309936997  1427.97506007309 1029.78259870437  L 1428.24506841174 1031.76428876517  C 1434.85461884906 1030.86372728578  1441.45879788009 1029.92417317831  1448.05726060082 1028.94567551108  L 1447.76388526159 1026.96730979404  Z M 1473.43721806402 1022.95866748747  C 1466.86230672909 1024.03700353268  1460.28108977023 1025.07653411695  1453.69391089221 1026.07720495067  L 1453.99428851231 1028.0545196159  C 1460.58924564958 1027.05266717207  1467.17823382777 1026.0119090914  1473.7609089362 1024.9322997276  L 1473.43721806402 1022.95866748747  Z M 1499.04603315928 1018.55664298242  C 1492.4884382831 1019.73571767406  1485.92394321146 1020.87608820577  1479.35289077582 1021.97769502159  L 1479.6835669807 1023.9501689118  C 1486.26237863318 1022.84726129884  1492.83462517865 1021.70554419709  1499.39996338075 1020.52507723287  L 1499.04603315928 1018.55664298242  Z M 1524.58430327367 1013.76227233646  C 1518.0455682474 1015.04180816828  1511.49934007818 1016.2827502506  1504.94596064347 1017.48503377507  L 1505.30685760539 1019.4522026501  C 1511.86797538835 1018.24849944762  1518.42193346152 1017.00609203858  1524.96838954365 1015.72504530785  L 1524.58430327367 1013.76227233646  Z M 1550.0460177369 1008.57668394948  C 1543.52768151295 1009.95637977077  1537.00126096193 1011.2976013364  1530.46709692723 1012.60027860086  L 1530.85812970572 1014.56167946916  C 1537.40000939884 1013.25746397995  1543.93413646449 1011.9146586758  1550.46016965709 1010.53333368487  L 1550.0460177369 1008.57668394948  Z M 1575.42518389677 1003.00109829811  C 1568.92878062629 1004.4806293846  1562.42370374773 1005.92181476449  1555.91029298942 1007.32457917171  L 1556.33136955127 1009.27975039926  C 1562.8524714621 1007.87532958262  1569.36522965242 1006.43244242512  1575.86930399267 1004.95116428172  L 1575.42518389677 1003.00109829811  Z M 1600.7158285296 997.036827648493  C 1594.24288720182 998.615845778724  1587.76068502616 1000.15665577645  1581.26956053634 1001.65917717272  L 1581.72058177725 1003.60765859173  C 1588.21937110356 1002.10336299119  1594.70922758011 1000.56073357731  1601.18981227339 998.979850914085  L 1600.7158285296 997.036827648493  Z M 1625.91199924608 990.685275747402  C 1619.46404332816 992.363409284712  1613.0062415022 994.003481256269  1606.53893102761 995.605406009139  L 1607.01979079552 997.546739026323  C 1613.49473798658 995.942922691907  1619.96016530106 994.300914093872  1626.41573508125 992.620798986313  L 1625.91199924608 990.685275747402  Z M 1651.00669494561 983.94376492281  C 1646.96317860161 985.062371178064  1642.91596647907 986.167574804638  1638.86512524401 987.259357597525  C 1636.4822931712 987.899677648657  1634.09806475795 988.534790129966  1631.712457081 989.164690492534  L 1632.22304220107 991.098418197037  C 1634.61170659388 990.467710733433  1636.99898981659 989.831783948996  1639.38487476758 989.190642399275  C 1643.44022205117 988.097646838176  1647.4919359762 986.991214721252  1651.53994979381 985.871364276117  L 1651.00669494561 983.94376492281  Z M 1676.00411120041 976.843957616054  C 1669.60705812807 978.708251287344  1663.20023742971 980.538863848471  1656.78391530484 982.33571923859  L 1657.32325453543 984.26162504998  C 1663.74633412401 982.462877269663  1670.1599022797 980.630336766315  1676.5636925222 978.764079681002  L 1676.00411120041 976.843957616054  Z M 1700.90203653668 969.402761666584  C 1694.53109253568 971.35441518052  1688.14992094586 973.272524393495  1681.7587869014 975.157009609124  L 1682.32442886227 977.075355034772  C 1688.72229384323 975.188885140018  1695.11018587744 973.268755836201  1701.48783955143 971.315046903653  L 1700.90203653668 969.402761666584  Z M 1725.69580886114 961.621570425419  C 1719.35216687963 963.660218338287  1712.99783926177 965.665465040457  1706.6330900264 967.63722721503  L 1707.22492880207 969.547653048086  C 1713.59638118637 967.573814277089  1719.95740097729 965.566455713717  1726.30772387825 963.525660762519  L 1725.69580886114 961.621570425419  Z M 1750.38078558299 953.501840907104  C 1744.06563345684 955.627101485643  1737.73933964788 957.719110198007  1731.40216700978 959.7777801225  L 1732.02009177947 961.679928639045  C 1738.3639385236 959.619090589723  1744.69689498155 957.524878641126  1751.01869802243 955.397379806627  L 1750.38078558299 953.501840907104  Z M 1774.95234448321 945.04509351689  C 1768.66686471375 947.256568809728  1762.36978930109 949.434947807325  1756.06137988489 951.580139999352  L 1756.70527494327 953.47365502538  C 1763.02032817299 951.32620358606  1769.32403546277 949.145530389826  1775.61613489699 946.931726042468  L 1774.95234448321 945.04509351689  Z M 1799.40588458007 936.252911766035  C 1793.15125411253 938.550187678244  1786.88457621249 940.814529063434  1780.60611125696 943.045841839461  L 1781.27585603579 944.930368817573  C 1787.56093326842 942.696706094786  1793.83421103167 940.429979978225  1800.09542867459 938.130284649006  L 1799.40588458007 936.252911766035  Z M 1823.73682699066 927.126941975304  C 1817.51421699368 929.50958834598  1811.27911003092 931.859468124729  1805.03176516766 934.176483675335  L 1805.72723425839 936.051669731126  C 1811.98115862407 933.732213974359  1818.22283220054 931.379859377959  1824.45199564998 928.994703680856  L 1823.73682699066 927.126941975304  Z M 1847.94061578828 917.66889296669  C 1841.75119143476 920.136463649437  1835.54882292224 922.571441810839  1829.33376795572 924.973726278886  L 1830.05483113298 926.839220287025  C 1836.27643159524 924.434405810339  1842.48533224239 921.996863208412  1848.68127509831 919.526693759686  L 1847.94061578828 917.66889296669  Z M 1872.0127188555 907.880535743441  C 1865.85763910441 910.432568689936  1859.68917042486 912.952189288558  1853.50756911333 915.439292850453  L 1854.25409135928 917.294745500426  C 1860.44220293424 914.805022601155  1866.61716804621 912.282748419321  1872.77873012908 909.728027753911  L 1872.0127188555 907.880535743441  Z M 1895.94862873284 897.763703158449  C 1889.82904611217 900.399720504955  1883.69563230063 903.003511746216  1877.5486421382 905.574968696135  L 1878.32048366786 907.420032557657  C 1884.47394764237 904.845867432089  1890.61382096767 902.239333961807  1896.73984853568 899.600540446722  L 1895.94862873284 897.763703158449  Z M 1919.74386346274 887.320289571042  C 1913.66092385371 890.039797727889  1907.56371338127 892.727272056402  1901.45248538118 895.382600893498  L 1902.24950166855 897.216930481566  C 1908.36716581717 894.55880513765  1914.47079767518 891.868500447786  1920.56014364031 889.146128192526  L 1919.74386346274 887.320289571042  Z M 1943.39396742884 876.552250492277  C 1937.34880985132 879.354740236286  1931.28894441005 882.125394427151  1925.21462288912 884.864097945711  L 1926.03666469429 886.687349785294  C 1932.11738349504 883.945761952385  1938.18363099129 881.172189797818  1944.23515513409 878.366748561862  L 1943.39396742884 876.552250492277  Z M 652.323862380544 957.232029112897  C 645.976519017017 955.204934855651  639.639888367628 953.144448062474  633.314233715905 951.050654345463  L 632.685766284095 952.949345654537  C 639.018082911588 955.045344487664  645.36138709616 957.108001319125  651.715415277309 959.137230446763  L 652.323862380544 957.232029112897  Z M 1960.15317675125 868.683325564147  C 1956.38486103111 870.47512785804  1952.61065002948 872.254505475731  1948.83060524305 874.021429424182  L 1949.67751864012 875.83326211454  C 1953.46345261696 874.063585354376  1957.24354076861 872.281429235165  1961.01772144042 870.486822824546  L 1960.15317675125 868.683325564147  Z M 1962.94517059694 876.870563171279  L 1966 867  L 1956.41337939441 863.145560304741  L 1962.94517059694 876.870563171279  Z " fill-rule="nonzero" fill="#000000" stroke="none" />
  </g>
</svg>