<?xml version="1.0" encoding="utf-8"?>
<svg version="1.1" xmlns:xlink="http://www.w3.org/1999/xlink" width="564px" height="34px" viewBox="1518 940  564 34" xmlns="http://www.w3.org/2000/svg">
  <g transform="matrix(0.96126169593832 0.275637355816999 -0.275637355816999 0.961261695938318 333.513896827892 -459.074683483569 )">
    <path d="M 1022.41097117887 969.964344375127  C 1015.99005699502 968.186904356885  1009.5806752261 966.368063845263  1003.18322591221 964.50793636278  L 1002.62482940244 966.428403321067  C 1009.03053753924 968.290932145513  1015.4481935353 970.112120699435  1021.87739683418 971.891855313795  L 1022.41097117887 969.964344375127  Z M 1047.50940463373 976.68602356578  C 1041.05958437691 975.016517462308  1034.62060059326 973.305423280073  1028.19285517051 971.552847816629  L 1027.66674498122 973.482409442681  C 1034.10278833783 975.237247403207  1040.5500845635 976.950550532018  1047.0082312518 978.622211893718  L 1047.50940463373 976.68602356578  Z M 1072.71703625526 982.985836345825  C 1066.24012412999 981.424733755566  1059.77334948826 979.821867199092  1053.31711595195 978.177336718867  L 1052.82344006737 980.115450265844  C 1059.28800831429 981.762103761846  1065.76313127505 983.367039547899  1072.24840480607 984.930157452236  L 1072.71703625526 982.985836345825  Z M 1098.02677564414 988.862010704754  C 1091.52459347555 987.409750734467  1085.031846949 985.915562657789  1078.54894130779 984.379539734131  L 1078.08783858899 986.32566004971  C 1084.5791133735 987.863665910754  1091.08024174726 989.359782917833  1097.5908179443 990.813917691253  L 1098.02677564414 988.862010704754  Z M 1123.43150368024 994.312893793018  C 1116.90588040121 992.969884934181  1110.38898826885 991.584795622355  1103.88123403351 990.157712307573  L 1103.4528341794 992.111291987288  C 1109.96898963641 993.540217603245  1116.494294787 994.927095003842  1123.02834235586 996.271837627465  L 1123.43150368024 994.312893793018  Z M 1148.924074525 999.336952386942  C 1142.37684566197 998.10357240091  1135.83764099436 996.827971451673  1129.30686866516 995.510229155575  L 1128.91129217599 997.470718696791  C 1135.45049544221 998.790162139666  1141.99814193254 1000.06740983306  1148.55382297724 1001.30238205787  L 1148.924074525 999.336952386942  Z M 1174.49731763145 1003.93277331999  C 1167.93032478809 1002.80936913172  1161.37064693187 1001.64361534594  1154.81869348357 1000.4355847229  L 1154.45605162706 1002.40243267938  C 1161.01646335625 1003.6120228163  1167.58460946518 1004.77928153843  1174.16008000462 1005.9041359916  L 1174.49731763145 1003.93277331999  Z M 1200.14403976114 1008.09906388024  C 1193.55913010035 1007.08595148072  1186.98082416082 1006.03037276147  1180.40953252603 1004.93239360619  L 1180.07992730602 1006.9050467432  C 1186.65970218638 1008.00444334079  1193.24650042677 1009.0613847653  1199.8399109134 1010.07580504792  L 1200.14403976114 1008.09906388024  Z M 1225.85702700745 1011.83465217406  C 1219.25605273174 1010.9321165314  1212.66096905394 1009.98700979172  1206.07218760471 1008.99939094363  L 1205.77571173252 1010.97729439355  C 1212.37299900596 1011.96618821371  1218.97659664381 1012.91251504421  1225.58609248412 1013.81621582029  L 1225.85702700745 1011.83465217406  Z M 1251.62904682473 1015.13848745564  C 1245.01386465528 1014.34678243497  1238.40385830347 1013.51241351435  1231.79944033137 1012.63543277075  L 1231.53617719969 1014.61803018916  C 1238.14912118206 1015.49614307596  1244.76766075842 1016.33158912978  1251.39138283424 1017.12431620647  L 1251.62904682473 1015.13848745564  Z M 1277.45401581181 1017.97638411804  C 1270.8253869198 1017.31166683083  1264.20165196227 1016.59901974515  1257.58333058105 1015.83849876925  L 1257.35501016124 1017.8254234749  C 1263.98291121794 1018.5870452653  1270.61623368681 1019.30072387051  1277.25445717388 1019.96640330138  L 1277.45401581181 1017.97638411804  Z M 1303.32840437248 1020.32557861537  C 1296.68844917261 1019.78561102036  1290.05248586091 1019.19763008342  1283.42103503856 1018.56168193253  L 1283.23011335016 1020.55254830396  C 1289.87116285217 1021.18941695668  1296.51673137511 1021.77824896539  1303.16629756427 1022.31899813537  L 1303.32840437248 1020.32557861537  Z M 1329.24238878738 1022.18786482285  C 1322.59345483891 1021.77283782585  1315.94760932086 1021.30973091857  1309.3053736099 1020.79858043246  L 1309.15191815335 1022.79268459796  C 1315.80376815457 1023.30457494777  1322.45923318777 1023.76835217817  1329.11779112185 1024.18397990514  L 1329.24238878738 1022.18786482285  Z M 1355.18680715542 1023.56258432835  C 1348.53124519192 1023.27264466233  1341.8778671094 1022.93457551639  1335.22719487525 1022.54840341253  L 1335.1112599048 1024.54504035565  C 1341.7715586406 1024.93177142351  1348.43456714134 1025.27032990694  1355.09976268411 1025.56068924552  L 1355.18680715542 1023.56258432835  Z M 1381.15248681554 1024.44925109916  C 1374.49264991405 1024.28450127243  1367.83409157187 1024.07158941231  1361.1773341628 1023.81053222204  L 1361.09896066731 1025.80899603087  C 1367.76535338598 1026.07043108782  1374.43354964459 1026.28365112677  1381.10302631308 1026.44863942029  L 1381.15248681554 1024.44925109916  Z M 1407.13024758977 1024.84755165382  C 1400.46849033868 1024.80804991376  1393.8071058732 1024.72037061455  1387.14661678884 1024.58452063476  L 1387.1058324773 1026.58410475151  C 1393.77596227269 1026.72015136706  1400.44698874521 1026.80795757749  1407.11838854293 1026.84751649426  L 1407.13024758977 1024.84755165382  Z M 1433.11090502882 1024.757345173  C 1426.44958269548 1024.84310548546  1419.78772724224 1024.88068974622  1413.12586130158 1024.87009500673  L 1413.1226805933 1026.87009247751  C 1419.79418923792 1026.88070255232  1426.46568737992 1026.8430638903  1433.13665163038 1026.75717944426  L 1433.11090502882 1024.757345173  Z M 1459.08527365931 1024.17866354923  C 1452.42674135729 1024.38965559362  1445.76677021836 1024.55249012641  1439.10588272716 1024.66715437301  L 1439.14030674668 1026.66685809778  C 1445.81083552556 1026.55202788066  1452.48044662587 1026.38895765336  1459.14861680655 1026.17766020898  L 1459.08527365931 1024.17866354923  Z M 1485.04417023128 1023.11171137567  C 1478.39078208773 1023.44786055565  1471.73504989897 1023.73588779026  1465.07749581707 1023.97577048333  L 1465.14951239376 1025.97447346594  C 1471.8167029384 1025.73424355517  1478.48206895288 1025.44579941614  1485.14508752919 1025.10916367773  L 1485.04417023128 1023.11171137567  Z M 1510.97841696489 1021.55686587376  C 1504.33252528826 1022.01805334364  1497.68338518683 1022.43117144789  1491.03151829554 1022.79618777681  L 1491.14110196791 1024.79318337489  C 1497.80259709006 1024.42763870385  1504.46136147544 1024.01392263265  1511.11687273411 1023.55206761794  L 1510.97841696489 1021.55686587376  Z M 1536.87726796396 1019.50794928502  C 1534.59084318416 1019.7121622712  1532.30391305708 1019.91067719009  1530.01649888553 1020.10349219253  C 1525.6655683124 1020.46589705648  1521.31294449674 1020.8076779297  1516.958774106 1021.12882329544  L 1517.10588613069 1023.12340547028  C 1521.46668914654 1022.8017709099  1525.82594311221 1022.45946784353  1530.18350111476 1022.09650780726  C 1532.47455625359 1021.9033875498  1534.76512651115 1021.70455748093  1537.0551905448 1021.50001945327  L 1536.87726796396 1019.50794928502  Z M 1562.73219710777 1016.95347533856  C 1556.10905254743 1017.67078015013  1549.48080701474 1018.34017675514  1542.84798050541 1018.96161263844  L 1543.03454538167 1020.95289201285  C 1549.67697256189 1020.33055663348  1556.31481213473 1019.66019111175  1562.94754335185 1018.94184803883  L 1562.73219710777 1016.95347533856  Z M 1588.53452624923 1013.91332582741  C 1581.92603933828 1014.75503290692  1575.31155158151 1015.54893615789  1568.6915818953 1016.29497329743  L 1568.91555403846 1018.28239285029  C 1575.54510578595 1017.53527586085  1582.16916766928 1016.74022347627  1588.78722002079 1015.89729806961  L 1588.53452624923 1013.91332582741  Z M 1614.27513296301 1010.38857559782  C 1607.68364013505 1011.35438735936  1601.08524870937 1012.27251657142  1594.48047633961 1013.14289120542  L 1594.74177656422 1015.12574828363  C 1601.35610899794 1014.25411382769  1607.96405125157 1013.33465567141  1614.56508492205 1012.36744594765  L 1614.27513296301 1010.38857559782  Z M 1639.94491664577 1006.38047082686  C 1633.3727483261 1007.47004580723  1626.79278609586 1008.51207637539  1620.20554616285 1009.50648078249  L 1620.5040820861 1011.48407434602  C 1627.1008567058 1010.48823059034  1633.69034308864 1009.44469173721  1640.27202427963 1008.35353965381  L 1639.94491664577 1006.38047082686  Z M 1665.53480173368 1001.89042858182  C 1658.98428151544 1003.10338156128  1652.4250748293 1004.26894507514  1645.85769625476 1005.38702768322  L 1646.19336232912 1007.35865855296  C 1652.77024684209 1006.23895757855  1659.33894763825 1005.07170697221  1665.89894939331 1003.85699830648  L 1665.53480173368 1001.89042858182  Z M 1691.03574091109 996.920036319187  C 1684.50918473373 998.255938457659  1677.97305260222 999.544622831714  1671.42785728586 1000.78598834215  L 1671.80053483645 1002.75095944709  C 1678.35520398213 1001.50779712474  1684.90079682444 1000.21724744718  1691.43679985193 998.879411659947  L 1691.03574091109 996.920036319187  Z M 1716.43871830924 991.471051323445  C 1709.93843363968 992.929430312112  1703.42768691534 994.340779931402  1696.90698891397 995.704989458841  L 1697.31654618047 997.662606082558  C 1703.84668255253 996.296421932891  1710.36685324369 994.883029458528  1716.8765467367 993.422539542243  L 1716.43871830924 991.471051323445  Z M 1741.73475269378 985.545400085741  C 1735.26303771066 987.125740314041  1728.77997827098 988.65925619526  1722.28608298037 990.145827422799  L 1722.73237516363 992.095397449027  C 1729.23567002942 990.606674487066  1735.72811335996 989.070938921486  1742.20919581342 987.488311233019  L 1741.73475269378 985.545400085741  Z M 1766.91490064011 979.145177622794  C 1760.47404342125 980.846920360712  1754.02096335487 982.502060328616  1747.5561666947 984.110467678314  L 1748.0390360079 986.051301835674  C 1754.51319012447 984.44056640012  1760.97561068818 982.78303070331  1767.42579071236 981.078824781423  L 1766.91490064011 979.145177622794  Z M 1791.97025969536 972.2726467362  C 1785.56253740878 974.09519033181  1779.14171820513 975.871369210901  1772.70830580723 977.6010440296  L 1773.2275815317 979.532456135283  C 1779.67030595893 977.800277702383  1786.10041896398 976.021527896865  1792.51741609479 974.196346264339  L 1791.97025969536 972.2726467362  Z M 1816.89259839378 964.929744779845  C 1810.95440381533 966.735471528967  1805.00541150464 968.505496956394  1799.04594370932 970.239725182613  C 1798.60856106886 970.366652351472  1798.17111570122 970.493363268294  1797.73360776762 970.619857886382  L 1798.28910631319 972.541165088749  C 1798.72748575571 972.414418495373  1799.16580247319 972.287455054656  1799.60405630461 972.160274813241  C 1805.57145644353 970.423741348432  1811.52836675259 968.651361604845  1817.47446452914 966.843231597288  L 1816.89259839378 964.929744779845  Z M 1841.68732553826 957.162258773369  C 1835.34653191845 959.207195996502  1828.99261311392 961.211209791472  1822.62596570274 963.174175078324  L 1823.21523336063 965.085395533261  C 1829.59009983072 963.119896145446  1835.95222126239 961.113295257619  1842.30120056502 959.065718111395  L 1841.68732553826 957.162258773369  Z M 1866.34829851722 948.980037512535  C 1860.04269192114 951.131027384729  1853.72327566704 953.241319704275  1847.39044417985 955.310782757756  L 1848.01168167945 957.211851922485  C 1854.35268857082 955.139717284118  1860.68026291057 953.026700670936  1866.9940097647 950.872933966353  L 1866.34829851722 948.980037512535  Z M 1890.86858069542 940.385382491461  C 1884.59993476321 942.641819982588  1878.31679858422 944.857797243927  1872.01956431897 947.03317596576  L 1872.67259691869 948.923559107797  C 1878.97796063368 946.745372068655  1885.26920806236 944.526534079114  1891.54594653805 942.267183627406  L 1890.86858069542 940.385382491461  Z M 1915.24127501114 931.380711213577  C 1909.01135298669 933.741961633197  1902.76626420252 936.063000526538  1896.50639844444 938.343683026482  L 1897.19104245935 940.222848419107  C 1903.45898942604 937.939221659374  1909.71214034252 935.615186407888  1915.95010491953 933.250887718874  L 1915.24127501114 931.380711213577  Z M 1939.45952591612 921.968556511633  C 1933.27008015109 924.433955687539  1927.0647953795 926.859403351368  1920.84405890278 929.244748119352  L 1921.56012175632 931.11216719117  C 1927.78888892753 928.723743049036  1934.0021844461 926.295164240022  1940.1996205107 923.82658234328  L 1939.45952591612 921.968556511633  Z M 1963.51652130395 912.151565835262  C 1957.36929276482 914.7204203003  1951.20555742749 917.249594505017  1945.02570000009 919.738930591579  L 1945.77298027817 921.5940780752  C 1951.96081562703 919.101528366315  1958.13250807287 916.569089110056  1964.28767241101 913.996918368  L 1963.51652130395 912.151565835262  Z M 1987.40549442614 901.932500506307  C 1981.30221220455 904.604087693432  1975.18176003613 907.236277033251  1969.04451992752 909.828904238263  L 1969.82280743526 911.671258318048  C 1975.96797044826 909.075284146466  1982.09632384853 906.439696767142  1988.20748513639 903.764660679618  L 1987.40549442614 901.932500506307  Z M 2011.11972579548 891.314234942117  C 2005.06210662184 894.087803387636  1998.98665918232 896.822267480687  1992.89376267459 899.517456550312  L 1993.70283849538 901.346499009148  C 1999.80360066187 898.647830570141  2005.88689123414 895.909836405422  2011.95233052508 893.132687406229  L 2011.11972579548 891.314234942117  Z M 2034.65254507609 880.299755847029  C 2028.64229283667 883.174525402002  2022.61355902721 886.010495098532  2016.56671992944 888.80748793037  L 2017.40635648653 890.622704295435  C 2023.46100178489 887.822100670132  2029.4975184221 884.982469862604  2035.5155296301 882.103989107872  L 2034.65254507609 880.299755847029  Z M 2057.99733295967 868.892161372269  C 2052.03613821754 871.867323421843  2046.05581379938 874.804001020775  2040.05673296578 877.702010877  L 2040.92669408631 879.502890564474  C 2046.93351946682 876.601139506241  2052.92156421813 873.660670786987  2058.89045459791 870.681667935351  L 2057.99733295967 868.892161372269  Z M 997.42879557473 962.822689446902  C 991.038593537743 960.937815471984  984.660616613599 959.011740234195  978.295262882282 957.044583949085  L 977.704737117718 958.955416050915  C 984.078308237923 960.9251118474  990.46451884706 962.853673562792  996.862970350995 964.740980826277  L 997.42879557473 962.822689446902  Z M 2061.1423725583 876.92944940087  L 2064 867  L 2054.33851067944 863.337265487556  L 2061.1423725583 876.92944940087  Z " fill-rule="nonzero" fill="#000000" stroke="none" />
  </g>
</svg>