<?xml version="1.0" encoding="utf-8"?>
<svg version="1.1" xmlns:xlink="http://www.w3.org/1999/xlink" width="190px" height="16px" viewBox="544 348  190 16" xmlns="http://www.w3.org/2000/svg">
  <g transform="matrix(0.970295726275995 -0.241921895599667 0.241921895599673 0.970295726275992 -67.1431639238444 165.162812733934 )">
    <path d="M 571.950939064376 339.693502957122  C 568.636492900755 339.314732161305  565.319068617659 338.962491932416  561.99898489218 338.636816107216  L 561.901360791223 339.632039466524  C 565.216134870555 339.95719445444  568.528253760651 340.308871362908  571.837399294 340.687036409273  L 571.950939064376 339.693502957122  Z M 584.860910047075 341.305067533302  C 581.55506179019 340.857420362241  578.245684079531 340.436236054463  574.933094819224 340.041555069609  L 574.814785834246 341.034531899184  C 578.122077433936 341.428581690206  581.42616262008 341.849092418698  584.726723996902 342.296023689718  L 584.860910047075 341.305067533302  Z M 597.734557355557 343.184880325615  C 594.43873814455 342.668550570839  591.138839673411 342.178604519629  587.835178935674 341.715089236988  L 587.696236283975 342.705389665918  C 590.99461364004 343.168163671429  594.289234746345 343.65732617609  597.579783116246 344.172830190156  L 597.734557355557 343.184880325615  Z M 610.566307842137 345.33212754182  C 607.281944474462 344.747338728326  603.992953806254 344.188843036876  600.699651783227 343.656694117463  L 600.540135614654 344.643889433479  C 603.828170822191 345.175187313372  607.111901569875 345.732789830214  610.391012417209 346.316643419803  L 610.566307842137 345.33212754182  Z M 623.350606496736 347.745879614283  C 620.079120810485 347.092884903769  616.80246178651 346.466081351189  613.520944185927 345.865529168296  L 613.340923556835 346.849192003368  C 616.617193188157 347.448783752773  619.88861201303 348.074584889359  623.154865773567 348.726535297637  L 623.350606496736 347.745879614283  Z M 636.081918851716 350.425091602403  C 632.824727110082 349.704173683673  629.561818233132 349.009333620317  626.29350566112 348.340638159784  L 626.093058504478 349.320342675132  C 629.356144225396 349.987968723997  632.613834893145 350.681697563918  635.86581756868 351.401462554178  L 636.081918851716 350.425091602403  Z M 648.754361170737 353.367494853085  C 648.551083691865 353.318313217832  648.347765192964 353.26930128187  648.144405886367 353.220459096383  C 645.105598131262 352.484466322391  642.061312814121 351.771276426189  639.011806822322 351.080949589219  L 638.791019913974 352.056271659666  C 641.835959541981 352.745564793643  644.875685776749 353.457689079075  647.909942063246 354.192584412172  C 648.113069811643 354.241370435485  648.316156737371 354.290326274753  648.519202626995 354.339451878527  L 648.754361170737 353.367494853085  Z M 661.351095101202 356.647121462705  C 658.13600292136 355.750322668925  654.909105693664 354.896397151697  651.671262466744 354.085572238852  L 651.428342219529 355.055618502435  C 654.657569735305 355.864285857689  657.8758803785 356.715939129136  661.082417386401 357.610351593863  L 661.351095101202 356.647121462705  Z M 673.826694868749 360.361023299517  C 670.644588647071 359.353419312145  667.449199697275 358.388254058624  664.241378680011 357.465784480477  L 663.965010089923 358.426836197302  C 667.164295283383 359.346851137943  670.351181490361 360.309448143261  673.5248203138 361.31437095545  L 673.826694868749 360.361023299517  Z M 686.166193577272 364.50474481958  C 683.020890865949 363.387544454583  679.860843681445 362.312297367262  676.686893275901 361.279289804582  L 676.377407900543 362.230194007139  C 679.542912609997 363.260452797211  682.69455109405 364.332838715018  685.83148433912 365.447066275293  L 686.166193577272 364.50474481958  Z M 698.354787610225 369.073314827071  C 695.250061808506 367.847858382476  692.129147477415 366.663819428316  688.992875451294 365.52151317357  L 688.650644578264 366.461129068256  C 691.778571168241 367.600395712971  694.891180929141 368.781284008844  697.987645237371 370.003479585625  L 698.354787610225 369.073314827071  Z M 710.377854390421 374.061252438191  C 707.317430217716 372.729010086146  704.239392880699 371.437599748993  701.14456179921 370.187365219588  L 700.769996000667 371.11456555531  C 703.856591917944 372.361473283871  706.926438777925 373.64944725377  709.978719341188 374.978144586959  L 710.377854390421 374.061252438191  Z M 722.220969922646 379.462573656546  C 719.208518949987 378.025143679563  716.177051308453 376.627911256013  713.127374020375 375.271248350206  L 712.720922660477 376.184920770736  C 715.762484935949 377.537973676027  718.785886019664 378.931488145944  721.790321036764 380.365093205968  L 722.220969922646 379.462573656546  Z M 733.860087816952 385.30000717138  C 731.84111467294 384.225176118103  729.807158577336 383.178728797842  727.758820215864 382.160974256584  C 726.81681433014 381.692375254716  725.872844738845 381.22773422676  724.926936412706 380.767063463815  L 724.489087108512 381.666111842277  C 725.432548100733 382.125590718915  726.37407523107 382.589029880677  727.313643589688 383.056417066427  C 729.353674562551 384.070041502158  731.379381142949 385.11224331835  733.390165040814 386.182714701917  L 733.860087816952 385.30000717138  Z M 745.190325727098 391.724873522332  C 742.329609633174 390.000408484485  739.433855070168 388.334748133172  736.504885755722 386.728941484841  L 736.024145747713 387.605804669551  C 738.94113556847 389.20504356365  741.825046486225 390.863891358899  744.674062242346 392.581303329328  L 745.190325727098 391.724873522332  Z M 756.162337638406 398.744001199344  C 753.397515176664 396.869639176724  750.594572392459 395.052132465986  747.75527455149 393.292625714917  L 747.228520417996 394.142643410525  C 750.056205521885 395.894953773461  752.847684261303 397.705026876046  755.6011985905 399.571722752111  L 756.162337638406 398.744001199344  Z M 766.744985200191 406.337470058248  C 764.083902881564 404.318530452843  761.381726571802 402.354335430426  758.640158074881 400.44612202164  L 758.068884733612 401.266881894902  C 760.799240206779 403.167290704859  763.490364606948 405.123452163465  766.140563090542 407.134134299549  L 766.744985200191 406.337470058248  Z M 776.908235070015 414.483729986067  C 774.358444992977 412.325942508157  771.764703880066 410.220633520312  769.128645243833 408.169128925354  L 768.514473957125 408.95830167614  C 771.139751105262 411.001415610867  773.722883808879 413.098113878342  776.262245236501 415.247075998696  L 776.908235070015 414.483729986067  Z M 786.623244147716 423.159662059815  C 784.191982565586 420.86915046717  781.714037635 418.628702338757  779.190969941225 416.439728686698  L 778.535643714922 417.195074658502  C 781.048392053914 419.375095401455  783.516202181951 421.606380089988  785.937519896582 423.887523483032  L 786.623244147716 423.159662059815  Z M 795.796259637849 432.415328827913  C 793.523353139517 429.965438997851  791.189379589687 427.572921171271  788.79653906663 425.240030612154  L 788.098458712372 425.956050038565  C 790.479331078985 428.277272290117  792.801630904501 430.657823574264  795.063169114687 433.09545990708  L 795.796259637849 432.415328827913  Z M 804.34257650486 442.251425434525  C 802.234078874023 439.65868521029  800.060906765985 437.119217338741  797.825108682416 434.635415603674  L 797.081870561645 435.304442580584  C 799.306485960456 437.775821202845  801.468788617094 440.302587538924  803.566740275784 442.882359777902  L 804.34257650486 442.251425434525  Z M 812.230036027685 452.62332548812  C 810.294903137945 449.898747570598  808.291763051052 447.223116079886  806.222503991052 444.598953151978  L 805.43726501823 445.21814597781  C 807.496174363775 447.829183755023  809.489295440324 450.491432667175  811.414749468084 453.202383193132  L 812.230036027685 452.62332548812  Z M 819.425136110105 463.486974196078  C 817.671587465863 460.642131268625  815.846987766055 457.841700941467  813.953056936835 455.088322989981  L 813.12915242564 455.655051634424  C 815.013610471262 458.394658146586  816.829084157677 461.181081694793  818.573862161207 464.011695706908  L 819.425136110105 463.486974196078  Z M 825.897315462446 474.796228056394  C 824.332799286446 471.843203629704  822.694489986832 468.929869333642  820.983931886458 466.058971370488  L 820.124861382989 466.570828645585  C 821.826863866408 469.427367375173  823.456978912447 472.326130185877  825.013669922427 475.264384610982  L 825.897315462446 474.796228056394  Z M 559.010233280076 338.350884261628  C 555.688624071006 338.041153815223  552.364589365976 337.758010154004  549.038448477179 337.50148047721  L 548.961551522821 338.49851952279  C 552.282373078565 338.754638944325  555.601091818841 339.037329787853  558.917388942149 339.346564897633  L 559.010233280076 338.350884261628  Z M 819.689516521439 477.425924563545  L 828 480  L 830.97616312633 471.824888193702  L 819.689516521439 477.425924563545  Z " fill-rule="nonzero" fill="#797979" stroke="none" />
  </g>
</svg>