<?xml version="1.0" encoding="utf-8"?>
<svg version="1.1" xmlns:xlink="http://www.w3.org/1999/xlink" width="142px" height="12px" viewBox="938 352  142 12" xmlns="http://www.w3.org/2000/svg">
  <g transform="matrix(-0.956304755963038 -0.292371704722737 0.292371704722731 -0.956304755963036 1869.24242847597 995.360152700009 )">
    <path d="M 1051.37963644701 346.113466072552  C 1054.65455613907 345.510817682211  1057.93563549818 344.942136612525  1061.22234560224 344.407514536984  L 1061.06179397346 343.420487093345  C 1057.76826218662 343.956218795866  1054.48037283152 344.526080183179  1051.19865592811 345.129979391516  L 1051.37963644701 346.113466072552  Z M 1038.64078366617 348.635607879481  C 1041.89827197731 347.944916939492  1045.16283316194 347.288014974499  1048.43394096074 346.665007879527  L 1048.24684654692 345.682665942971  C 1044.96894944848 346.306966111149  1041.69761255191 346.96523149935  1038.43336320886 347.657355992752  L 1038.64078366617 348.635607879481  Z M 1025.97453164962 351.500154845323  C 1029.21222210118 350.721923124294  1032.45789349443 349.977277485805  1035.71102261512 349.266337969496  L 1035.49752133538 348.289395185323  C 1032.23764023042 349.001810281683  1028.98523233167 349.748001458467  1025.74082193935 350.527848426891  L 1025.97453164962 351.500154845323  Z M 1013.39008209272 354.705025952866  C 1016.60562258866 353.839818815451  1019.83004629655 353.007970468728  1023.06283342731 352.209615009737  L 1022.82308038465 351.238781100908  C 1019.58358349013 352.038793574822  1016.35246737708 352.872368452138  1013.13025291338 353.739371357494  L 1013.39008209272 354.705025952866  Z M 1000.8958913637 358.246324456722  C 1001.29315150421 358.128048145944  1001.69067492548 358.010657934752  1002.08845866191 357.894154698898  C 1004.88450288547 357.068241058505  1007.68798613627 356.267723446474  1010.49856197049 355.49270078773  L 1010.23273133912 354.528681039268  C 1007.41669244743 355.305210148494  1004.60775898316 356.107280409528  1001.80627797238 356.934792731626  C 1001.40743688122 357.051607431795  1001.0088565594 357.1693106431  1000.61053997498 357.287901489055  L 1000.8958913637 358.246324456722  Z M 988.549353748368 362.237319050202  C 991.690828413066 361.140463846026  994.85168850827 360.099938879909  998.030414583435 359.116244340465  L 997.734784846989 358.160941739752  C 994.544656811725 359.148164751177  991.372458840965 360.192422037682  988.21971583545 361.293211616502  L 988.549353748368 362.237319050202  Z M 976.401890552254 366.798477546809  C 979.488925767992 365.556636983506  982.597946473663 364.370163638557  985.727458138328 363.239627859117  L 985.387698201561 362.299115666018  C 982.246961106874 363.433706630943  979.126788471405 364.624435807134  976.028680186925 365.870730801619  L 976.401890552254 366.798477546809  Z M 964.479815983524 371.919919424808  C 967.505724519729 370.535783615579  970.556170979649 369.205932066825  973.629688989452 367.931004048746  L 973.246534850784 367.007319629682  C 970.161992257899 368.286820762288  967.100603971605 369.621442434018  964.063841625548 371.010543081644  L 964.479815983524 371.919919424808  Z M 952.808956006563 377.590550459383  C 955.767183047155 376.067117761761  958.75244729044 374.596768774505  961.763313696196 373.180210306047  L 961.337595355899 372.275354574599  C 958.315929095799 373.6969941802  955.319956832072 375.172617248988  952.351118752382 376.701514437231  L 952.808956006563 377.590550459383  Z M 941.428061013275 383.812185083393  C 942.776306887127 383.019591440986  944.135379583381 382.245560489868  945.50489425838 381.49031140956  C 947.046628496677 380.637494126118  948.596412564968 379.7993112093  950.154037565463 378.975875639078  L 949.686677227691 378.091808721544  C 948.123654943919 378.918097555569  946.568499801914 379.75918304177  945.021421372491 380.614951836489  C 943.644076506124 381.374525794473  942.277231968986 382.152986431474  940.921274699661 382.950113373886  L 941.428061013275 383.812185083393  Z M 930.513820378775 390.798826470787  C 933.243190591041 388.901874775978  936.027373213412 387.085030086204  938.862808466863 385.35061536892  L 938.340997348252 384.497554318061  C 935.488954816963 386.242127584041  932.688465105826 388.069613618744  929.943108843664 389.977675848982  L 930.513820378775 390.798826470787  Z M 920.160929450056 398.593148501719  C 922.738560849018 396.494648118322  925.376922597498 394.471866670501  928.072641359007 392.527390430768  L 927.487631723389 391.716364089498  C 924.776124010116 393.672229218159  922.122309252599 395.7068581922  919.529580545117 397.81764959119  L 920.160929450056 398.593148501719  Z M 910.429030914567 407.150248325771  C 912.840073844713 404.862288650199  915.317415198097 402.645223626282  917.857887514472 400.50188793214  L 917.213049584435 399.737568598362  C 914.657697602039 401.893457910623  912.165846343653 404.123508388819  909.740681821498 406.424868751981  L 910.429030914567 407.150248325771  Z M 901.40155470207 416.438287765897  C 902.353531675804 415.362497777631  903.323170971826 414.302467569163  904.310077718914 413.258628822075  C 905.610173160411 411.893329779857  906.932793260272 410.549658230561  908.277393817198 409.228167037252  L 907.5764424843 408.514957931233  C 906.223542392845 409.844606016737  904.892765397508 411.196578336504  903.584659399243 412.570318263146  C 902.589782360654 413.622558523399  901.612318940474 414.691127692229  900.652667523574 415.775590252786  L 901.40155470207 416.438287765897  Z M 893.313176615819 426.54551778918  C 895.257329574641 423.853016540527  897.303348039506 421.235555222214  899.446781352026 418.698827539534  L 898.682945573051 418.053416892924  C 896.523120934017 420.609543514438  894.461456096337 423.247021160228  892.502435753605 425.960112583927  L 893.313176615819 426.54551778918  Z M 886.263768712492 437.402948747847  C 887.932178318022 434.531415518112  889.709373750288 431.724482724658  891.591489115659 428.988256225859  L 890.76758211396 428.421531202103  C 888.871073780396 431.178682252973  887.080287726747 434.007080305762  885.399119410021 436.900572809195  L 886.263768712492 437.402948747847  Z M 880.458246725352 448.606873997972  C 881.796696153543 445.68697891273  883.242274319038 442.817390124819  884.792039563638 440.003947062081  L 883.916135610565 439.521461554534  C 882.301529324397 442.452617012242  880.799171720574 445.444217230387  879.412330844126 448.489754647659  L 880.458246725352 448.606873997972  Z M 1064.18183555428 343.935561693509  C 1067.47180748515 343.42139366085  1070.76702140183 342.941346618146  1074.06694610362 342.495497950762  L 1073.93305389638 341.504502049238  C 1070.62628008443 341.951276091262  1067.324226835 342.43231948854  1064.02742645131 342.947554695091  L 1064.18183555428 343.935561693509  Z M 874.468900736116 445.048815309113  L 878 453  L 886.113876587591 449.860731499005  L 874.468900736116 445.048815309113  Z " fill-rule="nonzero" fill="#797979" stroke="none" />
  </g>
</svg>