<?xml version="1.0" encoding="utf-8"?>
<svg version="1.1" xmlns:xlink="http://www.w3.org/1999/xlink" width="250px" height="58px" viewBox="268 1104  250 58" xmlns="http://www.w3.org/2000/svg">
  <g transform="matrix(-0.961261695938319 0.275637355817 -0.275637355817 -0.96126169593832 1083.07297064442 2113.78402066204 )">
    <path d="M 1156.83291180261 941.013339610252  C 1159.92960211868 939.77918067091  1163.02544392545 938.542893749805  1166.12043502462 937.304479724799  L 1165.74893636199 936.376046235707  C 1162.65437062441 937.614290058689  1159.55895429887 938.850407069018  1156.46268957791 940.084396391136  L 1156.83291180261 941.013339610252  Z M 1144.75152636811 945.815767127059  C 1147.85041691992 944.587143283429  1150.94846276602 943.356389945327  1154.04566170657 942.123507986687  L 1153.67582254974 941.194412190722  C 1150.57904927422 942.42712470764  1147.48142921226 943.657708895483  1144.38296455795 944.886163882607  L 1144.75152636811 945.815767127059  Z M 1132.66157930472 950.596600116779  C 1135.76266019872 949.373515291378  1138.86290019331 948.148299465596  1141.96229708708 946.920953509433  L 1141.59411861681 945.991198372837  C 1138.49514769013 947.218375648121  1135.39533378124 948.443423084699  1132.29467908578 949.666339814853  L 1132.66157930472 950.596600116779  Z M 1120.56310921093 955.355823316082  C 1123.66637054842 954.138281413016  1126.76879478994 952.918607012643  1129.87037974363 951.696800976665  L 1129.50386313536 950.766389467783  C 1126.40270445133 951.988027583535  1123.30070659201 953.207534357751  1120.19787175457 954.424908926638  L 1120.56310921093 955.355823316082  Z M 1108.45615471243 960.09342153062  C 1111.56158658406 958.881426437755  1114.66618517138 957.667297355274  1117.76994828099 956.451035140964  L 1117.40509470486 955.519970230237  C 1114.30175816427 956.736065286243  1111.19758625799 957.950027504688  1108.09258118472 959.161856025705  L 1108.45615471243 960.09342153062  Z M 1096.34075446201 964.809379635092  C 1099.4483469515 963.602935222574  1102.55510997655 962.394355332786  1105.66104133111 961.183640823916  L 1105.29785195196 960.25192548387  C 1102.19234746256 961.462473597613  1099.08601141972 962.670887384579  1095.97884602369 963.877165988831  L 1096.34075446201 964.809379635092  Z M 1084.2169471394 969.503682573284  C 1087.32669032912 968.302792691382  1090.43560786581 967.099765855692  1093.54369755301 965.894602916157  L 1093.18217353037 964.962240121397  C 1090.07451100682 966.167237428069  1086.96602074473 967.370098925562  1083.85670494591 968.570823761873  L 1084.2169471394 969.503682573284  Z M 1072.08477145121 974.176315358117  C 1075.19665540926 972.980983842235  1078.30771753944 971.783513898572  1081.41795563265 970.583906377424  L 1081.05809812071 969.650899104619  C 1077.94828748457 970.850341757134  1074.83765292744 972.047647124886  1071.72619665265 973.242814359809  L 1072.08477145121 974.176315358117  Z M 1059.94426613072 978.827263071698  C 1063.05828092578 977.637493736638  1066.17147770963 976.44558451091  1069.28385428278 975.251536236598  L 1068.92566443044 974.317887464478  C 1065.81371561011 975.511771633482  1062.70094668899 976.703517048966  1059.5873598719 977.893122866798  L 1059.94426613072 978.827263071698  Z M 1047.79546993785 983.456510865366  C 1050.91160562437 982.272307511017  1054.02692713008 981.085962805682  1057.14143224286 979.89747759176  L 1056.78491119367 978.963190301101  C 1053.67083412439 980.151512174989  1050.55594077713 981.337693833425  1047.44023335821 982.521734436219  L 1047.79546993785 983.456510865366  Z M 1035.63842165896 988.064043959737  C 1038.75666829204 986.885410365386  1041.87410456618 985.704633970809  1044.9907282789 984.52171561023  L 1044.6358771711 983.586792783846  C 1041.51968179491 984.76954856877  1038.40267396615 985.950162683144  1035.28485589264 987.12863429072  L 1035.63842165896 988.064043959737  Z M 1023.47316010675 992.649847644756  C 1026.59350772734 991.476787574724  1029.71304882459 990.301583257852  1032.83178118337 989.124235528622  L 1032.47860114986 988.188680151357  C 1029.36029741369 989.36586607194  1026.24118505854 990.540908871608  1023.12126628255 991.713807722266  L 1023.47316010675 992.649847644756  Z M 1011.29972412017 997.213907279742  C 1014.42216276807 996.046424478451  1017.54379872523 994.876795992656  1020.66462977503 993.705022652883  L 1020.31312194338 992.768837711601  C 1017.19271980648 993.940450008145  1014.07151287561 995.109917744458  1010.94950336155 996.277240092191  L 1011.29972412017 997.213907279742  Z M 999.118152564238 1001.75620829343  C 1002.24267227073 1000.5943064882  1005.36639312163 999.430257567648  1008.48931289887 998.264062358347  L 1008.13947839129 997.327250841921  C 1005.01698781403 998.493285774626  1001.89369627595 999.657174712529  998.769605989321 1000.81891683123  L 999.118152564238 1001.75620829343  Z M 986.928484329974 1006.27673618403  C 990.055075121537 1005.12041908366  993.18087088964 1003.9619534461  996.3058694259 1002.80134008978  L 995.957709359288 1001.86390498908  C 992.83314031056 1003.02435883526  989.707774136725 1004.1826652589  986.581613051527 1005.33882343959  L 986.928484329974 1006.27673618403  Z M 974.730758334226 1010.77547651925  C 977.859410227017 1009.62474781612  980.987270936595 1008.47186915867  984.114338253118 1007.31684136142  L 983.767853739012 1006.37878566932  C 980.641216194345 1007.53365472408  977.513785362831 1008.68637493546  974.385563459674 1009.83694548696  L 974.730758334226 1010.77547651925  Z M 962.524710651016 1015.25224478292  C 965.656058894504 1014.10848564676  968.786164080015 1012.96132616916  971.915020669392 1011.81076837981  L 971.569890847974 1010.87221342331  C 968.441713779145 1012.02252133619  965.312288385683 1013.16943167523  962.181620203878 1014.31294241143  L 962.524710651016 1015.25224478292  Z M 950.306172310169 1019.69565762273  C 953.440737617081 1018.56074479778  956.574069472261 1017.42242813501  959.70616233184 1016.28070964847  L 959.363684013049 1015.34118391644  C 956.232271376867 1016.48265444621  953.0996200145 1017.62072389089  949.965735467948 1018.75539023711  L 950.306172310169 1019.69565762273  Z M 938.075136148287 1024.10455218469  C 941.212893527138 1022.97849471946  944.349427070333 1021.84902994717  947.48473122834 1020.71615986622  L 947.144907142713 1019.77567084937  C 944.010283905528 1020.90829489523  940.874431550484 1022.03751437187  937.737355625242 1023.16332728157  L 938.075136148287 1024.10455218469  Z M 925.831699681847 1028.47889331724  C 928.972624115702 1027.36170018964  932.112334339735 1026.24109631293  935.250824798794 1025.11708366979  L 934.913657655703 1024.17563886651  C 931.775848809462 1025.29940739821  928.636820463488 1026.41976790368  925.496578171059 1027.53671840089  L 925.831699681847 1028.47889331724  Z M 913.575960526192 1032.81864614434  C 916.720026972863 1031.71032626161  919.862888845229 1030.59859221488  923.004540582559 1029.48344597117  L 922.670033070195 1028.54105288749  C 919.529063632245 1029.65595694535  916.386884322409 1030.76744954717  913.243500699541 1031.87552872659  L 913.575960526192 1032.81864614434  Z M 901.308016394754 1037.12377606568  C 904.455199787005 1036.02433826432  907.601188250069 1034.9214829113  910.745976217685 1033.81521195793  L 910.414131003034 1032.87187810742  C 907.27002601592 1033.97790880246  904.124720794414 1035.08052463883  900.9782209029 1036.17972366589  L 901.308016394754 1037.12377606568  Z M 889.027965098273 1041.39424875703  C 892.178240344016 1040.3037018027  895.327330315217 1039.20973393631  898.475229440129 1038.11234709344  L 898.146049168949 1037.16807999718  C 894.998833700216 1038.26522851117  891.850427644154 1039.35895879108  888.700836570633 1040.449268902  L 889.027965098273 1041.39424875703  Z M 876.735904544018 1045.63003017045  C 879.889246526513 1044.54838275794  883.041412898563 1043.46331110025  886.192398082976 1042.3748171172  L 885.86588537978 1041.42962430372  C 882.715584521772 1042.51788188922  879.564102732989 1043.60271789251  876.411445588746 1044.68413039439  L 876.735904544018 1045.63003017045  Z M 864.431932735006 1049.8310865346  C 867.588316313064 1048.75834728776  870.743533954145 1047.6821804899  873.89758007566 1046.60258804509  L 873.573737543692 1045.65647705029  C 870.420376413351 1046.73583503077  867.265844018208 1047.81176810817  864.110145938971 1048.88427437905  L 864.431932735006 1049.8310865346  Z M 852.116147769221 1053.997384355  C 855.2755477774 1052.93356182664  858.433791531369 1051.86630846874  861.590873443183 1050.79562616963  L 861.269703664396 1049.84860453672  C 858.113307403066 1050.9190543066  854.955749552243 1051.98607587984  851.797035697988 1053.04966736877  L 852.116147769221 1053.997384355  Z M 839.788647838833 1058.12889041429  C 842.951039087644 1057.07399308613  846.112283774229 1056.01566167728  849.272376305333 1054.95389806028  L 848.953881840374 1054.00597333975  C 845.794475613595 1055.06750636446  842.633917481894 1056.12560792631  839.47221303664 1057.1802761534  L 839.788647838833 1058.12889041429  Z M 827.44953122941 1062.22557177252  C 830.614888505516 1061.17960805511  833.77910892052 1060.13020703324  836.942186875903 1059.07737056365  L 836.626370264087 1058.12855031318  C 833.463979261399 1059.18115812927  830.300446047544 1060.23033124363  827.135776219153 1061.27606780015  L 827.44953122941 1062.22557177252  Z M 815.098896319144 1066.28739576736  C 818.267194385557 1065.25037400004  821.434365301058 1064.2099117319  824.600403461907 1063.16601080385  L 824.287267221198 1062.21630258826  C 821.121916655938 1063.25997680342  817.955433582372 1064.30021310535  814.78782360235 1065.33700965379  L 815.098896319144 1066.28739576736  Z M 802.736841578057 1070.31433001441  C 805.908055174345 1069.28625846522  809.078151338896 1068.25474324628  812.247124462796 1067.21978618266  L 811.936671089791 1066.26919757385  C 808.768386198891 1067.30392986699  805.598978511576 1068.33522106284  802.42845363487 1069.36306933694  L 802.736841578057 1070.31433001441  Z M 790.3641056239 1074.30801208847  C 791.544137531828 1073.92888366544  792.723908209621 1073.54894265006  793.903416819406 1073.16818931216  C 795.896865898572 1072.52637410141  797.889876877404 1071.88319897486  799.882448369673 1071.23866437985  L 799.574680339576 1070.28720295675  C 797.582420267094 1070.93163681719  795.589720748309 1071.57471133941  793.596583172765 1072.21642607497  C 792.417390184346 1072.59707771272  791.237935167878 1072.97691716274  790.058218967368 1073.35594415321  L 790.3641056239 1074.30801208847  Z M 777.975399874675 1078.2554492601  C 781.154423281583 1077.25093719526  784.331583195247 1076.24053714415  787.50686326254 1075.22425430737  L 787.202034965308 1074.27184698421  C 784.02793106249 1075.28775337679  780.85194800986 1076.29777916269  777.674102154008 1077.30191914337  L 777.975399874675 1078.2554492601  Z M 765.567826004802 1082.14317366244  C 768.751650512356 1081.15398418942  771.933639906948 1080.15889782317  775.113777809173 1079.15791968592  L 774.813540070105 1078.20405528253  C 771.634580131522 1079.20466264472  768.453769387341 1080.19938041799  765.271124208994 1081.18820348261  L 765.567826004802 1082.14317366244  Z M 753.141671824173 1085.97109511462  C 756.330223579877 1084.99725117883  759.516968644046 1084.01750158006  762.70189061422 1083.03185136118  L 762.406250397722 1082.07655200371  C 759.222508163744 1083.06183712503  756.036943510599 1084.04122381205  752.84957283561 1085.01470702348  L 753.141671824173 1085.97109511462  Z M 740.697225573675 1089.73912482301  C 743.890430614666 1088.7806490141  747.081857428171 1087.81625890925  750.271489587629 1086.84595947226  L 749.980453751463 1085.88924732011  C 746.792003072916 1086.85918734567  743.601758404614 1087.82322022812  740.409736167975 1088.78134100523  L 740.697225573675 1089.73912482301  Z M 728.234775918506 1093.44717538324  C 731.43256017422 1092.50408993431  734.628594707742 1091.55508169366  737.822863068799 1090.60015554592  L 737.536438363921 1089.64205279129  C 734.343353201084 1090.59662522206  731.148502519522 1091.54528193795  727.951902764361 1092.48801805586  L 728.234775918506 1093.44717538324  Z M 715.754611941472 1097.09516078222  C 718.956901235124 1096.16748756937  722.157469352467 1095.23388320641  725.356299819891 1094.29435249869  L 725.074492890296 1093.33488136602  C 721.876847310717 1094.27406405951  718.677464725109 1095.20732260337  715.476361600496 1096.13465219416  L 715.754611941472 1097.09516078222  Z M 703.257023136291 1100.68299640018  C 706.463743186594 1099.77075694199  709.668770646395 1098.8525781129  712.872089019135 1097.92846463883  L 712.594906401704 1096.96764738431  C 709.392774579425 1097.89141855482  706.18893430268 1098.80925727876  702.983402062863 1099.72115883168  L 703.257023136291 1100.68299640018  Z M 690.742299400868 1104.21059901256  C 693.953375823998 1103.31381446957  697.162788280981 1102.41108247283  700.370520254118 1101.50240766837  L 700.097968378463 1100.5402665794  C 696.891424590881 1101.44860479892  693.683200940735 1102.35100241235  690.473313941987 1103.24745477471  L 690.742299400868 1104.21059901256  Z M 678.210731030578 1107.67788679202  C 681.426089340944 1106.79657796644  684.639812349546 1105.90931374184  687.851883515066 1105.01609868502  L 687.583968703385 1104.05265607974  C 684.373087330474 1104.94554027817  681.160554725869 1105.83247584879  677.946387425713 1106.7134582262  L 678.210731030578 1107.67788679202  Z M 665.662608711529 1111.08477931029  C 668.88217432493 1110.21896664517  672.100133338169 1109.34719077408  675.316469188122 1108.46945618414  L 675.053197655049 1107.50473441084  C 671.838053177159 1108.38214387663  668.621286137468 1109.25359683068  665.402913092475 1110.11908878768  L 665.662608711529 1111.08477931029  Z M 653.098223513818 1114.43119754003  C 656.321921748222 1113.58090111903  659.544042121331 1112.72463382345  662.764568048604 1111.86240006057  L 662.505945901066 1110.89642149724  C 659.286612897915 1111.75833587767  656.065686039775 1112.6142860008  652.843181904555 1113.4642674611  L 653.098223513818 1114.43119754003  Z M 640.518903139161 1117.71884477841  C 640.992111891052 1117.59590283025  641.465257487468 1117.47271792133  641.938339740907 1117.34929010047  C 644.692183665352 1116.63549546394  647.4448976086 1115.9173484035  650.196471254265 1115.19485161055  L 649.942504491341 1114.22763866434  C 647.191693052824 1114.94993532009  644.439741526383 1115.66788304184  641.686660227181 1116.38147913851  C 641.213652181329 1116.50488788062  640.740580767671 1116.62805361687  640.26744617428 1116.75097629828  L 640.518903139161 1117.71884477841  Z M 627.917494254459 1120.93158623137  C 631.152355855729 1120.12252046724  634.384374345457 1119.30212931255  637.613490273976 1118.47042785756  L 637.364067435498 1117.502033182  C 634.137212263091 1118.3331523494  630.907456561681 1119.152969135  627.674859739162 1119.96146845914  L 627.917494254459 1120.93158623137  Z M 615.287357033448 1124.02946410201  C 618.529450754683 1123.24988389883  621.768804594858 1122.45895288923  625.005358969742 1121.65668562149  L 624.764763287321 1120.68606019549  C 621.530474876386 1121.48776578297  618.293388960006 1122.27814304903  615.053565080905 1123.05717745553  L 615.287357033448 1124.02946410201  Z M 602.629538450486 1127.01222159196  C 605.87859553849 1126.26219157299  609.125016203218 1125.50078627262  612.368740730453 1124.72801969604  L 612.136992148253 1123.75524397952  C 608.895538604846 1124.52746952977  605.651390811631 1125.28834175799  602.404608440866 1126.03784666886  L 602.629538450486 1127.01222159196  Z M 589.945087774582 1129.87961144574  C 593.200838898989 1129.15919378467  596.454057276451 1128.42737731017  599.704683067714 1127.68417548318  L 599.481800796517 1126.70933011432  C 596.233450820828 1127.45201161372  592.982510073947 1128.18331573172  589.729038353442 1128.90322901676  L 589.945087774582 1129.87961144574  Z M 577.235056482406 1132.63139597127  C 580.497231757889 1131.94065038708  583.756978172891 1131.2384834023  587.014235767719 1130.52490793258  L 586.800238283335 1129.54807372112  C 583.545261146993 1130.26114960516  580.287796933199 1130.96282499148  577.027905559149 1131.65308697356  L 577.235056482406 1132.63139597127  Z M 564.500498171133 1135.26734705955  C 567.768827180016 1134.60633081152  571.03483141586 1133.9338715226  574.298450804228 1133.24998156191  L 574.093355845965 1132.27123948245  C 570.832021370138 1132.95465064076  567.568303716581 1133.62663913008  564.30226291752 1134.28719258998  L 564.500498171133 1135.26734705955  Z M 551.742468471103 1137.7872462036  C 555.016680285417 1137.15601408664  558.288671607025 1136.51331823702  561.558382251367 1135.85917047639  L 561.362206820558 1134.87860166169  C 558.094785353403 1135.53229144292  554.825084805616 1136.17453733083  551.553165319832 1136.80532751199  L 551.742468471103 1137.7872462036  Z M 538.962024958316 1140.19088451655  C 542.241848162496 1139.58948885661  545.519555338372 1138.97660972251  548.795086196248 1138.35225838747  L 548.60784655484 1137.36994412172  C 545.334608948978 1137.99385833832  542.059196548684 1138.60630838587  538.781669601659 1139.207282999  L 538.962024958316 1140.19088451655  Z M 526.160227066762 1142.47806274896  C 529.445389780088 1141.90655339869  532.72854110492 1141.3235417847  536.009620651424 1140.72903863081  L 535.831332320635 1139.74506034288  C 532.552549910811 1140.33914727553  529.271697173219 1140.92175071369  525.988834455264 1141.49285994105  L 526.160227066762 1142.47806274896  Z M 513.332759958761 1144.63306499678  C 514.471610441372 1144.45216038596  515.610073553531 1144.26882552734  516.748141517469 1144.08306167344  C 518.90060889327 1143.72341077749  521.052249193658 1143.35882732336  523.203045467186 1142.98931418337  L 523.033723226216 1142.00375344008  C 520.885050107992 1142.37290181573  518.735534037427 1142.73712678657  516.585191939594 1143.09642548474  C 515.449145761168 1143.2818566211  514.312705356077 1143.46486439581  513.175878479778 1143.64544755994  L 513.332759958761 1144.63306499678  Z M 500.469983453062 1146.57060388198  C 503.772057709643 1146.10027510035  507.071197206422 1145.60956735092  510.367213376656 1145.09850868075  L 510.213990845231 1144.11031697068  C 506.922041362236 1144.62074508697  503.626972406186 1145.11084739189  500.328972311426 1145.58059587295  L 500.469983453062 1146.57060388198  Z M 487.577768272861 1148.30146035049  C 490.88696549128 1147.88418666523  494.193555387036 1147.44648953726  497.49734896755 1146.98839398373  L 497.360005518662 1145.99787049737  C 494.060288221273 1146.45540084391  490.75777805875 1146.89255793288  487.452663790567 1147.30931677797  L 487.577768272861 1148.30146035049  Z M 474.65943522644 1149.8251885641  C 477.974903015593 1149.46107745757  481.288091590823 1149.07650369415  484.598811582395 1148.67148925464  L 484.477382593304 1147.67888913344  C 481.170747430795 1148.08340385845  477.861646730373 1148.46750312749  474.550269628206 1148.83116498683  L 474.65943522644 1149.8251885641  Z M 461.717831779744 1151.14119627294  C 462.541713811241 1151.06484104525  463.365415019661 1150.98654712927  464.188928563076 1150.90631517533  C 466.68542114436 1150.66491482852  469.180779726143 1150.41192736377  471.67492365796 1150.14736095769  L 471.569440406643 1149.15293987802  C 469.078253820293 1149.41719258357  466.585853966294 1149.66987952006  464.092321407499 1149.91099251978  C 463.270249313495 1149.99108460891  462.447989854228 1150.06924176983  461.625549862054 1150.14546335309  L 461.717831779744 1151.14119627294  Z M 448.747522314201 1152.18204914401  C 452.076391294454 1151.95620211268  455.403042181973 1151.69877122243  458.727025656826 1151.40979124362  L 458.640414501835 1150.41354905026  C 455.322733515588 1150.70198110425  452.002390174249 1150.95892388881  448.679832945838 1151.18434269951  L 448.747522314201 1152.18204914401  Z M 435.7554827254 1152.9026111845  C 439.08891016951 1152.75895519261  442.420899361318 1152.58367023442  445.751000259772 1152.3767799851  L 445.688992491884 1151.37870431827  C 442.365205681054 1151.58520229024  439.039534157229 1151.76015489676  435.712427108089 1151.90353850755  L 435.7554827254 1152.9026111845  Z M 422.749621115596 1153.30244379671  C 426.08557800537 1153.241066286  429.420877358629 1153.14803395378  432.755068687319 1153.02335936561  L 432.717702049938 1152.02405774227  C 429.389832564607 1152.14849593932  426.060857155582 1152.2413518762  422.731225456786 1152.30261301116  L 422.749621115596 1153.30244379671  Z M 409.733638767308 1153.34876706619  C 412.594825873734 1153.39171224223  415.456452224032 1153.39724261869  418.317783948814 1153.36535677732  C 418.794243544726 1153.3605954658  419.270696469537 1153.35518847502  419.747141410731 1153.34913581986  L 419.734438648489 1152.3492165032  C 419.25870529266 1152.35526011853  418.782963962065 1152.3606587738  418.307215968209 1152.36541245412  C 415.45440942408 1152.39720830711  412.601309055146 1152.39169691477  409.748646642624 1152.3488796907  L 409.733638767308 1153.34876706619  Z M 396.722561038754 1152.89527291918  C 400.056056008154 1153.07770450057  403.392140118856 1153.20927093313  406.729648876292 1153.28992629221  L 406.753808158983 1152.29021817028  C 403.426466846639 1152.20980852109  400.100545840945 1152.07864289482  396.777206088962 1151.89676707619  L 396.722561038754 1152.89527291918  Z M 383.739699220692 1151.9262013981  C 387.063338331905 1152.24067405399  390.391581526416 1152.50442423521  393.723267046588 1152.71735987704  L 393.787049198502 1151.71939603145  C 390.465513383395 1151.50710908049  387.147409407217 1151.24416239244  383.833895488348 1150.93064775155  L 383.739699220692 1151.9262013981  Z M 370.805370137266 1150.38547118853  C 373.571854316861 1150.80173161246  376.346893101842 1151.15900383595  379.128597458241 1151.45704465543  C 379.668861070613 1151.51587037495  380.209269937545 1151.57335431626  380.749819059611 1151.62949594756  L 380.853123750514 1150.63484618968  C 380.3139360788 1150.57884595912  379.774888383551 1150.52150609059  379.23598565672 1150.4628271151  C 376.468117814568 1150.16628106499  373.706882842031 1149.81079216895  370.954160763473 1149.39660246643  L 370.805370137266 1150.38547118853  Z M 357.990897318914 1148.02144652417  C 361.25558230466 1148.73613209885  364.537928014892 1149.36761229953  367.834746246744 1149.91527375786  L 367.998618766276 1148.92879223379  C 364.718538520351 1148.38391125929  361.452857318889 1147.7556370912  358.204747178192 1147.0445799838  L 357.990897318914 1148.02144652417  Z M 345.359686012258 1144.81461295035  C 345.777347849516 1144.9365996347  346.195680299833 1145.05627841529  346.614664218818 1145.17364381518  C 349.412614462768 1145.96327053687  352.227704222419 1146.69085350609  355.057864131721 1147.35585787825  L 355.28660503587 1146.38237053947  C 352.470498262328 1145.72066824105  349.669388527253 1144.99669110861  346.88533538152 1144.21097145538  C 346.46958473902 1144.0945154735  346.054481004553 1143.97576224186  345.640043203344 1143.85471720319  L 345.359686012258 1144.81461295035  Z M 333.055486884237 1140.47033495157  C 336.146128116828 1141.75760152502  339.290083576105 1142.91293010366  342.478842251471 1143.93319309427  L 342.783580104678 1142.98075682826  C 339.621807984053 1141.96912835216  336.504459908634 1140.82357735191  333.439974860095 1139.54720495183  L 333.055486884237 1140.47033495157  Z M 321.305322063992 1134.79585751221  C 324.235181308845 1136.41605603865  327.232577477205 1137.91099960429  330.289396309544 1139.27664124322  L 330.697293788067 1138.36361350705  C 327.666344899853 1137.00952933188  324.694315779928 1135.52723751587  321.789252016624 1133.92075077533  L 321.305322063992 1134.79585751221  Z M 310.420238913256 1127.56629230513  C 313.050704373271 1129.65035105593  315.812844461968 1131.56258641146  318.689460387634 1133.2910916123  L 319.204511592988 1132.4339322013  C 316.364751140646 1130.72757277139  313.637999850103 1128.83983715477  311.041236160535 1126.78247956036  L 310.420238913256 1127.56629230513  Z M 300.894426340193 1118.61533685903  C 301.131320806024 1118.88194122346  301.370359001892 1119.14663301161  301.61151766264 1119.40938646149  C 303.649520105626 1121.61104488661  305.812767979119 1123.69336735233  308.090492220464 1125.64598765821  L 308.741338401111 1124.88677803687  C 306.493334601204 1122.95963611701  304.358285964421 1120.90451467632  302.346816094852 1118.73163961606  C 302.109775296722 1118.47335594956  301.874814686745 1118.21317087054  301.641957041215 1117.95110960046  L 300.894426340193 1118.61533685903  Z M 293.212749746524 1108.03185385873  C 294.909219736816 1110.93239548008  296.823378652949 1113.7000014717  298.938735629665 1116.31082834957  L 299.71571402983 1115.68130109386  C 297.632208917775 1113.10978658987  295.746872338207 1110.38385366453  294.075946846137 1107.52698677997  L 293.212749746524 1108.03185385873  Z M 287.751317038919 1096.15224255262  C 288.195259986621 1097.41554161746  288.671061361953 1098.66741843419  289.178265394916 1099.90667383038  C 289.950585314913 1101.77213717635  290.807572081272 1103.6014109842  291.746555276854 1105.38879513775  L 292.63182951443 1104.92372576198  C 291.707298371073 1103.16385154604  290.863474117295 1101.36274607142  290.102984375431 1099.52601788154  C 289.602449725249 1098.30296789741  289.132891233675 1097.06746872363  288.694758232064 1095.82070263787  L 287.751317038919 1096.15224255262  Z M 284.447189628219 1083.50932230042  C 285.025848658547 1086.81461117608  285.813273587694 1090.07993140524  286.804735681252 1093.28567371272  L 287.760088172285 1092.99020524084  C 286.781102132946 1089.82480236247  286.003585758219 1086.60057126065  285.432208278526 1083.33687445743  L 284.447189628219 1083.50932230042  Z M 1168.90569703707 936.189332898638  C 1172.00017723273 934.949642803033  1175.09380511266 933.707826247387  1178.18657849119 932.463884109047  L 1177.81342150881 931.536115890953  C 1174.72107318892 932.779887066769  1171.62787048226 934.021532953147  1168.53381557981 935.261052670611  L 1168.90569703707 936.189332898638  Z M 290.804351813059 1081.42132791889  L 284 1076  L 278.253396104397 1082.53196323222  L 290.804351813059 1081.42132791889  Z " fill-rule="nonzero" fill="#ff0000" stroke="none" />
  </g>
</svg>