<?xml version="1.0" encoding="utf-8"?>
<svg version="1.1" xmlns:xlink="http://www.w3.org/1999/xlink" width="416px" height="48px" viewBox="170 1106  416 48" xmlns="http://www.w3.org/2000/svg">
  <g transform="matrix(-0.984807753012208 0.17364817766693 -0.173648177666931 -0.984807753012206 946.479771402247 2177.19374974569 )">
    <path d="M 1189.40879324678 945.262665132257  C 1192.4285673581 943.850186581969  1195.44642267558 942.433609421265  1198.46235086005 941.012937564537  L 1198.03620721638 940.108282052777  C 1195.02109772962 941.52856825682  1192.00406163064 942.944760877482  1188.98510726104 944.356855999223  L 1189.40879324678 945.262665132257  Z M 1177.62197926152 950.750535966049  C 1180.64671979657 949.348724270157  1183.66955601681 947.942807216517  1186.6904795666 946.532788691319  L 1186.26753148804 945.626634773464  C 1183.24742799109 947.036270538329  1180.22541234326 948.44180594485  1177.20149289721 949.843237108216  L 1177.62197926152 950.750535966049  Z M 1165.81586967848 956.196771980464  C 1168.84553895895 954.805644600925  1171.87331842601 953.410405168078  1174.89919971035 952.011057538599  L 1174.47945246552 951.103416502478  C 1171.45439258028 952.502384268112  1168.42743502661 953.89724495278  1165.39858817353 955.287994699924  L 1165.81586967848 956.196771980464  Z M 1153.99061156468 961.601305332516  C 1157.02517185041 960.220879598406  1160.05785684767 958.836335166651  1163.0886581736 957.447675864363  L 1162.67211699121 956.538559016331  C 1159.64213839998 957.926841356203  1156.61027664774 959.311009943018  1153.57654011711 960.691060949778  L 1153.99061156468 961.601305332516  Z M 1142.14635222568 966.964068698705  C 1145.18576571558 965.59436180579  1148.22331846531 964.220529622199  1151.25900207857 962.842575945433  L 1150.84567214743 961.931994610229  C 1147.8108125942 963.309574230705  1144.77408441088 964.683033477275  1141.73549599351 966.052368552554  L 1142.14635222568 966.964068698705  Z M 1130.28323920371 972.284995275853  C 1133.32746803625 970.926024286376  1136.3698507001 969.562921464581  1139.4103787856 968.19569057831  L 1139.00026525449 967.283656098915  C 1135.96056254364 968.650515839885  1132.91900575822 970.013248636819  1129.87560330493 971.371850723207  L 1130.28323920371 972.284995275853  Z M 1118.40142027588 977.564018781938  C 1121.45042652953 976.215800624407  1124.49760120897 974.863444144384  1127.5429358913 973.506953080008  L 1127.13604386896 972.593476817507  C 1124.09153586607 973.949599651989  1121.04518836589 975.301589024328  1117.99700978835 976.649441197709  L 1118.40142027588 977.564018781938  Z M 1106.50104345232 982.801073456917  C 1109.55478914605 981.463624925894  1112.60671788286 980.122031633754  1115.65682122671 978.776297288889  L 1115.25315578172 977.861390622323  C 1112.20388041226 979.206759657089  1109.15278014433 980.547988763695  1106.09986341372 981.885074233867  L 1106.50104345232 982.801073456917  Z M 1094.58225697432 987.996094063548  C 1097.64070406805 986.669431819437  1100.6973488448 985.338618427218  1103.75218285546 984.003657565483  L 1103.35174901624 983.087331891716  C 1100.29774426367 984.421930368096  1097.24192923693 985.752382500669  1094.1843123821 987.078684612148  L 1094.58225697432 987.996094063548  Z M 1082.64520931251 993.149015888201  C 1085.70831970806 991.833156456849  1088.76964244763 990.513139542697  1091.82916907195 989.188968793312  L 1091.43197182663 988.271235526881  C 1088.37327573472 989.595046819771  1085.3127840141 990.91470540546  1082.25050512379 992.230207636491  L 1082.64520931251 993.149015888201  Z M 1070.69004916498 998.259774741665  C 1073.75778470471 996.954734514936  1076.82374727447 995.645530521325  1079.88792839943 994.332166379692  L 1079.49397269586 993.413036952669  C 1076.4306233668 994.726044571346  1073.3654930755 996.034893171742  1070.29859029655 997.339579135107  L 1070.69004916498 998.259774741665  Z M 1058.71692545545 1003.32830695995  C 1061.78924792547 1002.03410219434  1064.85981213226 1000.73572743024  1067.92860958826 999.433186256546  L 1067.53790033387 998.512672118395  C 1064.46993592691 999.814859707109  1061.40020524774 1001.11288201768  1058.32871678365 1002.40673546128  L 1058.71692545545 1003.32830695995  Z M 1046.72598733141 1008.35454940506  C 1049.80285846025 1007.07119622231  1052.87798605448 1005.78366686137  1055.95136161394 1004.4919648812  L 1055.56390367575 1003.57007749863  C 1052.49136240763 1004.86142883641  1049.4170695807 1006.14860868749  1046.34103369211 1007.43161349418  L 1046.72598733141 1008.35454940506  Z M 1034.71738416229 1013.33843946583  C 1037.79876562178 1012.06595385248  1040.87841829703 1010.78928593328  1043.95633367536 1009.50843923716  L 1043.57213187987 1008.585190094  C 1040.49505202526 1009.86568909447  1037.41623534568 1011.14201045223  1034.33569035079 1012.41415063961  L 1034.71738416229 1013.33843946583  Z M 1022.69008044112 1018.27799667846  C 1025.77702772242 1017.01862065234  1028.86161842651 1015.75347595859  1031.94383638957 1014.48256922681  L 1031.56263573067 1013.55807690253  C 1028.48156973768 1014.82850863659  1025.39813189013 1016.09318048629  1022.31233834647 1017.35208582426  L 1022.69008044112 1018.27799667846  Z M 1010.63910278775 1023.1602897718  C 1013.73213368363 1021.91592994849  1016.82283606354 1020.66579007366  1019.91119373166 1019.40987669825  L 1019.5344902378 1018.4835428072  C 1016.44728683422 1019.7389867887  1013.35773959553 1020.98865942731  1010.2658647108 1022.23255417482  L 1010.63910278775 1023.1602897718  Z M 998.564541434935 1027.98396227192  C 1001.6635829008 1026.75464803806  1004.76032396694 1025.51954250526  1007.85474840588 1024.27865214571  L 1007.48255097324 1023.35049856405  C 1004.38928306651 1024.59092514442  1001.29369939807 1025.82556906022  998.195816190015 1027.05442384142  L 998.564541434935 1027.98396227192  Z M 986.466681533844 1032.74890026363  C 989.571660383162 1031.53466065053  992.67436700332 1030.31461862786  995.774785135578 1029.08878058885  L 995.407102553925 1028.15882923574  C 992.307843193772 1029.38420912141  989.206296201382 1030.60379515685  986.102477828722 1031.81758095148  L 986.466681533844 1032.74890026363  Z M 974.345808785863 1037.45499121882  C 977.456651691883 1036.2558549018  980.565250592968 1035.0509052016  983.671589199503 1033.84014843235  L 983.308430151976 1032.90842126939  C 980.203252530537 1034.11872552178  977.09581545898 1035.32322487565  973.986135221524 1036.52191301892  L 974.345808785863 1037.45499121882  Z M 962.202209435845 1042.10212399909  C 965.318842933331 1040.91811929679  968.433260703103 1039.72829037498  971.545446425052 1038.53264346857  L 971.186819487965 1037.59916249929  C 968.075796936454 1038.79436253612  964.962543170995 1039.98374676294  961.84707450629 1041.1673089469  L 962.202209435845 1042.10212399909  Z M 950.036170265353 1046.69018885841  C 953.15852075232 1045.52134373212  956.278683841118 1044.34666368753  959.396643181534 1043.16615488018  L 959.042556824171 1042.23094214955  C 955.925762812066 1043.41100974514  952.806765874877 1044.58525075658  949.685582357399 1045.75365903038  L 950.036170265353 1046.69018885841  Z M 937.847978585883 1051.21907744566  C 940.975972325334 1050.06541949866  944.101807047819 1048.90591607238  947.225466373405 1047.74057324283  L 946.875928957821 1046.8036508367  C 943.753437090899 1047.96855812273  940.628770639777 1049.12762818808  937.501945978966 1050.28085495875  L 937.847978585883 1051.21907744566  Z M 925.637922232083 1055.68868280725  C 928.77148535375 1054.55023928417  931.902917890644 1053.40593985887  935.032203433494 1052.25579052768  L 934.687223214315 1051.31718057228  C 931.559107232911 1052.46690003847  928.428845059549 1053.61077178529  925.296453098061 1054.74878981839  L 925.637922232083 1055.68868280725  Z M 913.406289554957 1060.09889938958  C 916.545348057047 1058.97569717575  919.682304456869 1057.84662877504  922.817142316209 1056.711700104  L 922.476727440441 1055.77142476541  C 919.343061217709 1056.90592926014  916.207277245945 1058.03457567491  913.069391957917 1059.15735809516  L 913.406289554957 1060.09889938958  Z M 901.153369415046 1064.4496230416  C 904.297849165988 1063.3416886624  907.440255346811 1062.22787795021  910.580571490745 1061.10819674162  L 910.244729997577 1060.16627822526  C 907.105587537746 1061.28554095623  903.96435582182 1062.39893538499  900.821051311116 1063.50645567692  L 901.153369415046 1064.4496230416  Z M 888.879451175618 1068.74075101722  C 892.029277915814 1067.64811063747  895.177059667009 1066.5495839174  898.322779934264 1065.44517661351  L 897.991519754884 1064.50163716358  C 894.846975191508 1065.60563169844  891.700369914312 1066.70374784743  888.551720412776 1067.79597985599  L 888.879451175618 1068.74075101722  Z M 876.584824695828 1072.97218197775  C 879.73992403964 1071.89486140102  882.893007023159 1070.81164461589  886.044057125075 1069.72253729813  L 885.717386082478 1068.77739919715  C 882.567513676684 1069.86609946411  879.415609148016 1070.94891140037  876.261689013719 1072.02582933156  L 876.584824695828 1072.97218197775  Z M 864.269824684024 1077.14428481419  C 865.608759339695 1076.69467605314  866.947191715813 1076.24357288763  868.285119311997 1075.79097616036  C 870.105641301501 1075.17600404397  871.925500265602 1074.55907089312  873.744693035798 1073.94017778194  L 873.4226188446 1072.99346335015  C 871.604037730035 1073.61214837483  869.784790620833 1074.22887402452  867.964880684155 1074.84363922555  C 866.627589748368 1075.29602075204  865.289794246504 1075.74690935138  863.951496678826 1076.19630418089  L 864.269824684024 1077.14428481419  Z M 851.928746184734 1081.24138077089  C 855.096713376788 1080.20168648801  858.26193546024 1079.15364637002  861.424379469439 1078.09727133222  L 861.10755062628 1077.14878860484  C 857.946772794319 1078.20460707688  854.783218351732 1079.25209502049  851.616920246881 1080.29124152611  L 851.928746184734 1081.24138077089  Z M 839.559888184723 1085.25383208894  C 842.734903955321 1084.23586588702  845.907231858892 1083.20953523917  849.076838855779 1082.17485083459  L 848.76651548462 1081.22421977823  C 845.598578438889 1082.25835904507  842.427921919983 1083.28414895647  839.254578950228 1084.30157882886  L 839.559888184723 1085.25383208894  Z M 827.16383123469 1089.18145043797  C 830.345746559757 1088.18526009677  833.525031385531 1087.18068709141  836.701652599901 1086.1677418845  L 836.397849266228 1085.21500711844  C 833.222901698552 1086.22741864121  830.045291922793 1087.23146237343  826.865053033695 1088.22712785802  L 827.16383123469 1089.18145043797  Z M 814.741157161955 1093.02405146939  C 817.929822693575 1092.04968374658  821.115915217103 1091.06691553484  824.299401549526 1090.07575706967  L 824.0021325128 1089.12096331194  C 820.820323444053 1090.11159957161  817.63590955727 1091.09384999837  814.448924018058 1092.06770436211  L 814.741157161955 1093.02405146939  Z M 802.292449043151 1096.78145482503  C 805.487715116578 1095.828955454  808.680465793882 1094.86803816356  811.870667822705 1093.89871296164  L 811.57994703569 1092.94190502689  C 808.3914258088 1093.91071952647  805.20035727618 1094.87113054439  802.006774672748 1095.82312807798  L 802.292449043151 1096.78145482503  Z M 789.81829117686 1100.45348414557  C 793.020007817541 1099.5228978333  796.219266792131 1098.58387656625  799.416034780491 1097.63643012428  L 799.131875888597 1096.67765292171  C 795.936792161418 1097.62460018849  792.739218760737 1098.56312671919  789.539188988501 1099.49322273926  L 789.81829117686 1100.45348414557  Z M 777.319269056184 1104.03996707889  C 780.527285986799 1103.13133750382  783.732903096712 1102.2142563345  786.93608699956 1101.28873312229  L 786.658503340207 1100.32803165354  C 783.457007078971 1101.25306724108  780.253078892601 1102.16966523355  777.046752149945 1103.0778160846  L 777.319269056184 1104.03996707889  Z M 764.795969341268 1107.54073528808  C 768.010135988784 1106.65410509809  771.221960773623 1105.75900707108  774.431410244772 1104.85545052943  L 774.160414846761 1103.89286988644  C 770.952656318325 1104.79595037686  767.742523727627 1105.69057680915  764.530050508134 1106.5767398658  L 764.795969341268 1107.54073528808  Z M 752.248979831758 1110.95562445939  C 755.469145334496 1110.09103526979  758.687027042503 1109.21796239783  761.902591441681 1108.33641493652  L 761.638197024582 1107.37200029944  C 758.424326789732 1108.25308330535  755.208140467279 1109.12569618677  751.989671553024 1109.98982985567  L 752.248979831758 1110.95562445939  Z M 739.678889439219 1114.28447430994  C 742.904902653934 1113.4419667015  746.128690249057 1112.59095996356  749.35021864898 1111.73146295933  L 749.092437622538 1110.76525959439  C 745.872606529159 1111.62430376081  742.650517431189 1112.47486213406  739.426203885903 1113.31692585579  L 739.678889439219 1114.28447430994  Z M 727.086288159489 1117.52712859522  C 730.317997668466 1116.70674211229  733.547539837452 1115.87784145164  736.774881030905 1115.04043524624  L 736.523725494455 1114.07248850364  C 733.298084670216 1114.90945351003  730.070244030019 1115.73791745295  726.840237191763 1116.55787170395  L 727.086288159489 1117.52712859522  Z M 714.471701143732 1120.6839244308  C 715.803196978163 1120.35612601226  717.134180543496 1120.02625028227  718.46464697985 1119.69429844534  C 720.369559849165 1119.22021215158  722.273736090421 1118.74317092435  724.177168829582 1118.26317648573  L 723.932650571481 1117.29353179748  C 722.03012561245 1117.77329731841  720.126857468607 1118.25011088894  718.222853011849 1118.72397078748  C 716.893300781234 1119.05569484509  715.5632317393 1119.38534407392  714.232650743821 1119.71291727001  L 714.471701143732 1120.6839244308  Z M 701.82868891149 1123.73042096438  C 705.074317611653 1122.96526381012  708.317031404421 1122.18779456352  711.556760264377 1121.39803001379  L 711.319921047195 1120.42648115491  C 708.082649743968 1121.21564661401  704.842395772132 1121.99252609683  701.599229104133 1122.75710282687  L 701.82868891149 1123.73042096438  Z M 689.156238279759 1126.65204626892  C 692.40925730284 1125.91894438985  695.659483019018 1125.17350226202  698.906845240295 1124.41573598311  L 698.679601851909 1123.44189798712  C 695.43470297773 1124.1990894483  692.186942780914 1124.9439661071  688.936391396004 1125.67651187808  L 689.156238279759 1126.65204626892  Z M 676.455582532436 1129.4485160116  C 679.715675294488 1128.74754075323  682.97309662161 1128.03419829071  686.22777617078 1127.30850402847  L 686.010150726535 1126.33247166937  C 682.757940075218 1127.05761544269  679.502989725703 1127.770416786  676.245369967798 1128.47086030653  L 676.455582532436 1129.4485160116  Z M 663.72795769834 1132.11955803977  C 666.994806926757 1131.45077762109  670.259106852565 1130.76960424638  673.520786983837 1130.07605262545  L 673.312800663058 1129.09792089078  C 670.053594740001 1129.79094640521  666.79177100981 1130.47160306315  663.527399910723 1131.13987616599  L 663.72795769834 1132.11955803977  Z M 650.974602430926 1134.66491240742  C 654.247890195805 1134.02839191416  657.518751038129 1133.37945391915  660.787114324656 1132.71811243601  L 660.588787368588 1131.73797651763  C 657.322903359969 1132.39881632786  654.054523690045 1133.04726205887  650.78371893863 1133.68329970764  L 650.974602430926 1134.66491240742  Z M 638.196757887735 1137.08433140044  C 641.47616563239 1136.48013277885  644.753269070917 1135.86349331822  648.027997435266 1135.23442633468  L 647.839349145104 1134.2523816195  C 644.567104887074 1134.88097141253  641.292487356263 1135.49714310984  638.015567267556 1136.10088340529  L 638.196757887735 1137.08433140044  Z M 625.395667609607 1139.3775795608  C 628.680876181819 1138.80576161153  631.963903288583 1138.22148069667  635.244678033929 1137.62474943359  L 635.065726768941 1136.64089149428  C 631.787440716508 1137.23717009572  628.506904010968 1137.82100779343  625.224187495031 1138.39239197952  L 625.395667609607 1139.3775795608  Z M 612.572577399659 1141.5444337094  C 615.863267082609 1141.00505208183  619.151898353275 1140.45318657499  622.438400194301 1139.88884910631  L 622.269163370037 1138.90327369199  C 618.985154566258 1139.46718307197  615.699017948081 1140.01862995095  612.410824479144 1140.55760242052  L 612.572577399659 1141.5444337094  Z M 599.728735202043 1143.58468296782  C 603.024585745673 1143.0777901546  606.318501130142 1142.55839376342  609.610410224351 1142.02650501048  L 609.450904310952 1141.03930803743  C 606.161492355824 1141.57079331623  602.870075632085 1142.08979570963  599.576725217396 1142.59630400985  L 599.728735202043 1143.58468296782  Z M 586.865390980496 1145.49812877885  C 590.166081632248 1145.02377411084  593.464960566659 1144.53689738297  596.761956545076 1144.03750910926  L 596.612197065671 1143.04878665157  C 593.317702085024 1143.547796105  590.021325576659 1144.03430350347  586.723138725341 1144.5082983409  L 586.865390980496 1145.49812877885  Z M 573.981699915166 1147.27772835268  C 576.901860951032 1146.89436176523  579.820131870016 1146.49673285332  582.736408219943 1146.08485584908  C 583.122392775754 1146.03063030859  583.508353263795 1145.97623358402  583.894289569004 1145.92166569156  L 583.754291098196 1144.93151397179  C 583.368526572937 1144.98605757612  582.982737867153 1145.0404300352  582.596925097686 1145.09463133259  C 579.683752532381 1145.50607118268  576.768587432862 1145.90327751355  573.851534148945 1146.28623610697  L 573.981699915166 1147.27772835268  Z M 561.073440312024 1148.8780217971  C 564.386152614421 1148.49149755073  567.696701453174 1148.08665145428  571.004934880026 1147.66350208945  L 570.878060576685 1146.67158328675  C 567.573485123342 1147.09426476768  564.266596818174 1147.49866321849  560.957547441659 1147.88476007802  L 561.073440312024 1148.8780217971  Z M 548.143500638703 1150.29250584955  C 551.461429240149 1149.95366431286  554.777458102803 1149.59647170651  558.091435026702 1149.22094442501  L 557.978839413457 1148.22730353018  C 554.668526813694 1148.60241558438  551.35616454411 1148.95921323641  548.04190463624 1149.2976801099  L 548.143500638703 1150.29250584955  Z M 535.194555409161 1151.52088792883  C 538.517014007494 1151.22979919004  541.837836984657 1150.92033395786  545.15687192083 1150.59250643622  L 545.058578287701 1149.59734898049  C 541.743213268429 1149.92481401732  538.426062185213 1150.2339370682  535.107277289388 1150.52470394492  L 535.194555409161 1151.52088792883  Z M 522.229283068592 1152.56291394829  C 525.555584424541 1152.31963821811  528.880514615358 1152.05796437194  532.20392103271 1151.77790442015  L 532.119949711399 1150.78143624846  C 528.800218044575 1151.0611865329  525.478964289125 1151.32257104157  522.156340884689 1151.56557777738  L 522.229283068592 1152.56291394829  Z M 509.250365439394 1153.41836836841  C 512.579821518829 1153.22295596758  515.908171172885 1153.00912763376  519.235261636092 1152.77689318129  L 519.16562999578 1151.77932040967  C 515.842218356585 1152.01129807632  512.517548918922 1152.22488997628  509.191774279205 1152.42008630609  L 509.250365439394 1153.41836836841  Z M 496.260487166451 1154.08707424133  C 499.592409282759 1153.93956559026  502.923489942206 1153.77362699845  506.253576253976 1153.58926608219  L 506.198298697732 1152.59079505519  C 502.871894522538 1152.77495212025  499.544497099205 1152.94070723076  496.216259149356 1153.08805277885  L 496.260487166451 1154.08707424133  Z M 483.262335161816 1154.56889324755  C 486.596034118293 1154.46931885789  489.929156760387 1154.35130433193  493.261550103745 1154.21485508631  L 493.220638065542 1153.21569233424  C 489.891929409749 1153.35199070546  486.562492261501 1153.46987474063  483.23247943623 1153.56933902909  L 483.262335161816 1154.56889324755  Z M 470.258598048934 1154.86372572443  C 473.59338428128 1154.81210619282  476.927859461024 1154.7420401436  480.261870541732 1154.65353079268  L 480.235332484086 1153.65388298895  C 476.905007879704 1153.74229447348  473.574219689333 1153.81228304941  470.243120790412 1153.86384550437  L 470.258598048934 1154.86372572443  Z M 457.251375384799 1154.97060833613  C 458.533126005499 1154.97071798852  459.814873939823 1154.9668906979  461.096601049315 1154.95912651844  C 463.150198136141 1154.94814644958  465.2037518676 1154.93017166008  467.257226507355 1154.90520246273  L 467.245067919573 1153.90527638109  C 465.193745367777 1153.93021941016  463.142343803063 1153.9481749581  461.090898928207 1153.95914271242  C 459.811101022613 1153.96689593331  458.531282319544 1153.97071782713  457.251460933721 1153.97060833979  L 457.251375384799 1154.97060833613  Z M 444.241931240054 1154.83428940138  C 447.577220562494 1154.90390901035  450.913013155205 1154.94686422271  454.248989248915 1154.96315092077  L 454.253871329453 1153.9631628382  C 450.923224701736 1153.94690215933  447.592761281855 1153.90401557107  444.262800328241 1153.83450718451  L 444.241931240054 1154.83428940138  Z M 431.238130346781 1154.42761737715  C 434.571252298669 1154.56654112666  437.90543159315 1154.67881669885  441.240348615601 1154.76443333098  L 441.266012951735 1153.7647627143  C 437.936423703332 1153.67928286101  434.607571004319 1153.56718665726  431.279773958723 1153.42848484861  L 431.238130346781 1154.42761737715  Z M 418.245590385094 1153.75076794695  C 421.575105047973 1153.95893582153  424.906230668992 1154.14048325017  428.238647926253 1154.29539282974  L 428.285083430913 1153.2964715396  C 424.957989954128 1153.14180943942  421.632186050141 1152.96055204608  418.30799053063 1152.75271673492  L 418.245590385094 1153.75076794695  Z M 405.269924170354 1152.80403351171  C 408.594393184143 1153.08135558223  411.921026075633 1153.33209643831  415.249503953693 1153.55623204393  L 415.316690566606 1152.55849161724  C 411.993530175621 1152.33471408466  408.672211823606 1152.08437380545  405.353053892439 1151.80749477724  L 405.269924170354 1152.80403351171  Z M 392.316737228414 1151.5878230635  C 395.634724412719 1151.93417952601  398.955427459579 1152.25400548874  402.278528046203 1152.54727029316  L 402.366436742555 1151.55114175672  C 399.048645052358 1151.25834546429  395.733247071675 1150.93903044695  392.420560614763 1150.59322731424  L 392.316737228414 1151.5878230635  Z M 379.391625374013 1150.10266200879  C 382.701697348658 1150.51790323628  386.015035997403 1150.9066761399  389.331323703409 1151.26894345187  L 389.439916506385 1150.27485713613  C 386.128926812746 1149.91316857271  382.820881464982 1149.52501676225  379.516097572619 1149.11043891302  L 379.391625374013 1150.10266200879  Z M 366.500172293374 1148.34919194151  C 369.800899097574 1148.83313854855  373.105441976161 1149.29069044203  376.413484155553 1149.72180376102  L 376.542714152744 1148.73018911418  C 373.239956812872 1148.29976453028  369.94069318341 1147.84294360943  366.645239531881 1147.35977014252  L 366.500172293374 1148.34919194151  Z M 353.647947132025 1146.32817036587  C 356.937902842093 1146.88061328611  360.232222378371 1147.4067465057  363.530589947195 1147.90651958947  L 363.680401310864 1146.91780499197  C 360.387303125646 1146.41883033227  357.098246505985 1145.89353764902  353.813546740963 1145.34197729678  L 353.647947132025 1146.32817036587  Z M 340.845408367214 1143.99325939713  C 344.119399303893 1144.63882755348  347.400387345916 1145.24838893234  350.687777909971 1145.82183306852  L 350.859620533502 1144.83670865366  C 347.579448874688 1144.26452376515  344.305665678394 1143.65630094517  341.038864222208 1143.01215041635  L 340.845408367214 1143.99325939713  Z M 328.114683818978 1141.29347223192  C 331.368890952263 1142.03233002042  334.631121215838 1142.73539567447  337.900783425694 1143.40254178395  L 338.100705493947 1142.42272998231  C 334.838223258977 1141.7570488842  331.5831566502 1141.05552711861  328.336095553414 1140.31829181586  L 328.114683818978 1141.29347223192  Z M 315.466303283079 1138.23101111712  C 318.698068970098 1139.06255512808  321.938877260032 1139.85855087831  325.188140850979 1140.61885411683  L 325.415979091784 1139.6451551202  C 322.173850681624 1138.88652146032  318.940159005167 1138.09227366726  315.715490074626 1137.26255567524  L 315.466303283079 1138.23101111712  Z M 302.910596427236 1134.80837710066  C 306.117281352576 1135.73192822948  309.334020968552 1136.62020400282  312.560232335006 1137.47304344663  L 312.815800677639 1136.50625245461  C 309.596673870721 1135.65528579319  306.38699801491 1134.76896061821  303.187354770255 1133.84743755024  L 302.910596427236 1134.80837710066  Z M 290.457817234508 1131.02836537612  C 293.636802565691 1132.04316937792  296.826846463775 1133.02299973813  300.027370826421 1133.9676788911  L 300.310460553565 1133.00858546167  C 297.116964343384 1132.06598076537  293.933925583344 1131.0883020517  290.761921106252 1130.07572649638  L 290.457817234508 1131.02836537612  Z M 278.11813562909 1126.89406299997  C 281.266825155309 1127.99929110555  284.427568093415 1129.06987584569  287.59979165097 1130.10562320813  L 287.910171569168 1129.15501061281  C 284.744914017263 1128.12153768717  281.591111874129 1127.05330388455  278.449336674291 1125.95050279115  L 278.11813562909 1126.89406299997  Z M 265.901629170743 1122.40884637045  C 269.017451423161 1123.60359596316  272.146312088641 1124.76406075906  275.287644152518 1125.89003045776  L 275.625060780986 1124.94867504198  C 272.490626886981 1123.82517790271  269.368637004942 1122.66726141534  266.259656904437 1121.47513541844  L 265.901629170743 1122.40884637045  Z M 253.823148767108 1117.5587637495  C 255.899164046894 1118.43435141057  257.983127262958 1119.29097380717  260.074778049196 1120.12852391466  C 261.082085847674 1120.53073305339  262.090827403839 1120.92934210123  263.100983404298 1121.32434342641  L 263.465161181935 1120.39301397542  C 262.457375225419 1119.99893940859  261.451000181522 1119.60126612544  260.446055312666 1119.20000173761  C 258.360205328917 1118.36477121495  256.282021065418 1117.51052267474  254.211762128605 1116.63736282956  L 253.823148767108 1117.5587637495  Z M 241.920119814651 1112.29020083915  C 244.948165723809 1113.69464183372  247.995062336145 1115.05807717876  251.059974219841 1116.38013303249  L 251.45604941865 1115.46191495551  C 248.399414201335 1114.14342925833  245.360745605865 1112.78367581342  242.340876808064 1111.38302745303  L 241.920119814651 1112.29020083915  Z M 230.209614636152 1106.6065469222  C 233.186429025887 1108.11654447988  236.183523664529 1109.58622425231  239.200076775475 1111.01518326642  L 239.628179131367 1110.11145301193  C 236.619772095944 1108.68635284188  233.630770986047 1107.22064187822  230.661995359081 1105.71472200579  L 230.209614636152 1106.6065469222  Z M 218.706103150943 1100.51482492485  C 221.628007762864 1102.12851323863  224.571597110379 1103.70262144951  227.536064087601 1105.23671795109  L 227.995664621982 1104.34859220053  C 225.039203063872 1102.81863846241  222.103562756273 1101.24878106491  219.189548625576 1099.63945044895  L 218.706103150943 1100.51482492485  Z M 207.423799509541 1094.02256199683  C 210.287183933723 1095.73794713566  213.173630785774 1097.41453876056  216.082348627765 1099.05187716506  L 216.572879441765 1098.18045331841  C 213.672016470677 1096.5475364778  210.793364347625 1094.87547241847  207.937712373346 1093.16471960547  L 207.423799509541 1094.02256199683  Z M 196.376644530132 1087.13778021058  C 199.177970666298 1088.9527425832  202.003708425843 1090.72974596548  204.853083016731 1092.46830311899  L 205.37393799292 1091.61465793873  C 202.53225801896 1089.88079568611  199.714151046061 1088.10859102715  196.920389773981 1086.29852988452  L 196.376644530132 1087.13778021058  Z M 185.5782884728 1079.86898664889  C 188.314094902112 1081.78128362283  191.07563198644 1083.65650303352  193.862142536998 1085.49413071258  L 194.412678088325 1084.65931899325  C 191.633692392983 1082.8266537509  188.879612724063 1080.9564982918  186.151194225608 1079.04936539587  L 185.5782884728 1079.86898664889  Z M 1201.17616480759 939.733227840709  C 1204.19093487739 938.310100031489  1207.20377170092 936.882880408978  1210.21466695019 935.45157291825  L 1209.78533304981 934.54842708175  C 1206.77525513113 935.979346033093  1203.76323616559 937.406178225738  1200.74928447823 938.828919716009  L 1201.17616480759 939.733227840709  Z M 189.556542647834 1074.42660306477  L 181 1076  L 182.154381898971 1084.62307383891  L 189.556542647834 1074.42660306477  Z " fill-rule="nonzero" fill="#02a7f0" stroke="none" />
  </g>
</svg>