<?xml version="1.0" encoding="utf-8"?>
<svg version="1.1" xmlns:xlink="http://www.w3.org/1999/xlink" width="310px" height="62px" viewBox="230 1114  310 62" xmlns="http://www.w3.org/2000/svg">
  <g transform="matrix(-0.956304755963036 0.292371704722737 -0.292371704722736 -0.956304755963037 1087.9429329533 2127.40583925942 )">
    <path d="M 1227.99455533506 942.384132647427  C 1231.06936946784 941.096358671016  1234.14317975443 939.806189124284  1237.21598339612 938.51362518193  L 1236.82824444403 937.591855956457  C 1233.75591960518 938.884218492093  1230.68258827738 940.174187005586  1227.60825326072 941.461760321648  L 1227.99455533506 942.384132647427  Z M 1215.99770189543 947.394300938555  C 1219.07511850315 946.11275859124  1222.15153611972 944.828818644918  1225.22695194403 943.542482268616  L 1224.84108111611 942.619929449449  C 1221.76614450166 943.906065389408  1218.69020625016 945.189805273184  1215.61326916407 946.47114793116  L 1215.99770189543 947.394300938555  Z M 1203.99072342795 952.380155613434  C 1207.07072987936 951.104850155304  1210.14974220423 949.827145077039  1213.22775758812 948.547041546558  L 1212.84375646794 947.623708919767  C 1209.76622069715 948.903612985868  1206.68768814531 950.181118971577  1203.60816161726 951.456225712957  L 1203.99072342795 952.380155613434  Z M 1191.97366920816 957.341676210579  C 1195.05625286685 956.072612873849  1198.13784725671 954.801147910271  1201.21844957196 953.52728247751  L 1200.83631973542 952.603173832367  C 1197.75619743821 953.876840772003  1194.67508322005 955.148107616877  1191.59297988812 956.416973208741  L 1191.97366920816 957.341676210579  Z M 1179.94658855292 962.278842368371  C 1183.03173676643 961.01602636192  1186.11590057837 959.750806729478  1189.19907718063 958.483184623026  L 1188.81882019596 957.558303751987  C 1185.73612401287 958.825728338146  1182.65244077298 960.090750825026  1179.56777328585 961.353370060069  L 1179.94658855292 962.278842368371  Z M 1167.90953082024 967.19163382514  C 1170.99723092741 965.935070331447  1174.08395150432 964.676101222486  1177.16968974052 963.414727644545  L 1176.79130716827 962.489078343235  C 1173.70604975038 963.750255374526  1170.61981014392 965.009028311877  1167.53259116077 966.265396008425  L 1167.90953082024 967.19163382514  Z M 1155.86254540911 972.080030419247  C 1158.9527847383 970.829724595132  1162.04204941255 969.577011176343  1165.13033661911 968.321891303473  L 1164.75383001212 967.395477370671  C 1161.66602402105 968.65040167134  1158.57724071367 969.902919893276  1155.48748290415 971.153030895313  L 1155.86254540911 972.080030419247  Z M 1143.80568175922 976.944012089167  C 1146.89844762837 975.699969065768  1149.99024372192 974.453516478172  1153.0810672248 973.204655461269  L 1152.70643812821 972.27748069889  C 1149.61609623603 973.526147118844  1146.5247819038 974.772405485146  1143.432497948 976.016254662334  L 1143.80568175922 976.944012089167  Z M 1131.73898935082 981.783558873573  C 1134.83426906751 980.545783756327  1137.92858389192 979.305597115246  1141.02193100666 978.063000079519  L 1140.64918095792 977.135068292604  C 1137.55631584711 978.377471707432  1134.46248317648 979.617465103574  1131.36768576485 980.855047351271  L 1131.73898935082 981.783558873573  Z M 1119.66251770449 986.598650911411  C 1122.76029856599 985.367148780033  1125.85711942247 984.13323317508  1128.95297745426 982.896905220032  L 1128.58210798311 981.968220216726  C 1125.48673234648 983.204355527721  1122.39039403428 984.438078864882  1119.29309586757 985.669389104165  L 1119.66251770449 986.598650911411  Z M 1107.57631638095 991.389268441996  C 1110.67658567425 990.164044350454  1113.77589985373 988.936404845505  1116.87425609747 987.70635104491  L 1116.50526872591 986.77691663645  C 1113.40739526662 988.006778770627  1110.30856401992 989.234226985722  1107.20877780915 990.45926016341  L 1107.57631638095 991.389268441996  Z M 1095.48043498085 996.155391805076  C 1098.58317998274 994.936450781578  1101.68497476592 993.715092414749  1104.78581650624 992.491317816635  L 1104.41871274856 991.561137817333  C 1101.31835417998 992.784721727453  1098.2170427161 994.005889783148  1095.11478118252 995.224640871818  L 1095.48043498085 996.155391805076  Z M 1083.37492314456 1000.89700144093  C 1086.48013112165 999.684348487892  1089.58439377907 998.469276271525  1092.68770829039 997.251785898148  L 1092.32248965317 996.320864125376  C 1089.21965869888 997.538164789963  1086.11587974531 998.753047674701  1083.0111556203 999.965511672711  L 1083.37492314456 1000.89700144093  Z M 1071.25983055197 1005.61407789042  C 1074.36748876078 1004.40771798446  1077.47420655283 1003.1989369051  1080.57998109945 1001.98773575293  L 1080.21664908149 1001.0560760271  C 1077.11135847523 1002.26708845047  1074.00512476959 1003.47568117848  1070.89795079465 1004.68185310999  L 1071.25983055197 1005.61407789042  Z M 1059.1352069223 1010.30660179512  C 1062.24530260929 1009.10653988703  1065.35446278628 1007.9040549054  1068.46268462239 1006.69914794509  L 1068.10124071478 1005.76675408965  C 1064.99350320036 1006.97147330192  1061.88482749035 1008.17377091325  1058.77521641704 1009.37364582825  L 1059.1352069223 1010.30660179512  Z M 1047.00110201387 1014.97455389733  C 1050.11362241549 1013.78079491205  1053.22521221773 1012.58461096304  1056.33586858747 1011.38600313942  L 1055.97631427354 1010.45287898083  C 1052.86614260484 1011.65130003794  1049.75503764816 1012.84729759848  1046.64300223804 1014.04087057278  L 1047.00110201387 1014.97455389733  Z M 1034.85756562392 1019.61791504023  C 1037.97249796483 1018.43046387754  1041.08650462634 1017.24058586876  1044.19958276201 1016.0482821015  L 1043.84191951734 1015.11443146922  C 1040.72932645822 1016.30654945296  1037.61580502257 1017.49624205444  1034.50135804712 1018.68350818974  L 1034.85756562392 1019.61791504023  Z M 1022.70462990595 1024.23711156646  C 1025.59626403566 1023.14265085421  1028.48667320869 1022.044956459  1031.37585200087 1020.94403044077  C 1031.60186516548 1020.85802163968  1031.82787351177 1020.77200004759  1032.05387695222 1020.68596569779  L 1031.69810624462 1019.75139242425  C 1031.47206947948 1019.83743946  1031.24602782379 1019.92347372563  1031.0199813301 1020.00949520115  C 1028.13143080855 1021.11018199142  1025.24165014513 1022.20763778447  1022.35064476152 1023.30186052128  L 1022.70462990595 1024.23711156646  Z M 1010.53770500353 1028.82040320658  C 1013.65926951026 1027.65009179425  1016.77942158883 1026.47601647119  1019.89815443169 1025.29817979899  L 1019.54484607874 1024.36267287345  C 1016.42686532955 1025.54022550609  1013.30746568625 1026.7140176969  1010.18665395606 1027.88404688441  L 1010.53770500353 1028.82040320658  Z M 998.356469595005 1033.36552452083  C 1001.48168811634 1032.20500611712  1004.60550601772 1031.04071939269  1007.72791648358 1029.8726668878  L 1007.37754302654 1028.93605680852  C 1004.25588554123 1030.10382763334  1001.13282095914 1031.26783358607  998.008356095518 1032.42807212659  L 998.356469595005 1033.36552452083  Z M 986.161043428752 1037.87243082813  C 989.289885242049 1036.72171684159  992.417338257349 1035.56723016139  995.54339565115 1034.4089733064  L 995.195960534391 1033.47126928079  C 992.070657000599 1034.62924681796  988.943958181219 1035.78345508978  985.815870899403 1036.9338915775  L 986.161043428752 1037.87243082813  Z M 973.95154639267 1042.34107782305  C 977.083980739652 1041.20017956584  980.21503812425 1040.05550427912  983.344711715098 1038.90705446036  L 983.000218354099 1037.96826570657  C 979.871299495319 1039.11643857252  976.740997175848 1040.26083781691  973.6093182267 1041.4014609424  L 973.95154639267 1042.34107782305  Z M 961.72809851298 1046.77142157628  C 964.864094600056 1045.64035026407  967.998725573897 1044.50549762364  971.13198459534 1043.366866131  L 970.790436376666 1042.42700187787  C 967.65793295193 1043.56535878541  964.524057904999 1044.69993775228  961.388818074683 1045.83073630257  L 961.72809851298 1046.77142157628  Z M 949.490819953044 1051.16341853506  C 952.630346951611 1050.04218528691  955.76852069951 1048.917166449  958.905334349851 1047.78836447589  L 958.566734631112 1046.84743396279  C 955.43067743469 1047.97596372124  952.293260468053 1049.10071125704  949.154490577738 1050.22167411574  L 949.490819953044 1051.16341853506  Z M 937.239831012192 1055.51702552357  C 940.382858058933 1054.40564136185  943.524543730879 1053.29046738602  946.664881173476 1052.17150602919  L 946.329233283298 1051.22951850601  C 943.189653144395 1052.34821002128  940.048725100623 1053.46311506912  936.906456006184 1054.57423121654  L 937.239831012192 1055.51702552357  Z M 924.975252124531 1059.83219974342  C 928.121748321724 1058.73067559365  931.266915033181 1057.6253574427  934.410745396751 1056.51624770216  L 934.078052634742 1055.57321242917  C 930.934980416258 1056.68205470423  927.790572174315 1057.78710630329  924.644834765084 1058.88836481687  L 924.975252124531 1059.83219974342  Z M 912.697203857767 1064.10889877401  C 915.847138273586 1063.0172454648  918.995755105795 1061.92179400463  922.14304748472 1060.82254678356  L 921.813313121435 1059.87847303132  C 918.666779723412 1060.97745516496  915.51892219085 1062.07264245329  912.36974739307 1063.16403250637  L 912.697203857767 1064.10889877401  Z M 900.405806912017 1068.347080573  C 903.559148580834 1067.26530883591  906.711184581123 1066.17973483542  909.861908035748 1065.09036094004  L 909.535135312663 1064.14525798932  C 906.385171666356 1065.23436917827  903.233895790258 1066.3196813889  900.08131456115 1067.40119225284  L 900.405806912017 1068.347080573  Z M 888.101182118621 1072.54670347668  C 891.257900041316 1071.47482394613  894.4133242234 1070.39913807712  897.567447780342 1069.31964821658  L 897.243639909815 1068.37352535829  C 894.090276981138 1069.45275489596  890.935613740317 1070.52818135967  887.779657071527 1071.5998024026  L 888.101182118621 1072.54670347668  Z M 875.783450438959 1076.70772620038  C 878.943513583221 1075.64574941356  882.102294927505 1074.57996225063  885.259787579957 1073.51036703692  L 884.938947745203 1072.56323357197  C 881.782216532544 1073.63257084925  878.624196940996 1074.69810099335  875.464895856411 1075.75982168096  L 875.783450438959 1076.70772620038  Z M 863.452732963259 1080.83010783892  C 866.616110263889 1079.77804423565  869.778217717777 1078.72216625608  872.939048425812 1077.66247620394  L 872.621179780866 1076.71434144318  C 869.46111131855 1077.77377594725  866.299766417618 1078.82939929825  863.137151976826 1079.88120919259  L 863.452732963259 1080.83010783892  Z M 851.109150909404 1084.91380786697  C 854.275811268626 1083.87166778963  857.441213746825 1082.8257093733  860.605351437698 1081.77593490006  L 860.290457107388 1080.8268081642  C 857.127082459723 1081.87632948053  853.962443329088 1082.92203566043  850.796546621426 1083.96392442194  L 851.109150909404 1084.91380786697  Z M 838.753386459327 1088.95957125537  C 839.179012923003 1088.82070333336  839.60460220574 1088.68172147158  840.030154257633 1088.54262568632  C 842.773978104339 1087.64818164413  845.516867466724 1086.75087348917  848.258817862792 1085.85070268768  L 847.946900942705 1084.90059330716  C 845.205486539509 1085.80058814444  842.46313330797 1086.6977207649  839.719845735056 1087.59198970066  C 839.294338059445 1087.73107105537  838.8687931464 1087.87003846476  838.443211044831 1088.00889191287  L 838.753386459327 1088.95957125537  Z M 826.381694465123 1092.96060199376  C 829.556575865829 1091.94291977893  832.729425323659 1090.91890932887  835.900223925151 1089.88857674774  L 835.591185861085 1088.93752707766  C 832.421651228681 1089.96744893938  829.250066557367 1090.99105119024  826.076450753267 1092.00832772845  L 826.381694465123 1092.96060199376  Z M 813.989430619407 1096.8974543592  C 817.169544196195 1095.89624177636  820.347658658454 1094.88869051118  823.523755059917 1093.87480657014  L 823.219650602684 1092.9221678773  C 820.044820281924 1093.93564765589  816.867972705433 1094.94279728282  813.689126810706 1095.94361075436  L 813.989430619407 1096.8974543592  Z M 801.576927846169 1100.77002258627  C 804.76218816403 1099.78530653342  807.945482248707 1098.7942415216  811.126791123055 1097.79683345903  L 810.827628442566 1096.84263133652  C 807.647587726758 1097.83964180439  804.465562592591 1098.83031174983  801.281572008426 1099.81463526738  L 801.576927846169 1100.77002258627  Z M 789.144519613125 1104.57820263664  C 792.334841098782 1103.61000956855  795.523229284713 1102.63545743566  798.709665164826 1101.65455204733  L 798.415452298226 1100.69881213023  C 795.230286620657 1101.67932650222  792.043169415414 1102.65349015137  788.854119681213 1103.6212972706  L 789.144519613125 1104.57820263664  Z M 776.692539922762 1108.32189220174  C 779.887836866493 1107.37024812945  783.081233496605 1106.41223505715  786.27271077715 1105.44785869561  L 785.983455628605 1104.49060666033  C 782.793250560248 1105.45459859446  779.60112690733 1106.41222977595  776.407103698412 1107.36349449628  L 776.692539922762 1108.32189220174  Z M 764.221323303363 1112.00099070559  C 767.421509861777 1111.06592119554  770.619829144445 1110.12447292117  773.816262084648 1109.17665149491  L 773.531972425134 1108.21791305847  C 770.336813672584 1109.16535665658  767.139769329417 1110.10642964334  763.940858454953 1111.04112640851  L 764.221323303363 1112.00099070559  Z M 751.731204800023 1115.6153993075  C 754.936194998842 1114.69692948069  758.139351009241 1113.77207129683  761.340653735666 1112.84083026946  L 761.061337202759 1111.88063118883  C 757.861310604981 1112.81150099753  754.659431462614 1113.73599050691  751.455718862372 1114.65409420601  L 751.731204800023 1115.6153993075  Z M 739.222519965639 1119.16502090467  C 742.432227701296 1118.26317543623  745.640134385136 1117.35493218964  748.846220893283 1116.44029657937  L 748.571884990951 1115.47866265074  C 745.36707651864 1116.39293366165  742.160448596107 1117.30081485708  738.952020339808 1118.20230082468  L 739.222519965639 1119.16502090467  Z M 726.695604851907 1122.64976013485  C 729.909943894096 1121.76456325328  733.122515069456 1120.87295934433  736.333299226304 1119.97495372329  L 736.063951324712 1119.01191078141  C 732.854447076313 1119.90955843227  729.643156521657 1120.80080692297  726.430098804994 1121.68565094029  L 726.695604851907 1122.64976013485  Z M 714.150796000284 1126.06952337889  C 717.369679994517 1125.20099886536  720.586829353684 1124.32605824754  723.802224900249 1123.44470674101  L 723.537872235554 1122.48028065847  C 720.323758435668 1123.36128083363  717.107891522196 1124.23587267565  713.890290665235 1125.104050971  L 714.150796000284 1126.06952337889  Z M 701.588430432953 1129.42421876325  C 704.81177290192 1128.57238995119  708.033414015625 1127.71413612994  711.253334568315 1126.84946241596  L 710.993984242476 1125.88367910254  C 707.775347240018 1126.74800813344  704.554990363028 1127.60591983058  701.332932808365 1128.45740907989  L 701.588430432953 1129.42421876325  Z M 689.008845643766 1132.71375616244  C 692.236559991097 1131.87864593659  695.462606307958 1131.03710196942  698.686965362336 1130.1891292778  L 698.43262434292 1129.22201467971  C 695.209550608086 1130.06964934574  691.984790283977 1130.91085784982  688.758362593704 1131.74563517742  L 689.008845643766 1132.71375616244  Z M 676.412379589178 1135.93804720151  C 679.64437910081 1135.11967799749  682.874743951578 1134.29486649288  686.103454883722 1133.4636176048  L 685.854130003721 1132.49519770403  C 682.6267061259 1133.3261152331  679.397628989374 1134.15059794465  676.166917842985 1134.96864092386  L 676.412379589178 1135.93804720151  Z M 663.797380459529 1139.09347147893  C 667.035847127058 1138.29884325496  670.271455593235 1137.49261150833  673.504143522649 1136.67479177143  L 673.258885759997 1135.70533386628  C 670.028514070897 1136.52256763042  666.795223937497 1137.3282217072  663.559077650782 1138.12228057527  L 663.797380459529 1139.09347147893  Z M 651.153118512904 1142.13363114609  C 654.398848765746 1141.36921274207  657.641829060581 1140.59316468698  660.881996919615 1139.8055019318  L 660.645783000645 1138.83380085406  C 657.407936741279 1139.62089924416  654.1672800613 1140.39639125616  650.923875393614 1141.16026194981  L 651.153118512904 1142.13363114609  Z M 638.481077929509 1145.05584236869  C 641.733789963969 1144.32170015364  644.983860522164 1143.57590316892  648.231226990066 1142.81846578262  L 648.004077423563 1141.84460589822  C 644.759037713235 1142.60150057609  641.511295849991 1143.34676319282  638.260914403236 1144.08037939056  L 638.481077929509 1145.05584236869  Z M 625.78235893306 1147.85985143178  C 629.041770339081 1147.15604914611  632.298648980103 1146.440567984  635.552932110936 1145.71342172952  L 635.33486661869 1144.73748759184  C 632.082915201262 1145.46411284166  628.828370133224 1146.17908135724  625.571294115048 1146.88237936435  L 625.78235893306 1147.85985143178  Z M 613.05806406357 1150.54541488308  C 616.323891849438 1149.87201363296  619.587295801656 1149.18691041362  622.848213048957 1148.49011842395  L 622.639250564054 1147.51219476645  C 619.380669783482 1148.20848750049  616.119604079794 1148.89309983926  612.856116279084 1149.56601859335  L 613.05806406357 1150.54541488308  Z M 600.309298081625 1153.1122995541  C 603.581258698719 1152.46935780619  606.850904623591 1151.81469201233  610.118172865085 1151.14831478497  L 609.918331530261 1150.16848651384  C 606.653404306082 1150.83438627792  603.386101102029 1151.48858299983  600.116484864365 1152.13106407612  L 600.309298081625 1153.1122995541  Z M 587.537167872465 1155.56028258038  C 590.814977239449 1154.94785615678  594.090581256973 1154.32368462837  597.363916818731 1153.68778002016  L 597.173213984796 1152.70613220697  C 593.902223787564 1153.34158118573  590.628966759989 1153.96530549149  587.353505963039 1154.57729310789  L 587.537167872465 1155.56028258038  Z M 574.74278234988 1157.88915142086  C 578.026155877857 1157.30729349421  581.307433590245 1156.71367042369  584.586552271798 1156.10829364571  L 584.405004496132 1155.12491152001  C 581.128235322806 1155.72985454189  577.849308665481 1156.32305227794  574.568287694354 1156.90449329989  L 574.74278234988 1157.88915142086  Z M 561.927252359932 1160.09870387632  C 565.215904976725 1159.54746496524  568.502571493948 1158.98444189268  571.787188592538 1158.40964550553  L 571.61481163765 1157.42461444743  C 568.332547986936 1157.99899898952  565.048236385887 1158.56161865268  561.761940108443 1159.11246259778  L 561.927252359932 1160.09870387632  Z M 549.091690584507 1162.18874810694  C 552.385336759592 1161.66817607162  555.67710672375 1161.13580188031  558.966937059229 1160.59163578951  L 558.803745891392 1159.6050413223  C 555.516272739043 1160.14881751484  552.226861347832 1160.68081025683  548.935575089949 1161.20100929918  L 549.091690584507 1162.18874810694  Z M 536.234873053093 1164.15738511641  C 536.403035405941 1164.1331194353  536.571190404329 1164.10880280515  536.739338022395 1164.08443522969  C 539.870141887382 1163.61829523644  542.999350908677 1163.14150575116  546.126910763696 1162.65407505086  L 545.972919551646 1161.66600283355  C 542.848240737277 1162.15298452321  539.721914611453 1162.6293369781  536.593995424429 1163.09505193222  C 536.426688648415 1163.11929725967  536.259374558851 1163.1434920898  536.092053177817 1163.1676364194  L 536.234873053093 1164.15738511641  Z M 523.346636676807 1165.9155321083  C 526.654742167293 1165.49028437691  529.960289180941 1165.04536498193  533.263102323228 1164.5807975311  L 533.123815341477 1163.59054547394  C 529.824928641804 1164.05456063878  526.523311320772 1164.49895110573  523.219138564538 1164.92369329511  L 523.346636676807 1165.9155321083  Z M 510.432754662787 1167.47417544919  C 513.74704032079 1167.1001324752  517.059071994821 1166.70638062736  520.368673946278 1166.29294079842  L 520.244716088694 1165.30065331511  C 516.939048650508 1165.71360163947  513.63095437817 1166.10688538816  510.320608801512 1166.48048369327  L 510.432754662787 1167.47417544919  Z M 497.496315043164 1168.83294242848  C 500.815988340071 1168.51019365491  504.133712684949 1168.16770351012  507.449312036954 1167.80549016688  L 507.34071294496 1166.81140453817  C 504.029055236012 1167.17318727579  500.715275060437 1167.51527026224  497.399548249765 1167.83763534637  L 497.496315043164 1168.83294242848  Z M 484.540411244159 1169.991508131  C 487.864678363099 1169.72013073516  491.187302027903 1169.42898419138  494.508105937767 1169.11808394811  L 494.414891580123 1168.12243788472  C 491.098035500555 1168.4329685243  487.779361829513 1168.72376894792  484.459046657994 1168.99482372553  L 484.540411244159 1169.991508131  Z M 471.566439147493 1170.94365359481  C 473.528520143855 1170.81911636865  475.489955329085 1170.68460495007  477.450668661546 1170.54012455386  C 478.816745972659 1170.44022202069  480.182577231291 1170.33698295081  481.548150214722 1170.23040826809  L 481.470342881311 1169.23343985392  C 480.106301293418 1169.33989502051  478.742001702679 1169.44301809012  477.377456319783 1169.54280813979  C 475.420031121873 1169.68704718186  473.461885243637 1169.8213334964  471.50309460641 1169.94566187685  L 471.566439147493 1170.94365359481  Z M 458.573200088809 1171.62215124814  C 461.906631969718 1171.48554810233  465.238823345398 1171.32018984916  468.569402228051 1171.12609494832  L 468.511224308947 1170.12778871788  C 465.186387044591 1170.32154901658  461.859940067044 1170.486622207  458.532254722744 1170.62298986128  L 458.573200088809 1171.62215124814  Z M 445.568011884439 1172.00906218184  C 448.903669029349 1171.94725655252  452.238730908722 1171.85667522666  455.572825214405 1171.73732831626  L 455.537052224653 1170.73796837449  C 452.208705597555 1170.85710954156  448.879393064775 1170.94753471337  445.549486292644 1171.00923379534  L 445.568011884439 1172.00906218184  Z M 432.557417329691 1172.10419174442  C 435.893621598927 1172.11721472546  439.229876141883 1172.10145589758  442.56580851717 1172.05691701999  L 442.552458453845 1171.05700613606  C 439.22227692581 1171.10146823263  435.891773785491 1171.11719989371  432.561320832228 1171.10419936311  L 432.557417329691 1172.10419174442  Z M 419.546347296491 1171.9000283919  C 421.288200882236 1171.95219725624  423.030384064115 1171.99270966701  424.772779827236 1172.02156290316  C 426.366724971825 1172.04917978347  427.960777190912 1172.07022575366  429.554895851553 1172.08470027726  L 429.563975430954 1171.08474149749  C 427.972477135747 1171.07029076669  426.38104517874 1171.04927886458  424.789720132613 1171.02170632685  C 423.051657140969 1170.99292654875  421.313806207452 1170.95251573414  419.576284073255 1170.90047659765  L 419.546347296491 1171.9000283919  Z M 406.544419836258 1171.29366831167  C 409.875394070652 1171.5046791653  413.208935921168 1171.67299010074  416.544224097415 1171.79855965094  L 416.581846229289 1170.79926761395  C 413.255096301599 1170.67401951844  409.930088229047 1170.50613945449  406.607641199634 1170.295668783  L 406.544419836258 1171.29366831167  Z M 393.569911798223 1170.25447083332  C 396.892006820109 1170.57633974469  400.21809062911 1170.85561798522  403.547343772286 1171.09223674864  L 403.61823757024 1170.09475287939  C 400.29750722609 1169.85873985368  396.979938102682 1169.58017655798  393.666347555223 1169.25913162241  L 393.569911798223 1170.25447083332  Z M 380.637228431387 1168.78358975002  C 383.946755807581 1169.21595935669  387.261688713239 1169.60589482714  390.581210442689 1169.9533000923  L 390.685297195237 1168.95873187043  C 387.374273352646 1168.61221595346  384.067826586582 1168.22327870739  380.766771511971 1167.79201595535  L 380.637228431387 1168.78358975002  Z M 367.764972712235 1166.814239461  C 371.052933461515 1167.4007023704  374.35188069177 1167.92380762635  377.659980460909 1168.38326442555  L 377.797548390954 1167.39277209109  C 374.502161959873 1166.93508102751  371.215892893607 1166.41398611418  367.94056808624 1165.82977703681  L 367.764972712235 1166.814239461  Z M 355.004906954619 1164.20719886071  C 358.259405366717 1164.95744196705  361.528046630734 1165.64495649334  364.80901365224 1166.26936023833  L 364.995969054488 1165.28699183617  C 361.727611097348 1164.66498773341  358.471531528637 1163.98011538999  355.229540459552 1163.23275553836  L 355.004906954619 1164.20719886071  Z M 342.391268542824 1160.9649673997  C 345.604151706432 1161.87711125345  348.834298663388 1162.72731274323  352.07991371889 1163.51509922727  L 352.315788247496 1162.54331570881  C 349.08264639543 1161.75855676221  345.864913196553 1160.91162267659  342.664377444646 1160.00298427732  L 342.391268542824 1160.9649673997  Z M 329.97230747892 1157.01871635851  C 333.03068086224 1158.11281836476  336.118603352642 1159.12249241673  339.232563814501 1160.04659046015  C 339.323217383667 1160.0735701234  339.413885656496 1160.1005003569  339.504568592425 1160.1273811486  L 339.788771353228 1159.16861694884  C 339.698311608102 1159.14180231672  339.607866510133 1159.11493829603  339.517436100203 1159.08802489892  C 336.420948206419 1158.16911951217  333.350353048065 1157.16511485212  330.30914234092 1156.07715261891  L 329.97230747892 1157.01871635851  Z M 317.870102092466 1152.17940022636  C 320.926317321052 1153.5341037721  324.020313081789 1154.80191739815  327.148363027544 1155.98131417495  L 327.501158570106 1155.04561373937  C 324.390788081872 1153.87288280729  321.314279307453 1152.61223475005  318.275337533014 1151.26518786716  L 317.870102092466 1152.17940022636  Z M 306.156726228081 1146.46202777416  C 306.226578435956 1146.49943260958  306.29646473053 1146.53677375497  306.366385024212 1146.57405116354  C 309.246852945093 1148.10889721741  312.169239580163 1149.56374500092  315.130189860418 1150.93692426459  L 315.550911038967 1150.02973426799  C 312.60673058999 1148.66433223203  309.700894914648 1147.21772517631  306.836740001629 1145.69157385021  C 306.767389876803 1145.65460034317  306.698073457621 1145.61756364993  306.62879083057 1145.58046381671  L 306.156726228081 1146.46202777416  Z M 294.979549096685 1139.73652710307  C 297.75713106022 1141.60324518383  300.605560582875 1143.36232108143  303.518507674773 1145.00984564786  L 304.010808634932 1144.13942059961  C 301.12020519578 1142.50453330933  298.293624446248 1140.75895033822  295.537347822258 1138.90655084934  L 294.979549096685 1139.73652710307  Z M 284.530421245848 1131.92772597483  C 287.107552704049 1134.06267126789  289.765934060807 1136.09759321261  292.499657665278 1138.02796965557  L 293.076478306198 1137.21109882845  C 290.363723627352 1135.29552926647  287.725733286303 1133.27621611514  285.168369619471 1131.15764684085  L 284.530421245848 1131.92772597483  Z M 274.941678524758 1123.07788104174  C 276.611091163112 1124.80549917387  278.335291515479 1126.47932214971  280.111639228553 1128.09678676132  C 280.812136549242 1128.73216901002  281.519526913764 1129.35991013474  282.233684694364 1129.97989865291  L 282.889250100613 1129.22476025624  C 282.180812381437 1128.60973754885  281.479085573666 1127.98702695104  280.784194214086 1127.35673897643  C 279.023851296352 1125.7538199334  277.315179762412 1124.09505778223  275.660795481465 1122.382991984  L 274.941678524758 1123.07788104174  Z M 266.431270194635 1113.183876718  C 268.464425653255 1115.84475982572  270.61511067022 1118.41374772302  272.876929266778 1120.88320042922  L 273.614357989671 1120.20777546769  C 271.372598920018 1117.76022374555  269.240987812885 1115.21401958604  267.225863922617 1112.5767352127  L 266.431270194635 1113.183876718  Z M 259.124481102438 1102.37020926236  C 259.571524828919 1103.12315451127  260.026760662624 1103.87120565083  260.490107512569 1104.61422943098  C 261.803561068101 1106.7094776749  263.185587191554 1108.76094979081  264.633943584599 1110.7653173232  L 265.444477371412 1110.17962544137  C 264.009196063034 1108.19335240238  262.639635633601 1106.1604074096  261.338017444718 1104.08408780271  C 260.878729911215 1103.34755738379  260.427478869108 1102.60604589327  259.984344626899 1101.85968529691  L 259.124481102438 1102.37020926236  Z M 253.080315774813 1090.80679810004  C 254.468222404781 1093.8532437044  255.982449903111 1096.84054268455  257.619059121038 1099.76092380722  L 258.491412818215 1099.27204853988  C 256.868382206191 1096.37589721129  255.366717938119 1093.41338322876  253.990326480466 1090.39221334923  L 253.080315774813 1090.80679810004  Z M 249.085417397088 1080.89536403213  C 249.936004499456 1083.30918069899  250.863258172898 1085.69529300995  251.865768108009 1088.05007179996  L 252.785855662758 1087.65835903326  C 251.485397541951 1084.60373474184  250.31276814998 1081.49625586343  249.271017993868 1078.34400627022  L 249.085417397088 1080.89536403213  Z M 1239.98123451287 937.349671301313  C 1243.05343355196 936.055670980712  1246.12462389394 934.759277128306  1249.19480274251 933.460490924462  L 1248.80519725749 932.539509075538  C 1245.73549680278 933.838092903114  1242.66478501135 935.134284752415  1239.5930646809 936.428083442481  L 1239.98123451287 937.349671301313  Z M 255.799259788384 1079.85506767169  L 248 1076  L 243.769290730628 1083.60204571665  L 255.799259788384 1079.85506767169  Z " fill-rule="nonzero" fill="#333333" stroke="none" />
  </g>
</svg>