<?xml version="1.0" encoding="utf-8"?>
<svg version="1.1" xmlns:xlink="http://www.w3.org/1999/xlink" width="356px" height="68px" viewBox="196 1118  356 68" xmlns="http://www.w3.org/2000/svg">
  <g transform="matrix(-0.956304755963035 0.292371704722737 -0.292371704722739 -0.956304755963037 1068.47018257077 2144.31606130312 )">
    <path d="M 1264.12174385872 940.663970959097  C 1267.17929143469 939.335668320643  1270.23571916289 938.004789450634  1273.29102378783 936.671335766614  L 1272.89102141282 935.754821664166  C 1269.83623165985 937.088050638044  1266.7803189931 938.418705231727  1263.72328666708 939.746784028078  L 1264.12174385872 940.663970959097  Z M 1252.19164368418 945.83128411548  C 1255.25209411247 944.509683474358  1258.31143033996 943.185504154378  1261.36964910809 941.85874756595  L 1260.97165569235 940.941359294264  C 1257.91395228729 942.267892301126  1254.85513161137 943.59184847377  1251.79519692221 944.913226402194  L 1252.19164368418 945.83128411548  Z M 1240.25025102808 950.972447102945  C 1243.31358961826 949.657554802956  1246.37581965997 948.340081389184  1249.43693789155 947.020028264898  L 1249.04095534548 946.101770227518  C 1245.98035296557 947.421600899889  1242.9186389631 948.738852296388  1239.85581659876 950.053523014151  L 1240.25025102808 950.972447102945  Z M 1228.29762321018 956.087435243453  C 1231.36383525795 954.779257596196  1234.42894441489 953.468496412622  1237.49294741629 952.155153088851  L 1237.09897764065 951.236029693498  C 1234.03549097706 952.549151696072  1230.97089834453 953.859691993501  1227.90520300683 955.167649190067  L 1228.29762321018 956.087435243453  Z M 1216.33381760416 961.176223984602  C 1219.40288839142 959.874767269448  1222.4708619508 958.570724607844  1225.53773501452 957.264097388752  L 1225.1457799004 956.3441130473  C 1222.07942365814 957.650520076975  1219.01196710588 958.954342984622  1215.94341351043 960.25558038168  L 1216.33381760416 961.176223984602  Z M 1204.35889163735 966.238788899755  C 1207.4308064323 964.944059363811  1210.50162966756 963.646741483695  1213.57135807235 962.346836641211  L 1213.18141950117 961.425995769667  C 1210.11220839902 962.725681555572  1207.04190265108 964.022780814974  1203.97050552722 965.317292166468  L 1204.35889163735 966.238788899755  Z M 1192.37290279046 971.275105688146  C 1195.44764684763 969.98710954623  1198.52130501856 968.696522674845  1201.59387402944 967.403346448627  L 1201.20595387293 966.48165346711  C 1198.13390264338 967.774611770638  1195.06076243752 969.064981155601  1191.98653652822 970.352760247761  L 1192.37290279046 971.275105688146  Z M 1180.37590859732 976.285150175005  C 1183.45346715765 975.003893609613  1186.52994551041 973.720043941893  1189.60534037878 972.433602539303  L 1189.219440499 971.511061872021  C 1186.14456388817 972.797286486856  1183.06860397573 974.080919803491  1179.99156403755 975.361960454863  L 1180.37590859732 976.285150175005  Z M 1168.36796664455 981.268898311674  C 1171.4483249355 979.994387472952  1174.52760870273 978.71728117149  1177.60581466641 977.43758076756  L 1177.22193691571 976.514196842791  C 1174.14424968329 977.793681594941  1171.06548482914 979.070572681693  1167.98564563215 980.344868743167  L 1168.36796664455 981.268898311674  Z M 1156.34913457136 986.226326175716  C 1159.43227780693 984.95856718143  1162.51435220778 983.688210376448  1165.59535449112 982.415257113855  L 1165.21350071215 981.491034363924  C 1162.1330176313 982.763773111747  1159.0514626138 984.033915839427  1155.9688389415 985.301461194269  L 1156.34913457136 986.226326175716  Z M 1144.31947006921 991.157409971035  C 1147.40538345004 989.896408906541  1150.49023369028 988.632807695866  1153.57401750418 987.366607684899  L 1153.19418952988 986.441550546157  C 1150.1109253872 987.707537180395  1147.02659499809 988.970925452203  1143.94120164734 990.231714016082  L 1144.31947006921 991.157409971035  Z M 1132.27903088157 996.062126027989  C 1135.367699595 994.807888946204  1138.45531086707 993.551049395235  1141.5418614091 992.291608713768  L 1141.16406106267 991.365721626572  C 1138.0780306581 992.624950070375  1134.99093970244 993.881577821935  1131.90279148341 995.135603542953  L 1132.27903088157 996.062126027989  Z M 1120.22787480361 1000.9404508035  C 1123.31928402375 999.692983724878  1126.40964150685 998.442911866556  1129.4989439613 997.190236560016  L 1129.12317305621 996.263523968707  C 1126.03439120297 997.515988177666  1122.94455449907 998.765849377053  1119.85366623515 1000.01310623578  L 1120.22787480361 1000.9404508035  Z M 1108.16605968196 1005.79236088118  C 1111.26019456978 1004.55166979367  1114.35328342991 1003.30837162845  1117.44532296784 1002.06246770979  L 1117.07158330783 1001.13493406267  C 1113.98006483235 1002.38062802485  1110.8874972117 1003.62371667262  1107.79388373943 1004.8641986821  L 1108.16605968196 1005.79236088118  Z M 1096.09364341441 1010.61783297143  C 1099.19048911778 1009.38392383046  1102.28629450784 1008.14740532628  1105.38105628719 1006.90827877595  L 1105.00934966625 1005.97992852527  C 1101.9151094081 1007.21884626122  1098.81982571529 1008.45515639043  1095.72350188429 1009.68885759625  L 1096.09364341441 1010.61783297143  Z M 1084.01068394963 1015.41684391154  C 1087.11022560342 1014.18972263998  1090.20873266327 1012.95998973226  1093.30620182891 1011.72764649817  L 1092.93653003125 1010.79848410009  C 1089.83958284305 1012.0306196629  1086.74159793574 1013.26014533916  1083.64257860864 1014.48705981943  L 1084.01068394963 1015.41684391154  Z M 1071.91723928691 1020.18937066584  C 1075.01946201304 1018.96904315399  1078.12065586957 1017.74610174554  1081.22081755337 1016.52054774306  L 1080.85318235346 1015.59057765763  C 1077.75354310084 1016.81592513294  1074.65287184961 1018.03866045442  1071.55117190198 1019.25878231985  L 1071.91723928691 1020.18937066584  Z M 1059.81378349937 1024.93614760488  C 1060.60686913265 1024.62597085658  1061.39985308865 1024.31553419853  1062.19273524258 1024.0048376796  C 1064.50404548069 1023.10032811035  1066.81478801083 1022.19436854064  1069.12496147149 1021.28695950426  L 1068.75936463401 1020.35618619543  C 1066.44951100674 1021.26346960501  1064.13908836516 1022.16930370755  1061.82809808369 1023.07368796419  C 1061.03534988184 1023.38433204559  1060.24249988623 1023.69471628721  1059.44954822155 1024.00484064024  L 1059.81378349937 1024.93614760488  Z M 1047.6973635231 1029.65160921351  C 1050.80615205761 1028.4476992137  1053.9133947037 1027.23980115195  1057.01908378865 1026.02791801093  L 1056.65556553538 1025.09633093527  C 1053.55067326412 1026.30790314849  1050.44422783061 1027.51549130475  1047.33623690502 1028.71909242239  L 1047.6973635231 1029.65160921351  Z M 1035.56528122645 1034.3266269002  C 1038.67806844093 1033.13309382681  1041.78932307889 1031.93556755693  1044.89903745769 1030.73405104762  L 1044.53862879454 1029.80125653888  C 1041.42971226219 1031.00246478011  1038.31925586615 1032.19968380556  1035.20726728651 1033.39291065914  L 1035.56528122645 1034.3266269002  Z M 1023.41767160849 1038.96114864394  C 1026.53442286558 1037.77800577795  1029.64965487508 1036.59086462535  1032.76335994456 1035.39972811755  L 1032.40606488197 1034.46573655536  C 1029.29315868235 1035.65656745841  1026.17872593615 1036.84340403069  1023.06277433047 1038.02624334283  L 1023.41767160849 1038.96114864394  Z M 1011.25466984109 1043.55512287437  C 1014.37535045931 1042.38238338112  1017.49452517578 1041.20564055565  1020.61218628835 1040.02489730368  L 1020.25800880209 1039.08971908097  C 1017.1411475753 1040.27015939439  1014.02277313183 1041.44660030811  1010.9028931741 1042.61903891629  L 1011.25466984109 1043.55512287437  Z M 999.076411267381 1048.10849847226  C 1002.20098652106 1046.94617540154  1005.32406923699 1045.77984399699  1008.44565170058 1044.60950713967  L 1008.09459573175 1043.67315266259  C 1004.9738141591 1044.84318925164  1001.85153272068 1046.00922141495  998.72775912579 1047.17124627346  L 999.076411267381 1048.10849847226  Z M 986.883031400274 1052.6212247702  C 990.011466521798 1051.46933105534  993.138422483403 1050.31342405069  996.263891563705 1049.15350661053  L 995.915961018655 1048.21598629831  C 992.791293826926 1049.37560614329  989.665140135658 1050.53121658159  986.537507663692 1051.68281475988  L 986.883031400274 1052.6212247702  Z M 974.674665920938 1057.09325155305  C 977.806926098354 1055.95180001186  980.937720511525 1054.80633026906  984.067041429588 1053.65684515316  L 983.722240179899 1052.71816943801  C 980.593722138659 1053.86735963531  977.463730980641 1055.01253548961  974.332274434161 1056.15369417333  L 974.674665920938 1057.09325155305  Z M 962.451450677292 1061.5245290586  C 965.587501056547 1060.39353239251  968.722099083541 1059.25851265771  971.855237018017 1058.1194726569  L 971.513568900445 1057.17965198388  C 968.381234822109 1058.31839974595  965.247441026145 1059.45312827336  962.112195250263 1060.58383476435  L 962.451450677292 1061.5245290586  Z M 950.213521682497 1065.91500797803  C 953.353327367361 1064.79447877216  956.491694128109 1063.66992167523  959.628614215177 1062.5413394641  L 959.290083031616 1061.60038429102  C 956.153967770592 1062.72867694668  953.016406208738 1063.85294552024  949.877406090262 1064.97318723677  L 950.213521682497 1065.91500797803  Z M 937.961015113439 1070.26463945654  C 941.104541165897 1069.1545901795  944.246641738393 1068.04050823389  947.387309072145 1066.9223963707  L 947.051918589583 1065.98031716797  C 943.912057043757 1067.09814216187  940.770762627188 1068.21193827202  937.628043096107 1069.32170274834  L 937.961015113439 1070.26463945654  Z M 925.694067309217 1074.57337509383  C 928.841278749852 1073.47381809765  931.987078170545 1072.37022370024  935.131457803378 1071.26259462671  L 934.799211753854 1070.31940187728  C 931.655638861395 1071.42674677104  928.510646545629 1072.53005802374  925.364242571913 1073.62933291116  L 925.694067309217 1074.57337509383  Z M 913.412814769621 1078.8411669447  C 916.563676578011 1077.75211446463  919.713139842189 1076.65901989561  922.86119678519 1075.56188593682  L 922.532098865753 1074.61759013601  C 919.384849606599 1075.71444260772  916.236194387365 1076.80725672592  913.086140982454 1077.89602979233  L 913.412814769621 1078.8411669447  Z M 901.117394153618 1083.06796751951  C 904.271871269191 1081.98943167376  907.424963330434 1080.90684909681  910.576662554241 1079.82022246089  L 910.250716426911 1078.87483411631  C 907.099825821436 1079.96118196096  903.947542736162 1081.04348678411  900.793874951633 1082.12174591441  L 901.117394153618 1083.06796751951  Z M 888.807942277832 1087.25372978477  C 891.965999598376 1086.18572257502  895.122685372702 1085.11366403586  898.277991806015 1084.03755681453  L 897.955201097739 1083.09108644592  C 894.800704208245 1084.16691757491  891.644828331912 1085.23870106038  888.487581260971 1086.30643425598  L 888.807942277832 1087.25372978477  Z M 876.484596115014 1091.39840716365  C 879.646198499888 1090.34094047392  882.80644286051 1089.27941790216  885.965321393298 1088.21384206957  L 885.645689695913 1087.26630020874  C 882.487621623422 1088.33160265098  879.328188073805 1089.39285287223  876.167396848076 1090.45004825213  L 876.484596115014 1091.39840716365  Z M 864.147962621112 1095.50230665666  C 864.359412238717 1095.43220893685  864.570852165122 1095.36208196214  864.782282379434 1095.29192573945  C 867.73562440035 1094.31449582439  870.687795164556 1093.33353045973  873.63878832466 1092.34903175462  L 873.322319194848 1091.40042894529  C 870.37196061911 1092.38471594287  867.420424643811 1093.365470213  864.467717615173 1094.34268964694  C 864.256252348394 1094.41285753833  864.044777374291 1094.48299615594  863.833292689739 1094.5531055008  L 864.147962621112 1095.50230665666  Z M 851.794839120685 1099.56062187895  C 854.965101114828 1098.52855619146  858.133222793349 1097.48992750264  861.299183782932 1096.44474249163  L 860.985693300614 1095.49515114926  C 857.821043079379 1096.53990343371  854.654233064366 1097.57810211021  851.485283619269 1098.60974050278  L 851.794839120685 1099.56062187895  Z M 839.420047339247 1103.55237726052  C 842.595819353504 1102.53739311865  845.769486414004 1101.5158345485  848.941028111772 1100.48770811944  L 848.632654142825 1099.5364429118  C 845.462425524162 1100.56414367679  842.290072422591 1101.58527930213  839.115615238871 1102.5998432211  L 839.420047339247 1103.55237726052  Z M 827.023945904871 1107.47745711818  C 830.205135903674 1106.47958393669  833.384256371588 1105.47512509053  836.561286864568 1104.46408703908  L 836.258038345836 1103.51117553433  C 833.082323204426 1104.52179499663  829.904518953257 1105.5258379776  826.724646028141 1106.52329802044  L 827.023945904871 1107.47745711818  Z M 814.606894063199 1111.335747701  C 817.793409854199 1110.35501439874  820.977891596443 1109.36768438646  824.160318812833 1108.37376401297  L 823.862204532618 1107.419233827  C 820.681094902146 1108.41274269838  817.497931596317 1109.39966393713  814.312735083984 1110.379991197  L 814.606894063199 1111.335747701  Z M 802.169251667023 1115.12713719367  C 805.361000903053 1114.16357219288  808.550751632121 1113.19339962768  811.738483343243 1112.21662573657  L 811.445511941057 1111.26050453217  C 808.259100012253 1112.23687402008  805.070669900587 1113.2066449154  801.880242110208 1114.16981098173  L 802.169251667023 1115.12713719367  Z M 789.711379165863 1118.8515157197  C 792.908269348089 1117.90514694507  796.103196623774 1116.95215994294  799.296140447223 1115.9925608417  L 799.008320413535 1115.03487632778  C 795.81669853008 1115.99407813658  792.623094015462 1116.94667058385  789.427527407099 1117.89264754365  L 789.711379165863 1118.8515157197  Z M 777.233637595517 1122.5087753446  C 780.435576076592 1121.57963022234  783.635587307721 1120.64385640149  786.833650710518 1119.70145989975  L 786.550990386505 1118.74223983051  C 783.354251043307 1119.68424616202  780.155564678098 1120.6196325546  776.95495186098 1121.54839299295  L 777.233637595517 1122.5087753446  Z M 764.7363885676 1126.09881007905  C 767.943282553636 1125.18691553628  771.148285002175 1124.26838201593  774.351375302734 1123.34321542484  L 774.073882880043 1122.382487599  C 770.872118720077 1123.30727115344  767.668443204395 1124.22542438318  764.462876933751 1125.13694138419  L 764.7363885676 1126.09881007905  Z M 752.219994259062 1129.6215158819  C 755.431750812558 1128.72689834582  758.641651595825 1127.82563174556  761.849675966879 1126.91772187695  L 761.577359487389 1125.95551413691  C 758.370663299967 1126.86304811342  755.162091477084 1127.76394157204  751.951664652414 1128.65818871931  L 752.219994259062 1129.6215158819  Z M 739.684817401696 1133.07679066328  C 742.901343444233 1132.19947606037  746.116049537588 1131.3155024994  749.328915008876 1130.42487566497  L 749.061782364464 1129.46121589602  C 745.850247081115 1130.35147399386  742.636871937635 1131.23508157285  739.421677598584 1132.11203295068  L 739.684817401696 1133.07679066328  Z M 727.13122127162 1136.46453428747  C 730.352423586555 1135.60454804278  733.5718418261 1134.73789313912  736.789455287066 1133.86457514972  L 736.527514219378 1132.89949127924  C 733.311232912111 1133.77244769824  730.09314757336 1134.63874379018  726.873278897978 1135.49837398407  L 727.13122127162 1136.46453428747  Z M 714.559569678756 1139.78464857586  C 717.785354914166 1138.94201561218  721.00939199896 1138.09270448208  724.231660201687 1137.23672064686  L 723.974918301916 1136.2702406435  C 720.753984180279 1137.12587008493  717.53128190809 1137.97482958408  714.30683220989 1138.81711368148  L 714.559569678756 1139.78464857586  Z M 701.97022695628 1143.03703730974  C 705.200501626706 1142.21178204717  708.429064123392 1141.37983930386  711.655893684347 1140.54121442983  L 711.40435839301 1139.57336630269  C 708.178864801396 1140.41164396994  704.951638991401 1141.24324227302  701.722701716657 1142.06815586408  L 701.97022695628 1143.03703730974  Z M 689.364465106164 1146.22462903556  C 690.565375091149 1145.92433835183  691.765884751776 1145.62244896757  692.965990895599 1145.31896168558  C 694.998835122858 1144.8079402698  697.031013274691 1144.29427285042  699.062520187477 1143.77796073262  L 698.816198794201 1142.80877253045  C 696.785304946699 1143.32492883631  694.753739986724 1143.83844094516  692.721509078977 1144.34930755152  C 691.522035516543 1144.65263551018  690.322158572926 1144.95436610955  689.121881439345 1145.25449854712  L 689.364465106164 1146.22462903556  Z M 676.733720834726 1149.32048313117  C 679.976054112001 1148.54177853004  683.215584290392 1147.75144843139  686.452248871952 1146.94950808248  L 686.211753274137 1145.97885785329  C 682.97740939213 1146.78022320823  679.740201968011 1147.56998663749  676.500193454763 1148.34813290475  L 676.733720834726 1149.32048313117  Z M 664.074659120014 1152.29843039982  C 667.324112285342 1151.54999198346  670.570870872712 1150.78990243816  673.814872244725 1150.01817642777  L 673.583437689187 1149.04532595287  C 670.341762277291 1149.81649863306  667.097331626865 1150.57604319158  663.850208330609 1151.32394497502  L 664.074659120014 1152.29843039982  Z M 651.388380586023 1155.15821192815  C 654.644671120352 1154.44010476847  657.898375831924 1153.71032186141  661.149431949335 1152.96887728615  L 660.927078557819 1151.99391114864  C 657.678353458741 1152.73482410561  654.42698166463 1153.46408375582  651.17302590173 1154.18167603021  L 651.388380586023 1155.15821192815  Z M 638.67598822308 1157.89957907654  C 641.938833012889 1157.21186560834  645.199200959966 1156.51245278946  648.457029164356 1155.80135411317  L 648.24377626906 1154.82435708009  C 644.988283938613 1155.5349458962  641.73025368656 1156.23385723369  638.469748367602 1156.92107760899  L 638.67598822308 1157.89957907654  Z M 625.938587291936 1160.52229350077  C 629.207702653857 1159.8650335163  632.474450368416 1159.19605159504  635.738767412575 1158.51536064318  L 635.534633554467 1157.53641765813  C 632.272657036771 1158.21662055226  629.008251591551 1158.88512281118  625.741480196502 1159.541911538  L 625.938587291936 1160.52229350077  Z M 613.177285227679 1163.02612717268  C 616.452386933159 1162.39937781647  619.725230392495 1161.76088495651  622.995752465052 1161.11066091077  L 622.800755392258 1160.12985708655  C 619.53257829519 1160.77961491943  616.262081475863 1161.41764997782  612.989328029485 1162.04394995259  L 613.177285227679 1163.02612717268  Z M 600.393191543448 1165.41086240002  C 603.673994843456 1164.81467816391  606.952649494882 1164.20672987809  610.229092244978 1163.58702927128  L 610.043248911239 1162.60444988248  C 606.76915538184 1163.22370616183  603.492851536945 1163.83121854666  600.214400584162 1164.42697531662  L 600.393191543448 1165.41086240002  Z M 587.587417733964 1167.67629184542  C 590.873637383756 1167.11072456379  594.157818169336 1166.53337370931  597.439896731346 1165.9442504204  L 597.263223294545 1164.95998089597  C 593.983497994128 1165.54868178145  590.701671977335 1166.12561867341  587.417808558311 1166.69078044136  L 587.587417733964 1167.67629184542  Z M 574.761077178896 1169.82221854436  C 578.052427462809 1169.28731738963  581.341848844148 1168.74061416344  584.629277862451 1168.18211941292  L 584.461789683206 1167.19624532876  C 581.17671776273 1167.75433963664  577.889654907827 1168.30065087474  574.600664533303 1168.83516850351  L 574.761077178896 1169.82221854436  Z M 561.915285046062 1171.8484559223  C 565.211479802357 1171.3442674007  568.505855785422 1170.82825933512  571.798349439209 1170.30044168051  L 571.640061079541 1169.31304875204  C 568.349928155004 1169.84048795958  565.057914250718 1170.35612604563  561.764082877376 1170.85995306232  L 561.915285046062 1171.8484559223  Z M 549.051158194466 1173.75482781094  C 552.35191084021 1173.28139575842  555.650955000198 1172.79612771703  558.948227028321 1172.29903304869  L 558.799152250385 1171.31020712338  C 555.50424437756 1171.80694537314  552.207565643573 1172.29186547568  548.909179648743 1172.7649580758  L 549.051158194466 1173.75482781094  Z M 536.157051969818 1175.47738643042  C 539.466360631262 1175.06226031684  542.773273939514 1174.62825695071  546.07763043435 1174.17539752227  L 545.941850440819 1173.18465850853  C 542.64126226123 1173.63700149236  539.338120184052 1174.07050991748  536.032585485346 1174.48516261784  L 536.157051969818 1175.47738643042  Z M 523.239248891436 1177.0005919855  C 526.554351125805 1176.63459924982  529.867338280972 1176.24969580763  533.178048600157 1175.84590045188  L 533.056979395565 1174.85325638289  C 529.75004463758 1175.25659124711  526.440835640152 1175.64105574225  523.12951397556 1176.00663109681  L 523.239248891436 1177.0005919855  Z M 510.300272962949 1178.33201733335  C 513.620439326596 1178.01523850736  516.938771350424 1177.67951968194  520.255107016692 1177.32487724859  L 520.148775240689 1176.33054654233  C 516.836221550844 1176.68478453854  513.521673780024 1177.02012050746  510.20529376136 1177.33653807628  L 510.300272962949 1178.33201733335  Z M 497.342971231939 1179.47136951175  C 500.667471166921 1179.20387429835  503.990417905093 1178.91741396012  507.311649203396 1178.61200248348  L 507.220078252858 1177.61620392904  C 503.902634513966 1177.92126711193  500.583477291523 1178.20740076844  497.262768643532 1178.47459092811  L 497.342971231939 1179.47136951175  Z M 484.370194778331 1180.41839782157  C 487.698296773165 1180.20024507949  491.025127055954 1179.96310626018  494.350523194026 1179.70699294194  L 494.27373321791 1178.7099456514  C 490.952129388866 1178.96576689591  487.629093050632 1179.20263528017  484.304786450608 1179.42053923907  L 484.370194778331 1180.41839782157  Z M 471.380941906045 1181.14656668491  C 474.713462713387 1180.99412810293  478.044716733309 1180.81515326696  481.374387083633 1180.60965920179  L 481.312788244117 1179.61155821342  C 477.988416840178 1179.81672524861  474.662464286951 1179.99541525817  471.335246962303 1180.1476112444  L 471.380941906045 1181.14656668491  Z M 458.378953597006 1181.60648670352  C 461.71391613274 1181.52307604534  465.048161549141 1181.41310859393  468.381372679477 1181.27659480984  L 468.340451348388 1180.27743243832  C 465.012544799349 1180.41372896991  461.683605610249 1180.52352141551  458.353950443057 1180.60679933124  L 458.378953597006 1181.60648670352  Z M 445.370230162409 1181.79711989594  C 448.706204775155 1181.78277291852  452.042012244074 1181.74185999318  455.377335253847 1181.67438501171  L 455.357108973581 1180.67458958384  C 452.02709390602 1180.74195718342  448.696595150303 1180.78280499859  445.365929516751 1180.79712914376  L 445.370230162409 1181.79711989594  Z M 432.360348258422 1181.7183845404  C 435.695904862938 1181.77310739411  439.031844370786 1181.80126653362  442.367849454085 1181.80285928034  L 442.368326895365 1180.80285939431  C 439.037630839766 1180.80126918235  435.70700025522 1180.77315485621  432.376751964682 1180.71851909024  L 432.360348258422 1181.7183845404  Z M 419.353339665928 1181.35902815686  C 421.595189391173 1181.45099232495  423.837703587218 1181.52597309783  426.080689242882 1181.58396402196  C 427.173220559209 1181.61281401909  428.265825284324 1181.6388136138  429.358492263177 1181.66196254062  L 429.379673221329 1180.66218688228  C 428.288653180234 1180.639072847  427.197695304313 1180.6131122006  426.106810733937 1180.58430520817  C 423.86878144533 1180.52644382136  421.631222584631 1180.45162943225  419.394326752347 1180.35986848056  L 419.353339665928 1181.35902815686  Z M 406.359301736861 1180.63523120878  C 409.688185140831 1180.86960752377  413.019603482736 1181.06647188057  416.352922509022 1181.22578679907  L 416.400662693612 1180.22692701172  C 413.074846034321 1180.06797066646  409.750925781473 1179.87154939616  406.429534761155 1179.63770059657  L 406.359301736861 1180.63523120878  Z M 393.392036772742 1179.53117365848  C 396.712627676568 1179.86294620644  400.036851086112 1180.15729713204  403.364074117539 1180.41417039514  L 403.441048559809 1179.41713732887  C 400.121314174978 1179.16084221549  396.80457266076 1178.86715379134  393.491455476469 1178.53612797041  L 393.392036772742 1179.53117365848  Z M 380.46267041112 1178.04780276385  C 383.772119818452 1178.47668689099  387.086296182604 1178.86827183855  390.404568532597 1179.22248305446  L 390.510711190113 1178.22813214243  C 387.199907341256 1177.8747181567  383.893190259316 1177.48401455712  380.591189495148 1177.05609572795  L 380.46267041112 1178.04780276385  Z M 367.582685016203 1176.16211604806  C 370.163053498783 1176.59151786578  372.74868592401 1176.98866568172  375.338976983725 1177.35346652179  C 376.054249348995 1177.45463831137  376.76976739389 1177.55406550629  377.485524734367 1177.65174721943  L 377.620744538985 1176.66093159357  C 376.906499183431 1176.5634562259  376.192492651316 1176.46423882225  375.478731314749 1176.3632802681  C 372.896588482973 1175.99962949465  370.319089781325 1175.60373226415  367.746838660057 1175.17568126502  L 367.582685016203 1176.16211604806  Z M 354.786563763217 1173.75912185239  C 358.054447597341 1174.44321324753  361.333031986528 1175.07515256143  364.62106664898 1175.65469880526  L 364.794650053835 1174.66987963325  C 361.517084458354 1174.09217865842  358.248939046573 1173.46225143249  354.991460119399 1172.78033817699  L 354.786563763217 1173.75912185239  Z M 342.101032092265 1170.82784457945  C 345.337755141794 1171.64678883328  348.58733104631 1172.4140693128  351.848520586344 1173.12939341711  L 352.062771640375 1172.15261479027  C 348.811965692731 1171.43956827021  345.572736402919 1170.67473080348  342.346319044737 1169.85839405934  L 342.101032092265 1170.82784457945  Z M 329.547429956374 1167.3724077248  C 330.026071832455 1167.51559331577  330.505183496849 1167.65720377765  330.984757170554 1167.79723681121  C 333.709945612454 1168.59418188777  336.445815799883 1169.35413519959  339.191613156611 1170.07688714509  L 339.446163667656 1169.10982766536  C 336.709043263289 1168.38935967727  333.981818897879 1167.63180699382  331.265242799084 1166.8373785645  C 330.78770931789 1166.69794172162  330.310635941987 1166.55693394696  329.834030419254 1166.41435753056  L 329.547429956374 1167.3724077248  Z M 317.178943124208 1163.28356253271  C 320.319628042334 1164.42244389778  323.484988512605 1165.49209171385  326.672726995571 1166.49172958971  L 326.971947997437 1165.53754575415  C 323.798204343972 1164.54229649477  320.646740459113 1163.47734465325  317.519843795633 1162.3434632123  L 317.178943124208 1163.28356253271  Z M 305.064430618946 1158.49433417292  C 308.134872852337 1159.81089674646  311.233908162175 1161.05974962233  314.359287150344 1162.23998633543  L 314.712566693128 1161.3044685298  C 311.600908763412 1160.12941329932  308.515478857854 1158.88604314519  305.458516499231 1157.57526055293  L 305.064430618946 1158.49433417292  Z M 293.243515940198 1153.02038699742  C 296.233672850608 1154.51032463698  299.256246841057 1155.93429789144  302.309044011983 1157.29127318666  L 302.715226607849 1156.37748125257  C 299.675831846232 1155.02646335881  296.666527579087 1153.60874164067  293.689498074322 1152.12534513469  L 293.243515940198 1153.02038699742  Z M 281.799303609727 1146.78245608314  C 284.673622940226 1148.48950131358  287.595775091397 1150.11468913878  290.562236232315 1151.6560597405  L 291.023308935896 1150.76869737821  C 288.073624533568 1149.23604395512  285.167998532732 1147.62004733452  282.309934835373 1145.92265625098  L 281.799303609727 1146.78245608314  Z M 270.845661245281 1139.71842151101  C 273.586425822439 1141.63255958467  276.380923117541 1143.46858614479  279.225783238982 1145.22428712214  L 279.750968937607 1144.37329947125  C 276.922197843568 1142.62752781202  274.143504750307 1140.80188484912  271.418240491091 1138.89857213017  L 270.845661245281 1139.71842151101  Z M 260.441508628089 1131.86780243342  C 260.775813486487 1132.1397887979  261.111263634569 1132.4103644248  261.447850127422 1132.6795220991  C 263.719248172261 1134.50157748184  266.035308466383 1136.26724630533  268.393911768301 1137.97491294728  L 268.980356815183 1137.1649239307  C 266.634886448073 1135.4667657443  264.331725954043 1133.71092329266  262.072983141289 1131.89900348902  C 261.738391992277 1131.63144417577  261.404931111724 1131.36247447939  261.072609402074 1131.0921015806  L 260.441508628089 1131.86780243342  Z M 250.686484436082 1123.21652440583  C 253.092129388096 1125.54005696647  255.573157244291 1127.7842537372  258.125585756706 1129.94551260288  L 258.771791354756 1129.18234923567  C 256.236010194503 1127.03518645036  253.771164003823 1124.80562669445  251.381209057816 1122.4972485895  L 250.686484436082 1123.21652440583  Z M 241.701771496874 1113.76771273995  C 243.901303705448 1116.2872343729  246.182686845279 1118.73411183985  248.542259114131 1121.10441770694  L 249.250968720705 1120.39891739259  C 246.906785964357 1118.04407104427  244.640282374868 1115.61315250847  242.455095871605 1113.11006360368  L 241.701771496874 1113.76771273995  Z M 233.552345266541 1103.58969915115  C 235.529858201396 1106.28698923343  237.595098166763 1108.91885212014  239.744750287466 1111.48106346104  L 240.510838671494 1110.83832822172  C 238.375206930088 1108.29282803818  236.323436794274 1105.67813058748  234.358821519066 1102.99843266799  L 233.552345266541 1103.58969915115  Z M 226.297140592491 1092.7560887818  C 228.038333317615 1095.61164110831  229.872494750027 1098.40945636469  231.796680914065 1101.14504383388  L 232.614607893853 1100.56972178865  C 230.702971583627 1097.851976264  228.880772849147 1095.07240881187  227.150936464987 1092.23548086012  L 226.297140592491 1092.7560887818  Z M 219.988625509685 1081.3452279051  C 221.480906104536 1084.33839175322  223.070724754329 1087.28192619837  224.755529673096 1090.17110663253  L 225.619380181695 1089.66735838312  C 223.945563833488 1086.79702165168  222.366114238423 1083.87268541494  220.883566539309 1080.89904346622  L 219.988625509685 1081.3452279051  Z M 1276.04049428616 935.470532437361  C 1279.09512433331 934.135534177548  1282.14862889108 932.797962145845  1285.20100470712 931.457817766929  L 1284.79899529288 930.542182233071  C 1281.74713385527 931.882100774345  1278.69414386633 933.219447401807  1275.64002857748 934.55422069119  L 1276.04049428616 935.470532437361  Z M 226.236987501231 1078.80036370934  L 218 1076  L 214.801400709401 1084.0906713305  L 226.236987501231 1078.80036370934  Z " fill-rule="nonzero" fill="#00bfbf" stroke="none" />
  </g>
</svg>