<?xml version="1.0" encoding="utf-8"?>
<svg version="1.1" xmlns:xlink="http://www.w3.org/1999/xlink" width="90px" height="10px" viewBox="282 1002  90 10" xmlns="http://www.w3.org/2000/svg">
  <g transform="matrix(0.951056516295152 0.309016994374949 -0.309016994374953 0.951056516295157 327.184632507063 -51.7624690698319 )">
    <path d="M 306.530177543431 1010.76654375273  C 303.332681813394 1011.76910526551  300.188188850355 1012.93347696045  297.108858896659 1014.25515603147  L 297.503273851268 1015.17408847925  C 300.551477856471 1013.86576897518  303.6641862016 1012.71316678008  306.829361560357 1011.72073918555  L 306.530177543431 1010.76654375273  Z M 319.022943558383 1007.11769209526  C 315.811301751835 1008.01968042951  312.606607135856 1008.94622459442  309.409141021573 1009.89724325707  L 309.694227139453 1010.85574516389  C 312.886804900446 1009.90618043853  316.086600112051 1008.98105279379  319.293331893213 1008.08044343823  L 319.022943558383 1007.11769209526  Z M 331.582442211508 1003.7247463308  C 328.35349640434 1004.56268130624  325.131008033362 1005.42530542492  321.915259971654 1006.31254296488  L 322.18122647246 1007.27652523673  C 325.392058231053 1006.39064412414  328.60961999419 1005.52933880331  331.833629321253 1004.69268488045  L 331.582442211508 1003.7247463308  Z M 344.206937456268 1000.58226209163  C 340.961965000562 1001.35581222608  337.722957672189 1002.15417504946  334.490199794189 1002.97728048075  L 334.736941463126 1003.94636177188  C 337.964757033032 1003.12451472144  341.198812499066 1002.32737245189  344.438823972775 1001.55500493713  L 344.206937456268 1000.58226209163  Z M 356.891435116099 997.69148252616  C 353.631719704046 998.400341807692  350.377474750564 999.134127508125  347.128985916446 999.892775215035  L 347.356405143952 1000.86657216254  C 350.599927620175 1000.10908429216  353.849197415687 999.376420418702  357.103929306417 998.668644856114  L 356.891435116099 997.69148252616  Z M 369.620183664442 995.027592991058  C 368.602040132185 995.239190852834  367.584012666996 995.451346801549  366.566101724517 995.664060742248  C 364.317174346074 996.117633909445  362.070648849494 996.583035896384  359.826618508474 997.060247379996  L 360.034625328831 998.038374755487  C 362.276364477473 997.561650512753  364.520597493891 997.09672971064  366.767231104749 996.643631671879  C 367.785925115095 996.430752785618  368.804735869214 996.218432946798  369.823662910031 996.006672250676  L 369.620183664442 995.027592991058  Z M 382.356450940612 992.410990822661  C 379.089213422244 993.074452574932  375.823144391354 993.743655643253  372.558258978207 994.418596927501  L 372.760705733474 995.397890198836  C 376.024443809728 994.723186100565  379.289365087382 994.054218201795  382.555454442288 993.390989601396  L 382.356450940612 992.410990822661  Z M 395.10454107182 989.852610662428  C 391.834306163017 990.501136790977  388.565213496212 991.155409514709  385.297278215673 991.815425802667  L 385.49524825994 992.795633873218  C 388.762035131568 992.135849526386  392.029978983066 991.481806725325  395.299064674828 990.833508500061  L 395.10454107182 989.852610662428  Z M 407.864187906004 987.352505923703  C 404.591023882318 987.986082888686  401.318975830568 988.625411608151  398.048058910177 989.270489120083  L 398.241548110265 990.251591525262  C 401.51131557419 989.606740704664  404.782213771572 988.967636656386  408.054227549119 988.334282341247  L 407.864187906004 987.352505923703  Z M 420.635125049822 984.910728803173  C 417.359100247226 985.529343376991  414.084165124668 986.153714744221  410.810334853482 986.783840012426  L 410.999339169764 987.765816268975  C 414.272018960437 987.135912437675  417.545803214548 986.511760485267  420.820676765435 985.893363303297  L 420.635125049822 984.910728803173  Z M 433.417085874215 982.527330279769  C 430.13826868914 983.130969547064  426.860514868724 983.740370526654  423.583839597358 984.355530395454  L 423.768355083839 985.338360001871  C 427.043878874909 984.723416310876  430.32048083634 984.114229485255  433.598145788414 983.510802347227  L 433.417085874215 982.527330279769  Z M 446.209803519975 980.202360113605  C 442.928262406907 980.791011471718  439.647758320917 981.385429340718  436.368306459139 981.985610966929  L 436.548329263542 982.969273403894  C 439.826628669283 982.369302691875  443.105979929797 981.775093711522  446.386367852628 981.186649215665  L 446.209803519975 980.202360113605  Z M 459.013010903314 977.935866844942  C 455.72881437361 978.509518004128  452.445628511751 979.088940352401  449.163468527297 979.674131205552  L 449.338994891141 980.658605936359  C 452.620001467877 980.073620729382  455.902033561837 979.494402000073  459.185075968147 978.920952431815  L 459.013010903314 977.935866844942  Z M 471.822140497058 975.711858901595  C 469.352742107185 976.139266990004  466.883554585236 976.567892510429  464.414578835432 976.997735305905  C 463.599343936384 977.138514496986  462.784170470732 977.279649198184  461.96905866701 977.421139369933  L 462.140084925692 978.406405840915  C 462.955135401113 978.264926314763  463.770247550074 978.123802330753  464.58542114548 977.983033928202  C 467.054298170698 977.553208091715  469.523386975357 977.124599593241  471.9926866624 976.697208588501  L 471.822140497058 975.711858901595  Z M 484.634410545486 973.505535736691  C 481.3487314738 974.068458760923  478.063421923784 974.633536460881  474.778484004013 975.200768473884  L 474.94864244279 976.186185190666  C 478.233149537715 975.619027571046  481.518028222811 975.054023980439  484.803276372447 974.491174784458  L 484.634410545486 973.505535736691  Z M 497.450423905632 971.321061599885  C 494.163789788758 971.878381491759  490.877521513269 972.437856687283  487.591621200103 972.999486825378  L 487.760099186772 973.985192241822  C 491.04556855279 973.423635761746  494.331405829788 972.864233942144  497.617608903275 972.306987142998  L 497.450423905632 971.321061599885  Z M 510.27014331793 969.158442842023  C 506.982563709031 969.710157981595  503.695346266039 970.264029045472  500.40849311051 970.820055676186  L 500.575290155261 971.806046926585  C 503.861712238676 971.250093218987  507.148498558693 970.696294796043  510.435647000203 970.144652014133  L 510.27014331793 969.158442842023  Z M 523.093531512029 967.017685750416  C 519.805015967018 967.56379453403  516.516858917262 968.112059855355  513.229062473169 968.6624813625  L 513.394178091078 969.648755580313  C 516.681543337386 969.098406261498  519.969269144854 968.550212845252  523.257353397769 968.00417568435  L 523.093531512029 967.017685750416  Z M 535.920551206923 964.898796548818  C 532.631109290309 965.439297388139  529.342022185503 965.981955374262  526.053292015265 966.52677015696  L 526.216725726297 967.513324474825  C 529.50502457825 966.968581144805  532.793680314873 966.425994329004  536.082690819855 965.885564376587  L 535.920551206923 964.898796548818  Z M 548.751165111042 962.801781397404  C 545.460806384152 963.336672721375  542.170798790467 963.873721793994  538.881144453341 964.41292826865  L 539.042895782352 965.399759818391  C 542.332118679987 964.860624060881  545.621694784765 964.323645422968  548.911621979783 963.788824250209  L 548.751165111042 962.801781397404  Z M 561.58533592237 960.726646392756  C 558.294069951155 961.255926646307  555.003151433521 961.787365244075  551.712582493411 962.320961843072  L 551.872650970144 963.308067755706  C 555.162788350814 962.774541138117  558.453275260072 962.243172239234  561.744109580431 961.713961401001  L 561.58533592237 960.726646392756  Z M 574.423026328547 958.673397567844  C 571.130862679632 959.197065212529  567.839042809551 959.722891789787  564.547568831056 960.250876962133  L 564.705953990152 961.238254367879  C 567.996996286586 960.710338441631  571.288384437925 960.184580825979  574.580116314329 959.660981861141  L 574.423026328547 958.673397567844  Z M 587.264199006982 956.642040892012  C 583.971147253528 957.160094405073  580.678435597274 957.680307433736  577.386066151549 958.202679644118  L 577.542767532539 959.190325672408  C 580.834705180724 958.668021971662  584.126984997353 958.147877169015  587.419604863783 957.62989159919  L 587.264199006982 956.642040892012  Z M 595.982790656927 955.275626791229  C 594.064424867284 955.575143760028  592.146173550025 955.875393466344  590.228037129954 956.176375843686  L 590.383054277265 957.164287623168  C 593.675877704698 956.647597666716  596.969039619005 956.133067188647  600.262537900974 955.620696520069  L 595.982790656927 955.275626791229  Z M 294.356608570686 1015.48644842542  C 293.631055170317 1015.82440588178  292.90962984318 1016.17115600967  292.192491950259 1016.52662221288  C 290.751006630903 1017.25811533333  289.404159311001 1018.16275843784  288.18180561075 1019.22049826533  C 287.330851983689 1019.89029735551  286.740098172551 1020.8358677323  286.511287936546 1021.89435664226  L 287.488712063454 1022.10564335774  C 287.669968543723 1021.26714077336  288.140448641418 1020.51913607993  288.817751296549 1019.99263668866  C 289.982273798488 1018.98230867347  291.266212634617 1018.1184865455  292.640863613812 1017.42048221801  C 293.349349031685 1017.06934768326  294.062061210775 1016.7268068017  294.778843344273 1016.39293493716  L 294.356608570686 1015.48644842542  Z M 596.046960921016 962.152440414436  L 601 955  L 594.097532287886 949.704158283783  L 596.046960921016 962.152440414436  Z " fill-rule="nonzero" fill="#ff0000" stroke="none" />
  </g>
</svg>