<?xml version="1.0" encoding="utf-8"?>
<svg version="1.1" xmlns:xlink="http://www.w3.org/1999/xlink" width="88px" height="14px" viewBox="236 992  88 14" xmlns="http://www.w3.org/2000/svg">
  <g transform="matrix(0.882947592858925 0.469471562785892 -0.469471562785894 0.88294759285893 501.776765222609 -14.5166828461211 )">
    <path d="M 261.292716066121 1005.09695854187  C 258.607877942336 1006.88959512646  256.044154438362 1008.85730037379  253.618226628408 1010.98727125064  C 253.520748251014 1011.0712180919  253.423790691133 1011.15576781191  253.32735952662 1011.24091554662  L 253.9892495373 1011.99051651631  C 254.083776662864 1011.90705002857  254.178826361681 1011.82417723706  254.274393025253 1011.74190303176  C 256.668357120518 1009.63971482417  259.198387143207 1007.69773644708  261.848004681526 1005.92861625608  L 261.292716066121 1005.09695854187  Z M 272.694689356523 998.735267890734  C 271.237681822109 999.446130020755  269.79116406771 1000.17829407464  268.355601503298 1000.93152448222  C 266.820509533836 1001.72488078737  265.313894286744 1002.5721654141  263.83856869376 1003.47179643641  L 264.359193939889 1004.32558174496  C 265.815312737217 1003.4376627334  267.302332253119 1002.60144007046  268.817472782847 1001.81847691794  C 270.245291520761 1001.06927538125  271.684013806106 1000.34104004852  273.133176142174 999.634005526983  L 272.694689356523 998.735267890734  Z M 284.625927271198 993.483535271237  C 281.51509360302 994.709402687141  278.442001164542 996.028963386973  275.410854525168 997.440411963102  L 275.832981824151 998.346948527976  C 278.845871840692 996.944001119019  281.900455016423 995.632388144871  284.992552106093 994.413904139181  L 284.625927271198 993.483535271237  Z M 296.886249642576 989.086207993131  C 294.498897827698 989.883875819562  292.120704614769 990.708697181204  289.752132338618 991.560511727905  C 288.977775658416 991.836523876118  288.205479617866 992.118283417372  287.43530811654 992.405767038959  L 287.785012025929 993.342627314431  C 288.550986156703 993.056710454644  289.319074460301 992.77648976402  290.089213312002 992.501988454685  C 292.451083948357 991.652572613427  294.822550219472 990.83007864927  297.203150924947 990.034666520022  L 296.886249642576 989.086207993131  Z M 309.312634648309 985.20369205465  C 306.107189224707 986.136555255758  302.916012444853 987.1177664368  299.740195566445 988.146990061913  L 300.048491280211 989.098280634175  C 303.214732045142 988.072160450665  306.396286396457 987.093907938203  309.592066366951 986.163857620902  L 309.312634648309 985.20369205465  Z M 321.883255232492 981.820478287094  C 320.528972242043 982.159744199421  319.175616279183 982.502699958372  317.823202418686 982.849341743826  C 315.944779116726 983.342161082104  314.070720781082 983.851470259151  312.201244284009 984.377210336016  L 312.47196591176 985.339868011551  C 314.334897009161 984.815968652627  316.202391695655 984.30843468142  318.074234069094 983.81732477423  C 319.42397461769 983.471373503988  320.774654756642 983.129098482128  322.126259461714 982.790503515931  L 321.883255232492 981.820478287094  Z M 334.527943976451 978.766312370263  C 331.279154081133 979.521975124242  328.035318299749 980.298780884008  324.796642866246 981.096680262438  L 325.035856096789 982.067647321783  C 328.270317256129 981.270786197048  331.509932048469 980.494991243261  334.754494508344 979.74031178325  L 334.527943976451 978.766312370263  Z M 347.22251681388 975.92661109119  C 343.961401804467 976.627175775609  340.704882327569 977.348964291431  337.453165423525 978.091930749377  L 337.67590955818 979.066807690574  C 340.923395218058 978.324808005746  344.175677201457 977.6039587056  347.432548737571 976.904305619676  L 347.22251681388 975.92661109119  Z M 359.963336517407 973.302188076246  C 356.690830762982 973.94745396651  353.42256064304 974.614018432762  350.15873394481 975.301839096746  L 350.364945163307 976.280346599715  C 353.624524859667 975.59342095128  356.888542195836 974.927723841288  360.156789654908 974.28329759286  L 359.963336517407 973.302188076246  Z M 372.746752609088 970.893795270638  C 369.463793742483 971.483577486253  366.184709398559 972.094726920044  362.909708052266 972.727204716851  L 363.099327271319 973.70906242129  C 366.370067074911 973.077407626019  369.644884563227 972.46705344057  372.923571532536 971.878038669554  L 372.746752609088 970.893795270638  Z M 385.569102406334 968.702122722969  C 382.276631055297 969.236252280546  378.987672005109 969.79181157637  375.702434358526 970.368765289544  L 375.875407248759 971.353691875257  C 379.156370032851 970.777488913795  382.441049378068 970.222652530553  385.729236453872 969.689218000447  L 385.569102406334 968.702122722969  Z M 398.420304617532 966.707014984688  C 396.950325903284 966.929786404025  395.480619564005 967.154351424016  394.011188882564 967.380709543054  C 392.184196785994 967.656285829643  390.358204455488 967.938450000451  388.533247513454 968.227196550872  L 388.68952451497 969.214909818373  C 390.512622884894 968.926457333128  392.336755880183 968.644582386236  394.161887894291 968.369290479812  C 395.631031037002 968.142975363407  397.100449881519 967.918453625938  398.570141144163 967.695725769138  L 398.420304617532 966.707014984688  Z M 411.28388485223 964.804360111878  C 407.983807281444 965.280484977495  404.685038790583 965.765639518238  401.38761643249 966.25981828469  L 401.535829411885 967.248773750189  C 404.831447604651 966.754865370753  408.128411193792 966.269976279456  411.426683146467 965.794111922769  L 411.28388485223 964.804360111878  Z M 424.160676439705 962.993274682559  C 420.85729488045 963.445908237257  417.555158124015 963.907580552326  414.254303261076 964.378286442112  L 414.395476308321 965.36827137671  C 417.694525127858 964.897823030895  420.994855139645 964.43640331711  424.296429273032 963.98401741821  L 424.160676439705 962.993274682559  Z M 437.050027550955 961.273850374695  C 433.743509221896 961.702969705959  430.43817135554 962.141136425293  427.134051078519 962.588345611068  L 427.268177047371 963.579309901282  C 430.570489494338 963.132345403394  433.874018864578 962.694418424395  437.178728051503 962.26553388326  L 437.050027550955 961.273850374695  Z M 449.95128572121 959.64617422632  C 446.641797999798 960.051757611935  443.333426341215 960.466396555338  440.02620790617 960.890086399171  L 440.153280007112 961.881979881941  C 443.458688916963 961.458521857525  446.765250419508 961.044109781373  450.072927374101 960.638748308332  L 449.95128572121 959.64617422632  Z M 462.863797882958 958.110328631135  C 459.551508296955 958.492355540287  456.240270317412 958.883445718549  452.930121137234 959.283594773068  L 453.050132937818 960.276367238299  C 456.358470989262 959.876437122991  459.667897244477 959.485560927413  462.978374530638 959.103743042047  L 462.863797882958 958.110328631135  Z M 475.786910399008 956.666391334337  C 472.471986618006 957.024842428652  469.158049933864 957.39236404461  465.845137569798 957.76895205409  L 465.958082994973 958.762553247191  C 469.269182718446 958.386171285635  472.58130620168 958.01885075696  475.894416241553 957.660595787062  L 475.786910399008 956.666391334337  Z M 488.71996909557 955.314435428684  C 485.402578922508 955.649292563205  482.086111286737 955.99322701275  478.770603439902 956.346234914136  L 478.87647677232 957.340614538567  C 482.190170558459 956.987799783386  485.504823608526 956.644053515546  488.820398690988 956.309379596145  L 488.71996909557 955.314435428684  Z M 251.144183641569 1013.3674802943  C 248.830843596387 1015.85263722163  246.939233834698 1018.69918390063  245.544158322879 1021.7945532541  L 246.455841677121 1022.2054467459  C 247.806143763778 1019.20941989175  249.637044375759 1016.45423002006  251.876140298303 1014.04883149058  L 251.144183641569 1013.3674802943  Z M 491.975756939756 954.988740238329  C 491.885792113442 954.997658607938  491.795827956513 955.00658365195  491.705864454631 955.01551537179  L 491.804660334936 956.010623091605  C 491.893667165935 956.001786351575  491.982674645233 955.992956149053  492.071682773365 955.984132483985  L 491.975756939756 954.988740238329  Z M 491.653915456121 961.863627324506  L 497 955  L 490.405163512145 949.325660241186  L 491.653915456121 961.863627324506  Z " fill-rule="nonzero" fill="#333333" stroke="none" />
  </g>
</svg>