<?xml version="1.0" encoding="utf-8"?>
<svg version="1.1" xmlns:xlink="http://www.w3.org/1999/xlink" width="78px" height="8px" viewBox="250 964  78 8" xmlns="http://www.w3.org/2000/svg">
  <g transform="matrix(0.913545457642606 0.406736643075803 -0.406736643075792 0.913545457642607 418.706433238654 -33.8588928469507 )">
    <path d="M 227.749434403354 1006.32381489049  C 225.380388119116 1008.68358394853  223.084039895986 1011.11522944953  220.863607776787 1013.61534374856  L 221.611297946328 1014.27939149561  C 223.8181956061 1011.79451643549  226.100546629507 1009.37769282753  228.455152589027 1007.03230754564  L 227.749434403354 1006.32381489049  Z M 237.343793436421 997.498078016418  C 234.794863133081 999.662297185745  232.31269445946 1001.90393803122  229.900765862343 1004.21985917551  L 230.593370785923 1004.94117631785  C 232.990597672751 1002.6393716784  235.457636493533 1000.41139456838  237.991030004072 998.260367217113  L 237.343793436421 997.498078016418  Z M 247.608616930919 989.461987222227  C 244.895896982527 991.416991259501  242.243580688322 993.454473352649  239.655384935553 995.571578227122  L 240.288531389356 996.345610247156  C 242.860951010038 994.241410009476  245.497100330727 992.216347219075  248.19328512015 990.273259746414  L 247.608616930919 989.461987222227  Z M 258.477562919309 982.265940378459  C 258.127868668702 982.479014121314  257.77868265916 982.692920866611  257.43000786502 982.90765879231  C 254.932662710204 984.447340115619  252.477067846626 986.053734115224  250.065872693217 987.725107601853  L 250.635562884191 988.5469671314  C 253.031995451997 986.885826658941  255.472554700463 985.289266066314  257.954607576607 983.75900783931  C 258.301862123695 983.545145044818  258.64962570351 983.332109883573  258.997895355102 983.119904169414  L 258.477562919309 982.265940378459  Z M 269.767136353141 975.772329576437  C 266.830829348995 977.363915509139  263.925733388376 979.012420550462  261.053494259124 980.716910793372  L 261.563833383268 981.576884036193  C 264.424929676409 979.879006353928  267.318755333018 978.236896678964  270.243670950082 976.651485295248  L 269.767136353141 975.772329576437  Z M 281.370291230663 969.857243232664  C 278.357341332961 971.298484891007  275.372687658626 972.79814947214  272.41802106632 974.355387389772  L 272.884271570406 975.240040128104  C 275.827475549703 973.688843506522  278.800550276317 972.194996865988  281.801811451242 970.759346496837  L 281.370291230663 969.857243232664  Z M 293.257406044397 964.535781875939  C 290.175504964481 965.822999937269  287.118913050788 967.169995588625  284.089361916254 968.576005733342  L 284.51033351687 969.483079551438  C 287.528131524219 968.082524015446  290.572865406182 966.740754026405  293.642810267585 965.458529720558  L 293.257406044397 964.535781875939  Z M 305.398134370114 959.821530579374  C 302.255149843684 960.951438925405  299.134422814972 962.142326923449  296.037721230579 963.393519914565  L 296.412339236094 964.320699158262  C 299.497027183498 963.074360163565  302.60564736865 961.888092209042  305.736438703666 960.762567336307  L 305.398134370114 959.821530579374  Z M 317.068358629965 955.937889847733  C 314.106015356835 956.845798779469  311.160282499506 957.807045119849  308.232596234961 958.821160218139  L 308.559904289096 959.766077906458  C 311.703607326303 958.677137211829  314.868177868169 957.649399696208  318.051823129952 956.683447590932  L 317.068358629965 955.937889847733  Z M 218.886120226107 1015.88347065945  C 216.711916517115 1018.42388962804  214.615888272842 1021.03018596646  212.600972812905 1023.69870727862  L 213.399027187095 1024.30129272138  C 215.401660897323 1021.64903715908  217.484912975646 1019.05862728337  219.645864006648 1016.53369322745  L 218.886120226107 1015.88347065945  Z M 318.056808150449 962.75507820964  L 322 955  L 314.446379512169 950.683425255389  L 318.056808150449 962.75507820964  Z " fill-rule="nonzero" fill="#00bfbf" stroke="none" />
  </g>
</svg>