<?xml version="1.0" encoding="utf-8"?>
<svg version="1.1" xmlns:xlink="http://www.w3.org/1999/xlink" width="48px" height="10px" viewBox="142 1000  48 10" xmlns="http://www.w3.org/2000/svg">
  <g transform="matrix(-0.45399049973953 0.891006524188366 -0.891006524188379 -0.453990499739547 1136.82397976608 1313.35336922298 )">
    <path d="M 163.57070271382 1005.09043122964  C 165.223138588943 1008.01018725667  167.053895247932 1010.8253608485  169.052568169475 1013.51995286427  L 169.855743285564 1012.92420985517  C 167.881540115548 1010.26260772803  166.073197409373 1007.48190030501  164.440992305801 1004.59789084948  L 163.57070271382 1005.09043122964  Z M 158.993831605343 992.816616151409  C 159.576873906801 996.152872751872  160.635165869169 999.388321293159  162.136415898999 1002.42423874549  L 163.032807761213 1001.9809762619  C 161.573920660832 999.03072765506  160.545492043575 995.886578414734  159.978902284593 992.644465761104  L 158.993831605343 992.816616151409  Z M 159.426368923222 979.716160155451  C 158.894177038585 981.731601049574  158.575184588351 983.797374109695  158.474643285779 985.879469603724  C 158.443753443288 987.187716984645  158.485351717993 988.496671139689  158.599246961307 989.800317282477  L 159.595452202492 989.713282131901  C 159.485129173207 988.450523588145  159.444608634161 987.182637023373  159.474075579999 985.915410915008  C 159.571899571671 983.907419420919  159.879967839765 981.915216179428  160.393229097551 979.971466644397  L 159.426368923222 979.716160155451  Z M 165.459443659637 968.08304770871  C 165.119401326208 968.507955280441  164.78519305164 968.937499022602  164.456912817801 969.371558144276  C 162.740947539672 971.642510131612  161.359608199518 974.14786493064  160.355096696651 976.811080356611  L 161.290753580355 977.163991387859  C 162.261489844257 974.59032270891  163.596374123914 972.169202415885  165.254625932379 969.974595320576  C 165.577357160261 969.547876539776  165.905915383904 969.125596202914  166.240208235585 968.707873025854  L 165.459443659637 968.08304770871  Z M 174.705906963322 958.826577921882  C 172.082055954452 960.931036318731  169.641004684035 963.253768174524  167.408882838655 965.76991032635  L 168.15694858315 966.433534950601  C 170.351630031933 963.959597197364  172.751736437325 961.675825581152  175.331576397879 959.606666223718  L 174.705906963322 958.826577921882  Z M 170.895187219662 1015.91054384605  C 172.992052090476 1018.52945149855  175.24827987889 1021.0166805719  177.651048034187 1023.35809569329  L 178.348951965813 1022.64190430671  C 175.975600899777 1020.32915512941  173.746996106992 1017.8723772003  171.675803151688 1015.28553283281  L 170.895187219662 1015.91054384605  Z M 179.422032085891 963.555700863287  L 181 955  L 172.531400665063 953.006805251788  L 179.422032085891 963.555700863287  Z " fill-rule="nonzero" fill="#02a7f0" stroke="none" />
  </g>
</svg>