<?xml version="1.0" encoding="utf-8"?>
<svg version="1.1" xmlns:xlink="http://www.w3.org/1999/xlink" width="178px" height="18px" viewBox="336 740  178 18" xmlns="http://www.w3.org/2000/svg">
  <g transform="matrix(-0.838670567945425 0.544639035015026 -0.544639035015025 -0.838670567945421 1189.36962860306 1145.69266550973 )">
    <path d="M 642.985037297076 824.881105864153  C 646.317556299238 825.05136336085  649.651771787092 825.18661081317  652.98713195711 825.28682583803  L 653.017164641582 824.287276920836  C 649.688804093077 824.187272208269  646.361585824471 824.052308587657  643.036060481318 823.882408395112  L 642.985037297076 824.881105864153  Z M 629.999014795819 824.039727452726  C 633.325641809776 824.300923212479  636.654920702999 824.527168309759  639.986300488909 824.718425301618  L 640.043616853371 823.720069235696  C 636.719228335692 823.529213617747  633.396936301743 823.303443320778  630.0772905818 823.04279570916  L 629.999014795819 824.039727452726  Z M 617.04081061207 822.844050921781  C 620.359064565924 823.195990139025  623.680923814766 823.513064142673  627.005838599946 823.795220457843  L 627.090395896589 822.798801839197  C 623.772458812114 822.517237660201  620.457570851619 822.200829071352  617.146280619981 821.849628437405  L 617.04081061207 822.844050921781  Z M 604.120089260731 821.294968033286  C 607.427495327397 821.73738822398  610.739457415841 822.1450546532  614.055427405412 822.517899853269  L 614.167162569536 821.524161832915  C 610.858151509045 821.152099089656  607.553139938633 820.745288193438  604.252674828709 820.303796470355  L 604.120089260731 821.294968033286  Z M 591.246487301179 819.393634127476  C 594.540578744151 819.926205324868  597.840173537732 820.424160133033  601.144725608025 820.887416141816  L 601.283555305077 819.897099871518  C 597.985938202091 819.434816056608  594.693267972425 818.937906261577  591.406089543979 818.406452723633  L 591.246487301179 819.393634127476  Z M 578.429255073267 817.14095715576  C 578.605189271748 817.174515250404  578.781144662201 817.207962146449  578.957121139382 817.241297823888  C 582.060278590957 817.826750093685  585.169179245249 818.381340011307  588.283362294356 818.904985374249  L 588.449182982081 817.918829453757  C 585.341657457908 817.396303543976  582.239402825743 816.842900445421  579.142878872275 816.258702178238  C 578.967438013733 816.225467805302  578.792018162974 816.192122629019  578.616619425358 816.158666669414  L 578.429255073267 817.14095715576  Z M 565.68376873132 814.507020320841  C 568.941284973514 815.232376675061  572.207230509133 815.919345364344  575.480925960847 816.567783486444  L 575.675226331828 815.586841405668  C 572.409232331546 814.939928750667  569.150970015514 814.254576172624  565.901117162751 813.530926237592  L 565.68376873132 814.507020320841  Z M 553.024891959189 811.484126969918  C 556.258675234054 812.308869135668  559.502059053677 813.095499684458  562.754368733985 813.843854982524  L 562.978608653083 812.869321012525  C 559.733950113638 812.122726239244  556.498196436594 811.337946258742  553.272020718753 810.515144319818  L 553.024891959189 811.484126969918  Z M 540.464491699694 808.075110885419  C 543.67151052807 808.998465716055  546.889292152576 809.884020705072  550.117167214915 810.731591640597  L 550.371136470565 809.764379348913  C 547.150855066047 808.918802345476  543.940643354277 808.03533064699  540.741169118903 807.114148031975  L 540.464491699694 808.075110885419  Z M 528.014342579797 804.283167816833  C 531.191590572582 805.304269722207  534.380753523412 806.287918996409  537.581168027204 807.233911022133  L 537.864628538359 806.274927112666  C 534.671743090728 805.331160557137  531.490082726481 804.349825342756  528.320309290053 803.33112560547  L 528.014342579797 804.283167816833  Z M 515.686115872582 800.11185248488  C 518.830614549067 801.229744242789  521.988169175948 802.310565689581  525.158122923259 803.354091994338  L 525.470808962578 802.404235457373  C 522.308312611719 801.36316407467  519.158186212052 800.284885287699  516.021085048322 799.169623398456  L 515.686115872582 800.11185248488  Z M 503.491368556135 795.56507524918  C 506.600170136144 796.778708902698  509.723156419723 797.955689316365  512.859677767766 799.095771656412  L 513.201296210714 798.155932925864  C 510.072153608565 797.018532658391  506.956514229282 795.844321120945  503.855026183712 794.633542571328  L 503.491368556135 795.56507524918  Z M 491.443871249405 790.640193063554  C 493.691665804569 791.600637369669  495.947703079211 792.541674946745  498.211731298187 793.463200774412  C 499.039222490042 793.79905806322  499.867770045005 794.132306769855  500.69736162038 794.462941929982  L 501.067592220018 793.53400204867  C 500.240105767401 793.204205888867  499.413660492426 792.871803297835  498.588268701945 792.536799225485  C 496.329720780966 791.617500962396  494.079143945028 790.678739497685  491.83678932589 789.720619583525  L 491.443871249405 790.640193063554  Z M 479.555493403002 785.343824730042  C 482.582801389635 786.748445768928  485.62654609039 788.117366664456  488.686094349878 789.450302655672  L 489.085500166346 788.533528422956  C 486.033149571613 787.203728197412  482.996565357325 785.838027722948  479.976379189388 784.436711090624  L 479.555493403002 785.343824730042  Z M 467.834831222453 779.685987387689  C 470.81771909457 781.182628243452  473.818128902973 782.644088883813  476.835436506695 784.070065297815  L 477.262721295802 783.165948209713  C 474.252511984616 781.743326441331  471.259160716263 780.285303924133  468.28329016339 778.792183953877  L 467.834831222453 779.685987387689  Z M 456.292872130296 773.671984921938  C 459.228543608229 775.259242582942  462.18280581882 776.811872935846  465.155044220659 778.329553004701  L 465.609807428371 777.438940617121  C 462.644561292629 775.924830929055  459.697249058695 774.375853178371  456.768483822244 772.792329581204  L 456.292872130296 773.671984921938  Z M 444.94043602557 767.307455101819  C 447.826139092201 768.983841608567  450.731484260156 770.626186175556  453.655867163682 772.234147164614  L 454.137682476584 771.357874373611  C 451.220179257883 769.753696153492  448.321668988003 768.115215243684  445.442754610902 766.442772478639  L 444.94043602557 767.307455101819  Z M 433.788165140803 760.598364294872  C 436.621194621428 762.362308134888  439.474899158726 764.092827315765  442.348685129192 765.789561857398  L 442.857100874132 764.928450116508  C 439.990075557925 763.235707185846  437.143084432812 761.509259095161  434.316719725771 759.749464977692  L 433.788165140803 760.598364294872  Z M 422.846692880463 753.550316666872  C 423.155484548963 753.756166040101  423.464516593184 753.961654600798  423.773788380585 754.166781928359  C 426.246953425714 755.804487862511  428.73719302001 757.41626167665  431.244097926725 759.001838497841  L 431.77863749423 758.156695048023  C 429.277734745015 756.574914494406  426.793456709119 754.967000761216  424.3262116094 753.333218064911  C 424.017692174788 753.128589395264  423.709411820652 752.923600491707  423.401371177423 752.71825177344  L 422.846692880463 753.550316666872  Z M 412.118396348464 746.184968640073  C 414.843306964763 748.110983346164  417.588373600835 750.008321997125  420.353141955637 751.876670588579  L 420.913053244474 751.048118026196  C 418.154087061261 749.183690370502  415.414781250563 747.290333494156  412.695589159987 745.368360742533  L 412.118396348464 746.184968640073  Z M 401.595227528608 738.529407522611  C 404.266527932034 740.529113668425  406.958759901508 742.500704857121  409.671477880016 744.44385479576  L 410.25380582006 743.630900817823  C 407.546780779692 741.691828793838  404.860198756187 739.724375206885  402.194504371548 737.728865665169  L 401.595227528608 738.529407522611  Z M 391.285034832639 730.589343001062  C 393.900732708341 732.661249161582  396.53812208516 734.705622431766  399.196766482382 736.72212447344  L 399.801076760592 735.925375398982  C 397.14801182213 733.913105209448  394.516157298046 731.873022282239  391.905948753088 729.805464245518  L 391.285034832639 730.589343001062  Z M 381.19550783 722.370696950927  C 383.753652332726 724.513257852774  386.334232093639 726.628888465705  388.936820033858 728.717238658651  L 389.562661942281 727.93728872073  C 386.965535820159 725.853321161202  384.390371690731 723.742130432645  381.837595736642 721.604065931372  L 381.19550783 722.370696950927  Z M 371.334171512788 713.879599019965  C 373.832854721864 716.091216693893  376.354700213484 718.276526765529  378.89929062913 720.435167572045  L 379.546197401046 719.672598474554  C 377.006947089284 717.518487814062  374.490393968812 715.337763856845  371.996954522279 713.130787506745  L 371.334171512788 713.879599019965  Z M 361.708380683444 705.122382056562  C 364.145739025742 707.40140702926  366.6069694 709.654766707082  369.091664479335 711.882088165175  L 369.759153637385 711.137468648988  C 367.279672964959 708.914821470848  364.823607754335 706.666190717057  362.391364477577 704.391948529845  L 361.708380683444 705.122382056562  Z M 655.989192853425 825.36755863746  C 659.325118377496 825.446750889298  662.661783728454 825.490899826122  665.998636697279 825.499998141402  L 666.001363302721 824.500001858598  C 662.671513088204 824.490922637136  659.341850097817 824.44686635173  656.01292538171 824.367840293575  L 655.989192853425 825.36755863746  Z M 359.26203100757 702.818729099281  C 359.348408760065 702.900644948445  359.434817206421 702.982528425548  359.521256328688 703.06437951358  L 360.208830044714 702.338264932382  C 360.125112043859 702.258990533497  360.041422878549 702.179685688862  359.95776256481 702.100350413663  L 359.26203100757 702.818729099281  Z M 364.691875043759 698.624090138885  L 356 699  L 355.951721054153 707.699866041692  L 364.691875043759 698.624090138885  Z " fill-rule="nonzero" fill="#ff0000" stroke="none" />
  </g>
</svg>