<?xml version="1.0" encoding="utf-8"?>
<svg version="1.1" xmlns:xlink="http://www.w3.org/1999/xlink" width="174px" height="18px" viewBox="216 768  174 18" xmlns="http://www.w3.org/2000/svg">
  <g transform="matrix(0.838670567945423 0.544639035015028 -0.544639035015028 0.838670567945426 472.067348119214 -39.6726589031492 )">
    <path d="M 251.216415546713 809.726462427934  C 248.850821119144 812.083910709022  246.529771814836 814.485639651346  244.254498826815 816.930375265627  L 244.98652123967 817.611655815092  C 247.253252447502 815.176098173892  249.565588119171 812.783385749943  251.922301683775 810.434787749735  L 251.216415546713 809.726462427934  Z M 260.663011367967 800.761849805254  C 258.185020145028 803.000858267227  255.749356517155 805.286271682188  253.357312474169 807.61687776005  L 254.055161302714 808.333122838565  C 256.438225186164 806.011266271173  258.864744898811 803.734432705368  261.333433301186 801.503829880094  L 260.663011367967 800.761849805254  Z M 270.53647678352 792.269669121075  C 267.952012036874 794.384885745229  265.407556179241 796.548520689943  262.904458908925 798.759426262121  L 263.56646604871 799.508923791719  C 266.060166245886 797.306318352985  268.59506976288 795.150806079353  271.169831968382 793.043530355282  L 270.53647678352 792.269669121075  Z M 280.813210734025 784.270219677808  C 278.128450244553 786.256588351524  275.481284302706 788.293272976534  272.873117089018 790.379193200127  L 273.497700109847 791.160151617773  C 276.096075799107 789.082062310356  278.733303808358 787.053023762308  281.407985228599 785.074112270512  L 280.813210734025 784.270219677808  Z M 291.468648206324 776.782622976679  C 288.69000949705 778.635395579314  285.946461129807 780.540261491136  283.23945841087 782.496210282239  L 283.825124339373 783.306762822295  C 286.521964487789 781.35815701145  289.255213085633 779.460442305659  292.023420290115 777.614625341487  L 291.468648206324 776.782622976679  Z M 302.456427341469 769.798946481125  C 300.066342547197 771.256771061167  297.692645084078 772.741294166413  295.335780732267 774.252237003568  C 294.88253599646 774.543225493592  294.430174894324 774.835588041765  293.97870366815 775.129320613673  L 294.524052556512 775.967529770126  C 294.973736859114 775.674959792036  295.424307334414 775.383754135807  295.875757767385 775.093916818238  C 298.226250922635 773.587061359057  300.593530994845 772.106553174102  302.977153444031 770.652670280787  L 302.456427341469 769.798946481125  Z M 313.684960801942 763.214551038224  C 310.776815117677 764.852780556463  307.890654230425 766.529734349995  305.027248583987 768.244964765795  L 305.541124532415 769.102829271196  C 308.396900410711 767.392169220898  311.275370896691 765.719683801823  314.175767599486 764.085819474175  L 313.684960801942 763.214551038224  Z M 325.135079170865 757.023507801487  C 322.17187091648 758.559901018243  319.229291325139 760.135757623827  316.308125901282 761.750656952518  L 316.791943070394 762.625826048677  C 319.705324820674 761.01522974546  322.640063678683 759.443572132982  325.595376233082 757.91127275603  L 325.135079170865 757.023507801487  Z M 336.793008195427 751.233264466382  C 333.778302048451 752.665973132764  330.782843614695 754.138836827877  327.8074325143 755.651462379357  L 328.260608882165 756.542883256165  C 331.228091767131 755.03428821369  334.215568567759 753.565349079014  337.222241794585 752.136457976852  L 336.793008195427 751.233264466382  Z M 348.644723630953 745.850786574482  C 345.582146219797 747.178087171942  342.537412417443 748.546186132379  339.511334997805 749.954718249762  L 339.933325402735 750.861318546556  C 342.951339602577 749.456539573087  345.987960473732 748.092086019264  349.042377408012 746.768322117985  L 348.644723630953 745.850786574482  Z M 360.675968111766 740.882549134065  C 357.569203652972 742.102844947758  354.478857233075 743.364533379096  351.40575380201 744.667277627717  L 351.796050598378 745.587966723311  C 354.860965505164 744.288693738559  357.943077455478 743.030367174663  361.041563697554 741.813322934541  L 360.675968111766 740.882549134065  Z M 372.872268302507 736.334528830811  C 369.725054168704 737.44635187041  366.592812753356 738.600111987862  363.47638018998 739.795501193653  L 363.834513858907 740.729171518329  C 366.942642444138 739.536967520508  370.066537757426 738.386281687065  373.205365893183 737.277421186855  L 372.872268302507 736.334528830811  Z M 385.19317014056 732.152207825984  C 382.022462493104 733.189814255622  378.860572196563 734.254173482973  375.707837353793 735.345171695457  L 376.03485876023 736.290188626381  C 379.182274217828 735.201031177553  382.338829681793 734.138467767812  385.504187619842 733.102612017674  L 385.19317014056 732.152207825984  Z M 397.60227848125 728.241615183958  C 394.409558584163 729.209372254303  391.225066670007 730.204069223674  388.049143258441 731.225599728518  L 388.355342057476 732.177567320125  C 391.525906959433 731.157760371021  394.705025906942 730.164741683079  397.892358954905 729.198617440384  L 397.60227848125 728.241615183958  Z M 410.094237261402 724.604353788641  C 406.881043662962 725.501795144666  403.675484714507 726.426350518877  400.477903188321 727.377921048031  L 400.763131825 728.336380554123  C 403.955318299367 727.386415542224  407.155468736295 726.46342010451  410.363240941777 725.567492937438  L 410.094237261402 724.604353788641  Z M 422.663026697734 721.242176409614  C 419.430907812389 722.068869580905  416.205826564915 722.922837823522  412.988127815215 723.803989822121  L 413.252248839951 724.768479368095  C 416.464518595501 723.888814074566  419.684158392803 723.036286671818  422.910823953929 722.210988321092  L 422.663026697734 721.242176409614  Z M 435.302589982833 718.156703255487  C 432.053103344931 718.912249864678  428.810053941489 719.695219454655  425.573788553663 720.505528302024  L 425.816674688471 721.475583107444  C 429.04747975595 720.666641436544  432.285057392889 719.884992895445  435.529061403169 719.130721066295  L 435.302589982833 718.156703255487  Z M 448.006836203891 715.349421193134  C 444.741547717216 716.033457147855  441.482092959487 716.745050777899  438.228820466097 717.484125992145  L 438.450354665932 718.459278594717  C 441.698138144096 717.721450369499  444.952093455734 717.011057360755  448.211872653452 716.328175531235  L 448.006836203891 715.349421193134  Z M 460.769643277866 712.821683031185  C 457.490126460981 713.433878699527  454.2158370563 714.073753457888  450.94712518549 714.741238884089  L 451.147200694646 715.721019364929  C 454.410397500466 715.0546601394  457.679162429613 714.415864996189  460.953145951091 713.804702242044  L 460.769643277866 712.821683031185  Z M 473.58486090167 710.574706868112  C 470.292696129684 711.114767237473  467.005149934059 711.682614773205  463.722573854113 712.278188755028  L 463.90109425767 713.262124965112  C 467.178131880548 712.667555852894  470.460131233368 712.100666405909  473.746741369968 711.561517241986  L 473.58486090167 710.574706868112  Z M 486.434566741523 708.559525692424  C 483.136375230144 709.054234064771  479.840797315535 709.566212949031  476.547968593426 710.095441279959  L 476.706653620489 711.082770537191  C 479.996034992515 710.554096269496  483.288162678801 710.042653389572  486.582901225651 709.548462940594  L 486.434566741523 708.559525692424  Z M 499.310222714716 706.717804017734  C 496.00560066424 707.167555863657  492.703356799917 707.634612209005  489.403626991747 708.118953836864  L 489.548853087617 709.108352331445  C 492.845128320744 708.62451777374  496.143914978044 708.157950402114  499.445077331657 707.708669413381  L 499.310222714716 706.717804017734  Z M 512.209763226511 705.051577727101  C 508.899323395068 705.456289651554  505.591025898187 705.87833685427  502.285006854944 706.31770197022  L 502.416747091134 707.308986243356  C 505.719304974966 706.870081110452  509.024138927115 706.44847576019  512.331112970906 706.044187539432  L 512.209763226511 705.051577727101  Z M 525.13079638513 703.561155779821  C 521.815152609608 703.92075273927  518.501414919817 704.29771254143  515.189719658666 704.692019676382  L 515.3079496073 705.685005919613  C 518.616177766486 705.291111595301  521.926446216001 704.914546442402  525.238618755754 704.555325954586  L 525.13079638513 703.561155779821  Z M 538.070926313527 702.246814536745  C 534.750693395755 702.561229853078  531.432129961446 702.893032357072  528.115372552065 703.242208396795  L 528.220070290404 704.236712486071  C 531.533355298093 703.887902008046  534.848444439986 703.556446876928  538.165201317463 703.242360730366  L 538.070926313527 702.246814536745  Z M 551.027753593648 701.108797709037  C 547.703547186425 701.377973081925  544.380773350742 701.664556763422  541.059568801484 701.968536962095  L 541.150714915996 702.964374491921  C 544.468442407793 702.66071253821  547.787737542956 702.374428888811  551.108463749994 702.105535322786  L 551.027753593648 701.108797709037  Z M 563.998875711341 700.147316312979  C 560.671312204186 700.371201830698  557.344944091106 700.612513550034  554.019908234874 700.871241542263  L 554.097485824828 701.868227859891  C 557.419040612472 701.609770736887  560.741926262149 701.368711653219  564.06600605445 701.145060527211  L 563.998875711341 700.147316312979  Z M 576.981887501836 699.362548630848  C 573.651583906788 699.541102779521  570.322238306696 699.737097791574  566.99398768684 699.950525602832  L 567.057982367446 700.9484758425  C 570.382748553124 700.7352714745  573.70860857254 700.539481654851  577.035425584094 700.361114439269  L 576.981887501836 699.362548630848  Z M 589.974381595728 698.754640177856  C 586.641955432876 698.887829849157  583.310249688317 699.038471811634  579.979401444252 699.206559867161  L 580.029801349324 700.205288984373  C 583.357162439626 700.03737690471  586.685380132735 699.886892653315  590.014317489859 699.753842421828  L 589.974381595728 698.754640177856  Z M 242.219270010449 819.142078408003  C 239.971726981993 821.612331376621  237.770840126453 824.124634868357  235.617776897095 826.677656240008  L 236.382223102905 827.322343759992  C 238.527203349284 824.778906885448  240.719827683427 822.276035028647  242.958933034903 819.815055829805  L 242.219270010449 819.142078408003  Z M 591.239347345909 705.519576749983  L 597 699  L 590.769015801228 692.928358054476  L 591.239347345909 705.519576749983  Z " fill-rule="nonzero" fill="#02a7f0" stroke="none" />
  </g>
</svg>