<?xml version="1.0" encoding="utf-8"?>
<svg version="1.1" xmlns:xlink="http://www.w3.org/1999/xlink" width="150px" height="14px" viewBox="634 712  150 14" xmlns="http://www.w3.org/2000/svg">
  <g transform="matrix(0.681998360062497 0.731353701619166 -0.731353701619172 0.681998360062494 751.306474179874 -289.886595332922 )">
    <path d="M 549.073909683237 820.582572788807  C 545.883726885387 821.534574045943  542.681739955449 822.446562281604  539.468703006791 823.318322709619  L 539.730555832259 824.283430526287  C 542.951655184369 823.409482608868  546.161676790168 822.495205941047  549.359864644049 821.540815847946  L 549.073909683237 820.582572788807  Z M 561.452783952945 816.667819934231  C 558.295304565376 817.723232931319  555.124723926633 818.739038648275  551.94178875341 819.71499784845  L 552.234940020541 820.671063920738  C 555.425862063473 819.692655767459  558.604398570986 818.674301111397  561.769800952617 817.616239789527  L 561.452783952945 816.667819934231  Z M 573.697570021342 812.351915366612  C 570.576145220901 813.509619945715  567.440335955107 814.628165023055  564.29088075155 815.707287165391  L 564.615019325538 816.653296776787  C 567.772377388263 815.571466816824  570.91605527175 814.450114998755  574.045312595281 813.289505416832  L 573.697570021342 812.351915366612  Z M 585.795271938713 807.639439752237  C 582.713214635843 808.898207188707  579.615504920356 810.118304463539  576.502872346854 811.299444226508  L 576.857654204652 812.234393333881  C 579.978097239093 811.050289762699  583.083579969919 809.827130924421  586.173371011869 808.565204890314  L 585.795271938713 807.639439752237  Z M 597.731794215729 802.53411616986  C 597.220978243478 802.763198773371  596.709621714635 802.99107411657  596.197728911383 803.21774029119  C 593.66487925176 804.337031805561  591.120432212615 805.429893492343  588.564802395873 806.496147276475  L 588.949850991321 807.419043575711  C 591.512008095565 806.350066492237  594.062953356325 805.254412356467  596.602271075674 804.132259714435  C 597.115717869363 803.904906074136  597.62862664303 803.676339326538  598.140993099745 803.446561386473  L 597.731794215729 802.53411616986  Z M 609.477279167556 797.006880029226  C 606.49178534832 798.478989105468  603.485757487371 799.909082948261  600.460085440456 801.296738215813  L 600.876960824013 802.205701864473  C 603.911146100703 800.814142198837  606.925631919242 799.38002455  609.919525920151 797.903773450887  L 609.477279167556 797.006880029226  Z M 621.013085343332 791.054407267183  C 618.083341573511 792.634559133381  615.131543139929 794.173473655858  612.158563845128 795.670695279313  L 612.608354836553 796.563829123724  C 615.589699101333 795.062394819086  618.549802909032 793.519150305545  621.487789998518 791.934552420181  L 621.013085343332 791.054407267183  Z M 632.323823747551 784.684638601112  C 629.453738363762 786.370725303163  626.560107115531 788.016407562655  623.643786586515 789.621198218509  L 624.125893155654 790.497310800312  C 627.050419235823 788.888004799974  629.952192195151 787.237692140694  632.830353039849 785.546861354258  L 632.323823747551 784.684638601112  Z M 643.394405629602 777.906071429449  C 640.58780738299 779.695843694065  637.756203481901 781.446098317621  634.90043214842 783.156317183131  L 635.414211155494 784.014239750668  C 638.278017674931 782.299208900933  641.117588762897 780.544029645911  643.932083838835 778.749221560396  L 643.394405629602 777.906071429449  Z M 654.210062612465 770.727748495993  C 651.470695561065 772.618818731278  648.704896423194 774.471310844323  645.913483941162 776.284676453414  L 646.458249994731 777.12326452087  C 649.257516578423 775.304796707095  652.031097750564 773.447092300463  654.778172465179 771.55070122565  L 654.210062612465 770.727748495993  Z M 664.750665006183 763.152244948199  C 662.327016744052 764.963268007265  659.880341830084 766.743269006973  657.411238627154 768.491812627327  C 657.163799163993 768.666672694292  656.916136197115 768.84121627294  656.668250334009 769.015442935138  L 657.243276705291 769.833577809306  C 657.491995565074 769.658765675114  657.740490657581 769.483635386205  657.988761372695 769.308187372567  C 660.464949446834 767.554631646689  662.918643708604 765.769526558474  665.349244012946 763.953308723852  L 664.750665006183 763.152244948199  Z M 675.005652284489 755.193476699926  C 672.413687848429 757.282016582057  669.792509841635 759.334039427127  667.142894195141 761.348937787567  L 667.748204135208 762.144927659648  C 670.405274914468 760.124360048724  673.033828040005 758.066563497288  675.633085397595 755.972147162046  L 675.005652284489 755.193476699926  Z M 684.963159917239 746.865523899167  C 682.449193953198 749.047324441998  679.904700369648 751.193699130458  677.330432397209 753.304012586588  L 677.964406664464 754.077366728271  C 680.5459177665 751.961115555471  683.097570704459 749.808701686096  685.618610128401 747.620762285829  L 684.963159917239 746.865523899167  Z M 694.609904390662 738.179496201052  C 692.17729057937 740.451646839146  689.712875824256 742.689510064349  687.217389650686 744.892423415935  L 687.879182510813 745.642110157371  C 690.381690148329 743.432998543965  692.853038942801 741.18883871968  695.292497316226 738.910295009185  L 694.609904390662 738.179496201052  Z M 703.933016755235 729.14698093976  C 701.585000252037 731.506450578849  699.203951903787 733.832816986627  696.790576557413 736.12539150332  L 697.479305165538 736.850410747444  C 699.89947094343 734.551385692388  702.287218765847 732.218473667146  704.641841802627 729.852365269179  L 703.933016755235 729.14698093976  Z M 712.919626323576 719.779401246742  C 712.128873064497 720.633754855046  711.334380072347 721.484639512214  710.536170227582 722.332030713776  C 709.050811649123 723.906558896149  707.551099758155 725.467484540762  706.03722229513 727.014612244163  L 706.751967873553 727.713996800844  C 708.270191665235 726.162427307645  709.774208401714 724.597019470312  711.263829782135 723.017969275782  C 712.064128416077 722.16836217101  712.860700081356 721.315252096905  713.653521832805 720.45866362722  L 712.919626323576 719.779401246742  Z M 721.582204719037 710.108746995859  C 719.401591969025 712.624398146522  717.189541618142 715.112625645472  714.94657463561 717.572843479854  L 715.685556321972 718.246568993117  C 717.934151532569 715.780177787852  720.151752533089 713.285706633979  722.337837047051 710.763743014824  L 721.582204719037 710.108746995859  Z M 729.925174450548 700.161050068594  C 727.827663655152 702.746397461216  725.697838644563 705.3053598028  723.53620102277 707.837334421431  L 724.296736471036 708.486630834429  C 726.463798242904 705.948302787184  728.598967576879 703.382919297281  730.701741610306 700.791084548909  L 729.925174450548 700.161050068594  Z M 737.939680743962 689.946868409232  C 735.927498087018 692.599168096755  733.882158897109 695.226149337571  731.804144880617 697.82719344035  L 732.585426899841 698.451371625197  C 734.668655231517 695.843800779261  736.719126746396 693.210227711776  738.736358529332 690.551272666578  L 737.939680743962 689.946868409232  Z M 745.617217438352 679.477042794451  C 743.692498541052 682.193479770293  741.733815983558 684.885691775381  739.741631063384 687.553044755616  L 740.542830443337 688.151442243547  C 742.540014309624 685.477396132732  744.503611746485 682.778428618854  746.433160298879 680.055175347034  L 745.617217438352 679.477042794451  Z M 752.847590321241 668.917058953226  C 751.045116844057 671.642445701254  749.209192951201 674.3455613969  747.340235155098 677.025792789647  L 748.160501546352 677.597774474125  C 750.069521244947 674.860091185495  751.944160548323 672.098593762473  753.783977952316 669.3139325769  L 752.847590321241 668.917058953226  Z M 536.57408547586 824.092019024654  C 533.35458515417 824.939598139502  530.124590347766 825.74680095917  526.884861766268 826.513437375939  L 527.115138233732 827.486562624061  C 530.362996195406 826.718002503274  533.601095957238 825.908774187199  536.828674900774 825.059068260588  L 536.57408547586 824.092019024654  Z M 758.027294968766 673.460500878176  L 756 665  L 747.450725527483 666.612422399237  L 758.027294968766 673.460500878176  Z " fill-rule="nonzero" fill="#333333" stroke="none" />
  </g>
</svg>