<?xml version="1.0" encoding="utf-8"?>
<svg version="1.1" xmlns:xlink="http://www.w3.org/1999/xlink" width="214px" height="18px" viewBox="384 802  214 18" xmlns="http://www.w3.org/2000/svg">
  <g transform="matrix(0.974370064785235 0.224951054343865 -0.224951054343863 0.974370064785234 195.019603263322 -89.6650902236624 )">
    <path d="M 412.924632168245 826.218029084964  C 409.603818340691 826.470935937529  406.28084964246 826.694704185047  402.956109696129 826.889307994425  L 403.014541727008 827.887599383633  C 406.345120394785 827.692653821982  409.673924703907 827.468492605243  413.000570358078 827.215141611876  L 412.924632168245 826.218029084964  Z M 425.863351475078 825.084084457416  C 422.549169766052 825.412666186841  419.232169157596 825.712166039129  415.912732583295 825.982549438298  L 415.993918307151 826.979248429088  C 419.319184289413 826.708390197789  422.642010027937 826.408364380691  425.962011916625 826.079205614499  L 425.863351475078 825.084084457416  Z M 438.772842138711 823.655330271105  C 435.467016805193 824.059415927396  432.157710010068 824.434491564781  428.845303798705 824.780513882377  L 428.949200977343 825.775101925876  C 432.267424250339 825.428471943332  435.582542664089 825.05273761919  438.894173502273 824.647942330379  L 438.772842138711 823.655330271105  Z M 451.646387786503 821.932509858651  C 448.350638737929 822.411889209667  445.050747476861 822.862345492945  441.747094961682 823.283826705225  L 441.873649540905 824.275786350814  C 445.183103744967 823.853564956916  448.488790089629 823.402317607628  451.790326947462 822.922096397535  L 451.646387786503 821.932509858651  Z M 464.477290746789 819.916519545415  C 461.193332650247 820.470943186248  457.904573745376 820.996545758204  454.611393705375 821.493266582706  L 454.760539843102 822.482081747235  C 458.059503180814 821.984488609536  461.354037619261 821.457963003879  464.643762818455 820.902565715406  L 464.477290746789 819.916519545415  Z M 477.258875533458 817.608408183172  C 473.988416921601 818.237587665898  470.712501403277 818.838063073239  467.431507168973 819.409765082871  L 467.603167269498 820.394921319154  C 470.889923401487 819.822215318583  474.171591898552 819.220685390074  477.447793906026 818.590400977701  L 477.258875533458 817.608408183172  Z M 489.984492318983 815.009376604427  C 486.729234701135 815.712984588178  483.467866917728 816.388020423801  480.200765479775 817.034406181286  L 480.394850234138 818.015390945756  C 483.667689172027 817.367870041931  486.934784386261 816.691648746308  490.195758704594 815.986805125758  L 489.984492318983 815.009376604427  Z M 502.642541525315 812.105471582437  C 499.64016397168 812.835100624146  496.631190340344 813.537314789892  493.615996513749 814.212026358742  C 493.381539095913 814.26430784721  493.147048618749 814.316440970443  492.912525223304 814.368425697082  L 493.128933655751 815.34472861645  C 493.363989986718 815.292625758707  493.599013307315 815.240374090562  493.834003476567 815.187973643355  C 496.855256003301 814.51190863575  499.87027560494 813.808284664231  502.878685613559 813.077189632896  L 502.642541525315 812.105471582437  Z M 515.221863858806 808.877597104872  C 512.007129293642 809.746461397846  508.783926497906 810.583685160563  505.552723183096 811.389146905419  L 505.794597659709 812.359454453345  C 509.032163481079 811.552406687699  512.261713029697 810.71353436215  515.482777673091 809.842959203525  L 515.221863858806 808.877597104872  Z M 527.714536040738 805.329123381203  C 524.523069549083 806.279904700282  521.322328543853 807.199272368156  518.112777477166 808.087092977512  L 518.379383739457 809.05089850816  C 521.595254677636 808.161329706598  524.802298206625 807.240151727748  528.000048959749 806.287498241619  L 527.714536040738 805.329123381203  Z M 540.112388644902 801.462370891294  C 536.946277246227 802.494447484961  533.770091115903 803.495357849049  530.584291142993 804.464956743757  L 530.875454847142 805.421629988594  C 534.067527923684 804.45012187347  537.249968227172 803.447240634099  540.422313961048 802.41313179626  L 540.112388644902 801.462370891294  Z M 552.407314251161 797.279868249414  C 549.268628384271 798.392565204138  546.119074155947 799.474363731657  542.959108590713 800.52510685469  L 543.274639333869 801.474022209252  C 546.440827132642 800.421210086109  549.596583093728 799.337281407818  552.741449292671 798.222393460766  L 552.407314251161 797.279868249414  Z M 564.591272747198 792.784350550681  C 561.482064916352 793.976940232242  558.361202201449 795.138919494636  555.229137463742 796.270119725707  L 555.568828908536 797.210656658706  C 558.707060940767 796.077229000817  561.834068892425 794.912961705169  564.949399010655 793.718023715885  L 564.591272747198 792.784350550681  Z M 576.656296586245 787.978757582482  C 573.578600018866 789.250460111832  570.488469666439 790.491860247327  567.386353930669 791.702777852248  L 567.749983940143 792.634321311358  C 570.85820799836 791.421019309522  573.954423073008 790.177174754496  577.038179879473 788.902968137688  L 576.656296586245 787.978757582482  Z M 588.594495997361 782.866231902036  C 585.550323314513 784.216215665258  582.492946076499 785.536224875825  579.422807932341 786.826067990217  L 579.810138715212 787.748008804283  C 582.886322215296 786.45562588212  585.949719681939 785.133017464252  588.999886592572 783.780375471348  L 588.594495997361 782.866231902036  Z M 600.392450959014 777.439104322698  C 597.385211071104 778.869472016886  594.363975093778 780.270226478136  591.329181431639 781.64116444619  L 591.740864426654 782.552491561783  C 594.781633848511 781.178854103485  597.808818889336 779.775341440857  600.821980281302 778.342157234379  L 600.392450959014 777.439104322698  Z M 612.047989799463 771.711370185051  C 609.078307844712 773.218165649502  606.093877163215 774.695715445156  603.095130818802 776.143805168182  L 603.529981941257 777.044307528701  C 606.534633065231 775.593366397248  609.524940337569 774.112907183844  612.500469841693 772.603144714505  L 612.047989799463 771.711370185051  Z M 623.553258849314 765.687475423077  C 620.623076813978 767.269713307803  617.67740305929 768.82309221272  614.716665025153 770.347386730612  L 615.174399909613 771.236475463837  C 618.140967881798 769.709179483978  621.092441911746 768.152741847516  624.02839371784 766.567388405542  L 623.553258849314 765.687475423077  Z M 634.900734382245 759.371359287167  C 632.011968422103 761.028004907552  629.1069778806 762.656197109098  626.186184294229 764.25569962858  L 626.666503610711 765.132793326092  C 629.593048481221 763.53014125386  632.503759189347 761.898743007216  635.398213368583 760.238835314589  L 634.900734382245 759.371359287167  Z M 646.082995859026 752.767152122209  C 643.237535046322 754.497122135643  640.375127400127 756.199062897951  637.496188277831 757.872727444425  L 637.998777927545 758.737252541806  C 640.883385919073 757.060292411421  643.75142988266 755.355000386991  646.602493643034 753.621623919526  L 646.082995859026 752.767152122209  Z M 657.092730780084 745.879172666605  C 654.292435868203 747.68133578091  651.474482952892 749.455912141168  648.639280940776 751.20264424271  L 649.163812261527 752.054035394621  C 652.00459702088 750.303863833113  654.828098718556 748.525793185226  657.633907642707 746.720081462707  L 657.092730780084 745.879172666605  Z M 667.922739467423 738.711925228088  C 665.169441674097 740.585102941301  662.397786254591 742.431154437583  659.608175397447 744.249811840646  L 660.15430537856 745.087512290527  C 662.9494092102 743.265273800622  665.726522248446 741.415587276274  668.485241512842 739.53872112122  L 667.922739467423 738.711925228088  Z M 678.565155930358 731.269159450191  C 677.856344640456 731.778584032611  677.146362934287 732.286378125565  676.435216442324 732.792537702016  C 674.432294339094 734.215876168419  672.41906873243 735.624659686577  670.395698676957 737.018776955734  L 670.963070183583 737.842238899887  C 672.990526557865 736.44530612617  675.007817482585 735.033676744621  677.014783565837 733.6074622921  C 677.727280302275 733.100342377262  678.438609877419 732.591584610246  679.148766648304 732.081193027021  L 678.565155930358 731.269159450191  Z M 689.024967899252 723.569248977028  C 686.365581204239 725.574100283171  683.688656976601 727.55558202104  680.994504255835 729.513465437012  L 681.582381258786 730.322415762682  C 684.28126529915 728.361094021886  686.962890590685 726.37613251714  689.626947551156 724.367760403805  L 689.024967899252 723.569248977028  Z M 699.306440422441 715.632775548973  C 696.69347189565 717.697760253844  694.06243738842 719.73978146328  691.413640642475 721.758603434633  L 692.019815147212 722.553935107463  C 694.673263561154 720.531567794411  697.308918543308 718.485960502099  699.926475818591 716.41734938713  L 699.306440422441 715.632775548973  Z M 709.404224396497 707.463868245505  C 706.839033477335 709.587912007201  704.25525752904 711.689410293433  701.653194837535 713.768120495176  L 702.277351471906 714.549419730918  C 704.883983759675 712.46705901514  707.472297190094 710.361870195714  710.041992953386 708.234096307733  L 709.404224396497 707.463868245505  Z M 719.313066284946 699.066777073615  C 716.796987555742 701.248774823796  714.261814417874 703.408656848133  711.70783954628 705.54617379745  L 712.349653582636 706.313034112459  C 714.908113601369 704.171763376003  717.447738867835 702.008088288231  719.968236193102 699.822258636227  L 719.313066284946 699.066777073615  Z M 729.027810851513 690.44587075666  C 726.562153343179 692.684687275482  724.076901980828 694.901829324146  721.572343676141 697.097040943051  L 722.231481200284 697.849063365766  C 724.740437869511 695.649996639586  727.230053690644 693.42896097065  729.700041248126 691.186212768078  L 729.027810851513 690.44587075666  Z M 738.543403842211 681.605634461475  C 736.129450353199 683.900104968202  733.695413758839 686.173353536954  731.241575058283 688.425117730871  L 731.917693143187 689.161911009387  C 734.375841137364 686.90619239374  736.814152250009 684.628951673598  739.232344988476 682.330451746715  L 738.543403842211 681.605634461475  Z M 747.854894614904 672.550667464881  C 745.493901043808 674.899598223886  743.112345564594 677.227770618157  740.710503117695 679.534915870113  L 741.40325000192 680.256096675734  C 743.809310429543 677.944899744946  746.195048262656 675.612638745149  748.560188077976 673.259582925955  L 747.854894614904 672.550667464881  Z M 399.963415797534 827.056574200598  C 396.637697558897 827.233674597398  393.310489599444 827.381594821072  389.982176031156 827.500317794859  L 390.017823968844 828.499682205141  C 393.351982534371 828.380750736739  396.685033549468 828.232570743881  400.016592227573 828.055159333317  L 399.963415797534 827.056574200598  Z M 752.149553573573 668.232004540061  C 751.426428482685 668.966991358095  750.701308447051 669.700012759471  749.97420149043 670.431060632999  L 750.683216761135 671.136253759672  C 751.413664660165 670.401846835841  752.142110848579 669.665451701786  752.868547219978 668.927076552368  L 752.149553573573 668.232004540061  Z M 756.334677878031 673.693560301623  L 756 665  L 747.300460824777 664.910455939571  L 756.334677878031 673.693560301623  Z " fill-rule="nonzero" fill="#00bfbf" stroke="none" />
  </g>
</svg>