<?xml version="1.0" encoding="utf-8"?>
<svg version="1.1" xmlns:xlink="http://www.w3.org/1999/xlink" width="242px" height="50px" viewBox="924 512  242 50" xmlns="http://www.w3.org/2000/svg">
  <g transform="matrix(-0.707106781186547 0.707106781186546 -0.707106781186547 -0.707106781186546 2163.64292783712 177.789755157234 )">
    <path d="M 1108.52508856942 611.689964654249  C 1109.40469075843 614.897958703155  1110.21625286172 618.124221894521  1110.9592289731 621.366584046815  L 1111.93396556017 621.143226517625  C 1111.18783582024 617.887101869238  1110.37282896902 614.647144515251  1109.48949322987 611.425533848741  L 1108.52508856942 611.689964654249  Z M 1104.75215105001 599.279994084354  C 1105.80697203533 602.434717292124  1106.79486149662 605.61142653909  1107.71515491911 608.807984976726  L 1108.67612174376 608.531321350763  C 1107.75192205353 605.321194834994  1106.75983940709 602.131001761561  1105.70054113978 598.962888049033  L 1104.75215105001 599.279994084354  Z M 1100.30194917472 587.096475284757  C 1101.52879163962 590.188365223781  1102.69001402139 593.305891455834  1103.78483521099 596.446956942498  L 1104.72911944218 596.117825827691  C 1103.62965118613 592.963427807687  1102.46349989212 589.832668956765  1101.23144998467 586.727655214411  L 1100.30194917472 587.096475284757  Z M 1095.18797215653 575.176338283511  C 1096.583117362 578.196022983008  1097.91415282932 581.244916522013  1099.18018322282 584.320968028646  L 1100.10492259688 583.94036706956  C 1098.83351842417 580.851258987239  1097.49683325778 577.789424146968  1096.09576623373 574.756922125736  L 1095.18797215653 575.176338283511  Z M 1089.3514203534 563.603451388754  C 1090.8790881135 566.372039509551  1092.33106438027 569.181723192214  1093.70573401735 572.029377025947  C 1093.77569149232 572.175104093363  1093.84549896636 572.320903122541  1093.91515632848 572.466773881724  L 1094.81754782508 572.03585673555  C 1094.7474386252 571.889039774649  1094.67717800244 571.742295170284  1094.60676606899 571.595623156786  C 1093.22406262199 568.731281684466  1091.76359067355 565.905136692832  1090.2269751809 563.1203326207  L 1089.3514203534 563.603451388754  Z M 1082.67241548982 552.49728113797  C 1084.49030331759 555.280152613111  1086.2281400089 558.11450295652  1087.88378948027 560.996848291395  L 1088.75091658355 560.498761364482  C 1087.08575970987 557.599864448393  1085.33794366432 554.749238130228  1083.50961679663 551.950386292613  L 1082.67241548982 552.49728113797  Z M 1075.18595397368 541.918575282596  C 1077.20576641948 544.558546397078  1079.14957782515 547.255807128642  1081.01499893084 550.007042105882  L 1081.84268268801 549.445847310729  C 1079.96654958729 546.678813640455  1078.01157603808 543.966064157588  1075.98016502033 541.310933271729  L 1075.18595397368 541.918575282596  Z M 1066.93349867809 531.925922721759  C 1069.1440492519 534.408372310817  1071.28306980457 536.953604974065  1073.34793113253 539.558492207287  L 1074.13158751596 538.937297654253  C 1072.05486892732 536.317452115351  1069.90356526202 533.757603706851  1067.68032082156 531.2608988981  L 1066.93349867809 531.925922721759  Z M 1057.95491159889 522.584135550495  C 1058.48098675742 523.088146163177  1059.00394794828 523.595397048813  1059.52376532423 524.105859256804  C 1061.36570932873 525.933125218437  1063.16658690699 527.801327433164  1064.92504922481 529.709066641514  L 1065.66033804718 529.031312742451  C 1063.89120405369 527.111995933668  1062.07938361684 525.232469043861  1060.22623464747 523.394140728049  C 1059.70288643301 522.880196571044  1059.17636930726 522.369489290905  1058.64671338988 521.862048102899  L 1057.95491159889 522.584135550495  Z M 1048.27458218692 513.966342607649  C 1050.83662340464 516.084375240837  1053.33854510489 518.274097012444  1055.77737565081 520.53290709849  L 1056.45688630654 519.799241460239  C 1054.00428974396 517.527681485796  1051.48824590806 515.325599795858  1048.91174320914 513.19561189478  L 1048.27458218692 513.966342607649  Z M 1037.9901360516 506.079308918129  C 1040.70016435157 508.004371008018  1043.35547497879 510.005325556273  1045.95291410997 512.079795945635  L 1046.5769704409 511.298416591015  C 1043.96487002445 509.212236821523  1041.29457145541 507.199987854436  1038.56924635888 505.264059721869  L 1037.9901360516 506.079308918129  Z M 1027.156613295 498.965244157944  C 1030.0001251996 500.687033194068  1032.79461411318 502.488511848706  1035.53676090458 504.367540430439  L 1036.10202309798 503.542629130531  C 1033.34439821669 501.652994342967  1030.53413576731 499.841347214259  1027.67457361587 498.109839513346  L 1027.156613295 498.965244157944  Z M 1015.83199255694 492.662221242776  C 1018.79377021357 494.171522587514  1021.71248192121 495.763884229531  1024.58466100408 497.437414854421  L 1025.08810390055 496.573386353739  C 1022.19971275852 494.890409459408  1019.2645263376 493.289059707524  1016.28603088128 491.771239088052  L 1015.83199255694 492.662221242776  Z M 1004.08491325652 487.173056570531  C 1006.38672946508 488.168614526338  1008.67316515571 489.199363173717  1010.94341614864 490.26493998018  C 1011.68312795646 490.61368669744  1012.42041612968 490.967551096964  1013.15522764719 491.326507731058  L 1013.59415693068 490.427986120802  C 1012.85494042853 490.066877644474  1012.11323155931 489.710893714627  1011.36908369916 489.360059949206  C 1009.08933567006 488.29001588156  1006.79333325836 487.254949650504  1004.48188419218 486.255225389843  L 1004.08491325652 487.173056570531  Z M 992.046914380589 482.339672889576  C 995.165696661522 483.497246224402  998.260643093189 484.718052779012  1001.32983847535 486.001337099615  L 1001.71559410296 485.078736104729  C 998.63390469636 483.790227813778  995.526359413346 482.564451622166  992.394881250529 481.402166058975  L 992.046914380589 482.339672889576  Z M 979.770554422186 478.148491562548  C 982.94609441554 479.139816278257  986.101169755949 480.195544299582  989.233828034481 481.315022325858  L 989.570343443959 480.373344366477  C 986.424932797387 479.249309189522  983.257013833968 478.189283529869  980.068546910473 477.193923347633  L 979.770554422186 478.148491562548  Z M 967.290066375129 474.611199822872  C 970.513508993458 475.433511581096  973.719915221453 476.32121714024  976.907300885846 477.273767174512  L 977.19363769399 476.315638147553  C 973.993276878314 475.359210490018  970.773818070473 474.467891275315  967.537253520873 473.642232065421  L 967.290066375129 474.611199822872  Z M 954.640252450463 471.737661513467  C 957.902609028431 472.388667273481  961.151404985153 473.105874977166  964.384629915957 473.888840805416  L 964.619989664087 472.916932482084  C 961.373602980351 472.130779370857  958.111581884451 471.410652071166  954.835944964976 470.756996208807  L 954.640252450463 471.737661513467  Z M 941.856969516574 469.496747491731  C 943.878992123444 469.813232066817  945.898551238606 470.1452602653  947.915467748263 470.492802639746  C 949.178970103718 470.708550152162  950.440764489476 470.934183578482  951.700734964189 471.169682186133  L 951.884461344666 470.186704761612  C 950.619610201102 469.950293917729  949.352928437021 469.72378452412  948.084532397158 469.507197385675  C 946.062812192921 469.158831208652  944.038443441905 468.826014243255  942.011605640236 468.508775999603  L 941.856969516574 469.496747491731  Z M 928.999021789421 467.697910462633  C 932.303183962076 468.105505988552  935.602118587937 468.554414824824  938.895051520033 469.04453162792  L 939.042268784451 468.055427448848  C 935.741087883993 467.564083026494  932.433890257041 467.11404978655  929.121451989602 466.705433336406  L 928.999021789421 467.697910462633  Z M 916.089383176934 466.318104205788  C 919.405051314877 466.618048492252  922.716837983511 466.959454219282  926.023966019929 467.342241270646  L 926.13894445405 466.348873282594  C 922.823532894098 465.965127445989  919.503451033255 465.622866583527  916.179477980973 465.322171012103  L 916.089383176934 466.318104205788  Z M 903.141705909132 465.358787897009  C 906.465373619548 465.550763746262  909.786510042878 465.784305319898  913.10433582215 466.059357813708  L 913.186953833723 465.062776525421  C 909.860817735778 464.787035094329  906.531362701425 464.552908557818  903.199370039769 464.360451857372  L 903.141705909132 465.358787897009  Z M 890.169682442759 464.820976034632  C 893.497834873105 464.904780427943  896.824808875482 465.030210872776  900.149823723039 465.197237934901  L 900.199993941678 464.198497253262  C 896.866650768634 464.031051830376  893.531343533583 463.905307213843  890.194854918894 463.821292911615  L 890.169682442759 464.820976034632  Z M 877.187030981205 464.705237366667  C 880.516148536249 464.680781679025  883.845441768654 464.697968349569  887.174129407326 464.756793345175  L 887.191798776909 463.756949460672  C 883.854773613325 463.697977123254  880.517141339173 463.680747404426  877.179685182385 463.705264347411  L 877.187030981205 464.705237366667  Z M 864.202426716371 464.980497786751  C 866.27398797897 464.914832495688  868.345843003546 464.858787264879  870.417924774859 464.812363907136  C 871.675484765519 464.78179528382  872.933182207156 464.757170314581  874.190974960406 464.738489824483  L 874.176124795181 463.738600094266  C 872.915498740309 463.757322664002  871.654968185988 463.782001604901  870.394575345191 463.812636090511  C 868.319715565508 463.859124631975  866.245082813806 463.915246474879  864.17074417475 463.980999804484  L 864.202426716371 464.980497786751  Z M 851.223457173531 465.51799786497  C 854.549972021148 465.347894316197  857.877710008534 465.202618416714  861.206393140219 465.082182302706  L 861.170235489918 464.082836204338  C 857.8365803783 464.203452211089  854.503871822767 464.348945105949  851.172388233935 464.519302734609  L 851.223457173531 465.51799786497  Z M 838.257359403801 466.307216056533  C 841.579947706845 466.072603147258  844.904240628001 465.862789482271  848.229960459596 465.677792589169  L 848.174420200575 464.679336140631  C 844.843732815278 464.864609359475  841.514474471763 465.074736418464  838.186923292512 465.309699763821  L 838.257359403801 466.307216056533  Z M 825.309014844743 467.347855238944  C 828.626425725161 467.048821295529  831.946022060237 466.77454885506  835.26752653474 466.525060829938  L 835.192624576629 465.527869927116  C 831.866158844825 465.777730606947  828.541604102543 466.05241272206  825.219238079335 466.35189332582  L 825.309014844743 467.347855238944  Z M 812.383298250239 468.639523635488  C 815.694282779111 468.276181237338  819.007932776508 467.937553278646  822.323971423857 467.623668048008  L 822.22973596552 466.62811811034  C 818.908744225039 466.942472184361  815.59014470238 467.281605944099  812.2742146296 467.645491058704  L 812.383298250239 468.639523635488  Z M 799.485075855265 470.181734962726  C 802.788387523092 469.754220899894  806.094843669778 469.351364908619  809.404168077713 468.973200643034  L 809.290634596633 467.97966647217  C 805.976367124475 468.358395593303  802.664972197823 468.761853321607  799.356726446869 469.190005952681  L 799.485075855265 470.181734962726  Z M 786.619203543863 471.973908613567  C 789.913598729787 471.482383835264  793.211616221078 471.01545147742  796.512980505083 470.573150547035  L 796.380191744002 469.582006185738  C 793.073896285635 470.024967771179  789.770952619009 470.492597575496  786.47163666831 470.984856533422  L 786.619203543863 471.973908613567  Z M 773.786389001397 474.00289885549  C 775.341890816394 473.746445979842  776.89794530979 473.493356674611  778.454541570111 473.243632714529  C 780.187032589581 472.963244613173  781.920619449034 472.689670065226  783.655261941558 472.422915415676  L 783.503267892392 471.434534006999  C 781.766261070982 471.701652244854  780.030311182646 471.975598785762  778.295458478662 472.256367277756  C 776.737665494124 472.506284231662  775.180414615883 472.759568628768  773.623716761177 473.0162186934  L 773.786389001397 474.00289885549  Z M 760.9782665183 476.192783649216  C 764.25903193907 475.611771024227  767.542435228197 475.045753217515  770.828373544727 474.494747957577  L 770.662996683912 473.508517510923  C 767.374053915078 474.060026574908  764.087648491428 474.626561912198  760.803883348119 475.208105778053  L 760.9782665183 476.192783649216  Z M 748.19706527619 478.534682827346  C 751.47069633548 477.914733552196  754.747143225464 477.309746697374  758.026303322707 476.719741212016  L 757.849221065734 475.735545157225  C 754.567062713696 476.326090105959  751.287620049799 476.931630122147  748.010995791115 477.552146239364  L 748.19706527619 478.534682827346  Z M 735.444589406163 481.028265818985  C 738.710624014479 480.369467402632  741.979652018174 479.725596896673  745.251571026186 479.096674468137  L 745.06280836911 478.114651729453  C 741.787897727154 478.744149204523  738.51588073278 479.388608424601  735.24685987084 480.048009204184  L 735.444589406163 481.028265818985  Z M 722.72263898458 483.673180642303  C 725.980616124645 482.975626077471  729.241763802243 482.292962805947  732.505979873134 481.62521220981  L 732.305563460756 480.6455014047  C 729.038362798995 481.31386254937  725.774233335986 481.997150004643  722.513277309532 482.695342368854  L 722.72263898458 483.673180642303  Z M 710.033009778982 486.469053954217  C 713.282469570933 485.732841704242  716.53527659485 485.011482028547  719.7913289681 484.304997521164  L 719.579287090209 483.327736940755  C 716.320257590454 484.034867412488  713.064476407288 484.756886653455  709.812045516667 485.49377204893  L 710.033009778982 486.469053954217  Z M 697.377492994609 489.415491103091  C 700.617976760667 488.640725088076  703.861983981009 487.880770831718  707.109413048262 487.135652136971  L 706.88577563564 486.16097972653  C 703.635377326422 486.906779710275  700.38840399293 487.6674288203  697.144957335248 488.442903231932  L 697.377492994609 489.415491103091  Z M 684.757875021557 492.512076184444  C 687.988925351136 491.698865766511  691.223674859783 490.900424200897  694.46202223009 490.11677649604  L 694.226820850287 489.144829835498  C 690.985512541739 489.929194057822  687.747805384603 490.728365667442  684.513800788732 491.542319633102  L 684.757875021557 492.512076184444  Z M 672.175937182627 495.758372099655  C 675.397097996657 494.906832067561  678.622133192382 494.07001589675  681.850941756659 493.247949797612  L 681.604209609538 492.278866082149  C 678.372448828695 493.101683826082  675.14446486663 493.939265128189  671.920358828649 494.791583754164  L 672.175937182627 495.758372099655  Z M 659.620924004645 499.11738267028  C 662.836780532522 498.243938372928  666.055180979583 497.379887412269  669.276084174033 496.525240841783  L 669.019615486954 495.5586883018  C 665.796830501852 496.413834193696  662.576549726196 497.278389970259  659.358814356148 498.152344571465  L 659.620924004645 499.11738267028  Z M 647.092145325245 502.571394755759  C 650.301277202698 501.673558055264  653.513024248748 500.785095104938  656.727345375998 499.906017270756  L 656.463545173941 498.941439926323  C 653.247346101447 499.821031355747  650.033722614246 500.710013384448  646.822715823334 501.608374639926  L 647.092145325245 502.571394755759  Z M 634.589953669159 506.120436665697  C 637.79217588192 505.19825932453  640.997084361204 504.28543560679  644.204638107815 503.381977189889  L 643.933521599524 502.41943065131  C 640.724093861585 503.323416907609  637.517312936297 504.236773936403  634.313219847119 505.159490053372  L 634.589953669159 506.120436665697  Z M 622.115069819107 509.764303788923  C 625.310197750793 508.817838972991  628.508082892773 507.880707114278  631.708684334983 506.952920201371  L 631.430267151004 505.992459961868  C 628.227795779183 506.920788927966  625.028042294775 507.85846829953  621.831047631339 508.805486081089  L 622.115069819107 509.764303788923  Z M 609.668212983446 513.502786047353  C 612.856062427152 512.532088322658  616.046739865249 511.570702351115  619.240204480591 510.618640431375  L 618.954502672374 509.660321863893  C 615.759172297182 510.612940019294  612.566630727471 511.574887674059  609.376918804541 512.546152522258  L 609.668212983446 513.502786047353  Z M 597.250100754708 517.335667908105  C 600.430487922676 516.340793237878  603.613773706804 515.355208579675  606.799917383793 514.378926541933  L 606.506947422765 513.422804895941  C 603.318942263015 514.399657319819  600.133796666034 515.385817799089  596.951551378506 516.381273718071  L 597.250100754708 517.335667908105  Z M 584.861449068223 521.26272839592  C 588.03419060339 520.243734137108  591.20990120866 519.234007613822  594.388540258355 518.233561743113  L 594.088319034969 517.279692141423  C 590.907822887159 518.280722515786  587.730256894544 519.291038964933  584.555661706845 520.310628564168  L 584.861449068223 521.26272839592  Z M 572.502972160847 525.283741105908  C 575.667885146583 524.240686006125  578.835837485549 523.206875830948  582.006788651314 522.182323805525  L 581.699333474076 521.230761241114  C 578.52652970179 522.255911854047  575.356726508194 523.290326025794  572.189964443703 524.333990523382  L 572.502972160847 525.283741105908  Z M 560.175382529786 529.398474216595  C 563.332284500799 528.331418410624  566.492295933293 527.27358418523  569.655376401718 526.224985073127  L 569.340704996191 525.275784405963  C 566.175776519528 526.324996154961  563.01391887206 527.383448412736  559.855172502555 528.4511276388  L 560.175382529786 529.398474216595  Z M 1111.6093254073 624.28877055794  C 1112.31104259706 627.540311548658  1112.9438173789 630.806349408653  1113.50722410987 634.084687201533  L 1114.49277589013 633.915312798467  C 1113.92697772891 630.623059807674  1113.29151707793 627.343158957913  1112.58682138681 624.077816510705  L 1111.6093254073 624.28877055794  Z M 555.89286022931 530.852304904258  C 556.373505826639 530.688426834947  556.854224330821 530.524762676153  557.335015599479 530.361312476351  L 557.013146107259 529.414528430236  C 556.53115201974 529.578387541339  556.049231017393 529.742461558146  555.567383245862 529.90675043107  L 555.89286022931 530.852304904258  Z M 554.642292860671 524.099132787023  L 551 532  L 558.713905412144 536.023140973479  L 554.642292860671 524.099132787023  Z " fill-rule="nonzero" fill="#333333" stroke="none" />
  </g>
</svg>