<?xml version="1.0" encoding="utf-8"?>
<svg version="1.1" xmlns:xlink="http://www.w3.org/1999/xlink" width="206px" height="50px" viewBox="1018 520  206 50" xmlns="http://www.w3.org/2000/svg">
  <g transform="matrix(-0.669130606358859 0.743144825477395 -0.743144825477394 -0.669130606358859 2276.10933961346 76.6108311054186 )">
    <path d="M 1169.16821598098 609.117873589062  C 1169.58119992912 612.416056427142  1169.89884578579 615.725478430997  1170.12075631204 619.042000931021  L 1171.11852528602 618.975239605539  C 1170.89532937572 615.639506637374  1170.57584360221 612.310915293959  1170.16046750536 608.99362821753  L 1169.16821598098 609.117873589062  Z M 1167.07656977034 596.328369179191  C 1167.73579545721 599.586280667956  1168.30079473859 602.862551215674  1168.77086104238 606.153083611032  L 1169.76081094681 606.011665130192  C 1169.28802185319 602.702072810548  1168.71974989667 599.406824948196  1168.0567057421 596.130042486942  L 1167.07656977034 596.328369179191  Z M 1164.03144255453 583.731797933008  C 1164.9331953563 586.931080299313  1165.74236438825 590.155738167611  1166.45793772646 593.401738871935  L 1167.43449036322 593.186460104651  C 1166.71477217183 589.921657419304  1165.90091614743 586.678321195215  1164.99394007537 583.460507456979  L 1164.03144255453 583.731797933008  Z M 1159.98771903323 571.431342246345  C 1160.72599977529 573.342383207032  1161.41565245689 575.271856514127  1162.05601074923 577.217897948668  C 1162.44908525329 578.427638319876  1162.82877795403 579.641685927959  1163.19501929098 580.85981835696  L 1164.15267195324 580.571892362208  C 1163.78413018181 579.346108601796  1163.40204598254 578.124437335883  1163.00648942208 576.907102594714  C 1162.36067711063 574.944385314171  1161.6651330403 572.998382422548  1160.9205296371 571.070975242709  L 1159.98771903323 571.431342246345  Z M 1154.68598207436 559.62691288082  C 1156.20616165188 562.578532696214  1157.60427868358 565.591438085501  1158.87678731224 568.657987819732  L 1159.80042150256 568.2747126151  C 1158.51740181798 565.182832855611  1157.10773619167 562.145040549031  1155.57499977 559.169040041668  L 1154.68598207436 559.62691288082  Z M 1148.15457430542 548.45580371554  C 1149.981113782 551.228304215632  1151.69282938448 554.074768656896  1153.28537991751 556.987977932292  L 1154.16282849115 556.508307211256  C 1152.55712332222 553.571034519014  1150.83126876776 550.7010579803  1148.98964188184 547.905656332734  L 1148.15457430542 548.45580371554  Z M 1140.46811841068 538.045646982573  C 1142.58014919513 540.607351775879  1144.58590666369 543.254853824312  1146.48030388197 545.981438622539  L 1147.30154180755 545.410852722268  C 1145.39149666781 542.661746045124  1143.36917143035 539.992375349654  1141.23969504815 537.409510603717  L 1140.46811841068 538.045646982573  Z M 1131.68572295438 528.543486895856  C 1133.68733569667 530.495729387186  1135.6273149276 532.510181813186  1137.5028076914 534.583881696961  C 1137.85085659462 534.975049549606  1138.19636417006 535.368471221946  1138.53930860639 535.764121877912  L 1139.29495307081 535.109139860297  C 1138.94828956679 534.709198563016  1138.59902849585 534.311516207816  1138.24719201941 533.916118028595  C 1136.35684922837 531.825872353941  1134.40147441537 529.795372214148  1132.38394593874 527.827606553815  L 1131.68572295438 528.543486895856  Z M 1121.9913732988 519.96246830423  C 1124.58186629024 522.041047297427  1127.09413279478 524.215281472621  1129.52296065528 526.480659982658  L 1130.20503307414 525.749375349  C 1127.7580677866 523.46707998037  1125.22704077161 521.276609572717  1122.61720310844 519.182508658241  L 1121.9913732988 519.96246830423  Z M 1111.5136909657 512.357702151276  C 1114.29279846505 514.176412154736  1117.00328215173 516.09788435664  1119.63951863072 518.118132310855  L 1120.24778581553 517.324399968135  C 1117.5918630724 515.289065683396  1114.86113867582 513.353244765201  1112.06127801386 511.520953428726  L 1111.5136909657 512.357702151276  Z M 1100.3506101073 505.800269645831  C 1103.29235599426 507.34211130639  1106.17572216466 508.99286167087  1108.9947265471 510.749095955194  L 1109.52350306771 509.900334863218  C 1106.68344759014 508.130985787299  1103.77854969886 506.467908339125  1100.81483613676 504.914552877571  L 1100.3506101073 505.800269645831  Z M 1088.6409387053 500.242148027167  C 1091.39052253329 501.442158628137  1094.11492361794 502.699063887041  1096.81238465943 504.012053071791  C 1097.10480496037 504.154447715913  1097.39670551761 504.29790723566  1097.68808051961 504.442428774852  L 1098.13242393945 503.546572243233  C 1097.83884868072 503.40095938019  1097.54474385421 503.256416645174  1097.2501153163 503.112946916404  C 1094.54019876166 501.793893756097  1091.80321750073 500.53118399871  1089.04093697969 499.32563213506  L 1088.6409387053 500.242148027167  Z M 1076.60569279761 495.412385914722  C 1079.72788413776 496.558237715685  1082.82331843799 497.775720692944  1085.8895420198 499.063869776174  L 1086.27686017141 498.141923655497  C 1083.19650555147 496.847837991542  1080.08680559221 495.624744106298  1076.95022528019 494.473611517728  L 1076.60569279761 495.412385914722  Z M 1064.30341777224 491.310218765342  C 1067.48848467433 492.267508660577  1070.65112147244 493.297900231849  1073.78882121824 494.400576711815  L 1074.12037182959 493.457139277686  C 1070.96821163967 492.34938098846  1067.79099947221 491.314240741108  1064.59125382911 490.352539067131  L 1064.30341777224 491.310218765342  Z M 1051.77805606509 487.950299089773  C 1055.01462180424 488.715607740195  1058.23316449336 489.555227454871  1061.4311328688 490.468492686857  L 1061.70573167587 489.506933798825  C 1058.49302510151 488.589459680735  1055.25964939444 487.745970483655  1052.00816757606 486.977134821769  L 1051.77805606509 487.950299089773  Z M 1039.07246977864 485.340667086272  C 1039.35219218539 485.390847097964  1039.63186100809 485.441325350687  1039.91147576957 485.492101758314  C 1042.90673917937 486.02581618277  1045.89044614677 486.622468430197  1048.86061733795 487.281662692968  L 1049.07728350261 486.305416938514  C 1046.09396141212 485.643303989641  1043.09704600314 485.043998642195  1040.08852465572 484.507898320639  C 1039.80875134836 484.457094311574  1039.52892405449 484.406588050589  1039.24904325004 484.356379623586  L 1039.07246977864 485.340667086272  Z M 1026.25773809265 483.255982668009  C 1029.55200057584 483.737120837475  1032.84012466111 484.259388865979  1036.12134086392 484.822664532719  L 1036.29053270162 483.837081394644  C 1033.00110922057 483.27239681126  1029.70476057845 482.748822438172  1026.40225818446 482.266480801886  L 1026.25773809265 483.255982668009  Z M 1013.38207300089 481.588497809674  C 1016.6902211845 481.962416038223  1019.99356971262 482.377641754482  1023.29134553793 482.834077787617  L 1023.42844581723 481.843520614399  C 1020.12242129325 481.38594290169  1016.81081012749 480.969678584871  1013.49438730092 480.594825077832  L 1013.38207300089 481.588497809674  Z M 1000.45905329754 480.339971056049  C 1003.77759837823 480.606275006098  1007.09268760762 480.914020509273  1010.40354519089 481.263135547188  L 1010.5084093246 480.268648989481  C 1007.18927032137 479.918660713085  1003.86588908742 479.610145448695  1000.53904335809 479.343175394837  L 1000.45905329754 480.339971056049  Z M 987.502307717346 479.511719114867  C 990.827749927114 479.670127939832  994.151083734399 479.870068678704  997.471531414925 480.111494541487  L 997.544048812362 479.114127393908  C 994.215295724243 478.872097654664  990.883649290315 478.67165680572  987.549889180182 478.512851754105  L 987.502307717346 479.511719114867  Z M 974.525500562707 479.104615468198  C 977.854332859801 479.154962108686  981.182406426715 479.24688722392  984.508942430024 479.380369301649  L 984.549036613678 478.381173396715  C 981.214179974115 478.247357441399  977.877781925022 478.155202394654  974.540623247973 478.104729822541  L 974.525500562707 479.104615468198  Z M 961.537848116081 479.090345281458  C 963.286103789124 479.07473303412  965.034410258879 479.065450615476  966.782733147788 479.062498208048  C 968.364973620493 479.055782750118  969.947240019119 479.058460354297  971.52944870108 479.07053087904  L 971.53707738726 478.07055997789  C 969.951337174009 478.058462511419  968.365539127109 478.05577640222  966.779767030701 478.062501792213  C 965.029456205773 478.065460639294  963.279161824555 478.07475515384  961.528918286714 478.090385153179  L 961.537848116081 479.090345281458  Z M 948.549070603279 479.322839365197  C 951.878915698342 479.233360035681  955.209338434155 479.166852037707  958.540101091495 479.12332011849  L 958.527032552485 478.123405515492  C 955.19167142189 478.166997535169  951.856650682107 478.233597354531  948.522208380583 478.32320021981  L 948.549070603279 479.322839365197  Z M 935.566551840458 479.788243865648  C 938.894256602593 479.639059672152  942.222950892943 479.512832755837  945.552397115659 479.409572126541  L 945.521397665452 478.410052724985  C 942.18735478696 478.513455916598  938.854064878943 478.63985710264  935.521765865304 478.789247260834  L 935.566551840458 479.788243865648  Z M 922.594467963248 480.486409074394  C 925.918961957151 480.277568005558  929.244857048428 480.09166277479  932.571915841034 479.928706651649  L 932.52299545134 478.929903970699  C 929.191343299061 479.093085072156  925.860856454709 479.279246964934  922.531772642111 479.488376361149  L 922.594467963248 480.486409074394  Z M 909.636991750654 481.417110410007  C 912.957205573839 481.148679644524  916.279231612863 480.903155900136  919.602832747845 480.680556701859  L 919.536007155069 479.68279203013  C 916.207817434079 479.905698550353  912.88120498362 480.151561266469  909.556407250973 480.420362629266  L 909.636991750654 481.417110410007  Z M 896.698291282776 482.580048490288  C 900.013156909577 482.252114375292  903.330245287739 481.947051095831  906.649319649821 481.664880426739  L 906.564610350003 480.668474718945  C 903.240953651606 480.951034954754  899.919285678977 481.256519406625  896.599843526469 481.584906269659  L 896.698291282776 482.580048490288  Z M 883.782528600048 483.974849228572  C 887.090979725174 483.587517251862  890.402063422181 483.22301256818  893.715543352232 482.881361195175  L 893.612977594131 481.886634968887  C 890.294923051445 482.228758028071  886.979268050136 482.593765949358  883.666249255176 482.981632679195  L 883.782528600048 483.974849228572  Z M 870.88834311135 485.579105130222  C 873.070531923276 485.295622049799  875.253473044742 485.017960465606  877.437143176783 484.746123341181  C 878.559656713468 484.604654153924  879.682500173754 484.465815224847  880.805664311537 484.329607697222  L 880.685275087867 483.336880929766  C 879.560811623689 483.473246028336  878.43666913587 483.612244983852  877.312856877131 483.753876652225  C 875.127673350843 484.025903534078  872.943219259507 484.303758242609  870.759517913297 484.587437812849  L 870.88834311135 485.579105130222  Z M 858.010901902865 487.32078907026  C 861.31043911615 486.856869278826  864.611836680057 486.406278467509  867.915013806461 485.969027662666  L 867.783785739378 484.97767545764  C 864.477939180481 485.415279622736  861.173873622057 485.866234574933  857.871669917842 486.330529278919  L 858.010901902865 487.32078907026  Z M 845.152460883194 489.197608072876  C 848.446944350871 488.699064117832  851.743428039846 488.213828871598  855.041831281505 487.741914208419  L 854.900199869067 486.751994745527  C 851.599131052764 487.224290782259  848.299983340621 487.709918166923  845.002837466029 488.208865015739  L 845.152460883194 489.197608072876  Z M 832.314438111358 491.209355158069  C 835.603504510251 490.676242019985  838.894710779975 490.156415851768  842.18797638143 489.649889374082  L 842.035957243082 488.661511823965  C 838.740030219043 489.168447646408  835.446164190803 489.688693907431  832.154439762873 490.22223787604  L 832.314438111358 491.209355158069  Z M 819.49824939461 493.355808465656  C 822.781535998703 492.788184937507  826.067101887356 492.233825174937  829.354866659493 491.692742743681  L 829.192476560262 490.706016106931  C 825.902054810924 491.247535809033  822.6138337221 491.8023435724  819.327893759798 492.370425820341  L 819.49824939461 493.355808465656  Z M 806.705308132289 495.636731279731  C 809.982452852976 495.034659960383  813.262016020771 494.445827739532  816.543917381122 493.870249026556  L 816.371174229768 492.885282121701  C 813.086620630618 493.46132598339  809.80440711382 494.050634063619  806.524613998369 494.65319194144  L 806.705308132289 495.636731279731  Z M 793.937025159953 498.05187205478  C 797.207666586092 497.415419342058  800.48086535499 496.792179600745  803.75654136784 496.182168082209  L 803.573464214883 495.199069533708  C 800.295140994192 495.809574027517  797.019297019621 496.433317434331  793.746012454297 497.070284490536  L 793.937025159953 498.05187205478  Z M 781.194808593784 500.600964443415  C 784.45858603137 499.930200526817  787.725059425337 499.272621997382  790.994148841455 498.628244946786  L 790.800757877073 497.647123173052  C 787.529026576013 498.292020971113  784.259913411423 498.950130916628  780.993498381721 499.621436904997  L 781.194808593784 500.600964443415  Z M 768.478089845472 503.27914139834  C 769.613664721797 503.035605962618  770.749452823545 502.793065831122  771.885452841028 502.551521283527  C 774.008502282552 502.098161439238  776.13274111392 501.650389414643  778.258147268537 501.208209861196  L 778.054463820338 500.229173062638  C 775.927482802357 500.671680258111  773.801669893979 501.119783693007  771.677047175079 501.573478713073  C 770.54061830786 501.81511470705  769.404401409589 502.057746535892  768.268397790896 502.30137391972  L 768.478089845472 503.27914139834  Z M 755.779309548977 506.045978317519  C 759.033077798192 505.325890000474  762.288651804995 504.613985507999  765.54600068568 503.91027159351  L 765.3348335176 502.932821632067  C 762.075845887427 503.636889580114  758.818634024354 504.349152226708  755.563228827043 505.069602815159  L 755.779309548977 506.045978317519  Z M 743.098891717574 508.895787289539  C 746.347882103061 508.154439544582  749.598731717617 507.421263642278  752.851409722352 506.696266537831  L 752.633855994537 505.720218190917  C 749.379541590321 506.44558003632  746.127056496061 507.179124794293  742.876431566308 507.920845506098  L 743.098891717574 508.895787289539  Z M 730.437378472963 511.828446477463  C 733.681452091714 511.065870999189  736.927438331527 510.311455032282  740.175306399648 509.565205733438  L 739.9513754131 508.590600729724  C 736.701873365343 509.337225461354  733.454254092557 510.092020969658  730.208548403131 510.854980094304  L 730.437378472963 511.828446477463  Z M 717.795311128623 514.843830502285  C 721.034329287713 514.06005989286  724.27531337845 513.284436114586  727.518232654809 512.516966525523  L 727.287933983176 511.543846531974  C 724.043383216763 512.311702229631  720.80076860984 513.087716218745  717.56012092332 513.871881137694  L 717.795311128623 514.843830502285  Z M 705.173230166669 517.94181044829  C 708.407054389549 517.13687821597  711.64289777025 516.340079786374  714.880729611515 515.551422718436  L 714.64407310068 514.579829338529  C 711.404612328814 515.368883174334  708.167141018181 516.166082467587  704.931689880905 516.971419655695  L 705.173230166669 517.94181044829  Z M 692.571675214745 521.12225386857  C 695.8001672468 520.296194426356  699.030731576525 519.478255410696  702.263337556744 518.668444581078  L 702.020333324404 517.698419353022  C 698.786101042677 518.508637592817  695.553911438874 519.326988107813  692.323795175011 520.153463134767  L 692.571675214745 521.12225386857  Z M 679.991185022951 524.38502479068  C 683.214206837652 523.537873454786  686.439354000915 522.698828822201  689.666595917677 521.867898852446  L 689.417254352911 520.899483247408  C 686.188388833385 521.730831252201  682.961619121141 522.570298002272  679.736975826781 523.417875534059  L 679.991185022951 524.38502479068  Z M 667.432297440816 527.729983722457  C 670.649711245139 526.861776710927  673.869303358774 526.001662332688  677.091043238634 525.149648747331  L 676.835375001459 524.182884167663  C 673.612014286751 525.035326395108  670.390802419083 525.895873490811  667.171769956331 526.764517291229  L 667.432297440816 527.729983722457  Z M 654.951682717917 531.141446718177  C 658.144665801038 530.257495307058  661.339853934198 529.381528317251  664.537217158049 528.513553962168  L 664.275233178966 527.548481739636  C 661.057515076347 528.421981745554  657.841998768658 529.303572396202  654.628714759743 530.193245328412  L 654.951682717917 531.141446718177  Z M 1170.29459511836 622.028244496184  C 1170.45901023399 625.348113988286  1170.52751278594 628.6720394222  1170.50001710687 631.995863990746  L 1171.49998289313 632.004136009254  C 1171.52763783688 628.661058676413  1171.45873849399 625.317879893953  1171.29337102801 621.978780546753  L 1170.29459511836 622.028244496184  Z M 654.09914255539 524.326211476032  L 650 532  L 657.464824631822 536.468377022604  L 654.09914255539 524.326211476032  Z " fill-rule="nonzero" fill="#333333" stroke="none" />
  </g>
</svg>