<?xml version="1.0" encoding="utf-8"?>
<svg version="1.1" xmlns:xlink="http://www.w3.org/1999/xlink" width="162px" height="44px" viewBox="1160 538  162 44" xmlns="http://www.w3.org/2000/svg">
  <g transform="matrix(-0.629320391049835 0.777145961456969 -0.777145961456972 -0.629320391049836 2457.18834370875 -52.0187191801899 )">
    <path d="M 1276.67600983657 609.143317375638  C 1276.69060360236 612.46274249574  1276.56185078517 615.781249655935  1276.29011117672 619.089565495023  L 1277.28675479622 619.171428158716  C 1277.56085107348 615.834420864613  1277.69072050282 612.487133864907  1277.67600017222 609.138920944262  L 1276.67600983657 609.143317375638  Z M 1275.89347798274 596.22992903687  C 1276.27982338909 599.526826568331  1276.52362161969 602.838869666323  1276.62419139559 606.156803033065  L 1277.62373233446 606.126505978508  C 1277.52229036457 602.779797748493  1277.27637778749 599.439030870738  1276.88668179057 596.113540909831  L 1275.89347798274 596.22992903687  Z M 1273.57418964451 583.522063837657  C 1274.04231093144 585.290834871547  1274.44774837404 587.075604073003  1274.78974220317 588.873026875365  C 1275.05724293874 590.333266891263  1275.29651848629 591.798536733767  1275.50743501202 593.268016834596  L 1276.49729085216 593.125941447077  C 1276.28438331365 591.642589727313  1276.04282728843 590.163491348175  1275.77275809147 588.689474871559  C 1275.42622440942 586.86775983592  1275.01535009945 585.058874758682  1274.54090606745 583.266213573635  L 1273.57418964451 583.522063837657  Z M 1269.24812401182 571.36705619106  C 1270.61458817611 574.385269317872  1271.78641625183 577.487871264252  1272.7564181215 580.655825046108  L 1273.71259948105 580.363050034105  C 1272.73010141787 577.154284615982  1271.5431770925 574.011712938087  1270.15910925016 570.954617231291  L 1269.24812401182 571.36705619106  Z M 1262.9685110645 560.096496489834  C 1264.81602412024 562.846683810727  1266.48556739559 565.712332974264  1267.96689688587 568.67586089422  L 1268.861376525 568.228752210353  C 1267.360963587 565.227046200732  1265.66991217184 562.324479885186  1263.79859825408 559.53886286666  L 1262.9685110645 560.096496489834  Z M 1254.89390318014 550.030116350769  C 1256.30687277965 551.540422713843  1257.6720323734 553.094758418241  1258.98736077857 554.690822197046  C 1259.76830711138 555.660416825282  1260.52581383973 556.648659205734  1261.25922349641 557.65469160746  L 1262.0672905344 557.065601069333  C 1261.32332989049 556.045095671609  1260.55488938416 555.04266323394  1259.76263795344 554.059176387564  C 1258.43288773927 552.445427822286  1257.0527093638 550.873903009472  1255.62414990293 549.346932829415  L 1254.89390318014 550.030116350769  Z M 1245.46465431689 541.189804226362  C 1248.02798707481 543.295366631333  1250.48356480965 545.528789780944  1252.82204204741 547.881573680397  L 1253.53130195217 547.176626599055  C 1251.16913722133 544.800010287875  1248.68868582954 542.543963785529  1246.09938791532 540.417073187109  L 1245.46465431689 541.189804226362  Z M 1234.9612806779 533.657142360747  C 1237.7777244573 535.409772471912  1240.50404109388 537.303245094941  1243.12985473154 539.330354023765  L 1243.74093808949 538.538787772819  C 1241.08852639845 536.491145341271  1238.33459366819 534.578492878072  1235.48962085654 532.808109584209  L 1234.9612806779 533.657142360747  Z M 1223.57548742851 527.511156373395  C 1224.74155145859 528.071573936143  1225.90189341033 528.643820433019  1227.05633374343 529.227807320029  C 1228.86799507562 530.136308441718  1230.65125047631 531.100382358349  1232.40356464177 532.118658419256  L 1232.90599655843 531.254041643381  C 1231.13643745145 530.225744484965  1229.33564140457 529.252167200132  1227.50616719943 528.334693161366  C 1226.34619931243 527.747923353743  1225.18030432688 527.172944858645  1224.00866248076 526.609846563115  L 1223.57548742851 527.511156373395  Z M 1211.70750845024 522.295265165925  C 1214.79496648867 523.528976488662  1217.84969623508 524.843066437899  1220.86857690778 526.236192509321  L 1221.28758463421 525.32820984143  C 1218.25290385812 523.92779247951  1215.18218638279 522.606824896037  1212.07856932335 521.366656621679  L 1211.70750845024 522.295265165925  Z M 1199.51316028406 517.896138102675  C 1202.6771689714 518.917651584374  1205.81397511165 520.021577966327  1208.920374072 521.206789452115  L 1209.2768477467 520.27248408488  C 1206.15419063306 519.08106948408  1203.00096719557 517.971365414017  1199.82039883932 516.944505573724  L 1199.51316028406 517.896138102675  Z M 1187.04857829629 514.334026090532  C 1190.27457245987 515.138639304075  1193.47901504528 516.027320312726  1196.65863232075 516.99916121966  L 1196.95093095561 516.042834127052  C 1193.7546723196 515.065906835965  1190.53345844389 514.17257468229  1187.29058019417 513.363750314567  L 1187.04857829629 514.334026090532  Z M 1174.3724928782 511.573055730315  C 1175.88314653227 511.869733488559  1177.39204252389 512.175292026109  1178.89910258827 512.489715493974  C 1180.65126280243 512.846162156042  1182.3983331365 513.227186919082  1184.13979725948 513.632677174633  L 1184.36657528927 512.65873070526  C 1182.61680720667 512.251306918799  1180.86140874836 511.868453895705  1179.10089822649 511.510284680037  C 1177.59081195838 511.19523982229  1176.07888711855 510.889072911794  1174.56520204441 510.591799811985  L 1174.3724928782 511.573055730315  Z M 1161.59335066432 509.282065220544  C 1164.87951044108 509.815285263155  1168.15875677684 510.390271560564  1171.43029433296 511.006884657303  L 1171.61551129369 510.024187004178  C 1168.33564288184 509.406003723797  1165.0480460602 508.829553243931  1161.75351819274 508.294975375169  L 1161.59335066432 509.282065220544  Z M 1148.74546139374 507.41475310705  C 1152.04745137807 507.839054692722  1155.3439123218 508.305328238275  1158.6340447111 508.81346065511  L 1158.78667647062 507.825177524632  C 1155.48816587449 507.315751166405  1152.18331060848 506.848290271608  1148.87291222238 506.422908216818  L 1148.74546139374 507.41475310705  Z M 1135.84286771815 505.973160348707  C 1139.15707885845 506.288079718821  1142.46715140177 506.645130878847  1145.77228253292 507.044227230655  L 1145.89216226579 506.051438809264  C 1142.57861473403 505.651326172582  1139.26011320699 505.293365794291  1135.93746254417 504.977644493037  L 1135.84286771815 505.973160348707  Z M 1122.89967208077 504.958862596158  C 1126.22248196781 505.164055546081  1129.54254822494 505.411494066197  1132.8590656131 505.701118143501  L 1132.94606229163 504.704909541889  C 1129.62109950816 504.414547947022  1126.29257881867 504.166479333386  1122.96130751269 503.960763866807  L 1122.89967208077 504.958862596158  Z M 1109.92675458102 504.346952356805  C 1111.45481970007 504.403581583412  1112.98270861041 504.46486961559  1114.51040000747 504.530815598754  C 1116.31033241743 504.603362131392  1118.10974434596 504.688292743065  1119.90850800599 504.78560140234  L 1119.96252654343 503.787061469431  C 1118.15965801039 503.689530746693  1116.35613989523 503.604403046559  1114.55210020903 503.531684411269  C 1113.02285354392 503.465674196182  1111.49340923367 503.404325224476  1109.96378859127 503.347638351057  L 1109.92675458102 504.346952356805  Z M 1096.94079221265 503.977948492292  C 1100.27127261495 504.043812074468  1103.60127882126 504.131795880344  1106.93059047778 504.241894087837  L 1106.96364177109 503.242440431077  C 1103.62990455393 503.132195873123  1100.29547186373 503.044095112842  1096.96056434721 502.978143980052  L 1096.94079221265 503.977948492292  Z M 1083.95039410297 503.833243838414  C 1087.28151525459 503.841586199657  1090.61254425727 503.872053674841  1093.94326068972 503.924644247867  L 1093.95904828967 502.924768879789  C 1090.62390442928 502.872108399589  1087.28844758307 502.841600424845  1083.95289846553 502.833246974335  L 1083.95039410297 503.833243838414  Z M 1070.95943415692 503.912881547974  C 1074.29020267434 503.863700200483  1077.62126111752 503.83664225918  1080.95238906307 503.831709514549  L 1080.95090826158 502.831710610936  C 1077.61535234105 502.836649912527  1074.27986601526 502.863743821192  1070.94467000064 502.912990544069  L 1070.95943415692 503.912881547974  Z M 1057.97178644696 504.216837871975  C 1061.3012090519 504.110147482265  1064.63130357078 504.025572193504  1067.96184964397 503.963117602224  L 1067.94310088264 502.963293375697  C 1064.60812760794 503.025830986115  1061.27360648777 503.110518698436  1057.93975817471 503.21735090869  L 1057.97178644696 504.216837871975  Z M 1044.99132405783 504.745022166705  C 1048.31840787337 504.580854551232  1051.64654539063 504.438787136459  1054.97551637948 504.318829323298  L 1054.93950524943 503.31947793439  C 1051.60610915278 503.439595204109  1048.27354763562 503.581851465114  1044.94204122086 503.746237303995  L 1044.99132405783 504.745022166705  Z M 1032.0203894966 505.493534708935  C 1032.64911023346 505.4532397116  1033.27785969716 505.413394201544  1033.90663740633 505.37399820927  C 1036.60263934633 505.201052424815  1039.29955332428 505.042630256698  1041.99726196235 504.89873859993  L 1041.94399920258 503.900158068165  C 1039.2429522814 504.044227783853  1036.54270092899 504.202844657705  1033.84336264678 504.376001787506  C 1033.21435678163 504.415412429997  1032.58537916154 504.455272576499  1031.95643026722 504.495582196549  L 1032.0203894966 505.493534708935  Z M 1019.05620661218 506.38842249054  C 1022.3792053616 506.142625901337  1025.70312162294 505.909394884562  1029.02788411384 505.688734441925  L 1028.96166102013 504.690929600355  C 1025.63438330856 504.91175697513  1022.30795246692 505.14516443381  1018.98243983112 505.391146970931  L 1019.05620661218 506.38842249054  Z M 1006.10144763515 507.410714938519  C 1009.42186943672 507.132262588004  1012.74333223514 506.86636618286  1016.06576480067 506.613031425313  L 1015.9897357164 505.615925824916  C 1012.66478969288 505.869452233085  1009.3408141701 506.135549791881  1006.0178804317 506.414212794764  L 1006.10144763515 507.410714938519  Z M 993.157364596167 508.560313251997  C 996.474888543122 508.249232051584  999.793576871245 507.950695955998  1003.11335841029 507.664711367433  L 1003.02753068339 506.668401374863  C 999.705237691881 506.95460231402  996.384038738325 507.253364255555  993.064005046803 507.56468079243  L 993.157364596167 508.560313251997  Z M 980.225208494133 509.837106326448  C 983.539513959759 509.493426341014  986.855107078337 509.162279407421  990.171916745996 508.843672627214  L 990.076298671406 507.848254532235  C 986.756979799541 508.167102342092  983.438878397091 508.498499792103  980.122065621716 508.842439775352  L 980.225208494133 509.837106326448  Z M 967.306229175235 511.240970764433  C 970.616995843877 510.864725209405  973.929173312807 510.500999441961  977.242690551403 510.149801262308  L 977.137291370269 509.155371268484  C 973.821267418164 509.506835133558  970.506584249463 509.870836063665  967.193312948151 510.247366252738  L 967.306229175235 511.240970764433  Z M 954.401675212177 512.771770887522  C 957.70858311019 512.362996125676  961.01702481948 511.966726677163  964.326929389537 511.582971040099  L 964.211759288308 510.589625255499  C 960.899350737829 510.973671208063  957.588406154789 511.370240438917  954.27899654337 511.779324443516  L 954.401675212177 512.771770887522  Z M 941.512793783501 514.429358749411  C 944.815523310179 513.988094287351  948.119909510883 513.55931945578  951.425881522077 513.143043449902  L 951.300951631526 512.150877877809  C 947.992478614936 512.567468801216  944.685592608521 512.996568005819  941.380364529423 513.438166289459  L 941.512793783501 514.429358749411  Z M 928.636773108246 516.196463211305  C 931.456718142754 515.800932932978  934.277444547429 515.410993597636  937.098935692058 515.026647504251  C 937.579518915535 514.9607896912  938.060138354033 514.895196418612  938.540793788714 514.829867716353  L 938.406116182866 513.838978245987  C 937.92522948589 513.904338380461  937.444378793305 513.969963139617  936.963564322317 514.035852493809  C 934.140896008521 514.42035947667  931.318992719271 514.810461772702  928.497871089223 515.206157082317  L 928.636773108246 516.196463211305  Z M 915.771303690102 518.040581298668  C 919.068707251164 517.557781671067  922.367226555781 517.082633254914  925.666834968293 516.615139887048  L 925.526554473292 515.625028083905  C 922.225414570587 516.092738435552  918.925364281487 516.568107388493  915.626430253597 517.051131104168  L 915.771303690102 518.040581298668  Z M 902.917192861256 519.96227577727  C 906.211623974049 519.459593603347  909.507216965434 518.96455577102  912.803945223382 518.477166277737  L 912.657694508237 517.487918721096  C 909.359436096899 517.975534432808  906.062313479258 518.470802033455  902.766353279279 518.973717523797  L 902.917192861256 519.96227577727  Z M 890.074908388593 521.961476715782  C 893.366247167529 521.43893028833  896.658793917079 520.924021054555  899.952522051282 520.416753172139  L 899.800306438122 519.428405861165  C 896.505049543261 519.935909188387  893.210974580856 520.451057413729  889.918108150265 520.973846377417  L 890.074908388593 521.961476715782  Z M 877.244917608632 524.038111362382  C 880.533044279919 523.495719697177  883.822424971355 522.960957799581  887.113033121071 522.433829987816  L 886.954858149091 521.446418888911  C 883.662722686345 521.973791363408  880.371815252539 522.508801466889  877.082162419983 523.051444879437  L 877.244917608632 524.038111362382  Z M 864.427687410518 526.192104147399  C 867.712482317991 525.62988698228  870.998577248776 525.075291881166  874.285945667537 524.528323322431  L 874.121817092795 523.541884367932  C 870.832922864948 524.089106798302  867.545302716366 524.643959310823  864.258983194284 525.206437425112  L 864.427687410518 526.192104147399  Z M 851.623684219035 528.423376686066  C 854.905027827526 527.841354480369  858.187717415184 527.266946357701  861.471726474173 526.70015695643  L 861.301650269383 525.714726043293  C 858.016116960531 526.281778515906  854.731903735641 526.856453246055  851.449037114437 527.438745593293  L 851.623684219035 528.423376686066  Z M 838.833373977625 530.731847781368  C 842.111146877808 530.130041715098  845.390311663298 529.535841473937  848.670841856189 528.949251855806  L 848.494824210499 527.964864844308  C 845.212771382681 528.551726723869  841.932084595482 529.146202758972  838.652790340151 529.748288149278  L 838.833373977625 530.731847781368  Z M 829.006190095644 532.559714534829  C 831.298016066053 532.127929721759  833.590541604513 531.69986637078  835.883757643544 531.275526174985  L 835.701804962317 530.292218887412  C 832.423352050913 530.898868817751  829.146311087076 531.513124524559  825.870708532613 532.134981047775  L 829.006190095644 532.559714534829  Z M 1276.00705278722 622.063087147435  C 1275.64971120325 625.363254279311  1275.15002810409 628.646451480306  1274.50939982297 631.903504060692  L 1275.49060017703 632.096495939308  C 1276.13678432354 628.811196485848  1276.64080093735 625.499525671883  1277.00124157549 622.170737754865  L 1276.00705278722 622.063087147435  Z M 828.726664533497 525.695984502496  L 824 533  L 831.064898658776 538.077125854382  L 828.726664533497 525.695984502496  Z " fill-rule="nonzero" fill="#333333" stroke="none" />
  </g>
</svg>