<?xml version="1.0" encoding="utf-8"?>
<svg version="1.1" xmlns:xlink="http://www.w3.org/1999/xlink" width="698px" height="52px" viewBox="824 752  698 52" xmlns="http://www.w3.org/2000/svg">
  <g transform="matrix(0.939692620785908 0.342020143325669 -0.34202014332567 0.939692620785909 336.832227325501 -354.270487092447 )">
    <path d="M 458.961558202992 716.125612364157  C 450.638260108214 707.507237668539  442.568354207907 698.647696655996  434.762154046617 689.558312044787  L 433.24490343572 690.861366373559  C 441.076465854087 699.980282293781  449.172590788479 708.868607856065  457.522931185741 717.514983554745  L 458.961558202992 716.125612364157  Z M 495.057113176797 750.585068285855  C 494.568308817847 750.156408007733  494.0803435271 749.72679187755  493.593220105966 749.296222361734  C 485.111516818707 741.783465911161  476.838854123153 734.037965348351  468.784687641649 726.068573751313  L 467.377975862159 727.490249512323  C 475.458557169082 735.485777903059  483.758357932452 743.256674064976  492.267890931623 750.794055350335  C 492.757228180766 751.226583489153  493.247411578937 751.658153399428  493.738438309147 752.08876260101  L 495.057113176797 750.585068285855  Z M 534.156938535361 781.554809492594  C 524.407744954628 774.597204998375  514.912475833848 767.290492016218  505.689619821207 759.648897762223  L 504.413603965829 761.188957350948  C 513.673463287379 768.86121068412  523.206828674207 776.197239157831  532.995137299259 783.182758474532  L 534.156938535361 781.554809492594  Z M 576.156000095048 808.462058359549  C 565.76030085379 802.513573421529  555.582366621753 796.19235162127  545.642015293824 789.510701282478  L 544.526293693198 791.17057034656  C 554.50652701542 797.87902834354  564.725296455538 804.225611715377  575.162704606684 810.197962755763  L 576.156000095048 808.462058359549  Z M 620.664749515067 830.962879766376  C 612.473478034471 827.347015062739  604.384580514029 823.503542508664  596.407479323546 819.436939181484  C 593.718512054528 818.059106088431  591.042127261651 816.656854063214  588.378656775475 815.23035696352  L 587.434400190049 816.993416662135  C 590.109166750695 818.425963694633  592.796905334235 819.834157266944  595.497282550401 821.217822705076  C 603.508091907618 825.301653230867  611.631179731139 829.161392802792  619.857082368462 832.792544702995  L 620.664749515067 830.962879766376  Z M 667.272424191169 848.715535797758  C 655.874668161316 845.037417233836  644.618000459474 840.935649666895  633.525873659213 836.418778876929  L 632.771586937261 838.271088662328  C 643.909751893463 842.806706840017  655.213140682463 846.925498898137  666.658203390191 850.618883587219  L 667.272424191169 848.715535797758  Z M 715.465599266018 861.552172832445  C 714.402557824764 861.327748959446  713.340168742552 861.100246055114  712.278445392434 860.869666983189  C 701.640490803794 858.542452377637  691.084480893744 855.855301411246  680.628599649129 852.812843022246  L 680.069813995942 854.733196790121  C 690.569578938622 857.788424483037  701.169897307532 860.486836949162  711.852507098626 862.823785420633  C 712.91849898424 863.055294511329  713.985159596479 863.28371363304  715.05247549591 863.50903990779  L 715.465599266018 861.552172832445  Z M 764.693469532667 869.683540188977  C 752.798950860904 868.257267439224  740.953024483638 866.451427190399  729.173810286708 864.268781710146  L 728.809420394855 866.235306565498  C 740.630510719145 868.4257115396  752.518550391359 870.23797170702  764.455355107884 871.669314980012  L 764.693469532667 869.683540188977  Z M 814.448191573361 873.421183929384  C 802.474081715714 873.054412192986  790.514742173875 872.305260364001  778.588466313874 871.174874367634  L 778.399749806912 873.165950980927  C 790.368424611231 874.30035559748  802.370280641648 875.052170726146  814.386959497621 875.420246367854  L 814.448191573361 873.421183929384  Z M 864.353527842917 872.852620517753  C 856.657545194102 873.220699127021  848.956379519233 873.470961896903  841.252736751716 873.603320893388  C 836.975796833446 873.676168612022  832.698165155509 873.700234079884  828.420676324066 873.675512601572  L 828.409117642595 875.675479200514  C 832.701862874525 875.700288852235  836.99475146248 875.6761369855  841.286945804193 875.603028312675  C 849.011043041486 875.470319397315  856.73265661342 875.219392896077  864.449073367083 874.850336977317  L 864.353527842917 872.852620517753  Z M 914.115189609766 868.820282452014  C 902.208180565118 870.182648712266  890.270423564651 871.261337238156  878.312065772106 872.055431138083  L 878.444583774795 874.051036053631  C 890.434616097213 873.254838808798  902.403993061504 872.17329312204  914.342540626762 870.80731831356  L 914.115189609766 868.820282452014  Z M 963.501612607696 861.508377396268  C 951.710659177729 863.654612105887  939.870278833885 865.519821062334  927.990535969175 867.102418827015  L 928.254639112209 869.084904521753  C 940.165848276623 867.498114873784  952.037590659258 865.62796547168  963.859775209178 863.476045953444  L 963.501612607696 861.508377396268  Z M 1012.3540515327 851.13894913348  C 1002.71944640198 853.430490470669  993.054000160463 855.59036770383  983.360415737157 857.617976826205  C 981.319727683712 858.046226167504  979.277274473705 858.466020658345  977.233108673596 858.87734949451  L 977.6276423797 860.838049154006  C 979.677008108471 860.425673983633  981.724657071384 860.004812511874  983.77053657912 859.575475568174  C 993.481726212744 857.544177857498  1003.16472710903 855.38037473416  1012.81683154912 853.084671276131  L 1012.3540515327 851.13894913348  Z M 1060.67002772281 838.46857444621  C 1049.14578342152 841.775230842059  1037.56766527112 844.891158044986  1025.9404184213 847.815079030452  L 1026.42817541981 849.754690617963  C 1038.07679763356 846.825394338073  1049.67620083031 843.703738859265  1061.22163113711 840.391003553701  L 1060.67002772281 838.46857444621  Z M 1108.35349121874 823.593788432554  C 1096.99317353347 827.425937350109  1085.57028406522 831.0700309869  1074.08950434498 834.524575855886  L 1074.6657779327 836.439754372917  C 1086.16766375377 832.978858718172  1097.61155289823 829.328065831892  1108.99275522866 825.488871946708  L 1108.35349121874 823.593788432554  Z M 1155.3312911271 806.600964494248  C 1149.76772553725 808.728299810677  1144.19231386793 810.824524142366  1138.60531734675 812.889539273849  C 1132.94662539129 814.98620832237  1127.27058606352 817.035757995416  1121.57778877595 819.0379754632  L 1122.24136414489 820.924683636112  C 1127.94437501633 818.918873942049  1133.63059860818 816.865649216257  1139.29944450252 814.765222651317  C 1144.89317926926 812.697713808525  1150.47531571538 810.598959523814  1156.04559232208 808.469058122215  L 1155.3312911271 806.600964494248  Z M 1201.71794463391 788.028125690477  C 1190.65560186019 792.659283415585  1179.54149607685 797.165812872509  1168.37773812144 801.546858162287  L 1169.10836137765 803.40862873287  C 1180.28608601235 799.022102434386  1191.41409635643 794.509934978889  1202.49027893162 789.87298333609  L 1201.71794463391 788.028125690477  Z M 1247.5014978148 768.014674640648  C 1236.58929247288 772.989292625363  1225.62145449967 777.840960926341  1214.60006695292 782.568758094406  L 1215.38851772965 784.406785671095  C 1226.42369383988 779.673073682314  1237.40525338208 774.815335588779  1248.33111069255 769.834493992419  L 1247.5014978148 768.014674640648  Z M 1292.63722297817 746.580163245046  C 1281.88581561581 751.893381596162  1271.07496035012 757.085448962202  1260.20671042402 762.155379243975  L 1261.05221845377 763.967868187838  C 1271.93406535696 758.891595051752  1282.75844579478 753.69303202898  1293.52330395563 748.373166452348  L 1292.63722297817 746.580163245046  Z M 1337.15024254434 723.862579156174  C 1327.13097259716 729.115893975187  1317.07357279473 734.296163351013  1306.97884343328 739.402975074722  C 1306.37046394765 739.711260883974  1305.76188723683 740.019157327136  1305.15311367296 740.326664215935  L 1306.05485294684 742.111843837697  C 1306.66418827458 741.804053187787  1307.27332663336 741.495872751316  1307.88226764872 741.187302717729  C 1317.98546140191 736.076205297548  1328.05129500992 730.891590083668  1338.07896753745 725.633869614336  L 1337.15024254434 723.862579156174  Z M 1381.16119484213 700.181455912747  C 1370.6598787724 705.978028733793  1360.11395468129 711.693417699461  1349.52436595527 717.327111539181  L 1350.46371327128 719.092791753691  C 1361.06239242149 713.454261780283  1371.61736945375 707.733966551353  1382.12770017174 701.932417776361  L 1381.16119484213 700.181455912747  Z M 1424.65406342544 675.561750337272  C 1414.27949939458 681.582241748742  1403.8585962195 687.522524821124  1393.39228610293 693.382068165929  L 1394.3692909723 695.127193228846  C 1404.84458568697 689.262619874287  1415.27443448145 683.31723748272  1425.65790435278 677.291577898794  L 1424.65406342544 675.561750337272  Z M 1467.6088349901 650.014791221632  C 1457.36579686822 656.256430885999  1447.07470980232 662.418874635549  1436.7364943824 668.501571208391  L 1437.75070723499 670.225338097982  C 1448.09779729263 664.137419953886  1458.39771853984 657.969686175686  1468.64954959636 651.722688498494  L 1467.6088349901 650.014791221632  Z M 425.776726711271 678.852311450901  C 420.715826354064 672.681389017251  415.775411213409 666.412630143271  410.958283386718 660.049590334421  L 409.340162545309 661.225685599968  C 414.180382472732 667.620067017815  419.144697406675 673.919560700486  424.230282547383 680.120582103395  L 425.776726711271 678.852311450901  Z M 418.946601626874 656.652954674663  L 403 651  L 403.638138615132 667.906885553167  L 418.946601626874 656.652954674663  Z M 1482.10997298314 653.452427890367  L 1489 638  L 1472.09531466945 637.30601594034  L 1482.10997298314 653.452427890367  Z " fill-rule="nonzero" fill="#000000" stroke="none" />
  </g>
</svg>