<?xml version="1.0" encoding="utf-8"?>
<svg version="1.1" xmlns:xlink="http://www.w3.org/1999/xlink" width="366px" height="46px" viewBox="1148 470  366 46" xmlns="http://www.w3.org/2000/svg">
  <g transform="matrix(-0.898794046299167 0.438371146789077 -0.438371146789079 -0.898794046299166 2743.41185099121 352.633468449227 )">
    <path d="M 1417.48796495312 531.409681319864  C 1426.92061237097 538.805554031755  1436.19640731628 546.399319773137  1445.30917624652 554.185924482771  L 1446.60841623551 552.665406330623  C 1437.47429255228 544.860554585262  1428.17676082077 537.248993704669  1418.72200905052 529.835789593711  L 1417.48796495312 531.409681319864  Z M 1377.21711508203 501.9175656967  C 1384.36146422411 506.715921528373  1391.39357791622 511.679310976139  1398.30778503545 516.80373126176  C 1401.02164071907 518.810447634228  1403.72356860859 520.833245050154  1406.41342608892 522.872016740794  L 1407.62151824529 521.278117954258  C 1404.92565072142 519.234790964053  1402.21768713256 517.207472196604  1399.49777038138 515.196268636103  C 1392.55900761755 510.053670352908  1385.5019250379 505.072667880514  1378.33221341648 500.257277858847  L 1377.21711508203 501.9175656967  Z M 1334.59318073217 475.983532886282  C 1345.0960096695 481.745436113146  1355.41010723875 487.844870060035  1365.51936084914 494.272306245909  L 1366.59243141907 492.584550472126  C 1356.44685721914 486.134021753359  1346.0957030957 480.012673722069  1335.55513952893 474.230069093285  L 1334.59318073217 475.983532886282  Z M 1289.68883193045 454.321629650729  C 1299.01300866975 458.117638699085  1308.18050426074 462.287671999101  1317.16902726764 466.821589809935  C 1318.86973265289 467.677813492584  1320.56603378365 468.542757418909  1322.25786367941 469.416387435562  L 1323.17550407197 467.639329161352  C 1321.47782236052 466.762677374101  1319.77565454599 465.894740557205  1318.06906782254 465.035552973029  C 1309.03281345928 460.477581928196  1299.81664149618 456.2854184284  1290.4429605993 452.469255511735  L 1289.68883193045 454.321629650729  Z M 1242.39008009303 438.641044455464  C 1253.9775347479 441.644464124471  1265.41449905926 445.201115371798  1276.66166840108 449.298775299535  L 1277.3463024908 447.419606290855  C 1266.03913410944 443.300087026551  1254.54115828015 439.724462502273  1242.89188930302 436.705020820079  L 1242.39008009303 438.641044455464  Z M 1193.32556376364 430.346897037673  C 1205.24981034737 431.291037274795  1217.10174763525 432.99432370545  1228.80928367786 435.446395724763  L 1229.21927548861 433.488870063341  C 1217.42855157375 431.019374851552  1205.49240037086 429.303985722815  1193.4834260786 428.353136899262  L 1193.32556376364 430.346897037673  Z M 1143.58733501514 430.935589099039  C 1150.21157736148 430.223667671176  1156.86089887133 429.768473422897  1163.52036089821 429.571029012825  C 1168.81172749812 429.428325896181  1174.10606672529 429.434913202818  1179.39706183562 429.590783073335  L 1179.45595520998 427.591650368771  C 1174.12647279385 427.434646682923  1168.79362154906 427.428036640474  1163.46376629882 427.57182813059  C 1156.75181174544 427.770759718111  1150.05007665711 428.229507398082  1143.37362143725 428.947040254625  L 1143.58733501514 430.935589099039  Z M 1094.88406528937 440.987760578254  C 1106.30840322927 437.453609603728  1117.9645249849 434.717621953872  1129.76820196859 432.799568216229  L 1129.44741696219 430.825461587988  C 1117.55228441815 432.758376515038  1105.80585036847 435.515562752754  1094.2929960087 439.077096529959  L 1094.88406528937 440.987760578254  Z M 1048.80159004883 459.789958451551  C 1059.46341791455 454.3627727309  1070.44079854867 449.579180635861  1081.67474314309 445.464887606158  L 1080.98694417315 443.586874673042  C 1069.67799522955 447.7286371164  1058.62732321649 452.544167255003  1047.89431078568 458.007588024655  L 1048.80159004883 459.789958451551  Z M 1006.37475095139 485.868974313068  C 1011.23158531025 482.395415043487  1016.16282944621 479.02709343984  1021.16503798516 475.766362889556  C 1026.18801771111 472.493661745297  1031.30811181264 469.372487672813  1036.51840208608 466.407057961384  L 1035.52911311465 464.66886714015  C 1030.28397234214 467.654131966324  1025.12963215893 470.79618478582  1020.07305721032 474.0907799954  C 1015.0466762184 477.36726379188  1010.09160334903 480.751859872426  1005.21130070932 484.242203421322  L 1006.37475095139 485.868974313068  Z M 967.642735432011 517.250985248218  C 976.475930254405 509.168419984946  985.654803477032 501.471946033559  995.153588482079 494.183168671524  L 993.936054766002 492.596470322683  C 984.391487758124 499.920377948814  975.168374435353 507.65394716997  966.292605604794 515.775468576114  L 967.642735432011 517.250985248218  Z M 932.624773202409 552.784087835277  C 939.597878290818 545.081025017026  946.761884136329 537.552949596211  954.110117840328 530.20687358331  C 955.233487449653 529.081689992883  956.363314734578 527.962972221724  957.499543713054 526.850775701412  L 956.100525987885 525.421527855633  C 954.959047883627 526.538862477102  953.823999765399 527.662747174007  952.695437851528 528.79312628094  C 945.323938958218 536.162483045385  938.137246094874 543.714409910148  931.142052883889 551.441873077108  L 932.624773202409 552.784087835277  Z M 900.634920891394 591.090091522959  C 907.941966838618 581.594439842636  915.520406962867 572.310752575742  923.360855708519 563.250527149424  L 921.848507527674 561.941786159046  C 913.982983457664 571.030987999686  906.380305965068 580.344366356596  899.049890622395 589.870387031552  L 900.634920891394 591.090091522959  Z M 1455.86545406579 563.356645616999  C 1464.84942579336 571.291506830548  1473.66524018603 579.414749200223  1482.30702984317 587.72096626949  L 1483.69297015683 586.27903373051  C 1475.03092943385 577.953351972168  1466.19445616788 569.811073694127  1457.18943150913 561.857618022344  L 1455.86545406579 563.356645616999  Z M 889.612557943771 588.092168300887  L 889 605  L 904.938030513599 599.322924754103  L 889.612557943771 588.092168300887  Z " fill-rule="nonzero" fill="#000000" stroke="none" />
  </g>
</svg>