<?xml version="1.0" encoding="utf-8"?>
<svg version="1.1" xmlns:xlink="http://www.w3.org/1999/xlink" width="672px" height="58px" viewBox="854 764  672 58" xmlns="http://www.w3.org/2000/svg">
  <g transform="matrix(0.933580426497202 -0.3583679495453 0.3583679495453 0.933580426497203 -205.146491521093 479.128581746626 )">
    <path d="M 961.098751140134 697.833327713096  C 950.963880907084 691.420121175536  940.892408953471 684.907269299287  930.885800135205 678.295719352989  L 929.783280897391 679.96438688436  C 939.800844263137 686.583174701061  949.883341771923 693.103156399845  960.029306964234 699.523383675079  L 961.098751140134 697.833327713096  Z M 1003.68720782227 723.973967976196  C 993.380728278542 717.840348151975  983.134898008347 711.605386327684  972.9512072275 705.269989354057  L 971.894738305785 706.968186462007  C 982.089577491302 713.310518992764  992.346624192109 719.552306424628  1002.6643865612 725.692640914226  L 1003.68720782227 723.973967976196  Z M 1046.974676936 748.940039626712  C 1036.50429894511 743.090595425661  1026.09177584676 737.138188382928  1015.73862210159 731.083684252764  L 1014.72899390046 732.810140419449  C 1025.09348156671 738.871272604566  1035.51740357952 744.830195933321  1045.99924382053 750.686043703811  L 1046.974676936 748.940039626712  Z M 1090.99120900065 772.57702536205  C 1080.32166725128 767.105004367181  1069.72876873648 761.484813110071  1059.21558845834 755.718083070514  L 1058.25373889354 757.471606784268  C 1068.78318256133 763.247257680803  1079.39246778613 768.876143106379  1090.0785148089 774.356629057357  L 1090.99120900065 772.57702536205  Z M 1135.87633256016 794.512206360467  C 1125.00334879686 789.456480992848  1114.20122659278 784.249734926507  1103.47310168534 778.893479622636  L 1102.57971638767 780.682854572138  C 1113.32443719389 786.047395748109  1124.14326976703 791.262196402864  1135.03307351887 796.325742737072  L 1135.87633256016 794.512206360467  Z M 1181.57539605883 814.696905459807  C 1170.51520545936 810.065024760427  1159.51998893564 805.279498424926  1148.59293827825 800.341715639037  L 1147.76935122092 802.16426998912  C 1158.71330550576 807.109691290035  1169.72553110627 811.902620607068  1180.80283129434 816.541666605502  L 1181.57539605883 814.696905459807  Z M 1228.02415751524 833.08022382207  C 1223.81526336054 831.52290574834  1219.61768290756 829.935179623196  1215.43174523604 828.317169920369  C 1208.43316361 825.615793109257  1201.45822661367 822.853553621895  1194.50772679755 820.03076532697  L 1193.75516773337 821.883777700087  C 1200.71627308872 824.710873194896  1207.70185239978 827.477328770527  1214.71111194002 830.182830092398  C 1218.90589394748 831.804255984366  1223.11234290981 833.395335381883  1227.33012907517 834.955943557098  L 1228.02415751524 833.08022382207  Z M 1275.30912384407 849.147976581543  C 1263.85967126338 845.596897542172  1252.47986188076 841.82504674244  1241.17606020014 837.834533704439  L 1240.51028110563 839.720465356783  C 1251.83836254313 843.71954973115  1263.24261494175 847.499502196413  1274.71666012704 851.058208699375  L 1275.30912384407 849.147976581543  Z M 1323.38755030793 862.657440975725  C 1311.76417492852 859.725330553097  1300.19850592647 856.569031996926  1288.6970117534 853.190310563033  L 1288.13330426129 855.109225324908  C 1299.65950282058 858.495204010596  1311.25001405177 861.658282070136  1322.8983556095 864.596690456073  L 1323.38755030793 862.657440975725  Z M 1372.12033133532 873.563209516013  C 1370.15369895906 873.182113087194  1368.18869164058 872.792677961419  1366.22536239271 872.394914645042  C 1356.44076552422 870.412292054391  1346.68868751126 868.272434058067  1336.97291151689 865.976170779839  L 1336.5128972019 867.922548654254  C 1346.24955151275 870.223746392835  1356.02258588688 872.368202595342  1365.82820902415 874.355085352583  C 1367.79708986987 874.753973487065  1369.76765353959 875.144509841055  1371.73984687029 875.526683878431  L 1372.12033133532 873.563209516013  Z M 1421.43199463857 881.327638812846  C 1409.53579658091 879.881866931332  1397.67819300265 878.13451574426  1385.87062862099 876.087271759367  L 1385.52895804163 878.057870961438  C 1397.3698524266 880.110893839131  1409.26092725716 881.863177391503  1421.19070551035 883.313030350201  L 1421.43199463857 881.327638812846  Z M 1471.16797259128 885.600693589825  C 1459.19950162815 884.996138079418  1447.24829473173 884.088034280625  1435.32588696327 882.877258676716  L 1435.12381705606 884.867024429915  C 1447.07987900395 886.081217771264  1459.06482137303 886.991884935511  1471.06707654127 887.598146965274  L 1471.16797259128 885.600693589825  Z M 1521.07688279319 886.330993675725  C 1517.02702125834 886.428432269047  1512.97627522354 886.484772392181  1508.92527032499 886.500005343417  C 1500.99437915828 886.522545045943  1493.06366854296 886.411920632175  1485.13649170044 886.168178875746  L 1485.07502552547 888.167234129944  C 1493.02488486741 888.41167331906  1500.97828820838 888.522609130866  1508.93187247331 888.499994656454  C 1512.99671343062 888.484715891009  1517.06129467564 888.428186446802  1521.12498834077 888.330415056097  L 1521.07688279319 886.330993675725  Z M 1570.87129990488 883.053080412511  C 1558.95945548527 884.337511906103  1547.01174658589 885.264166243067  1535.04430731705 885.831792075263  L 1535.13906249481 887.829546178322  C 1547.14647166756 887.260024539557  1559.13408457363 886.330275281117  1571.08571321659 885.041553930503  L 1570.87129990488 883.053080412511  Z M 1620.21989361836 875.640591670154  C 1608.45635396875 877.91236116788  1596.62728531193 879.830581936392  1584.74866154718 881.392663622533  L 1585.00942368916 883.375591534815  C 1596.92772072401 881.808292671173  1608.79629714243 879.883665260599  1620.5991256941 877.604308307738  L 1620.21989361836 875.640591670154  Z M 1668.76458787555 864.095700862759  C 1660.40847296446 866.467502128349  1652.0006933651 868.653356839279  1643.54747300318 870.651646899224  C 1640.34130170144 871.404415189815  1637.12897492801 872.130721106554  1633.91082059674 872.830490508234  L 1634.3357788319 874.784821723348  C 1637.56517723758 874.082607361479  1640.78872681784 873.353759680155  1644.00609841212 872.598353102904  C 1652.48864687062 870.593153227765  1660.92559471066 868.399727007056  1669.31069568746 866.019698330994  L 1668.76458787555 864.095700862759  Z M 1716.14499722502 848.440391642736  C 1704.9395891872 852.679665526298  1693.60690424963 856.574565892617  1682.1628978965 860.11960904374  L 1682.75469962178 862.0300463544  C 1694.23773488482 858.472913104275  1705.60906907911 854.564729477634  1716.85269230551 850.31099787416  L 1716.14499722502 848.440391642736  Z M 1762.02298278922 828.813819413532  C 1751.21853201664 833.990348738944  1740.25798897542 838.834571380318  1729.15678520469 843.339667072361  L 1729.90885599464 845.192877672079  C 1741.04791957325 840.672417695141  1752.04584270967 835.811674202308  1762.88714123669 830.617490718859  L 1762.02298278922 828.813819413532  Z M 1806.13634048566 805.467745595896  C 1795.76384374118 811.467689349307  1785.2321252034 817.188062335704  1774.55256859796 822.622681408784  L 1775.45963694121 824.405159184426  C 1786.17109849716 818.954304301291  1796.73428032232 813.216841821039  1807.13776468244 807.198973361993  L 1806.13634048566 805.467745595896  Z M 1848.3807361806 778.881958891507  C 1838.48410411192 785.638044108228  1828.40786297093 792.12719867034  1818.16290415811 798.342408456187  L 1819.20025746064 800.052349427604  C 1829.47582287221 793.818571833383  1839.58216657145 787.310031058645  1849.50836462006 780.533762179588  L 1848.3807361806 778.881958891507  Z M 1888.52690171151 749.222585744277  C 1879.161149099 756.697255754357  1869.59639857114 763.919119073621  1859.84298865866 770.880369596157  L 1861.00486033606 772.508268304692  C 1870.7874083553 765.526221192789  1880.38073337397 758.282782708914  1889.77446597522 750.785782279558  L 1888.52690171151 749.222585744277  Z M 1926.6251165778 716.942699348338  C 1917.7086659965 724.95351116046  1908.62572708491 732.777053145418  1899.38225242215 740.408198080274  L 1900.65554229775 741.950512215819  C 1909.92051123469 734.301622230805  1919.02457111934 726.459887806031  1927.96175553077 718.430448087005  L 1926.6251165778 716.942699348338  Z M 1962.785998838 682.505994662024  C 1954.34947122137 691.020758230772  1945.73586794319 699.358229491807  1936.95083399962 707.512944414355  L 1938.31148381533 708.978765712812  C 1947.11694599992 700.805088258873  1955.75057888355 692.448229494795  1964.2067243435 683.913666157081  L 1962.785998838 682.505994662024  Z M 1991.28488125737 652.319362449609  C 1985.14698465621 659.143421629226  1978.90024802418 665.868793881864  1972.54707192261 672.492894711103  L 1973.99049529757 673.877282287115  C 1982.3067699091 665.206368610289  1990.44087416088 656.362554207371  1998.38747730041 647.351634945273  L 1991.28488125737 652.319362449609  Z M 919.241169736317 670.537676137179  C 909.285491286858 663.849680970888  899.395912690711 657.063811677523  889.573872348282 650.181055235149  L 888.426127651718 651.818944764851  C 898.258920488748 658.709235975859  908.159325515724 665.502533972459  918.125902757597 672.197850696126  L 919.241169736317 670.537676137179  Z M 1997.86026469713 660.78307280666  L 2000 644  L 1983.61371397432 648.211844048005  L 1997.86026469713 660.78307280666  Z " fill-rule="nonzero" fill="#000000" stroke="none" />
  </g>
</svg>