<?xml version="1.0" encoding="utf-8"?>
<svg version="1.1" xmlns:xlink="http://www.w3.org/1999/xlink" width="214px" height="90px" viewBox="1934 450  214 90" xmlns="http://www.w3.org/2000/svg">
  <g transform="matrix(-0.292371704722737 0.956304755963033 -0.956304755963034 -0.292371704722735 3111.10150354081 -1312.0940130828 )">
    <path d="M 2084.89358603071 539.069893587274  C 2083.52683590745 543.190127239774  2081.79384648103 547.179684790995  2079.71538249688 550.990763210186  C 2076.11322905718 557.624769641183  2071.93190073111 563.927492532505  2067.22018256393 569.825395773718  L 2068.78277336809 571.073718640116  C 2073.56764787915 565.084241789787  2077.81394138103 558.683691869577  2081.47211876541 551.946734451598  C 2083.60736140765 548.031315821766  2085.38772106654 543.93256720931  2086.79187129169 539.699586423469  L 2084.89358603071 539.069893587274  Z M 2081.73608888571 491.287034339434  C 2083.30533681789 494.509309003691  2084.64452676364 497.838622019598  2085.74361869721 501.250013232305  C 2088.22480415217 509.125345037263  2088.98508598109 517.44182564469  2087.97300027444 525.636507750939  L 2089.95791905809 525.881655506979  C 2091.00538911156 517.400472492941  2090.21805427249 508.793226331888  2087.64923633805 500.64283779819  C 2086.52083110061 497.139469217423  2085.14571038352 493.720421081049  2083.53419563828 490.411356255684  L 2081.73608888571 491.287034339434  Z M 2049.56946630878 454.124748762091  C 2049.61046343455 454.156850300618  2049.65145080673 454.188964294104  2049.69242841915 454.221090737693  C 2058.38234350175 460.984877103846  2066.21842729282 468.779255680323  2073.02848990214 477.432953006146  C 2073.56131089069 478.106787536854  2074.08266122287 478.789613441754  2074.59231582747 479.481135939311  L 2076.20230328777 478.294569304985  C 2075.6796893895 477.585463049632  2075.14509291995 476.885266605671  2074.59874426168 476.194281720411  C 2067.68957326711 467.414949038296  2059.73966346457 459.507281784333  2050.92364535451 452.644982544389  C 2050.88326754486 452.613327227699  2050.84288033299 452.581683906184  2050.80248372388 452.550052583754  L 2049.56946630878 454.124748762091  Z M 2007.66200914096 427.307011691346  C 2010.35363574026 428.737830323199  2013.0310835522 430.195163830561  2015.69396184381 431.678799537662  C 2023.49001610191 435.999400564727  2031.056096394 440.722523005428  2038.3615485527 445.829031008669  L 2039.50737236552 444.189797105288  C 2032.14570343151 439.043993599624  2024.52142237692 434.284493206623  2016.66541400041 429.930575935811  C 2013.99169571004 428.440917626541  2011.30335233007 426.977662099387  2008.60077599107 425.541022789586  L 2007.66200914096 427.307011691346  Z M 1962.44360485464 406.252327866871  C 1965.31539298428 407.434124430144  1968.18011107227 408.633028840529  1971.03760643802 409.848977200129  C 1979.20610690998 413.312583531253  1987.27348373406 417.009993434796  1995.22976656179 420.936637338015  L 1996.11489500875 419.143163716138  C 1988.12466762821 415.19976724463  1980.02287754353 411.486571713925  1971.81953667585 408.008165766823  C 1968.95511816333 406.789276924334  1966.08346044962 405.587470985381  1963.20471654333 404.40281198499  L 1962.44360485464 406.252327866871  Z M 1915.68855596155 388.736445820679  C 1915.70355691375 388.74153793916  1915.71855778303 388.746630350739  1915.73355853965 388.751723045316  C 1927.07059703028 392.591366706183  1938.31792152603 396.690977527851  1949.46662864092 401.047310256969  L 1950.19452815597 399.184473093932  C 1939.01751486525 394.817079789009  1927.74163578453 390.707054963449  1916.37581654132 386.857651982287  C 1916.361022042 386.852629320931  1916.34622747264 386.847606947762  1916.33143278341 386.842584845864  L 1915.68855596155 388.736445820679  Z M 1868.06899213413 373.636690097936  C 1879.56948971941 377.029501661794  1891.02006871684 380.58928260431  1902.41710131365 384.314905103143  L 1903.03852922735 382.413898173099  C 1891.62307710442 378.6822544402  1880.15399204089 375.116720291542  1868.63490771264 371.718425372198  L 1868.06899213413 373.636690097936  Z M 1819.88923369629 360.398956844912  C 1829.87493130721 362.996005111647  1839.84256261425 365.662029232136  1849.79141361349 368.396838233054  C 1851.40515796583 368.846082385641  1853.01798848978 369.298602693193  1854.62989521138 369.754396357266  L 1855.17409094355 367.829857190325  C 1853.55853629314 367.373032013191  1851.94205515292 366.919489719958  1850.324657532 366.469233118923  C 1840.36588138886 363.731680296152  1830.38830413537 361.062988201185  1820.39264063803 358.463348038617  L 1819.88923369629 360.398956844912  Z M 1771.38427087269 348.36010846258  C 1783.05728007845 351.119437124909  1794.7079334661 353.972498101289  1806.33510318119 356.91901519798  L 1806.8264059968 354.980298729961  C 1795.18885297239 352.031150330967  1783.52779530423 349.17554151064  1771.8443618535 346.413748709253  L 1771.38427087269 348.36010846258  Z M 1722.62275348563 337.406583413339  C 1734.35442719434 339.904756861501  1746.06584216719 342.497138127399  1757.75586466765 345.183476252682  L 1758.20378519257 343.234279699394  C 1746.50332325399 340.545542617167  1734.7814497391 337.9508462998  1723.03929939686 335.450441929744  L 1722.62275348563 337.406583413339  Z M 1673.63155831278 327.508760425349  C 1677.75681867245 328.309045147987  1681.88090691661 329.115360034302  1686.00380982494 329.927702499542  C 1693.65279037134 331.423518753615  1701.29391054979 332.959253006648  1708.92685804406 334.534842488427  L 1709.33117323007 332.576136479256  C 1701.69187276478 330.999235620144  1694.04439330615 329.462220741452  1686.38904739231 327.965154658093  C 1682.2646959796 327.152528201198  1678.1391589505 326.345930762478  1674.01244952571 325.54536492675  L 1673.63155831278 327.508760425349  Z M 1624.50396676453 318.273363917239  C 1636.30732222842 320.421490330724  1648.10166076043 322.618870475061  1659.88667418865 324.865446935344  L 1660.26118989381 322.900825346695  C 1648.47071003571 320.653206821185  1636.67090074856 318.454807431158  1624.86207034692 316.305684618094  L 1624.50396676453 318.273363917239  Z M 1575.27260897343 309.608133970019  C 1587.10007486741 311.6192773816  1598.91909544375 313.679775749096  1610.72936188562 315.789575234155  L 1611.08107617439 313.820743839883  C 1599.26533158913 311.709965733032  1587.44082880899 309.648511611893  1575.60787679373 307.636435339733  L 1575.27260897343 309.608133970019  Z M 1525.94410196692 301.514235249199  C 1537.79408859958 303.3881253476  1549.63620266395 305.311464993337  1561.4701347398 307.284203931854  L 1561.7990003394 305.311427356212  C 1549.95957914296 303.337773370874  1538.11197216297 301.413541591998  1526.25648896287 299.538782297402  L 1525.94410196692 301.514235249199  Z M 1476.52449601206 293.990030781095  C 1477.58234981709 294.145813694125  1478.64016994504 294.301825128079  1479.69795634486 294.458065075429  C 1490.51000298567 296.047781270592  1501.31596680435 297.678596766922  1512.11561352446 299.350476207866  L 1512.42158623313 297.37401960537  C 1501.61714703204 295.7013982466  1490.80638805634 294.069858230472  1479.98954367468 292.479434927472  C 1478.93168941734 292.323185053076  1477.87380142855 292.167163658651  1476.81587977552 292.011370754109  L 1476.52449601206 293.990030781095  Z M 1427.0405086546 286.872991775647  C 1438.92237730168 288.541091271721  1450.80018489999 290.237990821191  1462.67382675819 291.963675467535  L 1462.96147946343 289.984469586085  C 1451.08463911386 288.258320079209  1439.20363190139 286.560963423176  1427.31856254681 284.892414578711  L 1427.0405086546 286.872991775647  Z M 1377.5097206734 280.089313498984  C 1389.40255206979 281.67736886724  1401.29151643401 283.294250980976  1413.1765089764 284.939945588948  L 1413.45082821948 282.958847672924  C 1401.56263412809 281.312709751933  1389.67046714433 279.69539208653  1377.77443208734 278.106908931967  L 1377.5097206734 280.089313498984  Z M 1327.93437780689 273.63930352479  C 1339.8376327286 275.147242762396  1351.73721481009 276.684034130557  1363.63301916812 278.249664083949  L 1363.89399251134 276.26676395683  C 1351.99498369186 274.700712258032  1340.09219613065 273.163506912849  1328.18573474048 271.655161470415  L 1327.93437780689 273.63930352479  Z M 1278.31672781361 267.523254298142  C 1290.22986656406 268.951009034754  1302.13952683277 270.407639978831  1314.04560364767 271.893134291586  L 1314.29321925843 269.908521858564  C 1302.38393521491 268.422627387137  1290.47106675165 266.965604059453  1278.55471887024 265.53746471791  L 1278.31672781361 267.523254298142  Z M 2057.99980563735 580.234271333641  C 2049.73197908816 588.871004154478  2040.83691341853 596.884639817014  2031.38734503502 604.209649511997  L 2032.61265496498 605.790350488003  C 2042.14013579921 598.404945499422  2051.10854200012 590.325236766845  2059.44453744365 581.617293389821  L 2057.99980563735 580.234271333641  Z M 1242.80997026114 263.354562858934  C 1250.0133751633 264.182705700387  1257.21556304457 265.021400453509  1264.41651072096 265.870644418522  L 1264.65075737231 263.884409662424  C 1257.44679982832 263.034810728592  1250.24160137787 262.195766984061  1243.03518522043 261.367281130404  L 1242.80997026114 263.354562858934  Z M 1245.99092974128 253.156402260945  L 1231 261  L 1243.82685700866 272.032757555544  L 1245.99092974128 253.156402260945  Z " fill-rule="nonzero" fill="#000000" stroke="none" />
  </g>
</svg>