<?xml version="1.0" encoding="utf-8"?>
<svg version="1.1" xmlns:xlink="http://www.w3.org/1999/xlink" width="368px" height="44px" viewBox="364 412  368 44" xmlns="http://www.w3.org/2000/svg">
  <g transform="matrix(-0.961261695938319 -0.275637355816999 0.275637355816999 -0.961261695938319 955.144796949621 1002.23684702495 )">
    <path d="M 711.982625550622 402.504313134208  C 713.979348419416 402.556908160876  715.975859670539 402.617251473235  717.972114206287 402.685341708236  L 718.040292546694 400.68650411756  C 716.03886688429 400.618237500628  714.037183841288 400.557737874072  712.03528863266 400.505006604485  L 711.982625550622 402.504313134208  Z M 703.994798123098 402.335261820264  C 705.991958338912 402.367191802345  707.988987128347 402.40687184509  709.985839381695 402.454301052191  L 710.033329959853 400.454864970446  C 708.03130503146 400.407312902038  706.029103109611 400.367530071533  704.026769421001 400.335517377564  L 703.994798123098 402.335261820264  Z M 696.005649030648 402.24887815711  C 698.003032726734 402.260139675369  700.000365201803 402.279152199344  701.997601338981 402.30591529957  L 702.02439906934 400.306094837217  C 700.021989262647 400.279262409467  698.019482868596 400.260200635174  696.016925120757 400.248909944914  L 696.005649030648 402.24887815711  Z M 688.016033794695 402.245171395177  C 690.013427080474 402.235763243671  692.010849355775 402.234106212909  694.008255502006 402.240200340323  L 694.01435751492 400.240209648985  C 692.011777258833 400.234099735255  690.009180831826 400.235761058413  688.006613469504 400.245193580932  L 688.016033794695 402.245171395177  Z M 680.026807986579 402.324141931406  C 682.023996970291 402.294065117609  684.021295151116 402.271738709556  686.018657413263 402.257163211565  L 686.004063055296 400.257216461095  C 684.001526796919 400.271829715668  681.999054785948 400.294213958372  679.996692254868 400.324368683584  L 680.026807986579 402.324141931406  Z M 672.038827135939 402.485781309202  C 674.035597947754 402.435039053904  676.032558152578 402.392045659393  678.029662642254 402.35680209682  L 677.994373476249 400.357113452365  C 675.992095658131 400.392448310373  673.989962498556 400.435553075599  671.988019222664 400.486426774371  L 672.038827135939 402.485781309202  Z M 664.052946639095 402.730072219345  C 666.049085453963 402.658669956301  668.045493837454 402.595014179297  670.042126693879 402.539106326215  L 669.98614649879 400.539889925282  C 667.98434153565 400.595942602878  665.982761626853 400.659763274733  663.981451985042 400.731350499235  L 664.052946639095 402.730072219345  Z M 656.070021667452 403.056988501839  C 658.065314728 402.964933877191  660.060957503919 402.8806225343  662.056904916814 402.804056377625  L 661.980239687305 400.805526307152  C 659.979121943278 400.88229080191  657.978309625293 400.96682054613  655.977847928657 401.059113630413  L 656.070021667452 403.056988501839  Z M 648.090907075918 403.466495148715  C 650.085140715342 403.353798020172  652.079804179436 403.248840139909  654.074852411925 403.15162387876  L 653.977510357725 401.153994152188  C 651.977294123301 401.251462243753  649.97746365407 401.356692008429  647.978064122846 401.469681069252  L 648.090907075918 403.466495148715  Z M 640.11645731137 403.958548307779  C 642.109417976313 403.82522074356  644.102888529197 403.699627565386  646.096823940693 403.581771610207  L 645.978815485717 401.585256144564  C 643.979714955006 401.703417395519  641.981080487015 401.829335912088  639.982957227855 401.963008849963  L 640.11645731137 403.958548307779  Z M 632.147526321145 404.53309528731  C 634.139000594569 404.379151564855  636.131064764602 404.232936537968  638.123673833686 404.094453509415  L 637.985011614919 402.099266102406  C 635.987240862397 402.238107859405  633.990016420371 402.384701643824  631.993383403101 402.539044144331  L 632.147526321145 404.53309528731  Z M 624.184967461603 405.190074561702  C 626.174742085639 405.015531166139  628.165186551785 404.848709948037  630.156255899067 404.689614675623  L 629.996954765211 402.69596898274  C 628.000727722957 402.855476377859  626.005127180627 403.022729732061  624.010198215489 403.197725267373  L 624.184967461603 405.190074561702  Z M 616.230205818503 405.92924164405  C 616.969164371236 405.856270028475  617.708274033469 405.784836832702  618.447530000332 405.71494252111  C 619.696543364575 405.595980383498  620.945844853125 405.480062990659  622.195423331169 405.367191375746  L 622.015500341055 403.375300887384  C 620.762914544105 403.488444146653  619.510606351971 403.604639954506  618.258586922316 403.723887275673  C 617.516797327592 403.794022098163  616.775154495257 403.865700601116  616.033663243644 403.938922318849  L 616.230205818503 405.92924164405  Z M 608.289930983347 406.773212361747  C 610.273393568794 406.547410164269  612.258104350182 406.332710408818  614.243970081175 406.12912318249  L 614.040002878691 404.139551022373  C 612.046713903203 404.34389926579  610.054584194477 404.559401577412  608.063707347587 404.786047832418  L 608.289930983347 406.773212361747  Z M 600.363135589435 407.735587451405  C 602.343007480481 407.480209779514  604.32429311809 407.235914685516  606.306899416847 407.002713646962  L 606.073263130781 405.016407002501  C 604.083245771414 405.250479755742  602.09455400979 405.495688034456  600.107281279459 405.752020318166  L 600.363135589435 407.735587451405  Z M 592.451585168165 408.816152563673  C 594.427425388853 408.531256297522  596.404844591918 408.2574202767  598.383749873449 407.994657366682  L 598.120496541499 406.012058647017  C 596.134194033882 406.275803775169  594.149383159737 406.550663405852  592.166157170282 406.836624625495  L 592.451585168165 408.816152563673  Z M 584.557041855432 410.014667024793  C 586.528410327825 409.70031561919  588.50152266665 409.396999662918  590.47628617034 409.104733406492  L 590.183474426798 407.126284194902  C 588.20132917915 407.419642954135  586.220841268475 407.724092717431  584.242103742885 408.039619181002  L 584.557041855432 410.014667024793  Z M 576.681263999142 411.330863890205  C 578.647721641272 410.98712736049  580.616087645476 410.654399026189  582.586269533182 410.33269451968  L 582.263964595868 408.358835475224  C 580.286418090466 408.681742525881  578.310694256398 409.015714611837  576.336885917949 409.360736042274  L 576.681263999142 411.330863890205  Z M 568.826005767584 412.764450004003  C 570.787114591292 412.391404910445  572.750295847592 412.029338306549  574.715457301657 411.678267203046  L 574.363730957398 409.709437962417  C 572.391223652243 410.061821383564  570.42070394682 410.425241406735  568.452264420912 410.799680957578  L 568.826005767584 412.764450004003  Z M 560.993016758716 414.315106064226  C 562.948339967135 413.912835494989  564.905899217148 413.521511264413  566.865602538061 413.141151757821  L 566.484533126701 411.177790837428  C 564.517504357388 411.559572142875  562.552627673585 411.952359158881  560.5899953898 412.356133431391  L 560.993016758716 414.315106064226  Z M 553.184041610487 415.982486693983  C 555.1331436954 415.5510802466  557.084644932877 415.130585548805  559.038453636844 414.721022356417  L 558.628126033791 412.763567054712  C 556.667013915761 413.174661210481  554.708217889534 413.596727734074  552.751829984086 414.029746795787  L 553.184041610487 415.982486693983  Z M 545.400819612248 417.766220518372  C 547.343266451042 417.305774279804  549.288275019083 416.856202771364  551.235753935187 416.417527115003  L 550.796259532516 414.466413415082  C 548.841500863321 414.906728858369  546.889221776435 415.357980882863  544.939513994653 415.820148287653  L 545.400819612248 417.766220518372  Z M 537.645084317363 419.665910247199  C 539.580443269795 419.176526772414  541.518525957509 418.69797858619  543.459241324714 418.230288171873  L 542.990678010806 416.28595064437  C 541.042708172897 416.75538930393  539.097380855603 417.235726322162  537.154787454957 417.726939131707  L 537.645084317363 419.665910247199  Z M 529.918563157095 421.681132763468  C 531.846403161604 421.16292105261  533.777128300698 420.655502775427  535.710647864412 420.158901771613  L 535.213120002152 418.221773477907  C 533.272372865982 418.720230795877  531.334430600015 419.229545822634  529.399384253467 419.749694629324  L 529.918563157095 421.681132763468  Z M 522.225369929589 423.8132557185  C 523.119298861108 423.556853351547  524.014136627845 423.303630235651  524.909866260825 423.053591172727  C 525.936294512477 422.766971661125  526.963576808759 422.483419456348  527.991699394846 422.202938355024  L 527.465317798381 420.273450750788  C 526.433380085425 420.554972653082  525.402285757387 420.839576971273  524.37204861945 421.127259894832  C 523.471780838812 421.378565976789  522.572409415763 421.633072143954  521.673951404219 421.89077357037  L 522.225369929589 423.8132557185  Z M 514.577894050703 426.091172371748  C 516.483914979194 425.502267054124  518.394399904571 424.927907966407  520.309182118922 424.368145226869  L 519.747995332564 422.448491770951  C 517.823452022618 423.011108045251  515.903227908172 423.58839507638  513.987490546998 424.180302490565  L 514.577894050703 426.091172371748  Z M 506.978327712491 428.524150601903  C 508.871977380419 427.896602844256  510.770385960037 427.283507520045  512.673387797208 426.684918127646  L 512.073275582262 424.777075018406  C 510.160572703004 425.378715874432  508.2524864966 425.994936609999  506.349183461677 426.625683454  L 506.978327712491 428.524150601903  Z M 499.429814614793 431.111183962949  C 501.310309679281 430.445253361905  503.195856601652 429.793675419312  505.086290850071 429.156506991521  L 504.447501453949 427.261263443213  C 502.547430229964 427.901680001203  500.652271246417 428.556579530211  498.762189873914 429.225904884041  L 499.429814614793 431.111183962949  Z M 491.935477338338 433.851202281141  C 493.802039898152 433.147164311093  495.673945172249 432.457373287271  497.551029819157 431.78188940048  L 496.873827488794 429.900029415319  C 494.987173919354 430.578956755231  493.105726125897 431.272264166494  491.229648282599 431.979891151458  L 491.935477338338 433.851202281141  Z M 484.498416053036 436.743072097705  C 486.350273970379 436.001217996857  488.207763248292 435.273499236501  490.070721803236 434.559979316995  L 489.355386675784 432.692281360838  C 487.482931209699 433.40943863194  485.615972901681 434.140867126145  483.754674661558 434.886503019377  L 484.498416053036 436.743072097705  Z M 477.121707235534 439.785597137713  C 478.958094455452 439.006233787605  480.800399352713 438.240888324912  482.648461168757 437.489627533276  L 481.895289155695 435.636864213599  C 480.037806368474 436.391954750648  478.186109847401 437.161201759  476.340361170567 437.944538114553  L 477.121707235534 439.785597137713  Z M 469.808402396574 442.977518804944  C 471.628559263851 442.160968603503  473.454917677289 441.358313037644  475.287318269807 440.569622146669  L 474.496620934537 438.732559892962  C 472.654879207963 439.525271338924  470.819210462023 440.332018648303  468.989774876234 441.152731424743  L 469.808402396574 442.977518804944  Z M 462.561526818682 446.317516702525  C 464.364700392085 445.464117430701  466.174356815082 444.624483794855  467.990338178001 443.798689060976  L 467.162442606961 441.978087807694  C 465.337203811239 442.808092242957  463.518322198438 443.652006127562  461.705956483238 444.509755822013  L 462.561526818682 446.317516702525  Z M 455.384078304702 449.804209179136  C 457.169522668449 448.914313861173  458.961728503473 448.038049485175  460.760539422833 447.175492513513  L 459.895788090192 445.372105385718  C 458.087807268789 446.239059463742  456.286465202829 447.119790823132  454.491919076498 448.01422261172  L 455.384078304702 449.804209179136  Z M 448.279025937702 453.43615390056  C 450.046002510023 452.510130657957  451.820016378298 451.597598024621  453.600912743007 450.698635627668  L 452.699663368997 448.913208629484  C 450.909688426301 449.816753718831  449.126631065327 450.733938222345  447.350646874747 451.664682106974  L 448.279025937702 453.43615390056  Z M 441.257810673801 457.219866900925  C 442.611845622344 456.46836406985  443.9712428684 455.726563746168  445.33589792255 454.994522948006  C 445.728382113697 454.784567241435  446.1212233248 454.575279619285  446.514419849264 454.366660990749  L 445.577045252198 452.599932696762  C 445.181503797529 452.809795476995  444.786320083539 453.020331820228  444.391495829759 453.231540810369  C 443.01808735244 453.968270932653  441.64997167807 454.714825610769  440.28725401829 455.47114743273  L 441.257810673801 457.219866900925  Z M 434.332684441854 461.175468202345  C 436.051738445194 460.165334832646  437.780066132984 459.171067086238  439.517447284145 458.192791651317  L 438.536164033235 456.450068729713  C 436.788074667472 457.434373689756  435.049094565405 458.434769528661  433.319445305424 459.451128777404  L 434.332684441854 461.175468202345  Z M 427.506860533922 465.300063086949  C 429.200570837118 464.247988232269  430.903941929109 463.211546303916  432.616756768782 462.190869363842  L 431.592941644607 460.472788285571  C 429.869570002902 461.499756089168  428.155700314674 462.54258604734  426.451550958781 463.601145284164  L 427.506860533922 465.300063086949  Z M 420.784462055978 469.591160113111  C 422.451805581489 468.497779274193  424.12919116462 467.419789221624  425.81640507526 466.357327311381  L 424.750676508402 464.664925875024  C 423.053063585073 465.733936187231  421.365339565395 466.818570348268  419.68771949678 467.918690155579  L 420.784462055978 469.591160113111  Z M 414.169549640364 474.046167264391  C 415.809519237396 472.912140892645  417.459906094981 471.793253870561  419.120499923184 470.689648765128  L 418.013501661837 469.023949257601  C 416.342672891775 470.134356347902  414.682114002191 471.260139543775  413.032036579157 472.401155399515  L 414.169549640364 474.046167264391  Z M 407.666118992986 478.662393515232  C 409.27772404581 477.488406613818  410.90011526966 476.329298480508  412.533085941731 475.185216807228  L 411.38548666285 473.547225386276  C 409.742451302099 474.698358518631  408.110060595201 475.864610725431  406.488522539042 477.045833404485  L 407.666118992986 478.662393515232  Z M 401.278098479726 483.437050456454  C 402.860365506097 482.223812166489  404.453781098614 481.025183075631  406.058142226508 479.841315911511  L 404.870635131897 478.232021997942  C 403.256385648041 479.423185835939  401.65314916154 480.629202584657  400.061129954496 481.849918575166  L 401.278098479726 483.437050456454  Z M 395.009346753529 488.367253979586  C 396.56131999269 487.115497151801  398.124797458881 485.87807112951  399.699579936005 484.655133583794  L 398.472882333591 483.075509263827  C 396.888393806239 484.305984290697  395.315279967386 485.551037092747  393.753741260976 486.810509027107  L 395.009346753529 488.367253979586  Z M 388.863650423609 493.450026018996  C 390.384392413623 492.160506771054  391.916987342463 490.885031278552  393.461239929071 489.623762060757  L 392.196092799617 488.074761498835  C 390.64232233141 489.343804452082  389.100281372032 490.627141239324  387.570166406167 491.924608339598  L 388.863650423609 493.450026018996  Z M 382.84472176816 498.682296350774  C 384.33331391216 497.355793610559  385.834100547102 496.043039092642  387.346890444865 494.744200066356  L 386.044057994386 493.22675892879  C 384.521944132868 494.53360324915  383.011907515372 495.854448828185  381.514140548604 497.18912736564  L 382.84472176816 498.682296350774  Z M 376.963058958305 504.065133233242  C 377.869430242324 503.21291127827  378.780761840858 502.365980241137  379.697007300161 501.524383292867  C 380.249667511051 501.018788959773  380.804076676534 500.515109717844  381.360224826671 500.01335462474  L 380.020494024819 498.528389514522  C 379.460421824283 499.03368487342  378.902102432917 499.540919674649  378.345545908767 500.050084780447  C 377.423078566829 500.897386113653  376.50556103785 501.750060621212  375.593040140825 502.608064792931  L 376.963058958305 504.065133233242  Z M 371.221581052343 509.599946860664  C 372.639650815021 508.198425468939  374.070783032472 506.810182654869  375.514790353142 505.435400155295  L 374.135723343014 503.98689258487  C 372.682694452465 505.370264165822  371.242621103542 506.767180155833  369.815691818289 508.177457682648  L 371.221581052343 509.599946860664  Z M 365.619756793686 515.276063086576  C 367.002474667148 513.839652509575  368.39858171108 512.416191004485  369.807895159152 511.005864918648  L 368.393173791156 509.592159344303  C 366.975055526402 511.01129657337  365.570226174014 512.443651286454  364.178869642193 513.889035971967  L 365.619756793686 515.276063086576  Z M 360.161062691508 521.089959295984  C 361.507570556831 519.619550974485  362.867785998976 518.161754182906  364.241530950233 516.716759763468  L 362.792033204752 515.338733535182  C 361.409705654301 516.792755691485  360.040992139816 518.25966020395  358.686071841523 519.739255038028  L 360.161062691508 521.089959295984  Z M 354.848886427969 527.038027367219  C 356.158348638277 525.534533841098  357.481828324795 524.043306476152  358.819152228942 522.564540491045  L 357.335777668685 521.223048816086  C 355.99009870922 522.711053529052  354.658350460408 524.211597475497  353.340707263302 525.724484217085  L 354.848886427969 527.038027367219  Z M 349.686524755818 533.116575911142  C 350.958128654876 531.580930253061  352.244051230256 530.057197774976  353.544124140005 528.545577950873  L 352.027793351737 527.241453363055  C 350.719598115709 528.762517172438  349.425641619593 530.295769310715  348.146093257044 531.841009057706  L 349.686524755818 533.116575911142  Z M 344.677181452409 539.321832562041  C 345.910137878978 537.754987798355  347.157705295742 536.199695840162  348.4197203819 534.656160292914  L 346.87137440512 533.390212135923  C 345.601474762479 534.943391064885  344.346113052379 536.508399854075  343.105453616002 538.085033625971  L 344.677181452409 539.321832562041  Z M 339.823965331432 545.649946318764  C 341.017509108992 544.052874838114  342.22594712303 542.466988618702  343.449121175185 540.892495271179  L 341.869720918115 539.665509196291  C 340.638904972434 541.249839337277  339.422917129662 542.845633528144  338.221916576468 544.452682861242  L 339.823965331432 545.649946318764  Z M 335.129888313573 552.096989934667  C 336.283278725237 550.470682884456  337.451837376219 548.855186609666  338.635411288845 547.250712597214  L 337.025936932089 546.063450075719  C 335.834968531495 547.677948188614  334.659109201788 549.30353742645  333.498512876382 550.940004981035  L 335.129888313573 552.096989934667  Z M 330.597863557307 558.658962354871  C 331.710384805473 557.004429026206  332.838338882354 555.360325277932  333.981578125877 553.726866342007  L 332.343028514116 552.580064192638  C 331.192646777213 554.223728315012  330.057645702464 555.878103754171  328.938173874448 557.542973933512  L 330.597863557307 558.658962354871  Z M 326.232141225575 565.332944636698  C 326.801735474904 564.438881740171  327.375084168219 563.547216293157  327.952172119571 562.657971912675  C 328.461534698268 561.875387258366  328.974318856232 561.095034946703  329.490509869297 560.316937384846  L 327.823901891403 559.211307316505  C 327.304238714037 559.994638759829  326.78800694159 560.780241198115  326.275221411322 561.568092051994  C 325.694836932299 562.462409203173  325.11821462059 563.359162270507  324.545369761691 564.258327482254  L 326.232141225575 565.332944636698  Z M 322.016261501662 572.106944923188  C 323.052343832908 570.40238709614  324.101887934982 568.706048231238  325.164795383292 567.018087408469  L 323.472382733689 565.952376648711  C 322.403857557663 567.649258760265  321.348766356462 569.354563193949  320.307208074851 571.06813002904  L 322.016261501662 572.106944923188  Z M 317.944139916443 578.968325799007  C 318.94405355075 577.242302419444  319.957599249678 575.524212351094  320.984681964505 573.814216713738  L 319.270176385709 572.784425171592  C 318.237665285706 574.503458557157  317.218762748081 576.230629154757  316.213564323882 577.965774993096  L 317.944139916443 578.968325799007  Z M 314.017586820863 585.914036886826  C 314.980887224699 584.167315296291  315.957983926513 582.428237839108  316.948785295715 580.696967603224  L 315.212949008777 579.703553095101  C 314.21691101025 581.44397352069  313.234650111666 583.192242430643  312.266258427881 584.948195875098  L 314.017586820863 585.914036886826  Z M 310.238347850205 592.940990318471  C 311.164606767252 591.174347060351  312.104820082188 589.415055359355  313.058899623288 587.663280199089  L 311.302504332294 586.706684369194  C 310.343382245782 588.46771809273  309.39819967185 590.236308083777  308.467045248243 592.012288486727  L 310.238347850205 592.940990318471  Z M 306.608103148026 600.046062107705  C 307.49690878957 598.260282581999  308.399820725181 596.481558768894  309.3167542812 594.710057474308  L 307.54058083019 593.790705598293  C 306.618801054437 595.57156971364  305.711117006821 597.359694520273  304.817613808499 599.154912330709  L 306.608103148026 600.046062107705  Z M 303.128466619215 607.226093539058  C 303.979423847218 605.421971653214  304.844632994204 603.624606498676  305.72401292222 601.834166629517  L 303.928850948053 600.95246742542  C 303.044823280478 602.752370210372  302.175041290012 604.55923488252  301.319586543421 606.372891996985  L 303.128466619215 607.226093539058  Z M 299.800985212494 614.47789257211  C 300.613715715261 612.656230388075  301.440837425922 610.841022950197  302.282272778306 609.032440485771  L 300.468920359602 608.188785932307  C 299.623037814089 610.006927200611  298.791544561431 611.831728456962  297.974518577736 613.663018574416  L 299.800985212494 614.47789257211  Z M 296.627138232689 621.798235260581  C 297.401280693057 619.959842638213  298.18994725229 618.12759990729  298.993063950509 616.301678892578  L 297.16232725285 615.496444054879  C 296.354965885034 617.332015511966  295.562131028743 619.173942097106  294.783897034763 621.022051077369  L 296.627138232689 621.798235260581  Z M 293.608336683073 629.183867185602  C 294.343546939031 627.329561422666  295.093407727832 625.481097962359  295.857848728742 623.638650150601  L 294.010541646272 622.872193013472  C 293.242060386359 624.724378615787  292.488236398546 626.582611660886  291.749140375272 628.446717886573  L 293.608336683073 629.183867185602  Z M 290.745922638073 636.631504902546  C 291.441873835775 634.762110371344  292.152595487097 632.898247956594  292.878020941683 631.040092448379  L 291.014964735274 630.312753757146  C 290.285705228449 632.180730074989  289.571227238118 634.054443461749  288.871597766886 635.933718203584  L 290.745922638073 636.631504902546  Z M 288.028424953452 644.137597611564  C 288.692873996793 642.255346006262  289.368381204886 640.377016301348  290.054911569098 638.502705842573  L 288.176926909849 637.814829676667  C 287.487700981111 639.696499350774  286.809541489367 641.582204051997  286.142483580689 643.471846052422  L 288.028424953452 644.137597611564  Z M 285.429751206367 651.687103596142  C 286.064616174111 649.794668627751  286.710599420117 647.905981752054  287.367667465852 646.021140851571  L 285.479131722127 645.362784758964  C 284.8194837915 647.255026221071  284.170964183511 649.151128759046  283.533606508124 651.050994106096  L 285.429751206367 651.687103596142  Z M 282.949727809359 659.27641382865  C 283.554852721516 657.37426044957  284.171153293793 655.475680434622  284.798597585983 653.580772179045  L 282.899974752182 652.952097911263  C 282.270066888589 654.854446256501  281.651346499147 656.760480777765  281.04384564948 658.670102693459  L 282.949727809359 659.27641382865  Z M 280.588964079446 666.903663691248  C 281.164200262859 664.992259241595  281.750666742503 663.084252549572  282.348333124342 661.179742498962  L 280.440089673163 660.580904515004  C 279.840076638676 662.492892355379  279.251307481226 664.40839056621  278.673812714173 666.327299875511  L 280.588964079446 666.903663691248  Z M 278.348040032735 674.566979244703  C 278.893246157609 672.646793337491  279.449734455654 670.72982874661  280.017476086473 668.816184820094  L 278.100080854302 668.247330248481  C 277.530110066144 670.168487827636  276.97143679539 672.092979109249  276.424089995658 674.020704355263  L 278.348040032735 674.566979244703  Z M 276.227506241916 682.264477688806  C 276.742548356545 680.335982094562  277.268921749365 678.410530583908  277.806599140707 676.488222944715  L 275.880523212431 675.949491547343  C 275.340734706741 677.879346856018  274.812294583134 679.812358380097  274.295230228375 681.748425939955  L 276.227506241916 682.264477688806  Z M 274.227883700996 689.994267824948  C 274.712635264667 688.05793635581  275.208764427569 686.124470989616  275.716245477461 684.193971929565  L 273.781962070729 683.685496067365  C 273.272488468163 685.623574959344  272.774411324165 687.564631804259  272.287756451937 689.508566005455  L 274.227883700996 689.994267824948  Z M 272.349663697293 697.754450520778  C 272.804005611381 695.810758914076  273.269768650377 693.869754725504  273.746928675785 691.931538548962  L 271.804913024741 691.453443149383  C 271.325879497879 693.399269458021  270.858287706084 695.347894725436  270.402161882634 697.299217962736  L 272.349663697293 697.754450520778  Z M 270.593307690731 705.543119176792  C 271.017128327959 703.592544978173  271.452410809715 701.644478852594  271.899132577179 699.699021759947  L 269.949861815702 699.251424286261  C 269.501386058302 701.204519941451  269.064394501357 703.160234873546  268.638909792247 705.118467726301  L 270.593307690731 705.543119176792  Z M 268.959247200466 713.358360194772  C 269.35244243233 711.401382640865  269.75713741228 709.4467331987  270.173311166718 707.494513169355  L 268.217264211195 707.077523591798  C 267.799456409285 709.037408737389  267.393172451645 710.999732834557  266.998433394232 712.964394184459  L 268.959247200466 713.358360194772  Z M 267.447883698866 721.198253447935  C 267.810356921218 719.235353348609  268.184364969843 717.274600827735  268.569888461512 715.316097502685  L 266.607545893175 714.929818271438  C 266.220508697958 716.896011383219  265.845032159552 718.864462521949  265.481135737279 720.83506967132  L 267.447883698866 721.198253447935  Z M 266.059340653429 729.061593731822  C 266.069235398931 729.003139035086  266.079137250868 728.944685540018  266.089046208534 728.886233250781  C 266.411563286794 726.976220253981  266.744972776863 725.068062485752  267.089258406529 723.161853074665  L 265.121102353378 722.806379094682  C 264.775503316959 724.719860457018  264.44082069856 726.63529739381  264.117070828913 728.55259644192  C 264.107170902688 728.610995768096  264.097278050328 728.669396292579  264.08739227184 728.727798015333  L 266.059340653429 729.061593731822  Z M 264.769019974383 736.945743517849  C 265.08083430294 734.972961419781  265.400726783504 733.001464618654  265.728689367898 731.03130271536  L 263.755836973 730.702892258851  C 263.426977726311 732.678440660416  263.106210647422 734.655327609497  262.793543806521 736.63350336955  L 264.769019974383 736.945743517849  Z M 263.564879099381 744.843514726009  C 263.855130065607 742.867444950278  264.153472738827 740.892572173285  264.459899613039 738.918946080857  L 262.483578298242 738.612100744117  C 262.176313641194 740.591122806043  261.877155287649 742.571394961037  261.58611076414 744.55286738739  L 263.564879099381 744.843514726009  Z M 262.447061648652 752.753965373737  C 262.715714633741 750.774843610088  262.992471915721 748.79683040405  263.277326531611 746.81997552077  L 261.29777201661 746.534731901841  C 261.012138597258 748.516991582309  260.734624650257 750.500412752299  260.465237157587 752.484945510873  L 262.447061648652 752.753965373737  Z M 261.415700946461 760.676151966166  C 261.662723907662 758.694214268207  261.917862788992 756.71329655482  262.181111171411 754.733448663919  L 260.198559561532 754.469840784364  C 259.93459144793 756.455101655399  259.678755007102 758.441435273875  259.431056675642 760.428791665581  L 261.415700946461 760.676151966166  Z M 260.470920005211 768.609129608662  C 260.696283479607 766.624612366016  260.92977352939 764.641026413094  261.171384280182 762.658421654941  L 259.186072038218 762.416480955784  C 258.943800714358 764.404506231453  258.709672293814 766.393515384533  258.483692667028 768.3834583735  L 260.470920005211 768.609129608662  Z M 259.612831510764 776.55195211952  C 259.816508618815 774.565092029426  260.028321988237 772.579074423132  260.248266290018 770.593949266859  L 258.26043020803 770.373704604841  C 258.039884570085 772.364257169493  257.827492094778 774.35570462418  257.623258125695 776.347996866029  L 259.612831510764 776.55195211952  Z M 258.841537809009 784.503672142818  C 259.023504257748 782.514706181952  259.213615683416 780.526493798476  259.411867303 778.539085013831  L 257.421744474073 778.34056265796  C 257.22295082695 780.333405094513  257.032319629344 782.327053326986  256.849855677349 784.32145719714  L 258.841537809009 784.503672142818  Z M 258.157130893647 792.463341261412  C 258.317364979582 790.472506657619  258.485751786537 788.482336634928  258.662287078067 786.49288126403  L 256.670114868027 786.316104892455  C 256.493096922234 788.310999510707  256.324249739284 790.306610734656  256.163577567207 792.302888356677  L 258.157130893647 792.463341261412  Z M 257.559692395227 800.430010110052  C 257.698175006926 798.437544314058  257.844817111344 796.445654023608  257.999615019111 794.454389352676  L 256.005631038222 794.299380049859  C 255.850409907033 796.29608891484  255.703366877471 798.293425109827  255.564505648996 800.291338383792  L 257.559692395227 800.430010110052  Z M 257.049293571402 808.402728488618  C 257.166008191771 806.408869145752  257.290888103368 804.415496164077  257.423930164322 802.422659695181  L 255.42837223894 802.289435949385  C 255.294966435884 804.287720909686  255.169745097813 806.286543849631  255.052711375192 808.28585448048  L 257.049293571402 808.402728488618  Z M 256.625995298434 816.380545475451  C 256.720928006699 814.385530397098  256.824030830793 812.390912477887  256.935301176754 810.396741900413  L 254.938407320961 810.285319601493  C 254.826832757603 812.284942317876  254.723448046429 814.285013599065  254.628255788496 816.285483125224  L 256.625995298434 816.380545475451  Z M 256.289848063934 824.362509540769  C 256.362987537282 822.366576676319  256.444300976605 820.370951721434  256.533786336138 818.375684884046  L 254.535794723357 818.286077321556  C 254.446064707416 820.28679929507  254.364528954027 822.287880365208  254.291189514552 824.289270186727  L 256.289848063934 824.362509540769  Z M 256.164801983635 828.025701134826  C 256.182378896566 827.469959168763  256.200589424506 826.914237423177  256.219433531933 826.358536981998  L 254.220582466517 826.290754843608  C 254.152707700266 828.292337444243  254.093030629592 830.29418963049  254.041552755912 832.296261037704  L 256.164801983635 828.025701134826  Z M 719.968275933328 402.75601399601  C 721.964347635082 402.829268435101  723.960127550846 402.910268555192  725.955570599125 402.999012526617  L 726.044429400875 401.000987473383  C 724.043817327925 400.912013618284  722.042867514951 400.830803674309  720.041625160053 400.757359475854  L 719.968275933328 402.75601399601  Z M 247.597791340415 826.79116465995  L 255 834  L 262.79190172386 827.214259986877  L 247.597791340415 826.79116465995  Z " fill-rule="nonzero" fill="#aaaaaa" stroke="none" />
  </g>
</svg>