<?xml version="1.0" encoding="utf-8"?>
<svg version="1.1" xmlns:xlink="http://www.w3.org/1999/xlink" width="218px" height="36px" viewBox="266 730  218 36" xmlns="http://www.w3.org/2000/svg">
  <g transform="matrix(0.5 -0.866025403784439 0.866025403784439 0.5 -460.28700203076 698.759526419164 )">
    <path d="M 510.198314280768 514.729237655543  C 512.067621624012 514.026355874525  513.93999561412 513.331656972525  515.815382477015 512.645160901108  L 515.127884742932 510.76703767149  C 513.247019153292 511.45553926212  511.369175238156 512.152267646975  509.494406928785 512.857202816171  L 510.198314280768 514.729237655543  Z M 502.737669445451 517.58431993751  C 504.598648146861 516.859674496974  506.462788766088 516.143175596056  508.330037765517 515.434843812409  L 507.620672458836 513.56487032017  C 505.747968506494 514.275271413549  503.878382015083 514.993863483509  502.011966678713 515.720625892247  L 502.737669445451 517.58431993751  Z M 495.310846260078 520.526260380273  C 497.163242943241 519.779949942318  499.018896384671 519.041748595409  500.877753290504 518.31167754049  L 500.146616992898 516.450108386705  C 498.282329650687 517.182312260134  496.421255131386 517.922670177282  494.563446884642 518.671160875234  L 495.310846260078 520.526260380273  Z M 487.918855903246 523.554658432058  C 489.762418360207 522.78678460852  491.609331972473 522.026981323386  493.459543697182 521.275270398002  L 492.706735954495 519.422359039478  C 490.851119049309 520.17626600176  488.998809891577 520.938288964708  487.149861679209 521.708406043192  L 487.918855903246 523.554658432058  Z M 480.562704810983 526.669101769694  C 482.397182036589 525.879769108312  484.235104358268 525.09846733387  486.076418991387 524.325218885146  L 485.302042300077 522.481217599909  C 483.455348478309 523.256725004926  481.612056878184 524.040309262543  479.772220438628 524.831947868394  L 480.562704810983 526.669101769694  Z M 473.24339453972 529.86916635475  C 475.068536765791 529.058482324932  476.897217559647 528.255788437168  478.729384402068 527.461107744611  L 477.933544195255 525.626267597563  C 476.096024888402 526.423269858245  474.26200181416 527.228308723781  472.431527645264 528.041361073631  L 473.24339453972 529.86916635475  Z M 465.961921629928 533.154416491274  C 467.777480359267 532.322491469464  469.596670646318 531.498514756947  471.419440244426 530.68251001811  L 470.602244877535 528.857080826843  C 468.774150267962 529.67546942955  466.949645425947 530.501853295161  465.128782750866 531.336208690115  L 465.961921629928 533.154416491274  Z M 458.719277470439 536.524404885106  C 460.525005510662 535.67135213976  462.334457604079 534.826204788762  464.147581783715 533.988987104517  L 463.309142519723 532.1732174053  C 461.490721506602 533.012880924592  459.675983307232 533.860497276266  457.864980040493 534.716042116968  L 458.719277470439 536.524404885106  Z M 451.516448163461 539.978672704788  C 453.312099660631 539.104608380955  455.11156719951 538.238405460157  456.914799099735 537.380088819577  L 456.055230094025 535.574225833517  C 454.246730259445 536.435049947327  452.442005783387 537.303783380201  450.641108497138 538.180401182308  L 451.516448163461 539.978672704788  Z M 444.359126368565 543.517483071188  C 445.918608306959 542.728190581674  447.483728643087 541.950088154336  449.054366722127 541.183235772938  C 449.2768774046 541.073820757202  449.499447514247 540.964526635747  449.722076952035 540.855353457203  L 448.841495236849 539.059643056587  C 448.619056366078 539.168722784745  448.396676549479 539.277922897126  448.174355884984 539.387243345642  C 446.595976902901 540.157890120952  445.023139995291 540.939836360155  443.455966282495 541.733021847476  L 444.359126368565 543.517483071188  Z M 437.280607687561 547.1976290712  C 439.040141394298 546.258321019849  440.807330055464 545.333423272959  442.581996267277 544.42302867877  L 441.669117370913 542.643519723869  C 439.884745823387 543.558893105116  438.107892719898 544.488848954249  436.338736434441 545.433293915243  L 437.280607687561 547.1976290712  Z M 430.284051723064 551.031309539677  C 432.022676765139 550.053842689347  433.769269285244 549.09061573002  435.523653947125 548.141725357752  L 434.572174224661 546.382553297452  C 432.808195143265 547.336632983388  431.052050817514 548.30512766063  429.303917542498 549.287940104334  L 430.284051723064 551.031309539677  Z M 423.372788158896 555.016700015569  C 425.089677118988 554.001539545919  426.814842288927 553.000441777022  428.5481104835 552.013507206696  L 427.558482747242 550.275509236723  C 425.81573561538 551.26784117771  424.081135822183 552.274413773283  422.35485749994 553.295125976047  L 423.372788158896 555.016700015569  Z M 416.55010608795 559.15190383854  C 418.244441893008 558.099532867743  419.947358701023 557.061040714986  421.658685560308 556.036531631978  L 420.631380777326 554.32053487124  C 418.910694974047 555.350646813269  417.198465215109 556.394818295988  415.494863387128 557.452944497543  L 416.55010608795 559.15190383854  Z M 409.819252446894 563.43495305159  C 411.490228756967 562.345872406434  413.170086779412 561.27048009161  414.858657877359 560.208884063144  L 413.794164945353 558.515705160101  C 412.096359350647 559.583106869534  410.4073144817 560.664380314783  408.727199897652 561.759416949415  L 409.819252446894 563.43495305159  Z M 403.183430470949 567.863809337618  C 404.830252062945 566.738537315145  406.486251849926 565.626756620952  408.151263590026 564.528578864049  L 407.050089104657 562.859023608069  C 405.375971709749 563.96320710495  403.71091555276 565.081067931166  402.055087784659 566.212493867365  L 403.183430470949 567.863809337618  Z M 396.645798169455 572.436364989459  C 398.267681315624 571.275437110283  399.899034771393 570.127797136812  401.539694769145 568.993560277839  L 400.402362782946 567.348423215717  C 398.752730305769 568.488863015514  397.112455266398 569.642779229081  395.481702328086 570.810056017552  L 396.645798169455 572.436364989459  Z M 390.214874027828 577.148841887447  C 391.183893688773 576.414761398376  392.160024273353 575.690115185563  393.143127509809 574.975005897269  C 393.769656915872 574.515237859236  394.397650230057 574.057468036473  395.027097881902 573.601703405281  L 393.854149654877 571.981767463116  C 393.222390615508 572.439205702399  392.592088642923 572.898652902264  391.96325330863 573.360102085736  C 390.970819714081 574.082031883027  389.985417226343 574.813578166139  389.007185112672 575.554637545397  L 390.214874027828 577.148841887447  Z M 383.975634791933 582.087027003274  C 385.509065736793 580.819564724054  387.062556661043 579.576569337007  388.635518281114 578.358512345858  L 387.410995746091 576.777201319773  C 385.82126865818 578.008241015046  384.2512197952 579.264484913004  382.701444721619 580.545456484383  L 383.975634791933 582.087027003274  Z M 377.951361671314 587.285287467034  C 379.429679316391 585.953954288546  380.929076189515 584.646215552851  382.448983526525 583.36256732269  L 381.158521588948 581.834592196039  C 379.622414265074 583.131922236899  378.107036016609 584.453599552805  376.612961669892 585.799122793725  L 377.951361671314 587.285287467034  Z M 372.152887397895 592.734275866857  C 373.57343346087 591.341465766783  375.016040096273 589.971335233061  376.48016008212 588.624403995415  L 375.126079225797 587.152512343648  C 373.646353864575 588.513799896195  372.188371154606 589.898534015353  370.752684150475 591.306189431828  L 372.152887397895 592.734275866857  Z M 366.590638676461 598.424193936726  C 367.950858758753 596.972411439373  369.334081088971 595.542352849958  370.739780971283 594.134560630646  L 369.324516078337 592.72139918099  C 367.903833493412 594.144196404163  366.505868038385 595.589497324336  365.131150001562 597.056753697505  L 366.590638676461 598.424193936726  Z M 361.27461743556 604.344810175529  C 362.572065615612 602.836665848225  363.893416356877 601.349250706946  365.238168433199 599.883128970824  L 363.764264405707 598.531238842987  C 362.405179241151 600.012987290214  361.069744835623 601.51625609912  359.758467757612 603.040475036825  L 361.27461743556 604.344810175529  Z M 356.214382842222 610.485478245153  C 357.446726073697 608.923684003991  358.703829198557 607.381586952103  359.985215361595 605.859772051051  L 358.455322545399 604.571584187829  C 357.160278681987 606.109619407582  355.889776678387 607.668152956202  354.644298472383 609.246593637296  L 356.214382842222 610.485478245153  Z M 351.506687083706 616.866089658296  C 352.624138876636 615.229530057148  353.786681170238 613.624218303099  354.992978122268 612.051999011412  L 353.406218146921 610.834545611632  C 352.177452810116 612.436048926575  350.993257102295 614.071261081281  349.854991746993 615.738303102835  L 351.506687083706 616.866089658296  Z M 347.28270732757 623.570853858417  C 348.276421142594 621.856339731483  349.317407172369 620.169662969942  350.404469251275 618.512761683133  L 348.732244098645 617.415645901227  C 347.624934493602 619.103408490954  346.564559146276 620.821501150886  345.552336501966 622.567949672615  L 347.28270732757 623.570853858417  Z M 343.564701200839 630.568874893043  C 344.429264915083 628.785744100969  345.343025096665 627.026888580281  346.304931771351 625.294329378746  L 344.556348981119 624.323526501894  C 343.576525914246 626.088356204256  342.645746112978 627.879972018782  341.765079108277 629.696315253841  L 343.564701200839 630.568874893043  Z M 340.372918302249 637.822039022425  C 341.103623190741 635.9800031369  341.885180857502 634.158548216889  342.716693238218 632.359767241244  L 340.901276221227 631.520564611113  C 340.054276161391 633.352849528737  339.258161267778 635.20823071369  338.513846331972 637.084576203478  L 340.372918302249 637.822039022425  Z M 337.724742229554 645.290842905744  C 338.317608610635 643.399934316781  338.962707118396 641.525800296124  339.65929648962 639.670594354583  L 337.786932659951 638.96756257056  C 337.077368674146 640.857323420709  336.420254616261 642.766364902775  335.81634555622 644.692493394831  L 337.724742229554 645.290842905744  Z M 335.673617240106 652.929547250304  C 335.890509985357 651.940686110009  336.123445074876 650.955411951844  336.372330398461 649.974114385642  C 336.618821918687 649.041626212739  336.877866366792 648.112501529124  337.149393207999 647.186993324595  L 335.23028013256 646.623961350655  C 334.952754728541 647.56991585461  334.688030933159 648.519579163769  334.436181318942 649.472690933315  C 334.1810447374 650.478192157486  333.942304776768 651.487782865482  333.720056454874 652.50106124306  L 335.673617240106 652.929547250304  Z M 334.306823509161 660.723612514545  C 334.5658813352 658.761634629262  334.8871501362 656.808373954866  335.270144626188 654.866780949057  L 333.307955370353 654.479723686773  C 332.916770345038 656.462838663582  332.588631044506 658.457870828103  332.324033132821 660.46180662558  L 334.306823509161 660.723612514545  Z M 333.603801841406 668.605321655389  C 333.696074482282 666.628467098442  333.851072327632 664.655039478142  334.068561248654 662.688019714944  L 332.080675510598 662.468223690332  C 331.858535476473 664.47730918889  331.700222922005 666.49293957989  331.605976982963 668.51207019435  L 333.603801841406 668.605321655389  Z M 333.569585279833 676.5182482741  C 333.494412141156 674.540669659026  333.482029376838 672.561203172375  333.532455691409 670.582838856488  L 331.533105058634 670.531877623951  C 331.481600351236 672.552550284327  331.494247927376 674.57434868596  331.571028682517 676.594218842905  L 333.569585279833 676.5182482741  Z M 334.204418786202 684.405742481095  C 333.962338044328 682.441597605078  333.782663320504 680.470263564827  333.665666018685 678.494718118389  L 331.669164157681 678.612956517428  C 331.788663507333 680.630750025373  331.972180668089 682.644242064031  332.219438431878 684.65039119446  L 334.204418786202 684.405742481095  Z M 335.506263464219 692.209966067015  C 335.43521328441 691.873499353367  335.365412931871 691.536769931209  335.29686385067 691.19978476698  C 334.978130767941 689.596389427253  334.70149394168 687.984912450905  334.467238556741 686.367015109257  L 332.487878739192 686.653606652526  C 332.727356863386 688.307575122096  333.010199871526 689.954973985555  333.336115661444 691.594101914724  C 333.40593631128 691.937393511152  333.477037061857 692.280423510037  333.549416429667 692.623184754108  L 335.506263464219 692.209966067015  Z M 337.36857731826 699.93025676  C 336.847919101731 698.01394897469  336.368417160647 696.086695712132  335.930402213819 694.149826224316  L 333.979662549013 694.590977853752  C 334.423984675361 696.55573721988  334.910391186357 698.510741892283  335.438546601015 700.454643478453  L 337.36857731826 699.93025676  Z M 339.669099781579 707.531486770393  C 339.039766182148 705.648069735557  338.450895992488 703.751372830603  337.902895364131 701.84270423239  L 335.980558539207 702.394629165276  C 336.53645008171 704.330781564167  337.133799685205 706.25478988386  337.772195349796 708.16532711045  L 339.669099781579 707.531486770393  Z M 342.400309614564 714.988804929312  C 341.664358151283 713.144436216126  340.968044942584 711.284496656645  340.311850244865 709.410269075702  L 338.424201073862 710.071162869902  C 339.089844622101 711.972378319409  339.796184366291 713.859100007635  340.542733134595 715.730026637756  L 342.400309614564 714.988804929312  Z M 345.55327750489 722.277830567743  C 344.713114269153 720.478540084305  343.911634541022 718.661438685114  343.149391111635 716.82777964897  L 341.302601002112 717.595481603747  C 342.075820326687 719.455544343242  342.888840931591 721.298811024719  343.741102065796 723.124010322845  L 345.55327750489 722.277830567743  Z M 349.117695260671 729.374733225763  C 348.176067049828 727.626403503134  347.272041129248 725.858081025629  346.406241017526 724.07098542857  L 344.606347793998 724.942985648695  C 345.484614961404 726.755814460638  346.401658368746 728.549599830211  347.356845519095 730.323104559994  L 349.117695260671 729.374733225763  Z M 353.079498176484 736.267344336674  C 352.855717375718 735.896575391331  352.632846925235 735.525257758014  352.410888838892 735.153394791951  C 351.608626401095 733.820857440091  350.828804165769 732.474937903414  350.071752142788 731.116205756262  L 348.324640306895 732.089653357772  C 349.091974758599 733.466840070833  349.88237014138 734.831050691137  350.695492509627 736.181708833548  C 350.918483907194 736.555290885418  351.142389226618 736.928326658087  351.367206456348 737.300812800225  L 353.079498176484 736.267344336674  Z M 357.299916924397 743.0276971024  C 356.219433926175 741.353604859794  355.157889864282 739.66736476075  354.115487774571 737.969299323387  L 352.411024632914 739.015628811995  C 353.461303757856 740.72652588257  354.530869503573 742.425508255263  355.619517299935 744.112250974787  L 357.299916924397 743.0276971024  Z M 361.721964043617 749.657916042994  C 360.591567066322 748.017114098845  359.479734689854 746.363599589201  358.386679568442 744.697688772934  L 356.714492195012 745.794862135782  C 357.815807117303 747.473361605041  358.936041187226 749.139371093539  360.074980143571 750.792571952505  L 361.721964043617 749.657916042994  Z M 366.341630036646 756.151989497896  C 365.162344018218 754.54596557749  364.001231432465 752.926675909078  362.858514359201 751.294430205562  L 361.220118936643 752.441452628769  C 362.371471087232 754.086032590864  363.541357758181 755.717558614029  364.729555191514 757.335718644995  L 366.341630036646 756.151989497896  Z M 371.154726223728 762.504029250503  C 369.927620430097 760.934239545665  368.718280423037 759.350642938464  367.526937506562 757.753542314977  L 365.923819578147 758.949373786211  C 367.124165018909 760.558543090303  368.342643547404 762.154106333402  369.579022111752 763.735758340644  L 371.154726223728 762.504029250503  Z M 376.156888540755 768.708275867048  C 374.883075596338 767.176143715817  373.626604684049 765.629676026683  372.387716122356 764.069168584243  L 370.821329245034 765.312724835706  C 372.069579615326 766.885024438027  373.335545199343 768.443178193988  374.618983862608 769.986888083841  L 376.156888540755 768.708275867048  Z M 381.343581496189 774.759103918717  C 380.02421637507 773.266018514804  378.7217538075 771.758081935553  377.436442908522 770.235582595924  L 375.908207334971 771.525736087465  C 377.203230838456 773.059740374231  378.515535619162 774.579071855398  379.844870679562 776.083439936548  L 381.343581496189 774.759103918717  Z M 386.710102283417 780.651027082256  C 385.346381262125 779.198342215445  383.999107990137 777.7303040015  382.668540153227 776.247193224263  L 381.179841544103 777.582774165724  C 382.520463974952 779.077092245751  383.877918077479 780.556223864865  385.251944218686 782.01988611746  L 386.710102283417 780.651027082256  Z M 392.219667647899 786.430533904058  C 390.831704787151 784.995985284042  389.452182414585 783.55329424314  388.081171960655 782.102535482622  L 386.627570564285 783.47623231252  C 388.003961673479 784.932684707786  389.38889810712 786.381037720951  390.782308154395 787.821216357544  L 392.219667647899 786.430533904058  Z M 397.816226858935 792.124985984637  C 396.405959306994 790.712358617654  395.004003640163 789.291457592196  393.61043245047 787.862356481265  L 392.178531139971 789.258658252729  C 393.577571526587 790.693368000992  394.985029295999 792.119845481814  396.400831571256 793.538016833421  L 397.816226858935 792.124985984637  Z M 403.501314036321 797.731057986151  C 402.069087970553 796.34069862883  400.645043146482 794.941936406346  399.229253299949 793.534843745429  L 397.819403563102 794.953407709271  C 399.240749805717 796.366022633375  400.670383423238 797.770274425439  402.108230390526 799.166090374573  L 403.501314036321 797.731057986151  Z M 409.273533665814 803.247373790157  C 407.819700653699 801.879623732986  406.37391623168 800.503343666665  404.936255261199 799.118604853761  L 403.5488031728 800.559082796111  C 404.992106374569 801.949256142481  406.443564909088 803.330937545134  407.903103621141 804.704055461853  L 409.273533665814 803.247373790157  Z M 415.131468844834 808.6725793106  C 413.65638575772 807.327774294207  412.189216633391 805.974314218503  410.730037440571 804.612269164458  L 409.365323577481 806.074307492235  C 410.830229451802 807.441698016016  412.303156614858 808.80046986894  413.784028799754 810.150552694972  L 415.131468844834 808.6725793106  Z M 421.073681630264 814.005342826199  C 419.57771055573 812.6838129589  418.089516874036 811.353505106681  416.60917764254 810.01448815171  L 415.267537000085 811.497727979423  C 416.753685957579 812.84200002826  418.247720190789 814.177528794691  419.749562339911 815.50424512619  L 421.073681630264 814.005342826199  Z M 427.098713391425 819.244355307349  C 425.58222154442 817.946424984134  424.07336861117 816.63959590509  422.572232718808 815.323935736727  L 421.253994628548 816.828012974566  C 422.761021865315 818.148836570978  424.275796429154 819.460794419619  425.798239886405 820.763818588492  L 427.098713391425 819.244355307349  Z M 433.205085168123 824.38833073744  C 431.668444800796 823.114318560319  430.139302993047 821.831289040857  428.617738922554 820.539308613243  L 427.32322697144 822.063854056457  C 428.850762558572 823.360904978814  430.385905622463 824.648969864352  431.928576674729 825.927982018183  L 433.205085168123 824.38833073744  Z M 436.944456826222 827.458767180155  C 436.209370645693 826.86100014852  435.475952940815 826.261184278441  434.744212267738 825.659326567449  L 433.473744218683 827.203965986968  C 435.021413193144 828.476925849134  436.576547926588 829.74078159118  438.139067895538 830.995467771795  L 436.944456826222 827.458767180155  Z M 517.691764982542 511.961402260213  C 519.569146457241 511.28037983764  521.449498890321 510.607575519369  523.332768278565 509.943008628158  L 522.667231721435 508.056991371842  C 520.778460578557 508.723499718691  518.892614912346 509.398269557312  517.009748883874 510.081281508464  L 517.691764982542 511.961402260213  Z M 430.781389689215 833.529706938048  L 441 832  L 440.313921020178 821.69032999396  L 430.781389689215 833.529706938048  Z " fill-rule="nonzero" fill="#f59a23" stroke="none" />
  </g>
</svg>