<?xml version="1.0" encoding="utf-8"?>
<svg version="1.1" xmlns:xlink="http://www.w3.org/1999/xlink" width="278px" height="42px" viewBox="706 578  278 42" xmlns="http://www.w3.org/2000/svg">
  <g transform="matrix(-0.669130606358859 -0.743144825477394 0.743144825477394 -0.669130606358858 965.271611912276 1627.76661073735 )">
    <path d="M 933.749896772648 517.380302149235  C 935.425335460697 516.291881987242  937.104140453096 515.208652472572  938.786287604151 514.130629184957  L 937.707151321204 512.446745316387  C 936.021528044159 513.526996319198  934.33925383229 514.612464307627  932.660352881166 515.703133669764  L 933.749896772648 517.380302149235  Z M 927.066198446515 521.761599179029  C 928.732592603201 520.659381523116  930.402395810208 519.56232654098  932.075584051309 518.4704500112  L 930.982580223544 516.79553430213  C 929.305934369874 517.889667174573  927.632680545421 518.988989200541  925.962842816016 520.093484568864  L 927.066198446515 521.761599179029  Z M 920.41890566701 526.197936145668  C 922.076141670629 525.081996149632  923.736829238095 523.971190501816  925.400944484289 522.865535178567  L 924.294147637266 521.199701831735  C 922.62659352768 522.307641971269  920.962474180067 523.420743078414  919.301813528883 524.538989143821  L 920.41890566701 526.197936145668  Z M 913.80847167428 530.689010561194  C 915.456436527527 529.559424314509  917.107895222933 528.434943740315  918.762824007859 527.315585011818  L 917.642309607602 525.65894761069  C 915.983960942894 526.780619473334  914.329089538721 527.907423765781  912.677719196527 529.039344281591  L 913.80847167428 530.689010561194  Z M 907.235347195288 535.234516205421  C 908.873928533172 534.0913607279  910.51604575292 532.95328189928  912.161675236758 531.820296087995  L 911.027519684615 530.172967589018  C 909.378489537913 531.308294694507  907.732978913214 532.448725342038  906.091011477329 533.594243129191  L 907.235347195288 535.234516205421  Z M 900.699980413076 539.834143146814  C 902.329066510161 538.677496383654  903.961730288104 537.525896899395  905.597948264845 536.379361257108  L 904.45022889227 534.74145398201  C 902.810629701329 535.890358919007  901.174592053882 537.044338162303  899.542139480494 538.203375114617  L 900.699980413076 539.834143146814  Z M 894.202816936212 544.487577763625  C 895.822296714654 543.317518579797  897.445395728883 542.152476960812  899.072090634402 540.992469663076  L 897.91088569769 539.364095291208  C 896.28082925722 540.52649972258  894.654376138896 541.693948878526  893.03154973543 542.866425968026  L 894.202816936212 544.487577763625  Z M 887.744299768401 549.194502765271  C 889.354062805315 548.011110940291  890.967486386167 546.832706623977  892.584547305621 545.659306764927  L 891.409935980568 544.040576325646  C 889.789533434617 545.216400993812  888.172775743773 546.397240460853  886.559686161303 547.583077743162  L 887.744299768401 549.194502765271  Z M 881.324869278282 553.954597213972  C 882.924805813267 552.757953436462  884.528443950877 551.566266771279  886.135760626266 550.379554358243  L 884.947823002771 548.770578223341  C 883.337184837144 549.959742955671  881.730232811063 551.153892219246  880.126990036764 552.353008839032  L 881.324869278282 553.954597213972  Z M 874.944963169401 558.767536546635  C 876.534964112195 557.557722408696  878.128707463659 556.352834648935  879.726170301512 555.152890596855  L 878.524987378117 553.553778473036  C 876.924223412841 554.756202187317  875.327186620215 555.963579825351  873.733899969867 557.175894021841  L 874.944963169401 558.767536546635  Z M 868.605016450368 563.632992596981  C 870.184973388074 562.410090588787  871.768713285324 561.192083888723  873.35621336396 559.978990014787  L 872.141867042327 558.389850936186  C 870.551086424168 559.605451646155  868.964073757626 560.825975334602  867.380851868158 562.051404447158  L 868.605016450368 563.632992596981  Z M 862.30052759659 568.546275902233  C 862.939008812557 568.044840027982  863.578850723195 567.54513915816  864.220046249056 567.047178821642  C 865.154129242305 566.315574199096  866.089556788949 565.585687873869  867.026324143844 564.857523548452  L 865.798897223171 563.2784658692  C 864.861276812449 564.007293288625  863.924995882523 564.737842288466  862.990059171514 565.470109171725  C 862.347092568673 565.969454375644  861.705481058032 566.470541983351  861.065231714829 566.973366469206  L 862.30052759659 568.546275902233  Z M 856.067105551649 573.532080344362  C 857.614330762367 572.271786264367  859.169952346573 571.021835366517  860.733866310616 569.782311210309  L 859.491582308522 568.214915134603  C 857.920692478623 569.459968210199  856.358132016866 570.715494536105  854.804005380772 571.9814101801  L 856.067105551649 573.532080344362  Z M 849.92342567297 578.628058550146  C 851.447970681204 577.340421357992  852.981094855851 576.062976241598  854.522695707216 574.795808598457  L 853.252706668953 573.250775316391  C 851.704229479756 574.523595183191  850.164266777671 575.80673836607  848.632921509494 577.100119086668  L 849.92342567297 578.628058550146  Z M 843.871434990342 583.832595523105  C 845.372816643552 582.518023291481  846.882957537224 581.213488799202  848.401756718101 579.919079254692  L 847.104465123378 578.396898411867  C 845.578891311933 579.69708169301  844.062014408134 581.007435084431  842.553935815546 582.32787098871  L 843.871434990342 583.832595523105  Z M 837.913051475793 589.144041862761  C 839.390793962271 587.802951200499  840.87747298732 586.471740760048  842.372989166112 585.150499533124  L 841.048806147253 583.65165353284  C 839.546619192125 584.978788179599  838.053308809048 586.315936507713  836.568974826102 587.663009128567  L 837.913051475793 589.144041862761  Z M 832.050163435748 594.56071428736  C 833.503798435427 593.193530207395  834.966544439623 591.836065700533  836.438303663495 590.488411513528  L 835.087648875143 589.013375363903  C 833.609324843271 590.3670407862  832.14005423467 591.730560287487  830.679935270413 593.103842716177  L 832.050163435748 594.56071428736  Z M 826.284628912602 600.080896167328  C 827.713695745438 598.68805195203  829.152045161348 597.304763580815  830.599581006403 595.931123526768  L 829.222882492524 594.480364690199  C 827.768889888277 595.860131889957  826.324124689378 597.249590443399  824.888683478705 598.648647464908  L 826.284628912602 600.080896167328  Z M 820.618275095871 605.702838069298  C 822.022320867866 604.284775133144  823.435817859718 602.876101283627  824.858671578833 601.476910690909  L 823.456365637066 600.050888935927  C 822.027165253808 601.456320642993  820.607363333661 602.871277907095  819.197054790704 604.295666138019  L 820.618275095871 605.702838069298  Z M 815.052897743131 611.424758310539  C 816.431477489876 609.9819260602  817.819674097991 608.548313163527  819.21739476622 607.124015457866  L 817.789925809602 605.723182713426  C 816.385970583639 607.153833524167  814.991581900055 608.593841076465  813.606852973995 610.043109105547  L 815.052897743131 611.424758310539  Z M 809.59026061091 617.244843523591  C 810.942937438574 615.777699215538  812.305393721386 614.31960160642  813.677538378837 612.870648170392  L 812.225358794967 611.495448382655  C 810.84709366203 612.950864901083  809.478560118924 614.415466380318  808.119849652374 615.889154911477  L 809.59026061091 617.244843523591  Z M 804.301593633194 623.196295421844  C 805.445542052938 621.857809889441  806.604879294887 620.53255347106  807.779374366838 619.220790217478  C 807.933073520324 619.052071928527  808.086901471269 618.883471016661  808.240858085213 618.714987629255  L 806.764428092879 617.365856620888  C 806.607851796899 617.537206873784  806.451407989148 617.708678144498  806.295096809679 617.880270279526  C 805.108385941224 619.205577648695  803.937014236806 620.544540498814  802.78121584171 621.896891184833  L 804.301593633194 623.196295421844  Z M 799.23282868861 629.340095921825  C 800.473215189985 627.78225469843  801.733855664697 626.240648254297  803.014428838107 624.715669468333  L 801.482816817355 623.429526156766  C 800.191066945609 624.967814785707  798.919423742904 626.522876197151  797.668211287938 628.094314083172  L 799.23282868861 629.340095921825  Z M 794.380640235215 635.656339256257  C 795.56613802727 634.056332089043  796.772441762992 632.471846010765  797.999244015478 630.903284828217  L 796.423860026804 629.671146326169  C 795.186350382525 631.253397733933  793.969518163736 632.851713028147  792.773673480564 634.465684877587  L 794.380640235215 635.656339256257  Z M 789.750890328799 642.137394606355  C 790.880067180639 640.497154505835  792.030576810279 638.871703052482  793.202126009948 637.261454493147  L 791.584873315957 636.084809379369  C 790.403098966906 637.709112006655  789.242547818882 639.348750217105  788.103515638736 641.003306148368  L 789.750890328799 642.137394606355  Z M 785.395386330119 648.786796026741  C 786.438128257432 647.096377064339  787.516036697944 645.427904861659  788.628407528104 643.782469316998  L 786.971505270857 642.662346596075  C 785.843549343911 644.330835848657  784.750538648905 646.022684519015  783.693187174651 647.736787438622  L 785.395386330119 648.786796026741  Z M 781.414820877707 655.660765833688  C 782.361920173429 653.914962316828  783.345352307998 652.189115471389  784.364474872755 650.484352674563  L 782.647831923542 649.458128047634  C 781.614430735707 651.186775768859  780.617220026058 652.936802941033  779.656851203855 654.707066391612  L 781.414820877707 655.660765833688  Z M 777.822777429592 662.745509025548  C 778.671301447553 660.949726748554  779.557212127179 659.171849259815  780.47993076387 657.413037924586  L 778.708862622751 656.483889045495  C 777.773216049739 658.267342563117  776.874893139129 660.070129364453  776.014480703577 661.891071812708  L 777.822777429592 662.745509025548  Z M 774.661239802828 670.016032294483  C 775.150553465279 668.75898948775  775.667518450201 667.512886051011  776.211758015509 666.278630091425  C 776.46626825236 665.699733284319  776.724622451126 665.122534089225  776.986803500319 664.547070735584  L 775.166794192273 663.71787466792  C 774.901089826325 664.301071378654  774.639261547691 664.886026268829  774.381326678379 665.472700639062  C 773.825389515579 666.733524726142  773.297306672098 668.006447779604  772.797462789448 669.290542636117  L 774.661239802828 670.016032294483  Z M 772.111839218099 677.505337463167  C 772.668127476175 675.606529781445  773.285668441947 673.726206200012  773.963494107797 671.867314163084  L 772.084513425039 671.182163381269  C 771.39191814127 673.081560118034  770.760921143111 675.002855386228  770.192511530772 676.943037517713  L 772.111839218099 677.505337463167  Z M 770.216832679518 685.186358584725  C 770.607543155012 683.246700737942  771.060870524406 681.320183696376  771.576104188131 679.409827313391  L 769.645102995215 678.889025630447  C 769.118642544523 680.841008105928  768.655437307742 682.809503375899  768.256213368197 684.791425785284  L 770.216832679518 685.186358584725  Z M 769.051555411585 692.988134873707  C 769.20894716381 691.265325536458  769.432650555653 689.549219061888  769.722167951147 687.843632988456  C 769.762868891251 687.60556109501  769.804509362534 687.367650778878  769.847088391909 687.129907599729  L 767.87841246348 686.777324150281  C 767.834836447903 687.02063407608  767.792222494809 687.264115322959  767.750571603212 687.507762182892  C 767.452362099575 689.264373177097  767.221950550665 691.031822744746  767.059849741683 692.806177393837  L 769.051555411585 692.988134873707  Z M 768.794837773447 700.862425045808  C 768.743746158888 698.892028097851  768.779165259513 696.920338084117  768.900992817634 694.953047426467  L 766.904816722711 694.829431092358  C 766.779371925076 696.855133505205  766.742901179222 698.885365897489  766.795509779017 700.914266830974  L 768.794837773447 700.862425045808  Z M 769.46116116172 708.708255190107  C 769.431056756454 708.505248590061  769.401934135169 708.30209761129  769.373794319205 708.098809378389  C 769.138521498939 706.350245531209  768.972038763833 704.59311310025  768.87473129645 702.831477472655  L 766.87777545831 702.941783322538  C 766.978041993301 704.756989339558  767.149637053245 706.56755149531  767.392163074032 708.36927494565  C 767.421348453586 708.580206479817  767.451559694893 708.7909947998  767.482795725699 709.001632424323  L 769.46116116172 708.708255190107  Z M 771.094902365974 716.40810335409  C 770.567819692434 714.510521697172  770.129071819659 712.589504508224  769.780074235671 710.651249371306  L 767.811727360952 711.005665201628  C 768.171688602359 713.004810058956  768.624219611727 714.986175443202  769.167860433889 716.943369075006  L 771.094902365974 716.40810335409  Z M 773.666319986094 723.847497381416  C 772.909103778592 722.02946110441  772.236655277071 720.177267877743  771.651143934333 718.296893245672  L 769.741576169056 718.891494750727  C 770.345481180036 720.830940804012  771.039054455312 722.741320141254  771.820058389356 724.616469498211  L 773.666319986094 723.847497381416  Z M 777.125003096438 730.931281161495  C 776.427707855794 729.676938777404  775.764428230632 728.403986618812  775.135890156683 727.113817886146  C 774.901563629536 726.629859038903  774.673377707051 726.142950963685  774.451387320493 725.653210874019  L 772.629788385334 726.478908954085  C 772.859085797579 726.984769306755  773.094791978892 727.487700139187  773.336850022367 727.987580028015  C 773.981478100112 729.31087524409  774.661759195635 730.616503346745  775.376947951104 731.903033809483  L 777.125003096438 730.931281161495  Z M 781.299636099725 737.635356172656  C 780.173608455697 736.012267142293  779.108330251007 734.347864377791  778.106009835168 732.645598229508  L 776.382578436075 733.660381069636  C 777.410057581816 735.405374926115  778.502074787525 737.111555009462  779.656366273047 738.775384363854  L 781.299636099725 737.635356172656  Z M 786.117433457011 743.893232097563  C 784.836259111712 742.389587008938  783.611445943164 740.838817226534  782.44553302102 739.244137536571  L 780.831025764356 740.424546922411  C 782.026203667871 742.059253848141  783.281760242619 743.648948706277  784.595092687066 745.190336017904  L 786.117433457011 743.893232097563  Z M 791.484800678248 749.726176259494  C 790.093422880712 748.312536121186  788.737446641014 746.864483058697  787.41813167186 745.383362324834  L 785.924697326367 746.713645699046  C 787.266086458481 748.219547854485  788.644750260423 749.691829065687  790.059407942565 751.129121571708  L 791.484800678248 749.726176259494  Z M 797.233510126369 755.191677908056  C 795.751440092592 753.873429437134  794.302411331705 752.518495902035  792.88777000295 751.128136046785  L 791.485851095902 752.554538296524  C 792.92416154382 753.968161004643  794.397434778352 755.345764655941  795.904302116949 756.68606944567  L 797.233510126369 755.191677908056  Z M 803.33204636709 760.263879038725  C 801.765810360491 759.046827113893  800.230109845304 757.790979526774  798.726371499521 756.497502969765  L 797.422141350579 758.013742963497  C 798.951039545276 759.3288613672  800.51243468549 760.60572121063  802.104876222726 761.843136280844  L 803.33204636709 760.263879038725  Z M 809.735524489152 764.978702863037  C 808.194856740657 763.894428406662  806.670302351453 762.78743700815  805.162361046189 761.65809152165  C 805.077565179555 761.594779935796  804.992853424771 761.531355773463  804.908226005841 761.467819202365  L 803.70742776433 763.067220209988  C 803.793077862999 763.13152458855  803.878812926828 763.195715720126  803.964632730978 763.259793436377  C 805.487967261884 764.40064929721  807.02807989647 765.518928710071  808.584466070307 766.614265309539  L 809.735524489152 764.978702863037  Z M 816.337178476727 769.422195821872  C 814.663845145926 768.345816628746  813.007418781004 767.243378083259  811.368504940912 766.115283216628  L 810.234531714943 767.76273722897  C 811.890592826473 768.902634881333  813.564349689076 770.016607781175  815.255190408081 771.104248680527  L 816.337178476727 769.422195821872  Z M 823.118052527587 773.587074229852  C 821.401369701114 772.58127272028  819.700494586874 771.54873076242  818.016048993461 770.489825834583  L 816.951626246286 772.18304886044  C 818.653695490873 773.253032668562  820.372366151495 774.296377681948  822.107009913856 775.312702472905  L 823.118052527587 773.587074229852  Z M 830.061776238257 777.457182648248  C 829.876091643676 777.360490235182  829.690486909573 777.263644537908  829.504962225948 777.166645655567  C 827.938010232466 776.327463045507  826.382839426034 775.466465308824  824.839903596596 774.583903679734  L 823.846875991915 776.319961333253  C 825.408833007763 777.21340310975  826.98319855635 778.084974777423  828.569511549315 778.934421076903  C 828.758939750292 779.033467115047  828.948450975095 779.132354287037  829.138045023631 779.231082488466  L 830.061776238257 777.457182648248  Z M 837.176902500993 781.06792313006  C 835.388708992525 780.183923575664  833.607497158083 779.28587081916  831.833432330782 778.373848218325  L 830.919016686 780.152567990683  C 832.702409748548 781.069386110396  834.492987398015 781.972160930744  836.290583431947 782.860808655644  L 837.176902500993 781.06792313006  Z M 844.36620137707 784.528623959677  C 842.559858730128 783.682327629935  840.760201444435 782.821834744039  838.967396565227 781.947225173438  L 838.09049211823 783.744734169476  C 839.892723770027 784.62394253698  841.701843859008 785.488959992623  843.517684461667 786.339706245018  L 844.36620137707 784.528623959677  Z M 851.626509350523 787.837762320685  C 849.802812412266 787.029541612405  847.985501580717 786.206987240853  846.174745539723 785.370175556003  L 845.335738155846 787.185682815641  C 847.156015358686 788.026894551799  848.982881817881 788.853774008062  850.816167962698 789.666244433033  L 851.626509350523 787.837762320685  Z M 858.954631659165 790.993882088889  C 857.114382913186 790.224092644417  855.280218209286 789.439838736814  853.452307795697 788.641193160983  L 852.651566664384 790.473899804345  C 854.489088439454 791.276744749723  856.332897390608 792.065122353839  858.182822374429 792.838959439028  L 858.954631659165 790.993882088889  Z M 866.347343700387 793.995594473053  C 864.491352913588 793.264575023778  862.641141427071 792.518966676329  860.796880978541 791.758838638505  L 860.03475845089 793.607938217448  C 861.888716231251 794.37206309521  863.748656340834 795.121591936408  865.614406138921 795.856455169342  L 866.347343700387 793.995594473053  Z M 873.801392450079 796.841578626011  C 871.930476316354 796.149650843314  870.065032198041 795.44301614697  868.205233246747 794.721740127223  L 867.482064680464 796.5864189802  C 869.35164266681 797.311487551542  871.226895503105 798.021837813732  873.107649127294 798.717403831645  L 873.801392450079 796.841578626011  Z M 881.313497894065 799.530582225878  C 879.428479674926 798.878050579587  877.548623778471 798.210700475678  875.674104694017 797.528593857974  L 874.990208305849 799.408031468072  C 876.874583825495 800.093724680187  878.764324218705 800.764583787073  880.659254078684 801.420546519201  L 881.313497894065 799.530582225878  Z M 888.880354471412 802.061422027117  C 886.982063633727 801.44857365153  885.088623154416 800.820801794936  883.200208783724 800.178164727484  L 882.555885509436 802.071534083476  C 884.454229378319 802.717550209941  886.357625783672 803.348622962572  888.265898051138 803.964693764833  L 888.880354471412 802.061422027117  Z M 896.498632528977 804.432984381199  C 894.58790437997 803.86008894873  892.681712490755 803.272171578676  890.780233795095 802.669286841846  L 890.175767157043 804.575754802102  C 892.087244044581 805.181809575647  894.003458908256 805.772818282317  895.92423388382 806.348726064319  L 896.498632528977 804.432984381199  Z M 904.158223388848 806.723572354422  C 902.241778291079 806.159845664443  900.327339977367 805.589319004097  898.414944620201 805.012003153242  L 897.836945574854 806.926661635472  C 899.753871201795 807.505345088765  901.672844624798 808.077223268634  903.593829585765 808.642285369712  L 904.158223388848 806.723572354422  Z M 911.834551849747 808.942167454236  C 909.912857338419 808.396603710316  907.993105164561 807.844221307848  906.075331601365 807.285030683947  L 905.515479232318 809.205073736817  C 907.437795805761 809.765589026352  909.362095676803 810.319279966417  911.288342486706 810.866136095281  L 911.834551849747 808.942167454236  Z M 919.531533830363 811.088012566681  C 917.604762038981 810.560660637045  915.679867964799 810.02647197154  913.756887977865 809.48545666343  L 913.215232433259 811.410712301261  C 915.142767763878 811.953009219519  917.072221715981 812.488463323541  919.003557833447 813.017064496174  L 919.531533830363 811.088012566681  Z M 927.248479882268 813.160915480117  C 925.316803399278 812.65182260173  923.386939844876 812.135875522502  921.458925683004 811.613083991031  L 920.935515481019 813.543379761233  C 922.868096912024 814.067409732582  924.80253211654 814.584579037868  926.738784544327 815.094877905419  L 927.248479882268 813.160915480117  Z M 934.984698768773 815.160690516616  C 933.048290621906 814.669902290896  931.113630452622 814.172243013319  929.180754815492 813.667722086945  L 928.675636840004 815.602885085465  C 930.613091262605 816.108601170515  932.552334444696 816.60743935221  934.49332974519 817.099390205238  L 934.984698768773 815.160690516616  Z M 942.73949752685 817.0871585486  C 940.798531167669 816.614718937344  938.859247678492 816.135392038684  936.921683701247 815.649186909297  L 936.434903197625 817.589043796104  C 938.377057066491 818.076400695898  940.320934520748 818.556863071164  942.266498831448 819.030421843717  L 942.73949752685 817.0871585486  Z M 950.512181529199 818.940147014879  C 948.566830817562 818.48609833633  946.623097717611 818.02514675175  944.681018955346 817.557300970622  L 944.212619526401 819.501677985237  C 946.159298875403 819.970632045359  948.107636481009 820.432675577273  950.057595530298 820.887799850886  L 950.512181529199 818.940147014879  Z M 958.302054546468 820.719489936115  C 956.352493734959 820.283872861168  954.40448513192 819.841337879883  952.458065544138 819.391893353768  L 952.008089146217 821.340616330827  C 953.959119603711 821.791125545236  955.911742840635 822.234708846799  957.865921963095 822.671357854218  L 958.302054546468 820.719489936115  Z M 966.108418809621 822.425027929683  C 964.154822527886 822.007881478232  962.202712912522 821.583802739833  960.252126847497 821.152799727206  L 959.820613786726 823.105694112057  C 961.775820591372 823.537718126902  963.732554555604 823.962801464642  965.690778707856 824.380936093529  L 966.108418809621 822.425027929683  Z M 973.930575072435 824.056608223954  C 971.973118311696 823.657969761431  970.017082541909 823.252385252267  968.062504721225 822.839862359743  L 967.649493649898 824.796753224089  C 969.608701666265 825.210253341308  971.569371085579 825.616798638868  973.531464861916 826.016381435287  L 973.930575072435 824.056608223954  Z M 981.767822674138 825.614084671972  C 979.806680771414 825.233989905975  977.846894056788 824.846935955798  975.888499559587 824.452930134659  L 975.4940274727 826.41364219222  C 977.457061206953 826.80858137301  979.421490456611 827.196552214556  981.38727810471 827.577547386332  L 981.767822674138 825.614084671972  Z M 940.469544922979 513.054343791393  C 942.153913903992 511.979795336346  943.841606213858 510.910465148248  945.532597579058 509.846368606921  L 944.467402420942 508.153631393079  C 942.772916653347 509.219926870237  941.081736758535 510.291466809393  939.393887060161 511.368235798957  L 940.469544922979 513.054343791393  Z M 980.699059353016 834.152591679549  L 989 828  L 983.54927393559 819.222210678607  L 980.699059353016 834.152591679549  Z " fill-rule="nonzero" fill="#aaaaaa" stroke="none" />
  </g>
</svg>