<?xml version="1.0" encoding="utf-8"?>
<svg version="1.1" xmlns:xlink="http://www.w3.org/1999/xlink" width="132px" height="14px" viewBox="520 762  132 14" xmlns="http://www.w3.org/2000/svg">
  <g transform="matrix(0.292371704722738 -0.956304755963043 0.956304755963034 0.292371704722738 -320.728176303098 1104.56074606256 )">
    <path d="M 495.289975733639 623.37095464271  C 493.794410549291 622.03441297251  492.287357364072 620.710782026174  490.768983990259 619.40020919168  L 489.462172440424 620.914224902701  C 490.971849221208 622.217291336745  492.470270650609 623.533341091366  493.957269877479 624.862227622737  L 495.289975733639 623.37095464271  Z M 501.210259226021 628.785338915113  C 499.745794575273 627.414790797196  498.269548343964 626.056886069417  496.781684913978 624.711775936183  L 495.440435185886 626.195369265533  C 496.919776770748 627.532775183447  498.387567695289 628.882902413956  499.843644519109 630.245600618662  L 501.210259226021 628.785338915113  Z M 507.004589706764 634.334307103826  C 505.57199864735 632.930476019514  504.127338646902 631.539014317442  502.670770570162 630.160076938655  L 501.295790679175 631.61246473101  C 502.744016157187 632.983504146492  504.180401763275 634.366996151295  505.604787554058 635.762786691808  L 507.004589706764 634.334307103826  Z M 512.669908480007 640.014930034188  C 511.269947244301 638.578557034115  509.857636078034 637.154272878894  508.433132243839 635.742236164364  L 507.025148010706 637.162651737092  C 508.441492896437 638.566600909485  509.845714948624 639.982727374469  511.237657805369 641.410873444573  L 512.669908480007 640.014930034188  Z M 518.203224952251 645.824209033978  C 516.836632548098 644.356052346937  515.45741574308 642.899697585904  514.065728114757 641.455306917849  L 512.625482782476 642.843000465734  C 514.009199419525 644.279118282054  515.380516660796 645.727131666132  516.739281808381 647.18687937985  L 518.203224952251 645.824209033978  Z M 523.601618211019 651.759077516354  C 522.269116031598 650.259912149006  520.923721645168 648.772255558882  519.565584863096 647.296273398421  L 518.093838704565 648.65051238946  C 519.444196660252 650.118040755629  520.781885203285 651.597176685324  522.106755380356 653.08775547489  L 523.601618211019 651.759077516354  Z M 528.862238566747 657.816402598625  C 527.56453000979 656.287019926428  526.253668245173 654.768846807432  524.92979923901 653.262052292131  L 523.427329155703 654.582121854225  C 524.743615606633 656.080286095244  526.046969315945 657.5897637682  527.33724515353 659.110386790818  L 528.862238566747 657.816402598625  Z M 533.975750450148 664.002032895939  C 532.717512096985 662.439119075839  531.444205652495 660.888396054463  530.156009330228 659.350080872932  L 528.622643411115 660.63413264685  C 529.902570606098 662.16257315026  531.167703503702 663.703341845733  532.417865034321 665.256223085326  L 533.975750450148 664.002032895939  Z M 538.927594157325 670.317766766474  C 537.710028313085 668.722963713627  536.477085384889 667.139959314891  535.228937936961 665.568975129528  L 533.663008120872 666.813106879418  C 534.90314352131 668.374006679382  536.128172002134 669.946849533154  537.33792210683 671.531415303685  L 538.927594157325 670.317766766474  Z M 543.715124301172 676.75894721306  C 542.539038825571 675.133313085554  541.347277476144 673.519077639092  540.140007053287 671.916466804072  L 538.542552340803 673.119853043632  C 539.742073111988 674.712176477005  540.926184364828 676.316049901669  542.094720369655 677.931248837526  L 543.715124301172 676.75894721306  Z M 548.33516433664 683.321300487184  C 547.201339567011 681.665913899644  546.051550534686 680.021518457012  544.885958165565 678.388344310915  L 543.258038474161 679.550186588653  C 544.416148729344 681.172877142574  545.558557091749 682.806716961835  546.685103668473 684.451477372174  L 548.33516433664 683.321300487184  Z M 552.784648849029 690.000472441681  C 551.693837082553 688.316431749603  550.586783256874 686.642967373644  549.4636423166 684.980313533924  L 547.806337777381 686.099840962925  C 548.922269105865 687.751821975846  550.022216585393 689.41454413056  551.106026265942 691.087774710395  L 552.784648849029 690.000472441681  Z M 557.060625587893 696.792031419738  C 556.013550582471 695.080453990748  554.949966497978 693.379031031614  553.870022194984 691.688000675637  L 552.184432436019 692.764470445057  C 553.257444412983 694.444645821085  554.314201190171 696.135147088584  555.354554862561 697.835737642851  L 557.060625587893 696.792031419738  Z M 561.160257425879 703.691471195306  C 560.157613919881 701.953492667739  559.138205268804 700.225240026264  558.102174150367 698.506955159301  L 556.38941756708 699.539653027221  C 557.418798244875 701.246907963413  558.43166315743 702.964066689437  559.427870542927 704.690888869643  L 561.160257425879 703.691471195306  Z M 565.080928705368 710.695286773388  C 565.013491832302 710.570814096021  564.945970132052 710.446387394793  564.878363651897 710.322006756827  C 563.985992619807 708.684109961717  563.078931543585 707.05425952596  562.157290133312 705.432652581842  L 560.41850314642 706.420893349172  C 561.334065444659 708.031804234957  562.235146160959 709.650902787099  563.121636347374 711.277993243493  C 563.188650966119 711.401285929383  563.255581743453 711.524624168028  563.322428632978 711.648007873923  L 565.080928705368 710.695286773388  Z M 568.812778941688 717.800393685843  C 567.902738701721 716.012185050351  566.975445943287 714.232808943169  566.031030451449 712.462514408019  L 564.266431532067 713.403891406737  C 565.204784677841 715.162822153174  566.126125003625 716.930776175647  567.030323557476 718.707506029103  L 568.812778941688 717.800393685843  Z M 572.360388915642 724.999262617587  C 571.496708460119 723.188207832889  570.615553715265 721.385538282964  569.717048008593 719.591506271681  L 567.928787984298 720.487121192004  C 568.821526046767 722.269637040115  569.697024525873 724.060734981205  570.555160885754 725.86016433097  L 572.360388915642 724.999262617587  Z M 575.721404774086 732.28711709082  C 574.904657158381 730.454417798881  574.070225076735 728.629650884527  573.218225317296 726.813071744399  L 571.407490705634 727.662330342312  C 572.254021349588 729.467248585833  573.083097085338 731.280302045024  573.894601874407 733.10123696266  L 575.721404774086 732.28711709082  Z M 578.893596469799 739.659121585486  C 578.124323609166 737.805993789488  577.337167839684 735.960340250704  576.532239332667 734.122419289129  L 574.700231563163 734.924758078218  C 575.499993112196 736.750881146808  576.282096009583 738.584687156012  577.046430791226 740.425919444051  L 578.893596469799 739.659121585486  Z M 581.874859241139 747.110384747659  C 581.153571551136 745.238058005159  580.414214374772 743.372742440338  579.656891193395 741.514699125078  L 577.804825810397 742.269585750407  C 578.557287619584 744.115702004245  579.291898750261 745.969043825963  580.008556385351 747.82935181956  L 581.874859241139 747.110384747659  Z M 584.66321500855 754.635962634975  C 583.990391066394 752.745679242124  583.299323049532 750.861939295455  582.590107680703 748.985006445551  L 580.719213536864 749.691940036879  C 581.423876344837 751.556824570578  582.11050829144 753.428472505247  582.77901327482 755.306621882737  L 584.66321500855 754.635962634975  Z M 587.256813687035 762.230861996961  C 586.632899914052 760.32387616421  585.990579583035 758.422961704544  585.329942593935 756.528384672312  L 583.441461034865 757.186896176426  C 584.097857295083 759.069311631769  584.736054474624 760.958023833647  585.355963250611 762.85276843554  L 587.256813687035 762.230861996961  Z M 589.653184913138 769.890023729354  C 589.382648888263 768.985669808646  589.108446896528 768.082416606216  588.830585700628 767.180286399169  C 588.517102379217 766.165177202045  588.198428991191 765.151678059905  587.87457804187 764.139828744289  L 585.969762082497 764.749481236221  C 586.291458884329 765.754600070831  586.608013768312 766.761357375888  586.919414318081 767.769713662923  C 587.195609390452 768.66644128335  587.46816813051 769.564284872485  587.737083819604 770.463222298227  L 589.653184913138 769.890023729354  Z M 591.864063812239 777.602178303332  C 591.33351451254 775.667862843697  590.786308831311 773.738154542513  590.222507700605 771.813268275273  L 588.303145769739 772.37545132228  C 588.863717688801 774.289312664581  589.407789210016 776.207968422261  589.935299750332 778.131204950578  L 591.864063812239 777.602178303332  Z M 593.897179629243 785.363090218439  C 593.411209452421 783.417096425012  592.908481445175 781.475325909244  592.389051586903 779.537994889734  L 590.457280619648 780.055934007845  C 590.973735405938 781.982168824194  591.473584002259 783.912817709267  591.956770749839 785.847665682871  L 593.897179629243 785.363090218439  Z M 595.751459128347 793.168662665007  C 595.310324607055 791.212017783854  594.852339652521 789.259210070177  594.377555261947 787.310456971581  L 592.434394996455 787.783878752464  C 592.906460025183 789.721470227111  593.361821837857 791.663093093758  593.800429729357 793.608531150209  L 595.751459128347 793.168662665007  Z M 597.42592347739 801.014775258081  C 597.029857476555 799.048512157737  596.616857334616 797.085698089113  596.186969039671 795.126551614073  L 594.233445226248 795.55520614909  C 594.660871304975 797.503131471375  595.07150595881 799.454703380836  595.465303463056 801.409704567439  L 597.42592347739 801.014775258081  Z M 598.919688764557 808.897286212483  C 598.568900358449 806.922442838704  598.201103042536 804.950658540262  597.816337771513 802.982152877829  L 595.853481631146 803.365813889956  C 596.236043131324 805.323044794207  596.601733861583 807.283535555861  596.95051310179 809.247067871758  L 598.919688764557 808.897286212483  Z M 600.231966464976 816.812034529164  C 599.926640826855 814.829653357063  599.604240488837 812.849939689061  599.264801350612 810.873113968813  L 597.293649030614 811.21157893209  C 597.631144006691 813.177082240437  597.951697773515 815.145456955589  598.25527463702 817.116483896537  L 600.231966464976 816.812034529164  Z M 601.253502610238 823.931082721257  C 601.02558353162 822.217381518657  600.78494108124 820.505396546987  600.531595165844 818.795269427342  L 598.553187192891 819.088359673779  C 598.845437488908 821.061097841517  599.120685079227 823.036317449751  599.378899314676 825.013798555244  L 601.253502610238 823.931082721257  Z M 489.246864413221 618.094012417477  C 487.720988170269 616.792182725078  486.183923570392 615.50352427499  484.635841767675 614.22818056096  L 483.364158232325 615.77181943904  C 484.903373284843 617.039858529949  486.43163423636 618.321136095816  487.948770913059 619.615509464743  L 489.246864413221 618.094012417477  Z M 592.62960010828 823.942244173566  L 601 830  L 607.724146899439 822.154883781946  L 592.62960010828 823.942244173566  Z " fill-rule="nonzero" fill="#027db4" stroke="none" />
  </g>
</svg>