<?xml version="1.0" encoding="utf-8"?>
<svg version="1.1" xmlns:xlink="http://www.w3.org/1999/xlink" width="118px" height="14px" viewBox="610 696  118 14" xmlns="http://www.w3.org/2000/svg">
  <g transform="matrix(0.190808995376544 -0.981627183447661 0.981627183447664 0.190808995376544 -148.735127870616 1225.56986197677 )">
    <path d="M 663.078393090277 661.999249602613  C 663.142535875156 660.009854882912  663.235340802042 658.021487672313  663.356778971227 656.034767153797  L 661.360504792087 655.912745017696  C 661.237894466686 657.918641935376  661.144193759892 659.926201439498  661.079431850362 661.934798370525  L 663.078393090277 661.999249602613  Z M 662.974747934348 669.959661428079  C 662.962422247959 667.96927108318  662.978777019049 665.978806453972  663.023807154697 663.988887376598  L 661.024319035596 663.94364070187  C 660.978854256098 665.95276705182  660.962341624042 667.962444219441  660.97478628151 669.972046385727  L 662.974747934348 669.959661428079  Z M 663.176972614362 677.918179124747  C 663.088196651885 675.929731369314  663.028077124261 673.94010764582  662.996632752877 671.949927528567  L 660.996882338615 671.981523108363  C 661.028630220137 673.990913017831  661.089330038772 675.99974116306  661.178962892431 678.007381989453  L 663.176972614362 677.918179124747  Z M 663.684768606199 685.863054327042  C 663.51967341873 683.879484508086  663.383168340853 681.893638773291  663.275295880624 679.906135520482  L 661.278235203204 680.0145267134  C 661.387148879516 682.02121392056  661.524971543756 684.026227610848  661.691660277568 686.028943417518  L 663.684768606199 685.863054327042  Z M 664.497386301307 693.782558808446  C 664.256215602397 691.806795072166  664.043526483093 689.827658831986  663.859385175368 687.845766396357  L 661.8679622962 688.030793195294  C 662.05388098891 690.03181542804  662.268623044908 692.030054861756  662.512121592926 694.02488923918  L 664.497386301307 693.782558808446  Z M 665.613626113264 701.665001794702  C 665.296735919153 699.699960763966  665.008176730145 697.730455619741  664.748038404365 695.757099671347  L 662.76519306234 696.018488939703  C 663.027842318232 698.010892288581  663.319186763718 699.999407664221  663.639135673334 701.983415837459  L 665.613626113264 701.665001794702  Z M 667.043914142999 709.489225862832  C 666.850162385562 708.558829059262  666.664885641133 707.62668748309  666.488106946761 706.692917035486  C 666.297714796762 705.672817291701  666.114988571194 704.651301667866  665.939943737521 703.628456633534  L 663.96860300937 703.965822508413  C 664.145482665501 704.99938901907  664.330130606627 706.031611068407  664.522531176908 707.062401136879  C 664.701712964938 708.00894956293  664.889516807815 708.953845476403  665.085919312419 709.896971179693  L 667.043914142999 709.489225862832  Z M 668.861361969797 717.22702638058  C 668.357975683581 715.304467869831  667.891239767764 713.372499335992  667.461407968486 711.432171115115  L 665.508746099785 711.864735129478  C 665.944068463139 713.829848618553  666.416766347001 715.786495636031  666.926582763942 717.733612429138  L 668.861361969797 717.22702638058  Z M 671.069152977424 724.862622776555  C 670.468847553518 722.968087905293  669.904667725355 721.062295169353  669.376920215538 719.146280674032  L 667.448726621981 719.677382797701  C 667.983215446711 721.617871983762  668.554601967123 723.548008840232  669.162575542619 725.46674402688  L 671.069152977424 724.862622776555  Z M 673.661597437056 732.376337249391  C 672.965919930892 730.514708449705  672.305750146044 728.64000295656  671.681446991115 726.753239974321  L 669.782690847152 727.381511496646  C 670.414968694696 729.2923755181  671.083571323531 731.191028031101  671.78813524045 733.07643681223  L 673.661597437056 732.376337249391  Z M 676.632014324123 739.748806101317  C 675.842757575849 737.924881002601  675.088299167027 736.086094081782  674.369049267302 734.23344501567  L 672.504623883725 734.957266809398  C 673.233061302073 736.833581152074  673.997156974225 738.695856277885  674.796495491124 740.543079740377  L 676.632014324123 739.748806101317  Z M 679.97274853607 746.961029640609  C 679.0919465502 745.179508705538  678.245143842627 743.381379120305  677.432800787 741.567618457928  L 675.607511000323 742.385125151877  C 676.430230723301 744.22205434006  677.287850277217 746.043152783629  678.179903407719 747.84743042228  L 679.97274853607 746.961029640609  Z M 683.675190620429 753.994421145961  C 682.705113323977 752.259895556843  681.768148624653 750.507057291888  680.86480591368 748.736859301005  L 679.083355703525 749.645944087336  C 679.998237488725 751.43875414534  680.947170741158 753.213982728609  681.929639562769 754.970664714495  L 683.675190620429 753.994421145961  Z M 687.745842385447 760.816920810646  C 686.877457540513 759.444895005301  686.029475947584 758.060061288501  685.202177548222 756.662876831152  C 685.019104152532 756.35011454017  684.837117199389 756.036717572555  684.656219979331 755.722691594896  L 682.923200345741 756.721011658598  C 683.107245507748 757.040502261685  683.29240443007 757.35934998  683.478673734116 757.677548995538  C 684.316862262257 759.093223016197  685.17602903147 760.496370865711  686.055889828677 761.886528381612  L 687.745842385447 760.816920810646  Z M 692.159390619414 767.430211421802  C 691.01614823087 765.803888753916  689.902540263787 764.156934667868  688.819117732624 762.490164078371  L 687.142240451949 763.580156090066  C 688.238861878214 765.267232266291  689.366036477263 766.934250522683  690.523206521849 768.580386016755  L 692.159390619414 767.430211421802  Z M 696.887954535888 773.822058104021  C 695.66731220958 772.252994405418  694.475270651633 770.661888692391  693.312419685533 769.049528245815  L 691.690282471114 770.219430317613  C 692.867299976563 771.851433494322  694.073863690946 773.461922999731  695.309376605189 775.050101961833  L 696.887954535888 773.822058104021  Z M 701.920443178782 779.977468633003  C 700.625263959533 778.469344178897  699.35758477178 776.937818814159  698.118032864591 775.38365033924  L 696.5544404768 776.630718438761  C 697.809093339641 778.203820714741  699.092216146243 779.75400402876  700.403174006014 781.28050134839  L 701.920443178782 779.977468633003  Z M 707.245052729534 785.882005350917  C 705.878374490173 784.438357482113  704.538031043482 782.970004693845  703.224685592887 781.477673528706  L 701.723305473851 782.798982628865  C 703.052650876762 784.309494256327  704.409323181348 785.795735388122  705.792651104652 787.256970630493  L 707.245052729534 785.882005350917  Z M 712.849294193232 791.521819030262  C 711.414322509193 790.14603385624  710.004458610137 788.744297699888  708.62040009828 787.317304141807  L 707.184753769809 788.709755081535  C 708.585673702382 790.1541331205  710.012713398675 791.572946057112  711.465166757855 792.965491861146  L 712.849294193232 791.521819030262  Z M 718.720022691843 796.883681357547  C 717.220123322418 795.578985814272  715.74404583939 794.247154094422  714.292520607539 792.888845189811  L 712.925975411318 794.349171943208  C 714.395183983438 795.724028571566  715.889243916803 797.072085454415  717.407415948898 798.39267557171  L 718.720022691843 796.883681357547  Z M 724.835218160897 801.980260957486  C 723.282909349884 800.732759688016  721.746692281336 799.465366104935  720.226947291236 798.178393989018  L 718.934457726334 799.704654361503  C 720.467275469861 801.002696932824  722.016706983643 802.280992557965  723.582368660079 803.539224757033  L 724.835218160897 801.980260957486  Z M 731.128623630182 806.862867694614  C 729.534494226103 805.669270817469  727.955765736019 804.455242098398  726.392829020871 803.221082106126  L 725.153377993375 804.79071937328  C 726.729758994528 806.035495534302  728.32206761049 807.259967254134  729.929909618177 808.463831378593  L 731.128623630182 806.862867694614  Z M 737.585583287516 811.527036745349  C 735.951504256859 810.388745137869  734.332117236292 809.229506140197  732.727823152963 808.049606756228  L 731.542865357412 809.66077869701  C 733.160959480293 810.850827503291  734.794276368939 812.020038203901  736.442411647443 813.168121326146  L 737.585583287516 811.527036745349  Z M 744.198518855301 815.967293959362  C 742.526408051855 814.885643589289  740.868263111149 813.782554865867  739.224494556015 812.658300891342  L 738.095420730403 814.309116537113  C 739.75332888208 815.443041275543  741.425737084124 816.555618700678  743.112231282399 817.646573361058  L 744.198518855301 815.967293959362  Z M 750.959668993195 820.178427982773  C 749.251488907123 819.154688340266  747.556532145277 818.109044542611  745.875218344328 817.041755469851  L 744.803353637848 818.730277323723  C 746.499129997245 819.806747151786  748.208666673467 820.861385513422  749.931540420128 821.893931301698  L 750.959668993195 820.178427982773  Z M 757.861098407292 824.155496374506  C 756.118853861852 823.190868982205  754.389074582424 822.203897340988  752.672188827024 821.194825804872  L 751.658791244794 822.919072115679  C 753.390445546426 823.936823623415  755.135104281379 824.932285134302  756.892335507811 825.905210192417  L 757.861098407292 824.155496374506  Z M 764.894707163458 827.893831407038  C 763.12044296201 826.989448409876  761.357871338373 826.06230729459  759.607428669276 825.112637602381  L 758.653687595868 826.870584690576  C 760.419187465712 827.828423383376  762.196920622619 828.763539709812  763.986446936178 829.675702154186  L 764.894707163458 827.893831407038  Z M 663.487755081145 654.048694810033  C 663.6282716497 652.063232460456  663.797389733729 650.079897896573  663.995056669399 648.099308734185  L 662.004943330601 647.900691265815  C 661.805368456687 649.900397645747  661.634617996157 651.902875926604  661.492745121175 653.907502531132  L 663.487755081145 654.048694810033  Z M 761.390568229153 835.797212272371  L 771 832  L 768.004076775312 822.111398277219  L 761.390568229153 835.797212272371  Z " fill-rule="nonzero" fill="#009999" stroke="none" />
  </g>
</svg>