<?xml version="1.0" encoding="utf-8"?>
<svg version="1.1" xmlns:xlink="http://www.w3.org/1999/xlink" width="168px" height="16px" viewBox="870 670  168 16" xmlns="http://www.w3.org/2000/svg">
  <g transform="matrix(0.65605902899051 -0.754709580222769 0.754709580222771 0.656059028990505 -183.573409047985 953.18491787696 )">
    <path d="M 912.00971997594 626.50456539494  C 910.960705911618 624.807389617717  909.923938834987 623.102674518712  908.899499543775 621.390552950436  L 907.183261819033 622.417455123076  C 908.2126357654 624.137823865777  909.254396879315 625.850750462769  910.30846397382 627.556101421546  L 912.00971997594 626.50456539494  Z M 916.270741712477 633.252495391983  C 915.189301280322 631.575795443383  914.119960665845 629.891322175507  913.062803205308 628.19920686337  L 911.366619834272 629.258905863945  C 912.428869551184 630.959171981717  913.503361107486 632.651759244041  914.590010765458 634.336535743507  L 916.270741712477 633.252495391983  Z M 920.660673249995 639.917280953436  C 919.547205990614 638.261676294037  918.445686908593 636.598067189738  917.356201847941 634.926583289561  L 915.680699489384 636.018687609885  C 916.775432526294 637.698222935585  917.882257551639 639.369845533037  919.001088307917 641.033425128723  L 920.660673249995 639.917280953436  Z M 925.177892718382 646.496459759234  C 924.032810004766 644.862562055914  922.899519413913 643.22043173933  921.778109265859 641.570196784611  L 920.123906937908 642.694302944279  C 921.250718843226 644.35248696979  922.38946841861 646.00252731763  923.540066918646 647.644295396301  L 925.177892718382 646.496459759234  Z M 929.820731220714 652.987601116924  C 928.644456106255 651.376014016876  927.479812703335 649.755969176757  926.326891775389 648.127592850523  L 924.694600626827 649.283285545977  C 925.853075097337 650.919505651449  927.02332850919 652.547354138591  928.205269661758 654.166704145304  L 929.820731220714 652.987601116924  Z M 934.58747344983 659.388306859684  C 933.380440512024 657.799625767398  932.184874577169 656.202264932966  931.000868818569 654.596348842525  L 929.391091903043 655.783201100492  C 930.580800937746 657.396852780725  931.782125833289 659.001907994851  932.994972967571 660.598241657103  L 934.58747344983 659.388306859684  Z M 939.476358322058 665.696212232336  C 938.239013501939 664.131024089616  937.012966739699 662.556937409456  935.798313584035 660.974074864121  L 934.211645637259 662.191648199356  C 935.432149695467 663.782135287097  936.664102242508 665.363804236936  937.907407269393 666.936531785654  L 939.476358322058 665.696212232336  Z M 944.485579627853 671.908986765009  C 943.218380065272 670.367869834166  941.962305441356 668.817638858112  940.717453644994 667.258414650042  L 939.154480865021 668.506259227329  C 940.405329028757 670.072994113534  941.667454079647 671.630692447924  942.940757657288 673.179232835366  L 944.485579627853 671.908986765009  Z M 949.613286699099 678.024335134131  C 948.316700563786 676.507858784283  947.031062137815 674.982056248688  945.756471614052 673.447046436775  L 944.217771444702 674.724701237119  C 945.498501585288 676.26710508805  946.790332845079 677.800257311826  948.093164548597 679.324038426253  L 949.613286699099 678.024335134131  Z M 954.857950371529 684.040705447881  C 953.533293028002 682.548083904068  952.2183954012 681.046829338138  950.913341570906 679.537037746278  L 949.400262297201 680.844933426936  C 950.711009120851 682.361311132948  952.031642682265 683.869114572229  953.362078534909 685.368247329859  L 954.857950371529 684.040705447881  Z M 960.208268062935 689.964742630065  C 958.857824638162 688.495409887882  957.516989148064 687.017275513309  956.185847331046 685.530434024195  L 954.695768135608 686.864474500089  C 956.032716748747 688.357801988878  957.379401321345 689.842384380351  958.735735741007 691.318126744379  L 960.208268062935 689.964742630065  Z M 965.66091355815 695.794731741407  C 964.285093423471 694.349133212118  962.918726528961 692.894567108368  961.5619002455 691.43112644084  L 960.095272828671 692.790907312968  C 961.458017950738 694.260731899518  962.830345302588 695.721643209116  964.212167132124 697.173547825255  L 965.66091355815 695.794731741407  Z M 971.21423395051 701.528905487872  C 969.813454169976 700.107479388048  968.421970069384 698.676922490019  967.039870625762 697.237326269284  L 965.597139578747 698.62243533574  C 966.985268109268 700.068311459671  968.382822235124 701.505108828942  969.789712591175 702.932735569043  L 971.21423395051 701.528905487872  Z M 976.866545814914 707.16552562075  C 975.441231018778 705.768702839336  974.025051524479 704.362588803873  972.61809788822 702.94727342694  L 971.199700558315 704.357290807868  C 972.612791702099 705.778780168471  974.035148949565 707.191028048882  975.466681349509 708.593944144327  L 976.866545814914 707.16552562075  Z M 982.616135718139 712.702883463585  C 981.166717974133 711.331087431287  979.72627238468 709.949842505715  978.294891057544 708.559237009108  L 976.901257415559 709.993735273983  C 978.338882810313 711.390406963144  979.785612008158 712.777677248001  981.241352499449 714.155457420948  L 982.616135718139 712.702883463585  Z M 988.461260738242 718.139300430137  C 986.988179420676 716.792946991138  985.523904390519 715.436989883907  984.068529279282 714.071515813681  L 982.7000817892 715.53006011088  C 984.161805635359 716.901490743676  985.632468224275 718.263362897956  987.111975515962 719.615589490226  L 988.461260738242 718.139300430137  Z M 994.400148992913 723.473128533234  C 992.903850649427 722.152625819076  991.416190056653 720.822367572945  989.937262341523 719.482438856842  L 988.594415832436 720.964587045464  C 990.079795025236 722.31036088848  991.573945190839 723.646422076365  993.076770787314 724.972685176028  L 994.400148992913 723.473128533234  Z M 1000.4310001766 728.702750884335  C 998.911938392785 727.408499190195  997.401343204582 726.104343057643  995.899311205449 724.790365879608  L 994.582472745807 726.295668663505  C 996.091057009666 727.615377760913  997.608241817529 728.925222970828  999.133930154534 730.225120536513  L 1000.4310001766 728.702750884335  Z M 1006.55198610623 733.826582183671  C 1005.01062136818 732.55897384704  1003.47754950407 731.281315167974  1001.95286854463 729.993687845051  L 1000.66243731884 731.521688909025  C 1002.19376934382 732.814933206217  1003.73352887685 734.098165373676  1005.28161745954 735.371303356411  L 1006.55198610623 733.826582183671  Z M 1012.76089652111 738.845611612915  C 1011.64960892274 737.961303410469  1010.54173369519 737.072715438603  1009.43729552348 736.179867496302  C 1008.98954654487 735.81769679212  1008.54248034113 735.454682791017  1008.09609929291 735.090827426062  L 1006.83246648033 736.641063574195  C 1007.28086534753 737.006563709387  1007.72995257579 737.371218544357  1008.17972577281 737.735026136601  C 1009.28823059786 738.631162537919  1010.40018535789 739.523023009892  1011.51556527378 740.410587678041  L 1012.76089652111 738.845611612915  Z M 1019.0451966056 743.77263022156  C 1017.46524717482 742.552243043599  1015.89192117197 741.323304944923  1014.32528786816 740.085870033773  L 1013.08561721992 741.655333854285  C 1014.65791923514 742.897246304228  1016.23693816626 744.13063119679  1017.82260449156 745.355434227966  L 1019.0451966056 743.77263022156  Z M 1025.40002134637 748.608345518785  C 1023.80260590328 747.410911190691  1022.21168966195 746.204831145798  1020.62734266796 744.990158485943  L 1019.41047539675 746.577368000858  C 1021.00055519743 747.796435836513  1022.59722801557 749.0068799656  1024.2004235523 750.208647094252  L 1025.40002134637 748.608345518785  Z M 1031.82404432681 753.351748165474  C 1030.2094962934 752.177516622828  1028.60132187904 750.994546371883  1026.99959188917 749.802889496987  L 1025.80578198671 751.407513414543  C 1027.41330768194 752.603482184809  1029.02730112022 753.790732899451  1030.64769123985 754.969213285586  L 1031.82404432681 753.351748165474  Z M 1038.31592468682 758.001848090553  C 1036.68458106113 756.851064425926  1035.05948414138 755.691450885451  1033.4407054782 754.523058525207  L 1032.27020212357 756.144761918801  C 1033.89483818113 757.317381994047  1035.52581535717 758.481191484155  1037.16306184234 759.636139148417  L 1038.31592468682 758.001848090553  Z M 1044.8743074027 762.557674697645  C 1043.22650868839 761.430579109386  1041.58482846319 760.294564320842  1039.94933900772 759.149680348987  L 1038.8023865153 760.78812472709  C 1040.44379383151 761.937151351097  1042.09141431815 763.077276699498  1043.74517543306 764.20845057436  L 1044.8743074027 762.557674697645  Z M 1051.49782356999 767.018277067658  C 1049.83391370539 765.915104809842  1048.1759928359 764.80292588893  1046.52413395721 763.681789272437  L 1045.40097172572 765.336632649242  C 1047.05880769633 766.461825990373  1048.72272759245 767.578029223356  1050.39265815431 768.685193203513  L 1051.49782356999 767.018277067658  Z M 1058.18509068922 771.382724157266  C 1056.50541697543 770.303705490537  1054.83160151271 769.215594577822  1053.16371799655 768.118439326962  L 1052.06458045906 769.789336293764  C 1053.73849905071 770.890461494991  1055.41837105316 771.982509632041  1057.10412250415 773.065432623659  L 1058.18509068922 771.382724157266  Z M 1064.93471295439 775.650104993242  C 1063.23962598286 774.595465136761  1061.55026529558 773.531649349194  1059.86670527248 772.458704468703  L 1058.79182184747 774.145306265999  C 1060.48147367002 775.222133493983  1062.17694714588 776.289798596291  1063.87816762602 777.348254565303  L 1064.93471295439 775.650104993242  Z M 1071.74528154442 779.819528862602  C 1070.03513512375 778.789487947055  1068.33058182522 777.750189330535  1066.63169669781 776.701678771834  L 1065.58129174132 778.403633362115  C 1067.28632412061 779.455937855088  1068.99704518067 780.498997073305  1070.71337960113 781.532765092502  L 1071.74528154442 779.819528862602  Z M 1078.61537491711 783.89012549852  C 1076.89052599914 782.884898520116  1075.1711358739 781.870334003257  1073.4572802435 780.846476617646  L 1072.43157300226 782.563428758877  C 1074.15163005385 783.590990873618  1075.87724162629 784.60922649425  1077.60833174359 785.618090789454  L 1078.61537491711 783.89012549852  Z M 1085.54279432436 787.866431724971  C 1084.14414576381 787.074472536012  1082.74820350579 786.277743345127  1081.35499192815 785.476258065901  C 1081.01713254673 785.281940199839  1080.67947879285 785.087265028734  1080.34203123335 784.892232879403  L 1079.34123579906 786.623824199171  C 1079.67987515745 786.819545163976  1080.01872142056 787.014907920656  1080.35777401975 787.20991214137  C 1081.75489993517 788.013648991067  1083.15476414488 788.812616489697  1084.55734220357 789.606800685177  L 1085.54279432436 787.866431724971  Z M 1092.51653502136 791.763288602702  C 1090.76760859024 790.798938910903  1089.02277860794 789.827178564115  1087.28209211997 788.848033763729  L 1086.30156305981 790.591181136212  C 1088.04717653908 791.573097393689  1089.79694524082 792.547608295977  1091.55082198629 793.514687567498  L 1092.51653502136 791.763288602702  Z M 1099.53388674312 795.581053347648  C 1097.77416943224 794.636538141136  1096.01846452566 793.684566440007  1094.26681936212 792.725163912093  L 1093.30606048495 794.479285452905  C 1095.06266365819 795.441403557656  1096.82333806553 796.396069802771  1098.58803623421 797.343258447742  L 1099.53388674312 795.581053347648  Z M 1106.59395250979 799.319237961182  C 1104.82366925172 798.394677970845  1103.05731384056 797.462616599374  1101.29493390221 796.523078977762  L 1100.35406801523 798.287950469604  C 1102.12143634792 799.230147440684  1103.89279140597 800.164847000202  1105.66808542862 801.092023946009  L 1106.59395250979 799.319237961182  Z M 1113.6958298817 802.977364616861  C 1111.91520695958 802.072878022847  1110.1384268249 801.160846120032  1108.36553738465 800.241293499359  L 1107.44468475228 802.016689350839  C 1109.22259233388 802.938844753685  1111.00440162249 803.853458151386  1112.79006457549 804.760504883374  L 1113.6958298817 802.977364616861  Z M 1120.83861107468 806.554965721498  C 1119.04787609329 805.670668138111  1117.26089834869 804.778782282722  1115.47772602282 803.879332203079  L 1114.57700435132 805.665025477548  C 1116.3652239241 806.567021439362  1118.15725968688 807.461431766526  1119.95306332118 808.348232343133  L 1120.83861107468 806.554965721498  Z M 1128.0213830761 810.051583974936  C 1126.22076493279 809.187588435857  1124.42381799535 808.315962631532  1122.63059071452 807.43673006344  L 1121.75011513694 809.232492508001  C 1123.54841812513 810.114213732862  1125.35045129839 810.988306663119  1127.15616606879 811.854747730746  L 1128.0213830761 810.051583974936  Z M 1135.24322776158 813.466772428495  C 1133.432956617 812.623189372337  1131.6262701781 811.771935033011  1129.82321715821 810.913032362726  L 1128.96310021971 812.71863443741  C 1130.7712567586 813.579968220954  1132.58305700082 814.433632025012  1134.39845209521 815.279602832453  L 1135.24322776158 813.466772428495  Z M 1142.50322201237 816.800094542112  C 1140.68352926103 815.977031798298  1138.86733425697 815.146257733962  1137.05468596992 814.307794749108  L 1136.21503761332 816.123005656212  C 1138.03281657867 816.963841900051  1139.85415229991 817.796967459958  1141.67899566881 818.622359872568  L 1142.50322201237 816.800094542112  Z M 1149.8004378333 820.051124240133  C 1147.97155607399 819.248687015105  1146.14608465655 818.438499417918  1144.32407280067 817.620583293446  L 1143.50500035246 819.445171007036  C 1145.33216939005 820.265402232842  1147.16280778154 821.077883055903  1148.99686616773 821.882591569434  L 1149.8004378333 820.051124240133  Z M 1157.13394247143 823.219445965776  C 1155.29610547756 822.43773682958  1153.46159098415 821.648239260234  1151.63044845472 820.850974544749  L 1150.8320566113 822.68470584032  C 1152.66838216672 823.484227203594  1154.50808923044 824.27595943593  1156.35112819889 825.059881190043  L 1157.13394247143 823.219445965776  Z M 1160.83398909624 824.780828756279  C 1160.2132468727 824.520957407531  1159.59287621035 824.260199417457  1158.97287900829 823.998555584309  L 1158.1952698226 825.841196068593  C 1160.04051717092 826.619905371995  1161.88905774987 827.390787811956  1163.74084171753 828.153822603302  L 1160.83398909624 824.780828756279  Z M 907.879182284478 619.675984000268  C 906.86298214861 617.958959419854  905.859171645748 616.234632300538  904.867829005274 614.50313702331  L 903.132170994726 615.49686297669  C 904.128288866027 617.236698750218  905.136934656548 618.969331837259  906.158029760127 620.6946272096  L 907.879182284478 619.675984000268  Z M 1156.6320409356 832.359052989787  L 1166 828  L 1162.42431700347 818.305955895069  L 1156.6320409356 832.359052989787  Z " fill-rule="nonzero" fill="#027db4" stroke="none" />
  </g>
</svg>