<?xml version="1.0" encoding="utf-8"?>
<svg version="1.1" xmlns:xlink="http://www.w3.org/1999/xlink" width="170px" height="14px" viewBox="1222 752  170 14" xmlns="http://www.w3.org/2000/svg">
  <g transform="matrix(0.601815023152038 -0.798635510047295 0.798635510047301 0.60181502315205 -85.7365873856145 1346.03900905941 )">
    <path d="M 1127.4871252529 618.938786397189  C 1125.61893064445 618.212468381266  1123.74595180706 617.498516607231  1121.86831167913 616.796977937391  L 1121.16831906916 618.670480098049  C 1123.03769692645 619.368931753361  1124.9024340045 620.079741890881  1126.76240790588 620.802863854522  L 1127.4871252529 618.938786397189  Z M 1134.93386484523 621.909805915832  C 1133.07877263285 621.150647277039  1131.21867880415 620.403768565738  1129.35370545179 619.669218805492  L 1128.62077450168 621.530082105782  C 1130.47754132162 622.261399591204  1132.32945008951 623.004991775995  1134.17637924993 623.760809852325  L 1134.93386484523 621.909805915832  Z M 1142.3270391661 625.011718389998  C 1140.48562659653 624.219955354789  1138.63899657961 623.440382111545  1136.78727032427 622.673049829831  L 1136.02162909923 624.520695227225  C 1137.865207114 625.284650979601  1139.70371131556 626.060793829006  1141.53702102837 626.84907283105  L 1142.3270391661 625.011718389998  Z M 1149.66434769062 628.243558601428  C 1147.83718775393 627.419437541724  1146.00459616236 626.607412345378  1144.16669320341 625.80753631203  L 1143.36857994707 627.641388877002  C 1145.19839549277 628.437745177167  1147.02292304294 629.246197179775  1148.84204283942 630.066691819735  L 1149.66434769062 628.243558601428  Z M 1156.94350727758 631.604320902407  C 1155.13116852887 630.748098258938  1153.31318560791 629.903873786363  1151.48967784332 629.071702897816  L 1150.65934090359 630.891191992734  C 1152.4748245988 631.719701039486  1154.2848077616 632.560210630291  1156.08917158849 633.412665595864  L 1156.94350727758 631.604320902407  Z M 1164.16225287992 635.092959528695  C 1162.36529926237 634.204901731194  1160.56249071154 633.328740678684  1158.75394555996 632.464533880518  L 1157.89164331176 634.269093337216  C 1159.69223023467 635.12949732442  1161.48710579988 636.001802963094  1163.27615219553 636.885952996927  L 1164.16225287992 635.092959528695  Z M 1171.31833824952 638.708388924936  C 1169.53732891898 637.788772309253  1167.75025571595 636.880947310746  1165.95723594014 635.984973517122  L 1165.063236705 637.77404181307  C 1166.84836656919 638.666073009885  1168.62757602761 639.569903262163  1170.40074829667 640.485473244385  L 1171.31833824952 638.708388924936  Z M 1178.40953663616 642.449484082443  C 1176.64502578709 641.49859480454  1174.87424401322 640.559388346816  1173.09730754492 639.631926356791  L 1172.17188950746 641.404946789825  C 1173.9410068363 642.328327624008  1175.70399655352 643.263401246151  1177.46074294018 644.210106279984  L 1178.40953663616 642.449484082443  Z M 1185.43364148042 646.315080889273  C 1183.68617817347 645.333214836188  1181.93223884074 644.362919170958  1180.17193860707 643.404257581729  L 1179.21538972849 645.160678443277  C 1180.96794402792 646.115121587558  1182.71416541662 647.081147613867  1184.45393927627 648.05869311428  L 1185.43364148042 646.315080889273  Z M 1192.38824516706 650.307251176409  C 1191.61877709599 649.855356161773  1190.84781948258 649.406002277762  1190.07538492692 648.959196868356  C 1189.11193216327 648.402852593163  1188.14643992043 647.850047697575  1187.17892772241 647.300793360303  L 1186.19154565082 649.040068107063  C 1187.15458542035 649.586783457481  1188.11561502176 650.137032164849  1189.07461502991 650.690803107067  C 1189.84302508281 651.13528247643  1190.60996629193 651.582296336967  1191.37542612987 652.03183738704  L 1192.38824516706 650.307251176409  Z M 1199.26303396514 654.436658692613  C 1197.5545933876 653.387340280487  1195.83839411226 652.350706817854  1194.11457773029 651.326843829823  L 1193.09324430433 653.046401340645  C 1194.80855870752 654.065214567288  1196.51629357215 655.096735283691  1198.21630800541 656.140878386559  L 1199.26303396514 654.436658692613  Z M 1206.05481619656 658.701212781147  C 1204.36746078086 657.618313876318  1202.6720973302 656.547944006221  1200.96886571681 655.490191479351  L 1199.91372647971 657.189215078459  C 1201.60855763979 658.241750698455  1203.29555944342 659.306841432068  1204.97459270829 660.384399406389  L 1206.05481619656 658.701212781147  Z M 1212.76093546896 663.099245495589  C 1211.09532517118 661.983189639954  1209.42146063341 660.879502003971  1207.73947995415 659.788273644942  L 1206.65094759048 661.466098812606  C 1208.32463262748 662.551945159695  1209.99024155231 663.650189333724  1211.64763694765 664.760740726531  L 1212.76093546896 663.099245495589  Z M 1219.37876889438 667.629036683544  C 1217.73555516567 666.480260387298  1216.08384422036 665.343686658205  1214.42377232914 664.219409266718  L 1213.30227258416 665.875379774309  C 1214.95415688873 666.99411215379  1216.59772148413 668.125080224511  1218.23283077178 669.268190678499  L 1219.37876889438 667.629036683544  Z M 1225.90572811506 672.288814659427  C 1224.2855536469 671.107767230353  1222.6566423089 669.938751943262  1221.01912849073 668.781865245122  L 1219.86510000385 670.415333411773  C 1221.4945374933 671.566514266604  1223.1154149306 672.72976389137  1224.72759858889 673.90498631478  L 1225.90572811506 672.288814659427  Z M 1232.33926031587 677.076756897402  C 1230.74275878861 675.863900265117  1229.13728415544 674.662900643648  1227.52296887244 673.473857118762  L 1226.33686300566 675.084184064692  C 1227.94321637669 676.26736314663  1229.54077270057 677.462439356876  1231.1294001745 678.669314098359  L 1232.33926031587 677.076756897402  Z M 1238.6768492227 681.990990744208  C 1237.1046450578 680.746799279507  1235.52323506043 679.514285056935  1233.93274970133 678.293549762347  L 1232.71503036271 679.880105658737  C 1234.29767134065 681.094820204436  1235.87128171711 682.321255583629  1237.43573166493 683.559310612027  L 1238.6768492227 681.990990744208  Z M 1244.91601608665 687.029594151585  C 1243.36872420237 685.754554480875  1241.81199735971 684.491007716468  1240.2459639929 683.239058104441  L 1238.99710745513 684.801222419771  C 1240.55541703964 686.046997331779  1242.10446600041 687.304312198232  1243.64412653664 688.573063287196  L 1244.91601608665 687.029594151585  Z M 1251.05432065351 692.190596428026  C 1249.53254622451 690.885207243045  1248.00111140135 689.591122133428  1246.46014253162 688.308447864749  L 1245.18063724573 689.845609607499  C 1246.71400595295 691.121957640079  1248.23788763616 692.409660234561  1249.75215657093 693.708611151942  L 1251.05432065351 692.190596428026  Z M 1257.08849542043 697.474449364568  C 1256.48123964305 696.931247439273  1255.87234812912 696.389876910149  1255.2618291745 695.850345153119  C 1254.36895927688 695.062865437385  1253.4726258062 694.279321558833  1252.57285483669 693.499736310648  L 1251.26320124098 695.01129426827  C 1252.15828504842 695.786818435873  1253.0499502178 696.566279516178  1253.93817082515 697.349654847388  C 1254.54543004138 697.886308541041  1255.15107115779 698.424790444997  1255.75508592956 698.965093228703  L 1257.08849542043 697.474449364568  Z M 1263.01255104494 702.880029112441  C 1261.5449419813 701.51402692601  1260.06722224693 700.1589279351  1258.57951375777 698.814843939098  L 1257.2387504638 700.298876886689  C 1258.71912147424 701.636331769671  1260.18955299511 702.984747320863  1261.64992371176 704.344012292279  L 1263.01255104494 702.880029112441  Z M 1268.82854876232 708.401704402109  C 1267.38824042337 707.006946277658  1265.93760777201 705.622889270367  1264.47677048948 704.249647568791  L 1263.10692152713 705.706875697927  C 1264.56055386156 707.073344478718  1266.00403189471 708.450575223382  1267.4372365357 709.838454306598  L 1268.82854876232 708.401704402109  Z M 1274.53421382767 714.037315603664  C 1273.12176954477 712.614347057021  1271.69879134587 711.201873363822  1270.26539663059 709.800011057026  L 1268.86699777326 711.22986441868  C 1270.29332288902 712.624812645917  1271.70928286338 714.030319923511  1273.1147608757 715.446270293195  L 1274.53421382767 714.037315603664  Z M 1280.12731464926 719.784658524748  C 1278.74328685566 718.334036105395  1277.34851966243 716.893698170985  1275.94312814174 715.463763553408  L 1274.51672632925 716.865682905338  C 1275.91518636407 718.288564988832  1277.30307447133 719.7217990793  1278.6802761464 721.165266930935  L 1280.12731464926 719.784658524748  Z M 1285.60566366134 725.641485272647  C 1284.25059367604 724.163776345974  1282.8845830079 722.696137513346  1281.50774435655 721.238689858994  L 1280.05389748116 722.612126884466  C 1281.42394547133 724.062386308589  1282.78321888261 725.522786647383  1284.13160557125 726.993207413865  L 1285.60566366134 725.641485272647  Z M 1290.9671181797 731.605505133486  C 1289.64153599579 730.101287658958  1288.30481612489 728.606921948918  1286.9570688501 727.122531292697  L 1285.47634553838 728.466948814944  C 1286.81744563262 729.944018356233  1288.14757271085 731.431013753675  1289.46661703393 732.927812326064  L 1290.9671181797 731.605505133486  Z M 1296.20958123978 737.674385468171  C 1294.91400531709 736.144247773201  1293.60709905946 734.623739660011  1292.28897029025 733.112986574694  L 1290.78194968062 734.42785876702  C 1292.09357734974 735.931160716114  1293.39403785747 737.444169580628  1294.68322391224 738.966760533172  L 1296.20958123978 737.674385468171  Z M 1301.33100241677 743.845752624725  C 1300.06593947914 742.290293174634  1298.78935799011 740.744237357279  1297.50136327116 739.207712726508  L 1295.96863478741 740.492525317941  C 1297.25027702945 742.021471705488  1298.52056233238 743.559902271165  1299.77938589418 745.107690090223  L 1301.33100241677 743.845752624725  Z M 1306.32937862757 750.11719286667  C 1305.09532346466 748.53702003058  1303.84956603899 746.966021200245  1302.59220912899 745.404325987381  L 1301.03437224974 746.658576463821  C 1302.28552779057 748.21256929045  1303.5251410565 749.775819848483  1304.75310977602 751.348199165452  L 1306.32937862757 750.11719286667  Z M 1311.20205714117 756.48697309709  C 1310.76016849807 755.897286774999  1310.31684644773 755.30867595561  1309.87209492294 754.721145860591  C 1309.10596302864 753.710621061234  1308.33509515312 752.703695611884  1307.55951673924 751.700402746615  L 1305.97718076347 752.923600547371  C 1306.74878278045 753.921749521878  1307.51569932898 754.923511749272  1308.2779051065 755.928854178809  C 1308.72054936767 756.513602507402  1309.16177140226 757.099426077615  1309.6015672987 757.686319695928  L 1311.20205714117 756.48697309709  Z M 1315.95318356676 762.945121842993  C 1314.77966886544 761.320144242825  1313.59541761147 759.702947338157  1312.40050753665 758.093637278425  L 1310.79474409496 759.285913995183  C 1311.98439614921 760.888142530051  1313.16343628511 762.498223204978  1314.33178711296 764.116050337647  L 1315.95318356676 762.945121842993  Z M 1320.58965363224 769.486072299012  C 1319.44498496272 767.840647553757  1318.28944416506 766.202812908281  1317.12310708654 764.572675866639  L 1315.4965625617 765.736442556629  C 1316.65776735079 767.359406427432  1317.8082233664 768.990034029918  1318.94785509503 770.628218333112  L 1320.58965363224 769.486072299012  Z M 1325.11002461296 776.107789125698  C 1323.99455816037 774.442429240125  1322.86808738722 772.78446649684  1321.73068623266 771.134009721  L 1320.08386675453 772.268904256383  C 1321.21626294779 773.912098447465  1322.33777685714 775.562765577139  1323.44833486876 777.220797299079  L 1325.11002461296 776.107789125698  Z M 1329.51288991069 782.808211851634  C 1328.42697277335 781.123435033725  1327.32992254722 779.445860098822  1326.22181124032 777.775597159384  L 1324.55522924767 778.881266396434  C 1325.65846447879 780.544179597094  1326.75068730179 782.214372617912  1327.83182602543 783.891735830922  L 1329.51288991069 782.808211851634  Z M 1333.79687949128 789.585255514584  C 1332.74084957269 787.881586014253  1331.67356126132 786.184920896645  1330.59508461173 784.495371527258  L 1328.9092586928 785.571471416249  C 1329.98298966944 787.253586179837  1331.04558154047 788.942785379927  1332.09696455954 790.638958140964  L 1333.79687949128 789.585255514584  Z M 1337.96066031102 796.436811310269  C 1336.93484621468 794.714779256244  1335.89765192487 792.999551905113  1334.84914552082 791.29124184076  L 1333.14460025199 792.337437533023  C 1334.18849286261 794.038230437983  1335.22112313626 795.745910191304  1336.24242329321 797.460364704402  L 1337.96066031102 796.436811310269  Z M 1342.00293673137 803.360747248564  C 1341.00765765861 801.620888483435  1340.0008801328 799.887632623929  1338.98267023673 798.161093437347  L 1337.25993601923 799.177059389464  C 1338.27366543706 800.896001202177  1339.27601279105 802.621630132134  1340.26691228918 804.353832912607  L 1342.00293673137 803.360747248564  Z M 1345.9224509222 810.354908816903  C 1344.95801657276 808.597764730356  1343.98196908868 806.847019697573  1342.9943725357 805.10278863381  L 1341.2539854306 806.088208708917  C 1342.23723621473 807.824764548399  1343.20898874986 809.567805693155  1344.16917925221 811.317217733622  L 1345.9224509222 810.354908816903  Z M 1349.71798325314 817.417119650699  C 1348.78469372885 815.64323701107  1347.839680002 813.875547582196  1346.88300410129 812.11416739146  L 1345.1255056627 813.068734957611  C 1346.07797185618 814.822364461911  1347.01882719345 816.582275441559  1347.94800991871 818.348352379621  L 1349.71798325314 817.417119650699  Z M 1351.17253588204 820.205118898738  C 1350.99789878892 819.867542475693  1350.82283832817 819.530185240185  1350.64735491285 819.193047988255  L 1348.87329201937 820.116466013845  C 1349.79467724449 821.886623508267  1350.70434261909 823.662856693441  1351.60222843464 825.445048981149  L 1351.17253588204 820.205118898738  Z M 1119.98913758183 616.099584322532  C 1118.10842190112 615.406332936955  1116.22314086754 614.725530259675  1114.333418227 614.05722097716  L 1113.666581773 615.94277902284  C 1115.54798897564 616.608147511707  1117.42497411593 617.285954420045  1119.2974139925 617.976155258032  L 1119.98913758183 616.099584322532  Z M 1343.06222300617 823.171468858067  L 1353 826  L 1356.63441963252 816.327823722928  L 1343.06222300617 823.171468858067  Z " fill-rule="nonzero" fill="#009999" stroke="none" />
  </g>
</svg>