<?xml version="1.0" encoding="utf-8"?>
<svg version="1.1" xmlns:xlink="http://www.w3.org/1999/xlink" width="66px" height="66px" xmlns="http://www.w3.org/2000/svg">
  <g transform="matrix(1 0 0 1 -364 -678 )">
    <path d="M 397 678  C 415.48 678  430 692.52  430 711  C 430 729.48  415.48 744  397 744  C 378.52 744  364 729.48  364 711  C 364 692.52  378.52 678  397 678  Z " fill-rule="nonzero" fill="#ffffff" stroke="none" />
    <path d="M 397 678.5  C 415.2 678.5  429.5 692.8  429.5 711  C 429.5 729.2  415.2 743.5  397 743.5  C 378.8 743.5  364.5 729.2  364.5 711  C 364.5 692.8  378.8 678.5  397 678.5  Z " stroke-width="1" stroke="#797979" fill="none" />
  </g>
</svg>