<?xml version="1.0" encoding="utf-8"?>
<svg version="1.1" xmlns:xlink="http://www.w3.org/1999/xlink" width="66px" height="66px" xmlns="http://www.w3.org/2000/svg">
  <g transform="matrix(1 0 0 1 -418 -582 )">
    <path d="M 451 584  C 468.36 584  482 597.64  482 615  C 482 632.36  468.36 646  451 646  C 433.64 646  420 632.36  420 615  C 420 597.64  433.64 584  451 584  Z " fill-rule="nonzero" fill="#ffffff" stroke="none" />
    <path d="M 451 583.5  C 468.64 583.5  482.5 597.36  482.5 615  C 482.5 632.64  468.64 646.5  451 646.5  C 433.36 646.5  419.5 632.64  419.5 615  C 419.5 597.36  433.36 583.5  451 583.5  Z " stroke-width="3" stroke="#027db4" fill="none" />
  </g>
</svg>