<?xml version="1.0" encoding="utf-8"?>
<svg version="1.1" xmlns:xlink="http://www.w3.org/1999/xlink" width="66px" height="66px" xmlns="http://www.w3.org/2000/svg">
  <g transform="matrix(1 0 0 1 -523 -476 )">
    <path d="M 556 478  C 573.36 478  587 491.64  587 509  C 587 526.36  573.36 540  556 540  C 538.64 540  525 526.36  525 509  C 525 491.64  538.64 478  556 478  Z " fill-rule="nonzero" fill="#ffffff" stroke="none" />
    <path d="M 556 477.5  C 573.64 477.5  587.5 491.36  587.5 509  C 587.5 526.64  573.64 540.5  556 540.5  C 538.36 540.5  524.5 526.64  524.5 509  C 524.5 491.36  538.36 477.5  556 477.5  Z " stroke-width="3" stroke="#f59a23" fill="none" />
  </g>
</svg>