<?xml version="1.0" encoding="utf-8"?>
<svg version="1.1" xmlns:xlink="http://www.w3.org/1999/xlink" width="66px" height="66px" xmlns="http://www.w3.org/2000/svg">
  <g transform="matrix(1 0 0 1 -945 -476 )">
    <path d="M 978 478  C 995.36 478  1009 491.64  1009 509  C 1009 526.36  995.36 540  978 540  C 960.64 540  947 526.36  947 509  C 947 491.64  960.64 478  978 478  Z " fill-rule="nonzero" fill="#ffffff" stroke="none" />
    <path d="M 978 477.5  C 995.64 477.5  1009.5 491.36  1009.5 509  C 1009.5 526.64  995.64 540.5  978 540.5  C 960.36 540.5  946.5 526.64  946.5 509  C 946.5 491.36  960.36 477.5  978 477.5  Z " stroke-width="3" stroke="#aaaaaa" fill="none" />
  </g>
</svg>