<?xml version="1.0" encoding="utf-8"?>
<svg version="1.1" xmlns:xlink="http://www.w3.org/1999/xlink" width="42px" height="8px" viewBox="336 798  42 8" xmlns="http://www.w3.org/2000/svg">
  <g transform="matrix(-0.173648177666934 -0.98480775301221 0.98480775301221 -0.17364817766693 -370.823418488697 1292.84220631424 )">
    <path d="M 357.88085154462 799.589106184538  C 358.30932810608 797.658405970445  358.802889434818 795.742727745397  359.360691528902 793.845347365964  L 357.441891838394 793.281248307549  C 356.87138858232 795.221832066478  356.366588854776 797.181130313239  355.928355875631 799.15579259996  L 357.88085154462 799.589106184538  Z M 356.516893233542 807.377853076162  C 356.769999645931 805.416442200178  357.089278063824 803.46413916555  357.474182513324 801.524282458168  L 355.512426984436 801.135032866161  C 355.118758254889 803.11906013966  354.792209862666 805.115817143461  354.533340213497 807.121889374301  L 356.516893233542 807.377853076162  Z M 355.85892819456 815.257703482332  C 355.934613186069 813.281477973317  356.077021137899 811.308372344517  356.285908528973 809.341760654765  L 354.297095983765 809.130515157716  C 354.083452223686 811.141906624932  353.937801640672 813.159939898285  353.860393300779 815.181164091571  L 355.85892819456 815.257703482332  Z M 355.939934716728 823.156052058635  C 355.869042269354 821.966799663689  355.822353121388 820.776228007415  355.799896256614 819.585076175277  C 355.7912787746 818.801536233744  355.79314679153 818.017916054252  355.80549980569 817.234426102808  L 353.805748346698 817.202896715553  C 353.793072784732 818.006844262351  353.791191137293 818.81092575609  353.800103913063 819.614923822195  C 353.823014741517 820.835817738346  353.870816283798 822.056117619197  353.943478737945 823.275062666487  L 355.939934716728 823.156052058635  Z M 356.765275341494 831.020133268113  C 356.47052686933 829.06454670174  356.241909968323 827.099563200607  356.079815578959 825.128542934513  L 354.086544689492 825.292467188983  C 354.252329970516 827.30836761589  354.486152481764 829.318093820607  354.787612381029 831.31820912222  L 356.765275341494 831.020133268113  Z M 358.294512827324 838.778122255477  C 357.825086746022 836.856967749818  357.420679162431 834.920506969559  357.081981623397 832.972051309947  L 355.111530069687 833.314572366936  C 355.457939756729 835.307394390936  355.871555707021 837.287948411999  356.351670627184 839.252847634363  L 358.294512827324 838.778122255477  Z M 360.515253644892 846.36714529124  C 359.87495436414 844.49599262203  359.298033572714 842.603748386323  358.785477819262 840.693648367993  L 356.853814899301 841.211990304988  C 357.378041554892 843.165583329181  357.968098841331 845.100913994317  358.622977746241 847.01467283767  L 360.515253644892 846.36714529124  Z M 359.939749084532 791.954585810848  C 360.54012325605 790.070243396478  361.20396748461 788.20671537486  361.93014658036 786.367188424442  L 360.06985341964 785.632811575558  C 359.327139215064 787.514224582033  358.648179243534 789.420185164456  358.034134543189 791.347434083664  L 359.939749084532 791.954585810848  Z M 352.290046752206 849.46774747142  L 362 853  L 366.317074367662 843.612621830134  L 352.290046752206 849.46774747142  Z " fill-rule="nonzero" fill="#797979" stroke="none" />
  </g>
</svg>