<?xml version="1.0" encoding="utf-8"?>
<svg version="1.1" xmlns:xlink="http://www.w3.org/1999/xlink" width="42px" height="8px" viewBox="452 800  42 8" xmlns="http://www.w3.org/2000/svg">
  <g transform="matrix(0.139173100960065 -0.99026806874157 0.99026806874157 0.139173100960065 -389.004404022333 1160.50162334287 )">
    <path d="M 473.559002053434 799.339785168076  C 473.190666417063 797.351930585929  472.758264785666 795.376482641163  472.262472524022 793.416526770721  L 470.323545877456 793.906999460316  C 470.808784151817 795.825233523191  471.231981199617 797.758629878809  471.592476032644 799.704168770283  L 473.559002053434 799.339785168076  Z M 474.688472106248 807.344058234064  C 474.492372351604 805.331899724646  474.231377273748 803.326594929202  473.905894518883 801.331275917846  L 471.931984158013 801.653266425858  C 472.250538323786 803.60611085037  472.505977569198 805.568728490431  472.697902925657 807.53805394866  L 474.688472106248 807.344058234064  Z M 475.125728092083 815.41579268943  C 475.103315852785 813.394225309321  475.015659351436 811.373907984971  474.862895498051 809.357996234449  L 472.868613346522 809.509121017627  C 473.018125298071 811.482119821282  473.103915845325 813.459430416808  473.12585099269 815.437964458009  L 475.125728092083 815.41579268943  Z M 474.851238261511 823.501910242176  C 474.907720629076 822.820845657208  474.956770387452 822.139185076882  474.9983787785 821.457050215922  C 475.069726754577 820.118190268549  475.112407349852 818.777956454285  475.12639123647 817.437269711126  L 473.126500020645 817.416410064267  C 473.112840521444 818.72599659039  473.071204701624 820.035141850074  473.001621059588 821.342949774841  C 472.960998741228 822.008004525737  472.913149155185 822.672598111326  472.858080780006 823.336612771173  L 474.851238261511 823.501910242176  Z M 473.837202911004 831.52162483953  C 474.176861318919 829.528669961285  474.45210466389 827.5252711357  474.662503045458 825.514557455978  L 472.673363192351 825.306416530681  C 472.467443585495 827.274327915473  472.19805937748 829.235080158273  471.865631317425 831.185610775251  L 473.837202911004 831.52162483953  Z M 472.13755984365 839.424491620559  C 472.647272073688 837.468109647801  473.09370540171 835.495785375034  473.476162546936 833.510599360362  L 471.512276461394 833.132245765145  C 471.137960725705 835.075172895249  470.701030675632 837.005512072834  470.202168748856 838.920248316  L 472.13755984365 839.424491620559  Z M 469.7648907122 847.15200940493  C 470.440883606101 845.246682506944  471.055202182656 843.320032969587  471.60688694241 841.375070011933  L 469.682792343114 840.82930451929  C 469.142851360724 842.732864825246  468.541609854842 844.618501550808  467.880006899951 846.483269534487  L 469.7648907122 847.15200940493  Z M 468.325859830209 850.945953565924  C 468.58025405373 850.316588010261  468.827819846839 849.684483853649  469.068513593974 849.049752458722  L 467.198453642077 848.340615112144  C 466.496884340385 850.19071743845  465.735782084843 852.01769323626  464.916335635205 853.818688966143  L 468.325859830209 850.945953565924  Z M 471.745678865575 791.462225334507  C 471.207833961767 789.513389825739  470.607226641339 787.582422037307  469.944794988243 785.672337932938  L 468.055205011757 786.327662067062  C 468.703535405548 788.197085989923  469.291357528398 790.086949043444  469.817753265459 791.994299465072  L 471.745678865575 791.462225334507  Z M 461.082383121647 846.439023167351  L 465 856  L 474.850189760661 852.880102296715  L 461.082383121647 846.439023167351  Z " fill-rule="nonzero" fill="#797979" stroke="none" />
  </g>
</svg>