<?xml version="1.0" encoding="utf-8"?>
<svg version="1.1" xmlns:xlink="http://www.w3.org/1999/xlink" width="42px" height="8px" viewBox="552 834  42 8" xmlns="http://www.w3.org/2000/svg">
  <g transform="matrix(-0.275637355816994 -0.961261695938306 0.961261695938322 -0.275637355816998 -74.5970963131766 1619.78705594729 )">
    <path d="M 577.148990561182 799.473563479768  C 576.843432451215 797.474823509064  576.472647184949 795.486601267714  576.037228250423 793.51207915325  L 574.084152116296 793.942768849324  C 574.510189206303 795.874746512893  574.872985270807 797.820129110713  575.171959609485 799.77580281545  L 577.148990561182 799.473563479768  Z M 578.021537626659 807.510907520978  C 577.891059424193 805.493160592412  577.694686270367 803.480215739932  577.432732484891 801.475294932685  L 575.449587828895 801.734403545807  C 575.705897372718 803.696124910407  575.898039331594 805.665697428485  576.025706158366 807.639968553718  L 578.021537626659 807.510907520978  Z M 578.191403357381 815.593690658722  C 578.236994876064 813.572243493327  578.216523530457 811.549846321979  578.1300220875 809.529736243437  L 576.131853136237 809.615298163746  C 576.216490757884 811.591881520852  576.236521013391 813.570702691446  576.191911841836 815.548594325586  L 578.191403357381 815.593690658722  Z M 577.637394162141 823.666399505866  C 577.73477673327 822.841005915032  577.821069133428 822.014341613258  577.89624801541 821.18663026221  C 577.995056746923 819.997427518746  578.070923974388 818.806429935688  578.123807387243 817.61430172315  L 576.125772342309 817.525667873982  C 576.074141871308 818.689551552904  576.000121330932 819.852334047476  575.903751821032 821.013369723568  C 575.830356127264 821.820690423441  575.746154819484 822.626992276195  575.65117053591 823.432058500913  L 577.637394162141 823.666399505866  Z M 576.341370636589 831.64640957099  C 576.752115834364 829.666607658787  577.098061434235 827.673913242525  577.378653707146 825.671515878005  L 575.398005085876 825.393971216626  C 575.123458652659 827.353223510383  574.784967041517 829.302981922473  574.383072050468 831.240125621519  L 576.341370636589 831.64640957099  Z M 574.355880146413 839.483377424164  C 574.937340396299 837.546826054626  575.455368679499 835.591792527426  575.909135827173 833.621406117417  L 573.96015047816 833.172567494602  C 573.516160518591 835.100498564528  573.009294039403 837.013407555726  572.440362343575 838.908232618909  L 574.355880146413 839.483377424164  Z M 571.695984713821 847.117851466686  C 572.44374903161 845.239241407599  573.129930211749 843.336699743748  573.753429935727 841.413271730211  L 571.850892951498 840.796544056403  C 571.240827593839 842.678528528701  570.569431359035 844.540076683388  569.837778900449 846.378208880601  L 571.695984713821 847.117851466686  Z M 570.472147280875 850.045814471016  C 570.626247555773 849.694156677571  570.778164491791 849.341546155492  570.927889316881 848.988003265355  L 569.086233430532 848.208065065063  C 568.314720658654 850.029826118938  567.483887910962 851.825891647166  566.595065038831 853.59338682299  L 570.472147280875 850.045814471016  Z M 575.580381343133 791.542630196773  C 575.102061303545 789.578059717308  574.559676718929 787.62964283249  573.954095743423 785.700498226412  L 572.045904256577 786.299501773588  C 572.638436955801 788.18707966468  573.169134938297 790.093514580353  573.637148755793 792.015755033892  L 575.580381343133 791.542630196773  Z M 563.367619548195 845.32705772511  L 567 855  L 576.938373087355 852.173564015137  L 563.367619548195 845.32705772511  Z " fill-rule="nonzero" fill="#797979" stroke="none" />
  </g>
</svg>