<?xml version="1.0" encoding="utf-8"?>
<svg version="1.1" xmlns:xlink="http://www.w3.org/1999/xlink" width="44px" height="8px" viewBox="656 800  44 8" xmlns="http://www.w3.org/2000/svg">
  <g transform="matrix(-0.139173100960063 -0.990268068741556 0.990268068741571 -0.139173100960064 -23.8161648173007 1587.29692377867 )">
    <path d="M 680.770856864766 800.074264454472  C 680.949220807946 798.06133972107  681.065186436211 796.043372727705  681.118586906967 794.023266772987  L 679.119285323222 793.970416255168  C 679.066976306235 795.949233205745  678.953380902806 797.925954913264  678.778662545429 799.897737419714  L 680.770856864766 800.074264454472  Z M 679.725948515361 808.086720895634  C 680.069783415934 806.095375310427  680.351848764733 804.093856399141  680.571738747425 802.085043796112  L 678.583614209057 801.867418384128  C 678.368218564093 803.835172808157  678.09191835713 805.795782616425  677.755111108054 807.746427031516  L 679.725948515361 808.086720895634  Z M 678.0235241662 815.985647595862  C 678.530485440444 814.02945999111  678.976727127878 812.058037365277  679.361607209641 810.07421605245  L 677.398216584837 809.693299717233  C 677.021203078218 811.636573648767  676.584082137563 813.567702310429  676.087482659492 815.483907340047  L 678.0235241662 815.985647595862  Z M 675.668824008761 823.723176851476  C 675.727826108221 823.558449627966  675.786386263313 823.393564442874  675.844503842102 823.228523075509  C 676.445024046813 821.480407040098  676.995891835775 819.715626545094  677.496444087417 817.93630599137  L 675.571175585712 817.39469617209  C 675.081548025046 819.135182563875  674.542772589624 820.861466859277  673.955496010894 822.57147687335  C 673.899404429957 822.730724087455  673.842892191633 822.889822821155  673.785959887673 823.048771408496  L 675.668824008761 823.723176851476  Z M 672.632364319981 831.211247646987  C 673.468428999232 829.371498878628  674.247302112106 827.506292325111  674.967863074755 825.618311504849  L 673.099325914507 824.905171349778  C 672.393492518252 826.754563675351  671.6305388155 828.581647218076  670.811562486453 830.383793308052  L 672.632364319981 831.211247646987  Z M 668.988443897254 838.42326093268  C 669.973449010925 836.658765366061  670.903557979717 834.864180143955  671.777432633052 833.042087180126  L 669.974104773045 832.177212258925  C 669.118091269071 833.962063411869  668.206992824439 835.719969054627  667.242120258829 837.448400045232  L 668.988443897254 838.42326093268  Z M 664.761910353445 845.310038545123  C 665.889139227487 843.632828139688  666.964141710739 841.921101387475  667.985371170766 840.177320991742  L 666.259549364861 839.166608819923  C 665.259192843358 840.874748037622  664.206162367008 842.55148875715  663.101972956585 844.194418610511  L 664.761910353445 845.310038545123  Z M 660.589722203991 851.055968448175  C 661.634145640809 849.722203451783  662.643757362902 848.3615414506  663.617536463106 846.975358329587  L 661.980988957348 845.825700875648  C 660.843110772431 847.445480488263  659.655328798122 849.029622718667  658.419351925478 850.575848422581  L 660.589722203991 851.055968448175  Z M 681.151124064814 792.002914596069  C 681.162800800604 789.982136693277  681.111875947641 787.961481979429  680.998422772762 785.943857620021  L 679.001577227238 786.056142379979  C 679.112711529388 788.032528456646  679.162595527805 790.011882950248  679.151157453157 791.991358114933  L 681.151124064814 792.002914596069  Z M 654.853110727324 844.731375700892  L 656 855  L 666.32810392894 854.699551613408  L 654.853110727324 844.731375700892  Z " fill-rule="nonzero" fill="#797979" stroke="none" />
  </g>
</svg>