<?xml version="1.0" encoding="utf-8"?>
<svg version="1.1" xmlns:xlink="http://www.w3.org/1999/xlink" width="42px" height="8px" viewBox="762 800  42 8" xmlns="http://www.w3.org/2000/svg">
  <g transform="matrix(-0.139173100960065 -0.99026806874157 0.99026806874157 -0.139173100960065 95.7970107835079 1691.27507099654 )">
    <path d="M 785.795946396806 800.074336139418  C 785.97530636162 798.060840721493  786.090295007864 796.042129141092  786.140736385111 794.021290339394  L 784.141359126386 793.971384655436  C 784.091980647141 795.949640450044  783.979415035496 797.925813848054  783.803834534263 799.896880998279  L 785.795946396806 800.074336139418  Z M 784.736630985481 808.087360012047  C 785.086653415758 806.096426036927  785.372981745761 804.094817953148  785.595177848827 802.085598530893  L 783.607296570384 801.86576217627  C 783.389782571712 803.832643434376  783.109487736955 805.79207373973  782.766840960599 807.741054860665  L 784.736630985481 808.087360012047  Z M 782.999390162374 815.981199068331  C 783.517536643787 814.027265083065  783.973128162239 812.057276453164  784.365467592187 810.074247566162  L 782.403498702466 809.686074826564  C 782.01942662799 811.627317434979  781.573435309635 813.555794569888  781.066207183151 815.468555362779  L 782.999390162374 815.981199068331  Z M 780.582068668085 823.701629979737  C 780.774622654597 823.177650664947  780.962550141735 822.651982758974  781.145829189448 822.124687632201  C 781.616395982531 820.736564777184  782.054745043238 819.337727904419  782.460523655475 817.929302583281  L 780.538695642449 817.375608544711  C 780.14217667227 818.751894384005  779.713887213457 820.118827632962  779.254170658728 821.475312315685  C 779.075552004745 821.989062465576  778.892425528676 822.501234252691  778.704812410165 823.011768441385  L 780.582068668085 823.701629979737  Z M 777.473571696968 831.162725563131  C 778.329745709722 829.331523811584  779.12719943909 827.473437058192  779.86471265743 825.591308463288  L 778.002572486978 824.861627721053  C 777.280600107708 826.704096202922  776.499950280651 828.523029451682  775.661817520878 830.315644217911  L 777.473571696968 831.162725563131  Z M 773.741539130503 838.332288565632  C 774.750411465108 836.580572148101  775.703063878424 834.797072158466  776.5980386648 832.984517627775  L 774.804733673911 832.099047577659  C 773.92861774834 833.873408056276  772.996039575699 835.619326229568  772.008426144941 837.334130572489  L 773.741539130503 838.332288565632  Z M 769.413036219706 845.158324258126  C 770.567290385083 843.498796880621  771.668232706435 841.802817859914  772.7141785716 840.072982306423  L 771.002714072757 839.038144507924  C 769.978808322892 840.7315290592  768.90106499922 842.391770500741  767.771133215849 844.016328406153  L 769.413036219706 845.158324258126  Z M 766.569251277074 849.033794395637  C 767.137473364343 848.299182090432  767.694882541767 847.556269246569  768.241298704478 846.805295907131  L 766.624086490838 845.628595156704  C 765.459816432303 847.228723105935  764.244723911258 848.791247499738  762.980668207343 850.31377743393  L 766.569251277074 849.033794395637  Z M 786.169654084631 792.000239082283  C 786.177050839043 789.978784387516  786.119865886894 787.957609304827  785.998186730011 785.939806544953  L 784.001813269989 786.060193455047  C 784.12092841019 788.035477183144  784.176908364088 790.014062172647  784.169667473689 791.992920882262  L 786.169654084631 792.000239082283  Z M 760.811450733516 842.736114252334  L 762 853  L 772.326799692076 852.657643285834  L 760.811450733516 842.736114252334  Z " fill-rule="nonzero" fill="#797979" stroke="none" />
  </g>
</svg>