<?xml version="1.0" encoding="utf-8"?>
<svg version="1.1" xmlns:xlink="http://www.w3.org/1999/xlink" width="44px" height="8px" viewBox="852 836  44 8" xmlns="http://www.w3.org/2000/svg">
  <g transform="matrix(-0.57357643635105 -0.819152044288997 0.819152044288989 -0.573576436351049 687.218088168067 2037.74309324346 )">
    <path d="M 892.650561092609 800.09021642229  C 892.9857452759 798.09775956268  893.260184147057 796.095558718503  893.473496226318 794.086397019939  L 891.484673822711 793.875244357365  C 891.275647951535 795.844034759822  891.006723545908 797.806004176529  890.67827442029 799.758425400423  L 892.650561092609 800.09021642229  Z M 890.988067397954 807.996282608055  C 891.483737574591 806.037572866893  891.919652786961 804.064224736923  892.295207097459 802.078981242034  L 890.33006076699 801.70722877083  C 889.962052695446 803.652581572485  889.534896589986 805.586278029949  889.049186212745 807.505630236572  L 890.988067397954 807.996282608055  Z M 888.689860729312 815.74147556412  C 889.342751318226 813.829417339838  889.937270969214 811.897922763349  890.47259327888 809.949676680609  L 888.54406982561 809.419773585515  C 888.019504069533 811.328872386304  887.436930459964 813.22155627895  886.797158794884 815.095194365717  L 888.689860729312 815.74147556412  Z M 885.771082163441 823.274768303812  C 886.576891781881 821.421958644681  887.326099048953 819.545042720783  888.017662539989 817.646629511809  L 886.138467488637 816.962066907679  C 885.460799999349 818.822334156648  884.726647005134 820.661536078441  883.937029004688 822.477116117161  L 885.771082163441 823.274768303812  Z M 882.192441865712 830.526509980414  C 883.159664531655 828.752612269547  884.0726501869 826.949675191404  884.930129749005 825.120204892463  L 883.119179679697 824.271405831159  C 882.278929970884 826.06411548151  881.384289486293 827.830825059052  880.436501807925 829.569078774813  L 882.192441865712 830.526509980414  Z M 878.040233388872 837.456800925485  C 879.148134693264 835.767189291452  880.204332769473 834.044235276326  881.207359464716 832.290333847293  L 879.471213260918 831.297461066401  C 878.488340985175 833.016120297664  877.45336573305 834.704453960042  876.367726156844 836.360115209878  L 878.040233388872 837.456800925485  Z M 873.33964961467 844.027514737559  C 874.580930466911 842.433320702946  875.773382505404 840.80170094016  876.915348179528 839.134923458533  L 875.26544394352 838.004518216153  C 874.14642447348 839.637804133959  872.977933092 841.236638778141  871.761594043533 842.79879971185  L 873.33964961467 844.027514737559  Z M 868.121658993727 850.195362149601  C 869.488141570248 848.707088605457  870.808991442119 847.177552554753  872.082372581174 845.608880106842  L 870.529580234717 844.348389754327  C 869.281785909833 845.885541921946  867.987476669975 847.384344083557  866.648451650881 848.842712851007  L 868.121658993727 850.195362149601  Z M 893.666388949471 792.07536386072  C 893.838878874372 790.062286614328  893.950033342375 788.04442398306  893.999697844827 786.024580867536  L 892.000302155173 785.975419132464  C 891.951635591482 787.954676323738  891.842714617152 789.931992825815  891.6736906362 791.90462009864  L 893.666388949471 792.07536386072  Z M 862.685192760419 843.672323765633  L 863 854  L 873.318681741807 854.533673225194  L 862.685192760419 843.672323765633  Z " fill-rule="nonzero" fill="#797979" stroke="none" />
  </g>
</svg>