<?xml version="1.0" encoding="utf-8"?>
<svg version="1.1" xmlns:xlink="http://www.w3.org/1999/xlink" width="42px" height="8px" viewBox="956 830  42 8" xmlns="http://www.w3.org/2000/svg">
  <g transform="matrix(-0.629320391049845 -0.777145961456971 0.777145961456967 -0.629320391049836 943.706290200588 2118.12481047902 )">
    <path d="M 996.726683212743 800.039932183943  C 997.201204041266 798.07460730704  997.611853235722 796.094408044305  997.957983084205 794.102457739587  L 995.987510118207 793.760059885813  C 995.648784225129 795.709401004149  995.246919099245 797.647242443362  994.782548597452 799.570527670088  L 996.726683212743 800.039932183943  Z M 994.491420030382 807.808724352897  C 995.133931955061 805.891734442876  995.714095830181 803.954408512877  996.230996570425 801.999802283169  L 994.297465033173 801.48847480058  C 993.791621155106 803.401270659341  993.223867384109 805.297155855882  992.595099231193 807.173140033894  L 994.491420030382 807.808724352897  Z M 991.593443535115 815.355396830996  C 992.399143475943 813.501072292564  993.144485032829 811.621102121361  993.828292587739 809.718451571121  L 991.946156540414 809.042016874079  C 991.276976099187 810.903968421073  990.547577910589 812.743724737928  989.759112445373 814.558383999728  L 991.593443535115 815.355396830996  Z M 988.035603943536 822.622331221423  C 988.39439912061 821.971975493219  988.74543182088 821.317367393703  989.088627282454 820.658646339344  C 989.672000642154 819.517628719479  990.231854002947 818.364738025323  990.767832482883 817.20070505556  L 988.951161781114 816.364219812813  C 988.427719304106 817.501027210537  987.881007855328 818.626975404585  987.311372572714 819.741353585931  C 986.976647532571 820.383685111397  986.634307133904 821.022019410424  986.284423774576 821.656221488607  L 988.035603943536 822.622331221423  Z M 983.828259417175 829.525141177906  C 984.954164583582 827.845852803403  986.025304553518 826.13048664837  987.03998983114 824.381748338656  L 985.310106532479 823.378003464191  C 984.317126070491 825.089335059291  983.268898520866 826.768008353039  982.167077239972 828.411375594786  L 983.828259417175 829.525141177906  Z M 979.040376226434 836.038719903203  C 980.307129957993 834.462963934766  981.522439589007 832.846534418272  982.684388226606 831.191980928032  L 981.047674240523 830.042560496787  C 979.910580483064 831.661721950448  978.721267160521 833.243574928372  977.48161016211 834.785624393391  L 979.040376226434 836.038719903203  Z M 973.707746058823 842.114375320877  C 975.105878773276 840.653931278382  976.456273052053 839.148521974279  977.756798934935 837.600521872071  L 976.225489471271 836.314018344484  C 974.95278273107 837.828905660333  973.631274314245 839.302113224529  972.2630486197 840.731317364972  L 973.707746058823 842.114375320877  Z M 971.095013755993 844.737549678392  C 971.498217174277 844.348455361992  971.897914741989 843.955744369778  972.294058012704 843.559464301345  L 970.879600332726 842.145494898722  C 969.480794693592 843.544783578802  968.036970081867 844.898332807133  966.550403824279 846.204007647235  L 971.095013755993 844.737549678392  Z M 998.282523434502 792.107095713728  C 998.585505899626 790.108127601347  998.823570616794 788.099857930347  998.99634208947 786.085454319668  L 997.00365791053 785.914545680332  C 996.834582138426 787.885859812977  996.601609789215 789.851171215131  996.305108327305 791.807380025398  L 998.282523434502 792.107095713728  Z M 966.31512105273 837.672333336028  L 966 848  L 976.266984569359 849.161476582867  L 966.31512105273 837.672333336028  Z " fill-rule="nonzero" fill="#797979" stroke="none" />
  </g>
</svg>