<?xml version="1.0" encoding="utf-8"?>
<svg version="1.1" xmlns:xlink="http://www.w3.org/1999/xlink" width="48px" height="8px" viewBox="1074 802  48 8" xmlns="http://www.w3.org/2000/svg">
  <g transform="matrix(-0.342020143325661 -0.939692620785886 0.93969262078591 -0.34202014332566 716.145865018132 2113.45073314339 )">
    <path d="M 1101.88916621065 799.931727091149  C 1102.4598891381 797.995271445448  1102.97624916153 796.043206717263  1103.43763860475 794.077830186067  L 1101.49057213875 793.620739191854  C 1101.03771980369 795.549750278934  1100.53091401136 797.465695871848  1099.97075119409 799.366321197787  L 1101.88916621065 799.931727091149  Z M 1099.31938061104 807.58461669106  C 1100.03303688666 805.69615704151  1100.69364684153 803.788074531682  1101.30043303953 801.862614680732  L 1099.39291137745 801.261481493582  C 1098.79735256984 803.151314480419  1098.14896590857 805.024091659801  1097.44851444486 806.877609061512  L 1099.31938061104 807.58461669106  Z M 1096.18559770779 815.024369507631  C 1097.0382065667 813.194439656133  1097.8393815798 811.340982622587  1098.58817988753 809.466179640397  L 1096.7308431589 808.724357372941  C 1095.99589989756 810.564470797177  1095.20954905922 812.383633237752  1094.37271605767 814.17970382071  L 1096.18559770779 815.024369507631  Z M 1092.50529769874 822.209486702203  C 1093.49210330047 820.448293972241  1094.42937442862 818.659800972767  1095.31600805944 816.846112484526  L 1093.51921646294 815.967739011148  C 1092.64898825125 817.747868745473  1091.72905948997 819.503269184209  1090.76051279354 821.231874491466  L 1092.50529769874 822.209486702203  Z M 1088.26489387557 829.087326010157  C 1089.12199969272 827.816002309965  1089.95195787751 826.526585435092  1090.75420493367 825.219950829187  C 1091.00636537333 824.802076693214  1091.25569267555 824.382499476549  1091.50216968462 823.961248049442  L 1089.775945699 822.951222925267  C 1089.53532428916 823.362466605426  1089.2919351821 823.772084624212  1089.04579494609 824.180049097618  C 1088.25964093992 825.460264451366  1087.44638223786 826.723636484791  1086.60656911825 827.969310357648  L 1088.26489387557 829.087326010157  Z M 1083.50530671937 835.607820420778  C 1084.75561966069 834.022795917358  1085.96128186554 832.40305426369  1087.12087445523 830.750501646184  L 1085.48371753707 829.601712185355  C 1084.34558093754 831.223687552698  1083.16222715087 832.813459058834  1081.93504880217 834.369155787609  L 1083.50530671937 835.607820420778  Z M 1078.2723445846 841.754903025759  C 1079.63746685209 840.267614781165  1080.96065398738 838.742373757  1082.24034880307 837.180974926978  L 1080.69349645508 835.913202150218  C 1079.43747988606 837.445710352413  1078.13877573764 838.942729778152  1076.79891238454 840.40249866618  L 1078.2723445846 841.754903025759  Z M 1072.59519686192 847.494285483062  C 1074.06751382237 846.113029570624  1075.50084516852 844.690796949366  1076.89350409016 843.229261367982  L 1075.44558463341 841.849576894363  C 1074.07869413801 843.284069621787  1072.67188378168 844.679986613398  1071.22680916349 846.035685089948  L 1072.59519686192 847.494285483062  Z M 1067.32785031243 852.123926467119  C 1068.61358204696 851.065771370339  1069.87469020536 849.978046782774  1071.11016494261 848.861623710798  L 1069.76925485187 847.377723401296  C 1068.29911492642 848.706199073287  1066.79204553096 849.993227225038  1065.24982025399 851.237293222692  L 1067.32785031243 852.123926467119  Z M 1103.88062027796 792.108388420596  C 1104.30522637263 790.134738301635  1104.67445621552 788.149579945255  1104.98787528 786.155249577005  L 1103.01212472 785.844750422995  C 1102.70450486157 787.802179613069  1102.3421068939 789.750606501398  1101.92535730355 791.6877380897  L 1103.88062027796 792.108388420596  Z M 1063.04 844.72  L 1062 855  L 1072.16 856.88  L 1063.04 844.72  Z " fill-rule="nonzero" fill="#797979" stroke="none" />
  </g>
</svg>