<?xml version="1.0" encoding="utf-8"?>
<svg version="1.1" xmlns:xlink="http://www.w3.org/1999/xlink" width="368px" height="44px" viewBox="1678 432  368 44" xmlns="http://www.w3.org/2000/svg">
  <g transform="matrix(-0.961261695938318 -0.275637355816999 0.275637355816999 -0.961261695938319 3526.72991829623 1403.64956648725 )">
    <path d="M 2026.98262555062 422.504313134208  C 2028.97934841942 422.556908160876  2030.97585967054 422.617251473235  2032.97211420629 422.685341708236  L 2033.04029254669 420.68650411756  C 2031.03886688429 420.618237500628  2029.03718384129 420.557737874072  2027.03528863266 420.505006604485  L 2026.98262555062 422.504313134208  Z M 2018.9947981231 422.335261820264  C 2020.99195833891 422.367191802345  2022.98898712835 422.40687184509  2024.9858393817 422.454301052191  L 2025.03332995985 420.454864970446  C 2023.03130503146 420.407312902038  2021.02910310961 420.367530071533  2019.026769421 420.335517377564  L 2018.9947981231 422.335261820264  Z M 2011.00564903065 422.24887815711  C 2013.00303272673 422.260139675369  2015.0003652018 422.279152199344  2016.99760133898 422.30591529957  L 2017.02439906934 420.306094837217  C 2015.02198926265 420.279262409467  2013.0194828686 420.260200635174  2011.01692512076 420.248909944914  L 2011.00564903065 422.24887815711  Z M 2003.0160337947 422.245171395177  C 2005.01342708042 422.235763243671  2007.01084935583 422.234106212909  2009.00825550201 422.240200340323  L 2009.01435751492 420.240209648985  C 2007.01177725883 420.234099735255  2005.00918083183 420.235761058413  2003.0066134695 420.245193580932  L 2003.0160337947 422.245171395177  Z M 1995.02680798658 422.324141931406  C 1997.02399697029 422.294065117609  1999.02129515112 422.271738709556  2001.01865741326 422.257163211565  L 2001.0040630553 420.257216461095  C 1999.00152679692 420.271829715668  1996.99905478595 420.294213958372  1994.99669225487 420.324368683584  L 1995.02680798658 422.324141931406  Z M 1987.03882713594 422.485781309202  C 1989.03559794775 422.435039053904  1991.03255815258 422.392045659393  1993.02966264225 422.35680209682  L 1992.99437347625 420.357113452365  C 1990.99209565813 420.392448310373  1988.98996249856 420.435553075599  1986.98801922266 420.486426774371  L 1987.03882713594 422.485781309202  Z M 1979.0529466391 422.730072219345  C 1981.04908545396 422.658669956301  1983.04549383745 422.595014179297  1985.04212669388 422.539106326215  L 1984.98614649879 420.539889925282  C 1982.98434153565 420.595942602878  1980.98276162685 420.659763274733  1978.98145198504 420.731350499235  L 1979.0529466391 422.730072219345  Z M 1971.07002166745 423.056988501839  C 1973.065314728 422.964933877191  1975.06095750392 422.8806225343  1977.05690491681 422.804056377625  L 1976.98023968731 420.805526307152  C 1974.97912194328 420.88229080191  1972.97830962529 420.96682054613  1970.97784792866 421.059113630413  L 1971.07002166745 423.056988501839  Z M 1963.09090707592 423.466495148715  C 1965.08514071534 423.353798020172  1967.07980417944 423.248840139909  1969.07485241192 423.15162387876  L 1968.97751035772 421.153994152188  C 1966.9772941233 421.251462243753  1964.97746365407 421.356692008429  1962.97806412285 421.469681069252  L 1963.09090707592 423.466495148715  Z M 1955.11645731137 423.958548307779  C 1957.10941797631 423.82522074356  1959.1028885292 423.699627565386  1961.09682394069 423.581771610207  L 1960.97881548572 421.585256144564  C 1958.97971495501 421.703417395519  1956.98108048701 421.829335912088  1954.98295722785 421.963008849963  L 1955.11645731137 423.958548307779  Z M 1947.14752632115 424.53309528731  C 1949.13900059457 424.379151564855  1951.1310647646 424.232936537968  1953.12367383369 424.094453509415  L 1952.98501161492 422.099266102406  C 1950.9872408624 422.238107859406  1948.99001642037 422.384701643824  1946.9933834031 422.539044144331  L 1947.14752632115 424.53309528731  Z M 1939.1849674616 425.190074561702  C 1941.17474208564 425.015531166139  1943.16518655178 424.848709948037  1945.15625589907 424.689614675623  L 1944.99695476521 422.69596898274  C 1943.00072772296 422.855476377859  1941.00512718063 423.022729732061  1939.01019821549 423.197725267373  L 1939.1849674616 425.190074561702  Z M 1931.2302058185 425.92924164405  C 1931.96916437131 425.856270028469  1932.7082740334 425.784836832709  1933.44753000033 425.714942521109  C 1934.69654336458 425.595980383498  1935.94584485312 425.480062990659  1937.19542333117 425.367191375746  L 1937.01550034105 423.375300887384  C 1935.76291454418 423.488444146647  1934.51060635217 423.604639954487  1933.25858692259 423.723887275647  C 1932.51679732768 423.794022098154  1931.77515449544 423.865700601098  1931.03366324364 423.938922318849  L 1931.2302058185 425.92924164405  Z M 1923.28993098335 426.773212361747  C 1925.27339356877 426.547410164272  1927.25810435021 426.332710408815  1929.24397008117 426.12912318249  L 1929.04000287869 424.139551022373  C 1927.0467139032 424.34389926579  1925.05458419448 424.559401577412  1923.06370734759 424.786047832418  L 1923.28993098335 426.773212361747  Z M 1915.36313558943 427.735587451405  C 1917.34300748046 427.480209779517  1919.32429311812 427.235914685513  1921.30689941685 427.002713646962  L 1921.07326313078 425.016407002501  C 1919.08324577141 425.250479755742  1917.09455400979 425.495688034456  1915.10728127946 425.752020318166  L 1915.36313558943 427.735587451405  Z M 1907.45158516817 428.816152563673  C 1909.42742538885 428.531256297522  1911.40484459192 428.2574202767  1913.38374987345 427.994657366682  L 1913.1204965415 426.012058647017  C 1911.13419403386 426.275803775172  1909.14938315976 426.550663405848  1907.16615717028 426.836624625495  L 1907.45158516817 428.816152563673  Z M 1899.55704185543 430.014667024793  C 1901.52841032782 429.70031561919  1903.50152266665 429.396999662918  1905.47628617034 429.104733406492  L 1905.1834744268 427.126284194902  C 1903.20132917915 427.419642954135  1901.22084126847 427.724092717431  1899.24210374288 428.039619181001  L 1899.55704185543 430.014667024793  Z M 1891.68126399914 431.330863890205  C 1893.64772164127 430.98712736049  1895.61608764548 430.654399026189  1897.58626953318 430.33269451968  L 1897.26396459587 428.358835475224  C 1895.28641809047 428.681742525881  1893.3106942564 429.015714611837  1891.33688591795 429.360736042274  L 1891.68126399914 431.330863890205  Z M 1883.82600576758 432.764450004003  C 1885.78711459127 432.39140491045  1887.75029584762 432.029338306544  1889.71545730166 431.678267203046  L 1889.3637309574 429.709437962417  C 1887.39122365222 430.061821383568  1885.42070394684 430.42524140673  1883.45226442091 430.799680957578  L 1883.82600576758 432.764450004003  Z M 1875.99301675872 434.315106064226  C 1877.94833996711 433.912835494994  1879.90589921717 433.521511264408  1881.86560253806 433.14115175782  L 1881.4845331267 431.177790837428  C 1879.51750435739 431.559572142875  1877.55262767358 431.952359158881  1875.5899953898 432.356133431391  L 1875.99301675872 434.315106064226  Z M 1868.18404161049 435.982486693983  C 1870.13314369537 435.551080246606  1872.0846449329 435.130585548799  1874.03845363684 434.721022356417  L 1873.62812603379 432.763567054712  C 1871.66701391576 433.174661210481  1869.70821788953 433.596727734074  1867.75182998409 434.029746795787  L 1868.18404161049 435.982486693983  Z M 1860.40081961225 437.766220518371  C 1862.34326645102 437.30577427981  1864.28827501911 436.856202771358  1866.23575393519 436.417527115003  L 1865.79625953252 434.466413415082  C 1863.84150086332 434.906728858368  1861.88922177643 435.357980882863  1859.93951399465 435.820148287653  L 1860.40081961225 437.766220518371  Z M 1852.64508431736 439.665910247199  C 1854.5804432698 439.176526772414  1856.51852595751 438.69797858619  1858.45924132471 438.230288171873  L 1857.99067801081 436.28595064437  C 1856.0427081729 436.75538930393  1854.0973808556 437.235726322161  1852.15478745496 437.726939131707  L 1852.64508431736 439.665910247199  Z M 1844.9185631571 441.681132763468  C 1846.84640316158 441.162921052617  1848.77712830072 440.655502775421  1850.71064786441 440.158901771613  L 1850.21312000215 438.221773477907  C 1848.27237286598 438.720230795877  1846.33443060001 439.229545822634  1844.39938425347 439.749694629324  L 1844.9185631571 441.681132763468  Z M 1837.22536992959 443.8132557185  C 1838.11929886103 443.556853351571  1839.01413662769 443.303630235696  1839.90986626058 443.053591172794  C 1840.93629451234 442.766971661162  1841.96357680865 442.483419456377  1842.99169939485 442.202938355024  L 1842.46531779838 440.273450750788  C 1841.43338008486 440.554972653235  1840.40228575627 440.839576971581  1839.37204861777 441.1272598953  C 1838.47178083767 441.378565977112  1837.57240941523 441.633072144106  1836.67395140422 441.89077357037  L 1837.22536992959 443.8132557185  Z M 1829.5778940507 446.091172371748  C 1831.48391497918 445.502267054128  1833.39439990458 444.927907966403  1835.30918211892 444.368145226869  L 1834.74799533256 442.448491770951  C 1832.82345202261 443.011108045255  1830.90322790818 443.588395076376  1828.987490547 444.180302490565  L 1829.5778940507 446.091172371748  Z M 1821.97832771249 448.524150601903  C 1823.87197738042 447.896602844256  1825.77038596004 447.283507520045  1827.67338779721 446.684918127646  L 1827.07327558226 444.777075018406  C 1825.160572703 445.378715874432  1823.2524864966 445.994936609999  1821.34918346168 446.625683454  L 1821.97832771249 448.524150601903  Z M 1814.42981461479 451.111183962949  C 1816.31030967927 450.445253361909  1818.19585660166 449.793675419308  1820.08629085007 449.156506991521  L 1819.44750145395 447.261263443213  C 1817.54743022996 447.901680001203  1815.65227124642 448.556579530211  1813.76218987391 449.225904884041  L 1814.42981461479 451.111183962949  Z M 1806.93547733834 453.851202281141  C 1808.80203989815 453.147164311093  1810.67394517225 452.457373287271  1812.55102981916 451.78188940048  L 1811.87382748879 449.900029415319  C 1809.98717391935 450.578956755231  1808.1057261259 451.272264166494  1806.2296482826 451.979891151458  L 1806.93547733834 453.851202281141  Z M 1799.49841605304 456.743072097705  C 1801.35027397038 456.001217996857  1803.20776324829 455.273499236501  1805.07072180324 454.559979316995  L 1804.35538667578 452.692281360838  C 1802.4829312097 453.40943863194  1800.61597290168 454.140867126145  1798.75467466156 454.886503019377  L 1799.49841605304 456.743072097705  Z M 1792.12170723553 459.785597137713  C 1793.95809445545 459.006233787605  1795.80039935271 458.240888324912  1797.64846116876 457.489627533276  L 1796.8952891557 455.636864213599  C 1795.03780636847 456.391954750648  1793.1861098474 457.161201759  1791.34036117057 457.944538114552  L 1792.12170723553 459.785597137713  Z M 1784.80840239657 462.977518804944  C 1786.62855926385 462.160968603503  1788.45491767729 461.358313037644  1790.28731826981 460.569622146669  L 1789.49662093454 458.732559892962  C 1787.65487920795 459.525271338929  1785.81921046203 460.332018648298  1783.98977487623 461.152731424743  L 1784.80840239657 462.977518804944  Z M 1777.56152681868 466.317516702525  C 1779.36470039209 465.464117430701  1781.17435681508 464.624483794855  1782.990338178 463.798689060976  L 1782.16244260696 461.978087807694  C 1780.33720381124 462.808092242957  1778.51832219844 463.652006127561  1776.70595648324 464.509755822013  L 1777.56152681868 466.317516702525  Z M 1770.3840783047 469.804209179136  C 1772.16952266845 468.914313861173  1773.96172850347 468.038049485175  1775.76053942283 467.175492513513  L 1774.89578809019 465.372105385718  C 1773.08780726879 466.239059463742  1771.28646520283 467.119790823132  1769.4919190765 468.01422261172  L 1770.3840783047 469.804209179136  Z M 1763.2790259377 473.43615390056  C 1765.04600251001 472.510130657963  1766.82001637831 471.597598024615  1768.60091274301 470.698635627668  L 1767.699663369 468.913208629484  C 1765.9096884263 469.816753718831  1764.12663106533 470.733938222345  1762.35064687475 471.664682106974  L 1763.2790259377 473.43615390056  Z M 1756.2578106738 477.219866900924  C 1757.61184562233 476.468364069859  1758.97124286838 475.72656374618  1760.33589792251 474.994522948027  C 1760.7283821137 474.784567241436  1761.12122332476 474.575279619305  1761.51441984926 474.366660990749  L 1760.5770452522 472.599932696762  C 1760.18150379754 472.809795476992  1759.78632008351 473.020331820241  1759.39149582974 473.231540810379  C 1758.01808735243 473.968270932658  1756.64997167806 474.714825610774  1755.28725401829 475.47114743273  L 1756.2578106738 477.219866900924  Z M 1749.33268444185 481.175468202345  C 1751.05173844519 480.165334832646  1752.78006613298 479.171067086238  1754.51744728414 478.192791651317  L 1753.53616403324 476.450068729713  C 1751.78807466748 477.434373689753  1750.0490945654 478.434769528665  1748.31944530542 479.451128777404  L 1749.33268444185 481.175468202345  Z M 1742.50686053392 485.300063086949  C 1744.20057083712 484.247988232269  1745.90394192911 483.211546303916  1747.61675676878 482.190869363842  L 1746.59294164461 480.472788285571  C 1744.8695700029 481.499756089168  1743.15570031467 482.54258604734  1741.45155095878 483.601145284164  L 1742.50686053392 485.300063086949  Z M 1735.78446205598 489.591160113111  C 1737.45180558149 488.497779274193  1739.12919116462 487.419789221624  1740.81640507526 486.357327311381  L 1739.7506765084 484.664925875024  C 1738.05306358508 485.733936187228  1736.36533956539 486.818570348271  1734.68771949678 487.918690155579  L 1735.78446205598 489.591160113111  Z M 1729.16954964036 494.046167264391  C 1730.80951923739 492.912140892648  1732.45990609499 491.793253870557  1734.12049992318 490.689648765128  L 1733.01350166184 489.023949257601  C 1731.34267289178 490.134356347901  1729.68211400219 491.260139543775  1728.03203657916 492.401155399515  L 1729.16954964036 494.046167264391  Z M 1722.66611899299 498.662393515231  C 1724.27772404582 497.488406613814  1725.90011526965 496.329298480512  1727.53308594173 495.185216807228  L 1726.38548666285 493.547225386276  C 1724.7424513021 494.698358518628  1723.1100605952 495.864610725434  1721.48852253904 497.045833404485  L 1722.66611899299 498.662393515231  Z M 1716.27809847973 503.437050456454  C 1717.8603655061 502.223812166488  1719.45378109861 501.02518307563  1721.05814222651 499.841315911511  L 1719.8706351319 498.232021997942  C 1718.25638564805 499.423185835935  1716.65314916154 500.629202584661  1715.0611299545 501.849918575166  L 1716.27809847973 503.437050456454  Z M 1710.00934675353 508.367253979586  C 1711.56131999269 507.1154971518  1713.12479745888 505.878071129509  1714.69957993601 504.655133583794  L 1713.47288233359 503.075509263827  C 1711.88839380624 504.305984290697  1710.31527996739 505.551037092747  1708.75374126098 506.810509027107  L 1710.00934675353 508.367253979586  Z M 1703.86365042361 513.450026018996  C 1705.38439241362 512.160506771058  1706.91698734247 510.885031278548  1708.46123992907 509.623762060756  L 1707.19609279962 508.074761498835  C 1705.6423223314 509.343804452086  1704.10028137204 510.627141239319  1702.57016640617 511.924608339597  L 1703.86365042361 513.450026018996  Z M 1697.84472176816 518.682296350774  C 1699.33331391216 517.355793610559  1700.8341005471 516.043039092642  1702.34689044486 514.744200066356  L 1701.04405799439 513.22675892879  C 1699.52194413287 514.533603249146  1698.01190751537 515.854448828189  1696.5141405486 517.18912736564  L 1697.84472176816 518.682296350774  Z M 1691.9630589583 524.065133233242  C 1692.86943024233 523.212911278261  1693.78076184084 522.365980241151  1694.69700730016 521.524383292872  C 1695.24966751104 521.01878895978  1695.80407667654 520.515109717842  1696.36022482667 520.01335462474  L 1695.02049402482 518.528389514522  C 1694.4604218243 519.033684873407  1693.9021024329 519.540919674663  1693.34554590876 520.050084780448  C 1692.42307856683 520.897386113648  1691.50556103784 521.750060621218  1690.59304014082 522.608064792931  L 1691.9630589583 524.065133233242  Z M 1686.22158105234 529.599946860664  C 1687.63965081503 528.198425468934  1689.07078303247 526.810182654873  1690.51479035314 525.435400155295  L 1689.13572334301 523.98689258487  C 1687.68269445247 525.370264165822  1686.24262110354 526.767180155832  1684.81569181829 528.177457682648  L 1686.22158105234 529.599946860664  Z M 1680.61975679369 535.276063086576  C 1682.00247466715 533.839652509575  1683.39858171108 532.416191004485  1684.80789515915 531.005864918647  L 1683.39317379116 529.592159344302  C 1681.9750555264 531.01129657337  1680.57022617401 532.443651286454  1679.17886964219 533.889035971966  L 1680.61975679369 535.276063086576  Z M 1675.16106269151 541.089959295984  C 1676.50757055683 539.619550974485  1677.86778599898 538.161754182905  1679.24153095023 536.716759763468  L 1677.79203320475 535.338733535181  C 1676.4097056543 536.792755691484  1675.04099213982 538.25966020395  1673.68607184152 539.739255038027  L 1675.16106269151 541.089959295984  Z M 1669.84888642797 547.038027367218  C 1671.15834863827 545.534533841103  1672.4818283248 544.043306476147  1673.81915222894 542.564540491045  L 1672.33577766869 541.223048816086  C 1670.99009870922 542.711053529051  1669.65835046041 544.211597475496  1668.3407072633 545.724484217085  L 1669.84888642797 547.038027367218  Z M 1664.68652475582 553.116575911142  C 1665.95812865488 551.580930253056  1667.24405123025 550.057197774981  1668.54412414001 548.545577950873  L 1667.02779335174 547.241453363055  C 1665.71959811572 548.762517172428  1664.42564161958 550.295769310725  1663.14609325704 551.841009057706  L 1664.68652475582 553.116575911142  Z M 1659.67718145241 559.321832562041  C 1660.91013787897 557.75498779836  1662.15770529575 556.199695840156  1663.4197203819 554.656160292913  L 1661.87137440512 553.390212135922  C 1660.60147476248 554.943391064885  1659.34611305238 556.508399854075  1658.105453616 558.085033625971  L 1659.67718145241 559.321832562041  Z M 1654.82396533143 565.649946318764  C 1656.017509109 564.052874838109  1657.22594712303 562.466988618707  1658.44912117518 560.892495271179  L 1656.86972091812 559.665509196291  C 1655.63890497243 561.249839337277  1654.42291712966 562.845633528144  1653.22191657647 564.452682861241  L 1654.82396533143 565.649946318764  Z M 1650.12988831357 572.096989934666  C 1651.28327872524 570.470682884455  1652.45183737622 568.855186609666  1653.63541128884 567.250712597213  L 1652.02593693209 566.063450075719  C 1650.83496853149 567.677948188614  1649.65910920179 569.30353742645  1648.49851287638 570.940004981035  L 1650.12988831357 572.096989934666  Z M 1645.59786355731 578.658962354871  C 1646.71038480547 577.004429026206  1647.83833888235 575.360325277931  1648.98157812588 573.726866342006  L 1647.34302851412 572.580064192637  C 1646.19264677721 574.223728315017  1645.05764570247 575.878103754166  1643.93817387445 577.542973933512  L 1645.59786355731 578.658962354871  Z M 1641.23214122557 585.332944636698  C 1641.80173547492 584.43888174015  1642.37508416825 583.547216293116  1642.95217211961 582.657971912613  C 1643.46153469828 581.875387258341  1643.97431885626 581.095034946665  1644.4905098693 580.316937384846  L 1642.8239018914 579.211307316505  C 1642.30423871405 579.99463875981  1641.78800694163 580.78024119805  1641.27522141138 581.568092051911  C 1640.69483693234 582.462409203103  1640.1182146206 583.359162270493  1639.54536976169 584.258327482254  L 1641.23214122557 585.332944636698  Z M 1637.01626150166 592.106944923188  C 1638.05234383291 590.402387096139  1639.10188793498 588.706048231237  1640.16479538329 587.018087408469  L 1638.47238273369 585.95237664871  C 1637.40385755766 587.649258760265  1636.34876635646 589.354563193949  1635.30720807485 591.06813002904  L 1637.01626150166 592.106944923188  Z M 1632.94413991644 598.968325799007  C 1633.94405355075 597.242302419443  1634.95759924968 595.524212351094  1635.9846819645 593.814216713738  L 1634.27017638571 592.784425171591  C 1633.23766528571 594.503458557157  1632.21876274808 596.230629154757  1631.21356432388 597.965774993096  L 1632.94413991644 598.968325799007  Z M 1629.01758682086 605.914036886825  C 1629.9808872247 604.16731529629  1630.95798392651 602.428237839108  1631.94878529572 600.696967603224  L 1630.21294900878 599.703553095101  C 1629.21691101025 601.44397352069  1628.23465011167 603.192242430642  1627.26625842788 604.948195875097  L 1629.01758682086 605.914036886825  Z M 1625.2383478502 612.940990318471  C 1626.16460676726 611.174347060339  1627.10482008218 609.415055359366  1628.05889962329 607.663280199088  L 1626.30250433229 606.706684369194  C 1625.34338224578 608.467718092729  1624.39819967185 610.236308083777  1623.46704524824 612.012288486727  L 1625.2383478502 612.940990318471  Z M 1621.60810314803 620.046062107704  C 1622.49690878957 618.260282581998  1623.39982072518 616.481558768893  1624.3167542812 614.710057474307  L 1622.54058083019 613.790705598293  C 1621.61880105444 615.57156971364  1620.71111700682 617.359694520273  1619.8176138085 619.154912330708  L 1621.60810314803 620.046062107704  Z M 1618.12846661921 627.226093539058  C 1618.97942384722 625.421971653214  1619.8446329942 623.624606498676  1620.72401292222 621.834166629517  L 1618.92885094805 620.95246742542  C 1618.04482328048 622.752370210372  1617.17504129001 624.55923488252  1616.31958654342 626.372891996985  L 1618.12846661921 627.226093539058  Z M 1614.80098521249 634.47789257211  C 1615.61371571526 632.656230388075  1616.44083742592 630.841022950197  1617.28227277831 629.032440485771  L 1615.4689203596 628.188785932307  C 1614.62303781409 630.006927200611  1613.79154456143 631.831728456962  1612.97451857774 633.663018574416  L 1614.80098521249 634.47789257211  Z M 1611.62713823269 641.798235260581  C 1612.40128069305 639.959842638224  1613.18994725229 638.127599907277  1613.99306395051 636.301678892578  L 1612.16232725285 635.496444054879  C 1611.35496588503 637.332015511966  1610.56213102874 639.173942097106  1609.78389703476 641.022051077369  L 1611.62713823269 641.798235260581  Z M 1608.60833668307 649.183867185602  C 1609.34354693903 647.329561422678  1610.09340772784 645.481097962347  1610.85784872874 643.638650150601  L 1609.01054164627 642.872193013471  C 1608.24206038635 644.724378615799  1607.48823639855 646.582611660874  1606.74914037527 648.446717886573  L 1608.60833668307 649.183867185602  Z M 1605.74592263807 656.631504902546  C 1606.44187383577 654.762110371344  1607.1525954871 652.898247956594  1607.87802094168 651.040092448378  L 1606.01496473527 650.312753757146  C 1605.28570522845 652.180730074977  1604.57122723811 654.054443461761  1603.87159776689 655.933718203584  L 1605.74592263807 656.631504902546  Z M 1603.02842495345 664.137597611564  C 1603.69287399679 662.255346006262  1604.36838120489 660.377016301348  1605.0549115691 658.502705842573  L 1603.17692690985 657.814829676667  C 1602.48770098112 659.696499350762  1601.80954148936 661.582204052009  1601.14248358069 663.471846052421  L 1603.02842495345 664.137597611564  Z M 1600.42975120637 671.687103596142  C 1601.06461617411 669.794668627751  1601.71059942012 667.905981752054  1602.36766746585 666.021140851571  L 1600.47913172213 665.362784758964  C 1599.8194837915 667.255026221059  1599.17096418351 669.151128759058  1598.53360650812 671.050994106096  L 1600.42975120637 671.687103596142  Z M 1597.94972780936 679.27641382865  C 1598.55485272152 677.37426044957  1599.17115329379 675.475680434622  1599.79859758598 673.580772179044  L 1597.89997475218 672.952097911263  C 1597.27006688859 674.8544462565  1596.65134649915 676.760480777765  1596.04384564948 678.670102693459  L 1597.94972780936 679.27641382865  Z M 1595.58896407945 686.903663691248  C 1596.16420026286 684.992259241595  1596.7506667425 683.084252549572  1597.34833312434 681.179742498962  L 1595.44008967316 680.580904515004  C 1594.84007663868 682.492892355367  1594.25130748122 684.408390566222  1593.67381271417 686.327299875511  L 1595.58896407945 686.903663691248  Z M 1593.34804003274 694.566979244703  C 1593.89324615761 692.646793337503  1594.44973445566 690.729828746598  1595.01747608647 688.816184820094  L 1593.1000808543 688.247330248481  C 1592.53011006615 690.168487827623  1591.97143679539 692.092979109261  1591.42408999566 694.020704355263  L 1593.34804003274 694.566979244703  Z M 1591.22750624192 702.264477688806  C 1591.74254835654 700.335982094562  1592.26892174937 698.410530583908  1592.80659914071 696.488222944715  L 1590.88052321243 695.949491547343  C 1590.34073470674 697.879346856005  1589.81229458313 699.812358380109  1589.29523022837 701.748425939955  L 1591.22750624192 702.264477688806  Z M 1589.227883701 709.994267824948  C 1589.71263526467 708.05793635581  1590.20876442757 706.124470989616  1590.71624547746 704.193971929565  L 1588.78196207073 703.685496067365  C 1588.27248846816 705.623574959356  1587.77441132417 707.564631804246  1587.28775645194 709.508566005455  L 1589.227883701 709.994267824948  Z M 1587.34966369729 717.754450520777  C 1587.80400561138 715.810758914076  1588.26976865038 713.869754725504  1588.74692867579 711.931538548962  L 1586.80491302474 711.453443149382  C 1586.32587949788 713.399269458033  1585.85828770609 715.347894725423  1585.40216188263 717.299217962736  L 1587.34966369729 717.754450520777  Z M 1585.59330769073 725.543119176791  C 1586.01712832796 723.592544978173  1586.45241080972 721.644478852594  1586.89913257718 719.699021759947  L 1584.9498618157 719.251424286261  C 1584.50138605831 721.204519941438  1584.06439450135 723.160234873558  1583.63890979225 725.118467726301  L 1585.59330769073 725.543119176791  Z M 1583.95924720047 733.358360194772  C 1584.35244243233 731.401382640851  1584.75713741228 729.446733198713  1585.17331116672 727.494513169355  L 1583.2172642112 727.077523591798  C 1582.79945640928 729.037408737402  1582.39317245165 730.999732834544  1581.99843339423 732.964394184459  L 1583.95924720047 733.358360194772  Z M 1582.44788369887 741.198253447935  C 1582.81035692122 739.235353348621  1583.18436496985 737.274600827722  1583.56988846151 735.316097502685  L 1581.60754589317 734.929818271438  C 1581.22050869796 736.896011383206  1580.84503215955 738.864462521961  1580.48113573728 740.83506967132  L 1582.44788369887 741.198253447935  Z M 1581.05934065343 749.061593731821  C 1581.06923539891 749.003139035188  1581.07913725094 748.944685539608  1581.08904620859 748.886233250474  C 1581.41156328682 746.976220253809  1581.74497277689 745.068062485618  1582.08925840653 743.161853074664  L 1580.12110235338 742.806379094682  C 1579.77550331698 744.719860456915  1579.4408206986 746.635297393551  1579.11707082897 748.552596441559  C 1579.10717090306 748.610995765892  1579.09727805002 748.669396294421  1579.08739227184 748.727798015333  L 1581.05934065343 749.061593731821  Z M 1579.76901997438 756.945743517849  C 1580.08083430294 754.972961419781  1580.4007267835 753.001464618653  1580.7286893679 751.03130271536  L 1578.755836973 750.70289225885  C 1578.42697772632 752.678440660364  1578.10621064741 754.655327609548  1577.79354380652 756.63350336955  L 1579.76901997438 756.945743517849  Z M 1578.56487909938 764.843514726009  C 1578.85513006561 762.867444950278  1579.15347273883 760.892572173284  1579.45989961304 758.918946080856  L 1577.48357829824 758.612100744116  C 1577.17631364119 760.591122806042  1576.87715528765 762.571394961037  1576.58611076414 764.55286738739  L 1578.56487909938 764.843514726009  Z M 1577.44706164865 772.753965373736  C 1577.71571463375 770.774843610037  1577.99247191571 768.796830404101  1578.27732653161 766.819975520769  L 1576.29777201661 766.53473190184  C 1576.01213859726 768.516991582308  1575.73462465026 770.500412752299  1575.46523715759 772.484945510873  L 1577.44706164865 772.753965373736  Z M 1576.41570094646 780.676151966166  C 1576.66272390766 778.694214268207  1576.91786278899 776.71329655482  1577.18111117141 774.733448663919  L 1575.19855956153 774.469840784363  C 1574.93459144793 776.455101655398  1574.6787550071 778.441435273875  1574.43105667564 780.42879166558  L 1576.41570094646 780.676151966166  Z M 1575.47092000521 788.609129608661  C 1575.69628347961 786.624612366015  1575.92977352939 784.641026413094  1576.17138428018 782.65842165494  L 1574.18607203822 782.416480955784  C 1573.94380071436 784.404506231452  1573.70967229381 786.393515384532  1573.48369266703 788.383458373499  L 1575.47092000521 788.609129608661  Z M 1574.61283151076 796.551952119519  C 1574.81650861881 794.565092029426  1575.02832198824 792.579074423131  1575.24826629002 790.593949266859  L 1573.26043020803 790.37370460484  C 1573.03988457009 792.364257169441  1572.82749209477 794.355704624231  1572.6232581257 796.347996866029  L 1574.61283151076 796.551952119519  Z M 1573.84153780901 804.503672142818  C 1574.02350425775 802.514706181951  1574.21361568342 800.526493798475  1574.411867303 798.53908501383  L 1572.42174447407 798.34056265796  C 1572.22295082695 800.333405094512  1572.03231962934 802.327053326986  1571.84985567735 804.321457197139  L 1573.84153780901 804.503672142818  Z M 1573.15713089365 812.463341261411  C 1573.31736497958 810.472506657619  1573.48575178654 808.482336634928  1573.66228707807 806.49288126403  L 1571.67011486803 806.316104892455  C 1571.49309692223 808.310999510706  1571.32424973928 810.306610734656  1571.16357756721 812.302888356677  L 1573.15713089365 812.463341261411  Z M 1572.55969239523 820.430010110052  C 1572.69817500693 818.437544314057  1572.84481711134 816.445654023607  1572.99961501911 814.454389352675  L 1571.00563103822 814.299380049859  C 1570.85040990703 816.29608891484  1570.70336687747 818.293425109826  1570.564505649 820.291338383792  L 1572.55969239523 820.430010110052  Z M 1572.0492935714 828.402728488618  C 1572.16600819177 826.408869145699  1572.29088810337 824.415496164128  1572.42393016432 822.422659695181  L 1570.42837223894 822.289435949385  C 1570.29496643588 824.287720909737  1570.16974509782 826.286543849579  1570.05271137519 828.285854480479  L 1572.0492935714 828.402728488618  Z M 1571.62599529843 836.38054547545  C 1571.7209280067 834.385530397098  1571.82403083079 832.390912477886  1571.93530117675 830.396741900413  L 1569.93840732096 830.285319601493  C 1569.82683275761 832.284942317824  1569.72344804643 834.285013599116  1569.6282557885 836.285483125224  L 1571.62599529843 836.38054547545  Z M 1571.28984806393 844.362509540768  C 1571.36298753728 842.366576676319  1571.4443009766 840.370951721433  1571.53378633614 838.375684884045  L 1569.53579472336 838.286077321556  C 1569.44606470742 840.286799295069  1569.36452895403 842.287880365207  1569.29118951455 844.289270186726  L 1571.28984806393 844.362509540768  Z M 1571.16480198363 848.025701134826  C 1571.18237889657 847.469959168763  1571.20058942451 846.914237423177  1571.21943353193 846.358536981997  L 1569.22058246652 846.290754843607  C 1569.15270770027 848.292337444243  1569.09303062959 850.29418963049  1569.04155275591 852.296261037703  L 1571.16480198363 848.025701134826  Z M 2034.96827593333 422.75601399601  C 2036.96434763508 422.829268435101  2038.96012755085 422.910268555192  2040.95557059912 422.999012526617  L 2041.04442940088 421.000987473383  C 2039.04381732793 420.912013618284  2037.04286751495 420.830803674309  2035.04162516005 420.757359475854  L 2034.96827593333 422.75601399601  Z M 1562.59779134041 846.79116465995  L 1570 854  L 1577.79190172386 847.214259986877  L 1562.59779134041 846.79116465995  Z " fill-rule="nonzero" fill="#aaaaaa" stroke="none" />
  </g>
</svg>