<?xml version="1.0" encoding="utf-8"?>
<svg version="1.1" xmlns:xlink="http://www.w3.org/1999/xlink" width="218px" height="36px" viewBox="1582 750  218 36" xmlns="http://www.w3.org/2000/svg">
  <g transform="matrix(0.500000000000003 -0.866025403784443 0.866025403784437 0.500000000000003 180.392489893548 1848.44895779949 )">
    <path d="M 1825.19831428077 534.729237655543  C 1827.06762162401 534.026355874525  1828.93999561412 533.331656972525  1830.81538247701 532.645160901108  L 1830.12788474293 530.76703767149  C 1828.24701915329 531.45553926212  1826.36917523816 532.152267646975  1824.49440692878 532.85720281617  L 1825.19831428077 534.729237655543  Z M 1817.73766944545 537.58431993751  C 1819.59864814686 536.859674496974  1821.46278876609 536.143175596056  1823.33003776552 535.434843812409  L 1822.62067245884 533.56487032017  C 1820.74796850649 534.275271413548  1818.87838201508 534.993863483509  1817.01196667871 535.720625892247  L 1817.73766944545 537.58431993751  Z M 1810.31084626008 540.526260380273  C 1812.16324294324 539.779949942318  1814.01889638467 539.041748595409  1815.8777532905 538.31167754049  L 1815.1466169929 536.450108386705  C 1813.28232965069 537.182312260134  1811.42125513139 537.922670177282  1809.56344688464 538.671160875234  L 1810.31084626008 540.526260380273  Z M 1802.91885590325 543.554658432058  C 1804.76241836021 542.78678460852  1806.60933197247 542.026981323386  1808.45954369718 541.275270398002  L 1807.70673595449 539.422359039477  C 1805.85111904931 540.17626600176  1803.99880989158 540.938288964708  1802.14986167921 541.708406043191  L 1802.91885590325 543.554658432058  Z M 1795.56270481098 546.669101769694  C 1797.39718203657 545.879769108322  1799.23510435829 545.09846733386  1801.07641899139 544.325218885146  L 1800.30204230008 542.481217599909  C 1798.45534847829 543.256725004936  1796.61205687821 544.040309262533  1794.77222043863 544.831947868394  L 1795.56270481098 546.669101769694  Z M 1788.24339453972 549.86916635475  C 1790.06853676581 549.058482324921  1791.89721755962 548.255788437179  1793.72938440207 547.461107744611  L 1792.93354419526 545.626267597563  C 1791.0960248884 546.423269858245  1789.26200181416 547.228308723781  1787.43152764526 548.041361073631  L 1788.24339453972 549.86916635475  Z M 1780.96192162993 553.154416491273  C 1782.77748035927 552.322491469464  1784.59667064632 551.498514756947  1786.41944024443 550.68251001811  L 1785.60224487753 548.857080826843  C 1783.77415026794 549.675469429561  1781.94964542597 550.50185329515  1780.12878275087 551.336208690115  L 1780.96192162993 553.154416491273  Z M 1773.71927747044 556.524404885106  C 1775.52500551069 555.671352139748  1777.33445760406 554.826204788772  1779.14758178372 553.988987104517  L 1778.30914251972 552.1732174053  C 1776.4907215066 553.012880924592  1774.67598330723 553.860497276266  1772.86498004049 554.716042116968  L 1773.71927747044 556.524404885106  Z M 1766.51644816346 559.978672704788  C 1768.31209966065 559.104608380943  1770.11156719949 558.238405460168  1771.91479909974 557.380088819577  L 1771.05523009402 555.574225833517  C 1769.24673025945 556.435049947327  1767.44200578339 557.303783380201  1765.64110849714 558.180401182308  L 1766.51644816346 559.978672704788  Z M 1759.35912636857 563.517483071188  C 1760.91860830694 562.728190581683  1762.48372864304 561.950088154359  1764.05436672206 561.183235772971  C 1764.2768774047 561.073820757153  1764.49944751408 560.964526635828  1764.72207695204 560.855353457203  L 1763.84149523685 559.059643056587  C 1763.61905636608 559.168722784744  1763.39667654948 559.277922897127  1763.17435588498 559.387243345643  C 1761.5959769029 560.157890120953  1760.02313999529 560.939836360155  1758.4559662825 561.733021847476  L 1759.35912636857 563.517483071188  Z M 1752.28060768756 567.1976290712  C 1754.0401413943 566.258321019849  1755.80733005546 565.333423272959  1757.58199626728 564.42302867877  L 1756.66911737091 562.643519723868  C 1754.88474582339 563.558893105116  1753.1078927199 564.488848954249  1751.33873643444 565.433293915243  L 1752.28060768756 567.1976290712  Z M 1745.28405172306 571.031309539677  C 1747.02267676515 570.05384268934  1748.76926928523 569.090615730026  1750.52365394713 568.141725357752  L 1749.57217422466 566.382553297452  C 1747.80819514327 567.336632983388  1746.05205081751 568.30512766063  1744.3039175425 569.287940104334  L 1745.28405172306 571.031309539677  Z M 1738.3727881589 575.016700015569  C 1740.089677119 574.001539545912  1741.81484228892 573.000441777028  1743.5481104835 572.013507206696  L 1742.55848274724 570.275509236723  C 1740.81573561538 571.26784117771  1739.08113582218 572.274413773283  1737.35485749994 573.295125976047  L 1738.3727881589 575.016700015569  Z M 1731.55010608795 579.15190383854  C 1733.24444189301 578.099532867743  1734.94735870102 577.061040714986  1736.65868556031 576.036531631978  L 1735.63138077733 574.32053487124  C 1733.91069497405 575.350646813269  1732.19846521511 576.394818295988  1730.49486338713 577.452944497542  L 1731.55010608795 579.15190383854  Z M 1724.81925244689 583.43495305159  C 1726.49022875697 582.345872406434  1728.17008677941 581.27048009161  1729.85865787736 580.208884063144  L 1728.79416494535 578.515705160101  C 1727.09635935065 579.583106869534  1725.4073144817 580.664380314783  1723.72719989765 581.759416949415  L 1724.81925244689 583.43495305159  Z M 1718.18343047095 587.863809337618  C 1719.83025206296 586.738537315137  1721.48625184992 585.626756620959  1723.15126359003 584.528578864049  L 1722.05008910466 582.859023608069  C 1720.37597170975 583.96320710495  1718.71091555276 585.081067931165  1717.05508778466 586.212493867365  L 1718.18343047095 587.863809337618  Z M 1711.64579816946 592.436364989459  C 1713.26768131562 591.275437110283  1714.89903477139 590.127797136812  1716.53969476915 588.993560277839  L 1715.40236278295 587.348423215717  C 1713.75273030577 588.488863015514  1712.1124552664 589.642779229081  1710.48170232809 590.810056017552  L 1711.64579816946 592.436364989459  Z M 1705.21487402783 597.148841887447  C 1706.18389368877 596.414761398376  1707.16002427335 595.690115185562  1708.14312750981 594.975005897268  C 1708.76965691587 594.515237859235  1709.39765023006 594.057468036474  1710.0270978819 593.601703405281  L 1708.85414965488 591.981767463116  C 1708.22239061551 592.439205702397  1707.59208864291 592.89865290227  1706.96325330862 593.360102085741  C 1705.97081971408 594.08203188303  1704.98541722634 594.81357816614  1704.00718511267 595.554637545397  L 1705.21487402783 597.148841887447  Z M 1698.97563479193 602.087027003274  C 1700.50906573679 600.819564724056  1702.06255666105 599.576569337005  1703.63551828111 598.358512345858  L 1702.41099574609 596.777201319772  C 1700.82126865818 598.008241015043  1699.2512197952 599.264484913006  1697.70144472162 600.545456484383  L 1698.97563479193 602.087027003274  Z M 1692.95136167131 607.285287467034  C 1694.42967931639 605.953954288544  1695.92907618951 604.646215552853  1697.44898352652 603.36256732269  L 1696.15852158895 601.834592196039  C 1694.62241426507 603.131922236899  1693.10703601661 604.453599552805  1691.61296166989 605.799122793724  L 1692.95136167131 607.285287467034  Z M 1687.1528873979 612.734275866857  C 1688.57343346087 611.341465766783  1690.01604009627 609.971335233061  1691.48016008212 608.624403995414  L 1690.1260792258 607.152512343648  C 1688.64635386457 608.513799896197  1687.18837115461 609.898534015351  1685.75268415048 611.306189431827  L 1687.1528873979 612.734275866857  Z M 1681.59063867646 618.424193936725  C 1682.95085875876 616.972411439368  1684.33408108897 615.542352849962  1685.73978097128 614.134560630646  L 1684.32451607834 612.72139918099  C 1682.90383349341 614.144196404163  1681.50586803839 615.589497324336  1680.13115000156 617.056753697505  L 1681.59063867646 618.424193936725  Z M 1676.27461743556 624.344810175529  C 1677.57206561561 622.836665848222  1678.89341635687 621.349250706948  1680.2381684332 619.883128970824  L 1678.76426440571 618.531238842987  C 1677.40517924115 620.012987290211  1676.06974483562 621.516256099123  1674.75846775761 623.040475036825  L 1676.27461743556 624.344810175529  Z M 1671.21438284222 630.485478245153  C 1672.4467260737 628.923684003993  1673.70382919856 627.3815869521  1674.9852153616 625.859772051051  L 1673.4553225454 624.571584187829  C 1672.16027868199 626.109619407584  1670.88977667839 627.668152956199  1669.64429847238 629.246593637295  L 1671.21438284222 630.485478245153  Z M 1666.50668708371 636.866089658295  C 1667.62413887664 635.229530057148  1668.78668117024 633.624218303099  1669.99297812227 632.051999011412  L 1668.40621814692 630.834545611632  C 1667.17745281012 632.436048926574  1665.99325710229 634.071261081282  1664.85499174699 635.738303102835  L 1666.50668708371 636.866089658295  Z M 1662.28270732757 643.570853858417  C 1663.27642114259 641.856339731484  1664.31740717237 640.169662969941  1665.40446925128 638.512761683133  L 1663.73224409864 637.415645901226  C 1662.6249344936 639.103408490955  1661.56455914628 640.821501150885  1660.55233650197 642.567949672615  L 1662.28270732757 643.570853858417  Z M 1658.56470120084 650.568874893042  C 1659.42926491508 648.785744100968  1660.34302509666 647.026888580281  1661.30493177135 645.294329378745  L 1659.55634898112 644.323526501894  C 1658.57652591425 646.088356204257  1657.64574611298 647.879972018781  1656.76507910828 649.696315253841  L 1658.56470120084 650.568874893042  Z M 1655.37291830225 657.822039022424  C 1656.10362319074 655.980003136898  1656.8851808575 654.15854821689  1657.71669323822 652.359767241243  L 1655.90127622123 651.520564611113  C 1655.05427616139 653.352849528736  1654.25816126778 655.208230713691  1653.51384633197 657.084576203478  L 1655.37291830225 657.822039022424  Z M 1652.72474222955 665.290842905743  C 1653.31760861064 663.399934316778  1653.9627071184 661.525800296126  1654.65929648962 659.670594354583  L 1652.78693265995 658.96756257056  C 1652.07736867414 660.857323420711  1651.42025461626 662.766364902773  1650.81634555622 664.692493394831  L 1652.72474222955 665.290842905743  Z M 1650.67361724011 672.929547250304  C 1650.89050998536 671.940686110002  1651.12344507488 670.955411951837  1651.37233039846 669.974114385629  C 1651.61882191869 669.04162621273  1651.87786636679 668.11250152912  1652.149393208 667.186993324594  L 1650.23028013256 666.623961350655  C 1649.95275472854 667.569915854606  1649.68803093316 668.51957916376  1649.43618131894 669.472690933302  C 1649.1810447374 670.478192157478  1648.94230477677 671.487782865477  1648.72005645487 672.501061243059  L 1650.67361724011 672.929547250304  Z M 1649.30682350916 680.723612514544  C 1649.5658813352 678.76163462926  1649.8871501362 676.808373954868  1650.27014462619 674.866780949056  L 1648.30795537035 674.479723686773  C 1647.91677034504 676.462838663582  1647.58863104451 678.457870828103  1647.32403313282 680.461806625579  L 1649.30682350916 680.723612514544  Z M 1648.60380184141 688.605321655388  C 1648.69607448228 686.628467098443  1648.85107232763 684.65503947814  1649.06856124865 682.688019714944  L 1647.0806755106 682.468223690332  C 1646.85853547647 684.477309188888  1646.700222922 686.492939579892  1646.60597698296 688.51207019435  L 1648.60380184141 688.605321655388  Z M 1648.56958527983 696.5182482741  C 1648.49441214116 694.540669659027  1648.48202937684 692.561203172373  1648.53245569141 690.582838856488  L 1646.53310505863 690.531877623951  C 1646.48160035124 692.552550284326  1646.49424792738 694.57434868596  1646.57102868252 696.594218842904  L 1648.56958527983 696.5182482741  Z M 1649.2044187862 704.405742481095  C 1648.96233804433 702.441597605076  1648.7826633205 700.470263564827  1648.66566601869 698.494718118389  L 1646.66916415768 698.612956517428  C 1646.78866350733 700.630750025371  1646.97218066809 702.644242064032  1647.21943843188 704.650391194459  L 1649.2044187862 704.405742481095  Z M 1650.50626346422 712.209966067014  C 1650.43521328441 711.873499353368  1650.36541293187 711.536769931205  1650.29686385067 711.199784766978  C 1649.97813076794 709.596389427251  1649.70149394168 707.984912450904  1649.46723855674 706.367015109257  L 1647.48787873919 706.653606652525  C 1647.72735686339 708.307575122094  1648.01019987153 709.954973985553  1648.33611566144 711.594101914721  C 1648.40593631128 711.937393511147  1648.47703706186 712.280423510038  1648.54941642967 712.623184754107  L 1650.50626346422 712.209966067014  Z M 1652.36857731826 719.930256759999  C 1651.84791910173 718.013948974686  1651.36841716065 716.086695712135  1650.93040221382 714.149826224316  L 1648.97966254901 714.590977853752  C 1649.42398467536 716.555737219883  1649.91039118636 718.510741892279  1650.43854660102 720.454643478453  L 1652.36857731826 719.930256759999  Z M 1654.66909978158 727.531486770393  C 1654.03976618215 725.648069735562  1653.45089599249 723.751372830596  1652.90289536413 721.84270423239  L 1650.98055853921 722.394629165276  C 1651.53645008171 724.330781564165  1652.13379968521 726.254789883861  1652.7721953498 728.16532711045  L 1654.66909978158 727.531486770393  Z M 1657.40030961456 734.988804929312  C 1656.66435815128 733.14443621613  1655.96804494258 731.28449665664  1655.31185024486 729.410269075701  L 1653.42420107386 730.071162869902  C 1654.0898446221 731.972378319405  1654.79618436629 733.859100007637  1655.5427331346 735.730026637756  L 1657.40030961456 734.988804929312  Z M 1660.55327750489 742.277830567743  C 1659.71311426915 740.478540084303  1658.91163454102 738.661438685116  1658.14939111163 736.82777964897  L 1656.30260100211 737.595481603746  C 1657.07582032669 739.455544343243  1657.88884093159 741.298811024717  1658.7411020658 743.124010322845  L 1660.55327750489 742.277830567743  Z M 1664.11769526067 749.374733225763  C 1663.17606704983 747.626403503134  1662.27204112925 745.858081025629  1661.40624101753 744.07098542857  L 1659.606347794 744.942985648695  C 1660.4846149614 746.755814460635  1661.40165836875 748.549599830213  1662.35684551909 750.323104559994  L 1664.11769526067 749.374733225763  Z M 1668.07949817648 756.267344336674  C 1667.85571737573 755.896575391349  1667.63284692524 755.525257758018  1667.4108888389 755.153394791973  C 1666.60862640111 753.820857440107  1665.82880416577 752.474937903418  1665.07175214279 751.116205756262  L 1663.32464030689 752.089653357771  C 1664.0919747586 753.466840070834  1664.88237014139 754.831050691148  1665.69549250963 756.18170883356  C 1665.9184839072 756.555290885434  1666.14238922662 756.928326658082  1666.36720645635 757.300812800225  L 1668.07949817648 756.267344336674  Z M 1672.2999169244 763.0276971024  C 1671.21943392618 761.353604859799  1670.15788986428 759.667364760744  1669.11548777457 757.969299323387  L 1667.41102463291 759.015628811995  C 1668.46130375786 760.72652588257  1669.53086950357 762.425508255262  1670.61951729994 764.112250974786  L 1672.2999169244 763.0276971024  Z M 1676.72196404362 769.657916042993  C 1675.59156706633 768.01711409885  1674.47973468985 766.363599589196  1673.38667956844 764.697688772934  L 1671.71449219501 765.794862135781  C 1672.8158071173 767.473361605041  1673.93604118723 769.139371093539  1675.07498014357 770.792571952505  L 1676.72196404362 769.657916042993  Z M 1681.34163003665 776.151989497895  C 1680.16234401822 774.545965577489  1679.00123143247 772.926675909078  1677.8585143592 771.294430205562  L 1676.22011893664 772.441452628769  C 1677.37147108723 774.086032590864  1678.54135775818 775.717558614029  1679.72955519151 777.335718644995  L 1681.34163003665 776.151989497895  Z M 1686.15472622373 782.504029250502  C 1684.9276204301 780.934239545665  1683.71828042304 779.350642938463  1682.52693750656 777.753542314977  L 1680.92381957815 778.94937378621  C 1682.12416501891 780.558543090303  1683.3426435474 782.154106333402  1684.57902211175 783.735758340644  L 1686.15472622373 782.504029250502  Z M 1691.15688854076 788.708275867048  C 1689.88307559634 787.176143715817  1688.62660468405 785.629676026682  1687.38771612236 784.069168584243  L 1685.82132924503 785.312724835706  C 1687.06957961532 786.885024438021  1688.33554519935 788.443178193992  1689.61898386261 789.98688808384  L 1691.15688854076 788.708275867048  Z M 1696.34358149619 794.759103918716  C 1695.02421637507 793.266018514808  1693.7217538075 791.758081935548  1692.43644290852 790.235582595924  L 1690.90820733497 791.525736087465  C 1692.20323083846 793.059740374235  1693.51553561916 794.579071855393  1694.84487067956 796.083439936548  L 1696.34358149619 794.759103918716  Z M 1701.71010228342 800.651027082255  C 1700.34638126212 799.19834221544  1698.99910799014 797.730304001504  1697.66854015323 796.247193224263  L 1696.1798415441 797.582774165724  C 1697.52046397495 799.077092245751  1698.87791807748 800.556223864865  1700.25194421869 802.01988611746  L 1701.71010228342 800.651027082255  Z M 1707.2196676479 806.430533904058  C 1705.83170478715 804.995985284042  1704.45218241459 803.553294243139  1703.08117196065 802.102535482622  L 1701.62757056429 803.47623231252  C 1703.00396167347 804.932684707777  1704.38889810713 806.38103772096  1705.78230815439 807.821216357543  L 1707.2196676479 806.430533904058  Z M 1712.81622685893 812.124985984637  C 1711.40595930699 810.712358617654  1710.00400364016 809.291457592196  1708.61043245047 807.862356481265  L 1707.17853113997 809.258658252729  C 1708.57757152659 810.693368000992  1709.985029296 812.119845481814  1711.40083157126 813.538016833421  L 1712.81622685893 812.124985984637  Z M 1718.50131403632 817.731057986151  C 1717.06908797054 816.340698628821  1715.64504314649 814.941936406355  1714.22925329995 813.534843745428  L 1712.8194035631 814.953407709271  C 1714.2407498057 816.366022633356  1715.67038342326 817.770274425457  1717.10823039053 819.166090374573  L 1718.50131403632 817.731057986151  Z M 1724.27353366581 823.247373790157  C 1722.81970065371 821.879623732995  1721.37391623167 820.503343666656  1719.9362552612 819.118604853761  L 1718.5488031728 820.559082796111  C 1719.99210637456 821.949256142472  1721.4435649091 823.330937545143  1722.90310362114 824.704055461853  L 1724.27353366581 823.247373790157  Z M 1730.13146884483 828.672579310599  C 1728.65638575772 827.327774294207  1727.18921663339 825.974314218503  1725.73003744057 824.612269164458  L 1724.36532357748 826.074307492235  C 1725.83022945179 827.441698016007  1727.30315661487 828.800469868948  1728.78402879975 830.150552694972  L 1730.13146884483 828.672579310599  Z M 1736.07368163026 834.005342826199  C 1734.57771055573 832.6838129589  1733.08951687404 831.353505106681  1731.60917764254 830.01448815171  L 1730.26753700009 831.497727979423  C 1731.75368595756 832.842000028242  1733.24772019081 834.177528794708  1734.74956233991 835.504245126189  L 1736.07368163026 834.005342826199  Z M 1742.09871339142 839.244355307349  C 1740.58222154441 837.946424984125  1739.07336861118 836.639595905098  1737.57223271881 835.323935736726  L 1736.25399462855 836.828012974566  C 1737.7610218653 838.14883657097  1739.27579642916 839.460794419627  1740.79823988641 840.763818588492  L 1742.09871339142 839.244355307349  Z M 1748.20508516812 844.38833073744  C 1746.66844480079 843.114318560311  1745.13930299306 841.831289040865  1743.61773892255 840.539308613243  L 1742.32322697144 842.063854056456  C 1743.85076255857 843.360904978814  1745.38590562246 844.648969864352  1746.92857667473 845.927982018183  L 1748.20508516812 844.38833073744  Z M 1751.94445682622 847.458767180155  C 1751.20937064569 846.86100014852  1750.47595294081 846.26118427844  1749.74421226774 845.659326567449  L 1748.47374421868 847.203965986968  C 1750.02141319313 848.476925849126  1751.5765479266 849.740781591188  1753.13906789554 850.995467771795  L 1751.94445682622 847.458767180155  Z M 1832.69176498254 531.961402260213  C 1834.56914645724 531.28037983764  1836.44949889032 530.607575519369  1838.33276827856 529.943008628158  L 1837.66723172144 528.056991371842  C 1835.77846057856 528.723499718691  1833.89261491235 529.398269557312  1832.00974888387 530.081281508464  L 1832.69176498254 531.961402260213  Z M 1745.78138968921 853.529706938048  L 1756 852  L 1755.31392102018 841.69032999396  L 1745.78138968921 853.529706938048  Z " fill-rule="nonzero" fill="#f59a23" stroke="none" />
  </g>
</svg>