<?xml version="1.0" encoding="utf-8"?>
<svg version="1.1" xmlns:xlink="http://www.w3.org/1999/xlink" width="262px" height="44px" viewBox="2054 780  262 44" xmlns="http://www.w3.org/2000/svg">
  <g transform="matrix(0.882947592858928 -0.469471562785893 0.469471562785886 0.882947592858933 -120.756683751038 1119.67139521431 )">
    <path d="M 2248.74989677265 537.380302149236  C 2250.42533546074 536.291881987214  2252.10414045305 535.2086524726  2253.78628760415 534.130629184957  L 2252.7071513212 532.446745316387  C 2251.02152804412 533.526996319226  2249.33925383233 534.612464307599  2247.66035288117 535.703133669764  L 2248.74989677265 537.380302149236  Z M 2242.06619844652 541.761599179029  C 2243.7325926032 540.659381523116  2245.40239581021 539.562326540981  2247.07558405131 538.4704500112  L 2245.98258022354 536.79553430213  C 2244.30593436987 537.889667174574  2242.63268054542 538.988989200541  2240.96284281602 540.093484568864  L 2242.06619844652 541.761599179029  Z M 2235.41890566701 546.197936145668  C 2237.07614167063 545.081996149633  2238.7368292381 543.971190501816  2240.40094448429 542.865535178567  L 2239.29414763727 541.199701831735  C 2237.62659352764 542.307641971298  2235.96247418011 543.420743078385  2234.30181352888 544.538989143821  L 2235.41890566701 546.197936145668  Z M 2228.80847167428 550.689010561194  C 2230.45643652757 549.55942431448  2232.10789522289 548.434943740344  2233.76282400786 547.315585011818  L 2232.6423096076 545.65894761069  C 2230.98396094285 546.780619473363  2229.32908953876 547.907423765752  2227.67771919653 549.039344281592  L 2228.80847167428 550.689010561194  Z M 2222.23534719529 555.234516205421  C 2223.87392853313 554.09136072793  2225.51604575296 552.953281899251  2227.16167523676 551.820296087996  L 2226.02751968462 550.172967589019  C 2224.37848953791 551.308294694508  2222.73297891321 552.448725342039  2221.09101147733 553.594243129191  L 2222.23534719529 555.234516205421  Z M 2215.69998041308 559.834143146814  C 2217.3290665102 558.677496383625  2218.96173028806 557.525896899425  2220.59794826485 556.379361257108  L 2219.45022889227 554.741453982011  C 2217.81062970133 555.890358919007  2216.17459205388 557.044338162304  2214.54213948049 558.203375114617  L 2215.69998041308 559.834143146814  Z M 2209.20281693621 564.487577763625  C 2210.8222967147 563.317518579767  2212.44539572884 562.152476960842  2214.0720906344 560.992469663076  L 2212.91088569769 559.364095291208  C 2211.28082925718 560.526499722611  2209.65437613894 561.693948878496  2208.03154973543 562.866425968026  L 2209.20281693621 564.487577763625  Z M 2202.7442997684 569.194502765271  C 2204.35406280527 568.011110940322  2205.96748638621 566.832706623947  2207.58454730562 565.659306764928  L 2206.40993598057 564.040576325646  C 2204.78953343458 565.216400993842  2203.17277574381 566.397240460822  2201.5596861613 567.583077743162  L 2202.7442997684 569.194502765271  Z M 2196.32486927828 573.954597213972  C 2197.92480581331 572.757953436431  2199.52844395084 571.56626677131  2201.13576062627 570.379554358244  L 2199.94782300277 568.770578223342  C 2198.33718483714 569.959742955671  2196.73023281106 571.153892219247  2195.12699003676 572.353008839033  L 2196.32486927828 573.954597213972  Z M 2189.9449631694 578.767536546636  C 2191.53496411224 577.557722408665  2193.12870746362 576.352834648967  2194.72617030151 575.152890596855  L 2193.52498737812 573.553778473036  C 2191.9242234128 574.756202187349  2190.32718662026 575.96357982532  2188.73389996987 577.175894021841  L 2189.9449631694 578.767536546636  Z M 2183.60501645037 583.632992596982  C 2185.18497338803 582.410090588819  2186.76871328537 581.192083888692  2188.35621336396 579.978990014787  L 2187.14186704233 578.389850936186  C 2185.55108642417 579.605451646155  2183.96407375763 580.825975334603  2182.38085186816 582.051404447158  L 2183.60501645037 583.632992596982  Z M 2177.30052759659 588.546275902233  C 2177.93900881258 588.044840027967  2178.57885072327 587.545139158103  2179.22004624915 587.04717882157  C 2180.15412924243 586.315574199  2181.08955678892 585.585687873893  2182.02632414384 584.857523548453  L 2180.79889722317 583.2784658692  C 2179.8612768125 584.007293288589  2178.92499588255 584.737842288449  2177.99005917158 585.470109171672  C 2177.34709256871 585.969454375612  2176.70548105806 586.47054198333  2176.06523171483 586.973366469206  L 2177.30052759659 588.546275902233  Z M 2171.06710555165 593.532080344362  C 2172.61433076237 592.271786264367  2174.16995234657 591.021835366517  2175.73386631062 589.782311210309  L 2174.49158230852 588.214915134603  C 2172.92069247862 589.459968210199  2171.35813201687 590.715494536105  2169.80400538077 591.981410180101  L 2171.06710555165 593.532080344362  Z M 2164.92342567297 598.628058550146  C 2166.44797068121 597.340421357983  2167.98109485584 596.062976241606  2169.52269570722 594.795808598457  L 2168.25270666895 593.250775316391  C 2166.70422947978 594.523595183174  2165.16426677765 595.806738366087  2163.63292150949 597.100119086669  L 2164.92342567297 598.628058550146  Z M 2158.87143499034 603.832595523105  C 2160.37281664357 602.518023291464  2161.8829575372 601.213488799219  2163.4017567181 599.919079254692  L 2162.10446512338 598.396898411867  C 2160.57889131193 599.697081693011  2159.06201440813 601.007435084431  2157.55393581555 602.32787098871  L 2158.87143499034 603.832595523105  Z M 2152.91305147579 609.144041862762  C 2154.39079396226 607.802951200508  2155.87747298733 606.471740760039  2157.37298916611 605.150499533124  L 2156.04880614725 603.65165353284  C 2154.54661919213 604.978788179591  2153.05330880904 606.315936507722  2151.5689748261 607.663009128567  L 2152.91305147579 609.144041862762  Z M 2147.05016343575 614.56071428736  C 2148.50379843542 613.193530207404  2149.96654443963 611.836065700524  2151.43830366349 610.488411513528  L 2150.08764887514 609.013375363904  C 2148.60932484327 610.3670407862  2147.14005423467 611.730560287486  2145.67993527041 613.103842716177  L 2147.05016343575 614.56071428736  Z M 2141.2846289126 620.080896167328  C 2142.71369574543 618.688051952039  2144.15204516136 617.304763580806  2145.5995810064 615.931123526768  L 2144.22288249252 614.480364690199  C 2142.76888988828 615.860131889957  2141.32412468938 617.249590443399  2139.8886834787 618.648647464909  L 2141.2846289126 620.080896167328  Z M 2135.61827509587 625.702838069298  C 2137.02232086788 624.284775133135  2138.43581785971 622.876101283636  2139.85867157883 621.476910690909  L 2138.45636563707 620.050888935927  C 2137.02716525382 621.456320642984  2135.60736333365 622.871277907104  2134.1970547907 624.295666138019  L 2135.61827509587 625.702838069298  Z M 2130.05289774313 631.424758310539  C 2131.43147748988 629.9819260602  2132.81967409799 628.548313163528  2134.21739476622 627.124015457866  L 2132.7899258096 625.723182713426  C 2131.38597058366 627.153833524149  2129.99158190004 628.593841076484  2128.60685297399 630.043109105547  L 2130.05289774313 631.424758310539  Z M 2124.59026061091 637.244843523591  C 2125.94293743857 635.777699215538  2127.30539372139 634.31960160642  2128.67753837884 632.870648170392  L 2127.22535879497 631.495448382655  C 2125.84709366205 632.950864901065  2124.47856011891 634.415466380338  2123.11984965237 635.889154911478  L 2124.59026061091 637.244843523591  Z M 2119.30159363319 643.196295421844  C 2120.44554205294 641.857809889438  2121.60487929488 640.532553471066  2122.77937436684 639.22079021748  C 2122.93307352032 639.05207192853  2123.08690147127 638.883471016661  2123.24085808521 638.714987629255  L 2121.76442809288 637.365856620889  C 2121.60785179697 637.537206873702  2121.45140798907 637.708678144583  2121.29509680968 637.880270279528  C 2120.10838594123 639.205577648693  2118.9370142368 640.544540498819  2117.78121584171 641.896891184833  L 2119.30159363319 643.196295421844  Z M 2114.23282868861 649.340095921825  C 2115.47321518998 647.782254698433  2116.7338556647 646.240648254295  2118.01442883811 644.715669468333  L 2116.48281681735 643.429526156766  C 2115.19106694561 644.96781478571  2113.91942374291 646.522876197148  2112.66821128794 648.094314083172  L 2114.23282868861 649.340095921825  Z M 2109.38064023522 655.656339256257  C 2110.56613802727 654.056332089041  2111.77244176299 652.471846010767  2112.99924401548 650.903284828217  L 2111.4238600268 649.671146326169  C 2110.18635038252 651.253397733936  2108.96951816374 652.851713028144  2107.77367348056 654.465684877587  L 2109.38064023522 655.656339256257  Z M 2104.7508903288 662.137394606355  C 2105.88006718064 660.497154505838  2107.03057681028 658.871703052479  2108.20212600995 657.261454493147  L 2106.58487331596 656.084809379369  C 2105.4030989669 657.709112006661  2104.24254781889 659.3487502171  2103.10351563874 661.003306148368  L 2104.7508903288 662.137394606355  Z M 2100.39538633012 668.786796026741  C 2101.43812825743 667.09637706434  2102.51603669794 665.427904861658  2103.6284075281 663.782469316998  L 2101.97150527086 662.662346596075  C 2100.84354934391 664.330835848654  2099.7505386489 666.022684519018  2098.69318717465 667.736787438622  L 2100.39538633012 668.786796026741  Z M 2096.41482087771 675.660765833689  C 2097.36192017343 673.914962316833  2098.345352308 672.189115471385  2099.36447487276 670.484352674563  L 2097.64783192354 669.458128047634  C 2096.61443073571 671.186775768859  2095.61722002606 672.936802941034  2094.65685120386 674.707066391612  L 2096.41482087771 675.660765833689  Z M 2092.82277742959 682.745509025549  C 2093.67130144755 680.949726748561  2094.55721212718 679.171849259808  2095.47993076387 677.413037924586  L 2093.70886262275 676.483889045496  C 2092.77321604974 678.26734256312  2091.87489313913 680.070129364451  2091.01448070358 681.891071812708  L 2092.82277742959 682.745509025549  Z M 2089.66123980283 690.016032294484  C 2090.15055346526 688.758989487806  2090.66751845016 687.512886051118  2091.21175801544 686.278630091586  C 2091.46626825231 685.699733284434  2091.72462245111 685.12253408927  2091.98680350032 684.547070735584  L 2090.16679419227 683.71787466792  C 2089.90108982631 684.301071378692  2089.63926154764 684.886026268952  2089.38132667831 685.472700639224  C 2088.82538951553 686.733524726255  2088.29730667208 688.006447779656  2087.79746278945 689.290542636117  L 2089.66123980283 690.016032294484  Z M 2087.1118392181 697.505337463167  C 2087.66812747618 695.606529781446  2088.28566844195 693.726206200012  2088.9634941078 691.867314163085  L 2087.08451342504 691.182163381269  C 2086.39191814127 693.081560118034  2085.76092114311 695.002855386228  2085.19251153077 696.943037517713  L 2087.1118392181 697.505337463167  Z M 2085.21683267952 705.186358584725  C 2085.60754315501 703.246700737945  2086.06087052441 701.320183696374  2086.57610418813 699.409827313392  L 2084.64510299522 698.889025630447  C 2084.11864254452 700.841008105926  2083.65543730774 702.809503375901  2083.2562133682 704.791425785284  L 2085.21683267952 705.186358584725  Z M 2084.05155541159 712.988134873707  C 2084.20894716381 711.265325536428  2084.43265055566 709.549219061828  2084.72216795116 707.843632988366  C 2084.76286889126 707.605561094963  2084.80450936254 707.367650778836  2084.84708839191 707.12990759973  L 2082.87841246348 706.777324150281  C 2082.83483644791 707.020634076046  2082.79222249482 707.264115322905  2082.75057160323 707.507762182804  C 2082.45236209958 709.264373177033  2082.22195055067 711.031822744722  2082.05984974168 712.806177393837  L 2084.05155541159 712.988134873707  Z M 2083.79483777345 720.862425045808  C 2083.74374615889 718.892028097854  2083.77916525951 716.920338084114  2083.90099281763 714.953047426467  L 2081.90481672271 714.829431092358  C 2081.77937192508 716.855133505205  2081.74290117922 718.88536589749  2081.79550977902 720.914266830975  L 2083.79483777345 720.862425045808  Z M 2084.46116116172 728.708255190108  C 2084.43105675646 728.505248590078  2084.40193413518 728.302097611366  2084.37379431922 728.098809378481  C 2084.13852149895 726.350245531272  2083.97203876384 724.59311310028  2083.87473129645 722.831477472655  L 2081.87777545831 722.941783322538  C 2081.9780419933 724.75698933959  2082.14963705325 726.567551495374  2082.39216307405 728.369274945746  C 2082.4213484536 728.580206479895  2082.4515596949 728.790994799817  2082.4827957257 729.001632424324  L 2084.46116116172 728.708255190108  Z M 2086.09490236597 736.408103354091  C 2085.56781969243 734.510521697173  2085.12907181966 732.589504508225  2084.78007423567 730.651249371307  L 2082.81172736095 731.005665201629  C 2083.17168860236 733.004810058953  2083.62421961173 734.986175443206  2084.16786043389 736.943369075006  L 2086.09490236597 736.408103354091  Z M 2088.66631998609 743.847497381416  C 2087.90910377859 742.029461104408  2087.23665527707 740.177267877746  2086.65114393433 738.296893245672  L 2084.74157616906 738.891494750728  C 2085.34548118004 740.830940804014  2086.03905445531 742.741320141253  2086.82005838936 744.616469498212  L 2088.66631998609 743.847497381416  Z M 2092.12500309644 750.931281161495  C 2091.42770785579 749.676938777399  2090.76442823062 748.403986618791  2090.13589015667 747.11381788612  C 2089.90156362952 746.629859038875  2089.67337770705 746.142950963687  2089.45138732049 745.65321087402  L 2087.62978838533 746.478908954086  C 2087.85908579757 746.984769306742  2088.09479197889 747.487700139172  2088.33685002235 747.987580027987  C 2088.9814781001 749.310875244074  2089.66175919563 750.616503346733  2090.37694795111 751.903033809483  L 2092.12500309644 750.931281161495  Z M 2096.29963609973 757.635356172656  C 2095.1736084557 756.012267142295  2094.10833025101 754.347864377789  2093.10600983517 752.645598229508  L 2091.38257843608 753.660381069637  C 2092.41005758182 755.405374926116  2093.50207478753 757.111555009461  2094.65636627305 758.775384363854  L 2096.29963609973 757.635356172656  Z M 2101.11743345701 763.893232097564  C 2099.83625911171 762.389587008939  2098.61144594316 760.838817226533  2097.44553302102 759.244137536571  L 2095.83102576436 760.424546922411  C 2097.02620366787 762.05925384814  2098.28176024262 763.648948706278  2099.59509268707 765.190336017904  L 2101.11743345701 763.893232097564  Z M 2106.48480067825 769.726176259495  C 2105.09342288072 768.31253612119  2103.73744664101 766.864483058694  2102.41813167186 765.383362324835  L 2100.92469732637 766.713645699046  C 2102.26608645848 768.219547854484  2103.64475026042 769.691829065689  2105.05940794257 771.129121571709  L 2106.48480067825 769.726176259495  Z M 2112.23351012637 775.191677908057  C 2110.75144009259 773.873429437132  2109.30241133171 772.518495902038  2107.88777000295 771.128136046786  L 2106.4858510959 772.554538296524  C 2107.92416154382 773.968161004642  2109.39743477835 775.345764655943  2110.90430211695 776.686069445671  L 2112.23351012637 775.191677908057  Z M 2118.33204636709 780.263879038726  C 2116.76581036049 779.046827113891  2115.23010984531 777.790979526776  2113.72637149952 776.497502969766  L 2112.42214135058 778.013742963497  C 2113.95103954528 779.328861367203  2115.51243468549 780.605721210628  2117.10487622273 781.843136280844  L 2118.33204636709 780.263879038726  Z M 2124.73552448915 784.978702863038  C 2123.19485674063 783.894428406647  2121.6703023514 782.787437008113  2120.16236104612 781.658091521595  C 2120.07756517951 781.594779935759  2119.99285342475 781.531355773445  2119.90822600584 781.467819202366  L 2118.70742776433 783.067220209988  C 2118.79307786297 783.131524588529  2118.8788129268 783.195715720102  2118.96463273092 783.259793436331  C 2120.48796726185 784.400649297183  2122.02807989645 785.518928710055  2123.58446607031 786.61426530954  L 2124.73552448915 784.978702863038  Z M 2131.33717847673 789.422195821873  C 2129.66384514592 788.345816628742  2128.00741878101 787.243378083264  2126.36850494091 786.115283216628  L 2125.23453171494 787.762737228971  C 2126.89059282648 788.902634881337  2128.56434968907 790.016607781172  2130.25519040808 791.104248680527  L 2131.33717847673 789.422195821873  Z M 2138.11805252759 793.587074229853  C 2136.40136970111 792.58127272028  2134.70049458687 791.54873076242  2133.01604899346 790.489825834583  L 2131.95162624629 792.183048860441  C 2133.65369549087 793.253032668561  2135.3723661515 794.29637768195  2137.10700991386 795.312702472905  L 2138.11805252759 793.587074229853  Z M 2145.06177623826 797.457182648249  C 2144.87609164368 797.360490235183  2144.69048690957 797.263644537906  2144.50496222595 797.166645655566  C 2142.93801023247 796.327463045506  2141.38283942603 795.466465308823  2139.8399035966 794.583903679734  L 2138.84687599192 796.319961333253  C 2140.40883300777 797.213403109753  2141.98319855635 798.084974777421  2143.56951154931 798.934421076903  C 2143.75893975029 799.033467115047  2143.9484509751 799.132354287038  2144.13804502363 799.231082488467  L 2145.06177623826 797.457182648249  Z M 2152.17690250099 801.067923130061  C 2150.38870899254 800.18392357567  2148.60749715807 799.285870819154  2146.83343233078 798.373848218325  L 2145.919016686 800.152567990683  C 2147.70240974854 801.069386110391  2149.49298739803 801.97216093075  2151.29058343195 802.860808655644  L 2152.17690250099 801.067923130061  Z M 2159.36620137707 804.528623959677  C 2157.55985873013 803.682327629935  2155.76020144444 802.821834744039  2153.96739656523 801.947225173438  L 2153.09049211823 803.744734169476  C 2154.89272377002 804.623942536975  2156.70184385902 805.488959992629  2158.51768446167 806.339706245018  L 2159.36620137707 804.528623959677  Z M 2166.62650935052 807.837762320685  C 2164.80281241228 807.02954161241  2162.98550158071 806.206987240848  2161.17474553972 805.370175556003  L 2160.33573815585 807.185682815642  C 2162.15601535868 808.026894551794  2163.98288181789 808.853774008068  2165.8161679627 809.666244433033  L 2166.62650935052 807.837762320685  Z M 2173.95463165917 810.993882088889  C 2172.11438291317 810.224092644412  2170.2802182093 809.439838736819  2168.4523077957 808.641193160983  L 2167.65156666438 810.473899804345  C 2169.48908843946 811.276744749723  2171.33289739061 812.065122353839  2173.18282237443 812.838959439028  L 2173.95463165917 810.993882088889  Z M 2181.34734370039 813.995594473053  C 2179.49135291359 813.264575023779  2177.64114142707 812.518966676329  2175.79688097854 811.758838638506  L 2175.03475845089 813.607938217448  C 2176.88871623125 814.37206309521  2178.74865634084 815.121591936408  2180.61440613892 815.856455169342  L 2181.34734370039 813.995594473053  Z M 2188.80139245008 816.841578626011  C 2186.93047631635 816.149650843314  2185.06503219804 815.443016146971  2183.20523324675 814.721740127223  L 2182.48206468046 816.5864189802  C 2184.35164266681 817.311487551543  2186.22689550311 818.021837813732  2188.1076491273 818.717403831645  L 2188.80139245008 816.841578626011  Z M 2196.31349789407 819.530582225879  C 2194.42847967493 818.878050579588  2192.54862377847 818.210700475678  2190.67410469402 817.528593857974  L 2189.99020830585 819.408031468073  C 2191.87458382551 820.093724680191  2193.76432421869 820.764583787069  2195.65925407868 821.420546519201  L 2196.31349789407 819.530582225879  Z M 2203.88035447141 822.061422027118  C 2201.98206363373 821.44857365153  2200.08862315442 820.820801794936  2198.20020878373 820.178164727484  L 2197.55588550944 822.071534083477  C 2199.45422937832 822.717550209941  2201.35762578367 823.348622962572  2203.26589805114 823.964693764833  L 2203.88035447141 822.061422027118  Z M 2211.49863252898 824.4329843812  C 2209.58790437998 823.860088948734  2207.68171249074 823.272171578672  2205.7802337951 822.669286841847  L 2205.17576715704 824.575754802103  C 2207.08724404459 825.181809575651  2209.00345890824 825.772818282314  2210.92423388382 826.348726064319  L 2211.49863252898 824.4329843812  Z M 2219.15822338885 826.723572354423  C 2217.24177829108 826.159845664443  2215.32733997737 825.589319004098  2213.4149446202 825.012003153242  L 2212.83694557486 826.926661635473  C 2214.7538712018 827.505345088765  2216.6728446248 828.077223268634  2218.59382958577 828.642285369712  L 2219.15822338885 826.723572354423  Z M 2226.83455184975 828.942167454236  C 2224.91285733837 828.396603710302  2222.99310516461 827.844221307863  2221.07533160137 827.285030683947  L 2220.51547923232 829.205073736817  C 2222.43779580576 829.765589026352  2224.3620956768 830.319279966417  2226.28834248671 830.866136095281  L 2226.83455184975 828.942167454236  Z M 2234.53153383036 831.088012566681  C 2232.60476203893 830.560660637032  2230.67986796485 830.026471971554  2228.75688797787 829.485456663431  L 2228.21523243326 831.410712301261  C 2230.14276776388 831.953009219519  2232.07222171598 832.488463323541  2234.00355783345 833.017064496174  L 2234.53153383036 831.088012566681  Z M 2242.24847988227 833.160915480117  C 2240.31680339928 832.65182260173  2238.38693984488 832.135875522502  2236.458925683 831.613083991031  L 2235.93551548102 833.543379761233  C 2237.86809691202 834.067409732582  2239.80253211654 834.584579037868  2241.73878454433 835.094877905419  L 2242.24847988227 833.160915480117  Z M 2249.98469876877 835.160690516616  C 2248.04829062186 834.669902290883  2246.11363045267 834.172243013333  2244.18075481549 833.667722086945  L 2243.67563684001 835.602885085465  C 2245.61309126256 836.108601170502  2247.55233444475 836.607439352223  2249.49332974519 837.099390205239  L 2249.98469876877 835.160690516616  Z M 2257.73949752685 837.0871585486  C 2255.79853116767 836.614718937344  2253.85924767849 836.135392038684  2251.92168370125 835.649186909297  L 2251.43490319763 837.589043796104  C 2253.37705706649 838.076400695898  2255.32093452075 838.556863071164  2257.26649883145 839.030421843717  L 2257.73949752685 837.0871585486  Z M 2265.5121815292 838.940147014879  C 2263.56683081756 838.48609833633  2261.62309771761 838.025146751751  2259.68101895535 837.557300970622  L 2259.2126195264 839.501677985237  C 2261.1592988754 839.970632045359  2263.10763648101 840.432675577274  2265.0575955303 840.887799850886  L 2265.5121815292 838.940147014879  Z M 2273.30205454647 840.719489936115  C 2271.35249373496 840.283872861168  2269.40448513192 839.841337879883  2267.45806554414 839.391893353769  L 2267.00808914622 841.340616330827  C 2268.95911960371 841.791125545236  2270.91174284064 842.234708846799  2272.8659219631 842.671357854218  L 2273.30205454647 840.719489936115  Z M 2281.10841880962 842.425027929683  C 2279.15482252794 842.007881478243  2277.20271291247 841.583802739822  2275.2521268475 841.152799727206  L 2274.82061378673 843.105694112057  C 2276.77582059137 843.537718126902  2278.73255455561 843.962801464642  2280.69077870786 844.380936093529  L 2281.10841880962 842.425027929683  Z M 2288.93057507244 844.056608223954  C 2286.97311831175 843.657969761441  2285.01708254186 843.252385252256  2283.06250472123 842.839862359743  L 2282.6494936499 844.796753224089  C 2284.60870166621 845.210253341298  2286.56937108563 845.616798638879  2288.53146486192 846.016381435287  L 2288.93057507244 844.056608223954  Z M 2296.76782267414 845.614084671972  C 2294.80668077141 845.233989905975  2292.84689405679 844.846935955798  2290.88849955959 844.452930134659  L 2290.4940274727 846.41364219222  C 2292.45706120695 846.80858137301  2294.42149045661 847.196552214557  2296.38727810471 847.577547386332  L 2296.76782267414 845.614084671972  Z M 2255.46954492298 533.054343791394  C 2257.15391390395 531.979795336374  2258.8416062139 530.910465148221  2260.53259757906 529.846368606921  L 2259.46740242094 528.153631393079  C 2257.7729166533 529.219926870264  2256.08173675858 530.291466809365  2254.39388706016 531.368235798958  L 2255.46954492298 533.054343791394  Z M 2295.69905935302 854.152591679549  L 2304 848  L 2298.54927393559 839.222210678607  L 2295.69905935302 854.152591679549  Z " fill-rule="nonzero" fill="#aaaaaa" stroke="none" />
  </g>
</svg>