<?xml version="1.0" encoding="utf-8"?>
<svg version="1.1" xmlns:xlink="http://www.w3.org/1999/xlink" width="132px" height="14px" viewBox="1834 782  132 14" xmlns="http://www.w3.org/2000/svg">
  <g transform="matrix(0.292371704722748 -0.956304755963023 0.956304755963031 0.292371704722733 589.969308571947 2375.29776130351 )">
    <path d="M 1810.28997573364 643.37095464271  C 1808.7944105493 642.034412972514  1807.28735736407 640.710782026169  1805.76898399026 639.40020919168  L 1804.46217244042 640.914224902701  C 1805.97184922121 642.217291336745  1807.47027065061 643.533341091366  1808.95726987748 644.862227622737  L 1810.28997573364 643.37095464271  Z M 1816.21025922602 648.785338915113  C 1814.74579457527 647.414790797196  1813.26954834396 646.056886069417  1811.78168491398 644.711775936183  L 1810.44043518589 646.195369265533  C 1811.91977677075 647.532775183452  1813.38756769528 648.882902413952  1814.84364451911 650.245600618662  L 1816.21025922602 648.785338915113  Z M 1822.00458970676 654.334307103826  C 1820.57199864735 652.930476019514  1819.1273386469 651.539014317442  1817.67077057016 650.160076938655  L 1816.29579067917 651.61246473101  C 1817.74401615719 652.983504146492  1819.18040176328 654.366996151295  1820.60478755406 655.762786691808  L 1822.00458970676 654.334307103826  Z M 1827.66990848001 660.014930034188  C 1826.26994724431 658.57855703412  1824.85763607803 657.154272878889  1823.43313224384 655.742236164364  L 1822.02514801071 657.162651737092  C 1823.44149289644 658.56660090949  1824.84571494862 659.982727374464  1826.23765780537 661.410873444573  L 1827.66990848001 660.014930034188  Z M 1833.20322495225 665.824209033978  C 1831.8366325481 664.356052346937  1830.45741574308 662.899697585904  1829.06572811476 661.455306917849  L 1827.62548278248 662.843000465734  C 1829.00919941952 664.279118282049  1830.3805166608 665.727131666136  1831.73928180838 667.18687937985  L 1833.20322495225 665.824209033978  Z M 1838.60161821102 671.759077516354  C 1837.26911603159 670.259912148997  1835.92372164518 668.772255558891  1834.5655848631 667.296273398421  L 1833.09383870457 668.65051238946  C 1834.44419666025 670.118040755625  1835.78188520329 671.597176685329  1837.10675538036 673.08775547489  L 1838.60161821102 671.759077516354  Z M 1843.86223856675 677.816402598625  C 1842.56453000979 676.287019926433  1841.25366824517 674.768846807427  1839.92979923901 673.262052292131  L 1838.4273291557 674.582121854225  C 1839.74361560663 676.080286095244  1841.04696931594 677.5897637682  1842.33724515353 679.110386790818  L 1843.86223856675 677.816402598625  Z M 1848.97575045015 684.002032895939  C 1847.71751209699 682.439119075839  1846.4442056525 680.888396054463  1845.15600933023 679.350080872932  L 1843.62264341112 680.63413264685  C 1844.9025706061 682.16257315026  1846.1677035037 683.703341845733  1847.41786503432 685.256223085325  L 1848.97575045015 684.002032895939  Z M 1853.92759415733 690.317766766474  C 1852.71002831309 688.722963713637  1851.47708538488 687.139959314881  1850.22893793696 685.568975129528  L 1848.66300812087 686.813106879418  C 1849.90314352131 688.374006679382  1851.12817200213 689.946849533154  1852.33792210683 691.531415303684  L 1853.92759415733 690.317766766474  Z M 1858.71512430117 696.75894721306  C 1857.53903882557 695.133313085554  1856.34727747614 693.519077639092  1855.14000705329 691.916466804071  L 1853.5425523408 693.119853043632  C 1854.74207311198 694.712176477  1855.92618436483 696.316049901674  1857.09472036966 697.931248837526  L 1858.71512430117 696.75894721306  Z M 1863.33516433664 703.321300487184  C 1862.20133956701 701.665913899644  1861.05155053469 700.021518457012  1859.88595816557 698.388344310915  L 1858.25803847416 699.550186588653  C 1859.41614872934 701.172877142563  1860.55855709176 702.806716961846  1861.68510366847 704.451477372174  L 1863.33516433664 703.321300487184  Z M 1867.78464884903 710.000472441681  C 1866.69383708255 708.316431749603  1865.58678325687 706.642967373644  1864.4636423166 704.980313533924  L 1862.80633777738 706.099840962925  C 1863.92226910586 707.751821975841  1865.0222165854 709.414544130565  1866.10602626594 711.087774710395  L 1867.78464884903 710.000472441681  Z M 1872.06062558789 716.792031419737  C 1871.01355058247 715.080453990743  1869.94996649798 713.379031031619  1868.87002219498 711.688000675637  L 1867.18443243602 712.764470445057  C 1868.25744441299 714.444645821101  1869.31420119016 716.135147088567  1870.35455486256 717.835737642851  L 1872.06062558789 716.792031419737  Z M 1876.16025742588 723.691471195306  C 1875.15761391988 721.953492667733  1874.13820526881 720.22524002627  1873.10217415037 718.506955159301  L 1871.38941756708 719.53965302722  C 1872.41879824488 721.246907963413  1873.43166315743 722.964066689436  1874.42787054293 724.690888869643  L 1876.16025742588 723.691471195306  Z M 1880.08092870537 730.695286773388  C 1880.01349183222 730.570814095874  1879.94597013211 730.4463873949  1879.87836365187 730.322006756787  C 1878.98599261979 728.684109961688  1878.07893154358 727.054259525949  1877.15729013331 725.432652581842  L 1875.41850314642 726.420893349172  C 1876.33406544465 728.031804234934  1877.23514616094 729.650902787062  1878.12163634734 731.277993243432  C 1878.18865096612 731.401285929383  1878.25558174342 731.524624167967  1878.32242863298 731.648007873923  L 1880.08092870537 730.695286773388  Z M 1883.81277894169 737.800393685843  C 1882.90273870172 736.012185050346  1881.97544594329 734.232808943175  1881.03103045145 732.462514408019  L 1879.26643153207 733.403891406737  C 1880.20478467784 735.162822153173  1881.12612500363 736.930776175647  1882.03032355748 738.707506029102  L 1883.81277894169 737.800393685843  Z M 1887.36038891564 744.999262617587  C 1886.49670846012 743.188207832889  1885.61555371527 741.385538282964  1884.71704800859 739.591506271681  L 1882.9287879843 740.487121192004  C 1883.82152604677 742.26963704012  1884.69702452587 744.060734981199  1885.55516088575 745.86016433097  L 1887.36038891564 744.999262617587  Z M 1890.72140477409 752.28711709082  C 1889.90465715838 750.454417798875  1889.07022507674 748.629650884532  1888.2182253173 746.813071744399  L 1886.40749070563 747.662330342312  C 1887.25402134959 749.467248585838  1888.08309708534 751.280302045018  1888.89460187441 753.10123696266  L 1890.72140477409 752.28711709082  Z M 1893.8935964698 759.659121585486  C 1893.12432360917 757.805993789488  1892.33716783968 755.960340250704  1891.53223933267 754.122419289129  L 1889.70023156316 754.924758078218  C 1890.4999931122 756.750881146808  1891.28209600958 758.584687156012  1892.04643079123 760.425919444051  L 1893.8935964698 759.659121585486  Z M 1896.87485924114 767.110384747659  C 1896.15357155114 765.238058005159  1895.41421437477 763.372742440338  1894.6568911934 761.514699125078  L 1892.8048258104 762.269585750406  C 1893.55728761958 764.115702004239  1894.29189875026 765.969043825969  1895.00855638535 767.82935181956  L 1896.87485924114 767.110384747659  Z M 1899.66321500855 774.635962634975  C 1898.99039106639 772.745679242124  1898.29932304953 770.861939295455  1897.5901076807 768.985006445551  L 1895.71921353686 769.691940036879  C 1896.42387634484 771.556824570572  1897.11050829144 773.428472505253  1897.77901327482 775.306621882737  L 1899.66321500855 774.635962634975  Z M 1902.25681368703 782.230861996961  C 1901.63289991405 780.323876164216  1900.99057958303 778.422961704538  1900.32994259394 776.528384672312  L 1898.44146103487 777.186896176425  C 1899.09785729509 779.069311631775  1899.73605447462 780.958023833641  1900.35596325061 782.852768435539  L 1902.25681368703 782.230861996961  Z M 1904.65318491314 789.890023729354  C 1904.38264888826 788.985669808638  1904.1084468965 788.082416606131  1903.8305857006 787.180286399075  C 1903.5171023792 786.16517720199  1903.19842899118 785.151678059867  1902.87457804187 784.139828744289  L 1900.9697620825 784.749481236221  C 1901.29145888432 785.754600070792  1901.6080137683 786.761357375835  1901.91941431805 787.76971366283  C 1902.19560939043 788.666441283292  1902.4681681305 789.56428487245  1902.7370838196 790.463222298227  L 1904.65318491314 789.890023729354  Z M 1906.86406381224 797.602178303331  C 1906.33351451254 795.667862843691  1905.78630883131 793.738154542519  1905.2225077006 791.813268275273  L 1903.30314576974 792.375451322279  C 1903.8637176888 794.289312664575  1904.40778921002 796.207968422267  1904.93529975033 798.131204950578  L 1906.86406381224 797.602178303331  Z M 1908.89717962924 805.363090218439  C 1908.41120945242 803.417096425024  1907.90848144517 801.475325909231  1907.3890515869 799.537994889734  L 1905.45728061965 800.055934007845  C 1905.97373540593 801.982168824182  1906.47358400226 803.912817709279  1906.95677074984 805.847665682871  L 1908.89717962924 805.363090218439  Z M 1910.75145912835 813.168662665007  C 1910.31032460706 811.212017783866  1909.85233965252 809.259210070164  1909.37755526195 807.310456971581  L 1907.43439499646 807.783878752464  C 1907.90646002518 809.721470227111  1908.36182183786 811.663093093758  1908.80042972936 813.608531150208  L 1910.75145912835 813.168662665007  Z M 1912.42592347739 821.014775258081  C 1912.02985747655 819.048512157737  1911.61685733462 817.085698089113  1911.18696903967 815.126551614073  L 1909.23344522625 815.55520614909  C 1909.66087130498 817.503131471381  1910.07150595881 819.454703380829  1910.46530346306 821.409704567439  L 1912.42592347739 821.014775258081  Z M 1913.91968876456 828.897286212483  C 1913.56890035845 826.92244283871  1913.20110304253 824.950658540255  1912.81633777151 822.982152877828  L 1910.85348163115 823.365813889956  C 1911.23604313132 825.323044794206  1911.60173386158 827.28353555586  1911.95051310179 829.247067871758  L 1913.91968876456 828.897286212483  Z M 1915.23196646498 836.812034529163  C 1914.92664082685 834.829653357057  1914.60424048884 832.849939689067  1914.26480135061 830.873113968813  L 1912.29364903061 831.21157893209  C 1912.63114400669 833.177082240437  1912.95169777351 835.145456955589  1913.25527463702 837.116483896537  L 1915.23196646498 836.812034529163  Z M 1916.25350261024 843.931082721257  C 1916.02558353162 842.217381518657  1915.78494108124 840.505396546987  1915.53159516584 838.795269427342  L 1913.55318719289 839.088359673779  C 1913.84543748891 841.061097841523  1914.12068507923 843.036317449744  1914.37889931468 845.013798555244  L 1916.25350261024 843.931082721257  Z M 1804.24686441322 638.094012417477  C 1802.72098817027 636.792182725082  1801.18392357039 635.503524274986  1799.63584176768 634.22818056096  L 1798.36415823232 635.77181943904  C 1799.90337328485 637.039858529953  1801.43163423635 638.321136095812  1802.94877091306 639.615509464743  L 1804.24686441322 638.094012417477  Z M 1907.62960010828 843.942244173566  L 1916 850  L 1922.72414689944 842.154883781946  L 1907.62960010828 843.942244173566  Z " fill-rule="nonzero" fill="#027db4" stroke="none" />
  </g>
</svg>