<?xml version="1.0" encoding="utf-8"?>
<svg version="1.1" xmlns:xlink="http://www.w3.org/1999/xlink" width="118px" height="14px" viewBox="1926 716  118 14" xmlns="http://www.w3.org/2000/svg">
  <g transform="matrix(0.190808995376547 -0.981627183447677 0.981627183447661 0.190808995376548 896.527690544896 2533.57505548639 )">
    <path d="M 1978.07839309028 681.999249602613  C 1978.14253587516 680.009854882915  1978.23534080204 678.021487672309  1978.35677897123 676.034767153797  L 1976.36050479209 675.912745017696  C 1976.23789446669 677.918641935379  1976.14419375989 679.926201439495  1976.07943185036 681.934798370525  L 1978.07839309028 681.999249602613  Z M 1977.97474793435 689.959661428079  C 1977.96242224796 687.969271083183  1977.97877701905 685.978806453969  1978.0238071547 683.988887376598  L 1976.0243190356 683.94364070187  C 1975.9788542561 685.952767051824  1975.96234162404 687.962444219438  1975.97478628151 689.972046385727  L 1977.97474793435 689.959661428079  Z M 1978.17697261436 697.918179124747  C 1978.08819665188 695.929731369311  1978.02807712426 693.940107645823  1977.99663275288 691.949927528567  L 1975.99688233862 691.981523108363  C 1976.02863022014 693.990913017831  1976.08933003877 695.99974116306  1976.17896289243 698.007381989453  L 1978.17697261436 697.918179124747  Z M 1978.6847686062 705.863054327042  C 1978.51967341873 703.879484508086  1978.38316834085 701.893638773291  1978.27529588062 699.906135520482  L 1976.2782352032 700.0145267134  C 1976.38714887952 702.02121392055  1976.52497154376 704.026227610857  1976.69166027757 706.028943417518  L 1978.6847686062 705.863054327042  Z M 1979.49738630131 713.782558808446  C 1979.2562156024 711.806795072172  1979.04352648309 709.827658831979  1978.85938517537 707.845766396357  L 1976.8679622962 708.030793195294  C 1977.05388098891 710.031815428039  1977.26862304491 712.030054861756  1977.51212159293 714.02488923918  L 1979.49738630131 713.782558808446  Z M 1980.61362611326 721.665001794702  C 1980.29673591915 719.699960763963  1980.00817673015 717.730455619744  1979.74803840436 715.757099671347  L 1977.76519306234 716.018488939703  C 1978.02784231823 718.010892288584  1978.31918676372 719.999407664218  1978.63913567333 721.983415837459  L 1980.61362611326 721.665001794702  Z M 1982.043914143 729.489225862832  C 1981.85016238556 728.558829059278  1981.66488564114 727.626687483108  1981.48810694677 726.69291703552  C 1981.29771479677 725.672817291734  1981.11498857119 724.651301667867  1980.93994373752 723.628456633534  L 1978.96860300937 723.965822508412  C 1979.1454826655 724.999389019073  1979.33013060663 726.031611068432  1979.52253117691 727.062401136907  C 1979.70171296494 728.008949562948  1979.88951680782 728.953845476413  1980.08591931242 729.896971179693  L 1982.043914143 729.489225862832  Z M 1983.8613619698 737.22702638058  C 1983.35797568358 735.304467869829  1982.89123976776 733.372499335994  1982.46140796849 731.432171115115  L 1980.50874609979 731.864735129478  C 1980.94406846314 733.829848618553  1981.416766347 735.786495636032  1981.92658276394 737.733612429138  L 1983.8613619698 737.22702638058  Z M 1986.06915297742 744.862622776555  C 1985.46884755352 742.968087905289  1984.90466772536 741.062295169358  1984.37692021554 739.146280674032  L 1982.44872662198 739.677382797701  C 1982.98321544671 741.617871983762  1983.55460196712 743.548008840232  1984.16257554262 745.46674402688  L 1986.06915297742 744.862622776555  Z M 1988.66159743706 752.376337249391  C 1987.96591993089 750.514708449704  1987.30575014604 748.640002956561  1986.68144699111 746.753239974321  L 1984.78269084715 747.381511496646  C 1985.4149686947 749.292375518101  1986.08357132353 751.1910280311  1986.78813524045 753.07643681223  L 1988.66159743706 752.376337249391  Z M 1991.63201432412 759.748806101317  C 1990.84275757585 757.924881002604  1990.08829916703 756.086094081779  1989.3690492673 754.23344501567  L 1987.50462388373 754.957266809398  C 1988.23306130207 756.833581152073  1988.99715697423 758.695856277886  1989.79649549112 760.543079740377  L 1991.63201432412 759.748806101317  Z M 1994.97274853607 766.961029640609  C 1994.0919465502 765.179508705539  1993.24514384263 763.381379120304  1992.432800787 761.567618457928  L 1990.60751100032 762.385125151877  C 1991.4302307233 764.222054340062  1992.28785027722 766.043152783627  1993.17990340772 767.84743042228  L 1994.97274853607 766.961029640609  Z M 1998.67519062043 773.994421145961  C 1997.70511332398 772.259895556842  1996.76814862465 770.50705729189  1995.86480591368 768.736859301005  L 1994.08335570352 769.645944087336  C 1994.99823748872 771.438754145339  1995.94717074116 773.21398272861  1996.92963956277 774.970664714495  L 1998.67519062043 773.994421145961  Z M 2002.74584238545 780.816920810646  C 2001.87745754051 779.444895005289  2001.02947594757 778.060061288482  2000.2021775482 776.66287683112  C 2000.01910415253 776.350114540167  1999.83711719937 776.036717572527  1999.65621997933 775.722691594896  L 1997.92320034574 776.721011658598  C 1998.10724550773 777.040502261658  1998.29240443007 777.359349979996  1998.4786737341 777.677548995507  C 1999.31686226225 779.093223016177  2000.17602903146 780.4963708657  2001.05588982868 781.886528381611  L 2002.74584238545 780.816920810646  Z M 2007.15939061941 787.430211421802  C 2006.01614823087 785.803888753918  2004.90254026379 784.156934667865  2003.81911773262 782.490164078371  L 2002.14224045195 783.580156090066  C 2003.23886187821 785.267232266289  2004.36603647726 786.934250522684  2005.52320652185 788.580386016755  L 2007.15939061941 787.430211421802  Z M 2011.88795453589 793.822058104021  C 2010.66731220958 792.252994405418  2009.47527065163 790.661888692391  2008.31241968553 789.049528245815  L 2006.69028247111 790.219430317613  C 2007.86729997656 791.851433494323  2009.07386369095 793.46192299973  2010.30937660519 795.050101961833  L 2011.88795453589 793.822058104021  Z M 2016.92044317878 799.977468633003  C 2015.62526395953 798.469344178894  2014.35758477178 796.937818814161  2013.11803286459 795.38365033924  L 2011.5544404768 796.630718438761  C 2012.80909333964 798.203820714745  2014.09221614624 799.754004028757  2015.40317400601 801.28050134839  L 2016.92044317878 799.977468633003  Z M 2022.24505272953 805.882005350917  C 2020.87837449017 804.438357482114  2019.53803104348 802.970004693844  2018.22468559289 801.477673528706  L 2016.72330547385 802.798982628865  C 2018.05265087676 804.309494256329  2019.40932318135 805.79573538812  2020.79265110465 807.256970630493  L 2022.24505272953 805.882005350917  Z M 2027.84929419323 811.521819030262  C 2026.41432250919 810.146033856239  2025.00445861014 808.744297699889  2023.62040009828 807.317304141807  L 2022.18475376981 808.709755081534  C 2023.58567370238 810.154133120502  2025.01271339867 811.57294605711  2026.46516675785 812.965491861146  L 2027.84929419323 811.521819030262  Z M 2033.72002269184 816.883681357547  C 2032.22012332242 815.578985814273  2030.74404583939 814.24715409442  2029.29252060754 812.888845189811  L 2027.92597541132 814.349171943208  C 2029.39518398344 815.724028571567  2030.8892439168 817.072085454414  2032.4074159489 818.39267557171  L 2033.72002269184 816.883681357547  Z M 2039.8352181609 821.980260957486  C 2038.28290934988 820.732759688011  2036.74669228134 819.465366104939  2035.22694729124 818.178393989018  L 2033.93445772633 819.704654361503  C 2035.46727546986 821.002696932822  2037.01670698365 822.280992557967  2038.58236866008 823.539224757033  L 2039.8352181609 821.980260957486  Z M 2046.12862363018 826.862867694614  C 2044.5344942261 825.669270817467  2042.95576573602 824.455242098401  2041.39282902087 823.221082106126  L 2040.15337799337 824.79071937328  C 2041.72975899453 826.0354955343  2043.32206761049 827.259967254136  2044.92990961818 828.463831378593  L 2046.12862363018 826.862867694614  Z M 2052.58558328752 831.527036745349  C 2050.95150425686 830.388745137873  2049.33211723629 829.229506140193  2047.72782315296 828.049606756228  L 2046.54286535741 829.66077869701  C 2048.16095948029 830.850827503291  2049.79427636894 832.020038203901  2051.44241164744 833.168121326146  L 2052.58558328752 831.527036745349  Z M 2059.1985188553 835.967293959362  C 2057.52640805186 834.885643589289  2055.86826311115 833.782554865867  2054.22449455601 832.658300891342  L 2053.0954207304 834.309116537113  C 2054.75332888208 835.443041275544  2056.42573708412 836.555618700676  2058.1122312824 837.646573361058  L 2059.1985188553 835.967293959362  Z M 2065.9596689932 840.178427982773  C 2064.25148890712 839.154688340265  2062.55653214528 838.109044542612  2060.87521834433 837.041755469851  L 2059.80335363785 838.730277323723  C 2061.49912999725 839.80674715179  2063.20866667346 840.861385513419  2064.93154042013 841.893931301698  L 2065.9596689932 840.178427982773  Z M 2072.86109840729 844.155496374506  C 2071.11885386185 843.190868982201  2069.38907458243 842.203897340991  2067.67218882702 841.194825804872  L 2066.65879124479 842.919072115679  C 2068.39044554642 843.936823623411  2070.13510428138 844.932285134305  2071.89233550781 845.905210192417  L 2072.86109840729 844.155496374506  Z M 2079.89470716346 847.893831407038  C 2078.12044296201 846.989448409876  2076.35787133837 846.062307294589  2074.60742866928 845.112637602381  L 2073.65368759587 846.870584690576  C 2075.41918746571 847.828423383375  2077.19692062262 848.763539709813  2078.98644693618 849.675702154186  L 2079.89470716346 847.893831407038  Z M 1978.48775508114 674.048694810033  C 1978.6282716497 672.06323246046  1978.79738973373 670.07989789657  1978.9950566694 668.099308734185  L 1977.0049433306 667.900691265815  C 1976.80536845669 669.900397645741  1976.63461799616 671.90287592661  1976.49274512117 673.907502531132  L 1978.48775508114 674.048694810033  Z M 2076.39056822915 855.797212272371  L 2086 852  L 2083.00407677531 842.111398277219  L 2076.39056822915 855.797212272371  Z " fill-rule="nonzero" fill="#009999" stroke="none" />
  </g>
</svg>