<?xml version="1.0" encoding="utf-8"?>
<svg version="1.1" xmlns:xlink="http://www.w3.org/1999/xlink" width="168px" height="16px" viewBox="2184 690  168 16" xmlns="http://www.w3.org/2000/svg">
  <g transform="matrix(0.6560590289905 -0.754709580222757 0.75470958022278 0.656059028990494 253.270835254047 1951.75212570985 )">
    <path d="M 2227.00971997594 646.50456539494  C 2225.96070591162 644.807389617717  2224.92393883499 643.102674518712  2223.89949954378 641.390552950436  L 2222.18326181903 642.417455123076  C 2223.21263576541 644.137823865799  2224.2543968793 645.850750462747  2225.30846397382 647.556101421546  L 2227.00971997594 646.50456539494  Z M 2231.27074171248 653.252495391983  C 2230.18930128033 651.575795443394  2229.11996066584 649.891322175495  2228.06280320531 648.19920686337  L 2226.36661983427 649.258905863945  C 2227.4288695512 650.959171981739  2228.50336110747 652.651759244019  2229.59001076546 654.336535743507  L 2231.27074171248 653.252495391983  Z M 2235.66067324999 659.917280953436  C 2234.54720599062 658.261676294048  2233.44568690859 656.598067189727  2232.35620184794 654.926583289561  L 2230.68069948938 656.018687609885  C 2231.77543252629 657.698222935585  2232.88225755164 659.369845533037  2234.00108830792 661.033425128723  L 2235.66067324999 659.917280953436  Z M 2240.17789271838 666.496459759234  C 2239.03281000476 664.862562055903  2237.89951941392 663.220431739341  2236.77810926586 661.570196784611  L 2235.12390693791 662.694302944278  C 2236.25071884322 664.352486969779  2237.38946841862 666.002527317641  2238.54006691865 667.644295396301  L 2240.17789271838 666.496459759234  Z M 2244.82073122071 672.987601116924  C 2243.64445610626 671.376014016886  2242.47981270333 669.755969176746  2241.32689177539 668.127592850523  L 2239.69460062683 669.283285545977  C 2240.85307509734 670.919505651449  2242.02332850919 672.547354138591  2243.20526966176 674.166704145303  L 2244.82073122071 672.987601116924  Z M 2249.58747344983 679.388306859684  C 2248.38044051203 677.799625767408  2247.18487457716 676.202264932956  2246.00086881857 674.596348842525  L 2244.39109190304 675.783201100492  C 2245.58080093774 677.396852780715  2246.7821258333 679.001907994861  2247.99497296757 680.598241657103  L 2249.58747344983 679.388306859684  Z M 2254.47635832206 685.696212232336  C 2253.23901350195 684.131024089626  2252.01296673969 682.556937409446  2250.79831358404 680.974074864121  L 2249.21164563726 682.191648199356  C 2250.43214969547 683.782135287097  2251.66410224251 685.363804236936  2252.90740726939 686.936531785653  L 2254.47635832206 685.696212232336  Z M 2259.48557962785 691.908986765009  C 2258.21838006527 690.367869834166  2256.96230544136 688.817638858112  2255.71745364499 687.258414650042  L 2254.15448086502 688.506259227329  C 2255.40532902875 690.072994113524  2256.66745407965 691.630692447934  2257.94075765729 693.179232835366  L 2259.48557962785 691.908986765009  Z M 2264.6132866991 698.024335134131  C 2263.31670056379 696.507858784293  2262.03106213781 694.982056248678  2260.75647161405 693.447046436775  L 2259.2177714447 694.724701237119  C 2260.49850158529 696.26710508805  2261.79033284508 697.800257311826  2263.0931645486 699.324038426253  L 2264.6132866991 698.024335134131  Z M 2269.85795037153 704.040705447881  C 2268.53329302801 702.548083904078  2267.21839540119 701.046829338128  2265.91334157091 699.537037746278  L 2264.4002622972 700.844933426936  C 2265.71100912085 702.361311132948  2267.03164268227 703.869114572229  2268.36207853491 705.368247329859  L 2269.85795037153 704.040705447881  Z M 2275.20826806293 709.964742630064  C 2273.85782463815 708.495409887872  2272.51698914807 707.017275513319  2271.18584733105 705.530434024195  L 2269.69576813561 706.864474500089  C 2271.03271674875 708.357801988878  2272.37940132134 709.842384380351  2273.73573574101 711.318126744379  L 2275.20826806293 709.964742630064  Z M 2280.66091355815 715.794731741407  C 2279.28509342347 714.349133212118  2277.91872652896 712.894567108368  2276.5619002455 711.43112644084  L 2275.09527282867 712.790907312968  C 2276.45801795074 714.260731899518  2277.83034530259 715.721643209116  2279.21216713212 717.173547825255  L 2280.66091355815 715.794731741407  Z M 2286.21423395051 721.528905487872  C 2284.81345416996 720.107479388029  2283.4219700694 718.676922490038  2282.03987062576 717.237326269284  L 2280.59713957875 718.62243533574  C 2281.98526810926 720.068311459662  2283.38282223513 721.505108828951  2284.78971259117 722.932735569043  L 2286.21423395051 721.528905487872  Z M 2291.86654581491 727.16552562075  C 2290.44123101878 725.768702839336  2289.02505152448 724.362588803873  2287.61809788822 722.94727342694  L 2286.19970055832 724.357290807868  C 2287.61279170211 725.778780168481  2289.03514894956 727.191028048873  2290.46668134951 728.593944144327  L 2291.86654581491 727.16552562075  Z M 2297.61613571814 732.702883463584  C 2296.16671797414 731.331087431295  2294.72627238467 729.949842505706  2293.29489105754 728.559237009108  L 2291.90125741556 729.993735273983  C 2293.3388828103 731.390406963135  2294.78561200817 732.77767724801  2296.24135249945 734.155457420948  L 2297.61613571814 732.702883463584  Z M 2303.46126073824 738.139300430137  C 2301.9881794207 736.792946991155  2300.5239043905 735.436989883889  2299.06852927928 734.071515813681  L 2297.7000817892 735.530060110879  C 2299.16180563534 736.901490743658  2300.63246822429 738.263362897973  2302.11197551596 739.615589490226  L 2303.46126073824 738.139300430137  Z M 2309.40014899291 743.473128533234  C 2307.90385064943 742.152625819076  2306.41619005665 740.822367572945  2304.93726234152 739.482438856842  L 2303.59441583244 740.964587045464  C 2305.07979502524 742.31036088848  2306.57394519084 743.646422076365  2308.07677078731 744.972685176028  L 2309.40014899291 743.473128533234  Z M 2315.43100017659 748.702750884335  C 2313.91193839278 747.408499190187  2312.40134320459 746.104343057652  2310.89931120545 744.790365879608  L 2309.58247274581 746.295668663505  C 2311.09105700966 747.615377760905  2312.60824181754 748.925222970836  2314.13393015453 750.225120536513  L 2315.43100017659 748.702750884335  Z M 2321.55198610623 753.826582183672  C 2320.01062136816 752.558973847024  2318.47754950409 751.281315167991  2316.95286854463 749.993687845051  L 2315.66243731884 751.521688909025  C 2317.19376934383 752.814933206225  2318.73352887684 754.098165373668  2320.28161745954 755.371303356411  L 2321.55198610623 753.826582183672  Z M 2327.76089652111 758.845611612915  C 2326.64960892273 757.961303410461  2325.54173369515 757.072715438567  2324.43729552343 756.179867496257  C 2323.98954654483 755.817696792088  2323.54248034111 755.454682791003  2323.09609929291 755.090827426062  L 2321.83246648033 756.641063574195  C 2322.28086534751 757.006563709367  2322.72995257578 757.371218544352  2323.17972577278 757.735026136576  C 2324.28823059787 758.631162537932  2325.40018535784 759.523023009855  2326.51556527377 760.410587678041  L 2327.76089652111 758.845611612915  Z M 2334.0451966056 763.77263022156  C 2332.46524717482 762.552243043599  2330.89192117197 761.323304944923  2329.32528786816 760.085870033773  L 2328.08561721992 761.655333854285  C 2329.65791923512 762.897246304212  2331.23693816628 764.130631196805  2332.82260449156 765.355434227966  L 2334.0451966056 763.77263022156  Z M 2340.40002134637 768.608345518785  C 2338.80260590328 767.410911190691  2337.21168966195 766.204831145798  2335.62734266796 764.990158485942  L 2334.41047539674 766.577368000858  C 2336.00055519741 767.796435836497  2337.5972280156 769.006879965615  2339.2004235523 770.208647094252  L 2340.40002134637 768.608345518785  Z M 2346.82404432681 773.351748165473  C 2345.2094962934 772.177516622827  2343.60132187904 770.994546371883  2341.99959188917 769.802889496987  L 2340.80578198671 771.407513414542  C 2342.41330768196 772.603482184825  2344.0273011202 773.790732899436  2345.64769123984 774.969213285586  L 2346.82404432681 773.351748165473  Z M 2353.31592468682 778.001848090552  C 2351.68458106109 776.851064425896  2350.05948414143 775.691450885482  2348.4407054782 774.523058525207  L 2347.27020212357 776.144761918801  C 2348.89483818111 777.317381994032  2350.52581535719 778.48119148417  2352.16306184234 779.636139148417  L 2353.31592468682 778.001848090552  Z M 2359.8743074027 782.557674697645  C 2358.22650868837 781.430579109371  2356.58482846321 780.294564320857  2354.94933900772 779.149680348987  L 2353.8023865153 780.78812472709  C 2355.44379383149 781.937151351082  2357.09141431817 783.077276699512  2358.74517543306 784.20845057436  L 2359.8743074027 782.557674697645  Z M 2366.49782356999 787.018277067658  C 2364.83391370539 785.915104809842  2363.1759928359 784.80292588893  2361.52413395721 783.681789272437  L 2360.40097172572 785.336632649242  C 2362.05880769633 786.461825990372  2363.72272759245 787.578029223356  2365.39265815431 788.685193203512  L 2366.49782356999 787.018277067658  Z M 2373.18509068922 791.382724157266  C 2371.50541697543 790.303705490536  2369.83160151271 789.215594577822  2368.16371799655 788.118439326962  L 2367.06458045906 789.789336293764  C 2368.73849905071 790.890461494991  2370.41837105316 791.982509632041  2372.10412250415 793.065432623659  L 2373.18509068922 791.382724157266  Z M 2379.93471295439 795.650104993242  C 2378.23962598286 794.59546513676  2376.55026529558 793.531649349193  2374.86670527248 792.458704468703  L 2373.79182184747 794.145306265999  C 2375.48147367 795.222133493968  2377.17694714591 796.289798596305  2378.87816762602 797.348254565303  L 2379.93471295439 795.650104993242  Z M 2386.74528154442 799.819528862602  C 2385.03513512372 798.789487947041  2383.33058182524 797.750189330549  2381.63169669781 796.701678771834  L 2380.58129174132 798.403633362115  C 2382.28632412061 799.455937855087  2383.99704518067 800.498997073305  2385.71337960113 801.532765092502  L 2386.74528154442 799.819528862602  Z M 2393.61537491711 803.890125498519  C 2391.89052599914 802.884898520115  2390.1711358739 801.870334003256  2388.4572802435 800.846476617646  L 2387.43157300226 802.563428758877  C 2389.15163005385 803.590990873618  2390.87724162629 804.60922649425  2392.60833174359 805.618090789454  L 2393.61537491711 803.890125498519  Z M 2400.54279432435 807.866431724971  C 2399.14414576412 807.074472536188  2397.74820350639 806.277743345471  2396.35499192906 805.476258066425  C 2396.01713254737 805.281940200208  2395.67947879312 805.087265028891  2395.34203123335 804.892232879402  L 2394.34123579906 806.623824199171  C 2394.67987515783 806.819545164197  2395.01872142144 807.014907921161  2395.35777402101 807.209912142095  C 2396.75489993599 808.013648991534  2398.15476414533 808.812616489948  2399.55734220357 809.606800685176  L 2400.54279432435 807.866431724971  Z M 2407.51653502136 811.763288602702  C 2405.76760859024 810.798938910903  2404.02277860794 809.827178564115  2402.28209211997 808.848033763729  L 2401.30156305981 810.591181136212  C 2403.04717653908 811.573097393689  2404.79694524082 812.547608295976  2406.55082198629 813.514687567497  L 2407.51653502136 811.763288602702  Z M 2414.53388674312 815.581053347648  C 2412.77416943224 814.636538141136  2411.01846452566 813.684566440007  2409.26681936212 812.725163912093  L 2408.30606048495 814.479285452905  C 2410.06266365819 815.441403557655  2411.82333806553 816.39606980277  2413.58803623421 817.343258447741  L 2414.53388674312 815.581053347648  Z M 2421.59395250979 819.319237961182  C 2419.82366925172 818.394677970845  2418.05731384056 817.462616599373  2416.29493390221 816.523078977762  L 2415.35406801522 818.287950469604  C 2417.12143634794 819.230147440695  2418.89279140594 820.16484700019  2420.66808542862 821.092023946009  L 2421.59395250979 819.319237961182  Z M 2428.6958298817 822.977364616861  C 2426.91520695958 822.072878022847  2425.1384268249 821.160846120031  2423.36553738465 820.241293499359  L 2422.44468475228 822.016689350839  C 2424.22259233388 822.938844753684  2426.00440162249 823.853458151386  2427.79006457549 824.760504883373  L 2428.6958298817 822.977364616861  Z M 2435.83861107468 826.554965721498  C 2434.04787609329 825.670668138111  2432.26089834869 824.778782282721  2430.47772602282 823.879332203078  L 2429.57700435132 825.665025477548  C 2431.36522392412 826.567021439373  2433.15725968686 827.461431766514  2434.95306332118 828.348232343133  L 2435.83861107468 826.554965721498  Z M 2443.02138307609 830.051583974935  C 2441.22076493279 829.187588435857  2439.42381799535 828.315962631531  2437.63059071451 827.436730063439  L 2436.75011513694 829.232492508001  C 2438.54841812516 830.114213732874  2440.35045129837 830.988306663107  2442.15616606879 831.854747730746  L 2443.02138307609 830.051583974935  Z M 2450.24322776158 833.466772428495  C 2448.43295661698 832.623189372326  2446.62627017812 831.771935033022  2444.82321715821 830.913032362725  L 2443.96310021971 832.718634437409  C 2445.77125675858 833.579968220943  2447.58305700084 834.433632025023  2449.39845209521 835.279602832453  L 2450.24322776158 833.466772428495  Z M 2457.50322201237 836.800094542112  C 2455.68352926105 835.977031798308  2453.86733425695 835.146257733951  2452.05468596992 834.307794749108  L 2451.21503761332 836.123005656212  C 2453.03281657867 836.963841900051  2454.85415229991 837.796967459957  2456.67899566881 838.622359872567  L 2457.50322201237 836.800094542112  Z M 2464.8004378333 840.051124240133  C 2462.97155607401 839.248687015115  2461.14608465652 838.438499417908  2459.32407280067 837.620583293445  L 2458.50500035246 839.445171007036  C 2460.33216939007 840.265402232852  2462.16280778151 841.077883055893  2463.99686616773 841.882591569434  L 2464.8004378333 840.051124240133  Z M 2472.13394247143 843.219445965776  C 2470.29610547761 842.4377368296  2468.4615909841 841.648239260213  2466.63044845472 840.850974544749  L 2465.8320566113 842.68470584032  C 2467.66838216667 843.484227203573  2469.50808923049 844.27595943595  2471.35112819889 845.059881190043  L 2472.13394247143 843.219445965776  Z M 2475.83398909624 844.780828756279  C 2475.21324687271 844.520957407531  2474.59287621035 844.260199417457  2473.97287900829 843.998555584309  L 2473.1952698226 845.841196068593  C 2475.04051717092 846.619905371994  2476.88905774987 847.390787811956  2478.74084171753 848.153822603302  L 2475.83398909624 844.780828756279  Z M 2222.87918228448 639.675984000268  C 2221.8629821486 637.958959419831  2220.85917164576 636.234632300561  2219.86782900527 634.50313702331  L 2218.13217099473 635.49686297669  C 2219.12828886603 637.236698750218  2220.13693465655 638.969331837259  2221.15802976013 640.6946272096  L 2222.87918228448 639.675984000268  Z M 2471.6320409356 852.359052989786  L 2481 848  L 2477.42431700347 838.305955895069  L 2471.6320409356 852.359052989786  Z " fill-rule="nonzero" fill="#027db4" stroke="none" />
  </g>
</svg>