<?xml version="1.0" encoding="utf-8"?>
<svg version="1.1" xmlns:xlink="http://www.w3.org/1999/xlink" width="170px" height="14px" viewBox="2416 666  170 14" xmlns="http://www.w3.org/2000/svg">
  <g transform="matrix(0.866025403784439 -0.500000000000002 0.500000000000002 0.86602540378444 -1.42953486488386 1340.66490325308 )">
    <path d="M 2442.4871252529 638.938786397189  C 2440.61893064444 638.212468381262  2438.74595180707 637.498516607236  2436.86831167913 636.796977937392  L 2436.16831906916 638.670480098049  C 2438.03769692645 639.368931753361  2439.9024340045 640.079741890881  2441.76240790588 640.802863854522  L 2442.4871252529 638.938786397189  Z M 2449.93386484523 641.909805915832  C 2448.07877263285 641.150647277039  2446.21867880415 640.403768565739  2444.35370545179 639.669218805492  L 2443.62077450168 641.530082105782  C 2445.47754132161 642.261399591199  2447.32945008952 643.004991776  2449.17637924993 643.760809852325  L 2449.93386484523 641.909805915832  Z M 2457.3270391661 645.011718389998  C 2455.48562659653 644.219955354789  2453.63899657961 643.440382111545  2451.78727032427 642.673049829831  L 2451.02162909923 644.520695227225  C 2452.865207114 645.284650979601  2454.70371131556 646.060793829006  2456.53702102837 646.849072831051  L 2457.3270391661 645.011718389998  Z M 2464.66434769062 648.243558601428  C 2462.83718775394 647.41943754173  2461.00459616235 646.607412345373  2459.16669320341 645.80753631203  L 2458.36857994706 647.641388877002  C 2460.19839549278 648.437745177172  2462.02292304293 649.24619717977  2463.84204283942 650.066691819735  L 2464.66434769062 648.243558601428  Z M 2471.94350727758 651.604320902407  C 2470.13116852886 650.748098258933  2468.31318560792 649.903873786368  2466.48967784332 649.071702897817  L 2465.65934090359 650.891191992735  C 2467.47482459882 651.719701039491  2469.28480776159 652.560210630285  2471.08917158849 653.412665595865  L 2471.94350727758 651.604320902407  Z M 2479.16225287992 655.092959528696  C 2477.36529926239 654.2049017312  2475.56249071153 653.328740678679  2473.75394555996 652.464533880518  L 2472.89164331176 654.269093337216  C 2474.69223023467 655.12949732442  2476.48710579988 656.001802963094  2478.27615219553 656.885952996927  L 2479.16225287992 655.092959528696  Z M 2486.31833824952 658.708388924936  C 2484.53732891898 657.788772309253  2482.75025571595 656.880947310746  2480.95723594014 655.984973517123  L 2480.063236705 657.77404181307  C 2481.8483665692 658.666073009891  2483.62757602759 659.569903262158  2485.40074829667 660.485473244385  L 2486.31833824952 658.708388924936  Z M 2493.40953663616 662.449484082443  C 2491.64502578709 661.49859480454  2489.87424401322 660.559388346817  2488.09730754492 659.631926356791  L 2487.17188950746 661.404946789825  C 2488.94100683629 662.328327624002  2490.70399655353 663.263401246157  2492.46074294018 664.210106279985  L 2493.40953663616 662.449484082443  Z M 2500.43364148042 666.315080889273  C 2498.68617817348 665.333214836195  2496.93223884073 664.362919170952  2495.17193860707 663.404257581729  L 2494.21538972849 665.160678443277  C 2495.96794402793 666.115121587565  2497.7141654166 667.08114761386  2499.45393927627 668.05869311428  L 2500.43364148042 666.315080889273  Z M 2507.38824516706 670.307251176409  C 2506.61877709597 669.855356161763  2505.84781948258 669.40600227776  2505.0753849269 668.959196868343  C 2504.11193216328 668.40285259317  2503.1464399204 667.850047697557  2502.17892772241 667.300793360303  L 2501.19154565082 669.040068107063  C 2502.15458542035 669.586783457481  2503.11561502177 670.137032164854  2504.07461502991 670.690803107071  C 2504.84302508279 671.135282476421  2505.60996629196 671.58229633698  2506.37542612987 672.03183738704  L 2507.38824516706 670.307251176409  Z M 2514.26303396514 674.436658692613  C 2512.5545933876 673.387340280487  2510.83839411226 672.350706817855  2509.11457773028 671.326843829823  L 2508.09324430433 673.046401340645  C 2509.80855870753 674.065214567295  2511.51629357214 675.096735283684  2513.21630800541 676.140878386559  L 2514.26303396514 674.436658692613  Z M 2521.05481619656 678.701212781147  C 2519.36746078084 677.618313876312  2517.67209733021 676.547944006228  2515.96886571681 675.490191479352  L 2514.91372647971 677.18921507846  C 2516.60855763979 678.241750698455  2518.29555944342 679.306841432069  2519.97459270829 680.384399406389  L 2521.05481619656 678.701212781147  Z M 2527.76093546896 683.099245495589  C 2526.09532517117 681.983189639947  2524.42146063342 680.879502003978  2522.73947995415 679.788273644942  L 2521.65094759048 681.466098812606  C 2523.32463262748 682.551945159695  2524.99024155231 683.650189333725  2526.64763694765 684.760740726531  L 2527.76093546896 683.099245495589  Z M 2534.37876889438 687.629036683544  C 2532.73555516566 686.480260387291  2531.08384422037 685.343686658213  2529.42377232914 684.219409266719  L 2528.30227258416 685.875379774309  C 2529.95415688873 686.99411215379  2531.59772148413 688.125080224511  2533.23283077178 689.268190678499  L 2534.37876889438 687.629036683544  Z M 2540.90572811506 692.288814659427  C 2539.28555364691 691.107767230361  2537.65664230889 689.938751943254  2536.01912849073 688.781865245123  L 2534.86510000385 690.415333411773  C 2536.49453749331 691.566514266612  2538.11541493058 692.729763891362  2539.72759858889 693.90498631478  L 2540.90572811506 692.288814659427  Z M 2547.33926031587 697.076756897402  C 2545.74275878861 695.863900265117  2544.13728415544 694.662900643649  2542.52296887244 693.473857118762  L 2541.33686300566 695.084184064692  C 2542.94321637669 696.26736314663  2544.54077270057 697.462439356876  2546.1294001745 698.669314098359  L 2547.33926031587 697.076756897402  Z M 2553.6768492227 701.990990744208  C 2552.10464505778 700.746799279499  2550.52323506044 699.514285056943  2548.93274970133 698.293549762347  L 2547.71503036271 699.880105658737  C 2549.29767134065 701.094820204436  2550.87128171711 702.321255583629  2552.43573166493 703.559310612027  L 2553.6768492227 701.990990744208  Z M 2559.91601608665 707.029594151585  C 2558.36872420238 705.754554480883  2556.8119973597 704.49100771646  2555.2459639929 703.239058104441  L 2553.99710745513 704.801222419771  C 2555.55541703964 706.04699733178  2557.10446600041 707.304312198232  2558.64412653664 708.573063287196  L 2559.91601608665 707.029594151585  Z M 2566.05432065351 712.190596428026  C 2564.53254622452 710.885207243054  2563.00111140135 709.59112213342  2561.46014253162 708.308447864749  L 2560.18063724573 709.845609607499  C 2561.71400595295 711.121957640079  2563.23788763616 712.409660234561  2564.75215657093 713.708611151942  L 2566.05432065351 712.190596428026  Z M 2572.08849542042 717.474449364568  C 2571.48123964306 716.93124743928  2570.87234812909 716.389876910118  2570.26182917448 715.850345153096  C 2569.36895927688 715.062865437383  2568.47262580618 714.279321558813  2567.57285483669 713.499736310648  L 2566.26320124098 715.01129426827  C 2567.15828504839 715.786818435855  2568.04995021779 716.566279516167  2568.93817082512 717.349654847359  C 2569.54543004136 717.886308541023  2570.15107115778 718.424790444985  2570.75508592956 718.965093228703  L 2572.08849542042 717.474449364568  Z M 2578.01255104494 722.880029112441  C 2576.5449419813 721.51402692601  2575.06722224693 720.1589279351  2573.57951375777 718.814843939098  L 2572.2387504638 720.298876886689  C 2573.71912147424 721.636331769671  2575.18955299511 722.984747320863  2576.64992371176 724.344012292279  L 2578.01255104494 722.880029112441  Z M 2583.82854876232 728.401704402109  C 2582.38824042336 727.006946277649  2580.93760777202 725.622889270376  2579.47677048948 724.249647568791  L 2578.10692152713 725.706875697927  C 2579.56055386156 727.073344478718  2581.00403189471 728.450575223382  2582.4372365357 729.838454306598  L 2583.82854876232 728.401704402109  Z M 2589.53421382767 734.037315603664  C 2588.12176954477 732.614347057021  2586.69879134587 731.201873363822  2585.26539663059 729.800011057026  L 2583.86699777326 731.229864418681  C 2585.29332288903 732.624812645927  2586.70928286337 734.030319923502  2588.1147608757 735.446270293195  L 2589.53421382767 734.037315603664  Z M 2595.12731464926 739.784658524748  C 2593.74328685565 738.334036105386  2592.34851966244 736.893698170994  2590.94312814174 735.463763553408  L 2589.51672632925 736.865682905338  C 2590.91518636407 738.288564988832  2592.30307447133 739.7217990793  2593.6802761464 741.165266930936  L 2595.12731464926 739.784658524748  Z M 2600.60566366134 745.641485272647  C 2599.25059367603 744.163776345965  2597.88458300791 742.696137513355  2596.50774435655 741.238689858995  L 2595.05389748116 742.612126884466  C 2596.42394547131 744.06238630857  2597.78321888262 745.522786647403  2599.13160557125 746.993207413865  L 2600.60566366134 745.641485272647  Z M 2605.9671181797 751.605505133486  C 2604.64153599579 750.101287658949  2603.3048161249 748.606921948928  2601.9570688501 747.122531292697  L 2600.47634553838 748.466948814945  C 2601.81744563261 749.944018356224  2603.14757271086 751.431013753685  2604.46661703393 752.927812326064  L 2605.9671181797 751.605505133486  Z M 2611.20958123978 757.674385468171  C 2609.9140053171 756.144247773211  2608.60709905945 754.623739660001  2607.28897029025 753.112986574695  L 2605.78194968062 754.42785876702  C 2607.09357734974 755.931160716114  2608.39403785747 757.444169580628  2609.68322391223 758.966760533172  L 2611.20958123978 757.674385468171  Z M 2616.33100241677 763.845752624725  C 2615.06593947914 762.290293174635  2613.78935799011 760.744237357279  2612.50136327116 759.207712726508  L 2610.96863478741 760.492525317941  C 2612.25027702945 762.021471705488  2613.52056233238 763.559902271165  2614.77938589418 765.107690090223  L 2616.33100241677 763.845752624725  Z M 2621.32937862757 770.11719286667  C 2620.09532346466 768.537020030581  2618.84956603899 766.966021200246  2617.59220912899 765.404325987382  L 2616.03437224974 766.658576463821  C 2617.28552779058 768.21256929046  2618.52514105649 769.775819848473  2619.75310977602 771.348199165452  L 2621.32937862757 770.11719286667  Z M 2626.20205714117 776.48697309709  C 2625.76016849816 775.897286775123  2625.31684644793 775.308675955873  2624.87209492323 774.721145860977  C 2624.10596302882 773.710621061471  2623.33509515323 772.703695612031  2622.55951673924 771.700402746615  L 2620.97718076347 772.923600547372  C 2621.74878278057 773.921749522038  2622.51569932916 774.92351174951  2623.27790510681 775.928854179209  C 2623.72054936788 776.513602507682  2624.16177140235 777.099426077736  2624.6015672987 777.686319695928  L 2626.20205714117 776.48697309709  Z M 2630.95318356676 782.945121842993  C 2629.77966886542 781.320144242804  2628.59541761149 779.702947338177  2627.40050753665 778.093637278425  L 2625.79474409496 779.285913995183  C 2626.98439614919 780.88814253003  2628.16343628513 782.498223204999  2629.33178711296 784.116050337647  L 2630.95318356676 782.945121842993  Z M 2635.58965363224 789.486072299011  C 2634.44498496272 787.840647553757  2633.28944416506 786.202812908281  2632.12310708654 784.572675866639  L 2630.4965625617 785.736442556629  C 2631.65776735079 787.359406427432  2632.8082233664 788.990034029917  2633.94785509503 790.628218333112  L 2635.58965363224 789.486072299011  Z M 2640.11002461296 796.107789125698  C 2638.99455816037 794.442429240125  2637.86808738722 792.78446649684  2636.73068623266 791.134009721  L 2635.08386675453 792.268904256383  C 2636.2162629478 793.912098447475  2637.33777685713 795.562765577128  2638.44833486876 797.220797299079  L 2640.11002461296 796.107789125698  Z M 2644.51288991069 802.808211851634  C 2643.42697277337 801.123435033747  2642.3299225472 799.4458600988  2641.22181124032 797.775597159383  L 2639.55522924767 798.881266396433  C 2640.65846447879 800.544179597094  2641.75068730179 802.214372617912  2642.83182602543 803.891735830922  L 2644.51288991069 802.808211851634  Z M 2648.79687949128 809.585255514584  C 2647.7408495727 807.881586014275  2646.67356126131 806.184920896623  2645.59508461173 804.495371527258  L 2643.90925869281 805.571471416249  C 2644.98298966945 807.253586179848  2646.04558154046 808.942785379916  2647.09696455954 810.638958140964  L 2648.79687949128 809.585255514584  Z M 2652.96066031102 816.436811310269  C 2651.93484621469 814.714779256255  2650.89765192487 812.999551905102  2649.84914552082 811.29124184076  L 2648.14460025199 812.337437533023  C 2649.18849286262 814.038230438005  2650.22112313624 815.745910191281  2651.24242329321 817.460364704402  L 2652.96066031102 816.436811310269  Z M 2657.00293673137 823.360747248564  C 2656.00765765861 821.620888483435  2655.0008801328 819.887632623928  2653.98267023673 818.161093437347  L 2652.25993601923 819.177059389464  C 2653.27366543708 820.896001202199  2654.27601279104 822.621630132111  2655.26691228918 824.353832912607  L 2657.00293673137 823.360747248564  Z M 2660.9224509222 830.354908816903  C 2659.95801657276 828.597764730356  2658.98196908868 826.847019697573  2657.9943725357 825.10278863381  L 2656.2539854306 826.088208708917  C 2657.23723621472 827.824764548387  2658.20898874987 829.567805693166  2659.16917925221 831.317217733622  L 2660.9224509222 830.354908816903  Z M 2664.71798325314 837.417119650699  C 2663.78469372885 835.643237011059  2662.83968000201 833.875547582207  2661.88300410129 832.114167391459  L 2660.1255056627 833.068734957611  C 2661.07797185619 834.822364461934  2662.01882719344 836.582275441535  2662.94800991871 838.348352379621  L 2664.71798325314 837.417119650699  Z M 2666.17253588204 840.205118898738  C 2665.99789878898 839.867542475813  2665.8228383281 839.530185240064  2665.64735491285 839.193047988255  L 2663.87329201937 840.116466013845  C 2664.79467724449 841.886623508267  2665.70434261909 843.662856693441  2666.60222843464 845.445048981149  L 2666.17253588204 840.205118898738  Z M 2434.98913758183 636.099584322532  C 2433.10842190112 635.406332936955  2431.22314086754 634.725530259675  2429.333418227 634.05722097716  L 2428.666581773 635.94277902284  C 2430.54798897564 636.608147511707  2432.42497411593 637.285954420045  2434.2974139925 637.976155258032  L 2434.98913758183 636.099584322532  Z M 2658.06222300617 843.171468858067  L 2668 846  L 2671.63441963252 836.327823722928  L 2658.06222300617 843.171468858067  Z " fill-rule="nonzero" fill="#009999" stroke="none" />
  </g>
</svg>