<?xml version="1.0" encoding="utf-8"?>
<svg version="1.1" xmlns:xlink="http://www.w3.org/1999/xlink" width="274px" height="16px" viewBox="640 548  274 16" xmlns="http://www.w3.org/2000/svg">
  <g transform="matrix(-0.920504853452438 0.390731128489275 -0.390731128489279 -0.920504853452443 1709.47877857258 764.202611683392 )">
    <path d="M 857.104116246711 589.977485199023  C 863.033259319722 593.010439358379  868.930945128703 596.104500178127  874.796231588615 599.259173418917  L 875.743602818819 597.497785400285  C 869.866198275363 594.336594388513  863.956327443582 591.236141027206  858.014934354891 588.196920576828  L 857.104116246711 589.977485199023  Z M 833.824762230742 578.460684205666  C 839.833139155154 581.333479925376  845.811709504735 584.268204245114  851.759518274106 587.264388377636  L 852.659294076825 585.478218311589  C 846.69919672718 582.475843857445  840.70827424177 579.535056196256  834.687483599128 576.656325083836  L 833.824762230742 578.460684205666  Z M 810.244815050476 567.572565934023  C 816.328100584116 570.283135178516  822.383251688944 573.056410382216  828.409301126717 575.891948547451  L 829.260833781559 574.082282241819  C 823.222334112919 571.240885660527  817.154672651206 568.461880680321  811.058818633005 565.74571121412  L 810.244815050476 567.572565934023  Z M 786.380451017958 557.317726988471  C 786.880946312116 557.525989623034  787.381335196917 557.734507889429  787.881617475361 557.943281705564  C 793.531190158075 560.292133117152  799.158366966205 562.694494042295  804.762389235694 565.150040591244  L 805.565065750999 563.318180768065  C 799.949869759363 560.857738165257  794.311474724229 558.45058338843  788.650640712544 556.097040926871  C 788.15013720806 555.888175278788  787.649527137437 555.679565085631  787.148810696682 555.471210429078  L 786.380451017958 557.317726988471  Z M 762.31040619608 547.531538635619  C 768.502573955353 549.990402327289  774.679244780254 552.488114158926  780.840053552439 555.024526484584  L 781.601452730668 553.175128936356  C 775.432904024157 550.635530070497  769.248473337158 548.134680318785  763.048526246703 545.672727512651  L 762.31040619608 547.531538635619  Z M 738.083845578992 538.139504730696  C 744.315320044199 540.496977573097  750.531933685733 542.893546308806  756.733319024129 545.329069270698  L 757.464432480322 543.467491146048  C 751.255256230591 541.028908393092  745.030832545968 538.629328805145  738.791529367918 536.26889422744  L 738.083845578992 538.139504730696  Z M 713.707223070361 529.144127291344  C 719.976344190101 531.399581258778  726.231244555757 533.694368457801  732.471554424642 536.028353237844  L 733.172187391746 534.155090457184  C 726.924037709942 531.81817345031  720.661279200899 529.520503269017  714.384282072151 527.262215734417  L 713.707223070361 529.144127291344  Z M 689.187032550022 520.547802666776  C 695.492130243905 522.700636911155  701.783651041672 524.893031247115  708.061223035912 527.124856076781  L 708.73118886681 525.240407673288  C 702.445730246519 523.005778962143  696.146305298577 520.810630281943  689.833286397613 518.655091393371  L 689.187032550022 520.547802666776  Z M 664.529806144018 512.352820899392  C 670.869200747573 514.402461910302  677.195665929836 516.491879334059  683.508827717746 518.620949660012  L 684.147947934981 516.72581764669  C 677.826854808925 514.59407253158  671.492441575231 512.50203013532  665.145082676775 510.449814123723  L 664.529806144018 512.352820899392  Z M 639.747559258147 504.530938658574  C 643.964453842686 505.836328346585  648.177873036218 507.152918500563  652.387772234193 508.480695182677  C 654.533588800428 509.155550808232  656.677972597661 509.834953743419  658.820909175475 510.518899409927  L 659.429013518796 508.613588645869  C 657.283643511707 507.928866319228  655.136824816381 507.24869133388  652.988571895894 506.573068272151  C 648.775553116621 505.24430920596  644.559011952459 503.926744268581  640.338993037689 502.620387407124  L 639.747559258147 504.530938658574  Z M 614.880734092782 496.974962922409  C 621.266895083516 498.879134441776  627.645393623244 500.808910309275  634.016075821021 502.764243966138  L 634.602910484357 500.852275065264  C 628.227116257859 498.895372389338  621.843499417451 496.964048011156  615.452213977343 495.058348526778  L 614.880734092782 496.974962922409  Z M 589.93647297614 489.678689868645  C 596.342142002346 491.516167950543  602.74041597633 493.37932888667  609.13114053004 495.268127725445  L 609.698006766281 493.350143713465  C 603.302154101375 491.459829245219  596.898745958064 489.595173252181  590.487936828764 487.756220722144  L 589.93647297614 489.678689868645  Z M 564.9174880955 482.642912820397  C 571.341968669356 484.413497675999  577.759322393843 486.209841099432  584.169394440575 488.03189975119  L 584.716230614406 486.108109170334  C 578.301014931462 484.284588443456  571.878511727478 482.486803579512  565.448875955571 480.714797952924  L 564.9174880955 482.642912820397  Z M 539.826499762852 475.868396777076  C 546.269093351161 477.571895890848  552.704829067851 479.301226485327  559.133551641045 481.056346837793  L 559.660298295018 479.126958861639  C 553.226417119744 477.370430147341  546.785517173528 475.639711885545  540.337753852616 473.934845832389  L 539.826499762852 475.868396777076  Z M 514.666236119112 469.355878331204  C 521.126242219249 470.99210648184  527.579660171175 472.654236217406  534.026334276401 474.342227436501  L 534.532934137399 472.407451847231  C 528.081087025239 470.718106132757  521.622490655025 469.054642653882  515.157300849957 467.417101544124  L 514.666236119112 469.355878331204  Z M 489.438968945842 463.1049217137  C 489.969286049307 463.233778952771  490.499574828104 463.362752711812  491.029835254583 463.491842984096  C 496.97542615307 464.936107541911  502.915678757055 466.402260344515  508.850472252139 467.890271572914  L 509.336870237605 465.950318738504  C 503.39747732317 464.461154312839  497.452621218553 462.993864653268  491.502422824639 461.548479600147  C 490.972040824678 461.419359807067  490.441630471529 461.290356517363  489.911191799032 461.161469739267  L 489.438968945842 463.1049217137  Z M 464.159668863844 457.055830218712  C 470.646928871054 458.584262956591  477.130075893208 460.130100480608  483.60903990872 461.69332609486  L 484.078133185306 459.749116358781  C 477.595691183155 458.185051586019  471.109063929433 456.638384237761  464.618321482197 455.10913101861  L 464.159668863844 457.055830218712  Z M 438.838781739466 451.183250224795  C 445.336547173778 452.66638656243  451.830321149859 454.166955957392  458.320033531346 455.684942202698  L 458.775551362637 453.737507093285  C 452.282355224659 452.218705974511  445.785095312332 450.717331055787  439.283841798552 449.233398552538  L 438.838781739466 451.183250224795  Z M 413.477540039973 445.487467573539  C 419.985494629805 446.925235320898  426.489579481784 448.380463548077  432.989724349635 449.853136538125  L 433.431644563785 447.902570844711  C 426.9280103394 446.429107305955  420.420434015688 444.973097894593  413.908985876968 443.534558336083  L 413.477540039973 445.487467573539  Z M 388.077178196846 439.968759501108  C 394.595005173942 441.361088676269  401.109084323371 442.770904904193  407.61934528946 444.198192958082  L 408.047646376472 442.244591622378  C 401.533890623162 440.816537382913  395.016314637426 439.405964348622  388.494988811583 438.012887754236  L 388.077178196846 439.968759501108  Z M 362.6389325457 434.627394624753  C 369.166314662002 435.974217457625  375.690071042516 437.33855306488  382.210131227053 438.720386710935  L 382.624792339828 436.76384482241  C 376.10123210773 435.381269391257  369.573973696054 434.016201392182  363.04308760169 432.668655568442  L 362.6389325457 434.627394624753  Z M 337.1640412661 429.46363292973  C 343.700660808221 430.764883865145  350.233776882915 432.083672444145  356.763318928901 433.419984423083  L 357.16431988425 431.460597214333  C 350.631272700724 430.123567886882  344.094649570471 428.804071366256  337.554521091525 427.502121903522  L 337.1640412661 429.46363292973  Z M 311.653744321299 424.477725756651  C 318.199283126232 425.733341457602  324.741440902626 427.006518817717  331.280146991543 428.297244085971  L 331.66746827117 426.335106928088  C 325.125252125344 425.043688782819  318.579582439696 423.769827965732  312.03052990997 422.513538235011  L 311.653744321299 424.477725756651  Z M 880.066119021284 602.114678330135  C 885.911760038687 605.305607600527  891.724315747958 608.556777602907  897.502857662578 611.867669001603  L 898.497142337422 610.132330998397  C 892.706661559429 606.814599071305  886.882096711974 603.556711929035  881.024378199857 600.359189980222  L 880.066119021284 602.114678330135  Z M 312.302745920952 415.849844703415  L 304 422  L 309.448149768538 430.779388594861  L 312.302745920952 415.849844703415  Z " fill-rule="nonzero" fill="#d9001b" stroke="none" />
  </g>
</svg>