<?xml version="1.0" encoding="utf-8"?>
<svg version="1.1" xmlns:xlink="http://www.w3.org/1999/xlink" width="342px" height="16px" viewBox="390 440  342 16" xmlns="http://www.w3.org/2000/svg">
  <g transform="matrix(-0.981627183447663 0.190808995376545 -0.19080899537655 -0.981627183447667 1197.17527984283 780.725131778313 )">
    <path d="M 945.879987098572 586.835732242959  C 951.556406715573 590.318236322332  957.195136374226 593.861804693643  962.795194078526 597.465820237398  L 963.877554549954 595.7840069868  C 958.265415433284 592.17221623781  952.614520932428 588.621003068348  946.925855161941 585.130985929274  L 945.879987098572 586.835732242959  Z M 923.554824021876 573.565956524279  C 929.326567916109 576.888086375819  935.062347172622 580.272312326623  940.761162894026 583.718045006997  L 941.795987745103 582.006572679557  C 936.084877553452 578.553406269091  930.336724082597 575.161879281161  924.552528384858 571.832582356914  L 923.554824021876 573.565956524279  Z M 900.866709152101 560.926759647853  C 906.729247520377 564.085907984289  912.55757479747 567.308135492803  918.35067596857 570.592881016054  L 919.337153043906 568.853092816348  C 913.531553993691 565.561260872325  907.690652841671 562.332081817723  901.815466792356 559.166118020475  L 900.866709152101 560.926759647853  Z M 877.833448666545 548.928061158861  C 883.782180447992 551.921748604725  889.698481534479 554.979448789435  895.581321590381 558.100629208409  L 896.518676679082 556.333890563989  C 890.623145143832 553.205976595156  884.694080390111 550.141679811138  878.732514976298 547.141533865292  L 877.833448666545 548.928061158861  Z M 854.474058826195 537.574240284177  C 857.048882191195 538.784938136082  859.6189975291 540.005623500069  862.184346782428 541.236268801531  C 865.623506020854 542.886697331458  869.052445639629 544.55833750675  872.470969695474 546.251093803224  L 873.358467138759 544.458791292998  C 869.932525651913 542.762362094762  866.496145873882 541.087095097047  863.049524178037 539.433086033693  C 860.479467220905 538.200181952761  857.904635352344 536.977256252635  855.32508673809 535.764336559341  L 854.474058826195 537.574240284177  Z M 830.838339121185 526.7995607012  C 836.931167672892 529.490616374803  842.999423502212 532.236967088079  849.042355430254 535.038272875025  L 849.883505527863 533.22375737129  C 843.829584236988 530.417357274816  837.750292992148 527.666012190483  831.646384338194 524.970062702495  L 830.838339121185 526.7995607012  Z M 806.95474165718 516.586102018318  C 813.109426612348 519.13250997887  819.240851627242 521.734777900722  825.348257703371 524.392583653631  L 826.146318942848 522.558708451213  C 820.027806254542 519.896069350501  813.885230947921 517.289069079088  807.719353401657 514.738030352985  L 806.95474165718 516.586102018318  Z M 782.836590183408 506.939561935068  C 789.049698077749 509.339901638567  795.240871789768 511.796635062851  801.409344924782 514.309458093138  L 802.163872098162 512.457246241154  C 795.984181297583 509.93985352113  789.781748637954 507.478652408779  783.557341907587 505.07394757189  L 782.836590183408 506.939561935068  Z M 758.497339297844 497.865321888696  C 764.765404075141 500.11825427706  771.012872664309 502.428082685781  777.238971702022 504.794521185198  L 777.949543887338 502.925005962084  C 771.712122388609 500.554263980262  765.453292476826 498.240235037299  759.173828921794 495.983205582861  L 758.497339297844 497.865321888696  Z M 733.950566941404 489.368444052061  C 740.270091887087 491.472712300129  746.570370128663 493.634347128008  752.850621765592 495.85308095066  L 753.516842561689 493.967305287744  C 747.225169984633 491.744536590756  740.913434383546 489.578970725802  734.582417077332 487.47087576456  L 733.950566941404 489.368444052061  Z M 709.213463821474 481.433594967629  C 713.933573296185 482.896126518366  718.645687228383 484.384338867004  723.349596216475 485.898165878886  C 724.986940255405 486.424980155261  726.623046167569 486.955634815294  728.257900446896 487.490125478426  L 728.879398194571 485.589141378115  C 727.241592074862 485.053685655808  725.602532078641 484.522072812966  723.962231735983 483.994307237937  C 719.251435508269 482.478264007876  714.532422361418 480.987872829057  709.805402001802 479.523199932389  L 709.213463821474 481.433594967629  Z M 684.32470730151 473.981239163838  C 690.724503050421 475.831173056441  697.110637993639 477.728043195168  703.482596353247 479.671696378789  L 704.066117873088 477.758713724429  C 697.684801312431 475.812205987115  691.289287347563 473.912550002762  684.880092514115 472.059899197663  L 684.32470730151 473.981239163838  Z M 659.298309187602 467.005050693004  C 665.732232049117 468.732556885885  672.153392009524 470.507251394775  678.561270461921 472.328990885942  L 679.108191180906 470.405224338997  C 672.690901773219 468.580809343133  666.260311351656 466.803508422359  659.816939284629 465.073465120875  L 659.298309187602 467.005050693004  Z M 634.143378531593 460.507568732446  C 640.609086701065 462.112018451821  647.062934519247 463.763891381543  653.50440073937 465.463054107648  L 654.014521590533 463.52920387632  C 647.563595086345 461.827545668361  641.1002687998 460.173246709122  634.625064743232 458.566440608514  L 634.143378531593 460.507568732446  Z M 608.869071168309 454.491158220967  C 615.364211271827 455.971967482837  621.848397890955 457.500417588445  628.321107328425 459.076385092063  L 628.79424263913 457.133155054789  C 622.312027032095 455.554873000447  615.818317387467 454.02417813074  609.313638171499 452.541194072663  L 608.869071168309 454.491158220967  Z M 583.48458638304 448.958008998073  C 590.006794334214 450.314638820835  596.518959654634 451.719109780499  603.020556387322 453.171308444546  L 603.456533946848 451.219405893805  C 596.945388619187 449.765074452621  590.42365918218 448.358540811293  583.891872365289 446.99991856894  L 583.48458638304 448.958008998073  Z M 557.999282727777 443.900185002983  C 561.309592028661 444.529117222248  564.618054945015 445.16772906731  567.924629032393 445.816012345383  C 571.156065832242 446.448951855612  574.385196312519 447.093609807971  577.61195675343 447.749973481552  L 578.01061787565 445.790108866424  C 574.779178062988 445.132793349752  571.54536481755 444.487200313328  568.309241949241 443.853342496055  C 564.998901018324 443.204321057363  561.686669141832 442.564981894754  558.372588810794 441.935333210001  L 557.999282727777 443.900185002983  Z M 532.435481069968 439.242104416495  C 538.99917575132 440.387187858387  545.556193737167 441.570218445224  552.106206122181 442.791136835235  L 552.47269255068 440.825001616658  C 545.915100284291 439.602670341294  539.350494309991 438.418270714071  532.779203913678 437.271862145425  L 532.435481069968 439.242104416495  Z M 506.804535788985 434.968895557418  C 513.384704625269 436.01516609839  519.958768046341 437.099479877624  526.526396291861 438.221782505063  L 526.863280955889 436.250359485226  C 520.288052443364 435.126758093711  513.706381308322 434.041189512302  507.118597692665 432.993708193987  L 506.804535788985 434.968895557418  Z M 481.112240922138 431.081524411646  C 487.707396424564 432.028745535624  494.297019172242 433.014097391266  500.880778624359 434.037530552525  L 501.187985369007 432.061265384071  C 494.596606982343 431.036647873608  487.999358514952 430.050155737656  481.396570890107 429.101838459452  L 481.112240922138 431.081524411646  Z M 455.364404375196 427.580869744014  C 461.973055667148 428.428827325672  468.576748115525 429.314994512702  475.17515047377 430.239326854241  L 475.452609853011 428.258666284413  C 468.846571614923 427.333264276262  462.235237165053 426.446071588571  455.618938132868 425.597132723589  L 455.364404375196 427.580869744014  Z M 429.56684660948 424.467722899655  C 436.187499763529 425.216225252816  442.803769106156 426.003007447537  449.415322759937 426.828030018184  L 449.662972052323 424.843421787832  C 443.043767299666 424.017444474987  436.419841401043 423.229751791044  429.791526617888 422.4803832473  L 429.56684660948 424.467722899655  Z M 403.725399326103 421.742787625104  C 410.356557701725 422.391665546078  416.983908289067 423.078884891396  423.60711865486 423.80441118958  L 423.824901877701 421.816303931949  C 417.194026923516 421.089938031798  410.559006956613 420.401923414533  403.920174794911 419.752294591518  L 403.725399326103 421.742787625104  Z M 967.824677058172 600.725672365299  C 973.401317407545 604.365817519695  978.93857205789 608.065947233955  984.435476685353 611.825417123169  L 985.564523314647 610.174582876831  C 980.05575981446 606.407002409402  974.506559241339 602.698890135802  968.917887999561 599.050891831131  L 967.824677058172 600.725672365299  Z M 403.689575524792 413.098519850893  L 396 420  L 402.247253711763 428.229934450581  L 403.689575524792 413.098519850893  Z " fill-rule="nonzero" fill="#d9001b" stroke="none" />
  </g>
</svg>