<?xml version="1.0" encoding="utf-8"?>
<svg version="1.1" xmlns:xlink="http://www.w3.org/1999/xlink" width="194px" height="10px" viewBox="604 2972  194 10" xmlns="http://www.w3.org/2000/svg">
  <g transform="matrix(-0.933580426497202 -0.358367949545302 0.3583679495453 -0.933580426497202 288.57849317818 6007.48486231343 )">
    <path d="M 746.365440582646 2962.62507057666  C 752.515459655347 2960.03644599466  758.642453259076 2957.39345448059  764.745701866045 2954.69640641601  L 763.937308017199 2952.86706243929  C 757.844850543269 2955.55934186239  751.728690056026 2958.19766031218  745.589544811064 2960.78170795589  L 746.365440582646 2962.62507057666  Z M 722.266516160767 2972.44386860643  C 728.474455426262 2969.99740137857  734.660625948942 2967.49605193718  740.824301251533 2964.94011403001  L 740.058202749497 2963.09265818881  C 733.905425420208 2965.64407695088  727.730192644465 2968.14100376487  721.533229615234 2970.58314540237  L 722.266516160767 2972.44386860643  Z M 697.954662871509 2981.71654380401  C 700.882505419356 2980.63196680607  703.806978801058 2979.53831625491  706.728040862361 2978.43560791475  C 710.049174747015 2977.1829610808  713.364394136291 2975.9146888948  716.673588858052 2974.63083350425  L 715.950191148201 2972.76624353501  C 712.646758160425 2974.04786356806  709.337310833045 2975.31392710842  706.02195915198 2976.56439207982  C 703.104674631241 2977.66567502334  700.183983095056 2978.75791161371  697.259926646215 2979.84108610594  L 697.954662871509 2981.71654380401  Z M 673.480955112714 2990.54358630077  C 679.775621034216 2988.33432288666  686.055585055543 2986.0833915325  692.320433936453 2983.79094035622  L 691.633156308449 2981.91273657014  C 685.376600840044 2984.20215299751  679.104950240752 2986.45010456672  672.81861720358 2988.65644335596  L 673.480955112714 2990.54358630077  Z M 648.858874871219 2998.94788373028  C 655.190650879592 2996.84734178211  661.508444687921 2994.70488490606  667.811840566654 2992.52065408213  L 667.157007436413 2990.63089389323  C 660.861955998735 2992.81223323046  654.552525691547 2994.95185392017  648.22913169387 2997.04961516904  L 648.858874871219 2998.94788373028  Z M 624.095723799568 3006.92694380682  C 630.462732213155 3004.93574623813  636.816482273239 3002.90239918357  643.156555884237 3000.82703644338  L 642.53436144185 2998.92628025811  C 636.202680825921 3000.99889563125  629.857341865896 3003.02955093916  623.498762103695 3005.01811255873  L 624.095723799568 3006.92694380682  Z M 599.192864015907 3014.45729182526  C 604.23059427098 3012.97461443982  609.263166630566 3011.4744678844  614.290490275537 3009.95687923102  C 615.648210220505 3009.5423738824  617.005345272466 3009.12595512217  618.361891388487 3008.70762419085  L 617.772520145074 3006.79643567649  C 616.418769229282 3007.21390462553  615.064431023466 3007.62946675162  613.709509557619 3008.04312081821  C 608.687612672519 3009.55906372723  603.660473807223 3011.05758684092  598.628183646497 3012.53866312736  L 599.192864015907 3014.45729182526  Z M 574.198190637369 3021.65830786513  C 580.617595746358 3019.84861366267  587.028997474388 3018.0106488692  593.432209187537 3016.1444669873  L 592.872602051401 3014.22435244562  C 586.475029451751 3016.08889083798  580.069274050086 3017.9252369918  573.655522315626 3019.7333374517  L 574.198190637369 3021.65830786513  Z M 549.122679928958 3028.57257514509  C 555.56239129442 3026.83652428487  561.994423601026 3025.0721130213  568.418589614303 3023.27939271585  L 567.881011211171 3021.35299466236  C 561.462502765206 3023.14413617365  555.036134953687 3024.90699357392  548.602094845856 3026.64151554704  L 549.122679928958 3028.57257514509  Z M 523.96962146918 3035.19918660385  C 530.428794285346 3033.537006833  536.880613372151 3031.84638056698  543.324890919136 3030.12735701939  L 542.809411772251 3028.19492817228  C 536.370809504193 3029.9124378282  529.924672338091 3031.60157521112  523.471187918662 3033.26229115089  L 523.96962146918 3035.19918660385  Z M 498.74231500979 3041.53727291679  C 505.220101917805 3039.94918229152  511.690861390666 3038.33256281106  518.154405066567 3036.68746153471  L 517.66109280004 3034.74925540334  C 511.203241370159 3036.39290788911  504.738180498222 3038.00810366199  498.266098379807 3039.59479570423  L 498.74231500979 3041.53727291679  Z M 473.444070042905 3047.58600261003  C 479.939621241987 3046.07220946702  486.428472222033 3044.52980885142  492.910434094595 3042.95884566204  L 492.439353424532 3041.01511651365  C 485.963100018336 3042.58469620361  479.479963571854 3044.12573847393  472.990132806842 3045.63819846543  L 473.444070042905 3047.58600261003  Z M 448.078205366848 3053.34458216946  C 454.590668725898 3051.90528509852  461.096759960642 3050.43730569059  467.596289681504 3048.94068667795  L 467.147502407519 3046.99168950435  C 460.653696624612 3048.48699049019  454.153335106157 3049.95367709339  447.646607075323 3051.39170661922  L 448.078205366848 3053.34458216946  Z M 422.648048650762 3058.8122561449  C 429.176569819659 3057.44764396299  435.69904779565 3056.0542783423  442.215292711417 3054.63219984325  L 441.788857708521 3052.67819032733  C 435.27835145115 3054.09901644516  428.761617622995 3055.49115497117  422.238845923817 3056.85456538069  L 422.648048650762 3058.8122561449  Z M 770.232120666227 2952.25450960682  C 776.320964746973 2949.52509765882  782.385538818368 2946.74186283306  788.425130683073 2943.9051319806  L 787.574869316927 2942.0948680194  C 781.54595603402 2944.9265832577  775.492104715293 2947.70489705549  769.41402629902 2950.42948313952  L 770.232120666227 2952.25450960682  Z M 403.078581588842 3062.81298961376  C 407.645485425632 3061.9002476411  412.209570769082 3060.97345955371  416.770772838635 3060.03263850598  L 416.366746049513 3058.07387298819  C 411.811285920921 3059.01350966855  407.252947234087 3059.93913636022  402.691794638936 3060.85073993525  L 403.078581588842 3062.81298961376  Z M 402.362906808389 3054.16828269449  L 397 3063  L 405.361892634557 3069.06949351826  L 402.362906808389 3054.16828269449  Z " fill-rule="nonzero" fill="#000000" stroke="none" />
  </g>
</svg>