<?xml version="1.0" encoding="utf-8"?>
<svg version="1.1" xmlns:xlink="http://www.w3.org/1999/xlink" width="80px" height="10px" viewBox="868 2962  80 10" xmlns="http://www.w3.org/2000/svg">
  <g transform="matrix(0.694658370459005 -0.719339800338655 0.719339800338643 0.694658370459002 -1857.03098798153 1559.10915355564 )">
    <path d="M 916.822724391873 2972.08574370126  C 912.424333707245 2967.02728210231  907.762890217994 2962.20369746752  902.857716147753 2957.63498411437  L 901.494587098383 2959.09850015281  C 906.348436142532 2963.61940901856  910.961104867566 2968.39252233394  915.313473226906 2973.39805499094  L 916.822724391873 2972.08574370126  Z M 932.572705404852 2992.9184950026  C 928.90491245612 2987.30768674996  924.944505010764 2981.89370512835  920.70789941675 2976.69899171918  L 919.157995931056 2977.96303253538  C 923.350272029409 2983.1033913391  927.269239963637 2988.46072405407  930.898655157349 2994.01282391515  L 932.572705404852 2992.9184950026  Z M 945.173170511248 3015.80199512384  C 942.351576395042 3009.72149506167  939.212074076397 3003.79363294084  935.767677156362 2998.042980437  L 934.051902741361 2999.07065653229  C 937.460259398754 3004.76113739174  940.566911703084 3010.62697364486  943.358982220421 3016.64385072038  L 945.173170511248 3015.80199512384  Z M 954.522171183016 3040.18767975914  C 952.555775006107 3033.77931331846  950.253631344244 3027.47882455229  947.625282849777 3021.31232971695  L 945.785437012865 3022.09652822269  C 948.386283923672 3028.19850026969  950.664339228665 3034.43306420919  952.610160124524 3040.77437705094  L 954.522171183016 3040.18767975914  Z M 898.379954402275 2953.59440346309  C 893.333078497609 2949.18272374154  888.057622350937 2945.03958645477  882.575453339541 2941.18216538713  L 881.424546660459 2942.81783461287  C 886.849353290107 2946.63489376183  892.069609984016 2950.73467955357  897.063678173036 2955.1001979007  L 898.379954402275 2953.59440346309  Z M 958.842548023324 3056.93502462156  C 958.069629148981 3053.2584548343  957.188482432343 3049.60547204521  956.20025626613 3045.98083716272  L 954.270686654274 3046.50691806239  C 955.243066760144 3050.07343246089  956.110678827351 3053.66768750506  956.872404794488 3057.28505140381  L 958.842548023324 3056.93502462156  Z M 950.235361014182 3057.52815356134  L 959 3063  L 965.172561807692 3054.71389833937  L 950.235361014182 3057.52815356134  Z " fill-rule="nonzero" fill="#000000" stroke="none" />
  </g>
</svg>