<?xml version="1.0" encoding="utf-8"?>
<svg version="1.1" xmlns:xlink="http://www.w3.org/1999/xlink" width="64px" height="8px" viewBox="592 412  64 8" xmlns="http://www.w3.org/2000/svg">
  <g transform="matrix(0.500000000000001 -0.866025403784443 0.866025403784436 0.500000000000001 -48.2665679743258 748.399851961492 )">
    <path d="M 584.947853528368 369.491172652347  C 582.231638964896 367.538765431161  579.449203136193 365.680175013731  576.605461349329 363.918684689658  L 576.078873614544 364.768805479648  C 578.903160259535 366.518244764376  581.666560364232 368.364119843015  584.36419224909 370.303169888224  L 584.947853528368 369.491172652347  Z M 595.186487958668 377.56703873962  C 592.655090802697 375.380318832797  590.049374497827 373.281140417523  587.373942167569 371.273211793702  L 586.773683073789 372.073017407795  C 589.430811732527 374.067209012163  592.01870132028 376.152026132726  594.532780205291 378.323785839499  L 595.186487958668 377.56703873962  Z M 604.664616477327 386.523283926119  C 602.338184336678 384.119655625589  599.929926675963 381.796596754138  597.444097798479 379.55821110729  L 596.774944859491 380.301335823771  C 599.243767216305 382.524407805178  601.635549051166 384.831573728778  603.946065166119 387.218757874704  L 604.664616477327 386.523283926119  Z M 613.275710755909 396.319615887523  C 612.104459311143 394.847512018254  610.904897969619 393.398156383214  609.677697193873 391.972359060735  C 608.713472716265 390.869472314173  607.732722505726 389.781143526434  606.735779006739 388.707741607865  L 606.003058068374 389.388270833161  C 606.992303360207 390.453384147273  607.965494698843 391.533295991157  608.922302786584 392.627640956214  C 610.14022867521 394.042738726723  611.33074156548 395.481200704831  612.493176970496 396.942224010412  L 613.275710755909 396.319615887523  Z M 620.931432450678 406.876091312074  C 619.090330542248 404.083232691424  617.153898703986 401.354397918784  615.125557736113 398.694407612372  L 614.330368429159 399.30076886287  C 616.344832728805 401.942561142642  618.268016684891 404.65272689692  620.09652290021 407.426478487195  L 620.931432450678 406.876091312074  Z M 627.615842966199 418.072872283267  C 626.030981070803 415.12703992472  624.345462495539 412.236480357253  622.562264790257 409.406299893745  L 621.716198082454 409.939376929405  C 623.487196239766 412.75019502932  625.161183527921 415.620979156297  626.735202767643 418.546657931727  L 627.615842966199 418.072872283267  Z M 633.275740503909 429.820842657742  C 631.959732673767 426.745482694559  630.538542548902 423.716204544632  629.014680730211 420.738359573906  L 628.124470539301 421.193909588723  C 629.637907027531 424.151381965622  631.04937423886 427.159935647364  632.356378748393 430.214255878788  L 633.275740503909 429.820842657742  Z M 574.030203359011 362.359962177509  C 571.150789973512 360.657407019061  568.213780267194 359.054197280559  565.224362609346 357.553165109322  L 564.775637390654 358.446834890678  C 567.744603281428 359.937597917938  570.661519763816 361.529839476045  573.521233964185 363.220746793502  L 574.030203359011 362.359962177509  Z M 635.803181768189 436.128688117137  C 635.36118733095 434.946718104511  634.903905142971 433.770521389333  634.431450222204 432.600393814605  L 633.504181807709 432.974791046806  C 633.969135308784 434.126339879637  634.419293014063 435.283807582572  634.85454374838 436.446908296539  L 635.803181768189 436.128688117137  Z M 629.081044903421 437.397202451099  L 637 441  L 640.98457443524 433.266102756693  L 629.081044903421 437.397202451099  Z " fill-rule="nonzero" fill="#02a7f0" stroke="none" />
  </g>
</svg>