<?xml version="1.0" encoding="utf-8"?>
<svg version="1.1" xmlns:xlink="http://www.w3.org/1999/xlink" width="82px" height="22px" viewBox="722 390  82 22" xmlns="http://www.w3.org/2000/svg">
  <g transform="matrix(-0.73135370161917 -0.681998360062498 0.681998360062498 -0.731353701619169 1047.54153195037 1214.63758307697 )">
    <path d="M 773.825834203308 387.626468277854  C 776.93327045709 386.470544791683  780.103251105596 385.490281683774  783.320763017155 384.690321512157  L 783.079481697353 383.719866296954  C 779.825587579903 384.528872065439  776.619762188068 385.520219556312  773.477188415393 386.689213715545  L 773.825834203308 387.626468277854  Z M 762.401753742993 393.501052711075  C 765.131204899238 391.639043693366  768.031908243003 390.041411551219  771.064518666246 388.729826549324  L 770.667560116119 387.811990011873  C 767.576631214043 389.148797390366  764.620146024626 390.777152725821  761.838206280246 392.674969024496  L 762.401753742993 393.501052711075  Z M 752.848988729937 402.052354832474  C 754.04926937091 400.618539730367  755.339881293169 399.262831429187  756.712946948292 397.993504808161  C 757.769184181295 397.032576988414  758.864553800887 396.115563296591  759.996270540998 395.244795481788  L 759.386464541342 394.452244762413  C 758.231931438678 395.340567989676  757.114512540814 396.2761121709  756.037054365209 397.256494097021  C 754.631636305057 398.555497283532  753.310659738091 399.942978364747  752.082198759642 401.410456755319  L 752.848988729937 402.052354832474  Z M 746.147296485017 412.966976770951  C 747.445294172277 409.933729959509  749.080905274728 407.056380394669  751.023182510247 404.38937020428  L 750.214826272855 403.800676571337  C 748.228331193471 406.528403861235  746.555483802076 409.471259107486  745.227935925985 412.57356075387  L 746.147296485017 412.966976770951  Z M 742.441049854977 425.287797855981  C 743.051452575295 422.036750492515  743.92755368761 418.841262703365  745.060537080638 415.733490338536  L 744.121024021607 415.390977255705  C 742.969306595065 418.550137056569  742.078719032462 421.798462668148  741.458223220674 425.103266539113  L 742.441049854977 425.287797855981  Z M 741.316647552735 438.13489627108  C 741.337527119434 436.43171230129  741.398382383835 434.729253069376  741.499163065245 433.028925205254  C 741.590156267732 431.421875525232  741.74527146153 429.819099170713  741.964138097027 428.224424961721  L 740.973425662357 428.088451170901  C 740.751000025091 429.709056460336  740.593345002657 431.337893598918  740.50083700908 432.971073607178  C 740.399177029634 434.686585151422  740.3377886907 436.404246122127  740.316722687494 438.122638054536  L 741.316647552735 438.13489627108  Z M 741.926659497244 451.053439011544  C 741.573465979943 447.753617360129  741.371369991349 444.43936924267  741.321004914143 441.121081739935  L 740.321120080588 441.136258024931  C 740.371947868768 444.485031096816  740.575900541338 447.829727673028  740.932338896643 451.159865245247  L 741.926659497244 451.053439011544  Z M 743.974895197599 463.84077781071  C 743.588005505112 461.902308678048  743.229363642876 459.958308555487  742.89908366941 458.009395691462  C 742.669780375448 456.68285104536  742.465106639534 455.3521665534  742.285168107412 454.018029070462  L 741.294141175312 454.151691405668  C 741.475659400884 455.497541378523  741.682119899188 456.83990950164  741.91341618836 458.178103449565  C 742.245242343049 460.136044490911  742.605553911689 462.08905118791  742.994236367976 464.036502770491  L 743.974895197599 463.84077781071  Z M 746.916204719675 476.468720361243  C 746.059126302367 473.255736375753  745.280883545219 470.022239001019  744.582176751825 466.771137907345  L 743.604500341092 466.981254151115  C 744.306638551635 470.24832171907  745.088703334801 473.497699114504  745.949990947735 476.726462377442  L 746.916204719675 476.468720361243  Z M 750.653048418469 488.886784173859  C 750.551570419016 488.580786274436  750.4505005751 488.274653169633  750.349839156337 487.968385676098  C 749.406054679562 485.116917514266  748.525478576152 482.244915807715  747.708757355795 479.354489149804  L 746.746435887083 479.626403457732  C 747.567073611625 482.530690864965  748.45186505338 485.416467138275  749.400160757338 488.281614058873  C 749.500992300486 488.588396202512  749.602232515902 488.895043875009  749.703881134074 489.201556260033  L 750.653048418469 488.886784173859  Z M 754.959148354003 501.133186178102  C 753.798904938177 498.013135614184  752.681683261156 494.877255080523  751.607801105992 491.726436548427  L 750.661267017351 492.049040359689  C 751.738110925822 495.208548809165  752.858413886003 498.353078061413  754.021857238393 501.481733685048  L 754.959148354003 501.133186178102  Z M 759.700870597765 513.217594681101  C 758.42968293512 510.141076806667  757.200922775734 507.047199067049  756.014939628714 503.936841486262  L 755.080560371994 504.293121438843  C 756.269814445431 507.41205734623  757.501963509687 510.51446796125  758.776657091718 513.599470832805  L 759.700870597765 513.217594681101  Z M 764.867254438673 525.128855298175  C 764.530901720389 524.383165515969  764.19606253008 523.636793962005  763.862738935827 522.889745246126  C 762.836711482343 520.597523667732  761.834526791956 518.294704018379  760.856347122723 515.981659134583  L 759.935320406217 516.371158540849  C 760.916120727953 518.690400330037  761.920988491794 520.999390301617  762.949761030871 523.29775467888  C 763.283555923112 524.045857701915  763.618868183813 524.793282769745  763.955695742841 525.54002526796  L 764.867254438673 525.128855298175  Z M 770.334804280381 536.911056907814  C 768.900466444023 533.905136063685  767.490987796419 530.887416115417  766.10651264813 527.858206034597  L 765.197003367094 528.273889649512  C 766.583768081699 531.308109265804  767.995577644986 534.330819747818  769.432287507739 537.341711613002  L 770.334804280381 536.911056907814  Z M 776.054165549334 548.573101441982  C 774.555593705702 545.598682577826  773.081621879792 542.611933374989  771.632400985351 539.613159634093  L 770.732030104394 540.048282923201  C 772.183647637986 543.052015865679  773.660057034732 546.043704384604  775.161107131311 549.023042173631  L 776.054165549334 548.573101441982  Z M 781.091618857241 558.349342987799  C 779.848597934686 555.989943818122  778.621198800507 553.622347476477  777.409502024049 551.246709377417  L 776.51868498446 551.70107156992  C 778.03448554433 554.672931882311  779.574813542558 557.632218039264  781.13951127151 560.578627052059  L 781.091618857241 558.349342987799  Z M 786.227350556717 384.019505844057  C 789.470011236988 383.328513159706  792.748964068758 382.820417302945  796.048679824544 382.497624632311  L 795.951320175456 381.502375367689  C 792.614292688956 381.828818035503  789.298262904463 382.342659216161  786.018935647114 383.041465341084  L 786.227350556717 384.019505844057  Z M 774.616578260308 560.674437716497  L 783 563  L 785.731501319228 554.739921275008  L 774.616578260308 560.674437716497  Z " fill-rule="nonzero" fill="#797979" stroke="none" />
  </g>
</svg>