<?xml version="1.0" encoding="utf-8"?>
<svg version="1.1" xmlns:xlink="http://www.w3.org/1999/xlink" width="114px" height="12px" viewBox="1046 516  114 12" xmlns="http://www.w3.org/2000/svg">
  <g transform="matrix(0.656059028990513 -0.754709580222773 0.754709580222767 0.656059028990509 -14.5915098528199 1011.98185385267 )">
    <path d="M 1039.54613283326 399.526693609781  C 1038.83462593725 396.275752005928  1038.1769810781 393.013255438248  1037.57346851721 389.740544640824  L 1036.59004986608 389.921894459158  C 1037.1955636997 393.205457701577  1037.85538933653 396.478772843435  1038.56925561897 399.740494704731  L 1039.54613283326 399.526693609781  Z M 1042.59286870019 412.141462056772  C 1041.74215244456 408.924142484965  1040.94475121227 405.692961293877  1040.2009926981 402.449246348429  L 1039.22628702633 402.6727387497  C 1039.97251187465 405.927209988692  1040.77255732255 409.169105910868  1041.62609458863 412.397094248064  L 1042.59286870019 412.141462056772  Z M 1046.17951994902 424.61346731789  C 1045.19116978652 421.435727975052  1044.25548889905 418.241846027997  1043.37286180788 415.033134013394  L 1042.40867418588 415.29835510905  C 1043.29422810516 418.517707346016  1044.23301174933 421.722180338331  1045.22463932204 424.910457196866  L 1046.17951994902 424.61346731789  Z M 1050.3114218706 436.913637874228  C 1049.57439117874 434.881451676459  1048.8618901647 432.840452665146  1048.1740741933 430.791085891573  C 1047.80403284369 429.685809186637  1047.44040260805 428.578396400429  1047.08320181994 427.468903366713  L 1046.13131783959 427.775361990276  C 1046.48974115651 428.88865229222  1046.85461661031 429.999855004419  1047.22592580071 431.108914090149  C 1047.91633606066 433.166020027444  1048.63152599947 435.21472615596  1049.37133964809 437.254585692699  L 1050.3114218706 436.913637874228  Z M 1055.02803353885 449.00058277002  C 1053.74407439694 445.931056093668  1052.51719133655 442.837965503909  1051.34801808282 439.722908682973  L 1050.41179041757 440.074302705149  C 1051.585311213 443.200942787479  1052.81675640757 446.30553495775  1054.10548991964 449.386475592783  L 1055.02803353885 449.00058277002  Z M 1060.32213036338 460.845970115117  C 1058.89161689177 457.841943433742  1057.51697654619 454.811627384107  1056.19891937324 451.756587223364  L 1055.28072966392 452.152728180214  C 1056.60368799971 455.219128431894  1057.98343991126 458.260712636466  1059.41927271168 461.275909716423  L 1060.32213036338 460.845970115117  Z M 1066.18138950788 472.422227922397  C 1064.60765144984 469.490693576769  1063.08845350894 466.530205600658  1061.6245804005 463.542293182714  L 1060.72656587691 463.982258994356  C 1062.19588236113 466.981281890386  1063.72072940183 469.952778367493  1065.30031936573 472.895213550745  L 1066.18138950788 472.422227922397  Z M 1072.5962429539 483.699438782348  C 1071.72832432251 482.257813190215  1070.8739555616 480.808073269545  1070.03324956147 479.350410578813  C 1069.21316848863 477.925235888992  1068.40617539425 476.492569942821  1067.61237209206 475.052593491634  L 1066.7366230231 475.535360069  C 1067.53345807396 476.9808361782  1068.3435346203 478.418973121622  1069.16675043881 479.849589421226  C 1070.01066269047 481.312817516188  1070.86829121185 482.768091841867  1071.73952265966 484.21522007072  L 1072.5962429539 483.699438782348  Z M 1079.55450061384 494.650389100962  C 1077.70288288788 491.885962055118  1075.90272796265 489.087409985648  1074.15496567692 486.256178436044  L 1073.3040414544 486.781466897296  C 1075.05830275076 489.623226311077  1076.86515150736 492.432184726882  1078.72365442783 495.206891226015  L 1079.55450061384 494.650389100962  Z M 1087.03284353544 505.252985466473  C 1085.05004762524 502.581082497917  1083.11700871237 499.872612080555  1081.23472527454 497.128973227764  L 1080.41012696218 497.694691906313  C 1082.29940962422 500.448532912014  1084.23963649425 503.167074709326  1086.22980538178 505.848913082688  L 1087.03284353544 505.252985466473  Z M 1095.01386470879 515.482548681658  C 1092.90450588118 512.909389061405  1090.84308243035 510.297304683626  1088.83065914877 507.647644775125  L 1088.0343061278 508.252476872484  C 1090.05421255535 510.91198947552  1092.12330135807 513.533786824169  1094.24050378408 516.116514674534  L 1095.01386470879 515.482548681658  Z M 1103.47927636437 525.31549130204  C 1102.67257223695 524.421670593222  1101.8712283618 523.523026614519  1101.07528785104 522.619607712763  C 1099.67286127748 521.025414912934  1098.28936383841 519.414669134841  1096.92508657843 517.787709229012  L 1096.15883248475 518.430246904112  C 1097.52826254259 520.06335174526  1098.91698649408 521.680180267435  1100.32471216111 523.280392300854  C 1101.12337297621 524.186901087399  1101.92745619267 525.088618138394  1102.73691854216 525.985494931733  L 1103.47927636437 525.31549130204  Z M 1112.3795146119 534.7601057225  C 1110.04558971731 532.387837196149  1107.75109320626 529.977097397728  1105.49696800993 527.528877028975  L 1104.76130093705 528.206220337709  C 1107.0229009062 530.662559106933  1109.32500606302 533.081293018699  1111.66667034954 535.461428086056  L 1112.3795146119 534.7601057225  Z M 1121.67785576429 543.813051885375  C 1119.2440277408 541.543394526463  1116.84793640777 539.233605155418  1114.49056644707 536.884632988037  L 1113.78472252031 537.593000372283  C 1116.14990961775 539.949761828972  1118.55394648922 542.267210557556  1120.99584518756 544.544394194576  L 1121.67785576429 543.813051885375  Z M 1131.35708009982 552.457564519207  C 1128.82785618595 550.294721536403  1126.33460738434 548.090160122393  1123.87835830407 545.844786249201  L 1123.2036446852 546.582865873975  C 1125.66803878948 548.835685500232  1128.16955530772 551.047557331493  1130.70716623318 553.2175723915  L 1131.35708009982 552.457564519207  Z M 1037.04495463892 386.792523434453  C 1036.47397475162 383.513980260564  1035.95730416687 380.226210177105  1035.4951552122 376.930564304372  L 1034.5048447878 377.069435695628  C 1034.9685262476 380.376010067011  1035.48691013348 383.674682532692  1036.05978341381 386.96409749197  L 1037.04495463892 386.792523434453  Z M 1137.39905833081 557.489430821791  C 1136.13871377774 556.467324193049  1134.88663961847 555.435061423741  1133.64295820429 554.39274338542  L 1133.00062440443 555.159168391244  C 1134.25266581569 556.208492866787  1135.51318500059 557.247660059979  1136.78205794492 558.276567733976  L 1137.39905833081 557.489430821791  Z M 1132.3877439886 562.232496001632  L 1141 561  L 1140.18882979203 552.337898471289  L 1132.3877439886 562.232496001632  Z " fill-rule="nonzero" fill="#797979" stroke="none" />
  </g>
</svg>