<?xml version="1.0" encoding="utf-8"?>
<svg version="1.1" xmlns:xlink="http://www.w3.org/1999/xlink" width="92px" height="12px" viewBox="910 482  92 12" xmlns="http://www.w3.org/2000/svg">
  <g transform="matrix(0.258819045102522 -0.96592582628907 0.965925826289067 0.25881904510252 237.197189652924 1285.12139592232 )">
    <path d="M 907.891710934832 396.640981732496  C 905.615012072203 394.195694883392  903.282872181511 391.802619744889  900.89710827218 389.463620802087  L 900.197034615067 390.17769143908  C 902.57194771891 392.506052270347  904.893480694046 394.888243350816  907.159824795076 397.322408675339  L 907.891710934832 396.640981732496  Z M 916.482777921976 406.434610102041  C 914.354900129634 403.858775948536  912.168586339776 401.331778303003  909.925539946251 398.855585991811  L 909.184403652733 399.526940588452  C 911.417248341043 401.991870812471  913.593618453919 404.507375300692  915.711818344799 407.071494181257  L 916.482777921976 406.434610102041  Z M 924.478726739684 416.719861247392  C 922.507140571434 414.022523028579  920.474328593324 411.370474659882  918.38187460336 408.765782396793  L 917.602277654894 409.392063961222  C 919.685214856064 411.984909700439  921.70878130603 414.624896162725  923.671400410134 417.309966490222  L 924.478726739684 416.719861247392  Z M 931.851485209153 427.460625706649  C 930.043112510132 424.651253238117  928.170939140494 421.883464958231  926.236423742003 419.159417297395  L 925.42110314772 419.738427080162  C 927.346820085384 422.450085371207  929.210478534918 425.205285342526  931.010626488678 428.00188037148  L 931.851485209153 427.460625706649  Z M 938.575169048386 438.619194801672  C 936.93635865385 435.707651228881  935.231396719345 432.833840189483  933.461611609397 430.000000718005  L 932.613429797014 430.529705931442  C 934.375165663737 433.350656683812  936.072373180361 436.211397207522  937.70373002396 439.109698651512  L 938.575169048386 438.619194801672  Z M 944.606268181907 450.170495566595  C 944.159837668689 449.235938225443  943.706809285413 448.304546960357  943.247216958231 447.376391520882  C 942.207705845405 445.317347553658  941.135858175877 443.274788702266  940.032072014449 441.249473536053  L 939.154006780851 441.728014490985  C 940.252154836708 443.742984409975  941.318545449518 445.775100356087  942.352783026402 447.823608486795  C 942.809695763323 448.746393510937  943.260090716435 449.672391479686  943.703934241233 450.601533220991  L 944.606268181907 450.170495566595  Z M 949.870978580691 462.087056019817  C 948.611929750951 458.992289222493  947.282503740374 455.926622643965  945.883736327135 452.892444796649  L 944.975592273269 453.311102625226  C 946.36799788639 456.331480585009  947.691377471753 459.383204060609  948.944699962061 462.463895402935  L 949.870978580691 462.087056019817  Z M 954.420677126422 474.294505866583  C 953.347129081797 471.130603200353  952.201603906961 467.991581511659  950.98499409985 464.879886465106  L 950.053648774635 465.244023644204  C 951.264725261237 468.341566243587  952.405040418935 471.466311199517  953.473705809007 474.615823970638  L 954.420677126422 474.294505866583  Z M 958.239390736482 486.749987189387  C 957.355112489674 483.528056484401  956.397509860606 480.326700163549  955.367328933591 477.14841245739  L 954.416052104393 477.456750574122  C 955.44154761689 480.620582959892  956.394794928225 483.807379040898  957.275051347384 487.01465593071  L 958.239390736482 486.749987189387  Z M 961.313712670318 499.409771281759  C 960.621808745585 496.141124093021  959.855490613796 492.888672462459  959.015355326296 489.654950429846  L 958.047486736007 489.906406970688  C 958.883800964536 493.125421559435  959.646633768646 496.363080561157  960.335390812468 499.616861461278  L 961.313712670318 499.409771281759  Z M 963.632849597835 512.229412171027  C 963.135749131622 508.925524065779  962.563405886971 505.63339583338  961.916265786131 502.355592426311  L 960.935203428004 502.549284577585  C 961.579400240394 505.812180052208  962.149140383709 509.08933520074  962.643979963819 512.378196736494  L 963.632849597835 512.229412171027  Z M 965.078636449226 523.98144547106  C 964.797859449005 521.049685369287  964.458204016651 518.123862744007  964.05987579604 515.205749030173  L 963.069063984008 515.340996777434  C 963.518881733955 518.636317763806  963.893528972659 521.941463622163  964.192713806154 525.253859257772  L 965.078636449226 523.98144547106  Z M 898.735687298051 387.373359611311  C 896.318160399984 385.067204980196  893.848382085682 382.816453957429  891.328276600982 380.622860140999  L 890.671723399018 381.377139859001  C 893.18036707297 383.56075688782  895.638912471896 385.801271163578  898.045444101729 388.096937063925  L 898.735687298051 387.373359611311  Z M 958.223488843935 523.543911973609  L 965 529  L 970.77996539782 522.497538927452  L 958.223488843935 523.543911973609  Z " fill-rule="nonzero" fill="#797979" stroke="none" />
  </g>
</svg>