<?xml version="1.0" encoding="utf-8"?>
<svg version="1.1" xmlns:xlink="http://www.w3.org/1999/xlink" width="86px" height="12px" viewBox="1118 408  86 12" xmlns="http://www.w3.org/2000/svg">
  <g transform="matrix(0.515038074910061 -0.857167300702114 0.857167300702105 0.515038074910053 208.173532538748 1195.94547310239 )">
    <path d="M 1152.91808102619 398.533803674818  C 1150.95633331106 395.828664352485  1148.92918663643 393.171560466622  1146.8384334386 390.564841472021  L 1146.05835032555 391.19051737593  C 1148.13897477387 393.784608001118  1150.1563008437 396.428839425653  1152.10854478228 399.120873576793  L 1152.91808102619 398.533803674818  Z M 1160.23054440996 409.317735945286  C 1158.4433722986 406.494218866283  1156.58790095324 403.714515503108  1154.66577101202 400.981083715019  L 1153.84776800403 401.556297656888  C 1155.76058609882 404.276487209639  1157.60706852837 407.042724172712  1159.38558260268 409.852562594064  L 1160.23054440996 409.317735945286  Z M 1166.84808092077 420.541528819408  C 1165.24260509314 417.610883802017  1163.56620188356 414.7196562116  1161.82035359519 411.870402518953  L 1160.96768988459 412.392862657743  C 1162.70508033106 415.228313010534  1164.37336212861 418.105533916632  1165.97106015515 421.021981290172  L 1166.84808092077 420.541528819408  Z M 1172.7443241223 432.160463024465  C 1171.32694132078 429.134366719822  1169.83628558729 426.143134501329  1168.27367498407 423.189411265523  L 1167.38974786279 423.657035948649  C 1168.94478832746 426.596449737122  1170.42822251106 429.573190794294  1171.83873873676 432.584627036961  L 1172.7443241223 432.160463024465  Z M 1177.89578144742 444.12824491505  C 1176.67213899003 441.018754283523  1175.37316999409 437.939435487382  1174.00002302927 434.893011310737  L 1173.08835435293 435.30393736806  C 1174.45484904447 438.33560300342  1175.74752512569 441.400003898792  1176.96523959121 444.494430460709  L 1177.89578144742 444.12824491505  Z M 1182.22206583501 456.421665464103  C 1181.39119373349 453.773342520405  1180.50699002325 451.142047469047  1179.56999416286 448.5293856806  C 1179.37438216931 447.996967951225  1179.17657646193 447.465358766031  1178.97658208167 446.934571672709  L 1178.04080423735 447.287161840014  C 1178.2393745419 447.814169422103  1178.43577673018 448.341991380499  1178.63000581994 448.870614325632  C 1179.56197750079 451.469421195631  1180.44146158363 454.086752861576  1181.26792199078 456.721013964216  L 1182.22206583501 456.421665464103  Z M 1185.72809371927 468.970493474234  C 1184.93093996089 465.725377338168  1184.0551034262 462.500096720115  1183.10135854423 459.29750346602  L 1182.14295492625 459.582919837376  C 1183.09207934751 462.769997981947  1183.96367285204 465.979653580508  1184.75696476257 469.209048603003  L 1185.72809371927 468.970493474234  Z M 1188.43543034517 481.715517771863  C 1187.8445993136 478.426573937866  1187.17399083012 475.152462002914  1186.42419785776 471.896076990413  L 1185.44969659272 472.120458996006  C 1186.19585715873 475.361068302349  1186.86321684873 478.61931865226  1187.45118557234 481.892329047398  L 1188.43543034517 481.715517771863  Z M 1190.33328879546 494.605957999246  C 1189.95113455535 491.286290698476  1189.48842604727 487.97639258263  1188.94557240568 484.679190317852  L 1187.9588562263 484.841643946164  C 1188.49907998859 488.122872763741  1188.95954688413 491.416735926749  1189.33984976055 494.720320947424  L 1190.33328879546 494.605957999246  Z M 1191.41410737948 507.590454413875  C 1191.24215255869 504.253290289855  1190.9891876085 500.920793713007  1190.65543620468 497.595911331405  L 1189.6604365119 497.695789313889  C 1189.99257104179 501.004564150697  1190.2443104917 504.320916295429  1190.4154322695 507.641913375192  L 1191.41410737948 507.590454413875  Z M 1191.67357976145 520.617272522533  C 1191.71250948439 517.275907931876  1191.67029598744 513.934090653593  1191.54697659645 510.594775577289  L 1190.54765779547 510.631679967297  C 1190.67037976002 513.954817578961  1190.71238875176 517.280445270558  1190.67364762565 520.605622467609  L 1191.67357976145 520.617272522533  Z M 1144.93982602239 388.232698731785  C 1142.81131894993 385.656715328589  1140.62057376339 383.132797693569  1138.36952755554 380.663177516051  L 1137.63047244446 381.336822483949  C 1139.87061335597 383.794478473543  1142.05074537724 386.306168874122  1144.16894079981 388.869672807883  L 1144.93982602239 388.232698731785  Z M 1184.89696203376 520.799763909121  L 1191 527  L 1197.49039580613 521.206489641004  L 1184.89696203376 520.799763909121  Z " fill-rule="nonzero" fill="#797979" stroke="none" />
  </g>
</svg>