<?xml version="1.0" encoding="utf-8"?>
<svg version="1.1" xmlns:xlink="http://www.w3.org/1999/xlink" width="66px" height="66px" xmlns="http://www.w3.org/2000/svg">
  <g transform="matrix(1 0 0 1 -461 -305 )">
    <path d="M 494 307  C 511.36 307  525 320.64  525 338  C 525 355.36  511.36 369  494 369  C 476.64 369  463 355.36  463 338  C 463 320.64  476.64 307  494 307  Z " fill-rule="nonzero" fill="#ffffff" stroke="none" />
    <path d="M 494 306.5  C 511.64 306.5  525.5 320.36  525.5 338  C 525.5 355.64  511.64 369.5  494 369.5  C 476.36 369.5  462.5 355.64  462.5 338  C 462.5 320.36  476.36 306.5  494 306.5  Z " stroke-width="3" stroke="#f59a23" fill="none" />
  </g>
</svg>