<?xml version="1.0" encoding="utf-8"?>
<svg version="1.1" xmlns:xlink="http://www.w3.org/1999/xlink" width="368px" height="48px" viewBox="54 466  368 48" xmlns="http://www.w3.org/2000/svg">
  <g transform="matrix(-0.342020143325668 -0.939692620785908 0.939692620785909 -0.342020143325669 -141.048590073586 881.236713976624 )">
    <path d="M 649.982625550622 231.504313134208  C 651.979348419364 231.556908160874  653.975859670591 231.617251473237  655.972114206287 231.685341708236  L 656.040292546694 229.68650411756  C 654.03886688429 229.618237500628  652.037183841288 229.557737874072  650.03528863266 229.505006604486  L 649.982625550622 231.504313134208  Z M 641.994798123098 231.335261820264  C 643.991958338913 231.367191802345  645.988987128346 231.40687184509  647.985839381695 231.454301052191  L 648.033329959853 229.454864970446  C 646.031305031408 229.407312902037  644.029103109663 229.367530071534  642.026769421002 229.335517377564  L 641.994798123098 231.335261820264  Z M 634.005649030648 231.24887815711  C 636.003032726785 231.260139675369  638.000365201751 231.279152199344  639.997601338981 231.30591529957  L 640.02439906934 229.306094837217  C 638.021989262596 229.279262409466  636.019482868648 229.260200635174  634.016925120757 229.248909944915  L 634.005649030648 231.24887815711  Z M 626.016033794695 231.245171395177  C 628.013427080474 231.235763243671  630.010849355775 231.234106212909  632.008255502006 231.240200340323  L 632.01435751492 229.240209648985  C 630.011777258781 229.234099735255  628.009180831878 229.235761058413  626.006613469504 229.245193580932  L 626.016033794695 231.245171395177  Z M 618.02680798658 231.324141931406  C 620.023996970292 231.294065117609  622.021295151116 231.271738709556  624.018657413263 231.257163211565  L 624.004063055296 229.257216461095  C 622.001526796918 229.271829715668  619.999054785948 229.294213958372  617.996692254869 229.324368683584  L 618.02680798658 231.324141931406  Z M 610.038827135939 231.485781309202  C 612.035597947754 231.435039053904  614.032558152578 231.392045659393  616.029662642255 231.35680209682  L 615.994373476249 229.357113452365  C 613.992095658131 229.392448310373  611.989962498556 229.435553075599  609.988019222664 229.486426774371  L 610.038827135939 231.485781309202  Z M 602.052946639095 231.730072219345  C 604.049085453963 231.658669956302  606.045493837454 231.595014179297  608.042126693879 231.539106326215  L 607.98614649879 229.539889925283  C 605.98434153565 229.595942602878  603.982761626853 229.659763274733  601.981451985042 229.731350499235  L 602.052946639095 231.730072219345  Z M 594.070021667452 232.056988501839  C 596.065314728 231.964933877192  598.060957503919 231.8806225343  600.056904916814 231.804056377625  L 599.980239687305 229.805526307152  C 597.979121943278 229.88229080191  595.978309625294 229.96682054613  593.977847928657 230.059113630413  L 594.070021667452 232.056988501839  Z M 586.090907075919 232.466495148715  C 588.085140715342 232.353798020172  590.079804179436 232.24884013991  592.074852411925 232.15162387876  L 591.977510357725 230.153994152188  C 589.977294123301 230.251462243753  587.97746365407 230.356692008429  585.978064122846 230.469681069252  L 586.090907075919 232.466495148715  Z M 578.11645731137 232.958548307779  C 580.109417976313 232.82522074356  582.102888529197 232.699627565387  584.096823940693 232.581771610208  L 583.978815485717 230.585256144564  C 581.979714955006 230.703417395519  579.981080487015 230.829335912088  577.982957227855 230.963008849963  L 578.11645731137 232.958548307779  Z M 570.147526321146 233.533095287311  C 572.139000594569 233.379151564855  574.131064764602 233.232936537968  576.123673833686 233.094453509415  L 575.985011614919 231.099266102406  C 573.987240862345 231.238107859409  571.990016420423 231.38470164382  569.993383403101 231.539044144331  L 570.147526321146 233.533095287311  Z M 562.184967461603 234.190074561702  C 564.174742085639 234.015531166139  566.165186551785 233.848709948037  568.156255899067 233.689614675623  L 567.996954765211 231.69596898274  C 566.000727723009 231.855476377855  564.005127180575 232.022729732066  562.010198215489 232.197725267373  L 562.184967461603 234.190074561702  Z M 554.230205818503 234.92924164405  C 554.969164371319 234.856270028467  555.708274033551 234.784836832694  556.447530000498 234.714942521094  C 557.696543364714 234.595980383485  558.945844853152 234.480062990657  560.195423331169 234.367191375746  L 560.015500341055 232.375300887384  C 558.762914544069 232.488444146657  557.510606352119 232.604639954492  556.258586922428 232.723887275663  C 555.516797327671 232.794022098155  554.775154495289 232.865700601113  554.033663243644 232.938922318849  L 554.230205818503 234.92924164405  Z M 546.289930983347 235.773212361747  C 548.273393568794 235.547410164269  550.258104350182 235.332710408818  552.243970081175 235.12912318249  L 552.040002878691 233.139551022373  C 550.046713903177 233.343899265793  548.054584194503 233.559401577409  546.063707347587 233.786047832418  L 546.289930983347 235.773212361747  Z M 538.363135589435 236.735587451405  C 540.343007480456 236.480209779518  542.324293118116 236.235914685513  544.306899416847 236.002713646963  L 544.073263130781 234.016407002501  C 542.083245771414 234.250479755742  540.09455400979 234.495688034456  538.107281279459 234.752020318166  L 538.363135589435 236.735587451405  Z M 530.451585168165 237.816152563673  C 532.427425388852 237.531256297522  534.404844591918 237.2574202767  536.383749873449 236.994657366682  L 536.120496541499 235.012058647017  C 534.134194033882 235.275803775169  532.149383159737 235.550663405852  530.166157170282 235.836624625495  L 530.451585168165 237.816152563673  Z M 522.557041855432 239.014667024793  C 524.528410327825 238.70031561919  526.50152266665 238.396999662918  528.47628617034 238.104733406492  L 528.183474426798 236.126284194902  C 526.201329179125 236.419642954139  524.2208412685 236.724092717427  522.242103742885 237.039619181002  L 522.557041855432 239.014667024793  Z M 514.681263999142 240.330863890205  C 516.647721641272 239.98712736049  518.616087645476 239.654399026189  520.586269533182 239.33269451968  L 520.263964595868 237.358835475224  C 518.286418090466 237.681742525881  516.310694256398 238.015714611837  514.336885917949 238.360736042274  L 514.681263999142 240.330863890205  Z M 506.826005767583 241.764450004003  C 508.787114591267 241.39140491045  510.750295847618 241.029338306544  512.715457301657 240.678267203046  L 512.363730957398 238.709437962417  C 510.391223652243 239.061821383564  508.420703946819 239.425241406735  506.452264420912 239.799680957578  L 506.826005767583 241.764450004003  Z M 498.993016758716 243.315106064226  C 500.94833996711 242.912835494994  502.905899217173 242.521511264408  504.865602538061 242.141151757821  L 504.4845331267 240.177790837428  C 502.517504357413 240.55957214287  500.552627673559 240.952359158886  498.5899953898 241.356133431391  L 498.993016758716 243.315106064226  Z M 491.184041610487 244.982486693983  C 493.133143695375 244.551080246606  495.084644932902 244.1305855488  497.038453636844 243.721022356417  L 496.628126033791 241.763567054712  C 494.667013915761 242.174661210481  492.708217889534 242.596727734075  490.751829984086 243.029746795788  L 491.184041610487 244.982486693983  Z M 483.400819612248 246.766220518372  C 485.343266451042 246.305774279804  487.288275019083 245.856202771364  489.235753935187 245.417527115003  L 488.796259532516 243.466413415082  C 486.841500863321 243.906728858369  484.889221776435 244.357980882863  482.939513994653 244.820148287653  L 483.400819612248 246.766220518372  Z M 475.645084317363 248.665910247199  C 477.580443269795 248.176526772414  479.518525957509 247.69797858619  481.459241324714 247.230288171873  L 480.990678010806 245.28595064437  C 479.042708172922 245.755389303924  477.097380855578 246.235726322168  475.154787454957 246.726939131707  L 475.645084317363 248.665910247199  Z M 467.918563157095 250.681132763468  C 469.846403161579 250.162921052617  471.777128300723 249.655502775421  473.710647864412 249.158901771613  L 473.213120002152 247.221773477907  C 471.272372865957 247.720230795884  469.33443060004 248.229545822627  467.399384253467 248.749694629324  L 467.918563157095 250.681132763468  Z M 460.225369929589 252.8132557185  C 461.119298860567 252.556853351703  462.014136626719 252.30363023597  462.909866259155 252.053591173194  C 463.936294511325 251.766971661444  464.963576808239 251.483419456489  465.991699394846 251.202938355024  L 465.465317798381 249.273450750788  C 464.43338008459 249.55497265331  463.402285755826 249.839576971704  462.372048617057 250.1272598955  C 461.471780837222 250.378565977239  460.572409414962 250.633072144183  459.673951404219 250.89077357037  L 460.225369929589 252.8132557185  Z M 452.577894050703 255.091172371748  C 454.483914979194 254.502267054124  456.394399904571 253.927907966407  458.309182118922 253.368145226869  L 457.747995332564 251.448491770951  C 455.823452022606 252.011108045255  453.903227908184 252.588395076376  451.987490546998 253.180302490565  L 452.577894050703 255.091172371748  Z M 444.978327712491 257.524150601903  C 446.871977380419 256.896602844256  448.770385960037 256.283507520045  450.673387797209 255.684918127646  L 450.073275582262 253.777075018407  C 448.160572703016 254.378715874429  446.252486496587 254.994936610003  444.349183461677 255.625683454  L 444.978327712491 257.524150601903  Z M 437.429814614793 260.111183962949  C 439.310309679281 259.445253361905  441.195856601652 258.793675419312  443.086290850071 258.156506991521  L 442.447501453949 256.261263443213  C 440.547430229963 256.901680001203  438.652271246417 257.556579530212  436.762189873914 258.225904884041  L 437.429814614793 260.111183962949  Z M 429.935477338338 262.851202281141  C 431.802039898152 262.147164311093  433.673945172249 261.457373287272  435.551029819157 260.78188940048  L 434.873827488794 258.900029415319  C 432.987173919353 259.578956755231  431.105726125898 260.272264166494  429.229648282599 260.979891151458  L 429.935477338338 262.851202281141  Z M 422.498416053036 265.743072097705  C 424.350273970379 265.001217996857  426.207763248292 264.273499236501  428.070721803236 263.559979316995  L 427.355386675784 261.692281360838  C 425.482931209699 262.40943863194  423.615972901681 263.140867126146  421.754674661558 263.886503019378  L 422.498416053036 265.743072097705  Z M 415.121707235534 268.785597137713  C 416.958094455452 268.006233787605  418.800399352713 267.240888324912  420.648461168757 266.489627533277  L 419.895289155695 264.6368642136  C 418.037806368474 265.391954750648  416.186109847401 266.161201759  414.340361170568 266.944538114553  L 415.121707235534 268.785597137713  Z M 407.808402396574 271.977518804944  C 409.628559263851 271.160968603504  411.454917677288 270.358313037644  413.287318269807 269.569622146669  L 412.496620934537 267.732559892962  C 410.654879207963 268.525271338924  408.819210462023 269.332018648304  406.989774876234 270.152731424743  L 407.808402396574 271.977518804944  Z M 400.561526818682 275.317516702525  C 402.364700392086 274.464117430701  404.174356815082 273.624483794855  405.990338178001 272.798689060977  L 405.162442606961 270.978087807695  C 403.337203811239 271.808092242958  401.518322198438 272.652006127562  399.705956483238 273.509755822013  L 400.561526818682 275.317516702525  Z M 393.384078304702 278.804209179136  C 395.169522668449 277.914313861173  396.961728503474 277.038049485175  398.760539422833 276.175492513513  L 397.895788090192 274.372105385718  C 396.087807268789 275.239059463742  394.286465202829 276.119790823132  392.491919076498 277.01422261172  L 393.384078304702 278.804209179136  Z M 386.279025937702 282.43615390056  C 388.046002510023 281.510130657958  389.820016378298 280.597598024621  391.600912743008 279.698635627668  L 390.699663368998 277.913208629484  C 388.909688426302 278.816753718831  387.126631065327 279.733938222345  385.350646874747 280.664682106975  L 386.279025937702 282.43615390056  Z M 379.257810673801 286.219866900924  C 380.611845622258 285.468364069898  381.971242868243 284.726563746254  383.335897922305 283.994522948137  C 383.728382113523 283.784567241528  384.121223324728 283.575279619323  384.514419849264 283.36666099075  L 383.577045252198 281.599932696762  C 383.181503797512 281.809795477004  382.786320083302 282.020331820354  382.391495829506 282.231540810505  C 381.018087352271 282.968270932745  379.649971677987 283.714825610815  378.28725401829 284.47114743273  L 379.257810673801 286.219866900924  Z M 372.332684441854 290.175468202345  C 374.051738445194 289.165334832646  375.780066132984 288.171067086238  377.517447284145 287.192791651317  L 376.536164033235 285.450068729713  C 374.788074667472 286.434373689756  373.049094565405 287.434769528661  371.319445305424 288.451128777404  L 372.332684441854 290.175468202345  Z M 365.506860533922 294.300063086948  C 367.200570837113 293.247988232272  368.903941929115 292.211546303913  370.616756768782 291.190869363841  L 369.592941644607 289.472788285571  C 367.869570002902 290.499756089168  366.155700314674 291.542586047339  364.451550958781 292.601145284164  L 365.506860533922 294.300063086948  Z M 358.784462055978 298.59116011311  C 360.451805581489 297.497779274192  362.12919116462 296.419789221624  363.81640507526 295.35732731138  L 362.750676508402 293.664925875024  C 361.053063585073 294.733936187231  359.365339565395 295.818570348268  357.68771949678 296.918690155579  L 358.784462055978 298.59116011311  Z M 352.169549640364 303.046167264391  C 353.80951923739 301.912140892648  355.459906094986 300.793253870557  357.120499923184 299.689648765128  L 356.013501661837 298.023949257601  C 354.342672891769 299.134356347905  352.682114002197 300.260139543771  351.032036579157 301.401155399515  L 352.169549640364 303.046167264391  Z M 345.666118992986 307.662393515231  C 347.27772404581 306.488406613818  348.90011526966 305.329298480508  350.53308594173 304.185216807228  L 349.38548666285 302.547225386275  C 347.742451302105 303.698358518628  346.110060595195 304.864610725434  344.488522539042 306.045833404485  L 345.666118992986 307.662393515231  Z M 339.278098479726 312.437050456454  C 340.860365506097 311.223812166488  342.453781098614 310.02518307563  344.058142226508 308.841315911511  L 342.870635131897 307.232021997942  C 341.256385648046 308.423185835935  339.653149161535 309.62920258466  338.061129954496 310.849918575166  L 339.278098479726 312.437050456454  Z M 333.009346753529 317.367253979586  C 334.56131999269 316.115497151801  336.124797458881 314.878071129509  337.699579936005 313.655133583794  L 336.472882333591 312.075509263827  C 334.888393806239 313.305984290697  333.315279967386 314.551037092747  331.753741260976 315.810509027107  L 333.009346753529 317.367253979586  Z M 326.863650423609 322.450026018996  C 328.384392413618 321.160506771058  329.916987342467 319.885031278547  331.461239929071 318.623762060756  L 330.196092799616 317.074761498835  C 328.64232233141 318.343804452082  327.100281372032 319.627141239323  325.570166406167 320.924608339597  L 326.863650423609 322.450026018996  Z M 320.84472176816 327.682296350774  C 322.333313912165 326.355793610554  323.834100547097 325.043039092646  325.346890444865 323.744200066356  L 324.044057994386 322.22675892879  C 322.521944132873 323.533603249146  321.011907515367 324.854448828189  319.514140548604 326.18912736564  L 320.84472176816 327.682296350774  Z M 314.963058958305 333.065133233242  C 315.869430242338 332.212911278257  316.780761840894 331.365980241103  317.697007300212 330.524383292821  C 318.24966751108 330.018788959747  318.804076676555 329.515109717824  319.360224826671 329.01335462474  L 318.020494024819 327.528389514522  C 317.460421824303 328.033684873401  316.902102432952 328.540919674618  316.345545908821 329.050084780397  C 315.423078566863 329.897386113621  314.50556103787 330.750060621193  313.593040140825 331.608064792931  L 314.963058958305 333.065133233242  Z M 309.221581052343 338.599946860664  C 310.639650815021 337.198425468938  312.070783032472 335.810182654869  313.514790353142 334.435400155295  L 312.135723343014 332.98689258487  C 310.682694452466 334.370264165822  309.242621103542 335.767180155832  307.815691818289 337.177457682648  L 309.221581052343 338.599946860664  Z M 303.619756793686 344.276063086576  C 305.002474667148 342.839652509575  306.398581711081 341.416191004485  307.807895159153 340.005864918647  L 306.393173791156 338.592159344303  C 304.975055526402 340.01129657337  303.570226174014 341.443651286454  302.178869642193 342.889035971967  L 303.619756793686 344.276063086576  Z M 298.161062691508 350.089959295984  C 299.507570556827 348.61955097449  300.867785998981 347.161754182901  302.241530950233 345.716759763468  L 300.792033204752 344.338733535181  C 299.409705654301 345.792755691484  298.040992139816 347.25966020395  296.686071841523 348.739255038027  L 298.161062691508 350.089959295984  Z M 292.84888642797 356.038027367218  C 294.158348638273 354.534533841103  295.4818283248 353.043306476147  296.819152228942 351.564540491045  L 295.335777668685 350.223048816086  C 293.99009870922 351.711053529052  292.658350460409 353.211597475496  291.340707263302 354.724484217085  L 292.84888642797 356.038027367218  Z M 287.686524755818 362.116575911142  C 288.95812865488 360.580930253056  290.244051230252 359.057197774981  291.544124140005 357.545577950873  L 290.027793351738 356.241453363055  C 288.719598115713 357.762517172433  287.425641619589 359.29576931072  286.146093257045 360.841009057706  L 287.686524755818 362.116575911142  Z M 282.677181452409 368.321832562041  C 283.910137878978 366.754987798355  285.157705295742 365.199695840161  286.4197203819 363.656160292913  L 284.87137440512 362.390212135922  C 283.601474762479 363.943391064885  282.346113052379 365.508399854075  281.105453616002 367.085033625971  L 282.677181452409 368.321832562041  Z M 277.823965331432 374.649946318764  C 279.017509108996 373.052874838109  280.225947123026 371.466988618707  281.449121175185 369.892495271179  L 279.869720918115 368.665509196291  C 278.638904972442 370.249839337267  277.422917129654 371.845633528154  276.221916576468 373.452682861241  L 277.823965331432 374.649946318764  Z M 273.129888313573 381.096989934666  C 274.283278725241 379.47068288445  275.451837376215 377.855186609671  276.635411288845 376.250712597214  L 275.025936932089 375.063450075719  C 273.834968531495 376.677948188614  272.659109201789 378.30353742645  271.498512876383 379.940004981035  L 273.129888313573 381.096989934666  Z M 268.597863557307 387.658962354871  C 269.710384805477 386.004429026201  270.83833888235 384.360325277937  271.981578125877 382.726866342007  L 270.343028514116 381.580064192638  C 269.192646777217 383.223728315007  268.05764570246 384.878103754176  266.938173874448 386.542973933512  L 268.597863557307 387.658962354871  Z M 264.232141225575 394.332944636698  C 264.801735474898 393.438881740181  265.375084168204 392.54721629318  265.95217211955 391.657971912707  C 266.461534698247 390.875387258397  266.974318856231 390.095034946703  267.490509869297 389.316937384846  L 265.823901891403 388.211307316505  C 265.304238714034 388.994638759833  264.788006941578 389.780241198133  264.275221411307 390.568092052017  C 263.694836932293 391.462409203183  263.118214620581 392.35916227052  262.545369761691 393.258327482254  L 264.232141225575 394.332944636698  Z M 260.016261501662 401.106944923188  C 261.052343832908 399.402387096139  262.101887934982 397.706048231238  263.164795383292 396.018087408469  L 261.472382733689 394.952376648711  C 260.403857557663 396.649258760265  259.348766356462 398.354563193949  258.307208074851 400.06813002904  L 260.016261501662 401.106944923188  Z M 255.944139916443 407.968325799007  C 256.94405355075 406.242302419444  257.957599249678 404.524212351094  258.984681964505 402.814216713738  L 257.270176385709 401.784425171592  C 256.237665285706 403.503458557157  255.218762748081 405.230629154757  254.213564323882 406.965774993096  L 255.944139916443 407.968325799007  Z M 252.017586820863 414.914036886825  C 252.980887224699 413.167315296291  253.957983926513 411.428237839108  254.948785295715 409.696967603224  L 253.212949008777 408.703553095101  C 252.21691101025 410.44397352069  251.234650111666 412.192242430642  250.266258427881 413.948195875097  L 252.017586820863 414.914036886825  Z M 248.238347850205 421.940990318471  C 249.164606767252 420.17434706035  250.104820082187 418.415055359355  251.058899623288 416.663280199089  L 249.302504332294 415.706684369194  C 248.343382245776 417.467718092741  247.398199671856 419.236308083765  246.467045248243 421.012288486727  L 248.238347850205 421.940990318471  Z M 244.608103148026 429.046062107704  C 245.49690878957 427.260282581998  246.399820725181 425.481558768893  247.3167542812 423.710057474307  L 245.54058083019 422.790705598293  C 244.618801054437 424.57156971364  243.711117006821 426.359694520273  242.817613808499 428.154912330708  L 244.608103148026 429.046062107704  Z M 241.128466619215 436.226093539058  C 241.979423847218 434.421971653214  242.844632994204 432.624606498676  243.72401292222 430.834166629517  L 241.928850948053 429.95246742542  C 241.044823280478 431.752370210372  240.175041290012 433.55923488252  239.319586543421 435.372891996985  L 241.128466619215 436.226093539058  Z M 237.800985212493 443.47789257211  C 238.613715715261 441.656230388075  239.440837425922 439.841022950197  240.282272778306 438.032440485771  L 238.468920359602 437.188785932307  C 237.623037814089 439.006927200611  236.791544561431 440.831728456962  235.974518577736 442.663018574416  L 237.800985212493 443.47789257211  Z M 234.627138232689 450.798235260581  C 235.401280693052 448.959842638224  236.189947252295 447.127599907278  236.993063950509 445.301678892578  L 235.16232725285 444.496444054879  C 234.354965885034 446.332015511966  233.562131028743 448.173942097106  232.783897034763 450.022051077369  L 234.627138232689 450.798235260581  Z M 231.608336683073 458.183867185602  C 232.343546939026 456.329561422678  233.093407727837 454.481097962347  233.857848728742 452.638650150601  L 232.010541646272 451.872193013471  C 231.242060386354 453.724378615799  230.488236398551 455.582611660874  229.749140375272 457.446717886573  L 231.608336683073 458.183867185602  Z M 228.745922638073 465.631504902546  C 229.441873835775 463.762110371344  230.152595487097 461.898247956594  230.878020941683 460.040092448378  L 229.014964735274 459.312753757146  C 228.285705228454 461.180730074976  227.571227238114 463.054443461761  226.871597766886 464.933718203584  L 228.745922638073 465.631504902546  Z M 226.028424953452 473.137597611564  C 226.692873996793 471.255346006262  227.368381204886 469.377016301348  228.054911569099 467.502705842573  L 226.176926909849 466.814829676667  C 225.487700981115 468.696499350762  224.809541489363 470.582204052009  224.142483580689 472.471846052422  L 226.028424953452 473.137597611564  Z M 223.429751206367 480.687103596142  C 224.064616174111 478.794668627751  224.710599420118 476.905981752054  225.367667465852 475.021140851571  L 223.479131722127 474.362784758964  C 222.819483791504 476.255026221059  222.170964183507 478.151128759058  221.533606508124 480.050994106096  L 223.429751206367 480.687103596142  Z M 220.949727809359 488.27641382865  C 221.554852721516 486.37426044957  222.171153293793 484.475680434622  222.798597585983 482.580772179044  L 220.899974752182 481.952097911263  C 220.270066888589 483.8544462565  219.651346499147 485.760480777765  219.043845649481 487.670102693459  L 220.949727809359 488.27641382865  Z M 218.588964079446 495.903663691248  C 219.164200262859 493.992259241595  219.750666742503 492.084252549572  220.348333124342 490.179742498962  L 218.440089673163 489.580904515004  C 217.84007663868 491.492892355367  217.251307481223 493.408390566222  216.673812714173 495.327299875511  L 218.588964079446 495.903663691248  Z M 216.348040032735 503.566979244703  C 216.89324615761 501.646793337491  217.449734455654 499.72982874661  218.017476086473 497.816184820094  L 216.100080854302 497.247330248481  C 215.530110066148 499.168487827623  214.971436795386 501.092979109261  214.424089995658 503.020704355263  L 216.348040032735 503.566979244703  Z M 214.227506241917 511.264477688806  C 214.742548356545 509.335982094562  215.268921749365 507.410530583908  215.806599140707 505.488222944715  L 213.880523212431 504.949491547343  C 213.340734706744 506.879346856006  212.81229458313 508.812358380109  212.295230228375 510.748425939955  L 214.227506241917 511.264477688806  Z M 212.227883700997 518.994267824948  C 212.712635264668 517.05793635581  213.20876442757 515.124470989616  213.716245477461 513.193971929565  L 211.781962070729 512.685496067365  C 211.272488468163 514.623574959344  210.774411324165 516.564631804259  210.287756451938 518.508566005455  L 212.227883700997 518.994267824948  Z M 210.349663697293 526.754450520778  C 210.804005611378 524.810758914089  211.26976865038 522.869754725492  211.746928675785 520.931538548962  L 209.804913024741 520.453443149383  C 209.325879497879 522.399269458021  208.858287706085 524.347894725436  208.402161882634 526.299217962736  L 210.349663697293 526.754450520778  Z M 208.593307690731 534.543119176792  C 209.017128327959 532.592544978173  209.452410809715 530.644478852594  209.899132577179 528.699021759947  L 207.949861815702 528.251424286261  C 207.501386058305 530.204519941438  207.064394501354 532.160234873558  206.638909792247 534.118467726301  L 208.593307690731 534.543119176792  Z M 206.959247200466 542.358360194772  C 207.35244243233 540.401382640864  207.757137412281 538.4467331987  208.173311166718 536.494513169355  L 206.217264211195 536.077523591798  C 205.799456409285 538.037408737389  205.393172451645 539.999732834557  204.998433394232 541.964394184459  L 206.959247200466 542.358360194772  Z M 205.447883698866 550.198253447935  C 205.810356921218 548.235353348609  206.184364969843 546.274600827734  206.569888461512 544.316097502685  L 204.607545893175 543.929818271438  C 204.220508697961 545.896011383206  203.845032159549 547.864462521961  203.481135737279 549.83506967132  L 205.447883698866 550.198253447935  Z M 204.059340653429 558.061593731822  C 204.069235398918 558.003139035164  204.079137250921 557.944685539704  204.089046208574 557.886233250546  C 204.411563286819 555.976220253838  204.74497277688 554.06806248566  205.089258406529 552.161853074664  L 203.121102353378 551.806379094682  C 202.775503316971 553.719860456953  202.44082069859 555.635297393638  202.117070828953 557.552596441683  C 202.107170902741 557.61099576778  202.097278050315 557.669396292657  202.08739227184 557.727798015333  L 204.059340653429 558.061593731822  Z M 202.769019974383 565.945743517849  C 203.08083430294 563.972961419781  203.400726783504 562.001464618654  203.728689367898 560.03130271536  L 201.755836973 559.702892258851  C 201.426977726311 561.678440660416  201.106210647422 563.655327609497  200.793543806521 565.63350336955  L 202.769019974383 565.945743517849  Z M 201.564879099381 573.843514726009  C 201.855130065607 571.867444950278  202.153472738827 569.892572173284  202.459899613039 567.918946080856  L 200.483578298242 567.612100744116  C 200.176313641194 569.591122806042  199.877155287649 571.571394961038  199.58611076414 573.55286738739  L 201.564879099381 573.843514726009  Z M 200.447061648652 581.753965373737  C 200.715714633748 579.774843610037  200.992471915713 577.796830404101  201.277326531611 575.819975520769  L 199.29777201661 575.53473190184  C 199.012138597258 577.516991582308  198.734624650257 579.500412752299  198.465237157587 581.484945510873  L 200.447061648652 581.753965373737  Z M 199.415700946461 589.676151966166  C 199.662723907663 587.694214268207  199.917862788992 585.71329655482  200.181111171411 583.733448663919  L 198.198559561532 583.469840784364  C 197.93459144793 585.455101655399  197.678755007102 587.441435273875  197.431056675642 589.42879166558  L 199.415700946461 589.676151966166  Z M 198.470920005211 597.609129608662  C 198.696283479607 595.624612366016  198.92977352939 593.641026413094  199.171384280182 591.65842165494  L 197.186072038218 591.416480955784  C 196.943800714359 593.404506231452  196.709672293814 595.393515384533  196.483692667028 597.3834583735  L 198.470920005211 597.609129608662  Z M 197.612831510764 605.55195211952  C 197.816508618815 603.565092029426  198.028321988237 601.579074423132  198.248266290018 599.593949266859  L 196.26043020803 599.373704604841  C 196.039884570085 601.364257169493  195.827492094778 603.35570462418  195.623258125695 605.347996866029  L 197.612831510764 605.55195211952  Z M 196.841537809009 613.503672142818  C 197.023504257748 611.514706181951  197.213615683416 609.526493798476  197.411867303 607.539085013831  L 195.421744474073 607.34056265796  C 195.22295082695 609.333405094513  195.032319629344 611.327053326986  194.849855677349 613.321457197139  L 196.841537809009 613.503672142818  Z M 196.157130893647 621.463341261412  C 196.317364979582 619.47250665762  196.485751786537 617.482336634928  196.662287078067 615.49288126403  L 194.670114868027 615.316104892455  C 194.493096922234 617.310999510706  194.324249739284 619.306610734656  194.163577567207 621.302888356677  L 196.157130893647 621.463341261412  Z M 195.559692395227 629.430010110052  C 195.698175006926 627.437544314057  195.844817111343 625.445654023608  195.999615019111 623.454389352676  L 194.005631038222 623.299380049859  C 193.850409907033 625.29608891484  193.703366877471 627.293425109826  193.564505648996 629.291338383792  L 195.559692395227 629.430010110052  Z M 195.049293571402 637.402728488618  C 195.166008191771 635.408869145752  195.290888103368 633.415496164077  195.423930164322 631.422659695181  L 193.42837223894 631.289435949385  C 193.294966435884 633.287720909686  193.169745097813 635.286543849631  193.052711375192 637.28585448048  L 195.049293571402 637.402728488618  Z M 194.625995298434 645.380545475451  C 194.720928006699 643.385530397098  194.824030830793 641.390912477886  194.935301176754 639.396741900413  L 192.938407320961 639.285319601493  C 192.826832757603 641.284942317875  192.723448046429 643.285013599065  192.628255788496 645.285483125224  L 194.625995298434 645.380545475451  Z M 194.289848063934 653.362509540769  C 194.362987537282 651.366576676319  194.444300976605 649.370951721434  194.533786336138 647.375684884046  L 192.535794723357 647.286077321556  C 192.446064707415 649.28679929507  192.364528954027 651.287880365208  192.291189514552 653.289270186726  L 194.289848063934 653.362509540769  Z M 194.164801983635 657.025701134826  C 194.182378896566 656.469959168763  194.200589424506 655.914237423177  194.219433531933 655.358536981998  L 192.220582466517 655.290754843608  C 192.152707700266 657.292337444243  192.093030629592 659.29418963049  192.041552755912 661.296261037704  L 194.164801983635 657.025701134826  Z M 657.968275933328 231.75601399601  C 659.964347635082 231.829268435102  661.960127550846 231.910268555192  663.955570599125 231.999012526617  L 664.044429400875 230.000987473383  C 662.043817327925 229.912013618284  660.042867514951 229.830803674309  658.041625160053 229.757359475854  L 657.968275933328 231.75601399601  Z M 185.597791340415 655.79116465995  L 193 663  L 200.79190172386 656.214259986877  L 185.597791340415 655.79116465995  Z " fill-rule="nonzero" fill="#aaaaaa" stroke="none" />
  </g>
</svg>