<?xml version="1.0" encoding="utf-8"?>
<svg version="1.1" xmlns:xlink="http://www.w3.org/1999/xlink" width="278px" height="42px" viewBox="644 406  278 42" xmlns="http://www.w3.org/2000/svg">
  <g transform="matrix(-0.669130606358858 -0.743144825477394 0.743144825477394 -0.669130606358858 989.606424300139 1294.60116726403 )">
    <path d="M 871.749896772648 346.380302149235  C 873.425335460697 345.291881987242  875.104140453096 344.208652472572  876.786287604151 343.130629184957  L 875.707151321204 341.446745316387  C 874.021528044159 342.526996319198  872.33925383229 343.612464307627  870.660352881166 344.703133669764  L 871.749896772648 346.380302149235  Z M 865.066198446515 350.761599179029  C 866.732592603201 349.659381523116  868.402395810208 348.56232654098  870.075584051309 347.4704500112  L 868.982580223544 345.79553430213  C 867.305934369874 346.889667174573  865.632680545421 347.988989200541  863.962842816016 349.093484568864  L 865.066198446515 350.761599179029  Z M 858.41890566701 355.197936145668  C 860.076141670629 354.081996149632  861.736829238095 352.971190501816  863.400944484289 351.865535178567  L 862.294147637266 350.199701831735  C 860.62659352768 351.307641971269  858.962474180067 352.420743078414  857.301813528883 353.538989143821  L 858.41890566701 355.197936145668  Z M 851.80847167428 359.689010561193  C 853.456436527527 358.559424314509  855.107895222933 357.434943740315  856.762824007859 356.315585011818  L 855.642309607602 354.65894761069  C 853.983960942894 355.780619473334  852.329089538721 356.907423765781  850.677719196527 358.039344281591  L 851.80847167428 359.689010561193  Z M 845.235347195288 364.234516205421  C 846.87392853313 363.091360727929  848.516045752963 361.953281899251  850.161675236758 360.820296087995  L 849.027519684615 359.172967589018  C 847.378489537913 360.308294694507  845.732978913214 361.448725342038  844.091011477329 362.594243129191  L 845.235347195288 364.234516205421  Z M 838.699980413076 368.834143146814  C 840.329066510161 367.677496383654  841.961730288104 366.525896899395  843.597948264845 365.379361257108  L 842.45022889227 363.74145398201  C 840.810629701329 364.890358919007  839.174592053882 366.044338162303  837.542139480494 367.203375114617  L 838.699980413076 368.834143146814  Z M 832.202816936212 373.487577763625  C 833.822296714654 372.317518579797  835.445395728883 371.152476960812  837.072090634402 369.992469663076  L 835.91088569769 368.364095291208  C 834.28082925722 369.52649972258  832.654376138896 370.693948878526  831.03154973543 371.866425968026  L 832.202816936212 373.487577763625  Z M 825.744299768401 378.194502765271  C 827.354062805315 377.011110940291  828.967486386167 375.832706623977  830.584547305621 374.659306764927  L 829.409935980568 373.040576325646  C 827.789533434617 374.216400993812  826.172775743773 375.397240460853  824.559686161303 376.583077743162  L 825.744299768401 378.194502765271  Z M 819.324869278282 382.954597213972  C 820.92480581335 381.757953436399  822.528443950794 380.56626677134  824.135760626266 379.379554358244  L 822.947823002771 377.770578223341  C 821.337184837144 378.959742955671  819.730232811063 380.153892219247  818.126990036764 381.353008839032  L 819.324869278282 382.954597213972  Z M 812.944963169401 387.767536546635  C 814.534964112195 386.557722408696  816.128707463659 385.352834648935  817.726170301512 384.152890596855  L 816.524987378117 382.553778473036  C 814.924223412841 383.756202187317  813.327186620215 384.963579825351  811.733899969867 386.175894021841  L 812.944963169401 387.767536546635  Z M 806.605016450368 392.632992596981  C 808.184973388074 391.410090588787  809.768713285324 390.192083888723  811.35621336396 388.978990014787  L 810.141867042327 387.389850936186  C 808.551086424168 388.605451646155  806.964073757626 389.825975334602  805.380851868158 391.051404447158  L 806.605016450368 392.632992596981  Z M 800.300527596589 397.546275902233  C 800.939008812534 397.044840028001  801.578850723289 396.545139158087  802.220046249126 396.047178821587  C 803.154129242399 395.315574199023  804.089556788925 394.585687873887  805.026324143844 393.857523548452  L 803.798897223171 392.2784658692  C 802.86127681251 393.007293288577  801.924995882484 393.737842288497  800.990059171537 394.470109171707  C 800.347092568702 394.969454375621  799.705481058024 395.470541983357  799.065231714829 395.973366469206  L 800.300527596589 397.546275902233  Z M 794.067105551649 402.532080344362  C 795.614330762366 401.271786264367  797.169952346573 400.021835366517  798.733866310616 398.782311210309  L 797.491582308522 397.214915134603  C 795.920692478623 398.459968210199  794.358132016866 399.715494536105  792.804005380771 400.9814101801  L 794.067105551649 402.532080344362  Z M 787.92342567297 407.628058550146  C 789.447970681204 406.340421357992  790.981094855851 405.062976241598  792.522695707216 403.795808598457  L 791.252706668953 402.250775316391  C 789.704229479766 403.523595183182  788.164266777661 404.806738366079  786.632921509493 406.100119086668  L 787.92342567297 407.628058550146  Z M 781.871434990342 412.832595523105  C 783.372816643561 411.518023291473  784.882957537214 410.21348879921  786.401756718101 408.919079254692  L 785.104465123378 407.396898411867  C 783.578891311923 408.697081693019  782.062014408144 410.007435084423  780.553935815545 411.32787098871  L 781.871434990342 412.832595523105  Z M 775.913051475792 418.144041862761  C 777.390793962271 416.802951200499  778.87747298732 415.471740760048  780.372989166111 414.150499533124  L 779.048806147252 412.65165353284  C 777.546619192124 413.978788179599  776.053308809048 415.315936507713  774.568974826101 416.663009128567  L 775.913051475792 418.144041862761  Z M 770.050163435748 423.56071428736  C 771.503798435426 422.193530207395  772.966544439623 420.836065700533  774.438303663495 419.488411513528  L 773.087648875143 418.013375363903  C 771.609324843261 419.367040786209  770.140054234679 420.730560287478  768.679935270413 422.103842716177  L 770.050163435748 423.56071428736  Z M 764.284628912602 429.080896167328  C 765.713695745429 427.688051952039  767.152045161357 426.304763580806  768.599581006403 424.931123526768  L 767.222882492524 423.480364690199  C 765.768889888277 424.860131889957  764.324124689377 426.249590443399  762.888683478704 427.648647464908  L 764.284628912602 429.080896167328  Z M 758.618275095871 434.702838069298  C 760.022320867875 433.284775133135  761.435817859708 431.876101283636  762.858671578833 430.476910690909  L 761.456365637066 429.050888935927  C 760.027165253808 430.456320642993  758.607363333661 431.871277907095  757.197054790704 433.295666138019  L 758.618275095871 434.702838069298  Z M 753.052897743131 440.424758310539  C 754.431477489875 438.9819260602  755.81967409799 437.548313163527  757.21739476622 436.124015457865  L 755.789925809602 434.723182713426  C 754.385970583648 436.153833524158  752.991581900046 437.593841076475  751.606852973995 439.043109105547  L 753.052897743131 440.424758310539  Z M 747.59026061091 446.244843523591  C 748.942937438582 444.777699215528  750.305393721377 443.31960160643  751.677538378837 441.870648170392  L 750.225358794967 440.495448382655  C 748.847093662038 441.950864901074  747.478560118915 443.415466380328  746.119849652373 444.889154911477  L 747.59026061091 446.244843523591  Z M 742.301593633193 452.196295421844  C 743.44554205294 450.857809889438  744.604879294884 449.532553471063  745.779374366838 448.220790217479  C 745.933073520323 448.052071928528  746.086901471269 447.883471016661  746.240858085213 447.714987629255  L 744.764428092879 446.365856620888  C 744.607851796897 446.537206873786  744.451407989153 446.708678144493  744.295096809682 446.880270279522  C 743.108385941226 448.205577648693  741.937014236807 449.544540498812  740.781215841709 450.896891184833  L 742.301593633193 452.196295421844  Z M 737.23282868861 458.340095921825  C 738.473215189982 456.782254698433  739.733855664699 455.240648254294  741.014428838107 453.715669468333  L 739.482816817355 452.429526156766  C 738.191066945609 453.967814785707  736.919423742904 455.522876197151  735.668211287938 457.094314083172  L 737.23282868861 458.340095921825  Z M 732.380640235215 464.656339256257  C 733.566138027268 463.056332089046  734.772441762994 461.471846010762  735.999244015478 459.903284828217  L 734.423860026804 458.671146326169  C 733.186350382522 460.253397733936  731.969518163738 461.851713028144  730.773673480564 463.465684877587  L 732.380640235215 464.656339256257  Z M 727.750890328798 471.137394606355  C 728.880067180639 469.497154505835  730.030576810279 467.871703052482  731.202126009948 466.261454493147  L 729.584873315957 465.084809379369  C 728.403098966907 466.709112006653  727.24254781888 468.348750217108  726.103515638735 470.003306148368  L 727.750890328798 471.137394606355  Z M 723.395386330119 477.786796026741  C 724.438128257432 476.096377064337  725.516036697943 474.42790486166  726.628407528104 472.782469316998  L 724.971505270857 471.662346596075  C 723.84354934391 473.330835848657  722.750538648905 475.022684519015  721.693187174651 476.736787438622  L 723.395386330119 477.786796026741  Z M 719.414820877707 484.660765833688  C 720.361920173428 482.914962316829  721.345352307999 481.189115471388  722.364474872755 479.484352674563  L 720.647831923542 478.458128047634  C 719.614430735707 480.186775768859  718.617220026058 481.936802941033  717.656851203855 483.707066391612  L 719.414820877707 484.660765833688  Z M 715.822777429592 491.745509025548  C 716.671301447553 489.949726748554  717.557212127179 488.171849259815  718.47993076387 486.413037924586  L 716.708862622751 485.483889045495  C 715.77321604974 487.267342563116  714.874893139128 489.070129364455  714.014480703577 490.891071812708  L 715.822777429592 491.745509025548  Z M 712.661239802828 499.016032294483  C 713.150553465283 497.758989487741  713.667518450206 496.512886050998  714.211758015519 495.278630091403  C 714.466268252368 494.699733284303  714.724622451129 494.122534089219  714.986803500319 493.547070735584  L 713.166794192273 492.71787466792  C 712.901089826331 493.301071378641  712.639261547699 493.886026268812  712.381326678392 494.472700639031  C 711.825389515588 495.733524726122  711.297306672102 497.006447779594  710.797462789448 498.290542636117  L 712.661239802828 499.016032294483  Z M 710.111839218099 506.505337463167  C 710.668127476175 504.606529781444  711.285668441946 502.726206200013  711.963494107797 500.867314163084  L 710.084513425039 500.182163381269  C 709.391918141271 502.081560118033  708.76092114311 504.00285538623  708.192511530772 505.943037517713  L 710.111839218099 506.505337463167  Z M 708.216832679518 514.186358584725  C 708.607543155012 512.246700737942  709.060870524406 510.320183696376  709.576104188131 508.409827313392  L 707.645102995215 507.889025630447  C 707.118642544523 509.841008105928  706.655437307742 511.809503375899  706.256213368197 513.791425785284  L 708.216832679518 514.186358584725  Z M 707.051555411585 521.988134873707  C 707.20894716381 520.265325536458  707.432650555653 518.549219061888  707.722167951147 516.843632988456  C 707.762868891251 516.60556109501  707.804509362534 516.367650778878  707.847088391909 516.129907599729  L 705.87841246348 515.777324150281  C 705.834836447904 516.020634076074  705.792222494808 516.264115322965  705.750571603212 516.507762182892  C 705.452362099575 518.264373177097  705.221950550665 520.031822744746  705.059849741683 521.806177393837  L 707.051555411585 521.988134873707  Z M 706.794837773447 529.862425045808  C 706.743746158888 527.892028097851  706.779165259513 525.920338084117  706.900992817634 523.953047426467  L 704.904816722711 523.829431092358  C 704.779371925076 525.855133505205  704.742901179222 527.885365897489  704.795509779017 529.914266830975  L 706.794837773447 529.862425045808  Z M 707.46116116172 537.708255190107  C 707.431056756454 537.505248590061  707.401934135169 537.30209761129  707.373794319205 537.098809378389  C 707.138521498939 535.350245531209  706.972038763833 533.593113100249  706.87473129645 531.831477472655  L 704.87777545831 531.941783322538  C 704.978041993301 533.756989339558  705.149637053245 535.56755149531  705.392163074032 537.36927494565  C 705.421348453586 537.580206479817  705.451559694893 537.7909947998  705.482795725699 538.001632424323  L 707.46116116172 537.708255190107  Z M 709.094902365974 545.40810335409  C 708.567819692434 543.510521697173  708.129071819659 541.589504508223  707.780074235671 539.651249371306  L 705.811727360952 540.005665201628  C 706.171688602359 542.004810058957  706.624219611727 543.986175443201  707.167860433889 545.943369075006  L 709.094902365974 545.40810335409  Z M 711.666319986094 552.847497381416  C 710.909103778592 551.029461104411  710.236655277071 549.177267877742  709.651143934333 547.296893245672  L 707.741576169056 547.891494750727  C 708.345481180036 549.830940804013  709.039054455312 551.741320141253  709.820058389356 553.616469498211  L 711.666319986094 552.847497381416  Z M 715.125003096438 559.931281161495  C 714.427707855794 558.676938777403  713.764428230632 557.403986618813  713.135890156683 556.113817886146  C 712.901563629536 555.629859038903  712.673377707051 555.142950963685  712.451387320493 554.653210874019  L 710.629788385334 555.478908954085  C 710.859085797579 555.984769306755  711.094791978892 556.487700139187  711.336850022367 556.987580028015  C 711.981478100111 558.310875244089  712.661759195635 559.616503346745  713.376947951104 560.903033809483  L 715.125003096438 559.931281161495  Z M 719.299636099726 566.635356172656  C 718.173608455697 565.012267142292  717.108330251008 563.347864377791  716.106009835168 561.645598229508  L 714.382578436075 562.660381069636  C 715.410057581816 564.405374926115  716.502074787526 566.111555009462  717.656366273047 567.775384363854  L 719.299636099726 566.635356172656  Z M 724.117433457012 572.893232097564  C 722.836259111713 571.389587008938  721.611445943164 569.838817226534  720.44553302102 568.244137536571  L 718.831025764356 569.424546922411  C 720.026203667871 571.059253848142  721.281760242619 572.648948706277  722.595092687066 574.190336017904  L 724.117433457012 572.893232097564  Z M 729.484800678248 578.726176259494  C 728.093422880713 577.312536121186  726.737446641014 575.864483058697  725.41813167186 574.383362324834  L 723.924697326367 575.713645699046  C 725.266086458482 577.219547854485  726.644750260423 578.691829065686  728.059407942565 580.129121571708  L 729.484800678248 578.726176259494  Z M 735.233510126369 584.191677908056  C 733.751440092592 582.873429437134  732.302411331705 581.518495902035  730.88777000295 580.128136046785  L 729.485851095902 581.554538296524  C 730.92416154382 582.968161004643  732.397434778353 584.345764655941  733.904302116949 585.686069445671  L 735.233510126369 584.191677908056  Z M 741.33204636709 589.263879038726  C 739.76581036049 588.046827113892  738.230109845305 586.790979526775  736.726371499521 585.497502969766  L 735.422141350579 587.013742963497  C 736.951039545276 588.3288613672  738.512434685491 589.60572121063  740.104876222726 590.843136280844  L 741.33204636709 589.263879038726  Z M 747.735524489152 593.978702863037  C 746.194856740663 592.894428406666  744.670302351472 591.787437008164  743.162361046214 590.658091521668  C 743.077565179588 590.59477993582  742.992853424763 590.531355773457  742.908226005841 590.467819202365  L 741.70742776433 592.067220209988  C 741.79307786304 592.13152458858  741.878812926809 592.195715720112  741.964632731001 592.259793436393  C 743.4879672619 593.400649297222  745.028079896476 594.518928710075  746.584466070307 595.614265309539  L 747.735524489152 593.978702863037  Z M 754.337178476727 598.422195821872  C 752.663845145926 597.345816628746  751.007418781005 596.243378083259  749.368504940913 595.115283216628  L 748.234531714943 596.76273722897  C 749.890592826473 597.902634881333  751.564349689076 599.016607781175  753.255190408081 600.104248680527  L 754.337178476727 598.422195821872  Z M 761.118052527587 602.587074229852  C 759.401369701111 601.581272720278  757.700494586877 600.548730762422  756.016048993461 599.489825834583  L 754.951626246286 601.18304886044  C 756.653695490868 602.253032668559  758.3723661515 603.296377681952  760.107009913856 604.312702472905  L 761.118052527587 602.587074229852  Z M 768.061776238257 606.457182648249  C 767.876091643676 606.360490235182  767.690486909575 606.263644537909  767.50496222595 606.166645655568  C 765.938010232472 605.327463045509  764.382839426031 604.466465308822  762.839903596596 603.583903679734  L 761.846875991915 605.319961333253  C 763.408833007762 606.21340310975  764.983198556353 607.084974777424  766.569511549317 607.934421076904  C 766.758939750295 608.033467115048  766.948450975094 608.132354287037  767.138045023631 608.231082488466  L 768.061776238257 606.457182648249  Z M 775.176902500993 610.06792313006  C 773.388708992526 609.183923575664  771.607497158083 608.28587081916  769.833432330782 607.373848218325  L 768.919016686 609.152567990683  C 770.702409748548 610.069386110396  772.492987398015 610.972160930744  774.290583431947 611.860808655644  L 775.176902500993 610.06792313006  Z M 782.36620137707 613.528623959677  C 780.559858730128 612.682327629935  778.760201444435 611.821834744039  776.967396565227 610.947225173438  L 776.09049211823 612.744734169476  C 777.892723770016 613.623942536974  779.70184385902 614.488959992629  781.517684461668 615.339706245018  L 782.36620137707 613.528623959677  Z M 789.626509350523 616.837762320685  C 787.802812412266 616.029541612405  785.985501580717 615.206987240853  784.174745539723 614.370175556003  L 783.335738155846 616.185682815641  C 785.156015358674 617.026894551794  786.982881817893 617.853774008067  788.816167962698 618.666244433033  L 789.626509350523 616.837762320685  Z M 796.954631659165 619.993882088889  C 795.114382913186 619.224092644417  793.280218209286 618.439838736814  791.452307795697 617.641193160983  L 790.651566664384 619.473899804345  C 792.489088439455 620.276744749723  794.332897390608 621.065122353839  796.182822374429 621.838959439028  L 796.954631659165 619.993882088889  Z M 804.347343700387 622.995594473053  C 802.491352913589 622.264575023778  800.641141427072 621.518966676329  798.796880978542 620.758838638505  L 798.03475845089 622.607938217448  C 799.888716231264 623.372063095215  801.748656340823 624.121591936404  803.614406138921 624.856455169342  L 804.347343700387 622.995594473053  Z M 811.801392450079 625.841578626011  C 809.930476316354 625.149650843314  808.065032198042 624.44301614697  806.205233246747 623.721740127223  L 805.482064680464 625.5864189802  C 807.35164266681 626.311487551542  809.226895503105 627.021837813732  811.107649127295 627.717403831645  L 811.801392450079 625.841578626011  Z M 819.313497894065 628.530582225878  C 817.428479674926 627.878050579587  815.548623778471 627.210700475678  813.674104694017 626.528593857974  L 812.990208305849 628.408031468073  C 814.874583825507 629.093724680191  816.764324218693 629.764583787069  818.659254078684 630.420546519201  L 819.313497894065 628.530582225878  Z M 826.880354471412 631.061422027118  C 824.982063633728 630.44857365153  823.088623154416 629.820801794936  821.200208783725 629.178164727484  L 820.555885509436 631.071534083476  C 822.45422937832 631.717550209941  824.357625783672 632.348622962572  826.265898051139 632.964693764833  L 826.880354471412 631.061422027118  Z M 834.498632528977 633.4329843812  C 832.587904379983 632.860088948734  830.681712490743 632.272171578672  828.780233795095 631.669286841847  L 828.175767157043 633.575754802103  C 830.087244044593 634.181809575651  832.003458908243 634.772818282314  833.924233883821 635.348726064319  L 834.498632528977 633.4329843812  Z M 842.158223388848 635.723572354422  C 840.241778291079 635.159845664443  838.327339977367 634.589319004098  836.414944620201 634.012003153242  L 835.836945574855 635.926661635473  C 837.753871201795 636.505345088765  839.672844624798 637.077223268634  841.593829585765 637.642285369712  L 842.158223388848 635.723572354422  Z M 849.834551849748 637.942167454236  C 847.912857338369 637.396603710302  845.993105164611 636.844221307863  844.075331601365 636.285030683947  L 843.515479232319 638.205073736817  C 845.437795805712 638.765589026338  847.362095676853 639.319279966431  849.288342486706 639.866136095281  L 849.834551849748 637.942167454236  Z M 857.531533830363 640.088012566681  C 855.604762038981 639.560660637045  853.6798679648 639.02647197154  851.756887977865 638.48545666343  L 851.215232433259 640.410712301261  C 853.142767763878 640.953009219519  855.072221715981 641.488463323541  857.003557833447 642.017064496174  L 857.531533830363 640.088012566681  Z M 865.248479882268 642.160915480117  C 863.316803399278 641.65182260173  861.386939844876 641.135875522502  859.458925683004 640.613083991031  L 858.935515481019 642.543379761233  C 860.868096912024 643.067409732582  862.80253211654 643.584579037868  864.738784544327 644.094877905419  L 865.248479882268 642.160915480117  Z M 872.984698768773 644.160690516616  C 871.048290621856 643.669902290883  869.113630452672 643.172243013332  867.180754815492 642.667722086945  L 866.675636840004 644.602885085465  C 868.613091262605 645.108601170515  870.552334444696 645.60743935221  872.49332974519 646.099390205238  L 872.984698768773 644.160690516616  Z M 880.739497526851 646.0871585486  C 878.798531167669 645.614718937344  876.859247678492 645.135392038684  874.921683701248 644.649186909297  L 874.434903197625 646.589043796104  C 876.377057066542 647.076400695911  878.320934520698 647.556863071152  880.266498831448 648.030421843717  L 880.739497526851 646.0871585486  Z M 888.512181529199 647.940147014879  C 886.566830817562 647.48609833633  884.623097717611 647.02514675175  882.681018955347 646.557300970622  L 882.212619526401 648.501677985237  C 884.159298875404 648.970632045359  886.107636481009 649.432675577273  888.057595530299 649.887799850886  L 888.512181529199 647.940147014879  Z M 896.302054546468 649.719489936115  C 894.352493734959 649.283872861168  892.404485131921 648.841337879883  890.458065544138 648.391893353769  L 890.008089146217 650.340616330827  C 891.959119603711 650.791125545236  893.911742840636 651.234708846799  895.865921963095 651.671357854218  L 896.302054546468 649.719489936115  Z M 904.108418809621 651.425027929683  C 902.154822527937 651.007881478243  900.202712912472 650.583802739822  898.252126847497 650.152799727206  L 897.820613786727 652.105694112057  C 899.775820591373 652.537718126902  901.732554555604 652.962801464642  903.690778707856 653.380936093529  L 904.108418809621 651.425027929683  Z M 911.930575072435 653.056608223954  C 909.973118311747 652.657969761441  908.017082541859 652.252385252256  906.062504721226 651.839862359743  L 905.649493649898 653.796753224089  C 907.608701666265 654.210253341308  909.569371085579 654.616798638868  911.531464861917 655.016381435287  L 911.930575072435 653.056608223954  Z M 919.767822674138 654.614084671972  C 917.806680771414 654.233989905975  915.846894056788 653.846935955798  913.888499559587 653.452930134659  L 913.4940274727 655.41364219222  C 915.457061206953 655.80858137301  917.421490456611 656.196552214556  919.38727810471 656.577547386332  L 919.767822674138 654.614084671972  Z M 878.469544922979 342.054343791393  C 880.153913903949 340.979795336374  881.841606213902 339.910465148221  883.532597579058 338.846368606921  L 882.467402420942 337.153631393079  C 880.772916653347 338.219926870237  879.081736758535 339.291466809393  877.393887060161 340.368235798957  L 878.469544922979 342.054343791393  Z M 918.699059353016 663.152591679549  L 927 657  L 921.54927393559 648.222210678607  L 918.699059353016 663.152591679549  Z " fill-rule="nonzero" fill="#aaaaaa" stroke="none" />
  </g>
</svg>