<?xml version="1.0" encoding="utf-8"?>
<svg version="1.1" xmlns:xlink="http://www.w3.org/1999/xlink" width="122px" height="14px" viewBox="602 620  122 14" xmlns="http://www.w3.org/2000/svg">
  <g transform="matrix(0.754709580222771 -0.656059028990511 0.656059028990509 0.754709580222778 -248.721462864746 588.764229421027 )">
    <path d="M 601.078393090277 490.999249602613  C 601.142535875156 489.009854882912  601.235340802042 487.021487672313  601.356778971227 485.034767153797  L 599.360504792087 484.912745017696  C 599.237894466686 486.918641935376  599.144193759892 488.926201439498  599.079431850362 490.934798370524  L 601.078393090277 490.999249602613  Z M 600.974747934348 498.959661428079  C 600.962422247959 496.96927108318  600.978777019049 494.978806453972  601.023807154697 492.988887376598  L 599.024319035596 492.94364070187  C 598.978854256098 494.95276705182  598.962341624042 496.962444219441  598.97478628151 498.972046385727  L 600.974747934348 498.959661428079  Z M 601.176972614362 506.918179124747  C 601.088196651885 504.929731369314  601.028077124261 502.94010764582  600.996632752877 500.949927528567  L 598.996882338615 500.981523108363  C 599.028630220137 502.990913017831  599.089330038772 504.99974116306  599.178962892431 507.007381989453  L 601.176972614362 506.918179124747  Z M 601.684768606199 514.863054327042  C 601.51967341873 512.879484508086  601.383168340853 510.893638773291  601.275295880624 508.906135520482  L 599.278235203204 509.0145267134  C 599.387148879516 511.02121392056  599.524971543756 513.026227610848  599.691660277568 515.028943417518  L 601.684768606199 514.863054327042  Z M 602.497386301307 522.782558808446  C 602.256215602397 520.806795072163  602.043526483093 518.827658831989  601.859385175368 516.845766396357  L 599.8679622962 517.030793195294  C 600.05388098891 519.031815428039  600.268623044908 521.030054861756  600.512121592926 523.02488923918  L 602.497386301307 522.782558808446  Z M 603.613626113264 530.665001794702  C 603.296735919153 528.699960763963  603.008176730145 526.730455619744  602.748038404365 524.757099671347  L 600.76519306234 525.018488939703  C 601.027842318232 527.01089228858  601.319186763718 528.999407664221  601.639135673334 530.983415837459  L 603.613626113264 530.665001794702  Z M 605.043914142999 538.489225862832  C 604.85016238556 537.558829059255  604.664885641132 536.626687483088  604.48810694676 535.692917035477  C 604.297714796762 534.672817291701  604.114988571193 533.651301667856  603.939943737521 532.628456633534  L 601.96860300937 532.965822508412  C 602.145482665502 533.999389019073  602.330130606625 535.031611068395  602.522531176907 536.06240113687  C 602.701712964936 537.008949562918  602.889516807815 537.953845476406  603.085919312419 538.896971179693  L 605.043914142999 538.489225862832  Z M 606.861361969797 546.22702638058  C 606.357975683581 544.304467869831  605.891239767764 542.372499335992  605.461407968486 540.432171115115  L 603.508746099785 540.864735129478  C 603.944068463139 542.829848618552  604.416766347001 544.786495636033  604.926582763942 546.733612429138  L 606.861361969797 546.22702638058  Z M 609.069152977424 553.862622776555  C 608.468847553517 551.968087905292  607.904667725355 550.062295169355  607.376920215538 548.146280674032  L 605.448726621981 548.677382797701  C 605.983215446711 550.61787198376  606.554601967123 552.548008840234  607.162575542619 554.46674402688  L 609.069152977424 553.862622776555  Z M 611.661597437056 561.376337249391  C 610.965919930892 559.514708449705  610.305750146044 557.64000295656  609.681446991115 555.753239974321  L 607.782690847152 556.381511496646  C 608.414968694696 558.2923755181  609.083571323531 560.191028031101  609.78813524045 562.07643681223  L 611.661597437056 561.376337249391  Z M 614.632014324123 568.748806101317  C 613.84275757585 566.924881002604  613.088299167026 565.086094081779  612.369049267302 563.23344501567  L 610.504623883725 563.957266809398  C 611.233061302073 565.833581152076  611.997156974224 567.695856277883  612.796495491124 569.543079740377  L 614.632014324123 568.748806101317  Z M 617.972748536071 575.961029640609  C 617.091946550201 574.179508705539  616.245143842626 572.381379120303  615.432800787 570.567618457928  L 613.607511000323 571.385125151877  C 614.430230723302 573.222054340062  615.287850277216 575.043152783627  616.179903407719 576.84743042228  L 617.972748536071 575.961029640609  Z M 621.675190620429 582.994421145961  C 620.705113323977 581.259895556845  619.768148624652 579.507057291887  618.86480591368 577.736859301005  L 617.083355703525 578.645944087336  C 617.998237488726 580.438754145342  618.947170741157 582.213982728607  619.929639562769 583.970664714495  L 621.675190620429 582.994421145961  Z M 625.745842385447 589.816920810646  C 624.877457540515 588.444895005304  624.029475947586 587.060061288504  623.202177548226 585.662876831158  C 623.019104152537 585.350114540179  622.837117199387 585.036717572553  622.656219979331 584.722691594896  L 620.923200345741 585.721011658598  C 621.107245507747 586.040502261683  621.292404430075 586.359349980009  621.47867373412 586.677548995545  C 622.31686226226 588.093223016202  623.176029031471 589.496370865713  624.055889828677 590.886528381612  L 625.745842385447 589.816920810646  Z M 630.159390619415 596.430211421802  C 629.016148230872 594.803888753918  627.902540263785 593.156934667866  626.819117732624 591.490164078371  L 625.142240451949 592.580156090066  C 626.238861878214 594.267232266291  627.366036477263 595.934250522683  628.523206521849 597.580386016755  L 630.159390619415 596.430211421802  Z M 634.887954535888 602.822058104021  C 633.667312209581 601.252994405419  632.475270651632 599.66188869239  631.312419685533 598.049528245815  L 629.690282471114 599.219430317613  C 630.867299976565 600.851433494325  632.073863690944 602.461922999728  633.309376605189 604.050101961833  L 634.887954535888 602.822058104021  Z M 639.920443178782 608.977468633003  C 638.625263959533 607.469344178897  637.35758477178 605.937818814159  636.118032864591 604.38365033924  L 634.5544404768 605.630718438761  C 635.809093339641 607.203820714741  637.092216146243 608.75400402876  638.403174006014 610.28050134839  L 639.920443178782 608.977468633003  Z M 645.245052729534 614.882005350917  C 643.878374490173 613.438357482113  642.538031043482 611.970004693846  641.224685592888 610.477673528706  L 639.723305473851 611.798982628865  C 641.052650876761 613.309494256326  642.409323181349 614.795735388123  643.792651104652 616.256970630493  L 645.245052729534 614.882005350917  Z M 650.849294193232 620.521819030262  C 649.414322509195 619.146033856241  648.004458610136 617.744297699887  646.62040009828 616.317304141807  L 645.184753769809 617.709755081535  C 646.585673702382 619.1541331205  648.012713398675 620.572946057112  649.465166757855 621.965491861146  L 650.849294193232 620.521819030262  Z M 656.720022691843 625.883681357547  C 655.220123322418 624.578985814272  653.74404583939 623.247154094422  652.292520607539 621.888845189811  L 650.925975411318 623.349171943208  C 652.395183983438 624.724028571566  653.889243916803 626.072085454415  655.407415948898 627.39267557171  L 656.720022691843 625.883681357547  Z M 662.835218160897 630.980260957486  C 661.282909349884 629.732759688016  659.746692281336 628.465366104935  658.226947291236 627.178393989018  L 656.934457726334 628.704654361503  C 658.467275469861 630.002696932824  660.016706983643 631.280992557965  661.582368660079 632.539224757033  L 662.835218160897 630.980260957486  Z M 669.128623630182 635.862867694614  C 667.534494226103 634.669270817469  665.955765736019 633.455242098398  664.392829020871 632.221082106126  L 663.153377993375 633.79071937328  C 664.729758994528 635.035495534302  666.32206761049 636.259967254134  667.929909618177 637.463831378593  L 669.128623630182 635.862867694614  Z M 675.585583287517 640.527036745349  C 673.951504256862 639.388745137871  672.332117236289 638.229506140195  670.727823152963 637.049606756228  L 669.542865357412 638.66077869701  C 671.160959480296 639.850827503293  672.794276368937 641.020038203899  674.442411647443 642.168121326146  L 675.585583287517 640.527036745349  Z M 682.198518855301 644.967293959363  C 680.526408051855 643.885643589289  678.868263111149 642.782554865867  677.224494556015 641.658300891343  L 676.095420730403 643.309116537113  C 677.75332888208 644.443041275543  679.425737084124 645.555618700678  681.112231282399 646.646573361058  L 682.198518855301 644.967293959363  Z M 688.959668993195 649.178427982773  C 687.251488907123 648.154688340266  685.556532145277 647.109044542611  683.875218344328 646.041755469851  L 682.803353637848 647.730277323723  C 684.499129997245 648.806747151786  686.208666673467 649.861385513422  687.931540420128 650.893931301698  L 688.959668993195 649.178427982773  Z M 695.861098407292 653.155496374506  C 694.118853861852 652.190868982205  692.389074582424 651.203897340988  690.672188827024 650.194825804872  L 689.658791244794 651.919072115679  C 691.390445546426 652.936823623415  693.135104281379 653.932285134302  694.892335507811 654.905210192417  L 695.861098407292 653.155496374506  Z M 702.894707163458 656.893831407038  C 701.120442962008 655.989448409874  699.357871338376 655.062307294591  697.607428669276 654.112637602381  L 696.653687595868 655.870584690576  C 698.419187465712 656.828423383376  700.196920622619 657.763539709812  701.986446936178 658.675702154186  L 702.894707163458 656.893831407038  Z M 601.487755081145 483.048694810033  C 601.6282716497 481.063232460459  601.797389733729 479.07989789657  601.995056669399 477.099308734185  L 600.004943330601 476.900691265815  C 599.805368456687 478.900397645747  599.634617996157 480.902875926603  599.492745121175 482.907502531132  L 601.487755081145 483.048694810033  Z M 699.390568229153 664.797212272371  L 709 661  L 706.004076775312 651.111398277219  L 699.390568229153 664.797212272371  Z " fill-rule="nonzero" fill="#009999" stroke="none" />
  </g>
</svg>