<?xml version="1.0" encoding="utf-8"?>
<svg version="1.1" xmlns:xlink="http://www.w3.org/1999/xlink" width="482px" height="36px" viewBox="1158 644  482 36" xmlns="http://www.w3.org/2000/svg">
  <g transform="matrix(0.994521895368273 -0.104528463267654 0.104528463267653 0.994521895368277 -61.5339743034001 149.861825377648 )">
    <path d="M 1211.46907437839 636.733095120498  C 1205.03502291633 635.006851101617  1198.61426476615 633.231436039067  1192.20736299519 631.40700562758  L 1191.65961772143 633.330537565208  C 1198.07632467838 635.157760103082  1204.50690922041 636.935892278426  1210.95080741861 638.664778158266  L 1211.46907437839 636.733095120498  Z M 1236.62701744714 643.215556075581  C 1230.1599217013 641.617554434856  1223.70513917896 639.97012721165  1217.26323593101 638.273418876777  L 1216.75383641348 640.207459241285  C 1223.20559841399 641.906764235405  1229.67025939949 643.556712697563  1236.14725245273 645.157159935833  L 1236.62701744714 643.215556075581  Z M 1261.9088528208 649.196626182448  C 1255.41126862636 647.727498459746  1248.92501270065 646.208710149014  1242.45065385466 644.640394440101  L 1241.97980141112 646.584178887105  C 1248.46406868004 648.154894761918  1254.96025123611 649.676007441335  1261.46777939779 651.14738353166  L 1261.9088528208 649.196626182448  Z M 1287.304588966 654.673941686219  C 1280.77908420733 653.334268489659  1274.26391828555 651.944719325664  1267.7596625471 650.505416050518  L 1267.32754326126 652.458176384714  C 1273.84175317718 653.89968238386  1280.3668899734 655.291358127656  1286.90238142924 656.633081573357  L 1287.304588966 654.673941686219  Z M 1312.80418933508 659.645337918868  C 1306.25334293083 658.435648695341  1299.71184184587 657.175887836294  1293.18025973587 655.866165816213  L 1292.78704438388 657.827130294973  C 1299.32862249186 659.138856726611  1305.88013475492 660.400545536164  1312.44100663941 661.612086080065  L 1312.80418933508 659.645337918868  Z M 1338.39757633261 664.108850154705  C 1331.82397721672 663.029622980674  1325.25872620908 661.90014829163  1318.7023990481 660.720525136638  L 1318.34824303103 662.688918775007  C 1324.91460406005 663.870347236963  1331.48990259291 665.001550485267  1338.07356201002 666.082429319258  L 1338.39757633261 664.108850154705  Z M 1364.07463529812 668.062714386849  C 1357.4808813965 667.114375779384  1350.89447509285 666.115633635533  1344.31599398083 665.066575539797  L 1344.00103726326 667.04162041677  C 1350.58958614796 668.09228400141  1357.18607235309 669.092554630138  1363.78991740102 670.042344584404  L 1364.07463529812 668.062714386849  Z M 1389.82521850348 671.505368024377  C 1383.21391570733 670.688292772598  1376.60895709507 669.820677882843  1370.01092188729 668.902599440431  L 1369.73528894201 670.883515006395  C 1376.34342184825 671.802998485152  1382.95848875464 672.671941181334  1389.5799095541 673.490266893174  L 1389.82521850348 671.505368024377  Z M 1415.63915808447 674.416492651553  C 1411.1026015166 673.956404182525  1406.56878396229 673.469697610723  1402.03793961696 672.956398077089  C 1399.9503858211 672.718325702151  1397.86340920557 672.475219242432  1395.77702797745 672.227080818824  L 1395.54082773626 674.213084204034  C 1397.63064825454 674.461631670833  1399.72106521147 674.705138284724  1401.81206036596 674.943601920857  C 1406.35092556084 675.457813066681  1410.89276940492 675.945382726896  1415.43735726269 676.406285713238  L 1415.63915808447 674.416492651553  Z M 1441.51136295523 676.749427505741  C 1434.87103193726 676.225189739946  1428.23531692837 675.644037573899  1421.60494936213 675.006035066138  L 1421.41338556545 676.996839755654  C 1428.05513053934 677.635937046554  1434.70223213177 678.218086443145  1441.35395765422 678.743223776981  L 1441.51136295523 676.749427505741  Z M 1467.42913466299 678.505183642801  C 1460.77876953501 678.129065406268  1454.13175085039 677.695944031111  1447.48881128867 677.205867258913  L 1447.34166301573 679.200446759903  C 1453.99600155807 679.69136448144  1460.65442622283 680.125229073072  1467.31620307336 680.501992711306  L 1467.42913466299 678.505183642801  Z M 1493.37959863273 679.682888896164  C 1486.72250294359 679.455077024492  1480.06748246974 679.170201591965  1473.41527077276 678.828293999489  L 1473.31261111903 680.825657510595  C 1479.97623770719 681.16815180087  1486.64267789187 681.453516066613  1493.3111968529 681.681718853043  L 1493.37959863273 679.682888896164  Z M 1519.34986404964 680.28195824429  C 1512.68934469156 680.202565902341  1506.02962828987 680.066077923457  1499.37144892374 679.872509352271  L 1499.31332888509 681.871664689183  C 1505.98293338264 682.065565415189  1512.65407755317 682.202287601204  1519.32602605799 682.281816176783  L 1519.34986404964 680.28195824429  Z M 1545.3270302626 680.302094101288  C 1538.66639582852 680.371160726968  1532.00529169304 680.383128001718  1525.34445208831 680.337994606426  L 1525.33090053569 682.337948694754  C 1532.00316983666 682.38315953689  1538.67570412232 682.371171726843  1545.34776790059 682.30198658599  L 1545.3270302626 680.302094101288  Z M 1571.29819319255 679.743286464728  C 1564.64075233255 679.9607777494  1557.9815693467 680.121194333078  1551.32137825538 680.224518533557  L 1551.35240192048 682.224277902132  C 1558.02402159526 682.120776402048  1564.69463143462 681.960084550847  1571.36349615881 681.742220061074  L 1571.29819319255 679.743286464728  Z M 1597.25045174253 678.605812920623  C 1590.59951152031 678.971620826145  1583.94555761318 679.280407032296  1577.28932346513 679.532137502563  L 1577.36490693704 681.530708776942  C 1584.03256287858 681.278546348697  1590.69793466643 680.969230279533  1597.36028759801 680.602794664369  L 1597.25045174253 678.605812920623  Z M 1623.17091420628 676.890238505529  C 1616.52977845636 677.404181317927  1609.88435895951 677.861183757932  1603.235388219 678.261195451633  L 1603.35549395186 680.257585847556  C 1610.01587402222 679.856887752074  1616.67269675507 679.399101116778  1623.32522839035 678.884276402008  L 1623.17091420628 676.890238505529  Z M 1649.04421281055 674.581390453389  C 1643.63778141943 675.126653678845  1638.2276030004 675.634102041821  1632.81407441831 676.103698318327  C 1631.59177409229 676.208503450079  1630.36930905832 676.311378711328  1629.14668388747 676.412323717403  L 1629.31125221912 678.405541533954  C 1630.53630536594 678.304396064111  1631.76119801418 678.201315984744  1632.98592558173 678.096301681458  C 1638.40907382646 677.625875596758  1643.82886577946 677.117527857145  1649.24490382201 676.571295757145  L 1649.04421281055 674.581390453389  Z M 1674.85961731786 671.686833486862  C 1668.24878748573 672.502768652111  1661.6310845298 673.262017693263  1655.00723789826 673.96449692073  L 1655.21816118816 675.953343663387  C 1661.85337403773 675.249659013678  1668.48243266934 674.489107135888  1675.10460638326 673.671771863193  L 1674.85961731786 671.686833486862  Z M 1700.60410059991 668.217662051369  C 1694.01309701078 669.18072640611  1687.41395867319 670.087271893528  1680.80741298901 670.937198588022  L 1681.06260819987 672.920850625138  C 1687.68049041442 672.069465495292  1694.29095257171 671.161364417261  1700.89326602167 670.196647488116  L 1700.60410059991 668.217662051369  Z M 1726.26487416217 664.17559944737  C 1719.69697087723 665.285314592286  1713.11967526007 666.33870620223  1706.53371230491 667.335658165225  L 1706.83305266928 669.313130123626  C 1713.43031683581 668.314467436636  1720.0188987915 667.259268254855  1726.59807229824 666.147648889478  L 1726.26487416217 664.17559944737  Z M 1751.82919109269 659.562653557288  C 1745.28765069809 660.818468244723  1738.73546505315 662.018182708085  1732.17335638428 663.161664706697  L 1732.51669320573 665.131974283144  C 1739.09006215308 663.986530121699  1745.65349104905 662.784757003164  1752.2062564279 661.526787395137  L 1751.82919109269 659.562653557288  Z M 1777.28435239402 654.381115848099  C 1770.77242438027 655.78240625589  1764.24860348602 657.127847618124  1757.71360881115 658.417291631114  L 1758.10077153815 660.37946008026  C 1764.64697996512 659.087803440293  1771.18199543778 657.74005336219  1777.7050976223 656.336358404122  L 1777.28435239402 654.381115848099  Z M 1802.61771329147 648.633560233052  C 1796.13863243918 650.179630274409  1789.64641698402 651.670130191571  1783.14178254206 653.10489569151  L 1783.57257885269 655.057948312089  C 1790.08837494997 653.620720820145  1796.59173075006 652.127663273265  1803.08192940889 650.578940246398  L 1802.61771329147 648.633560233052  Z M 1827.81668951433 642.322841793085  C 1821.37367428737 644.012923462381  1814.91628925981 645.647741533111  1808.44524620831 647.227115804567  L 1808.9194621058 649.170082423572  C 1815.40160917131 647.587998018078  1821.87007477643 645.950374674261  1828.32414592293 644.257392902093  L 1827.81668951433 642.322841793085  Z M 1852.86876354705 635.452095358573  C 1846.46501449389 637.285349112815  1840.04566758038 639.063673246191  1833.61143039054 640.786871739737  L 1834.12883030957 642.718787194353  C 1840.57410835628 640.992631770972  1847.00447057563 639.21125611468  1853.4192081694 637.374856580808  L 1852.86876354705 635.452095358573  Z M 1877.76322827316 628.026846741637  C 1871.7366212344 629.891744376368  1865.69658946335 631.712978882777  1859.64360798504 633.490407027845  C 1859.30506156712 633.589545955113  1858.96647015802 633.688531178999  1858.62783386257 633.787362668859  L 1859.18816078629 635.707267285905  C 1859.52761626287 635.608196716854  1859.86702671344 635.508971933572  1860.20639203173 635.40959296712  C 1866.2688760276 633.629378198088  1872.31838950156 631.805286575128  1878.35445664533 629.937461567274  L 1877.76322827316 628.026846741637  Z M 1902.50425654514 620.100566433095  C 1896.18078324082 622.195947543684  1889.84138058489 624.242947258739  1883.48660451024 626.241386066956  L 1884.08659199412 628.149268405884  C 1890.4510934811 626.147771167095  1896.80019802156 624.097638703424  1903.13334883215 621.999050800802  L 1902.50425654514 620.100566433095  Z M 1927.08283091916 611.684030255712  C 1920.80226082884 613.904700417994  1914.50480277018 616.077315401556  1908.19100899774 618.201684679285  L 1908.82880434705 620.097262979539  C 1915.15226081207 617.969642546009  1921.45935656291 615.793702570961  1927.74953849996 613.569633873049  L 1927.08283091916 611.684030255712  Z M 1951.48923779482 602.780564475205  C 1945.25405303754 605.125646066986  1939.0010283695 607.423017688526  1932.7307121485 609.672477872262  L 1933.40606330269 611.555002989898  C 1939.68597567776 609.302100210008  1945.94857003673 607.001212668167  1952.19329718255 604.652542140282  L 1951.48923779482 602.780564475205  Z M 1975.71383161332 593.393687794796  C 1969.52649637162 595.862254025718  1963.32037632711 598.283474350174  1957.09601572426 600.657136439715  L 1957.8086557805 602.525864389484  C 1964.04254220648 600.148569623963  1970.25816015863 597.723643839923  1976.45496455948 595.251299690782  L 1975.71383161332 593.393687794796  Z M 1999.7470386695 583.527109964605  C 1993.60999821549 586.118185242445  1987.45323549046 588.662297388984  1981.27729041052 591.159223298796  L 1982.02693772916 593.013415548175  C 1988.21233453664 590.51266831821  1994.37851963238 587.964662637225  2000.5249522739 585.369621952106  L 1999.7470386695 583.527109964605  Z M 2023.57936089539 573.184730315527  C 2017.49504062437 575.897290631755  2011.39006840848 578.563289151955  2005.26497962208 581.182492081901  L 2006.05133793799 583.021415842961  C 2012.18580062099 580.398204458886  2018.30011594682 577.72812586815  2024.3937477219 575.011414222725  L 2023.57936089539 573.184730315527  Z M 2047.20137961393 562.370636218202  C 2041.17218408585 565.203609552665  2035.12141510084 567.990440827878  2029.0496032799 570.730885653209  L 2029.87236181956 572.553814172219  C 2035.95346600147 569.809175342974  2042.01349514331 567.018079073555  2048.05191781196 564.18077012863  L 2047.20137961393 562.370636218202  Z M 2070.60375926123 551.089101467654  C 2064.63207125047 554.041368212239  2058.63789679656 556.947930870012  2052.62176155767 559.808534550437  L 2053.48059516195 561.614747395084  C 2059.50593755385 558.749765818429  2065.50928555169 555.838754928382  2071.49011269299 552.881970005505  L 2070.60375926123 551.089101467654  Z M 1186.44496618496 629.751805224755  C 1180.04650178249 627.898001049727  1173.66230552678 625.995299802558  1167.29293727888 624.043868340321  L 1166.70706272112 625.956131659679  C 1173.08617871332 627.910549611971  1179.4801454062 629.81616277197  1185.88840208203 631.672804027284  L 1186.44496618496 629.751805224755  Z M 2077.19032682458 547.809746304502  C 2076.78437009884 548.013294301107  2076.37830730138 548.216630677869  2075.97213859667 548.419755352431  L 2076.86670784936 550.208538696535  C 2077.27623573022 550.003734100418  2077.68565611034 549.798714614251  2078.09496881923 549.593480323418  L 2077.19032682458 547.809746304502  Z M 2080.16654146832 555.936373219101  L 2083 546  L 2073.32962707217 542.360784777353  L 2080.16654146832 555.936373219101  Z " fill-rule="nonzero" fill="#000000" stroke="none" />
  </g>
</svg>