<?xml version="1.0" encoding="utf-8"?>
<svg version="1.1" xmlns:xlink="http://www.w3.org/1999/xlink" width="592px" height="38px" viewBox="856 668  592 38" xmlns="http://www.w3.org/2000/svg">
  <g transform="matrix(0.99026806874157 -0.139173100960066 0.139173100960064 0.990268068741572 -84.4007355498532 167.013249080536 )">
    <path d="M 907.96421635634 644.518742652022  C 901.611752324311 642.509258756503  895.271302921462 640.461989301836  888.943204953871 638.377043039428  L 888.317350477756 640.276597243637  C 894.652984577513 642.364026468647  901.000984821922 644.413734016625  907.361014003662 646.425611006609  L 907.96421635634 644.518742652022  Z M 932.798391939113 652.163735996838  C 926.415597801053 650.2527771287  920.044232240796 648.303851335431  913.684633706692 646.317062144402  L 913.088243799326 648.226072117763  C 919.455415979621 650.215227376133  925.834369199492 652.166474145241  932.224764607388 654.079708774384  L 932.798391939113 652.163735996838  Z M 957.747877301686 659.423583120648  C 951.336281054441 657.61160675025  944.935524597698 655.761491177758  938.545947941062 653.873334681721  L 937.97916537407 655.791343420427  C 944.376351377904 657.681748522141  950.784730495762 659.534067397341  957.203962313336 661.3482016505  L 957.747877301686 659.423583120648  Z M 982.806699709526 666.296546066177  C 976.367836244969 664.583985968151  969.939221188643 662.833123521328  963.521196030008 661.044051731913  L 962.984156487223 662.970600077916  C 969.409824872319 664.761802473009  975.846095766687 666.51475002202  982.292627274044 668.229349607947  L 982.806699709526 666.296546066177  Z M 1007.96886025357 672.780979493551  C 1001.5042709911 671.168245642943  995.049336301366 669.517055466203  988.60439907158 667.827496674827  L 988.097231116561 669.762123425754  C 994.549843622334 671.453694312758  1001.01246549428 673.106850892005  1007.48475343635 674.721505347416  L 1007.96886025357 672.780979493551  Z M 1033.2308561586 678.857534988261  C 1026.74008843665 677.355848101539  1020.25947428734 675.810607217985  1013.78945173561 674.221916780486  L 1013.312526247 676.164220072537  C 1019.79124093228 677.755044831723  1026.28056144431 679.302361664765  1032.78004916985 680.8060659885  L 1033.2308561586 678.857534988261  Z M 1058.59457630093 684.492897264056  C 1052.07858938611 683.104717285851  1045.5719943843 681.672812741929  1039.0752310765 680.197280414767  L 1038.63227569672 682.147611292215  C 1045.13776706286 683.625125919119  1051.65310333129 685.058954151145  1058.17784413036 686.448999075826  L 1058.59457630093 684.492897264056  Z M 1084.05278300531 689.684748459466  C 1077.5135616842 688.410498233016  1070.98296775568 687.092366190579  1064.46144262284 685.730441424747  L 1064.05259227726 687.688205811724  C 1070.58287873464 689.051960251542  1077.12224617107 690.371863134738  1083.67025259062 691.647825249059  L 1084.05278300531 689.684748459466  Z M 1109.59772163564 694.431507123089  C 1103.03725777209 693.271574788334  1096.4846541528 692.067616753837  1089.94035366846 690.819714395165  L 1089.56573289395 692.784315951539  C 1096.11882530032 694.033894801115  1102.68023199638 695.239470289623  1109.2495094966 696.400960932202  L 1109.59772163564 694.431507123089  Z M 1135.22161113706 698.73172737987  C 1128.64190306547 697.686466255221  1122.06928569552 696.597048957418  1115.50420327067 695.463549120216  L 1115.1639261777 697.434389423234  C 1121.73782844396 698.569412057585  1128.31927577822 699.660292929991  1134.90782334 700.70695830774  L 1135.22161113706 698.73172737987  Z M 1160.91770264798 702.589166830725  C 1160.06486645918 702.467370460709  1159.21215092456 702.344730738361  1158.35955729604 702.221247843734  C 1152.61649935442 701.401223962451  1146.87828376474 700.547637124161  1141.14520461428 699.660531075744  L 1140.83937485214 701.637009802315  C 1146.57949552646 702.525205418527  1152.32475836247 703.379844517897  1158.07486897973 704.200883309732  C 1158.9281061546 704.324458075599  1159.78146523138 704.447189686465  1160.63494496018 704.569077962567  L 1160.91770264798 702.589166830725  Z M 1186.67168309583 706.00629895808  C 1180.059573521 705.195782170069  1173.45375857913 704.334714854647  1166.85481767199 703.423172536775  L 1166.58114703604 705.404360156113  C 1173.19018795269 706.317297635149  1179.80611342508 707.179682857211  1186.42834316473 707.991440181755  L 1186.67168309583 706.00629895808  Z M 1212.488508274 708.910750473302  C 1205.86159192994 708.231846752602  1199.23996399864 707.502277354012  1192.62420526884 706.722106268697  L 1192.389975971 708.708343071304  C 1199.0158604508 709.48970824753  1205.64762311525 710.220394288621  1212.2846822866 710.900337105459  L 1212.488508274 708.910750473302  Z M 1238.3579733504 711.301373309582  C 1231.71886971366 710.754351012137  1225.08404617911 710.156567913368  1218.45408469286 709.50807644535  L 1218.2593893189 711.498577314819  C 1224.89949829321 712.148061331503  1231.54447675739 712.746759367236  1238.19374187471 713.294618909701  L 1238.3579733504 711.301373309582  Z M 1264.26985268554 713.177222505471  C 1257.62118605007 712.762297857352  1250.97578951435 712.296537349122  1244.3342459519 711.779981833039  L 1244.17916146068 713.773959967468  C 1250.83087023811 714.291306097634  1257.48643788602 714.757779475647  1264.14528063869 715.173339186716  L 1264.26985268554 713.177222505471  Z M 1290.21390387448 714.537556578391  C 1283.55830231426 714.254893590329  1276.90495955877 713.921339777683  1270.25445917849 713.536924396747  L 1270.13904687156 715.533591619749  C 1276.79972617568 715.918595367673  1283.46325220545 716.252659701134  1290.12904049712 716.535755319053  L 1290.21390387448 714.537556578391  Z M 1316.17987179546 715.381837817733  C 1309.51996612569 715.231548220288  1302.86130707279 715.030332949827  1296.20447867351 714.778209655116  L 1296.12878417085 716.776776727363  C 1302.79580117932 717.0292859094  1309.46465164337 717.230809149909  1316.13475063223 717.381328773109  L 1316.17987179546 715.381837817733  Z M 1342.15749266349 715.709732497401  C 1335.49591540072 715.691875696797  1328.83457207416 715.623078504561  1322.17404695603 715.503346954956  L 1322.13810017805 717.503023886151  C 1328.80881956338 717.622938690888  1335.48035840949 717.691841180671  1342.15213154983 717.709725312003  L 1342.15749266349 715.709732497401  Z M 1368.13649808745 715.521111007727  C 1361.47588240897 715.63569406237  1354.81448789351 715.699342142401  1348.15289881795 715.712049665191  L 1348.15671397362 717.712046026335  C 1354.82849894485 717.699319054045  1361.50008905816 717.63557355744  1368.17089914247 717.520815127694  L 1368.13649808745 715.521111007727  Z M 1394.10661912891 714.816047906702  C 1387.44959783184 715.063025524392  1380.79078523263 715.259093717981  1374.13076538152 715.404235290157  L 1374.1743409628 717.403760525986  C 1380.84455430781 717.258396807365  1387.5135585531 717.062028521589  1394.18076875463 716.814672892287  L 1394.10661912891 714.816047906702  Z M 1420.05759036125 713.594821890507  C 1413.40679482203 713.974096446338  1406.75319622348 714.302507251973  1400.0973781585 714.580025502214  L 1400.1806969409 716.57828924369  C 1406.84670206873 716.30034623787  1413.51048433308 715.971432783053  1420.17145924792 715.591577728522  L 1420.05759036125 713.594821890507  Z M 1445.97727585411 711.853109552034  C 1444.83434863486 711.942845712796  1443.69129737927 712.030995019542  1442.54812539179 712.117557217442  C 1437.04866435698 712.526445144209  1431.54667002418 712.900515597859  1426.04247310902 713.239746093646  L 1426.16550215843 715.235958470374  C 1431.67857693872 714.896180820727  1437.189445398 714.52150414898  1442.69777623284 714.111950980018  C 1443.84324719128 714.025215967156  1444.98859712899 713.936890024538  1446.1338227317 713.846973407747  L 1445.97727585411 711.853109552034  Z M 1471.85337288112 709.548192346117  C 1465.22488141396 710.208759448466  1458.59116896945 710.815843511795  1451.95288308069 711.369385277127  L 1452.11907877969 713.362468062571  C 1458.76808351805 712.808032492569  1465.41250742738 712.199968169748  1472.05170192907 711.538334448767  L 1471.85337288112 709.548192346117  Z M 1497.67543824172 706.701091857764  C 1491.06225855293 707.500530680125  1484.44273735424 708.246607724785  1477.81752079352 708.939250165316  L 1478.02548015951 710.928409008169  C 1484.66139446676 710.234648156911  1491.29160421564 709.487366420598  1497.91546221501 708.686636743241  L 1497.67543824172 706.701091857764  Z M 1523.43211280156 703.313060527337  C 1516.83715403088 704.251019396333  1510.23473600739 705.135761222807  1503.62550320946 705.967199644918  L 1503.87513476105 707.951559513605  C 1510.4950394965 707.118778566699  1517.10811845366 706.232608146354  1523.71372611358 705.293134753849  L 1523.43211280156 703.313060527337  Z M 1549.11206619175 699.385588750841  C 1542.53822946353 700.461655058081  1535.95581902091 701.484672468173  1529.36547738929 702.454541121852  L 1529.65667131347 704.433229095869  C 1536.257654379 703.46179439391  1542.85069344907 702.437125116158  1549.43514496071 701.359321283137  L 1549.11206619175 699.385588750841  Z M 1574.70400179306 694.920404224292  C 1568.15417894005 696.134104607884  1561.59467168264 697.294947575927  1555.02612031059 698.402819815662  L 1555.35874851107 700.374965469573  C 1561.9379061323 699.265304346968  1568.5080050353 698.102586964153  1575.06840389652 696.886926816838  L 1574.70400179306 694.920404224292  Z M 1600.1966617053 689.919471183709  C 1593.67373399653 691.270271736495  1587.14001545361 692.568429607305  1580.59614384882 693.813818079769  L 1580.97006000236 695.778553866107  C 1587.52449800584 694.531154463124  1594.06876655334 693.230900454963  1600.60222684266 691.877918762624  L 1600.1966617053 689.919471183709  Z M 1625.5788316997 684.384989541043  C 1619.08566857308 685.872296045441  1612.58061292929 687.307197759003  1606.06429974291 688.689554617421  L 1606.47933936369 690.646016248322  C 1613.00617445016 689.261427296334  1619.52173381645 687.824208644956  1626.02538146274 686.334500584646  L 1625.5788316997 684.384989541043  Z M 1650.83934615203 678.319393916436  C 1644.37880395195 679.942552105872  1637.90527278328 681.51356644848  1631.41938454343 683.032283593658  L 1631.87536505538 684.979610421061  C 1638.3717260681 683.458441001172  1644.85571005671 681.884889939482  1651.32668410337 680.259110834233  L 1650.83934615203 678.319393916436  Z M 1675.96709295437 671.725352567233  C 1669.5420136753 673.48364841393  1663.10285469006 675.1900842959  1656.65024454092 676.844493643708  L 1657.14696535808 678.781829037955  C 1663.60999454594 677.124748313037  1670.05955085024 675.41555704665  1676.4950047139 673.654422077166  L 1675.96709295437 671.725352567233  Z M 1700.95101840334 664.605766214207  C 1694.5642284396 666.498426243285  1688.16227422572 668.339533002975  1681.74578067247 670.128906778235  L 1682.2830232872 672.055398504902  C 1688.70987756168 670.263135425273  1695.12216901998 668.419055827926  1701.51927174251 666.523339718018  L 1700.95101840334 664.605766214207  Z M 1725.77713291491 656.956068350699  C 1722.82781539077 657.899567463205  1719.87528982382 658.833008909652  1716.91960768912 659.756376416191  C 1713.51591232764 660.815117645685  1710.10766247738 661.859160963135  1706.69495340417 662.888477185924  L 1707.27248148329 664.803277780721  C 1710.69109310997 663.772181273144  1714.10523728688 662.72633050777  1717.51481856172 661.665754724395  C 1720.47523121232 660.740912310175  1723.43248183459 659.805978500953  1726.38651885735 658.860969600936  L 1725.77713291491 656.956068350699  Z M 1750.44570937784 648.804404456506  C 1744.14052613843 650.954831237433  1737.81965540059 653.058983757796  1731.48360719589 655.116692233367  L 1732.10137006712 657.018893336019  C 1738.44671939577 654.958164207676  1744.77686897749 652.850922856111  1751.09130803203 650.69733931479  L 1750.44570937784 648.804404456506  Z M 1774.95436103864 640.183831231889  C 1768.6913295044 642.454097080592  1762.41173094571 644.678396218531  1756.11607206387 646.856549166839  L 1756.76999463613 648.74662463345  C 1763.07489535164 646.565274223585  1769.36371216793 644.337709882904  1775.63593763989 642.06411135374  L 1774.95436103864 640.183831231889  Z M 1799.29417560168 631.09748345138  C 1793.07557325361 633.486762811207  1786.83953037948 635.83039972535  1780.58655016607 638.128205085565  L 1781.27639464778 640.005467611438  C 1787.53855404391 637.704289143595  1793.78375123718 635.357211842546  1800.01148230232 632.964425094072  L 1799.29417560168 631.09748345138  Z M 1823.45630216704 621.548665263195  C 1817.28439032997 624.056089299569  1811.09417080728 626.518211752699  1804.88614308826 628.934833953736  L 1805.61165862523 630.798600893461  C 1811.82879953806 628.378431165338  1818.02810611268 625.912694392152  1824.20907812655 623.401589534389  L 1823.45630216704 621.548665263195  Z M 1847.43195444905 611.540848987711  C 1841.3089774693 614.165505904084  1835.16683230184 616.745218573029  1829.00601455665 619.279778837405  L 1829.76693732332 621.129372453089  C 1835.93679895949 618.591091532188  1842.08796060726 616.007591924341  1848.21992592892 613.379082092328  L 1847.43195444905 611.540848987711  Z M 1871.2124139713 601.0776738548  C 1865.14059840065 603.818609224182  1859.04876111039 606.514974025456  1852.93739365118 609.166550688816  L 1853.73344694652 611.001298396534  C 1859.85378570525 608.345829300162  1865.95456562534 605.645506318267  1872.03529443456 602.900547340039  L 1871.2124139713 601.0776738548  Z M 1894.78903323706 590.162944680465  C 1888.77058702296 593.019161792524  1882.73127283806 595.831198223382  1876.67157799489 598.598827069683  L 1877.50247234308 600.41806168406  C 1883.57106263193 597.646370043723  1889.61924234442 594.830205629822  1895.64652345247 591.969795678877  L 1894.78903323706 590.162944680465  Z M 1918.15323887379 578.800630483256  C 1912.19035055658 581.771090706738  1906.20575560567 584.697776201775  1900.19993691848 587.58045081389  L 1901.06537017413 589.383510790711  C 1907.08000521849 586.4966045009  1913.07338537078 583.565622721545  1919.04502702469 580.590801953789  L 1918.15323887379 578.800630483256  Z M 1941.29653475079 566.994863040987  C 1935.39137266774 570.078486201441  1929.46367318156 573.118756504354  1923.51391459876 576.115428630083  L 1924.41357205679 577.901658306859  C 1930.37206470226 574.900587158589  1936.30846586902 571.855853832354  1942.22229654844 568.767704007914  L 1941.29653475079 566.994863040987  Z M 1964.21050506872 554.749935388259  C 1958.3652165656 557.945600160806  1952.49656808547 561.098349711452  1946.60503316985 564.207929644681  L 1947.53858767995 565.976679479072  C 1953.43877118768 562.862534778113  1959.31603466334 559.705157088067  1965.16990387025 556.504801177892  L 1964.21050506872 554.749935388259  Z M 883.25129568353 636.490433244821  C 876.930682493561 634.382905378492  870.622667107929 632.237782364599  864.327584609811 630.055178152552  L 863.672415390189 631.944821847448  C 869.974994702407 634.130025322973  876.290522303808 636.277702963947  882.618662712379 638.38774068533  L 883.25129568353 636.490433244821  Z M 1976.27888587187 548.072490857306  C 1974.01117525412 549.342251888458  1971.73983593361 550.605521402962  1969.46489580609 551.862283885815  L 1970.43200789166 553.612910691831  C 1972.71285743295 552.352883626571  1974.99009273618 551.086325270935  1977.26368577017 549.813251215371  L 1976.27888587187 548.072490857306  Z M 1979.61566181091 556.053602906423  L 1982 546  L 1972.17594092631 542.798771592546  L 1979.61566181091 556.053602906423  Z " fill-rule="nonzero" fill="#000000" stroke="none" />
  </g>
</svg>