<?xml version="1.0" encoding="utf-8"?>
<svg version="1.1" xmlns:xlink="http://www.w3.org/1999/xlink" width="286px" height="22px" viewBox="636 620  286 22" xmlns="http://www.w3.org/2000/svg">
  <g transform="matrix(-0.981627183447663 -0.190808995376544 0.190808995376548 -0.981627183447659 1423.28709982313 1399.0469601538 )">
    <path d="M 892.63853112513 607.558036500907  C 895.778059544061 606.431588231063  898.910290608442 605.284904175112  902.035028906976 604.118055871524  L 901.685201239857 603.181241800687  C 898.564490752647 604.346586027978  895.436297157791 605.491791999511  892.300815614761 606.616788269007  L 892.63853112513 607.558036500907  Z M 880.358155530089 611.848311961273  C 883.516129893149 610.77466289386  886.667147223441 609.6806585294  889.811010937468 608.566367119882  L 889.476940122019 607.623819142183  C 886.337128872091 608.736674221648  883.190173227021 609.82926840619  880.036269516795 610.901533531837  L 880.358155530089 611.848311961273  Z M 868.007570724238 615.93207777662  C 871.183103147849 614.911529774562  874.35202081631 613.870512687592  877.514126029546 612.80909146191  L 877.195905991801 611.861074580426  C 874.037876756124 612.921127626113  870.873043846498 613.960802834186  867.701604708223 614.980035342143  L 868.007570724238 615.93207777662  Z M 855.59024914937 619.80818577143  C 858.78244681328 618.841025768004  861.968373859614 617.853288646752  865.147831526951 616.845036029936  L 864.845551736402 615.891816785362  C 861.67019241404 616.898769756931  858.488372051818 617.885233677547  855.300289154834 618.851147004415  L 855.59024914937 619.80818577143  Z M 843.109682010725 623.475546154443  C 846.317647409269 622.562046072529  849.519688090653 621.62786662531  852.71560428835 620.673066093678  L 852.429349732794 619.714912489384  C 849.237553095302 620.668482275892  846.039639868507 621.601457558757  842.835809561679 622.513780132142  L 843.109682010725 623.475546154443  Z M 830.569378295417 626.933127825053  C 833.792209489614 626.073544500754  837.009463533018 625.19318537775  840.220939709803 624.292105379278  L 839.950790871444 623.329286805956  C 836.743454311735 624.229205305496  833.530347333178 625.108429638919  830.31167039276 625.966904953813  L 830.569378295417 626.933127825053  Z M 817.97286378586 630.179958663213  C 821.209654657212 629.374533773583  824.441217512098 628.548242493115  827.667350742003 627.701136371898  L 827.413383574824 626.733923531829  C 824.191408855077 627.579937726842  820.964011509144 628.405163911603  817.731392885731 629.209550602452  L 817.97286378586 630.179958663213  Z M 805.323680068473 633.215125802749  C 808.573520573634 632.464085797872  811.818483666454 631.692094676757  815.058366902594 630.899200601809  L 814.820652811004 629.927865432746  C 811.584945808884 630.719737461228  808.344165498026 631.490733479951  805.09851406188 632.240805388576  L 805.323680068473 633.215125802749  Z M 792.625383537945 636.037775888019  C 795.887359964524 635.341331927353  799.144810954292 634.623858015559  802.397533283824 633.885398913864  L 802.17613910258 632.910214512578  C 798.927609556757 633.6477217349  795.674357445944 634.364270817397  792.416585731675 635.059817056525  L 792.625383537945 636.037775888019  Z M 779.881544397325 638.647115313839  C 783.154739620846 638.005463206832  786.423762655529 637.342708226487  789.688409555819 636.658891720305  L 789.483397531238 635.680132265803  C 786.222958785488 636.363067327338  782.958149546275 637.024968011489  779.689173496148 637.665793024078  L 779.881544397325 638.647115313839  Z M 767.091584625298 641.026365595218  C 770.376731095641 640.447492441602  773.657649118439 639.844873782041  776.93408141407 639.218556872058  L 776.746322916817 638.236341647828  C 773.474625190136 638.861753506118  770.198448218369 639.463501358851  766.918048909289 640.041538018802  L 767.091584625298 641.026365595218  Z M 754.259104104083 643.163404608632  C 757.554551736872 642.646387820581  760.846218036547 642.105550236129  764.133844880639 641.540934266118  L 763.964583210764 640.555363118452  C 760.681707112185 641.119163196967  757.394797395178 641.659219250593  754.104111809237 642.175488929772  L 754.259104104083 643.163404608632  Z M 741.388719056847 645.058841446964  C 744.693303257877 644.603863735545  747.994554576526 644.124998355418  751.292214138699 643.622282857751  L 751.141509112404 642.633704082413  C 747.848614793402 643.135693137114  744.552133908136 643.613866538602  741.252324956643 644.068186789968  L 741.388719056847 645.058841446964  Z M 728.484977811321 646.712006272606  C 731.797530757584 646.319228424595  735.10720044998 645.902504477353  738.413727354358 645.461867109094  L 738.281632230023 644.470630064726  C 734.979883382477 644.910630695269  731.674996288303 645.326752460604  728.367230106731 645.718962729722  L 728.484977811321 646.712006272606  Z M 715.552440483145 648.122314865629  C 718.871791535476 647.791875686696  722.188709981469 647.437440440426  725.50293571846 647.059036920554  L 725.38949717782 646.065491905219  C 722.080060622736 646.443348617651  718.76793524975 646.797271691542  715.453380785601 647.127233373326  L 715.552440483145 648.122314865629  Z M 702.595677364345 649.289268830246  C 705.920653481207 649.021285095893  709.243648498888 648.729263806188  712.564401838215 648.413227860554  L 712.469659969866 647.417725987938  C 709.153705245094 647.733305249641  705.835512081267 648.024904557505  702.515340681033 648.292501045196  L 702.595677364345 649.289268830246  Z M 689.619267308218 650.212455770943  C 692.948693460208 650.007022185238  696.276590720235 649.777518050919  699.602698124801 649.523961364995  L 699.526686410031 648.526854440329  C 696.205385356847 648.780044727222  692.8822970346 649.009217219362  689.557682029708 649.214353945741  L 689.619267308218 650.212455770943  Z M 676.627796111187 650.891549438213  C 679.960495696233 650.748738600329  683.292119136931 650.581832726969  686.622405177494 650.390844906384  L 686.565150478451 649.392485302115  C 683.239676827542 649.583197138054  679.912867709127 649.749861826094  676.584984001399 649.8924662969  L 676.627796111187 650.891549438213  Z M 663.625854892203 651.326309843855  C 666.960650151467 651.246172222404  670.294822394256 651.141923593681  673.628110164912 651.013572132545  L 673.589632715111 650.01431266381  C 670.261161671723 650.142478652216  666.931807434334 650.246576637715  663.601831080716 650.326598457263  L 663.625854892203 651.326309843855  Z M 650.618038470271 651.516583345782  C 653.953750904299 651.499147260987  657.289293669894 651.457592717829  660.624405203928 651.391922974887  L 660.604718601102 650.392116774832  C 657.274426429759 650.457691622504  653.943703649989 650.499186117771  650.612811446975 650.516597006761  L 650.618038470271 651.516583345782  Z M 637.608486558344 651.458936725095  C 638.737426879614 651.475380413789  639.866405753251 651.489061220011  640.995413036449 651.499979020851  C 643.202183532419 651.519130174686  645.409033013779 651.527725174793  647.615885736843 651.525763726172  L 647.614996938136 650.525764121154  C 645.411498505254 650.527722588484  643.208003307913 650.51914144296  641.004586963422 650.500020979058  C 639.877376442285 650.489119744371  638.750194283154 650.475460305963  637.623050609555 650.459042786514  L 637.608486558344 651.458936725095  Z M 624.603013859873 651.147212549644  C 627.936915465334 651.258484939251  631.271578045612 651.34565028137  634.606740106599 651.408701740759  L 634.625641795307 650.408880393636  C 631.295299170023 650.345920045997  627.96545530367 650.258880661104  624.636371312507 650.147769064322  L 624.603013859873 651.147212549644  Z M 611.605698976168 650.59106698774  C 614.936919794938 650.764990293472  618.269354617538 650.914825116147  621.602742124648 651.040559706179  L 621.640435083756 650.041270338261  C 618.311864448069 649.915717439482  614.984245120167 649.766099133808  611.657838041872 649.592427153852  L 611.605698976168 650.59106698774  Z M 598.621135091308 649.790696578357  C 601.948497887091 650.027209336612  605.277527286788 650.239660688994  608.607962238027 650.428033975711  L 608.664433147039 649.42962973071  C 605.338810800651 649.241528650538  602.014591974719 649.02938429842  598.692037344406 648.793213310073  L 598.621135091308 649.790696578357  Z M 585.653910883237 648.746384168272  C 588.97623978319 649.045402796662  592.300687298122 649.320395599535  595.626992734961 649.57134101279  L 595.702221637349 648.57417472162  C 592.380722838056 648.323591934007  589.061079275891 648.048996506166  585.743551267238 647.750409971038  L 585.653910883237 648.746384168272  Z M 572.708608902148 647.458498812108  C 576.024729812361 647.819917638991  579.343420599915 648.157354711316  582.66442102316 648.470783568293  L 582.758381333418 647.475207624381  C 579.442179881773 647.162231683993  576.128284728297 646.825282221038  572.816955738602 646.46438565807  L 572.708608902148 647.458498812108  Z M 559.789803951028 645.92749564191  C 563.098544971468 646.351186943736  566.410306223425 646.750949036992  569.724828008646 647.126750573548  L 569.837486521684 646.1331168083  C 566.527754346186 645.757858319221  563.220778714864 645.358673897355  559.916818950723 644.935594845533  L 559.789803951028 645.92749564191  Z M 546.902061468954 644.153915706307  C 550.202253307599 644.639729752755  553.505914664606 645.101675593077  556.812786476889 645.539717002887  L 556.944103379769 644.548376561354  C 553.642010122707 644.110968138  550.343122681681 643.64968982694  547.047699745442 643.16457780022  L 546.902061468954 644.153915706307  Z M 534.049935917685 642.138385779306  C 537.340412303751 642.686150886195  540.634806268914 643.210117224306  543.932859476807 643.710243705793  L 544.082788362813 642.721546922577  C 540.789500966923 642.22214314283  537.499867526008 641.698933955952  534.214146003151 641.151960390424  L 534.049935917685 642.138385779306  Z M 521.23796917214 639.881618138794  C 524.517567268234 640.491140728758  527.801529619707 641.076942397655  531.089598708208 641.638977208699  L 531.258086593244 640.653273484147  C 527.974768889315 640.092050834727  524.695551988013 639.507095671462  521.420693035585 638.898453864764  L 521.23796917214 639.881618138794  Z M 508.470688915323 637.38441031482  C 511.738249728384 638.055474985718  515.0106199308 638.702904966112  518.287542913242 639.326649486508  L 518.474530254559 638.344287163234  C 515.202342550127 637.72144397733  511.934701046817 637.074949557824  508.671861983077 636.40485460083  L 508.470688915323 637.38441031482  Z M 495.752978646123 634.647512643141  C 498.755245501009 635.320947954961  501.761492166104 635.976516340163  504.771559046281 636.614182996041  C 505.024748207179 636.667623256689  505.277967322296 636.72092150101  505.531216272436 636.774077703916  L 505.73663698967 635.795403943702  C 505.483875172532 635.742349988567  505.231143118274 635.68915433307  504.978440946699 635.635817002427  C 501.972375512279 634.998996525554  498.970125068612 634.344298837308  495.971848985941 633.671758691395  L 495.752978646123 634.647512643141  Z M 483.084461195542 631.694081776259  C 486.326385047085 632.478590628159  489.573334655968 633.242183453048  492.825107453918 633.984812612464  L 493.04775184186 633.009912886073  C 489.800170603665 632.268240981265  486.557406337378 631.505632433301  483.319661350225 630.722134819251  L 483.084461195542 631.694081776259  Z M 470.467245188829 628.528651549411  C 473.695559343309 629.367407841601  476.929249250234 630.185335314611  480.16811316839 630.982382940145  L 480.407072517749 630.011353368322  C 477.172383519675 629.215333143205  473.942861863549 628.398459984907  470.718709030426 627.56078485592  L 470.467245188829 628.528651549411  Z M 457.904878032753 625.152111942496  C 461.118674830104 626.044879853567  464.338195863492 626.916912009416  467.563240275657 627.768154006303  L 467.818447401563 626.8012675999  C 464.597560096032 625.951122860384  461.382189049659 625.080214760593  458.172534860681 624.188597634111  L 457.904878032753 625.152111942496  Z M 445.400891713 621.565412290094  C 448.59926757477 622.511940812935  451.803714546762 623.437832474497  455.014032712148 624.343029510888  L 455.285415861571 623.38055811588  C 452.079235820575 622.476527885313  448.878919405018 621.551829705121  445.684666273919 620.606521264703  L 445.400891713 621.565412290094  Z M 432.958801801128 617.769561014557  C 436.140857484582 618.769584026945  439.329329445427 619.749074874147  442.52401876365 620.707972448417  L 442.811501635572 619.750186669471  C 439.620930296067 618.792525121434  436.436568299687 617.81429684534  433.2586143101 616.815562870186  L 432.958801801128 617.769561014557  Z M 420.582106466144 613.765625342483  C 423.746947316977 614.818861681867  426.918547808572 615.851676324956  430.096710073302 616.864004837221  L 430.400211840171 615.911173961615  C 427.226146250632 614.900150348457  424.058633976111 613.868667011272  420.897872629065 612.816788301494  L 420.582106466144 613.765625342483  Z M 408.274285490976 609.55473100466  C 411.421021695055 610.660884547278  414.574859002575 611.746732604116  417.735600654284 612.812207432096  L 418.055035984738 611.864599354008  C 414.898368552947 610.800497931148  411.748596565563 609.716049540665  408.605916528275 608.611321838338  L 408.274285490976 609.55473100466  Z M 396.038799294104 605.138061919559  C 399.16654612744 606.296821663626  402.301733530466 607.435397841469  405.444165907447 608.553719420448  L 405.779444990306 607.611600565634  C 402.64106323245 606.494720511637  399.509917109692 605.357611967095  396.386201965704 604.200345873111  L 396.038799294104 605.138061919559  Z M 383.879087956652 600.516859860468  C 386.98696603423 601.727900013646  390.102622055875 602.918884194923  393.225861644185 604.089738101998  L 393.576890213703 603.153373352884  C 390.457676504839 601.984028685349  387.346036587421 600.79457969171  384.242164588186 599.585100578447  L 383.879087956652 600.516859860468  Z M 373.434652358137 596.359588816976  C 375.979037897906 597.393765562195  378.528897437019 598.414423198742  381.084123114816 599.421518552155  L 381.450802477182 598.491171173368  C 378.351633803153 597.269690660638  375.260374947504 596.028235638696  372.177218765449 594.766883558539  L 373.434652358137 596.359588816976  Z M 904.845244807315 603.062457632476  C 907.96544458461 601.883526867983  911.078008737444 600.684485517672  914.182743081309 599.46540838651  L 913.817256918691 598.53459161349  C 910.716524600871 599.752097345012  907.607972566822 600.949593121934  904.491794750634 602.127004235758  L 904.845244807315 603.062457632476  Z M 376.943507844432 590.45166473886  L 369 594  L 372.156858261279 602.107049149857  L 376.943507844432 590.45166473886  Z " fill-rule="nonzero" fill="#ff0000" stroke="none" />
  </g>
</svg>