<?xml version="1.0" encoding="utf-8"?>
<svg version="1.1" xmlns:xlink="http://www.w3.org/1999/xlink" width="288px" height="24px" viewBox="442 618  288 24" xmlns="http://www.w3.org/2000/svg">
  <g transform="matrix(-0.978147600733806 0.207911690817759 -0.207911690817756 -0.978147600733801 1290.1788592452 1124.39673764309 )">
    <path d="M 972.685037932643 605.673303864311  C 975.818542015749 604.530169004798  978.94459975951 603.36672494416  982.063013958893 602.183045077402  L 981.708141382528 601.24813039972  C 978.593769219753 602.430276000327  975.471763420027 603.592212024131  972.342320932784 604.733865171257  L 972.685037932643 605.673303864311  Z M 960.427409146339 610.028277521972  C 963.579741645911 608.938137642041  966.72497128825 607.827565898781  969.862899658703 606.696632351848  L 969.523840667525 605.755867237432  C 966.389979627594 606.885334887127  963.248826779644 607.994467125751  960.100580280987 609.083193984514  L 960.427409146339 610.028277521972  Z M 948.098095676519 614.175962223664  C 951.268360393641 613.139127246897  954.431867754876 612.081743553348  957.588418192536 611.00387784734  L 957.265269180026 610.057529752972  C 954.112810210503 611.133998347393  950.953403334932 612.190011477772  947.787247862167 613.2255025263  L 948.098095676519 614.175962223664  Z M 935.70060271108 618.115178794712  C 938.887898348729 617.131943490272  942.068784052935 616.128048457537  945.243059159708 615.103557026534  L 944.935911996191 614.151894996219  C 941.765751331975 615.175058498482  938.588988638953 616.17765229916  935.405824320856 617.159613150365  L 935.70060271108 618.115178794712  Z M 923.23845482115 621.844807327322  C 926.441875240463 620.915451226141  929.639234971102 619.965330258652  932.830332309824 618.994504362584  L 932.539274316343 618.037798951065  C 929.352313224875 619.007366478766  926.159097858779 619.956255915248  922.959829659692 620.88440740052  L 923.23845482115 621.844807327322  Z M 910.715194959065 625.363787498969  C 913.933829436951 624.488574814279  917.146754193967 623.59249802866  920.353766544962 622.6756136705  L 920.078880468457 621.714136866337  C 916.87602499349 622.629832774253  913.667264776145 623.524748080036  910.452802238695 624.398826328612  L 910.715194959065 625.363787498969  Z M 898.134383451118 628.671118873842  C 901.367316939201 627.850298426051  904.594893297387 627.008520574337  907.816908916418 626.145838421628  L 907.558272906198 625.179863569876  C 904.340433610212 626.04142752833  901.117040782799 626.882114281599  897.888297769321 627.70187079558  L 898.134383451118 628.671118873842  Z M 885.499596985362 631.765861187268  C 888.745910370042 630.999666333247  891.987220738904 630.212426730411  895.223323616288 629.404192041185  L 894.981011201818 628.43399376568  C 891.749102907149 629.241180834547  888.511993870857 630.027400030508  885.269888303581 630.792601755506  L 885.499596985362 631.765861187268  Z M 872.81442759478 634.647134613025  C 876.07319795862 633.935783179738  879.327320843062 633.203305635705  882.57659096418 632.449748188729  L 882.350671034174 631.475602314013  C 879.105612562933 632.228183012362  875.85570761843 632.95971113119  872.601161218523 633.670140522583  L 872.81442759478 634.647134613025  Z M 860.082481636069 637.314120013471  C 863.352782520149 636.657814236058  866.618792782517 635.980306992061  869.88030638934 635.281641021522  L 869.670843172176 634.303824494429  C 866.413557085032 635.00158486576  863.151780170825 635.67821393614  859.885718196346 636.333669020923  L 860.082481636069 637.314120013471  Z M 847.302707119889 639.748088771661  C 850.585376169573 639.155251505997  853.863691479873 638.538554697853  857.137393103219 637.898047246989  L 856.945381320273 636.916654626674  C 853.676436652858 637.556231367879  850.402885002595 638.172032065167  847.124985939246 638.764007889847  L 847.302707119889 639.748088771661  Z M 834.479264045247 641.939003287486  C 837.772552783354 641.408323157014  841.061939568993 640.853705449786  844.347163576799 640.275194143108  L 844.173737042417 639.290347334121  C 840.893286733525 639.868018016601  837.608679695649 640.421829818985  834.320176375168 640.951738827866  L 834.479264045247 641.939003287486  Z M 821.616698018015 643.887129027612  C 824.91942961122 643.418795667104  828.218712433302 642.926455249473  831.514284874116 642.410146813884  L 831.359505561035 641.422197744224  C 828.068721856238 641.937755941472  824.7742331617 642.429380948244  821.476300707346 642.897033782114  L 821.616698018015 643.887129027612  Z M 808.719605384628 645.591769843167  C 812.03059962533 645.185950608214  815.338599508555 644.756063414534  818.64334273305 644.302142349174  L 818.507265950557 643.31144405541  C 815.207324787993 643.764705536373  811.904131698883 644.193968068836  808.597948603349 644.599197615282  L 808.719605384628 645.591769843167  Z M 795.792594829356 647.052316592889  C 799.110668557295 646.709156500109  802.426203411509 646.341876147501  805.73893649318 645.950504657837  L 805.621610867344 644.957411158955  C 802.313691457504 645.348213953867  799.002974346365 645.71496061811  795.689722050652 646.057622071238  L 795.792594829356 647.052316592889  Z M 782.840285727427 648.268247360789  C 786.164253252601 647.987869035997  789.486138294955 647.683326769488  792.805677452241 647.354644709333  L 792.707144908541 646.359510880227  C 789.392429312885 646.687715338492  786.075371240917 646.991815080204  782.756233712154 647.271785992382  L 782.840285727427 648.268247360789  Z M 769.867306494325 649.239127642662  C 773.195980020577 649.021631277057  776.523028199124 648.779935922655  779.848187218314 648.514060744207  L 779.768482966653 647.517242188869  C 776.448155675211 647.782731028958  773.125941969509 648.024075180262  769.802105277871 648.241255505876  L 769.867306494325 649.239127642662  Z M 756.878292931857 649.964610501346  C 760.210482981391 649.810073815709  763.54150539914 649.631311741529  766.871096058323 649.42833845339  L 766.810248580447 648.430191377836  C 763.485496088547 648.632869729203  760.159313918537 648.811372047483  756.831965813414 648.965684178689  L 756.878292931857 649.964610501346  Z M 743.877886571583 650.444436690707  C 747.212402409998 650.352914907621  750.546208749794 650.237149993018  753.879041243443 650.097151126248  L 753.837072282765 649.098032211234  C 750.509082667066 649.23782764821  747.180120620245 649.353424346934  743.850450105817 649.444813141391  L 743.877886571583 650.444436690707  Z M 730.870733016201 650.678434748269  C 734.206383077993 650.649960572392  737.541782027863 650.597234185135  740.876665392004 650.520259767333  L 740.853589945835 649.520526040892  C 737.52355243971 649.597388608576  734.193000097038 649.650038380084  730.862197007337 649.678471180657  L 730.870733016201 650.678434748269  Z M 717.861019672505 650.661619162128  C 719.506680263619 650.680315035103  721.152402625662 650.693107615854  722.798154994008 650.699996657468  C 724.488305581465 650.705395206145  726.178470322296 650.704567375299  727.868614810487 650.697513181783  L 727.864441124673 649.697521891648  C 726.1769178564 649.70456514492  724.489374368249 649.705392300797  722.801845006281 649.700003342444  C 721.158649357337 649.693123817315  719.515483668836 649.680350517253  717.872379649583 649.661683688749  L 717.861019672505 650.661619162128  Z M 704.854578822075 650.390888468451  C 708.188822895993 650.491826909896  711.523756799869 650.568521652188  714.859116096767 650.62096661397  L 714.874838085019 649.621090212066  C 711.544325337723 649.568721457098  708.214237365265 649.492138158533  704.884838220437 649.391346388891  L 704.854578822075 650.390888468451  Z M 691.855579384339 649.874349678076  C 695.187319717925 650.038296202509  698.520208028923 650.178016399076  701.853980042508 650.293499188939  L 701.888599556069 649.29409862396  C 698.559671785602 649.178783640026  695.231626433669 649.039266468322  691.904727391004 648.875558171584  L 691.855579384339 649.874349678076  Z M 678.868666459239 649.112187372464  C 682.196712478825 649.339083394763  685.526364212965 649.541779117584  688.857357643563 649.720258468576  L 688.910862311396 648.721690869202  C 685.584709086423 648.54347086329  682.259895608307 648.341069673916  678.936685511517 648.114503350077  L 678.868666459239 649.112187372464  Z M 665.898480827688 648.104673904891  C 669.221643279682 648.394438345374  672.546868609674 648.660037162579  675.873893150457 648.901449296372  L 675.946263853049 647.904071493629  C 672.62407375077 647.663010151392  669.303680244876 647.397797270968  665.985346619454 647.108453881893  L 665.898480827688 648.104673904891  Z M 652.94965729322 646.852169303123  C 656.266748669201 647.204698616533  659.586359349374 647.533105618271  662.90822611183 647.837364267959  L 662.999436988026 646.841532667706  C 659.682397169401 646.537716130696  656.36761015478 646.209786331164  653.055338783603 645.857769271652  L 652.94965729322 646.852169303123  Z M 640.026823025776 645.355121140769  C 643.336657986715 645.77028935326  646.649467777879 646.161387185631  649.964989716529 646.528383626549  L 650.075008172772 645.534454082121  C 646.764303958405 645.167990917019  643.456307950545 644.777461381753  640.151282450246 644.362896442598  L 640.026823025776 645.355121140769  Z M 627.134595908217 643.614064377333  C 630.43599170816 644.091723131502  633.740816801281 644.545372038477  637.04880913797 644.974975127058  L 637.177595859947 643.983302812106  C 633.874410306413 643.554323971914  630.574387394179 643.101334253868  627.277788792085 642.624369576898  L 627.134595908217 643.614064377333  Z M 614.277582886156 641.629621167062  C 617.569359794824 642.169599774954  620.865019234142 642.685637648318  624.164299881366 643.17769386896  L 624.311808848058 642.188633150528  C 621.017322325209 641.697291927782  617.726451748302 641.182003899607  614.439458060464 640.642809924755  L 614.277582886156 641.629621167062  Z M 601.460378321701 639.402500636613  C 604.741360046026 640.004606140714  608.026676151125 640.58284857801  611.316066134408 641.137182097921  L 611.482244634535 640.151086409818  C 608.197634403684 639.597558381808  604.917092131287 639.020156178014  601.640877941507 638.418925582411  L 601.460378321701 639.402500636613  Z M 588.68756235169 636.93349863166  C 591.956576456171 637.597515873846  595.230375242781 638.237756244266  598.508699121991 638.854168976303  L 598.693487772849 637.871390692805  C 595.419927566088 637.255873658832  592.150885876636 636.616563609987  588.88662191674 635.953511239108  L 588.68756235169 636.93349863166  Z M 575.963801418495 634.225440988448  C 579.220194768538 634.94759574712  582.481237156191 635.648624737894  585.746722860834 636.328483736837  L 585.950547662876 635.349476356848  C 582.689294626479 634.670498579829  579.43247914771 633.970378251169  576.180306680555 633.249159537481  L 575.963801418495 634.225440988448  Z M 563.288257108751 631.302114890755  C 566.532011667951 632.079071456821  569.780770795089 632.834983643121  573.034329544609 633.569803763496  L 573.254631939374 632.594372138593  C 570.00529039861 631.86050447984  566.760742258938 631.105572094325  563.521192200465 630.329622606442  L 563.288257108751 631.302114890755  Z M 550.663803385242 628.165488166914  C 553.893996963598 628.997025653879  557.129549217528 629.807606132085  560.37025603462 630.597178466666  L 560.606973390781 629.625599909219  C 557.370467123953 628.837051005162  554.13910873902 628.027521187885  550.913102083843 627.197061525978  L 550.663803385242 628.165488166914  Z M 538.094029343379 624.816452550764  C 541.309743606269 625.702334554942  544.531169128912 626.567352879387  547.75810269007 627.41145295506  L 548.011167709571 626.444003682021  C 544.788416846012 625.600997714823  541.571166881532 624.737100612738  538.359620773974 623.852366874076  L 538.094029343379 624.816452550764  Z M 525.582508533299 621.255960163371  C 528.782829262527 622.195934831091  531.989212211993 623.115145079585  535.201455109408 624.013532921158  L 535.470795846602 623.050487975536  C 532.262716604992 622.153264609338  529.060489715756 621.235245825874  525.864317189017 620.296489537681  L 525.582508533299 621.255960163371  Z M 513.132797943916 617.485023242348  C 516.316815297593 618.478823341541  519.507244108611 619.451964185308  522.703883110957 620.404384383726  L 522.989422993056 619.446017556393  C 519.796927420977 618.494831869183  516.61063399076 617.522952394405  513.430743707378 616.530440442359  L 513.132797943916 617.485023242348  Z M 500.748436991676 613.504713854076  C 503.915245763005 614.552056850287  507.08881340584 615.578851628183  510.268939718022 616.585033413176  L 510.570597566871 615.631617165031  C 507.394593281511 614.626739576128  504.225139164252 613.60127571254  501.062435157769 612.555290264897  L 500.748436991676 613.504713854076  Z M 488.432946514315 609.316163588915  C 491.581646388731 610.416751725563  494.737450627467 611.496908522863  497.90016014878 612.556565839863  L 498.21785020393 611.608371224365  C 495.059240134055 610.550087417541  491.907526396325 609.471330701531  488.762907814276 608.372169128906  L 488.432946514315 609.316163588915  Z M 476.189827769894 604.920563239503  C 479.319523581225 606.074083622597  482.456667229853 607.207295353851  485.601060811225 608.320126945379  L 485.93469275432 607.377423531496  C 482.79437488357 606.266034373754  479.661297548401 605.134291492713  476.535658396686 603.982266283539  L 476.189827769894 604.920563239503  Z M 464.022561441401 600.319162462212  C 467.132363426276 601.52528714928  470.249954603938 602.711231645671  473.375138303464 603.87692113696  L 473.724617283915 602.939976932526  C 470.60348439554 601.775798388574  467.489934187632 600.591391093684  464.384163076385 599.386829765383  L 464.022561441401 600.319162462212  Z M 456.447559170633 597.335150462765  C 458.038222593222 597.971474558979  459.631001179086 598.602498440453  461.225868419645 599.228211605071  L 461.591095081596 598.297292980593  C 458.490034504524 597.080656022979  455.396896597246 595.843921037828  452.311876488087 594.587166043652  L 456.447559170633 597.335150462765  Z M 984.867497227279 601.112279357005  C 987.98128204781 599.916474507829  991.087279163943 598.700488893549  994.185292636156 597.464399223714  L 993.814707363844 596.535600776286  C 990.720709485156 597.770088247254  987.618738310807 598.984497721212  984.508989526359 600.178752588036  L 984.867497227279 601.112279357005  Z M 459.923929300617 591.408155844302  L 452 595  L 455.201269904234 603.089615009396  L 459.923929300617 591.408155844302  Z " fill-rule="nonzero" fill="#03b615" stroke="none" />
  </g>
</svg>