<?xml version="1.0" encoding="utf-8"?>
<svg version="1.1" xmlns:xlink="http://www.w3.org/1999/xlink" width="246px" height="20px" viewBox="842 616  246 20" xmlns="http://www.w3.org/2000/svg">
  <g transform="matrix(-0.981627183447665 -0.190808995376546 0.190808995376541 -0.981627183447669 1792.82380092128 1424.62929737661 )">
    <path d="M 1059.62217917178 606.519590396139  C 1062.76680831891 605.406388204232  1065.9030325762 604.269584423291  1069.03058660085 603.109275233516  L 1068.68275671153 602.171717572306  C 1065.55989694857 603.330285211032  1062.42837996649 604.465382721054  1059.28847070975 605.576914066551  L 1059.62217917178 606.519590396139  Z M 1047.31657627955 610.741047930215  C 1050.48234186158 609.689458717289  1053.64016499113 608.614108304335  1056.7897784981 607.515087672214  L 1056.46032129118 606.570917163882  C 1053.31543515582 607.668288235215  1050.16235171999 608.742024614896  1047.00133775282 609.792035458611  L 1047.31657627955 610.741047930215  Z M 1034.93089288927 614.721426456063  C 1038.1165878466 613.731851177535  1041.29480581722 612.718364147753  1044.46527790545 611.681051113604  L 1044.15431899808 610.730627756395  C 1040.98860558888 611.766383848977  1037.81515792335 612.778349698531  1034.63424449362 613.766439686858  L 1034.93089288927 614.721426456063  Z M 1022.46985147877 618.459208314238  C 1025.67426115306 617.532024280518  1028.87166215724 616.580787061527  1032.06178397263 615.605577137459  L 1031.76944192885 614.649263313738  C 1028.58410828549 615.623009509099  1025.39150637893 616.572818980908  1022.19190632185 617.498611369758  L 1022.46985147877 618.459208314238  Z M 1009.9382032588 621.952968343816  C 1013.16010585604 621.088529076458  1016.37547077208 620.199904360937  1019.58402596838 619.287169380066  L 1019.31041225389 618.325329718147  C 1016.10667289695 619.236694741272  1012.89613404125 620.123985687028  1009.67906731699 620.987127485465  L 1009.9382032588 621.952968343816  Z M 997.340726361426 625.201374425785  C 1000.57889341783 624.40000952269  1003.81099627463 623.574336130104  1007.03676147723 622.72442410477  L 1006.78198041688 621.757425339886  C 1003.56105688479 622.606061700771  1000.33380521091 623.430495809573  997.100498439415 624.230657914394  L 997.340726361426 625.201374425785  Z M 984.682224018208 628.203187990965  C 987.935420868569 627.465203000722  991.183029313179 626.702795748105  994.424774585503 625.916030737198  L 994.188923323547 624.944241571672  C 990.952043706798 625.729825697827  987.709309718045 626.491088625147  984.460995711357 627.227965946379  L 984.682224018208 628.203187990965  Z M 971.967522728818 630.957264492254  C 975.234508977316 630.282940797617  978.496384744656 629.584090379584  981.752874057204 628.860772364959  L 981.53604252024 627.884563327622  C 978.284440993143 628.606795687443  975.027461096013 629.304597174987  971.765378388206 629.97790875221  L 971.967522728818 630.957264492254  Z M 959.199674806217 633.457334587983  C 960.732498878321 633.174562868337  962.264204603844 632.885762156065  963.794756425809 632.59093915538  C 965.539839602603 632.253447342784  967.283565255654 631.908973600107  969.025891500536 631.557526201634  L 968.828162363221 630.57726950655  C 967.088572611993 630.928164922535  965.347585747432 631.272098121398  963.605243582469 631.609060842966  C 962.077388451596 631.903363400812  960.548381545259 632.191654759372  959.018258352247 632.473928227302  L 959.199674806217 633.457334587983  Z M 946.379813520435 635.677495430729  C 949.67307692108 635.144224424488  952.961791737694 634.583233165505  956.245608234905 633.994581311882  L 956.069162291068 633.010270980278  C 952.790871140975 633.597932368743  949.507689913343 634.157979704272  946.219967755169 634.690353429127  L 946.379813520435 635.677495430729  Z M 933.514423851146 637.616491617353  C 936.818571651361 637.155439444204  940.118778766604 636.666574090173  943.414694239277 636.149947543213  L 943.259837581425 635.162010594052  C 939.969467813583 635.677767865582  936.674813624284 636.165810655145  933.376225380609 636.626087062264  L 933.514423851146 637.616491617353  Z M 920.609671531518 639.27339388466  C 923.923120219724 638.884781503681  927.233238010547 638.468276343145  930.539672892444 638.023922695924  L 930.406479735574 637.032832597617  C 927.105608258457 637.476438575734  923.801060069274 637.892242925008  920.493186587273 638.280201427095  L 920.609671531518 639.27339388466  Z M 907.671741159249 640.647408162862  C 910.992902766424 640.331421816389  914.311344860088 639.987476459293  917.626714543551 639.615608668128  L 917.515248720431 638.621840400232  C 914.205457475455 638.993082486937  910.892598989865 639.336449121844  907.577025566663 639.651903789933  L 907.671741159249 640.647408162862  Z M 894.706833232611 641.737875956132  C 898.034116093286 641.494667080505  901.359292127696 641.223446362528  904.682007723033 640.924242644919  L 904.592322653619 639.928272470504  C 901.275197856993 640.226972748167  897.955616761182 640.497737110376  894.633932384095 640.740536762935  L 894.706833232611 641.737875956132  Z M 881.721161178855 642.544274658189  C 885.052970693955 642.373959811172  888.383287079776 642.175593714739  891.711756176772 641.949197463957  L 891.643894842598 640.951502701355  C 888.32102622512 641.177518017981  884.996313427111 641.375550343771  881.670110012114 641.545578619159  L 881.721161178855 642.544274658189  Z M 868.720948376435 643.06621780276  C 872.055687777517 642.968878607676  875.389548461841 642.843462199667  878.722175892947 642.68998191603  L 878.676170816533 641.69104071008  C 875.34915086177 641.844262747911  872.020899728861 641.969468130368  868.691771357722 642.066643542597  L 868.720948376435 643.06621780276  Z M 855.712425172452 643.303455248787  C 859.04849628691 643.27913835541  862.384303518257 643.226731741592  865.719492123029 643.146240980467  L 865.69536535229 642.146532073367  C 862.365788533291 642.2268874008  859.035594128617 642.27920583529  855.705136284841 642.303481813081  L 855.712425172452 643.303455248787  Z M 842.701375345656 643.252003992928  C 843.99943656246 643.272249928574  845.297560632521 643.288242616671  846.595726651205 643.299981799678  C 848.633752608596 643.316390197768  850.67184948803 643.32231500802  852.709936398329 643.317755995282  L 852.707699496012 642.317758497151  C 850.673207153614 642.322309469172  848.638704859318 642.316395958638  846.604273348638 642.300018200217  C 845.308456910331 642.288299181192  844.012682342432 642.272334897061  842.716970506529 642.252125604844  L 842.701375345656 643.252003992928  Z M 829.695271627663 642.906716241644  C 833.029087402988 643.031752909561  836.363896911487 643.128716199997  839.699345515892 643.197595801481  L 839.71999188984 642.197808960578  C 836.390155508697 642.129045255859  833.060957148073 642.032245115779  829.732750848613 641.907418834464  L 829.695271627663 642.906716241644  Z M 816.699843002264 642.276801647011  C 820.030122802516 642.474787111267  823.362010636991 642.644727678399  826.695152179029 642.786605276228  L 826.737679398648 641.787509967665  C 823.410146197981 641.645871092973  820.083864595436 641.47621646771  816.759188321389 641.278564133641  L 816.699843002264 642.276801647011  Z M 803.721317523745 641.362562095361  C 807.046465313597 641.633401471498  810.373834668023 641.876237871372  813.703071740878 642.09104547076  L 813.767459425015 641.093120510589  C 810.443824123889 640.878674346302  807.122053398571 640.636246542767  803.802500499823 640.365862880755  L 803.721317523745 641.362562095361  Z M 790.765915145565 640.164435735655  C 794.084337349188 640.507999224004  797.405593583053 640.823615077366  800.729330651108 641.111249731852  L 800.815547941989 640.114973375236  C 797.497403391359 639.827822694597  794.18173550067 639.512737896227  790.868896871686 639.169752487538  L 790.765915145565 640.164435735655  Z M 777.839844739446 638.682996769502  C 781.149951004246 639.09911971739  784.463502406747 639.487363765461  787.780146570262 639.847687626246  L 787.888152148282 638.853537338253  C 784.577088567677 638.493819758118  781.269112544209 638.106228969183  777.964575861656 637.690806189446  L 777.839844739446 638.682996769502  Z M 764.949301119775 636.91895517597  C 768.249505078567 637.40743815663  771.55376363144 637.868124333596  774.861725389945 638.300964715604  L 774.991467493472 637.309416942387  C 771.689071708869 636.877304857271  768.390372898888 636.417393830512  765.095721860729 635.929732770937  L 764.949301119775 636.91895517597  Z M 752.100462074737 634.873156371328  C 755.389182106015 635.433765279477  758.682564244589 635.96667280166  761.980258258654 636.471822266301  L 762.131674708834 635.483352206757  C 758.839529392172 634.979052706216  755.551688695843 634.447041853818  752.268502262351 633.887376225786  L 752.100462074737 634.873156371328  Z M 739.299485405617 632.546580803887  C 742.575145391541 633.179046967914  745.856072763664 633.783920439586  749.141918614672 634.361136894168  L 749.314936845229 633.376218272203  C 746.034619755913 632.799973041581  742.759212869655 632.196117329546  739.489064506694 631.564715352598  L 739.299485405617 632.546580803887  Z M 726.552717404783 629.93892386714  C 727.566925783094 630.158068678702  728.581644719713 630.374843908981  729.596865908258 630.589247783478  C 731.846174817141 631.062532633982  734.098210486304 631.522764498828  736.35285922745 631.969920144377  L 736.547396319461 630.989024981869  C 734.296662688651 630.542645804803  732.048537450625 630.083213818875  729.803134083909 629.610752214815  C 728.789557941727 629.396695165366  727.776483178908 629.180270885534  726.76391808642 628.961481146529  L 726.552717404783 629.93892386714  Z M 713.864052761742 627.06727698255  C 717.110279397846 627.835342227221  720.362228701125 628.579016320655  723.619625537782 629.298236343705  L 723.835228605672 628.321755254735  C 720.582720916617 627.603614735665  717.33565258452 626.861056850228  714.094298330251 626.094144423141  L 713.864052761742 627.06727698255  Z M 701.233877732868 623.948423829005  C 704.464488568959 624.779727154365  707.701297232982 625.586755716962  710.944029872127 626.369441237494  L 711.178658211176 625.39735608561  C 707.940792709582 624.615845326771  704.708842291625 623.810028063248  701.483080399021 622.979972471846  L 701.233877732868 623.948423829005  Z M 688.667008017046 620.58355357907  C 691.880771269007 621.47777802146  695.101205146517 622.347853345169  698.328037182167 623.193705936774  L 698.581601332062 622.226387363662  C 695.359612568172 621.381804343552  692.144012359174 620.513034948129  688.935072763552 619.620152680337  L 688.667008017046 620.58355357907  Z M 676.168235175777 616.973949207991  C 679.363925483226 617.93075381286  682.56675667043 618.863544150833  685.77645775927 619.772241302431  L 686.048861039752 618.810058132352  C 682.843977510184 617.902724877974  679.645953570992 616.971334599584  676.455059793515 616.015966098193  L 676.168235175777 616.973949207991  Z M 663.742324806234 613.120987004513  C 666.918723699735 614.140006956421  670.102731004485 615.135156649502  673.294077334976 616.106351888312  L 673.585215882703 615.149670987474  C 670.398659562148 614.179933451578  667.219431251947 613.186277415547  664.04779993322 612.168786948436  L 663.742324806234 613.120987004513  Z M 651.394014724206 609.02613604612  C 654.549911089854 610.106982807836  657.713880497271 611.164112420169  660.885655256271 612.197435443815  L 661.195418064423 611.246621580493  C 658.028403939677 610.214849509659  654.869183451157 609.159306582323  651.718023887294 608.080082103559  L 651.394014724206 609.02613604612  Z M 639.128013157642 604.690957638903  C 642.262203698857 605.833219099552  645.404928834186 606.951925563245  648.555922670918 608.046982380951  L 648.884191631518 607.102398086404  C 645.737927238184 606.008984880048  642.599919135438 604.89195752433  639.470432816931 603.75141052623  L 639.128013157642 604.690957638903  Z M 626.94899695147 600.117104722252  C 630.060286647739 601.320345354427  633.180569236438 602.500202123278  636.30958072354 603.65657520607  L 636.656230672491 602.718580636314  C 633.531915634649 601.563943196721  630.416316393711 600.385857318615  627.30969654741 599.184422674881  L 626.94899695147 600.117104722252  Z M 617.437131909505 596.354353724241  C 619.670337687122 597.257663524693  621.908426221534 598.148854695903  624.151298763144 599.027887916472  L 624.516197527949 598.09684071496  C 621.415023100701 596.881419288304  618.323020653469 595.642724074526  615.24045178756 594.380859874413  L 617.437131909505 596.354353724241  Z M 1071.84300962164 602.058663433138  C 1074.96530333332 600.884272709768  1078.07873292237 599.686449007323  1081.18303497466 598.465293668611  L 1080.81696502534 597.534706331389  C 1077.71732233501 598.754028792807  1074.60856580777 599.950054637283  1071.49095846241 601.122682674104  L 1071.84300962164 602.058663433138  Z M 620.941280574016 590.446682839266  L 613 594  L 616.161942819836 602.10506740281  L 620.941280574016 590.446682839266  Z " fill-rule="nonzero" fill="#00bfbf" stroke="none" />
  </g>
</svg>