<svg width="20" height="20" viewBox="0 0 20 20" fill="none" xmlns="http://www.w3.org/2000/svg">
<path d="M15.5 0.5H4.5C2.29086 0.5 0.5 2.29086 0.5 4.5V15.5C0.5 17.7091 2.29086 19.5 4.5 19.5H15.5C17.7091 19.5 19.5 17.7091 19.5 15.5V4.5C19.5 2.29086 17.7091 0.5 15.5 0.5Z" stroke="#718096"/>
<path fill-rule="evenodd" clip-rule="evenodd" d="M4.448 8.5V9.5L9 7V6L4.448 4V5C6.715 5.987 7.881 6.487 7.948 6.5C7.879 6.517 6.713 7.183 4.448 8.5Z" fill="#718096"/>
<path d="M5.39403 15.34C5.39403 15.236 5.41203 15.138 5.44803 15.046C5.48803 14.954 5.54003 14.874 5.60403 14.806C5.67203 14.738 5.75203 14.684 5.84403 14.644C5.93603 14.604 6.03403 14.584 6.13803 14.584C6.24203 14.584 6.34003 14.604 6.43203 14.644C6.52403 14.684 6.60403 14.738 6.67203 14.806C6.74003 14.874 6.79403 14.954 6.83403 15.046C6.87403 15.138 6.89403 15.236 6.89403 15.34C6.89403 15.448 6.87403 15.548 6.83403 15.64C6.79403 15.728 6.74003 15.806 6.67203 15.874C6.60403 15.942 6.52403 15.994 6.43203 16.03C6.34003 16.07 6.24203 16.09 6.13803 16.09C6.03403 16.09 5.93603 16.07 5.84403 16.03C5.75203 15.994 5.67203 15.942 5.60403 15.874C5.54003 15.806 5.48803 15.728 5.44803 15.64C5.41203 15.548 5.39403 15.448 5.39403 15.34Z" fill="#718096"/>
</svg>
