<?xml version="1.0" encoding="utf-8"?>
<svg version="1.1" xmlns:xlink="http://www.w3.org/1999/xlink" width="368px" height="44px" viewBox="662 82  368 44" xmlns="http://www.w3.org/2000/svg">
  <g transform="matrix(-0.961261695938319 -0.275637355816999 0.275637355816999 -0.961261695938319 1630.56110975885 437.160419398766 )">
    <path d="M 1009.98262555062 72.5043131342078  C 1011.97934841936 72.5569081608743  1013.97585967059 72.6172514732369  1015.97211420629 72.685341708236  L 1016.04029254669 70.68650411756  C 1014.03886688429 70.6182375006284  1012.03718384129 70.5577378740721  1010.03528863266 70.5050066044856  L 1009.98262555062 72.5043131342078  Z M 1001.9947981231 72.3352618202639  C 1003.99195833891 72.3671918023447  1005.98898712835 72.4068718450902  1007.98583938169 72.4543010521914  L 1008.03332995985 70.4548649704458  C 1006.03130503146 70.4073129020385  1004.02910310961 70.3675300715333  1002.026769421 70.3355173775637  L 1001.9947981231 72.3352618202639  Z M 994.005649030648 72.2488781571099  C 996.003032726785 72.2601396753693  998.000365201751 72.2791521993436  999.997601338981 72.3059152995701  L 1000.02439906934 70.3060948372166  C 998.021989262596 70.2792624094664  996.019482868648 70.2602006351745  994.016925120757 70.2489099449146  L 994.005649030648 72.2488781571099  Z M 986.016033794695 72.2451713951772  C 988.013427080474 72.2357632436707  990.010849355775 72.2341062129094  992.008255502006 72.2402003403232  L 992.01435751492 70.2402096489853  C 990.011777258833 70.2340997352554  988.009180831826 70.2357610584132  986.006613469504 70.2451935809319  L 986.016033794695 72.2451713951772  Z M 978.02680798658 72.3241419314057  C 980.023996970292 72.2940651176092  982.021295151116 72.2717387095564  984.018657413263 72.2571632115653  L 984.004063055296 70.2572164610953  C 982.001526796918 70.2718297156682  979.999054785948 70.2942139583719  977.996692254869 70.3243686835839  L 978.02680798658 72.3241419314057  Z M 970.038827135939 72.4857813092022  C 972.035597947754 72.4350390539042  974.032558152578 72.3920456593927  976.029662642254 72.3568020968202  L 975.994373476249 70.3571134523651  C 973.992095658131 70.3924483103734  971.989962498556 70.4355530755991  969.988019222664 70.4864267743714  L 970.038827135939 72.4857813092022  Z M 962.052946639095 72.7300722193453  C 964.049085453963 72.6586699563016  966.045493837454 72.5950141792973  968.042126693879 72.5391063262152  L 967.98614649879 70.5398899252826  C 965.984341535599 70.5959426028798  963.982761626905 70.6597632747312  961.981451985042 70.7313504992347  L 962.052946639095 72.7300722193453  Z M 954.070021667452 73.0569885018392  C 956.065314728 72.9649338771915  958.060957503919 72.8806225343003  960.056904916814 72.8040563776247  L 959.980239687305 70.8055263071518  C 957.979121943278 70.8822908019104  955.978309625293 70.9668205461302  953.977847928657 71.0591136304129  L 954.070021667452 73.0569885018392  Z M 946.090907075918 73.4664951487149  C 948.085140715342 73.3537980201718  950.079804179436 73.2488401399096  952.074852411925 73.15162387876  L 951.977510357725 71.153994152188  C 949.977294123302 71.2514622437533  947.97746365407 71.3566920084292  945.978064122846 71.4696810692518  L 946.090907075918 73.4664951487149  Z M 938.11645731137 73.9585483077791  C 940.109417976261 73.8252207435639  942.102888529249 73.6996275653834  944.096823940693 73.5817716102074  L 943.978815485717 71.5852561445638  C 941.979714954954 71.7034173955219  939.981080487066 71.8293359120843  937.982957227855 71.9630088499629  L 938.11645731137 73.9585483077791  Z M 930.147526321146 74.5330952873106  C 932.139000594569 74.3791515648552  934.131064764602 74.2329365379683  936.123673833686 74.0944535094148  L 935.985011614919 72.099266102406  C 933.987240862397 72.2381078594056  931.990016420371 72.3847016438242  929.993383403101 72.5390441443314  L 930.147526321146 74.5330952873106  Z M 922.184967461603 75.1900745617019  C 924.174742085639 75.0155311661388  926.165186551785 74.8487099480371  928.156255899067 74.6896146756231  L 927.996954765211 72.6959689827397  C 926.000727723009 72.8554763778553  924.005127180575 73.022729732066  922.010198215489 73.1977252673731  L 922.184967461603 75.1900745617019  Z M 914.230205818503 75.9292416440497  C 914.969164371338 75.8562700284653  915.708274033477 75.7848368327014  916.447530000442 75.7149425210991  C 917.69654336464 75.5959803834918  918.94584485317 75.4800629906551  920.195423331169 75.3671913757461  L 920.015500341055 73.3753008873837  C 918.762914544132 73.4884441466508  917.510606352109 73.6046399544928  916.258586922481 73.7238872756576  C 915.516797327673 73.7940220981551  914.77515449534 73.8657006011079  914.033663243643 73.938922318849  L 914.230205818503 75.9292416440497  Z M 906.289930983347 76.7732123617473  C 908.273393568768 76.5474101642718  910.258104350208 76.3327104088154  912.243970081174 76.1291231824895  L 912.040002878691 74.1395510223729  C 910.046713903203 74.3438992657902  908.054584194477 74.559401577412  906.063707347587 74.7860478324182  L 906.289930983347 76.7732123617473  Z M 898.363135589435 77.7355874514048  C 900.343007480455 77.4802097795175  902.324293118115 77.2359146855128  904.306899416847 77.0027136469624  L 904.07326313078 75.0164070025006  C 902.083245771388 75.2504797557449  900.094554009815 75.4956880344531  898.107281279458 75.7520203181657  L 898.363135589435 77.7355874514048  Z M 890.451585168165 78.8161525636727  C 892.427425388878 78.5312562975182  894.404844591892 78.2574202767035  896.383749873449 77.9946573666824  L 896.120496541499 76.0120586470174  C 894.134194033882 76.2758037751688  892.149383159737 76.5506634058516  890.166157170282 76.8366246254954  L 890.451585168165 78.8161525636727  Z M 882.557041855431 80.0146670247931  C 884.528410327825 79.7003156191898  886.50152266665 79.3969996629183  888.47628617034 79.1047334064925  L 888.183474426797 77.1262841949019  C 886.20132917915 77.4196429541355  884.220841268474 77.7240927174309  882.242103742885 78.0396191810015  L 882.557041855431 80.0146670247931  Z M 874.681263999142 81.3308638902053  C 876.647721641272 80.9871273604899  878.616087645476 80.6543990261888  880.586269533182 80.3326945196801  L 880.263964595867 78.3588354752236  C 878.286418090466 78.6817425258812  876.310694256398 79.015714611837  874.336885917949 79.3607360422741  L 874.681263999142 81.3308638902053  Z M 866.826005767583 82.7644500040027  C 868.787114591266 82.3914049104502  870.750295847618 82.0293383065444  872.715457301657 81.6782672030459  L 872.363730957398 79.7094379624172  C 870.391223652242 80.0618213835639  868.420703946819 80.4252414067349  866.452264420912 80.7996809575781  L 866.826005767583 82.7644500040027  Z M 858.993016758716 84.3151060642261  C 860.948339967109 83.9128354949943  862.905899217173 83.5215112644076  864.865602538061 83.1411517578206  L 864.4845331267 81.1777908374279  C 862.517504357413 81.5595721428705  860.552627673559 81.9523591588863  858.5899953898 82.356133431391  L 858.993016758716 84.3151060642261  Z M 851.184041610487 85.9824866939828  C 853.1331436954 85.5510802466001  855.084644932877 85.1305855488048  857.038453636843 84.7210223564174  L 856.628126033791 82.7635670547124  C 854.667013915736 83.174661210486  852.708217889559 83.596727734069  850.751829984086 84.0297467957876  L 851.184041610487 85.9824866939828  Z M 843.400819612248 87.7662205183715  C 845.343266451067 87.3057742797978  847.288275019058 86.8562027713695  849.235753935186 86.4175271150032  L 848.796259532516 84.4664134150818  C 846.841500863321 84.9067288583685  844.889221776435 85.3579808828628  842.939513994653 85.8201482876527  L 843.400819612248 87.7662205183715  Z M 835.645084317363 89.6659102471992  C 837.580443269795 89.1765267724143  839.518525957509 88.6979785861905  841.459241324714 88.2302881718735  L 840.990678010806 86.2859506443697  C 839.042708172922 86.7553893039238  837.097380855577 87.2357263221678  835.154787454957 87.7269391317065  L 835.645084317363 89.6659102471992  Z M 827.918563157095 91.6811327634684  C 829.846403161604 91.1629210526101  831.777128300697 90.6555027754275  833.710647864412 90.158901771613  L 833.213120002152 88.2217734779072  C 831.272372865982 88.7202307958775  829.334430600015 89.2295458226338  827.399384253467 89.7496946293241  L 827.918563157095 91.6811327634684  Z M 820.225369929589 93.8132557184997  C 821.119298861027 93.5568533515708  822.014136627688 93.3036302356953  822.909866260586 93.053591172794  C 823.936294512346 92.7669716611614  824.963576808651 92.483419456377  825.991699394845 92.2029383550243  L 825.465317798381 90.2734507507876  C 824.433380085211 90.5549726531402  823.402285757121 90.8395769713461  822.372048618971 91.1272598949656  C 821.471780838494 91.3785659768791  820.572409415602 91.6330721439996  819.673951404219 91.8907735703697  L 820.225369929589 93.8132557184997  Z M 812.577894050703 96.091172371748  C 814.483914979194 95.502267054124  816.394399904571 94.9279079664066  818.309182118922 94.3681452268688  L 817.747995332564 92.4484917709511  C 815.823452022606 93.0111080452548  813.903227908184 93.5883950763757  811.987490546998 94.1803024905649  L 812.577894050703 96.091172371748  Z M 804.978327712491 98.5241506019033  C 806.871977380419 97.896602844256  808.770385960037 97.2835075200446  810.673387797208 96.6849181276458  L 810.073275582262 94.7770750184064  C 808.160572702991 95.3787158744362  806.252486496611 95.9949366099951  804.349183461676 96.6256834540003  L 804.978327712491 98.5241506019033  Z M 797.429814614792 101.111183962949  C 799.31030967928 100.445253361905  801.195856601652 99.793675419312  803.086290850071 99.1565069915206  L 802.447501453948 97.261263443213  C 800.547430229951 97.9016800012068  798.652271246429 98.5565795302072  796.762189873914 99.2259048840413  L 797.429814614792 101.111183962949  Z M 789.935477338337 103.851202281141  C 791.802039898152 103.147164311093  793.673945172249 102.457373287271  795.551029819157 101.78188940048  L 794.873827488794 99.9000294153189  C 792.987173919341 100.578956755235  791.105726125909 101.272264166489  789.229648282599 101.979891151458  L 789.935477338337 103.851202281141  Z M 782.498416053036 106.743072097705  C 784.350273970379 106.001217996857  786.207763248292 105.273499236501  788.070721803236 104.559979316995  L 787.355386675783 102.692281360838  C 785.482931209699 103.40943863194  783.615972901681 104.140867126145  781.754674661557 104.886503019377  L 782.498416053036 106.743072097705  Z M 775.121707235534 109.785597137713  C 776.958094455452 109.006233787605  778.800399352713 108.240888324912  780.648461168757 107.489627533276  L 779.895289155695 105.636864213599  C 778.037806368474 106.391954750648  776.186109847401 107.161201759  774.340361170567 107.944538114553  L 775.121707235534 109.785597137713  Z M 767.808402396574 112.977518804944  C 769.628559263851 112.160968603504  771.454917677288 111.358313037644  773.287318269807 110.569622146669  L 772.496620934537 108.732559892962  C 770.654879207951 109.525271338929  768.819210462034 110.332018648298  766.989774876233 111.152731424743  L 767.808402396574 112.977518804944  Z M 760.561526818682 116.317516702525  C 762.364700392085 115.464117430701  764.174356815082 114.624483794855  765.990338178001 113.798689060976  L 765.16244260696 111.978087807694  C 763.337203811239 112.808092242957  761.518322198438 113.652006127562  759.705956483238 114.509755822013  L 760.561526818682 116.317516702525  Z M 753.384078304702 119.804209179136  C 755.169522668449 118.914313861173  756.961728503473 118.038049485175  758.760539422833 117.175492513513  L 757.895788090192 115.372105385718  C 756.087807268777 116.239059463747  754.28646520284 117.119790823126  752.491919076498 118.01422261172  L 753.384078304702 119.804209179136  Z M 746.279025937702 123.43615390056  C 748.046002510022 122.510130657957  749.820016378298 121.59759802462  751.600912743007 120.698635627668  L 750.699663368997 118.913208629484  C 748.909688426301 119.816753718831  747.126631065326 120.733938222345  745.350646874747 121.664682106974  L 746.279025937702 123.43615390056  Z M 739.257810673801 127.219866900925  C 740.611845622333 126.468364069856  741.971242868399 125.726563746168  743.335897922538 124.994522948012  C 743.728382113682 124.784567241443  744.121223324804 124.575279619283  744.514419849263 124.366660990749  L 743.577045252198 122.599932696762  C 743.181503797579 122.809795476968  742.78632008349 123.020331820253  742.391495829761 123.231540810368  C 741.018087352436 123.968270932655  739.649971678076 124.714825610766  738.287254018289 125.47114743273  L 739.257810673801 127.219866900925  Z M 732.332684441854 131.175468202345  C 734.051738445199 130.165334832643  735.780066132978 129.171067086241  737.517447284144 128.192791651317  L 736.536164033235 126.450068729713  C 734.788074667472 127.434373689756  733.049094565405 128.434769528661  731.319445305424 129.451128777404  L 732.332684441854 131.175468202345  Z M 725.506860533921 135.300063086949  C 727.200570837112 134.247988232272  728.903941929114 133.211546303913  730.616756768782 132.190869363842  L 729.592941644607 130.472788285571  C 727.869570002902 131.499756089168  726.155700314674 132.54258604734  724.451550958781 133.601145284164  L 725.506860533921 135.300063086949  Z M 718.784462055977 139.591160113111  C 720.451805581489 138.497779274193  722.129191164619 137.419789221625  723.81640507526 136.357327311381  L 722.750676508401 134.664925875024  C 721.053063585067 135.733936187235  719.3653395654 136.818570348264  717.68771949678 137.918690155579  L 718.784462055977 139.591160113111  Z M 712.169549640364 144.046167264391  C 713.80951923739 142.912140892648  715.459906094986 141.793253870558  717.120499923184 140.689648765128  L 716.013501661837 139.023949257601  C 714.342672891774 140.134356347902  712.682114002191 141.260139543775  711.032036579157 142.401155399515  L 712.169549640364 144.046167264391  Z M 705.666118992986 148.662393515232  C 707.27772404581 147.488406613818  708.90011526966 146.329298480508  710.53308594173 145.185216807228  L 709.38548666285 143.547225386276  C 707.742451302104 144.698358518628  706.110060595195 145.864610725434  704.488522539042 147.045833404485  L 705.666118992986 148.662393515232  Z M 699.278098479726 153.437050456454  C 700.860365506096 152.223812166488  702.453781098614 151.025183075631  704.058142226508 149.841315911511  L 702.870635131897 148.232021997942  C 701.256385648046 149.423185835935  699.653149161535 150.629202584661  698.061129954496 151.849918575166  L 699.278098479726 153.437050456454  Z M 693.009346753529 158.367253979586  C 694.561319992695 157.115497151797  696.124797458875 155.878071129514  697.699579936005 154.655133583794  L 696.47288233359 153.075509263827  C 694.888393806239 154.305984290697  693.315279967386 155.551037092747  691.753741260975 156.810509027107  L 693.009346753529 158.367253979586  Z M 686.863650423609 163.450026018996  C 688.384392413618 162.160506771058  689.916987342467 160.885031278548  691.46123992907 159.623762060756  L 690.196092799616 158.074761498835  C 688.642322331409 159.343804452082  687.100281372032 160.627141239323  685.570166406167 161.924608339597  L 686.863650423609 163.450026018996  Z M 680.84472176816 168.682296350774  C 682.333313912165 167.355793610555  683.834100547096 166.043039092647  685.346890444865 164.744200066356  L 684.044057994386 163.22675892879  C 682.521944132872 164.533603249146  681.011907515367 165.854448828189  679.514140548604 167.18912736564  L 680.84472176816 168.682296350774  Z M 674.963058958304 174.065133233242  C 675.869430242332 173.212911278262  676.78076184087 172.365980241126  677.697007300182 171.524383292848  C 678.249667511053 171.018788959772  678.804076676552 170.515109717827  679.360224826671 170.01335462474  L 678.020494024818 168.528389514522  C 677.460421824302 169.033684873402  676.902102432916 169.540919674651  676.345545908784 170.05008478043  C 675.423078566845 170.897386113638  674.505561037851 171.75006062121  673.593040140825 172.608064792931  L 674.963058958304 174.065133233242  Z M 669.221581052343 179.599946860664  C 670.639650815021 178.198425468939  672.070783032472 176.810182654869  673.514790353142 175.435400155295  L 672.135723343014 173.986892584871  C 670.682694452465 175.370264165822  669.242621103542 176.767180155832  667.815691818289 178.177457682648  L 669.221581052343 179.599946860664  Z M 663.619756793686 185.276063086576  C 665.002474667148 183.839652509575  666.39858171108 182.416191004485  667.807895159152 181.005864918648  L 666.393173791156 179.592159344303  C 664.975055526402 181.011296573371  663.570226174013 182.443651286454  662.178869642193 183.889035971967  L 663.619756793686 185.276063086576  Z M 658.161062691508 191.089959295984  C 659.507570556831 189.619550974485  660.867785998976 188.161754182906  662.241530950233 186.716759763468  L 660.792033204751 185.338733535182  C 659.409705654301 186.792755691485  658.040992139816 188.25966020395  656.686071841523 189.739255038028  L 658.161062691508 191.089959295984  Z M 652.848886427969 197.038027367219  C 654.158348638273 195.534533841103  655.481828324799 194.043306476147  656.819152228941 192.564540491045  L 655.335777668685 191.223048816086  C 653.99009870922 192.711053529052  652.658350460408 194.211597475497  651.340707263302 195.724484217085  L 652.848886427969 197.038027367219  Z M 647.686524755818 203.116575911142  C 648.958128654876 201.580930253061  650.244051230256 200.057197774976  651.544124140005 198.545577950873  L 650.027793351737 197.241453363055  C 648.719598115713 198.762517172433  647.425641619589 200.29576931072  646.146093257044 201.841009057706  L 647.686524755818 203.116575911142  Z M 642.677181452409 209.321832562041  C 643.910137878978 207.754987798355  645.157705295742 206.199695840162  646.4197203819 204.656160292914  L 644.87137440512 203.390212135923  C 643.601474762483 204.94339106488  642.346113052375 206.50839985408  641.105453616002 208.085033625971  L 642.677181452409 209.321832562041  Z M 637.823965331432 215.649946318764  C 639.017509108996 214.052874838109  640.225947123026 212.466988618707  641.449121175184 210.892495271179  L 639.869720918115 209.665509196291  C 638.638904972437 211.249839337272  637.422917129658 212.845633528149  636.221916576468 214.452682861242  L 637.823965331432 215.649946318764  Z M 633.129888313573 222.096989934667  C 634.283278725237 220.470682884455  635.451837376219 218.855186609666  636.635411288845 217.250712597214  L 635.025936932089 216.06345007572  C 633.834968531494 217.677948188614  632.659109201788 219.30353742645  631.498512876382 220.940004981035  L 633.129888313573 222.096989934667  Z M 628.597863557307 228.658962354871  C 629.710384805473 227.004429026207  630.838338882354 225.360325277932  631.981578125877 223.726866342007  L 630.343028514116 222.580064192638  C 629.192646777216 224.223728315007  628.05764570246 225.878103754176  626.938173874447 227.542973933512  L 628.597863557307 228.658962354871  Z M 624.232141225575 235.332944636699  C 624.801735474897 234.438881740181  625.375084168204 233.54721629318  625.95217211955 232.657971912707  C 626.461534698247 231.875387258397  626.974318856231 231.095034946704  627.490509869297 230.316937384847  L 625.823901891403 229.211307316505  C 625.304238714034 229.994638759833  624.788006941578 230.780241198133  624.275221411307 231.568092052016  C 623.694836932293 232.462409203182  623.118214620581 233.35916227052  622.545369761691 234.258327482254  L 624.232141225575 235.332944636699  Z M 620.016261501662 242.106944923188  C 621.052343832908 240.40238709614  622.101887934982 238.706048231238  623.164795383292 237.018087408469  L 621.472382733689 235.952376648711  C 620.403857557663 237.649258760265  619.348766356462 239.354563193949  618.307208074851 241.06813002904  L 620.016261501662 242.106944923188  Z M 615.944139916443 248.968325799007  C 616.944053550757 247.242302419432  617.957599249671 245.524212351105  618.984681964505 243.814216713738  L 617.270176385709 242.784425171592  C 616.237665285713 244.503458557146  615.218762748074 246.230629154768  614.213564323882 247.965774993096  L 615.944139916443 248.968325799007  Z M 612.017586820863 255.914036886825  C 612.980887224699 254.167315296291  613.957983926513 252.428237839108  614.948785295715 250.696967603224  L 613.212949008777 249.703553095101  C 612.216911010256 251.443973520679  611.23465011166 253.192242430654  610.266258427881 254.948195875097  L 612.017586820863 255.914036886825  Z M 608.238347850205 262.940990318471  C 609.164606767252 261.17434706035  610.104820082187 259.415055359355  611.058899623288 257.663280199089  L 609.302504332294 256.706684369194  C 608.343382245776 258.467718092741  607.398199671856 260.236308083765  606.467045248243 262.012288486727  L 608.238347850205 262.940990318471  Z M 604.608103148026 270.046062107704  C 605.49690878957 268.260282581998  606.399820725181 266.481558768894  607.3167542812 264.710057474308  L 605.54058083019 263.790705598293  C 604.618801054437 265.57156971364  603.711117006821 267.359694520273  602.817613808499 269.154912330708  L 604.608103148026 270.046062107704  Z M 601.128466619214 277.226093539058  C 601.979423847224 275.421971653202  602.844632994198 273.624606498688  603.72401292222 271.834166629517  L 601.928850948053 270.95246742542  C 601.044823280478 272.752370210372  600.175041290012 274.55923488252  599.319586543421 276.372891996985  L 601.128466619214 277.226093539058  Z M 597.800985212494 284.47789257211  C 598.613715715261 282.656230388075  599.440837425922 280.841022950197  600.282272778306 279.032440485771  L 598.468920359602 278.188785932307  C 597.623037814089 280.006927200612  596.791544561431 281.831728456962  595.974518577736 283.663018574416  L 597.800985212494 284.47789257211  Z M 594.627138232689 291.798235260581  C 595.401280693057 289.959842638213  596.18994725229 288.12759990729  596.993063950509 286.301678892578  L 595.16232725285 285.496444054879  C 594.354965885039 287.332015511955  593.562131028738 289.173942097118  592.783897034763 291.022051077369  L 594.627138232689 291.798235260581  Z M 591.608336683073 299.183867185602  C 592.343546939031 297.329561422666  593.093407727832 295.481097962359  593.857848728742 293.638650150601  L 592.010541646272 292.872193013471  C 591.242060386354 294.724378615799  590.488236398551 296.582611660874  589.749140375272 298.446717886573  L 591.608336683073 299.183867185602  Z M 588.745922638073 306.631504902546  C 589.441873835775 304.762110371344  590.152595487097 302.898247956594  590.878020941683 301.040092448378  L 589.014964735274 300.312753757146  C 588.285705228449 302.180730074989  587.571227238118 304.054443461749  586.871597766886 305.933718203584  L 588.745922638073 306.631504902546  Z M 586.028424953452 314.137597611565  C 586.692873996793 312.255346006263  587.368381204886 310.377016301348  588.054911569099 308.502705842573  L 586.176926909849 307.814829676667  C 585.487700981115 309.696499350761  584.809541489363 311.58220405201  584.142483580689 313.471846052422  L 586.028424953452 314.137597611565  Z M 583.429751206367 321.687103596142  C 584.064616174111 319.794668627751  584.710599420117 317.905981752054  585.367667465852 316.021140851571  L 583.479131722127 315.362784758964  C 582.819483791504 317.255026221059  582.170964183507 319.151128759058  581.533606508124 321.050994106096  L 583.429751206367 321.687103596142  Z M 580.949727809359 329.27641382865  C 581.554852721516 327.37426044957  582.171153293793 325.475680434622  582.798597585983 323.580772179045  L 580.899974752182 322.952097911263  C 580.270066888589 324.854446256501  579.651346499147 326.760480777765  579.043845649481 328.670102693459  L 580.949727809359 329.27641382865  Z M 578.588964079446 336.903663691248  C 579.164200262859 334.992259241595  579.750666742503 333.084252549573  580.348333124342 331.179742498962  L 578.440089673163 330.580904515004  C 577.84007663868 332.492892355367  577.251307481223 334.408390566222  576.673812714173 336.327299875511  L 578.588964079446 336.903663691248  Z M 576.348040032735 344.566979244703  C 576.893246157609 342.646793337491  577.449734455654 340.72982874661  578.017476086473 338.816184820094  L 576.100080854302 338.247330248481  C 575.530110066147 340.168487827624  574.971436795386 342.092979109261  574.424089995658 344.020704355263  L 576.348040032735 344.566979244703  Z M 574.227506241916 352.264477688806  C 574.742548356545 350.335982094562  575.268921749365 348.410530583908  575.806599140707 346.488222944715  L 573.880523212431 345.949491547343  C 573.340734706744 347.879346856006  572.81229458313 349.812358380109  572.295230228375 351.748425939955  L 574.227506241916 352.264477688806  Z M 572.227883700996 359.994267824948  C 572.712635264664 358.057936355822  573.208764427573 356.124470989604  573.716245477461 354.193971929565  L 571.781962070729 353.685496067365  C 571.272488468163 355.623574959344  570.774411324165 357.564631804259  570.287756451937 359.508566005456  L 572.227883700996 359.994267824948  Z M 570.349663697293 367.754450520778  C 570.804005611381 365.810758914077  571.269768650377 363.869754725504  571.746928675785 361.931538548962  L 569.804913024741 361.453443149383  C 569.325879497876 363.399269458033  568.858287706087 365.347894725424  568.402161882634 367.299217962736  L 570.349663697293 367.754450520778  Z M 568.593307690731 375.543119176792  C 569.017128327956 373.592544978186  569.452410809718 371.644478852582  569.899132577179 369.699021759947  L 567.949861815702 369.251424286261  C 567.501386058302 371.204519941451  567.064394501357 373.160234873546  566.638909792247 375.118467726301  L 568.593307690731 375.543119176792  Z M 566.959247200466 383.358360194772  C 567.352442432327 381.401382640877  567.757137412283 379.446733198688  568.173311166718 377.494513169355  L 566.217264211195 377.077523591798  C 565.799456409285 379.037408737389  565.393172451645 380.999732834557  564.998433394232 382.964394184459  L 566.959247200466 383.358360194772  Z M 565.447883698866 391.198253447935  C 565.810356921216 389.235353348621  566.184364969845 387.274600827722  566.569888461512 385.316097502685  L 564.607545893175 384.929818271438  C 564.220508697961 386.896011383207  563.845032159549 388.864462521961  563.481135737279 390.83506967132  L 565.447883698866 391.198253447935  Z M 564.059340653429 399.061593731822  C 564.069235398919 399.003139035156  564.079137250915 398.944685539736  564.089046208569 398.88623325057  C 564.411563286816 396.976220253858  564.744972776879 395.068062485665  565.089258406529 393.161853074665  L 563.121102353378 392.806379094682  C 562.775503316965 394.719860456984  562.440820698577 396.635297393711  562.117070828936 398.552596441787  C 562.107170902718 398.610995767918  562.09727805032 398.669396292623  562.087392271839 398.727798015333  L 564.059340653429 399.061593731822  Z M 562.769019974383 406.945743517849  C 563.08083430294 404.972961419781  563.400726783504 403.001464618654  563.728689367898 401.03130271536  L 561.755836973 400.702892258851  C 561.42697772631 402.678440660416  561.106210647422 404.655327609497  560.793543806521 406.63350336955  L 562.769019974383 406.945743517849  Z M 561.564879099381 414.843514726009  C 561.855130065607 412.867444950278  562.153472738827 410.892572173285  562.459899613038 408.918946080857  L 560.483578298242 408.612100744117  C 560.176313641194 410.591122806043  559.877155287649 412.571394961038  559.58611076414 414.55286738739  L 561.564879099381 414.843514726009  Z M 560.447061648652 422.753965373737  C 560.715714633748 420.774843610037  560.992471915713 418.796830404101  561.277326531611 416.81997552077  L 559.29777201661 416.534731901841  C 559.012138597258 418.516991582309  558.734624650257 420.500412752299  558.465237157587 422.484945510873  L 560.447061648652 422.753965373737  Z M 559.415700946461 430.676151966166  C 559.662723907663 428.694214268207  559.917862788992 426.713296554821  560.181111171411 424.733448663919  L 558.198559561532 424.469840784364  C 557.93459144793 426.455101655399  557.678755007102 428.441435273875  557.431056675642 430.428791665581  L 559.415700946461 430.676151966166  Z M 558.470920005211 438.609129608662  C 558.696283479607 436.624612366016  558.92977352939 434.641026413094  559.171384280182 432.658421654941  L 557.186072038218 432.416480955784  C 556.943800714358 434.404506231453  556.709672293814 436.393515384533  556.483692667028 438.3834583735  L 558.470920005211 438.609129608662  Z M 557.612831510764 446.55195211952  C 557.816508618815 444.565092029426  558.028321988237 442.579074423132  558.248266290018 440.59394926686  L 556.26043020803 440.373704604841  C 556.039884570085 442.364257169493  555.827492094778 444.35570462418  555.623258125695 446.347996866029  L 557.612831510764 446.55195211952  Z M 556.841537809009 454.503672142818  C 557.023504257748 452.514706181952  557.213615683416 450.526493798476  557.411867303 448.539085013831  L 555.421744474073 448.34056265796  C 555.22295082695 450.333405094513  555.032319629344 452.327053326986  554.849855677349 454.32145719714  L 556.841537809009 454.503672142818  Z M 556.157130893647 462.463341261412  C 556.317364979582 460.472506657619  556.485751786537 458.482336634929  556.662287078067 456.49288126403  L 554.670114868027 456.316104892455  C 554.493096922233 458.310999510707  554.324249739283 460.306610734656  554.163577567207 462.302888356677  L 556.157130893647 462.463341261412  Z M 555.559692395227 470.430010110052  C 555.698175006926 468.437544314058  555.844817111343 466.445654023608  555.999615019111 464.454389352676  L 554.005631038223 464.299380049859  C 553.850409907033 466.29608891484  553.703366877471 468.293425109827  553.564505648996 470.291338383792  L 555.559692395227 470.430010110052  Z M 555.049293571402 478.402728488618  C 555.166008191774 476.4088691457  555.290888103365 474.415496164129  555.423930164322 472.422659695181  L 553.42837223894 472.289435949385  C 553.294966435877 474.28772090979  553.169745097819 476.286543849528  553.052711375192 478.28585448048  L 555.049293571402 478.402728488618  Z M 554.625995298434 486.380545475451  C 554.720928006699 484.385530397099  554.824030830793 482.390912477887  554.935301176754 480.396741900413  L 552.938407320961 480.285319601493  C 552.826832757603 482.284942317876  552.723448046429 484.285013599066  552.628255788496 486.285483125225  L 554.625995298434 486.380545475451  Z M 554.289848063934 494.362509540769  C 554.362987537282 492.366576676319  554.444300976605 490.370951721434  554.533786336138 488.375684884046  L 552.535794723357 488.286077321557  C 552.446064707413 490.286799295122  552.364528954029 492.287880365156  552.291189514552 494.289270186727  L 554.289848063934 494.362509540769  Z M 554.164801983635 498.025701134826  C 554.182378896567 497.469959168763  554.200589424506 496.914237423177  554.219433531933 496.358536981998  L 552.220582466517 496.290754843608  C 552.152707700266 498.292337444244  552.093030629592 500.29418963049  552.041552755912 502.296261037704  L 554.164801983635 498.025701134826  Z M 1017.96827593333 72.7560139960101  C 1019.96434763508 72.8292684351015  1021.96012755085 72.9102685551917  1023.95557059912 72.9990125266171  L 1024.04442940088 71.0009874733829  C 1022.04381732793 70.9120136182843  1020.04286751495 70.8308036743094  1018.04162516005 70.7573594758544  L 1017.96827593333 72.7560139960101  Z M 545.597791340415 496.79116465995  L 553 504  L 560.79190172386 497.214259986877  L 545.597791340415 496.79116465995  Z " fill-rule="nonzero" fill="#aaaaaa" stroke="none" />
  </g>
</svg>