<?xml version="1.0" encoding="utf-8"?>
<svg version="1.1" xmlns:xlink="http://www.w3.org/1999/xlink" width="218px" height="36px" viewBox="564 400  218 36" xmlns="http://www.w3.org/2000/svg">
  <g transform="matrix(0.5 -0.866025403784438 0.866025403784438 0.5 -25.4986187818952 791.835096746927 )">
    <path d="M 808.198314280768 184.729237655543  C 810.067621624036 184.026355874516  811.939995614095 183.331656972534  813.815382477015 182.645160901108  L 813.127884742932 180.76703767149  C 811.247019153292 181.45553926212  809.369175238156 182.152267646975  807.494406928785 182.85720281617  L 808.198314280768 184.729237655543  Z M 800.737669445451 187.58431993751  C 802.598648146837 186.859674496984  804.462788766113 186.143175596046  806.330037765517 185.434843812409  L 805.620672458836 183.56487032017  C 803.747968506494 184.275271413548  801.878382015083 184.993863483509  800.011966678713 185.720625892247  L 800.737669445451 187.58431993751  Z M 793.310846260079 190.526260380273  C 795.163242943241 189.779949942318  797.018896384671 189.041748595409  798.877753290504 188.31167754049  L 798.146616992898 186.450108386705  C 796.282329650687 187.182312260134  794.421255131386 187.922670177282  792.563446884642 188.671160875234  L 793.310846260079 190.526260380273  Z M 785.918855903246 193.554658432058  C 787.762418360183 192.78678460853  789.609331972497 192.026981323376  791.459543697182 191.275270398002  L 790.706735954495 189.422359039477  C 788.851119049308 190.17626600176  786.998809891577 190.938288964708  785.149861679209 191.708406043191  L 785.918855903246 193.554658432058  Z M 778.562704810983 196.669101769694  C 780.397182036565 195.879769108322  782.235104358292 195.09846733386  784.076418991387 194.325218885146  L 783.302042300077 192.481217599909  C 781.455348478309 193.256725004926  779.612056878184 194.040309262543  777.772220438628 194.831947868393  L 778.562704810983 196.669101769694  Z M 771.24339453972 199.86916635475  C 773.068536765791 199.058482324932  774.897217559647 198.255788437168  776.729384402068 197.461107744611  L 775.933544195255 195.626267597562  C 774.096024888402 196.423269858245  772.26200181416 197.228308723781  770.431527645264 198.041361073631  L 771.24339453972 199.86916635475  Z M 763.961921629928 203.154416491273  C 765.777480359267 202.322491469464  767.596670646318 201.498514756947  769.419440244426 200.68251001811  L 768.602244877535 198.857080826843  C 766.774150267962 199.67546942955  764.949645425947 200.501853295161  763.128782750866 201.336208690115  L 763.961921629928 203.154416491273  Z M 756.719277470439 206.524404885106  C 758.525005510662 205.671352139759  760.334457604079 204.826204788761  762.147581783715 203.988987104517  L 761.309142519723 202.1732174053  C 759.490721506602 203.012880924592  757.675983307232 203.860497276266  755.864980040493 204.716042116968  L 756.719277470439 206.524404885106  Z M 749.516448163461 209.978672704788  C 751.312099660654 209.104608380943  753.111567199487 208.238405460168  754.914799099736 207.380088819577  L 754.055230094025 205.574225833517  C 752.246730259422 206.435049947338  750.442005783411 207.30378338019  748.641108497138 208.180401182308  L 749.516448163461 209.978672704788  Z M 742.359126368565 213.517483071188  C 743.918608306959 212.728190581674  745.483728643091 211.950088154334  747.054366722129 211.183235772937  C 747.276877404603 211.0738207572  747.499447514246 210.964526635747  747.722076952035 210.855353457203  L 746.84149523685 209.059643056587  C 746.619056366063 209.168722784752  746.396676549538 209.277922897097  746.174355885029 209.38724334562  C 744.595976902921 210.157890120942  743.023139995316 210.939836360143  741.455966282495 211.733021847476  L 742.359126368565 213.517483071188  Z M 735.280607687561 217.1976290712  C 737.040141394287 216.258321019855  738.807330055476 215.333423272953  740.581996267277 214.42302867877  L 739.669117370913 212.643519723868  C 737.884745823387 213.558893105116  736.107892719897 214.488848954249  734.338736434441 215.433293915243  L 735.280607687561 217.1976290712  Z M 728.284051723064 221.031309539677  C 730.02267676515 220.05384268934  731.769269285233 219.090615730026  733.523653947125 218.141725357752  L 732.572174224661 216.382553297452  C 730.808195143265 217.336632983388  729.052050817514 218.30512766063  727.303917542498 219.287940104334  L 728.284051723064 221.031309539677  Z M 721.372788158896 225.016700015569  C 723.089677118999 224.001539545912  724.814842288916 223.000441777028  726.5481104835 222.013507206696  L 725.558482747242 220.275509236723  C 723.81573561538 221.26784117771  722.081135822183 222.274413773283  720.35485749994 223.295125976047  L 721.372788158896 225.016700015569  Z M 714.55010608795 229.15190383854  C 716.244441893008 228.099532867743  717.947358701023 227.061040714987  719.658685560308 226.036531631978  L 718.631380777326 224.32053487124  C 716.910694974047 225.350646813269  715.198465215109 226.394818295988  713.494863387127 227.452944497543  L 714.55010608795 229.15190383854  Z M 707.819252446894 233.43495305159  C 709.490228756956 232.345872406441  711.170086779423 231.270480091603  712.858657877359 230.208884063144  L 711.794164945353 228.515705160101  C 710.096359350647 229.583106869534  708.4073144817 230.664380314783  706.727199897652 231.759416949415  L 707.819252446894 233.43495305159  Z M 701.183430470949 237.863809337618  C 702.830252062945 236.738537315145  704.486251849926 235.626756620952  706.151263590026 234.528578864049  L 705.050089104657 232.859023608069  C 703.375971709749 233.96320710495  701.71091555276 235.081067931166  700.055087784659 236.212493867365  L 701.183430470949 237.863809337618  Z M 694.645798169455 242.436364989459  C 696.267681315624 241.275437110283  697.899034771393 240.127797136812  699.539694769145 238.993560277839  L 698.402362782946 237.348423215717  C 696.752730305769 238.488863015514  695.112455266398 239.642779229081  693.481702328086 240.810056017552  L 694.645798169455 242.436364989459  Z M 688.214874027828 247.148841887447  C 689.183893688776 246.414761398373  690.160024273363 245.690115185555  691.143127509823 244.975005897259  C 691.769656915863 244.515237859242  692.39765023008 244.057468036457  693.027097881902 243.601703405281  L 691.854149654877 241.981767463116  C 691.222390615484 242.439205702416  690.592088642939 242.898652902252  689.963253308622 243.360102085742  C 688.970819714079 244.082031883029  687.985417226338 244.813578166143  687.007185112672 245.554637545397  L 688.214874027828 247.148841887447  Z M 681.975634791933 252.087027003274  C 683.509065736791 250.819564724056  685.062556661046 249.576569337005  686.635518281114 248.358512345858  L 685.410995746091 246.777201319773  C 683.82126865818 248.008241015046  682.2512197952 249.264484913004  680.701444721619 250.545456484383  L 681.975634791933 252.087027003274  Z M 675.951361671314 257.285287467034  C 677.429679316393 255.953954288544  678.929076189513 254.646215552853  680.448983526525 253.36256732269  L 679.158521588947 251.834592196039  C 677.622414265077 253.131922236897  676.107036016607 254.453599552807  674.612961669892 255.799122793725  L 675.951361671314 257.285287467034  Z M 670.152887397895 262.734275866857  C 671.57343346087 261.341465766783  673.016040096273 259.971335233061  674.48016008212 258.624403995415  L 673.126079225796 257.152512343648  C 671.646353864572 258.513799896197  670.188371154609 259.898534015351  668.752684150475 261.306189431827  L 670.152887397895 262.734275866857  Z M 664.590638676461 268.424193936725  C 665.950858758755 266.97241143937  667.334081088969 265.54235284996  668.739780971283 264.134560630646  L 667.324516078337 262.72139918099  C 665.903833493415 264.144196404161  664.505868038383 265.589497324338  663.131150001562 267.056753697505  L 664.590638676461 268.424193936725  Z M 659.27461743556 274.344810175529  C 660.57206561561 272.836665848227  661.893416356878 271.349250706943  663.238168433199 269.883128970824  L 661.764264405707 268.531238842987  C 660.405179241151 270.012987290214  659.069744835623 271.51625609912  657.758467757612 273.040475036825  L 659.27461743556 274.344810175529  Z M 654.214382842222 280.485478245153  C 655.446726073697 278.923684003991  656.703829198557 277.381586952103  657.985215361595 275.859772051051  L 656.455322545399 274.571584187829  C 655.160278681985 276.109619407584  653.889776678389 277.668152956199  652.644298472383 279.246593637295  L 654.214382842222 280.485478245153  Z M 649.506687083707 286.866089658295  C 650.624138876636 285.229530057147  651.786681170238 283.6242183031  652.992978122268 282.051999011412  L 651.406218146921 280.834545611632  C 650.177452810115 282.436048926576  648.993257102295 284.071261081281  647.854991746992 285.738303102835  L 649.506687083707 286.866089658295  Z M 645.28270732757 293.570853858417  C 646.276421142595 291.856339731482  647.317407172368 290.169662969943  648.404469251275 288.512761683133  L 646.732244098645 287.415645901226  C 645.624934493601 289.103408490956  644.564559146277 290.821501150883  643.552336501966 292.567949672615  L 645.28270732757 293.570853858417  Z M 641.564701200839 300.568874893043  C 642.429264915084 298.785744100969  643.343025096665 297.026888580281  644.304931771351 295.294329378746  L 642.556348981119 294.323526501894  C 641.576525914246 296.088356204257  640.645746112979 297.879972018781  639.765079108277 299.696315253841  L 641.564701200839 300.568874893043  Z M 638.372918302249 307.822039022425  C 639.103623190741 305.9800031369  639.885180857503 304.158548216889  640.716693238218 302.359767241244  L 638.901276221227 301.520564611113  C 638.054276161391 303.352849528738  637.258161267778 305.20823071369  636.513846331972 307.084576203478  L 638.372918302249 307.822039022425  Z M 635.724742229554 315.290842905744  C 636.317608610635 313.399934316782  636.962707118396 311.525800296123  637.65929648962 309.670594354583  L 635.786932659951 308.96756257056  C 635.077368674146 310.857323420709  634.420254616261 312.766364902775  633.816345556221 314.692493394831  L 635.724742229554 315.290842905744  Z M 633.673617240106 322.929547250304  C 633.890509985358 321.940686110004  634.123445074878 320.955411951839  634.372330398463 319.974114385632  C 634.618821918688 319.041626212734  634.877866366793 318.112501529119  635.149393207999 317.186993324595  L 633.23028013256 316.623961350655  C 632.952754728542 317.569915854606  632.68803093316 318.519579163763  632.436181318944 319.472690933306  C 632.181044737401 320.478192157482  631.942304776769 321.487782865477  631.720056454874 322.50106124306  L 633.673617240106 322.929547250304  Z M 632.306823509161 330.723612514545  C 632.5658813352 328.761634629262  632.8871501362 326.808373954866  633.270144626188 324.866780949056  L 631.307955370353 324.479723686773  C 630.916770345038 326.462838663581  630.588631044506 328.457870828104  630.324033132822 330.46180662558  L 632.306823509161 330.723612514545  Z M 631.603801841406 338.605321655389  C 631.696074482282 336.628467098442  631.851072327632 334.655039478141  632.068561248654 332.688019714944  L 630.080675510598 332.468223690332  C 629.858535476473 334.47730918889  629.700222922005 336.49293957989  629.605976982963 338.51207019435  L 631.603801841406 338.605321655389  Z M 631.569585279833 346.5182482741  C 631.494412141157 344.540669659026  631.482029376839 342.561203172375  631.532455691409 340.582838856488  L 629.533105058634 340.531877623951  C 629.481600351236 342.552550284325  629.494247927376 344.574348685962  629.571028682517 346.594218842904  L 631.569585279833 346.5182482741  Z M 632.204418786202 354.405742481095  C 631.962338044328 352.441597605077  631.782663320505 350.470263564828  631.665666018685 348.494718118389  L 629.669164157681 348.612956517428  C 629.788663507334 350.630750025374  629.972180668089 352.64424206403  630.219438431879 354.65039119446  L 632.204418786202 354.405742481095  Z M 633.50626346422 362.209966067015  C 633.435213284414 361.873499353387  633.365412931872 361.536769931214  633.296863850675 361.199784767005  C 632.978130767944 359.596389427267  632.701493941682 357.984912450916  632.467238556741 356.367015109257  L 630.487878739193 356.653606652526  C 630.727356863387 358.307575122102  631.010199871529 359.954973985573  631.336115661449 361.594101914747  C 631.405936311285 361.937393511173  631.477037061858 362.280423510039  631.549416429667 362.623184754108  L 633.50626346422 362.209966067015  Z M 635.36857731826 369.93025676  C 634.847919101731 368.01394897469  634.368417160647 366.086695712132  633.930402213819 364.149826224316  L 631.979662549013 364.590977853752  C 632.423984675361 366.555737219882  632.910391186357 368.510741892281  633.438546601015 370.454643478453  L 635.36857731826 369.93025676  Z M 637.669099781579 377.531486770393  C 637.039766182148 375.648069735558  636.450895992488 373.751372830601  635.902895364131 371.84270423239  L 633.980558539208 372.394629165277  C 634.53645008171 374.330781564167  635.133799685205 376.25478988386  635.772195349796 378.16532711045  L 637.669099781579 377.531486770393  Z M 640.400309614564 384.988804929312  C 639.664358151283 383.144436216128  638.968044942583 381.284496656644  638.311850244865 379.410269075702  L 636.424201073862 380.071162869902  C 637.089844622101 381.972378319409  637.796184366291 383.859100007635  638.542733134595 385.730026637756  L 640.400309614564 384.988804929312  Z M 643.55327750489 392.277830567743  C 642.713114269153 390.478540084305  641.911634541022 388.661438685115  641.149391111635 386.82777964897  L 639.302601002111 387.595481603747  C 640.075820326686 389.455544343242  640.888840931591 391.298811024719  641.741102065796 393.124010322845  L 643.55327750489 392.277830567743  Z M 647.117695260671 399.374733225763  C 646.176067049828 397.626403503136  645.272041129247 395.858081025628  644.406241017526 394.070985428571  L 642.606347793998 394.942985648695  C 643.484614961404 396.755814460638  644.401658368746 398.549599830211  645.356845519095 400.323104559994  L 647.117695260671 399.374733225763  Z M 651.079498176484 406.267344336674  C 650.855717375719 405.896575391333  650.632846925231 405.525257758008  650.410888838888 405.153394791946  C 649.608626401093 403.820857440088  648.828804165768 402.474937903412  648.071752142788 401.116205756262  L 646.324640306895 402.089653357772  C 647.091974758595 403.466840070827  647.882370141375 404.831050691129  648.695492509618 406.181708833535  C 648.918483907199 406.555290885426  649.142389226606 406.928326658066  649.367206456348 407.300812800225  L 651.079498176484 406.267344336674  Z M 655.299916924397 413.0276971024  C 654.219433926178 411.3536048598  653.157889864279 409.667364760745  652.115487774571 407.969299323387  L 650.411024632914 409.015628811995  C 651.461303757856 410.72652588257  652.530869503573 412.425508255263  653.619517299935 414.112250974787  L 655.299916924397 413.0276971024  Z M 659.721964043617 419.657916042994  C 658.591567066322 418.017114098845  657.479734689854 416.363599589201  656.386679568442 414.697688772934  L 654.714492195012 415.794862135782  C 655.815807117307 417.473361605047  656.936041187223 419.139371093534  658.074980143571 420.792571952505  L 659.721964043617 419.657916042994  Z M 664.341630036645 426.151989497896  C 663.162344018218 424.54596557749  662.001231432465 422.926675909078  660.858514359201 421.294430205562  L 659.220118936643 422.441452628769  C 660.371471087232 424.086032590864  661.541357758181 425.71755861403  662.729555191514 427.335718644995  L 664.341630036645 426.151989497896  Z M 669.154726223728 432.504029250503  C 667.927620430097 430.934239545665  666.718280423037 429.350642938464  665.526937506562 427.753542314977  L 663.923819578147 428.949373786211  C 665.124165018909 430.558543090304  666.342643547404 432.154106333402  667.579022111752 433.735758340644  L 669.154726223728 432.504029250503  Z M 674.156888540755 438.708275867048  C 672.883075596342 437.176143715822  671.626604684045 435.629676026677  670.387716122356 434.069168584243  L 668.821329245034 435.312724835706  C 670.069579615326 436.885024438027  671.335545199343 438.443178193988  672.618983862608 439.986888083841  L 674.156888540755 438.708275867048  Z M 679.343581496189 444.759103918716  C 678.02421637507 443.266018514804  676.7217538075 441.758081935553  675.436442908522 440.235582595925  L 673.908207334971 441.525736087465  C 675.203230838456 443.059740374231  676.515535619162 444.579071855398  677.844870679562 446.083439936548  L 679.343581496189 444.759103918716  Z M 684.710102283417 450.651027082256  C 683.346381262121 449.19834221544  681.999107990141 447.730304001505  680.668540153227 446.247193224263  L 679.179841544103 447.582774165724  C 680.520463974952 449.077092245751  681.877918077479 450.556223864866  683.251944218686 452.01988611746  L 684.710102283417 450.651027082256  Z M 690.219667647899 456.430533904058  C 688.83170478716 454.995985284052  687.452182414577 453.55329424313  686.081171960655 452.102535482622  L 684.627570564286 453.47623231252  C 686.003961673479 454.932684707786  687.38889810712 456.381037720951  688.782308154395 457.821216357544  L 690.219667647899 456.430533904058  Z M 695.816226858935 462.124985984637  C 694.405959307003 460.712358617664  693.004003640153 459.291457592187  691.61043245047 457.862356481265  L 690.178531139971 459.258658252729  C 691.577571526588 460.693368000992  692.985029295999 462.119845481814  694.400831571256 463.538016833422  L 695.816226858935 462.124985984637  Z M 701.501314036321 467.731057986151  C 700.069087970553 466.340698628831  698.645043146482 464.941936406346  697.229253299949 463.534843745429  L 695.819403563102 464.953407709271  C 697.240749805708 466.366022633365  698.670383423248 467.770274425448  700.108230390527 469.166090374573  L 701.501314036321 467.731057986151  Z M 707.273533665815 473.247373790157  C 705.819700653709 471.879623732996  704.37391623167 470.503343666656  702.936255261199 469.118604853761  L 701.5488031728 470.559082796111  C 702.992106374551 471.949256142463  704.443564909107 473.330937545152  705.903103621141 474.704055461853  L 707.273533665815 473.247373790157  Z M 713.131468844834 478.6725793106  C 711.65638575773 477.327774294216  710.189216633381 475.974314218494  708.730037440571 474.612269164458  L 707.365323577481 476.074307492235  C 708.830229451802 477.441698016016  710.303156614858 478.80046986894  711.784028799754 480.150552694972  L 713.131468844834 478.6725793106  Z M 719.073681630264 484.005342826199  C 717.57771055574 482.683812958909  716.089516874027 481.353505106673  714.609177642541 480.014488151711  L 713.267537000086 481.497727979423  C 714.75368595758 482.84200002826  716.24772019079 484.177528794691  717.749562339912 485.50424512619  L 719.073681630264 484.005342826199  Z M 725.098713391425 489.244355307349  C 723.58222154442 487.946424984134  722.07336861117 486.63959590509  720.572232718809 485.323935736726  L 719.253994628548 486.828012974566  C 720.761021865305 488.14883657097  722.275796429164 489.460794419627  723.798239886406 490.763818588492  L 725.098713391425 489.244355307349  Z M 731.205085168123 494.38833073744  C 729.668444800796 493.114318560319  728.139302993048 491.831289040857  726.617738922555 490.539308613244  L 725.32322697144 492.063854056457  C 726.850762558573 493.360904978814  728.385905622463 494.648969864352  729.928576674729 495.927982018183  L 731.205085168123 494.38833073744  Z M 734.944456826222 497.458767180155  C 734.209370645672 496.861000148503  733.475952940836 496.261184278458  732.744212267738 495.65932656745  L 731.473744218683 497.203965986968  C 733.021413193135 498.476925849126  734.576547926598 499.740781591188  736.139067895539 500.995467771795  L 734.944456826222 497.458767180155  Z M 815.691764982542 181.961402260213  C 817.569146457241 181.28037983764  819.449498890321 180.607575519369  821.332768278565 179.943008628158  L 820.667231721435 178.056991371842  C 818.778460578557 178.723499718691  816.892614912346 179.398269557312  815.009748883874 180.081281508464  L 815.691764982542 181.961402260213  Z M 728.781389689215 503.529706938048  L 739 502  L 738.313921020178 491.69032999396  L 728.781389689215 503.529706938048  Z " fill-rule="nonzero" fill="#f59a23" stroke="none" />
  </g>
</svg>