<?xml version="1.0" encoding="utf-8"?>
<svg version="1.1" xmlns:xlink="http://www.w3.org/1999/xlink" width="278px" height="42px" viewBox="1004 248  278 42" xmlns="http://www.w3.org/2000/svg">
  <g transform="matrix(-0.669130606358857 -0.743144825477392 0.743144825477394 -0.669130606358856 1707.91032501476 1298.41066863119 )">
    <path d="M 1231.74989677265 187.380302149235  C 1233.4253354607 186.291881987242  1235.1041404531 185.208652472572  1236.78628760415 184.130629184956  L 1235.7071513212 182.446745316387  C 1234.02152804416 183.526996319197  1232.33925383229 184.612464307627  1230.66035288117 185.703133669763  L 1231.74989677265 187.380302149235  Z M 1225.06619844652 191.761599179028  C 1226.73259260324 190.659381523087  1228.40239581016 189.562326541008  1230.07558405131 188.4704500112  L 1228.98258022354 186.795534302129  C 1227.30593436987 187.889667174573  1225.63268054542 188.988989200541  1223.96284281602 190.093484568863  L 1225.06619844652 191.761599179028  Z M 1218.41890566701 196.197936145667  C 1220.07614167063 195.081996149632  1221.7368292381 193.971190501815  1223.40094448429 192.865535178567  L 1222.29414763727 191.199701831734  C 1220.62659352768 192.307641971268  1218.96247418007 193.420743078413  1217.30181352888 194.538989143821  L 1218.41890566701 196.197936145667  Z M 1211.80847167428 200.689010561193  C 1213.45643652761 199.55942431445  1215.10789522285 198.434943740373  1216.76282400786 197.315585011818  L 1215.6423096076 195.658947610689  C 1213.98396094289 196.780619473334  1212.32908953872 197.90742376578  1210.67771919653 199.039344281591  L 1211.80847167428 200.689010561193  Z M 1205.23534719529 205.23451620542  C 1206.87392853317 204.091360727899  1208.51604575292 202.95328189928  1210.16167523676 201.820296087995  L 1209.02751968461 200.172967589018  C 1207.37848953791 201.308294694507  1205.73297891321 202.448725342038  1204.09101147733 203.594243129191  L 1205.23534719529 205.23451620542  Z M 1198.69998041308 209.834143146814  C 1200.3290665102 208.677496383624  1201.96173028806 207.525896899424  1203.59794826485 206.379361257107  L 1202.45022889227 204.74145398201  C 1200.81062970133 205.890358919006  1199.17459205388 207.044338162303  1197.54213948049 208.203375114616  L 1198.69998041308 209.834143146814  Z M 1192.20281693621 214.487577763625  C 1193.82229671461 213.317518579827  1195.44539572892 212.152476960782  1197.0720906344 210.992469663075  L 1195.91088569769 209.364095291208  C 1194.28082925726 210.52649972255  1192.65437613885 211.693948878556  1191.03154973543 212.866425968026  L 1192.20281693621 214.487577763625  Z M 1185.7442997684 219.19450276527  C 1187.35406280536 218.01111094026  1188.96748638612 216.832706624007  1190.58454730562 215.659306764927  L 1189.40993598057 214.040576325646  C 1187.78953343466 215.216400993781  1186.17277574373 216.397240460883  1184.5596861613 217.583077743162  L 1185.7442997684 219.19450276527  Z M 1179.32486927828 223.954597213972  C 1180.92480581335 222.757953436399  1182.52844395079 221.56626677134  1184.13576062627 220.379554358243  L 1182.94782300277 218.770578223341  C 1181.33718483714 219.95974295567  1179.73023281106 221.153892219246  1178.12699003676 222.353008839032  L 1179.32486927828 223.954597213972  Z M 1172.9449631694 228.767536546635  C 1174.53496411219 227.557722408696  1176.12870746366 226.352834648935  1177.72617030151 225.152890596855  L 1176.52498737812 223.553778473036  C 1174.9242234128 224.756202187348  1173.32718662026 225.963579825319  1171.73389996987 227.17589402184  L 1172.9449631694 228.767536546635  Z M 1166.60501645037 233.632992596981  C 1168.18497338799 232.41009058885  1169.76871328541 231.19208388866  1171.35621336396 229.978990014787  L 1170.14186704233 228.389850936186  C 1168.55108642417 229.605451646155  1166.96407375763 230.825975334602  1165.38085186816 232.051404447158  L 1166.60501645037 233.632992596981  Z M 1160.30052759659 238.546275902233  C 1160.93900881255 238.04484002799  1161.57885072316 237.545139158189  1162.22004624901 237.047178821678  C 1163.15412924238 236.315574199037  1164.08955678883 235.585687873964  1165.02632414384 234.857523548452  L 1163.79889722317 233.2784658692  C 1162.86127681246 234.007293288619  1161.92499588249 234.73784228849  1160.99005917149 235.470109171743  C 1160.34709256867 235.969454375648  1159.70548105801 236.470541983364  1159.06523171483 236.973366469206  L 1160.30052759659 238.546275902233  Z M 1154.06710555165 243.532080344362  C 1155.61433076237 242.271786264367  1157.16995234657 241.021835366517  1158.73386631062 239.782311210309  L 1157.49158230852 238.214915134603  C 1155.92069247862 239.459968210199  1154.35813201687 240.715494536105  1152.80400538077 241.9814101801  L 1154.06710555165 243.532080344362  Z M 1147.92342567297 248.628058550146  C 1149.4479706812 247.340421357992  1150.98109485585 246.062976241598  1152.52269570722 244.795808598457  L 1151.25270666895 243.250775316391  C 1149.70422947976 244.523595183191  1148.16426677767 245.80673836607  1146.63292150949 247.100119086668  L 1147.92342567297 248.628058550146  Z M 1141.87143499034 253.832595523105  C 1143.37281664355 252.518023291481  1144.88295753722 251.213488799202  1146.4017567181 249.919079254692  L 1145.10446512338 248.396898411867  C 1143.57889131193 249.69708169301  1142.06201440813 251.007435084431  1140.55393581555 252.32787098871  L 1141.87143499034 253.832595523105  Z M 1135.91305147579 259.144041862762  C 1137.39079396228 257.802951200491  1138.87747298731 256.471740760056  1140.37298916611 255.150499533124  L 1139.04880614725 253.65165353284  C 1137.54661919213 254.978788179591  1136.05330880904 256.315936507722  1134.5689748261 257.663009128567  L 1135.91305147579 259.144041862762  Z M 1130.05016343575 264.56071428736  C 1131.50379843542 263.193530207404  1132.96654443963 261.836065700524  1134.4383036635 260.488411513528  L 1133.08764887514 259.013375363903  C 1131.60932484326 260.367040786209  1130.14005423468 261.730560287478  1128.67993527041 263.103842716177  L 1130.05016343575 264.56071428736  Z M 1124.2846289126 270.080896167328  C 1125.71369574544 268.68805195203  1127.15204516135 267.304763580815  1128.5995810064 265.931123526768  L 1127.22288249252 264.480364690199  C 1125.76888988828 265.860131889957  1124.32412468938 267.249590443399  1122.8886834787 268.648647464908  L 1124.2846289126 270.080896167328  Z M 1118.61827509587 275.702838069298  C 1120.02232086788 274.284775133135  1121.43581785971 272.876101283636  1122.85867157883 271.476910690909  L 1121.45636563707 270.050888935927  C 1120.02716525381 271.456320642993  1118.60736333366 272.871277907095  1117.1970547907 274.295666138019  L 1118.61827509587 275.702838069298  Z M 1113.05289774313 281.424758310539  C 1114.43147748988 279.981926060191  1115.81967409798 278.548313163537  1117.21739476622 277.124015457865  L 1115.7899258096 275.723182713426  C 1114.38597058364 277.153833524167  1112.99158190006 278.593841076465  1111.606852974 280.043109105547  L 1113.05289774313 281.424758310539  Z M 1107.59026061091 287.244843523591  C 1108.94293743857 285.777699215538  1110.30539372139 284.31960160642  1111.67753837884 282.870648170392  L 1110.22535879497 281.495448382655  C 1108.84709366204 282.950864901074  1107.47856011892 284.415466380328  1106.11984965237 285.889154911477  L 1107.59026061091 287.244843523591  Z M 1102.30159363319 293.196295421843  C 1103.44554205294 291.857809889443  1104.60487929487 290.532553471074  1105.77937436682 289.220790217495  C 1105.93307352038 289.052071928466  1106.0869014712 288.883471016739  1106.24085808521 288.714987629255  L 1104.76442809288 287.365856620888  C 1104.6078517969 287.537206873779  1104.45140798913 287.708678144521  1104.29509680966 287.880270279542  C 1103.10838594121 289.20557764871  1101.9370142368 290.544540498816  1100.78121584171 291.896891184832  L 1102.30159363319 293.196295421843  Z M 1097.23282868861 299.340095921824  C 1098.47321518998 297.782254698435  1099.7338556647 296.240648254292  1101.01442883811 294.715669468333  L 1099.48281681735 293.429526156766  C 1098.19106694561 294.967814785705  1096.9194237429 296.522876197153  1095.66821128794 298.094314083172  L 1097.23282868861 299.340095921824  Z M 1092.38064023522 305.656339256256  C 1093.56613802727 304.056332089046  1094.77244176299 302.471846010762  1095.99924401548 300.903284828217  L 1094.4238600268 299.671146326168  C 1093.18635038252 301.253397733941  1091.96951816374 302.851713028139  1090.77367348056 304.465684877587  L 1092.38064023522 305.656339256256  Z M 1087.7508903288 312.137394606355  C 1088.88006718064 310.497154505838  1090.03057681028 308.871703052479  1091.20212600995 307.261454493147  L 1089.58487331596 306.084809379369  C 1088.40309896691 307.709112006653  1087.24254781888 309.348750217107  1086.10351563874 311.003306148368  L 1087.7508903288 312.137394606355  Z M 1083.39538633012 318.786796026741  C 1084.43812825743 317.096377064337  1085.51603669794 315.42790486166  1086.6284075281 313.782469316998  L 1084.97150527086 312.662346596075  C 1083.84354934391 314.330835848657  1082.75053864891 316.022684519015  1081.69318717465 317.736787438622  L 1083.39538633012 318.786796026741  Z M 1079.41482087771 325.660765833688  C 1080.36192017343 323.914962316829  1081.345352308 322.189115471388  1082.36447487276 320.484352674563  L 1080.64783192354 319.458128047634  C 1079.61443073571 321.186775768862  1078.61722002606 322.936802941031  1077.65685120386 324.707066391612  L 1079.41482087771 325.660765833688  Z M 1075.82277742959 332.745509025548  C 1076.67130144755 330.949726748551  1077.55721212718 329.171849259817  1078.47993076387 327.413037924586  L 1076.70886262275 326.483889045495  C 1075.77321604974 328.267342563117  1074.87489313913 330.070129364454  1074.01448070358 331.891071812708  L 1075.82277742959 332.745509025548  Z M 1072.66123980283 340.016032294484  C 1073.15055346526 338.758989487792  1073.66751845016 337.5128860511  1074.21175801545 336.278630091554  C 1074.46626825232 335.699733284406  1074.72462245111 335.122534089266  1074.98680350032 334.547070735584  L 1073.16679419227 333.71787466792  C 1072.90108982631 334.301071378685  1072.63926154765 334.886026268912  1072.38132667833 335.472700639176  C 1071.82538951555 336.733524726222  1071.29730667208 338.006447779641  1070.79746278945 339.290542636117  L 1072.66123980283 340.016032294484  Z M 1070.1118392181 347.505337463167  C 1070.66812747618 345.606529781445  1071.28566844195 343.726206200012  1071.9634941078 341.867314163084  L 1070.08451342504 341.182163381269  C 1069.39191814127 343.081560118034  1068.76092114311 345.002855386229  1068.19251153077 346.943037517713  L 1070.1118392181 347.505337463167  Z M 1068.21683267952 355.186358584725  C 1068.60754315501 353.246700737945  1069.06087052441 351.320183696374  1069.57610418813 349.409827313392  L 1067.64510299522 348.889025630447  C 1067.11864254452 350.841008105926  1066.65543730774 352.809503375901  1066.2562133682 354.791425785284  L 1068.21683267952 355.186358584725  Z M 1067.05155541159 362.988134873707  C 1067.20894716381 361.265325536514  1067.43265055564 359.549219062  1067.72216795112 357.843632988623  C 1067.76286889123 357.605561095153  1067.80450936253 357.367650778902  1067.84708839191 357.12990759973  L 1065.87841246348 356.777324150281  C 1065.8348364479 357.020634076122  1065.79222249479 357.264115323083  1065.75057160318 357.507762183058  C 1065.45236209956 359.26437317721  1065.22195055066 361.031822744801  1065.05984974168 362.806177393837  L 1067.05155541159 362.988134873707  Z M 1066.79483777345 370.862425045808  C 1066.74374615889 368.892028097849  1066.77916525951 366.920338084119  1066.90099281763 364.953047426467  L 1064.90481672271 364.829431092358  C 1064.77937192508 366.855133505203  1064.74290117922 368.885365897492  1064.79550977902 370.914266830975  L 1066.79483777345 370.862425045808  Z M 1067.46116116172 378.708255190107  C 1067.43105675645 378.505248590062  1067.40193413517 378.302097611282  1067.3737943192 378.098809378381  C 1067.13852149894 376.350245531205  1066.97203876383 374.593113100246  1066.87473129645 372.831477472655  L 1064.87777545831 372.941783322538  C 1064.9780419933 374.756989339554  1065.14963705324 376.567551495306  1065.39216307403 378.369274945642  C 1065.42134845359 378.580206479824  1065.45155969489 378.790994799784  1065.4827957257 379.001632424324  L 1067.46116116172 378.708255190107  Z M 1069.09490236597 386.40810335409  C 1068.56781969243 384.510521697173  1068.12907181966 382.589504508224  1067.78007423567 380.651249371306  L 1065.81172736095 381.005665201629  C 1066.17168860236 383.004810058956  1066.62421961173 384.986175443202  1067.16786043389 386.943369075006  L 1069.09490236597 386.40810335409  Z M 1071.66631998609 393.847497381416  C 1070.90910377859 392.02946110441  1070.23665527707 390.177267877743  1069.65114393433 388.296893245672  L 1067.74157616906 388.891494750727  C 1068.34548118004 390.830940804014  1069.03905445531 392.741320141253  1069.82005838936 394.616469498211  L 1071.66631998609 393.847497381416  Z M 1075.12500309644 400.931281161495  C 1074.42770785579 399.6769387774  1073.76442823063 398.40398661881  1073.13589015668 397.11381788614  C 1072.90156362954 396.629859038903  1072.67337770705 396.142950963678  1072.45138732049 395.653210874019  L 1070.62978838533 396.478908954085  C 1070.85908579758 396.984769306754  1071.09479197889 397.487700139181  1071.33685002236 397.987580028008  C 1071.98147810011 399.310875244084  1072.66175919563 400.616503346744  1073.3769479511 401.903033809483  L 1075.12500309644 400.931281161495  Z M 1079.29963609973 407.635356172656  C 1078.1736084557 406.012267142292  1077.10833025101 404.347864377792  1076.10600983517 402.645598229508  L 1074.38257843607 403.660381069636  C 1075.41005758182 405.405374926116  1076.50207478753 407.111555009461  1077.65636627305 408.775384363854  L 1079.29963609973 407.635356172656  Z M 1084.11743345701 413.893232097564  C 1082.83625911171 412.389587008937  1081.61144594316 410.838817226534  1080.44553302102 409.244137536571  L 1078.83102576436 410.424546922411  C 1080.02620366787 412.05925384814  1081.28176024262 413.648948706278  1082.59509268707 415.190336017904  L 1084.11743345701 413.893232097564  Z M 1089.48480067825 419.726176259495  C 1088.09342288071 418.312536121187  1086.73744664101 416.864483058697  1085.41813167186 415.383362324835  L 1083.92469732637 416.713645699046  C 1085.26608645848 418.219547854484  1086.64475026042 419.691829065688  1088.05940794257 421.129121571709  L 1089.48480067825 419.726176259495  Z M 1095.23351012637 425.191677908056  C 1093.75144009259 423.873429437135  1092.30241133171 422.518495902035  1090.88777000295 421.128136046786  L 1089.4858510959 422.554538296524  C 1090.92416154382 423.968161004643  1092.39743477835 425.345764655941  1093.90430211695 426.686069445671  L 1095.23351012637 425.191677908056  Z M 1101.33204636709 430.263879038726  C 1099.76581036049 429.046827113892  1098.23010984531 427.790979526775  1096.72637149952 426.497502969766  L 1095.42214135058 428.013742963497  C 1096.95103954528 429.3288613672  1098.51243468549 430.60572121063  1100.10487622273 431.843136280844  L 1101.33204636709 430.263879038726  Z M 1107.73552448915 434.978702863037  C 1106.19485674063 433.894428406644  1104.6703023514 432.78743700811  1103.16236104611 431.65809152159  C 1103.0775651795 431.594779935752  1102.99285342475 431.531355773446  1102.90822600584 431.467819202365  L 1101.70742776433 433.067220209988  C 1101.79307786299 433.131524588541  1101.87881292677 433.19571572008  1101.96463273091 433.259793436322  C 1103.48796726184 434.400649297176  1105.02807989644 435.518928710051  1106.58446607031 436.614265309539  L 1107.73552448915 434.978702863037  Z M 1114.33717847673 439.422195821872  C 1112.66384514593 438.345816628746  1111.007418781 437.24337808326  1109.36850494091 436.115283216628  L 1108.23453171494 437.76273722897  C 1109.89059282647 438.902634881333  1111.56434968908 440.016607781175  1113.25519040808 441.104248680527  L 1114.33717847673 439.422195821872  Z M 1121.11805252759 443.587074229853  C 1119.40136970111 442.581272720278  1117.70049458688 441.548730762422  1116.01604899346 440.489825834583  L 1114.95162624629 442.183048860441  C 1116.65369549087 443.253032668561  1118.3723661515 444.29637768195  1120.10700991386 445.312702472905  L 1121.11805252759 443.587074229853  Z M 1128.06177623826 447.457182648249  C 1127.87609164368 447.360490235182  1127.69048690957 447.263644537907  1127.50496222595 447.166645655567  C 1125.93801023247 446.327463045507  1124.38283942603 445.466465308823  1122.8399035966 444.583903679734  L 1121.84687599192 446.319961333253  C 1123.40883300777 447.213403109752  1124.98319855635 448.084974777422  1126.56951154932 448.934421076904  C 1126.7589397504 449.033467115104  1126.94845097499 449.132354286981  1127.13804502363 449.231082488466  L 1128.06177623826 447.457182648249  Z M 1135.17690250099 451.067923130061  C 1133.38870899253 450.183923575664  1131.60749715808 449.28587081916  1129.83343233078 448.373848218325  L 1128.919016686 450.152567990683  C 1130.70240974855 451.069386110397  1132.49298739802 451.972160930744  1134.29058343195 452.860808655644  L 1135.17690250099 451.067923130061  Z M 1142.36620137707 454.528623959677  C 1140.55985873013 453.682327629935  1138.76020144444 452.821834744039  1136.96739656523 451.947225173438  L 1136.09049211823 453.744734169476  C 1137.89272377 454.623942536969  1139.70184385903 455.488959992634  1141.51768446167 456.339706245018  L 1142.36620137707 454.528623959677  Z M 1149.62650935052 457.837762320685  C 1147.80281241227 457.029541612405  1145.98550158072 456.206987240853  1144.17474553972 455.370175556003  L 1143.33573815585 457.185682815642  C 1145.15601535867 458.026894551794  1146.98288181789 458.853774008068  1148.8161679627 459.666244433033  L 1149.62650935052 457.837762320685  Z M 1156.95463165916 460.993882088889  C 1155.11438291317 460.224092644412  1153.2802182093 459.439838736819  1151.4523077957 458.641193160983  L 1150.65156666438 460.473899804345  C 1152.48908843945 461.276744749723  1154.33289739061 462.065122353839  1156.18282237443 462.838959439028  L 1156.95463165916 460.993882088889  Z M 1164.34734370039 463.995594473054  C 1162.49135291359 463.264575023779  1160.64114142707 462.518966676329  1158.79688097854 461.758838638506  L 1158.03475845089 463.607938217448  C 1159.88871623126 464.372063095215  1161.74865634082 465.121591936404  1163.61440613892 465.856455169342  L 1164.34734370039 463.995594473054  Z M 1171.80139245008 466.841578626011  C 1169.93047631635 466.149650843314  1168.06503219804 465.443016146971  1166.20523324675 464.721740127223  L 1165.48206468046 466.5864189802  C 1167.35164266681 467.311487551543  1169.2268955031 468.021837813732  1171.10764912729 468.717403831645  L 1171.80139245008 466.841578626011  Z M 1179.31349789407 469.530582225879  C 1177.42847967493 468.878050579588  1175.54862377847 468.210700475678  1173.67410469402 467.528593857975  L 1172.99020830585 469.408031468073  C 1174.8745838255 470.093724680187  1176.76432421871 470.764583787073  1178.65925407868 471.420546519201  L 1179.31349789407 469.530582225879  Z M 1186.88035447141 472.061422027118  C 1184.98206363373 471.44857365153  1183.08862315442 470.820801794936  1181.20020878372 470.178164727484  L 1180.55588550944 472.071534083477  C 1182.45422937832 472.717550209941  1184.35762578367 473.348622962572  1186.26589805114 473.964693764833  L 1186.88035447141 472.061422027118  Z M 1194.49863252898 474.4329843812  C 1192.58790437998 473.860088948734  1190.68171249074 473.272171578672  1188.7802337951 472.669286841847  L 1188.17576715704 474.575754802103  C 1190.08724404459 475.181809575652  1192.00345890824 475.772818282314  1193.92423388382 476.34872606432  L 1194.49863252898 474.4329843812  Z M 1202.15822338885 476.723572354423  C 1200.24177829108 476.159845664443  1198.32733997737 475.589319004098  1196.4149446202 475.012003153242  L 1195.83694557486 476.926661635472  C 1197.7538712018 477.505345088765  1199.6728446248 478.077223268634  1201.59382958577 478.642285369712  L 1202.15822338885 476.723572354423  Z M 1209.83455184975 478.942167454236  C 1207.91285733837 478.396603710302  1205.99310516461 477.844221307863  1204.07533160137 477.285030683947  L 1203.51547923232 479.205073736817  C 1205.43779580576 479.765589026352  1207.3620956768 480.319279966417  1209.28834248671 480.866136095281  L 1209.83455184975 478.942167454236  Z M 1217.53153383036 481.088012566681  C 1215.60476203898 480.560660637045  1213.6798679648 480.02647197154  1211.75688797787 479.485456663431  L 1211.21523243326 481.410712301261  C 1213.14276776388 481.953009219519  1215.07222171598 482.488463323541  1217.00355783345 483.017064496174  L 1217.53153383036 481.088012566681  Z M 1225.24847988227 483.160915480117  C 1223.31680339928 482.65182260173  1221.38693984488 482.135875522502  1219.458925683 481.613083991031  L 1218.93551548102 483.543379761233  C 1220.86809691202 484.067409732582  1222.80253211654 484.584579037868  1224.73878454433 485.094877905419  L 1225.24847988227 483.160915480117  Z M 1232.98469876877 485.160690516616  C 1231.04829062191 484.669902290896  1229.11363045262 484.172243013319  1227.18075481549 483.667722086945  L 1226.67563684 485.602885085465  C 1228.61309126256 486.108601170502  1230.55233444475 486.607439352223  1232.49332974519 487.099390205238  L 1232.98469876877 485.160690516616  Z M 1240.73949752685 487.0871585486  C 1238.79853116767 486.614718937344  1236.85924767849 486.135392038684  1234.92168370125 485.649186909297  L 1234.43490319763 487.589043796104  C 1236.37705706654 488.076400695911  1238.3209345207 488.556863071152  1240.26649883145 489.030421843717  L 1240.73949752685 487.0871585486  Z M 1248.5121815292 488.940147014879  C 1246.56683081756 488.48609833633  1244.62309771761 488.02514675175  1242.68101895535 487.557300970622  L 1242.2126195264 489.501677985237  C 1244.1592988754 489.970632045359  1246.10763648101 490.432675577273  1248.0575955303 490.887799850886  L 1248.5121815292 488.940147014879  Z M 1256.30205454647 490.719489936115  C 1254.35249373496 490.283872861168  1252.40448513192 489.841337879883  1250.45806554414 489.391893353768  L 1250.00808914622 491.340616330827  C 1251.95911960371 491.791125545236  1253.91174284064 492.234708846799  1255.8659219631 492.671357854218  L 1256.30205454647 490.719489936115  Z M 1264.10841880962 492.425027929683  C 1262.15482252789 492.007881478232  1260.20271291252 491.583802739833  1258.2521268475 491.152799727206  L 1257.82061378673 493.105694112057  C 1259.77582059137 493.537718126902  1261.7325545556 493.962801464642  1263.69077870786 494.380936093529  L 1264.10841880962 492.425027929683  Z M 1271.93057507244 494.056608223954  C 1269.9731183117 493.657969761431  1268.01708254191 493.252385252266  1266.06250472123 492.839862359743  L 1265.6494936499 494.796753224089  C 1267.60870166621 495.210253341298  1269.56937108563 495.616798638879  1271.53146486192 496.016381435287  L 1271.93057507244 494.056608223954  Z M 1279.76782267414 495.614084671972  C 1277.80668077141 495.233989905975  1275.84689405679 494.846935955798  1273.88849955959 494.452930134659  L 1273.4940274727 496.41364219222  C 1275.45706120695 496.80858137301  1277.42149045661 497.196552214556  1279.38727810471 497.577547386332  L 1279.76782267414 495.614084671972  Z M 1238.46954492298 183.054343791393  C 1240.15391390399 181.979795336346  1241.84160621386 180.910465148248  1243.53259757906 179.846368606921  L 1242.46740242094 178.153631393079  C 1240.77291665335 179.219926870237  1239.08173675853 180.291466809392  1237.39388706016 181.368235798957  L 1238.46954492298 183.054343791393  Z M 1278.69905935302 504.152591679548  L 1287 498  L 1281.54927393559 489.222210678607  L 1278.69905935302 504.152591679548  Z " fill-rule="nonzero" fill="#aaaaaa" stroke="none" />
  </g>
</svg>