<?xml version="1.0" encoding="utf-8"?>
<svg version="1.1" xmlns:xlink="http://www.w3.org/1999/xlink" width="132px" height="14px" viewBox="818 432  132 14" xmlns="http://www.w3.org/2000/svg">
  <g transform="matrix(0.292371704722735 -0.956304755963035 0.956304755963035 0.292371704722737 205.725625157329 1156.02222589804 )">
    <path d="M 793.289975733639 293.37095464271  C 791.794410549291 292.03441297251  790.287357364072 290.710782026173  788.768983990259 289.40020919168  L 787.462172440424 290.914224902701  C 788.971849221213 292.217291336749  790.470270650604 293.533341091362  791.957269877479 294.862227622737  L 793.289975733639 293.37095464271  Z M 799.210259226021 298.785338915113  C 797.745794575278 297.4147907972  796.26954834396 296.056886069412  794.781684913978 294.711775936183  L 793.440435185886 296.195369265533  C 794.919776770748 297.532775183447  796.387567695289 298.882902413956  797.843644519109 300.245600618662  L 799.210259226021 298.785338915113  Z M 805.004589706764 304.334307103826  C 803.57199864735 302.930476019514  802.127338646902 301.539014317442  800.670770570162 300.160076938655  L 799.295790679175 301.61246473101  C 800.744016157187 302.983504146492  802.180401763275 304.366996151295  803.604787554058 305.762786691808  L 805.004589706764 304.334307103826  Z M 810.669908480007 310.014930034187  C 809.269947244306 308.578557034119  807.857636078029 307.154272878889  806.433132243839 305.742236164364  L 805.025148010706 307.162651737093  C 806.441492896437 308.566600909485  807.845714948624 309.982727374469  809.237657805369 311.410873444573  L 810.669908480007 310.014930034187  Z M 816.203224952251 315.824209033978  C 814.836632548098 314.356052346937  813.45741574308 312.899697585904  812.065728114757 311.455306917849  L 810.625482782476 312.843000465734  C 812.009199419525 314.279118282054  813.380516660796 315.727131666132  814.739281808381 317.18687937985  L 816.203224952251 315.824209033978  Z M 821.601618211019 321.759077516354  C 820.269116031598 320.259912149006  818.923721645168 318.772255558882  817.565584863096 317.296273398421  L 816.093838704565 318.65051238946  C 817.444196660252 320.118040755629  818.781885203285 321.597176685324  820.106755380356 323.08775547489  L 821.601618211019 321.759077516354  Z M 826.862238566747 327.816402598625  C 825.56453000979 326.287019926428  824.253668245173 324.768846807432  822.92979923901 323.262052292131  L 821.427329155703 324.582121854225  C 822.743615606638 326.080286095249  824.04696931594 327.589763768195  825.33724515353 329.110386790818  L 826.862238566747 327.816402598625  Z M 831.975750450148 334.002032895939  C 830.717512096985 332.439119075839  829.444205652495 330.888396054463  828.156009330228 329.350080872932  L 826.622643411115 330.63413264685  C 827.902570606106 332.16257315027  829.167703503693 333.703341845723  830.417865034321 335.256223085326  L 831.975750450148 334.002032895939  Z M 836.927594157325 340.317766766474  C 835.710028313085 338.722963713627  834.477085384889 337.139959314891  833.228937936961 335.568975129528  L 831.663008120872 336.813106879418  C 832.903143521313 338.374006679387  834.12817200213 339.946849533149  835.33792210683 341.531415303685  L 836.927594157325 340.317766766474  Z M 841.715124301172 346.75894721306  C 840.539038825571 345.133313085554  839.347277476144 343.519077639092  838.140007053287 341.916466804072  L 836.542552340803 343.119853043632  C 837.742073111984 344.712176477  838.926184364832 346.316049901674  840.094720369655 347.931248837526  L 841.715124301172 346.75894721306  Z M 846.33516433664 353.321300487184  C 845.201339567011 351.665913899644  844.051550534686 350.021518457012  842.885958165565 348.388344310916  L 841.258038474161 349.550186588653  C 842.416148729344 351.172877142574  843.558557091748 352.806716961835  844.685103668472 354.451477372174  L 846.33516433664 353.321300487184  Z M 850.784648849029 360.000472441681  C 849.693837082556 358.316431749609  848.586783256871 356.642967373639  847.4636423166 354.980313533924  L 845.806337777381 356.099840962925  C 846.922269105865 357.751821975846  848.022216585393 359.41454413056  849.106026265942 361.087774710395  L 850.784648849029 360.000472441681  Z M 855.060625587893 366.792031419738  C 854.013550582471 365.080453990749  852.949966497978 363.379031031614  851.870022194984 361.688000675637  L 850.184432436019 362.764470445057  C 851.257444412987 364.44464582109  852.314201190167 366.135147088579  853.354554862561 367.835737642851  L 855.060625587893 366.792031419738  Z M 859.160257425879 373.691471195306  C 858.157613919881 371.953492667739  857.138205268804 370.225240026264  856.102174150367 368.506955159301  L 854.38941756708 369.539653027221  C 855.418798244871 371.246907963408  856.431663157433 372.964066689442  857.427870542927 374.690888869643  L 859.160257425879 373.691471195306  Z M 863.080928705368 380.695286773388  C 863.01349183229 380.570814095998  862.945970132104 380.446387394887  862.878363651935 380.322006756898  C 861.985992619832 378.684109961763  861.078931543599 377.054259525985  860.157290133312 375.432652581842  L 858.41850314642 376.420893349172  C 859.334065444674 378.031804234982  860.235146160983 379.650902787142  861.121636347412 381.277993243562  C 861.188650966169 381.401285929475  861.255581743441 381.524624168005  861.322428632978 381.648007873923  L 863.080928705368 380.695286773388  Z M 866.812778941688 387.800393685843  C 865.902738701719 386.012185050346  864.97544594329 384.232808943175  864.03103045145 382.462514408019  L 862.266431532067 383.403891406737  C 863.204784677841 385.162822153173  864.126125003626 386.930776175647  865.030323557476 388.707506029102  L 866.812778941688 387.800393685843  Z M 870.360388915643 394.999262617587  C 869.496708460119 393.188207832889  868.615553715265 391.385538282964  867.717048008594 389.591506271681  L 865.928787984298 390.487121192004  C 866.821526046767 392.269637040115  867.697024525873 394.060734981205  868.555160885754 395.86016433097  L 870.360388915643 394.999262617587  Z M 873.721404774086 402.28711709082  C 872.904657158381 400.454417798881  872.070225076735 398.629650884527  871.218225317296 396.813071744399  L 869.407490705634 397.662330342312  C 870.254021349588 399.467248585833  871.083097085338 401.280302045024  871.894601874407 403.10123696266  L 873.721404774086 402.28711709082  Z M 876.893596469799 409.659121585486  C 876.124323609164 407.805993789482  875.337167839687 405.96034025071  874.532239332667 404.122419289129  L 872.700231563163 404.924758078218  C 873.499993112193 406.750881146802  874.282096009586 408.584687156018  875.046430791226 410.425919444051  L 876.893596469799 409.659121585486  Z M 879.874859241139 417.110384747659  C 879.153571551138 415.238058005165  878.414214374769 413.372742440332  877.656891193395 411.514699125078  L 875.804825810397 412.269585750407  C 876.557287619582 414.115702004239  877.291898750263 415.969043825969  878.008556385351 417.82935181956  L 879.874859241139 417.110384747659  Z M 882.66321500855 424.635962634975  C 881.990391066394 422.745679242124  881.299323049532 420.861939295455  880.590107680703 418.985006445551  L 878.719213536864 419.691940036879  C 879.423876344835 421.556824570572  880.110508291442 423.428472505253  880.77901327482 425.306621882737  L 882.66321500855 424.635962634975  Z M 885.256813687035 432.230861996961  C 884.632899914052 430.32387616421  883.990579583035 428.422961704544  883.329942593936 426.528384672312  L 881.441461034865 427.186896176425  C 882.097857295083 429.069311631769  882.736054474624 430.958023833647  883.355963250611 432.85276843554  L 885.256813687035 432.230861996961  Z M 887.653184913138 439.890023729354  C 887.382648888257 438.985669808628  887.108446896502 438.08241660613  886.830585700596 437.180286399065  C 886.517102379196 436.165177201976  886.19842899118 435.15167805987  885.87457804187 434.139828744289  L 883.969762082497 434.749481236221  C 884.291458884316 435.754600070792  884.608013768285 436.761357375802  884.919414318042 437.769713662796  C 885.195609390421 438.666441283247  885.468168130503 439.564284872462  885.737083819604 440.463222298227  L 887.653184913138 439.890023729354  Z M 889.864063812239 447.602178303332  C 889.33351451254 445.667862843697  888.786308831311 443.738154542513  888.222507700605 441.813268275273  L 886.303145769738 442.375451322279  C 886.8637176888 444.289312664575  887.407789210018 446.207968422267  887.935299750332 448.131204950578  L 889.864063812239 447.602178303332  Z M 891.897179629243 455.363090218439  C 891.411209452421 453.417096425012  890.908481445175 451.475325909244  890.389051586903 449.537994889734  L 888.457280619648 450.055934007845  C 888.973735405936 451.982168824188  889.47358400226 453.912817709273  889.956770749839 455.847665682871  L 891.897179629243 455.363090218439  Z M 893.751459128347 463.168662665007  C 893.310324607055 461.212017783854  892.852339652521 459.259210070177  892.377555261947 457.310456971581  L 890.434394996455 457.783878752464  C 890.906460025183 459.721470227111  891.361821837857 461.663093093758  891.800429729357 463.608531150209  L 893.751459128347 463.168662665007  Z M 895.42592347739 471.014775258081  C 895.029857476555 469.048512157737  894.616857334616 467.085698089113  894.186969039671 465.126551614073  L 892.233445226248 465.55520614909  C 892.660871304975 467.503131471374  893.07150595881 469.454703380836  893.465303463056 471.409704567439  L 895.42592347739 471.014775258081  Z M 896.919688764557 478.897286212483  C 896.568900358449 476.922442838704  896.201103042536 474.950658540262  895.816337771513 472.982152877828  L 893.853481631146 473.365813889956  C 894.236043131326 475.323044794213  894.601733861582 477.283535555854  894.95051310179 479.247067871758  L 896.919688764557 478.897286212483  Z M 898.231966464976 486.812034529164  C 897.926640826855 484.829653357063  897.604240488837 482.849939689061  897.264801350612 480.873113968813  L 895.293649030614 481.21157893209  C 895.63114400669 483.17708224043  895.951697773516 485.145456955595  896.25527463702 487.116483896537  L 898.231966464976 486.812034529164  Z M 899.253502610238 493.931082721257  C 899.02558353162 492.217381518657  898.78494108124 490.505396546987  898.531595165844 488.795269427342  L 896.553187192891 489.088359673779  C 896.845437488908 491.061097841517  897.120685079227 493.036317449751  897.378899314676 495.013798555244  L 899.253502610238 493.931082721257  Z M 787.246864413221 288.094012417477  C 785.720988170274 286.792182725082  784.183923570387 285.503524274986  782.635841767675 284.22818056096  L 781.364158232325 285.77181943904  C 782.903373284848 287.039858529953  784.431634236355 288.321136095812  785.948770913059 289.615509464743  L 787.246864413221 288.094012417477  Z M 890.62960010828 493.942244173566  L 899 500  L 905.724146899439 492.154883781946  L 890.62960010828 493.942244173566  Z " fill-rule="nonzero" fill="#027db4" stroke="none" />
  </g>
</svg>