<?xml version="1.0" encoding="utf-8"?>
<svg version="1.1" xmlns:xlink="http://www.w3.org/1999/xlink" width="118px" height="14px" viewBox="908 366  118 14" xmlns="http://www.w3.org/2000/svg">
  <g transform="matrix(0.190808995376544 -0.981627183447661 0.981627183447665 0.190808995376543 416.340762044903 1251.06173111844 )">
    <path d="M 961.078393090277 331.999249602613  C 961.142535875156 330.009854882912  961.235340802042 328.021487672313  961.356778971227 326.034767153797  L 959.360504792087 325.912745017696  C 959.237894466686 327.918641935376  959.144193759892 329.926201439498  959.079431850362 331.934798370524  L 961.078393090277 331.999249602613  Z M 960.974747934348 339.959661428079  C 960.962422247959 337.969271083183  960.978777019049 335.978806453969  961.023807154697 333.988887376598  L 959.024319035596 333.94364070187  C 958.978854256098 335.952767051824  958.962341624042 337.962444219438  958.97478628151 339.972046385727  L 960.974747934348 339.959661428079  Z M 961.176972614362 347.918179124747  C 961.088196651885 345.929731369314  961.028077124261 343.94010764582  960.996632752877 341.949927528567  L 958.996882338616 341.981523108363  C 959.028630220137 343.990913017828  959.089330038773 345.999741163063  959.178962892431 348.007381989453  L 961.176972614362 347.918179124747  Z M 961.684768606199 355.863054327042  C 961.51967341873 353.879484508083  961.383168340853 351.893638773294  961.275295880624 349.906135520482  L 959.278235203204 350.0145267134  C 959.387148879516 352.021213920557  959.524971543756 354.026227610851  959.691660277568 356.028943417518  L 961.684768606199 355.863054327042  Z M 962.497386301307 363.782558808446  C 962.256215602398 361.806795072169  962.043526483092 359.827658831982  961.859385175368 357.845766396357  L 959.8679622962 358.030793195294  C 960.05388098891 360.031815428043  960.268623044907 362.030054861752  960.512121592927 364.02488923918  L 962.497386301307 363.782558808446  Z M 963.613626113264 371.665001794702  C 963.296735919153 369.699960763963  963.008176730145 367.730455619744  962.748038404365 365.757099671347  L 960.76519306234 366.018488939703  C 961.027842318233 368.010892288581  961.319186763718 369.999407664221  961.639135673334 371.983415837459  L 963.613626113264 371.665001794702  Z M 965.043914142999 379.489225862832  C 964.850162385563 378.558829059268  964.664885641134 377.626687483098  964.488106946764 376.6929170355  C 964.297714796764 375.672817291713  964.114988571195 374.651301667867  963.939943737522 373.628456633534  L 961.96860300937 373.965822508412  C 962.145482665503 374.999389019077  962.330130606629 376.031611068413  962.522531176911 377.062401136893  C 962.701712964939 378.008949562935  962.889516807817 378.953845476411  963.085919312419 379.896971179693  L 965.043914142999 379.489225862832  Z M 966.861361969797 387.22702638058  C 966.357975683581 385.304467869832  965.891239767764 383.372499335991  965.461407968486 381.432171115115  L 963.508746099785 381.864735129478  C 963.944068463139 383.829848618553  964.416766347001 385.786495636031  964.926582763943 387.733612429138  L 966.861361969797 387.22702638058  Z M 969.069152977424 394.862622776555  C 968.468847553517 392.968087905292  967.904667725355 391.062295169355  967.376920215538 389.146280674032  L 965.448726621981 389.677382797701  C 965.983215446711 391.61787198376  966.554601967123 393.548008840234  967.16257554262 395.46674402688  L 969.069152977424 394.862622776555  Z M 971.661597437057 402.376337249391  C 970.965919930892 400.514708449704  970.305750146045 398.640002956561  969.681446991115 396.753239974321  L 967.782690847152 397.381511496646  C 968.414968694696 399.2923755181  969.083571323531 401.191028031101  969.78813524045 403.07643681223  L 971.661597437057 402.376337249391  Z M 974.632014324123 409.748806101317  C 973.842757575849 407.924881002603  973.088299167027 406.086094081781  972.369049267302 404.23344501567  L 970.504623883725 404.957266809398  C 971.233061302073 406.833581152074  971.997156974225 408.695856277885  972.796495491124 410.543079740377  L 974.632014324123 409.748806101317  Z M 977.972748536071 416.961029640609  C 977.0919465502 415.179508705538  976.245143842627 413.381379120305  975.432800787 411.567618457928  L 973.607511000323 412.385125151877  C 974.430230723301 414.22205434006  975.287850277217 416.043152783629  976.179903407719 417.84743042228  L 977.972748536071 416.961029640609  Z M 981.675190620429 423.994421145961  C 980.705113323976 422.259895556842  979.768148624654 420.50705729189  978.86480591368 418.736859301005  L 977.083355703525 419.645944087335  C 977.998237488725 421.438754145339  978.947170741159 423.21398272861  979.929639562769 424.970664714495  L 981.675190620429 423.994421145961  Z M 985.745842385447 430.816920810646  C 984.877457540512 429.444895005299  984.029475947585 428.060061288502  983.202177548222 426.662876831151  C 983.019104152532 426.35011454017  982.837117199389 426.036717572555  982.656219979331 425.722691594896  L 980.923200345741 426.721011658598  C 981.107245507744 427.040502261678  981.292404430074 427.359349980006  981.478673734116 427.677548995537  C 982.316862262256 429.093223016194  983.176029031471 430.496370865713  984.055889828677 431.886528381611  L 985.745842385447 430.816920810646  Z M 990.159390619415 437.430211421802  C 989.016148230872 435.803888753917  987.902540263786 434.156934667867  986.819117732624 432.490164078371  L 985.142240451949 433.580156090066  C 986.238861878216 435.267232266292  987.366036477262 436.934250522681  988.523206521849 438.580386016754  L 990.159390619415 437.430211421802  Z M 994.887954535888 443.822058104021  C 993.66731220958 442.252994405418  992.475270651633 440.661888692391  991.312419685533 439.049528245815  L 989.690282471114 440.219430317613  C 990.867299976565 441.851433494325  992.073863690944 443.461922999728  993.309376605189 445.050101961833  L 994.887954535888 443.822058104021  Z M 999.920443178782 449.977468633003  C 998.625263959534 448.469344178898  997.357584771779 446.937818814157  996.118032864591 445.38365033924  L 994.5544404768 446.630718438761  C 995.809093339642 448.203820714741  997.092216146243 449.75400402876  998.403174006014 451.28050134839  L 999.920443178782 449.977468633003  Z M 1005.24505272953 455.882005350917  C 1003.87837449017 454.438357482113  1002.53803104348 452.970004693846  1001.22468559289 451.477673528706  L 999.723305473851 452.798982628865  C 1001.05265087676 454.309494256326  1002.40932318135 455.795735388123  1003.79265110465 457.256970630493  L 1005.24505272953 455.882005350917  Z M 1010.84929419323 461.521819030262  C 1009.4143225092 460.146033856242  1008.00445861013 458.744297699886  1006.62040009828 457.317304141807  L 1005.18475376981 458.709755081535  C 1006.58567370238 460.154133120502  1008.01271339867 461.57294605711  1009.46516675785 462.965491861146  L 1010.84929419323 461.521819030262  Z M 1016.72002269184 466.883681357547  C 1015.22012332242 465.578985814271  1013.74404583939 464.247154094423  1012.29252060754 462.888845189811  L 1010.92597541132 464.349171943208  C 1012.39518398344 465.724028571567  1013.8892439168 467.072085454414  1015.4074159489 468.39267557171  L 1016.72002269184 466.883681357547  Z M 1022.8352181609 471.980260957486  C 1021.28290934988 470.732759688013  1019.74669228134 469.465366104937  1018.22694729124 468.178393989018  L 1016.93445772633 469.704654361503  C 1018.46727546986 471.002696932824  1020.01670698364 472.280992557965  1021.58236866008 473.539224757033  L 1022.8352181609 471.980260957486  Z M 1029.12862363018 476.862867694614  C 1027.5344942261 475.669270817467  1025.95576573602 474.4552420984  1024.39282902087 473.221082106126  L 1023.15337799338 474.79071937328  C 1024.72975899453 476.035495534302  1026.32206761049 477.259967254134  1027.92990961818 478.463831378593  L 1029.12862363018 476.862867694614  Z M 1035.58558328752 481.527036745349  C 1033.95150425686 480.388745137867  1032.33211723629 479.229506140198  1030.72782315296 478.049606756228  L 1029.54286535741 479.66077869701  C 1031.16095948029 480.850827503291  1032.79427636894 482.020038203901  1034.44241164744 483.168121326146  L 1035.58558328752 481.527036745349  Z M 1042.1985188553 485.967293959362  C 1040.52640805186 484.885643589289  1038.86826311115 483.782554865867  1037.22449455602 482.658300891343  L 1036.0954207304 484.309116537113  C 1037.75332888209 485.443041275548  1039.42573708412 486.555618700673  1041.1122312824 487.646573361058  L 1042.1985188553 485.967293959362  Z M 1048.9596689932 490.178427982773  C 1047.25148890712 489.154688340266  1045.55653214528 488.10904454261  1043.87521834433 487.041755469851  L 1042.80335363785 488.730277323723  C 1044.49912999725 489.806747151788  1046.20866667346 490.861385513421  1047.93154042013 491.893931301698  L 1048.9596689932 490.178427982773  Z M 1055.86109840729 494.155496374506  C 1054.11885386185 493.190868982206  1052.38907458242 492.203897340986  1050.67218882702 491.194825804872  L 1049.65879124479 492.919072115679  C 1051.39044554642 493.936823623411  1053.13510428138 494.932285134305  1054.89233550781 495.905210192417  L 1055.86109840729 494.155496374506  Z M 1062.89470716346 497.893831407038  C 1061.12044296201 496.989448409877  1059.35787133837 496.062307294588  1057.60742866928 495.112637602381  L 1056.65368759587 496.870584690576  C 1058.41918746571 497.828423383376  1060.19692062262 498.763539709812  1061.98644693618 499.675702154186  L 1062.89470716346 497.893831407038  Z M 961.487755081145 324.048694810033  C 961.6282716497 322.063232460463  961.79738973373 320.079897896567  961.995056669399 318.099308734185  L 960.004943330601 317.900691265815  C 959.805368456687 319.900397645751  959.634617996157 321.9028759266  959.492745121175 323.907502531132  L 961.487755081145 324.048694810033  Z M 1059.39056822915 505.797212272371  L 1069 502  L 1066.00407677531 492.11139827722  L 1059.39056822915 505.797212272371  Z " fill-rule="nonzero" fill="#009999" stroke="none" />
  </g>
</svg>