<?xml version="1.0" encoding="utf-8"?>
<svg version="1.1" xmlns:xlink="http://www.w3.org/1999/xlink" width="168px" height="16px" viewBox="1168 340  168 16" xmlns="http://www.w3.org/2000/svg">
  <g transform="matrix(0.656059028990513 -0.754709580222774 0.754709580222767 0.656059028990507 167.975161786355 1064.58785235022 )">
    <path d="M 1210.00971997594 296.50456539494  C 1208.96070591162 294.807389617717  1207.92393883499 293.102674518712  1206.89949954378 291.390552950436  L 1205.18326181903 292.417455123076  C 1206.21263576541 294.137823865788  1207.25439687931 295.850750462758  1208.30846397382 297.556101421546  L 1210.00971997594 296.50456539494  Z M 1214.27074171248 303.252495391983  C 1213.18930128032 301.575795443383  1212.11996066584 299.891322175506  1211.06280320531 298.19920686337  L 1209.36661983427 299.258905863945  C 1210.42886955119 300.959171981728  1211.50336110748 302.65175924403  1212.59001076546 304.336535743507  L 1214.27074171248 303.252495391983  Z M 1218.66067324999 309.917280953436  C 1217.54720599061 308.261676294037  1216.44568690859 306.598067189739  1215.35620184794 304.926583289561  L 1213.68069948938 306.018687609885  C 1214.77543252629 307.698222935585  1215.88225755164 309.369845533037  1217.00108830792 311.033425128723  L 1218.66067324999 309.917280953436  Z M 1223.17789271838 316.496459759234  C 1222.03281000477 314.862562055914  1220.89951941391 313.22043173933  1219.77810926586 311.570196784611  L 1218.12390693791 312.694302944278  C 1219.25071884322 314.352486969779  1220.38946841862 316.002527317641  1221.54006691865 317.644295396301  L 1223.17789271838 316.496459759234  Z M 1227.82073122071 322.987601116924  C 1226.64445610625 321.376014016865  1225.47981270334 319.755969176767  1224.32689177539 318.127592850523  L 1222.69460062683 319.283285545977  C 1223.85307509734 320.919505651449  1225.02332850919 322.547354138591  1226.20526966176 324.166704145303  L 1227.82073122071 322.987601116924  Z M 1232.58747344983 329.388306859684  C 1231.38044051202 327.799625767398  1230.18487457717 326.202264932966  1229.00086881857 324.596348842525  L 1227.39109190304 325.783201100492  C 1228.58080093775 327.396852780725  1229.78212583329 329.001907994851  1230.99497296757 330.598241657103  L 1232.58747344983 329.388306859684  Z M 1237.47635832206 335.696212232336  C 1236.23901350194 334.131024089616  1235.0129667397 332.556937409456  1233.79831358404 330.974074864121  L 1232.21164563726 332.191648199356  C 1233.43214969546 333.782135287087  1234.66410224252 335.363804236946  1235.90740726939 336.936531785654  L 1237.47635832206 335.696212232336  Z M 1242.48557962785 341.908986765008  C 1241.21838006528 340.367869834176  1239.96230544135 338.817638858102  1238.71745364499 337.258414650042  L 1237.15448086502 338.506259227329  C 1238.40532902876 340.072994113534  1239.66745407965 341.630692447924  1240.94075765729 343.179232835366  L 1242.48557962785 341.908986765008  Z M 1247.6132866991 348.024335134131  C 1246.31670056378 346.507858784273  1245.03106213782 344.982056248698  1243.75647161405 343.447046436775  L 1242.2177714447 344.724701237119  C 1243.49850158529 346.26710508805  1244.79033284508 347.800257311827  1246.0931645486 349.324038426253  L 1247.6132866991 348.024335134131  Z M 1252.85795037153 354.040705447881  C 1251.53329302799 352.548083904058  1250.21839540121 351.046829338148  1248.91334157091 349.537037746278  L 1247.4002622972 350.844933426936  C 1248.71100912085 352.361311132948  1250.03164268227 353.869114572229  1251.36207853491 355.368247329859  L 1252.85795037153 354.040705447881  Z M 1258.20826806293 359.964742630065  C 1256.85782463815 358.495409887872  1255.51698914807 357.017275513319  1254.18584733105 355.530434024195  L 1252.69576813561 356.864474500089  C 1254.03271674875 358.357801988878  1255.37940132134 359.842384380351  1256.73573574101 361.318126744379  L 1258.20826806293 359.964742630065  Z M 1263.66091355815 365.794731741407  C 1262.28509342348 364.349133212128  1260.91872652895 362.894567108359  1259.5619002455 361.43112644084  L 1258.09527282867 362.790907312968  C 1259.45801795075 364.260731899528  1260.83034530258 365.721643209107  1262.21216713212 367.173547825255  L 1263.66091355815 365.794731741407  Z M 1269.21423395051 371.528905487872  C 1267.81345416998 370.107479388057  1266.42197006938 368.67692249001  1265.03987062576 367.237326269284  L 1263.59713957875 368.62243533574  C 1264.98526810926 370.068311459662  1266.38282223513 371.505108828951  1267.78971259117 372.932735569043  L 1269.21423395051 371.528905487872  Z M 1274.86654581491 377.165525620751  C 1273.44123101876 375.768702839318  1272.0250515245 374.362588803891  1270.61809788822 372.94727342694  L 1269.19970055832 374.357290807868  C 1270.61279170211 375.778780168481  1272.03514894956 377.191028048873  1273.46668134951 378.593944144327  L 1274.86654581491 377.165525620751  Z M 1280.61613571814 382.702883463584  C 1279.16671797414 381.331087431295  1277.72627238467 379.949842505706  1276.29489105754 378.559237009108  L 1274.90125741556 379.993735273983  C 1276.33888281032 381.390406963153  1277.78561200815 382.777677247992  1279.24135249945 384.155457420948  L 1280.61613571814 382.702883463584  Z M 1286.46126073824 388.139300430137  C 1284.98817942069 386.792946991146  1283.52390439051 385.436989883898  1282.06852927928 384.071515813681  L 1280.7000817892 385.530060110879  C 1282.16180563536 386.901490743675  1283.63246822427 388.263362897956  1285.11197551596 389.615589490226  L 1286.46126073824 388.139300430137  Z M 1292.40014899291 393.473128533234  C 1290.90385064942 392.152625819068  1289.41619005666 390.822367572954  1287.93726234152 389.482438856842  L 1286.59441583244 390.964587045464  C 1288.07979502524 392.31036088848  1289.57394519084 393.646422076365  1291.07677078731 394.972685176028  L 1292.40014899291 393.473128533234  Z M 1298.4310001766 398.702750884335  C 1296.91193839279 397.408499190195  1295.40134320458 396.104343057643  1293.89931120545 394.790365879608  L 1292.58247274581 396.295668663505  C 1294.09105700968 397.615377760922  1295.60824181752 398.92522297082  1297.13393015453 400.225120536513  L 1298.4310001766 398.702750884335  Z M 1304.55198610623 403.826582183672  C 1303.01062136818 402.55897384704  1301.47754950407 401.281315167974  1299.95286854463 399.993687845051  L 1298.66243731884 401.521688909025  C 1300.19376934382 402.814933206217  1301.73352887685 404.098165373676  1303.28161745954 405.371303356411  L 1304.55198610623 403.826582183672  Z M 1310.76089652111 408.845611612915  C 1309.64960892281 407.96130341053  1308.54173369532 407.072715438704  1307.43729552368 406.179867496463  C 1306.98954654496 405.817696792194  1306.54248034124 405.454682791104  1306.09609929291 405.090827426062  L 1304.83246648033 406.641063574195  C 1305.28086534767 407.006563709496  1305.72995257597 407.371218544511  1306.17972577313 407.735026136863  C 1307.28823059809 408.631162538108  1308.40018535798 409.523023009963  1309.51556527378 410.410587678041  L 1310.76089652111 408.845611612915  Z M 1317.0451966056 413.77263022156  C 1315.46524717482 412.552243043599  1313.89192117197 411.323304944923  1312.32528786816 410.085870033773  L 1311.08561721992 411.655333854285  C 1312.65791923514 412.897246304228  1314.23693816626 414.13063119679  1315.82260449156 415.355434227966  L 1317.0451966056 413.77263022156  Z M 1323.40002134637 418.608345518785  C 1321.80260590328 417.410911190691  1320.21168966195 416.204831145798  1318.62734266796 414.990158485943  L 1317.41047539675 416.577368000858  C 1319.00055519741 417.796435836497  1320.5972280156 419.006879965615  1322.2004235523 420.208647094252  L 1323.40002134637 418.608345518785  Z M 1329.82404432681 423.351748165473  C 1328.2094962934 422.177516622827  1326.60132187904 420.994546371883  1324.99959188917 419.802889496987  L 1323.80578198671 421.407513414543  C 1325.41330768196 422.603482184825  1327.0273011202 423.790732899436  1328.64769123985 424.969213285586  L 1329.82404432681 423.351748165473  Z M 1336.31592468682 428.001848090553  C 1334.68458106111 426.851064425911  1333.0594841414 425.691450885467  1331.4407054782 424.523058525207  L 1330.27020212357 426.144761918801  C 1331.89483818113 427.317381994047  1333.52581535717 428.481191484155  1335.16306184234 429.636139148417  L 1336.31592468682 428.001848090553  Z M 1342.8743074027 432.557674697645  C 1341.22650868839 431.430579109386  1339.58482846319 430.294564320842  1337.94933900772 429.149680348987  L 1336.8023865153 430.78812472709  C 1338.44379383151 431.937151351097  1340.09141431815 433.077276699498  1341.74517543306 434.20845057436  L 1342.8743074027 432.557674697645  Z M 1349.49782356999 437.018277067658  C 1347.83391370539 435.915104809842  1346.1759928359 434.80292588893  1344.52413395721 433.681789272437  L 1343.40097172572 435.336632649242  C 1345.05880769633 436.461825990373  1346.72272759245 437.578029223356  1348.39265815431 438.685193203513  L 1349.49782356999 437.018277067658  Z M 1356.18509068922 441.382724157266  C 1354.50541697543 440.303705490536  1352.83160151271 439.215594577822  1351.16371799655 438.118439326962  L 1350.06458045906 439.789336293764  C 1351.73849905074 440.890461495006  1353.41837105314 441.982509632027  1355.10412250415 443.065432623659  L 1356.18509068922 441.382724157266  Z M 1362.93471295439 445.650104993242  C 1361.23962598286 444.595465136761  1359.55026529558 443.531649349194  1357.86670527248 442.458704468703  L 1356.79182184747 444.145306265999  C 1358.48147367002 445.222133493982  1360.17694714588 446.289798596291  1361.87816762602 447.348254565303  L 1362.93471295439 445.650104993242  Z M 1369.74528154442 449.819528862602  C 1368.03513512372 448.789487947041  1366.33058182524 447.750189330549  1364.63169669781 446.701678771834  L 1363.58129174132 448.403633362115  C 1365.28632412061 449.455937855088  1366.99704518067 450.498997073305  1368.71337960113 451.532765092502  L 1369.74528154442 449.819528862602  Z M 1376.61537491711 453.89012549852  C 1374.89052599914 452.884898520116  1373.1711358739 451.870334003256  1371.4572802435 450.846476617646  L 1370.43157300226 452.563428758877  C 1372.15163005385 453.590990873618  1373.87724162629 454.60922649425  1375.60833174359 455.618090789454  L 1376.61537491711 453.89012549852  Z M 1383.54279432436 457.866431724971  C 1382.1441457637 457.07447253595  1380.74820350555 456.277743344992  1379.3549919278 455.476258065703  C 1379.0171325465 455.281940199707  1378.67947879273 455.087265028668  1378.34203123335 454.892232879403  L 1377.34123579906 456.623824199171  C 1377.67987515745 456.819545163976  1378.01872142056 457.014907920655  1378.35777401975 457.20991214137  C 1379.75489993516 458.013648991066  1381.15476414488 458.812616489697  1382.55734220357 459.606800685177  L 1383.54279432436 457.866431724971  Z M 1390.51653502136 461.763288602702  C 1388.76760859024 460.798938910903  1387.02277860794 459.827178564115  1385.28209211997 458.848033763729  L 1384.30156305981 460.591181136212  C 1386.04717653908 461.573097393689  1387.79694524082 462.547608295977  1389.55082198629 463.514687567498  L 1390.51653502136 461.763288602702  Z M 1397.53388674312 465.581053347648  C 1395.77416943224 464.636538141136  1394.01846452566 463.684566440007  1392.26681936212 462.725163912093  L 1391.30606048495 464.479285452905  C 1393.06266365819 465.441403557656  1394.82333806553 466.396069802771  1396.58803623421 467.343258447742  L 1397.53388674312 465.581053347648  Z M 1404.59395250979 469.319237961182  C 1402.82366925172 468.394677970845  1401.05731384056 467.462616599374  1399.29493390221 466.523078977762  L 1398.35406801523 468.287950469604  C 1400.12143634792 469.230147440684  1401.89279140597 470.164847000202  1403.66808542862 471.092023946009  L 1404.59395250979 469.319237961182  Z M 1411.6958298817 472.977364616861  C 1409.91520695958 472.072878022847  1408.1384268249 471.160846120032  1406.36553738465 470.241293499359  L 1405.44468475228 472.016689350839  C 1407.22259233388 472.938844753685  1409.00440162249 473.853458151386  1410.79006457549 474.760504883374  L 1411.6958298817 472.977364616861  Z M 1418.83861107468 476.554965721498  C 1417.04787609329 475.670668138111  1415.26089834869 474.778782282722  1413.47772602282 473.879332203079  L 1412.57700435132 475.665025477548  C 1414.3652239241 476.567021439362  1416.15725968688 477.461431766526  1417.95306332118 478.348232343133  L 1418.83861107468 476.554965721498  Z M 1426.0213830761 480.051583974936  C 1424.22076493279 479.187588435857  1422.42381799535 478.315962631532  1420.63059071452 477.43673006344  L 1419.75011513694 479.232492508001  C 1421.54841812513 480.114213732862  1423.35045129839 480.988306663119  1425.15616606879 481.854747730746  L 1426.0213830761 480.051583974936  Z M 1433.24322776158 483.466772428495  C 1431.432956617 482.623189372337  1429.6262701781 481.771935033011  1427.82321715821 480.913032362726  L 1426.96310021971 482.718634437409  C 1428.7712567586 483.579968220954  1430.58305700082 484.433632025012  1432.39845209521 485.279602832453  L 1433.24322776158 483.466772428495  Z M 1440.50322201237 486.800094542112  C 1438.68352926103 485.977031798298  1436.86733425697 485.146257733962  1435.05468596992 484.307794749108  L 1434.21503761332 486.123005656212  C 1436.03281657869 486.963841900062  1437.85415229989 487.796967459947  1439.67899566881 488.622359872568  L 1440.50322201237 486.800094542112  Z M 1447.8004378333 490.051124240133  C 1445.97155607401 489.248687015115  1444.14608465652 488.438499417908  1442.32407280067 487.620583293446  L 1441.50500035246 489.445171007036  C 1443.33216939005 490.265402232842  1445.16280778154 491.077883055903  1446.99686616773 491.882591569434  L 1447.8004378333 490.051124240133  Z M 1455.13394247143 493.219445965776  C 1453.29610547758 492.43773682959  1451.46159098413 491.648239260224  1449.63044845472 490.850974544749  L 1448.8320566113 492.68470584032  C 1450.66838216672 493.484227203594  1452.50808923044 494.27595943593  1454.35112819889 495.059881190043  L 1455.13394247143 493.219445965776  Z M 1458.83398909624 494.780828756279  C 1458.2132468727 494.520957407531  1457.59287621035 494.260199417457  1456.97287900829 493.998555584309  L 1456.1952698226 495.841196068593  C 1458.04051717095 496.619905372005  1459.88905774984 497.390787811946  1461.74084171753 498.153822603302  L 1458.83398909624 494.780828756279  Z M 1205.87918228448 289.675984000268  C 1204.86298214861 287.958959419854  1203.85917164575 286.234632300538  1202.86782900527 284.50313702331  L 1201.13217099473 285.49686297669  C 1202.12828886603 287.236698750218  1203.13693465655 288.969331837259  1204.15802976013 290.6946272096  L 1205.87918228448 289.675984000268  Z M 1454.6320409356 502.359052989786  L 1464 498  L 1460.42431700347 488.305955895069  L 1454.6320409356 502.359052989786  Z " fill-rule="nonzero" fill="#027db4" stroke="none" />
  </g>
</svg>