<?xml version="1.0" encoding="utf-8"?>
<svg version="1.1" xmlns:xlink="http://www.w3.org/1999/xlink" width="170px" height="14px" viewBox="1520 422  170 14" xmlns="http://www.w3.org/2000/svg">
  <g transform="matrix(0.601815023152056 -0.798635510047297 0.798635510047287 0.601815023152052 296.472254030664 1452.63134869368 )">
    <path d="M 1425.4871252529 288.938786397189  C 1423.61893064445 288.212468381266  1421.74595180706 287.498516607231  1419.86831167913 286.796977937391  L 1419.16831906916 288.670480098049  C 1421.03769692645 289.368931753361  1422.9024340045 290.079741890881  1424.76240790588 290.802863854522  L 1425.4871252529 288.938786397189  Z M 1432.93386484523 291.909805915832  C 1431.07877263285 291.150647277039  1429.21867880415 290.403768565739  1427.35370545179 289.669218805492  L 1426.62077450168 291.530082105782  C 1428.47754132162 292.261399591204  1430.32945008951 293.004991775995  1432.17637924993 293.760809852325  L 1432.93386484523 291.909805915832  Z M 1440.3270391661 295.011718389998  C 1438.48562659653 294.219955354789  1436.63899657961 293.440382111545  1434.78727032427 292.673049829831  L 1434.02162909923 294.520695227225  C 1435.865207114 295.284650979601  1437.70371131556 296.060793829006  1439.53702102837 296.84907283105  L 1440.3270391661 295.011718389998  Z M 1447.66434769062 298.243558601428  C 1445.83718775393 297.419437541724  1444.00459616236 296.607412345378  1442.16669320341 295.80753631203  L 1441.36857994707 297.641388877002  C 1443.19839549277 298.437745177167  1445.02292304294 299.246197179775  1446.84204283942 300.066691819735  L 1447.66434769062 298.243558601428  Z M 1454.94350727758 301.604320902407  C 1453.13116852887 300.748098258938  1451.31318560791 299.903873786363  1449.48967784332 299.071702897816  L 1448.65934090359 300.891191992734  C 1450.4748245988 301.719701039486  1452.2848077616 302.560210630291  1454.08917158849 303.412665595864  L 1454.94350727758 301.604320902407  Z M 1462.16225287992 305.092959528696  C 1460.36529926237 304.204901731195  1458.56249071154 303.328740678685  1456.75394555996 302.464533880518  L 1455.89164331176 304.269093337216  C 1457.69223023467 305.12949732442  1459.48710579988 306.001802963094  1461.27615219553 306.885952996927  L 1462.16225287992 305.092959528696  Z M 1469.31833824952 308.708388924936  C 1467.53732891899 307.788772309258  1465.75025571594 306.88094731074  1463.95723594014 305.984973517122  L 1463.063236705 307.77404181307  C 1464.84836656919 308.666073009885  1466.62757602761 309.569903262163  1468.40074829667 310.485473244385  L 1469.31833824952 308.708388924936  Z M 1476.40953663616 312.449484082443  C 1474.6450257871 311.498594804546  1472.87424401321 310.55938834681  1471.09730754492 309.631926356791  L 1470.17188950746 311.404946789825  C 1471.9410068363 312.328327624008  1473.70399655352 313.263401246151  1475.46074294018 314.210106279985  L 1476.40953663616 312.449484082443  Z M 1483.43364148042 316.315080889273  C 1481.68617817348 315.333214836195  1479.93223884073 314.362919170951  1478.17193860707 313.404257581729  L 1477.21538972849 315.160678443277  C 1478.96794402792 316.115121587559  1480.71416541662 317.081147613867  1482.45393927627 318.05869311428  L 1483.43364148042 316.315080889273  Z M 1490.38824516706 320.307251176409  C 1489.61877709599 319.855356161769  1488.84781948261 319.406002277777  1488.07538492694 318.959196868367  C 1487.11193216329 318.402852593178  1486.14643992042 317.850047697572  1485.17892772241 317.300793360303  L 1484.19154565082 319.040068107063  C 1485.15458542033 319.586783457473  1486.11561502176 320.137032164848  1487.07461502989 320.690803107057  C 1487.84302508281 321.135282476432  1488.60996629191 321.582296336955  1489.37542612987 322.03183738704  L 1490.38824516706 320.307251176409  Z M 1497.26303396514 324.436658692613  C 1495.5545933876 323.387340280487  1493.83839411226 322.350706817854  1492.11457773029 321.326843829823  L 1491.09324430433 323.046401340645  C 1492.80855870752 324.065214567288  1494.51629357215 325.096735283691  1496.21630800541 326.140878386559  L 1497.26303396514 324.436658692613  Z M 1504.05481619656 328.701212781147  C 1502.36746078084 327.618313876311  1500.67209733022 326.547944006228  1498.96886571681 325.490191479351  L 1497.91372647971 327.189215078459  C 1499.60855763979 328.241750698455  1501.29555944342 329.306841432068  1502.97459270829 330.384399406389  L 1504.05481619656 328.701212781147  Z M 1510.76093546896 333.099245495589  C 1509.09532517117 331.983189639947  1507.42146063342 330.879502003978  1505.73947995415 329.788273644942  L 1504.65094759048 331.466098812606  C 1506.32463262748 332.551945159695  1507.99024155231 333.650189333724  1509.64763694765 334.760740726531  L 1510.76093546896 333.099245495589  Z M 1517.37876889438 337.629036683544  C 1515.73555516567 336.480260387298  1514.08384422036 335.343686658205  1512.42377232914 334.219409266719  L 1511.30227258416 335.875379774309  C 1512.95415688873 336.99411215379  1514.59772148413 338.125080224511  1516.23283077178 339.268190678499  L 1517.37876889438 337.629036683544  Z M 1523.90572811506 342.288814659427  C 1522.2855536469 341.107767230353  1520.6566423089 339.938751943261  1519.01912849073 338.781865245122  L 1517.86510000385 340.415333411773  C 1519.4945374933 341.566514266604  1521.1154149306 342.72976389137  1522.72759858889 343.90498631478  L 1523.90572811506 342.288814659427  Z M 1530.33926031587 347.076756897402  C 1528.74275878861 345.863900265117  1527.13728415544 344.662900643648  1525.52296887244 343.473857118762  L 1524.33686300566 345.084184064692  C 1525.94321637669 346.26736314663  1527.54077270057 347.462439356876  1529.1294001745 348.669314098359  L 1530.33926031587 347.076756897402  Z M 1536.6768492227 351.990990744208  C 1535.10464505779 350.746799279499  1533.52323506044 349.514285056943  1531.93274970133 348.293549762347  L 1530.71503036271 349.880105658737  C 1532.29767134065 351.094820204436  1533.87128171711 352.321255583629  1535.43573166493 353.559310612026  L 1536.6768492227 351.990990744208  Z M 1542.91601608665 357.029594151585  C 1541.36872420238 355.754554480883  1539.8119973597 354.49100771646  1538.2459639929 353.239058104441  L 1536.99710745513 354.80122241977  C 1538.55541703964 356.046997331779  1540.10446600041 357.304312198232  1541.64412653664 358.573063287195  L 1542.91601608665 357.029594151585  Z M 1549.05432065351 362.190596428026  C 1547.53254622451 360.885207243045  1546.00111140135 359.591122133428  1544.46014253162 358.308447864749  L 1543.18063724573 359.845609607499  C 1544.71400595295 361.121957640079  1546.23788763616 362.40966023456  1547.75215657093 363.708611151942  L 1549.05432065351 362.190596428026  Z M 1555.08849542043 367.474449364567  C 1554.48123964305 366.931247439266  1553.87234812908 366.389876910112  1553.26182917445 365.850345153076  C 1552.36895927685 365.062865437356  1551.47262580619 364.279321558819  1550.57285483669 363.499736310648  L 1549.26320124098 365.01129426827  C 1550.15828504842 365.786818435878  1551.04995021778 366.566279516159  1551.93817082514 367.349654847374  C 1552.54543004136 367.886308541022  1553.15107115779 368.424790445001  1553.75508592956 368.965093228703  L 1555.08849542043 367.474449364567  Z M 1561.01255104494 372.880029112441  C 1559.5449419813 371.51402692601  1558.06722224693 370.1589279351  1556.57951375777 368.814843939098  L 1555.2387504638 370.298876886689  C 1556.71912147424 371.636331769671  1558.18955299511 372.984747320863  1559.64992371176 374.344012292279  L 1561.01255104494 372.880029112441  Z M 1566.82854876232 378.401704402109  C 1565.38824042337 377.006946277658  1563.93760777201 375.622889270367  1562.47677048948 374.249647568791  L 1561.10692152713 375.706875697927  C 1562.56055386156 377.073344478718  1564.00403189471 378.450575223382  1565.4372365357 379.838454306598  L 1566.82854876232 378.401704402109  Z M 1572.53421382767 384.037315603664  C 1571.12176954477 382.614347057021  1569.69879134587 381.201873363822  1568.26539663059 379.800011057026  L 1566.86699777326 381.22986441868  C 1568.29332288903 382.624812645926  1569.70928286337 384.030319923502  1571.1147608757 385.446270293195  L 1572.53421382767 384.037315603664  Z M 1578.12731464926 389.784658524748  C 1576.74328685566 388.334036105395  1575.34851966243 386.893698170985  1573.94312814174 385.463763553408  L 1572.51672632925 386.865682905338  C 1573.91518636408 388.288564988841  1575.30307447132 389.721799079291  1576.6802761464 391.165266930936  L 1578.12731464926 389.784658524748  Z M 1583.60566366134 395.641485272647  C 1582.25059367604 394.163776345974  1580.8845830079 392.696137513346  1579.50774435655 391.238689858994  L 1578.05389748116 392.612126884466  C 1579.42394547132 394.06238630858  1580.78321888261 395.522786647393  1582.13160557125 396.993207413865  L 1583.60566366134 395.641485272647  Z M 1588.9671181797 401.605505133486  C 1587.64153599579 400.101287658958  1586.30481612489 398.606921948918  1584.9570688501 397.122531292697  L 1583.47634553838 398.466948814945  C 1584.81744563262 399.944018356233  1586.14757271085 401.431013753675  1587.46661703393 402.927812326064  L 1588.9671181797 401.605505133486  Z M 1594.20958123978 407.674385468171  C 1592.91400531709 406.144247773201  1591.60709905946 404.623739660011  1590.28897029025 403.112986574694  L 1588.78194968062 404.42785876702  C 1590.09357734974 405.931160716114  1591.39403785747 407.444169580627  1592.68322391223 408.966760533171  L 1594.20958123978 407.674385468171  Z M 1599.33100241677 413.845752624725  C 1598.06593947914 412.290293174635  1596.78935799011 410.744237357279  1595.50136327116 409.207712726508  L 1593.96863478741 410.492525317941  C 1595.25027702945 412.021471705488  1596.52056233238 413.559902271165  1597.77938589418 415.107690090223  L 1599.33100241677 413.845752624725  Z M 1604.32937862757 420.11719286667  C 1603.09532346466 418.537020030581  1601.84956603899 416.966021200245  1600.59220912899 415.404325987381  L 1599.03437224974 416.658576463821  C 1600.28552779057 418.21256929045  1601.5251410565 419.775819848483  1602.75310977602 421.348199165452  L 1604.32937862757 420.11719286667  Z M 1609.20205714117 426.48697309709  C 1608.76016849813 425.897286775081  1608.3168464478 425.308675955701  1607.87209492307 424.721145860763  C 1607.10596302872 423.710621061333  1606.33509515317 422.703695611956  1605.55951673924 421.700402746615  L 1603.97718076347 422.923600547371  C 1604.74878278051 423.921749521962  1605.51569932906 424.923511749374  1606.27790510665 425.928854178997  C 1606.72054936778 426.513602507539  1607.1617714023 427.099426077666  1607.6015672987 427.686319695928  L 1609.20205714117 426.48697309709  Z M 1613.95318356676 432.945121842993  C 1612.77966886544 431.320144242824  1611.59541761147 429.702947338157  1610.40050753665 428.093637278425  L 1608.79474409496 429.285913995183  C 1609.98439614921 430.888142530051  1611.16343628511 432.498223204978  1612.33178711296 434.116050337647  L 1613.95318356676 432.945121842993  Z M 1618.58965363224 439.486072299011  C 1617.44498496272 437.840647553746  1616.28944416507 436.202812908292  1615.12310708654 434.572675866639  L 1613.4965625617 435.736442556629  C 1614.65776735078 437.359406427421  1615.80822336641 438.990034029928  1616.94785509503 440.628218333112  L 1618.58965363224 439.486072299011  Z M 1623.11002461296 446.107789125698  C 1621.99455816037 444.442429240125  1620.86808738722 442.78446649684  1619.73068623266 441.134009721  L 1618.08386675453 442.268904256383  C 1619.21626294778 443.912098447454  1620.33777685715 445.56276557715  1621.44833486876 447.220797299079  L 1623.11002461296 446.107789125698  Z M 1627.51288991069 452.808211851634  C 1626.42697277335 451.123435033725  1625.32992254722 449.445860098822  1624.22181124032 447.775597159384  L 1622.55522924767 448.881266396434  C 1623.65846447879 450.544179597094  1624.75068730179 452.214372617912  1625.83182602543 453.891735830922  L 1627.51288991069 452.808211851634  Z M 1631.79687949128 459.585255514584  C 1630.74084957269 457.881586014253  1629.67356126132 456.184920896645  1628.59508461173 454.495371527258  L 1626.9092586928 455.571471416248  C 1627.98298966944 457.253586179837  1629.04558154047 458.942785379927  1630.09696455954 460.638958140964  L 1631.79687949128 459.585255514584  Z M 1635.96066031102 466.436811310269  C 1634.93484621468 464.714779256244  1633.89765192487 462.999551905113  1632.84914552082 461.29124184076  L 1631.14460025199 462.337437533023  C 1632.18849286261 464.038230437983  1633.22112313626 465.745910191303  1634.24242329321 467.460364704402  L 1635.96066031102 466.436811310269  Z M 1640.00293673137 473.360747248564  C 1639.00765765861 471.620888483435  1638.0008801328 469.887632623929  1636.98267023673 468.161093437347  L 1635.25993601923 469.177059389464  C 1636.27366543706 470.896001202177  1637.27601279105 472.621630132134  1638.26691228918 474.353832912607  L 1640.00293673137 473.360747248564  Z M 1643.9224509222 480.354908816903  C 1642.95801657276 478.597764730356  1641.98196908868 476.847019697573  1640.9943725357 475.10278863381  L 1639.2539854306 476.088208708917  C 1640.23723621474 477.82476454841  1641.20898874986 479.567805693143  1642.16917925221 481.317217733622  L 1643.9224509222 480.354908816903  Z M 1647.71798325314 487.417119650699  C 1646.78469372886 485.643237011081  1645.839680002 483.875547582184  1644.88300410129 482.114167391459  L 1643.1255056627 483.068734957611  C 1644.07797185619 484.822364461923  1645.01882719345 486.582275441547  1645.94800991871 488.348352379621  L 1647.71798325314 487.417119650699  Z M 1649.17253588204 490.205118898738  C 1648.99789878895 489.867542475753  1648.82283832813 489.530185240124  1648.64735491285 489.193047988255  L 1646.87329201937 490.116466013845  C 1647.79467724449 491.886623508267  1648.70434261909 493.662856693441  1649.60222843464 495.445048981149  L 1649.17253588204 490.205118898738  Z M 1417.98913758183 286.099584322532  C 1416.10842190111 285.406332936951  1414.22314086755 284.725530259679  1412.333418227 284.05722097716  L 1411.666581773 285.94277902284  C 1413.54798897564 286.608147511707  1415.42497411593 287.285954420045  1417.2974139925 287.976155258032  L 1417.98913758183 286.099584322532  Z M 1641.06222300617 493.171468858067  L 1651 496  L 1654.63441963252 486.327823722928  L 1641.06222300617 493.171468858067  Z " fill-rule="nonzero" fill="#009999" stroke="none" />
  </g>
</svg>