<?xml version="1.0" encoding="utf-8"?>
<svg version="1.1" xmlns:xlink="http://www.w3.org/1999/xlink" width="184px" height="14px" viewBox="746 604  184 14" xmlns="http://www.w3.org/2000/svg">
  <g transform="matrix(0.920504853452442 0.390731128489272 -0.390731128489269 0.920504853452438 305.353652313797 -278.86115113345 )">
    <path d="M 624.648874564511 647.229080672226  C 618.02189325936 646.637332454645  611.407621257143 645.910976684553  604.810154795826 645.050463196198  L 604.551483998854 647.033665006099  C 611.175817908157 647.897682839875  617.817025797046 648.62699661301  624.4709947461 649.221154659356  L 624.648874564511 647.229080672226  Z M 650.542139181698 648.853181551557  C 643.893155352307 648.612222616611  637.249754615263 648.236172791321  630.616051248043 647.725264964442  L 630.462472092635 649.719359606886  C 637.1231904786 650.232348049035  643.793645725863 650.609929295392  650.469706801981 650.851869508785  L 650.542139181698 648.853181551557  Z M 676.482289102771 649.094970007971  C 673.962941840322 649.143392568976  671.44322357586 649.170070621733  668.923415832646 649.175001185554  C 664.790910825415 649.180008388378  660.65850721379 649.13285539161  656.527192431093 649.033553462407  L 656.479133514705 651.03297596417  C 660.627520877217 651.132688256708  664.777001623785 651.180032978166  668.926584121812 651.17499881422  C 671.458147773054 651.170049535196  673.989621551587 651.143249162512  676.520722565353 651.09460069111  L 676.482289102771 649.094970007971  Z M 702.388342147521 647.828850910752  C 695.757034861337 648.35015577287  689.114711286012 648.720311425944  682.46654180999 648.939029740603  L 682.532304287012 650.937948272363  C 689.210834766909 650.718231110184  695.883492648914 650.346385022284  702.545083932361 649.822699453868  L 702.388342147521 647.828850910752  Z M 728.174008780796 645.031345199701  C 721.585192011546 645.944301203197  714.976430422375 646.707025232136  708.352868277058 647.318923581699  L 708.536848988577 649.310443377682  C 715.190659760479 648.695750597527  721.829602384728 647.929543344029  728.44850910463 647.012418033348  L 728.174008780796 645.031345199701  Z M 753.748843892858 640.712265330496  C 747.22562839677 642.013670215484  740.673609507895 643.166287310028  734.097887321456 644.169219416327  L 734.399440941683 646.146355075337  C 741.005193278151 645.138842757045  747.587134068316 643.980961865874  754.140139925745 642.673613696964  L 753.748843892858 640.712265330496  Z M 779.016665612743 634.863317152271  C 772.58360792634 636.554992028403  766.112843596777 638.099882535193  759.609409470661 639.496786129  L 760.029419293036 641.452186791041  C 766.562553442503 640.048903787748  773.062868598287 638.496958041642  779.525304911396 636.79755758817  L 779.016665612743 634.863317152271  Z M 803.894505840797 627.527125530375  C 797.572875478067 629.596662831354  791.204915143831 631.52190537927  784.795581662006 633.301354564237  L 785.330612239218 635.228461795673  C 791.769216003543 633.440886183755  798.166257676489 631.506851396613  804.516757797221 629.427862888015  L 803.894505840797 627.527125530375  Z M 828.294421945782 618.731061865564  C 822.106392487112 621.171202538097  815.863572234347 623.470044198234  809.570820602297 625.625797426331  L 810.218995275503 627.517851757743  C 816.540484781542 625.35225358927  822.811814880598 623.042913529414  829.028103965776 620.591629169786  L 828.294421945782 618.731061865564  Z M 852.141001520353 608.520998654792  C 847.472103329898 610.672342789247  842.769714173387 612.750246903609  838.035572745639 614.753942698829  C 836.642808461299 615.342198293835  835.247007274928 615.923237615652  833.848225330755 616.497037292755  L 834.607270579932 618.347402205334  C 836.012670312891 617.770887819849  837.415074694422 617.187098349175  838.814427296276 616.596057283125  C 843.568079724464 614.584112046821  848.289847604454 612.497649074172  852.977984908221 610.337439903066  L 852.141001520353 608.520998654792  Z M 875.409007340529 597.044990579065  C 869.521770294795 600.144585252433  863.572153413203 603.124223785264  857.563841310862 605.982060878713  L 858.422908610311 607.788162585433  C 864.455688895071 604.918687268448  870.429534929328 601.926914489272  876.340747092785 598.814697061526  L 875.409007340529 597.044990579065  Z M 898.038510499497 584.356237961877  C 892.32317446717 587.762406074203  886.53921088995 591.052079638776  880.69020179337 594.22322135115  L 881.643448622332 595.981436492444  C 887.516277157567 592.797380658337  893.323795282804 589.494310264254  899.062406385107 586.074270911337  L 898.038510499497 584.356237961877  Z M 598.877507437644 644.239851237385  C 592.291022750612 643.298965144739  585.724338108911 642.224330490308  579.181520279515 641.016612798474  L 578.818479720485 642.983387201526  C 585.387942447396 644.196023189263  591.981369181539 645.275034173735  598.594676594503 646.21975192029  L 598.877507437644 644.239851237385  Z M 912.423275716038 575.443972293339  C 909.358301166791 577.416788909775  906.271458393651 579.35542229968  903.163321244134 581.259512068942  L 904.208087351201 582.964933946814  C 907.335827399869 581.048835158025  910.442090863468 579.097897653768  913.526297711167 577.112485731509  L 912.423275716038 575.443972293339  Z M 916.323029549464 583.195477924454  L 918 573  L 907.976502528895 570.492112752386  L 916.323029549464 583.195477924454  Z " fill-rule="nonzero" fill="#000000" stroke="none" />
  </g>
</svg>