<?xml version="1.0" encoding="utf-8"?>
<svg version="1.1" xmlns:xlink="http://www.w3.org/1999/xlink" width="358px" height="46px" viewBox="514 1268  358 46" xmlns="http://www.w3.org/2000/svg">
  <g transform="matrix(-0.342020143325672 -0.939692620785909 0.939692620785907 -0.342020143325669 -283.123214109916 2383.75499123807 )">
    <path d="M 1107.99615530268 1030.80761801786  C 1109.99372630111 1030.81826805013  1111.9912524279 1030.83611762281  1113.98869476156 1030.86116638812  L 1114.01377362917 1028.8613236317  C 1112.01152612036 1028.83621460748  1110.00919461672 1028.81832209472  1108.00681813361 1028.80764644205  L 1107.99615530268 1030.80761801786  Z M 1100.00579825726 1030.80341594539  C 1102.00337935233 1030.79486693546  1104.00098477223 1030.79351756468  1105.99857559395 1030.79936785935  L 1106.0044329192 1028.79937643644  C 1104.00203656501 1028.79351206792  1101.99962557771 1028.79486468483  1099.99723897357 1028.80343426081  L 1100.00579825726 1030.80341594539  Z M 1092.01576987036 1030.87600897036  C 1094.01317654055 1030.84826170792  1096.01067672998 1030.82771351833  1098.00823151734 1030.81436480196  L 1097.99486675918 1028.81440945665  C 1095.99250652603 1028.82779028554  1093.99020102236 1028.84838790718  1091.98798926269 1028.87620192021  L 1092.01576987036 1030.87600897036  Z M 1084.02680820046 1031.02539038718  C 1086.02385594055 1030.97844743531  1088.02106638531 1030.93870232499  1090.01840061939 1030.90615583063  L 1089.98581501235 1028.9064213037  C 1087.98367586311 1028.93904609398  1085.98166080102 1028.97888681769  1083.97980883498 1029.02594269853  L 1084.02680820046 1031.02539038718  Z M 1076.03965120751 1031.25154639711  C 1078.03615554526 1031.18541209205  1080.03289175823 1031.12647373235  1082.02982094033 1031.07473246641  L 1081.97801749442 1029.07540347822  C 1079.97628437158 1029.12726921627  1077.97474468212 1029.18634936186  1075.97343742567 1029.25264276384  L 1076.03965120751 1031.25154639711  Z M 1068.05503668476 1031.55445610957  C 1070.05081319817 1031.46913656031  1072.04689073594 1031.39101039551  1074.04323040483 1031.32007913745  L 1073.97221390526 1029.32134037093  C 1071.97107171385 1029.39244226577  1069.97019228404 1029.47075637588  1067.96961460289 1029.55628117531  L 1068.05503668476 1031.55445610957  Z M 1060.0737021906 1031.93409154406  C 1062.06856652485 1031.82959463177  1064.06380100497 1031.73228787858  1066.0593667538 1031.64217318049  L 1065.96914376054 1029.64420926403  C 1063.96877735087 1029.73454074781  1061.96874300705 1029.83208158835  1059.96907969934 1029.9368298851  L 1060.0737021906 1031.93409154406  Z M 1052.09638498044 1032.3904176327  C 1054.09015286513 1032.26675301003  1056.08435998268 1032.15027465691  1058.07896747628 1032.04098484291  L 1057.96954632344 1030.04398033332  C 1055.97014047431 1030.1535330619  1053.97113596443 1030.2702916228  1051.97257174402 1030.39425374101  L 1052.09638498044 1032.3904176327  Z M 1044.12382193858 1032.92339222356  C 1046.11630920445 1032.7805713137  1048.10930474975 1032.64493212004  1050.10276974128 1032.5164772855  L 1049.97416053637 1030.52061665098  C 1047.97589993779 1030.6493805047  1045.97810991479 1030.78534600069  1043.98082939395 1030.92851048968  L 1044.12382193858 1032.92339222356  Z M 1036.15674951021 1033.53296608446  C 1038.14777210633 1033.37100208013  1040.1393719815 1033.21621457526  1042.13151032971 1033.06860658586  L 1041.98372495268 1031.07407418895  C 1039.98679418892 1031.22203727357  1037.99040319346 1031.37719714518  1035.99459086593 1031.53955078049  L 1036.15674951021 1033.53296608446  Z M 1028.19590363331 1034.21908290757  C 1030.18527764404 1034.03799076978  1032.17529788012 1033.86406925179  1034.16592556632 1033.69732174245  L 1033.99897766846 1031.70430182298  C 1032.00356120081 1031.87145047081  1030.00875364463 1032.04579038553  1028.01459386836 1032.22731817017  L 1028.19590363331 1034.21908290757  Z M 1020.24201967069 1034.9816793146  C 1022.22956133264 1034.78147577127  1024.2178181067 1034.58843630573  1026.20675125169 1034.40256467932  L 1026.02065625439 1032.41124133743  C 1024.02693840444 1032.59756010852  1022.03389855258 1032.79106396217  1020.04157553311 1032.99174912795  L 1020.24201967069 1034.9816793146  Z M 1012.2958323421 1035.82068486265  C 1014.28135806127 1035.60138840708  1016.26766771296 1035.38924882551  1018.25472259421 1035.18427025145  L 1018.04949768752 1033.19482743054  C 1016.05766261983 1033.40029911418  1014.06657457436 1033.61294903232  1012.0762723474 1033.83277304148  L 1012.2958323421 1035.82068486265  Z M 1004.36246680135 1036.7449941576  C 1006.34391477259 1036.50021932908  1008.32663233662 1036.26583371896  1010.31053775886 1036.04184698943  L 1010.08615944983 1034.05447325144  C 1008.09530829304 1034.27924416774  1006.10564915319 1034.51445037153  1004.11726405103 1034.76008216679  L 1004.36246680135 1036.7449941576  Z M 996.443794850476 1037.77945837774  C 998.421627440403 1037.50700833528  1000.40087473241 1037.2449287481  1002.38145513498 1036.99323042004  L 1002.12931678127 1035.00918751461  C 1000.14180228518 1035.26176704888  998.155625566914 1035.52476418749  996.170868503675 1035.79816808876  L 996.443794850476 1037.77945837774  Z M 988.540357688315 1038.92451851246  C 990.514188371811 1038.6244465006  992.489578590207 1038.33472415422  994.466446910995 1038.05536341669  L 994.186597787658 1036.0750390826  C 992.202808369478 1036.35537787358  990.220502228649 1036.64611454982  988.239761082655 1036.94723712615  L 988.540357688315 1038.92451851246  Z M 980.653699872779 1040.17995078424  C 982.623142906814 1039.85231544563  984.594290003794 1039.53500696009  986.567059906125 1039.22803840817  L 986.259554703696 1037.25181965751  C 984.279878052756 1037.55986291895  982.301829888583 1037.87828231458  980.325491753442 1038.20706471799  L 980.653699872779 1040.17995078424  Z M 972.785362682612 1041.54550984564  C 974.750033181629 1041.19037520962  976.716551938613 1040.84554259608  978.684837886765 1040.51102622022  L 978.349736700564 1038.5392992627  C 976.374559702286 1038.87498679416  974.40115608217 1039.22102668088  972.429607190862 1039.57740465788  L 972.785362682612 1041.54550984564  Z M 964.936883816183 1043.02092882735  C 966.896397827341 1042.63836429738  968.857903930208 1042.26607494601  970.821321264777 1041.90407612029  L 970.458689583171 1039.93722628782  C 968.488398243692 1040.30049248633  966.520024827201 1040.67408523804  964.553650476829 1041.05798914218  L 964.936883816183 1043.02092882735  Z M 957.109797090976 1044.60591939023  C 959.063771669082 1044.19599973039  961.019881783481 1043.79632639718  962.978046796454 1043.40691586654  L 962.587955488056 1041.44532753788  C 960.622934858741 1041.83610141083  958.659976322348 1042.23717401683  956.699160798785 1042.64852882227  L 957.109797090976 1044.60591939023  Z M 949.305632143838 1046.30017178177  C 951.253685426315 1045.8629771021  953.204017272322 1045.43599789465  955.15654728219 1045.01925176105  L 954.739072582011 1043.06330828674  C 952.779706684179 1043.48151346571  950.822546646133 1043.90998754493  948.867673148898 1044.34871286118  L 949.305632143838 1046.30017178177  Z M 941.525914132044 1048.10335489652  C 943.467665413557 1047.63897063736  945.411837840387 1047.18476899967  947.358351266933 1046.74076870723  L 946.913574761482 1044.79085233462  C 944.960246511304 1045.23640709036  943.009267456763 1045.69219890668  941.060718024084 1046.15820899425  L 941.525914132044 1048.10335489652  Z M 933.772163435241 1050.01511634089  C 935.707233241941 1049.52363325624  937.64486630274 1049.04229795228  939.584982741458 1048.57113027138  L 939.112991352799 1046.62762206995  C 937.166082486516 1047.10043932831  935.221665692697 1047.58345980696  933.279821126898 1048.07666359414  L 933.772163435241 1050.01511634089  Z M 926.045895358314 1052.03508250195  C 927.973905522209 1051.51659664166  929.904620547898 1051.00822173815  931.837960844538 1050.50997874844  L 931.338846813301 1048.57325853535  C 929.398737812699 1049.07324589427  927.461263274216 1049.58340063924  925.526503067373 1050.10370173988  L 926.045895358314 1052.03508250195  Z M 918.348619835262 1054.16285862048  C 920.269193567913 1053.61747131154  922.192613241597 1053.08215615948  924.118799566061 1052.55693523191  L 923.592660433419 1050.62738149773  C 921.659730451344 1051.15444124538  919.729576806193 1051.69163055783  917.802279065845 1052.23892729019  L 918.348619835262 1054.16285862048  Z M 910.688102577294 1056.40629663344  C 912.52631993556 1055.84910095533  914.368421437049 1055.30480064686  916.214271248381 1054.77343584379  C 916.285845951145 1054.75280979192  916.357424685464 1054.73219773993  916.42900745115 1054.71159968788  L 915.875946039754 1052.78958952266  C 915.804202894225 1052.81023372425  915.732463781706 1052.8308919402  915.660728707007 1052.8515641691  C 913.805985817258 1053.38549039375  911.955009121391 1053.93241381306  910.107935093971 1054.49229410175  L 910.688102577294 1056.40629663344  Z M 903.073637291617 1058.79534717607  C 904.971402537802 1058.17961580328  906.873626866643 1057.5777136351  908.780158943573 1056.98968855681  L 908.190705513959 1055.07852538892  C 906.274894360769 1055.66941238052  904.363411921458 1056.27424400171  902.456410267107 1056.89297213412  L 903.073637291617 1058.79534717607  Z M 895.507002046876 1061.331816209  C 897.392452232815 1060.67934732128  899.282629216553 1060.04061843721  901.177382622043 1059.41568037189  L 900.550926541337 1057.51632448661  C 898.646951386286 1058.14430412046  896.74757492641 1058.78614169286  894.852948269604 1059.4417861414  L 895.507002046876 1061.331816209  Z M 887.991050614894 1064.01474709781  C 889.863474639228 1063.32578677511  891.740891393781 1062.65047207305  893.623151517743 1061.98885671735  L 892.959929055126 1060.10202446061  C 891.068507986329 1060.76685989291  889.18195385952 1061.44546134619  887.300416762569 1062.13777483323  L 887.991050614894 1064.01474709781  Z M 880.528617651996 1066.84312796967  C 882.387309326181 1066.11793605478  884.251257780063 1065.40629023102  886.120314724249 1064.70824711452  L 885.420576015419 1062.83465010893  C 883.542422386154 1063.53609059565  881.669402110153 1064.2511999939  879.801664198574 1064.97992141199  L 880.528617651996 1066.84312796967  Z M 873.122517629903 1069.81589209499  C 874.966775944619 1069.05474209551  876.816553105867 1068.30703354873  878.671701951673 1067.5728259398  L 877.935710904502 1065.71317081626  C 876.071533064219 1066.45095180771  874.212753052419 1067.20229944596  872.359518747355 1067.96715395636  L 873.122517629903 1069.81589209499  Z M 865.775543774257 1072.93191828975  C 867.60467316374 1072.13509727495  869.439581385146 1071.35160800494  871.280122459424 1070.58151281147  L 870.508156654427 1068.7365009427  C 868.65865768158 1069.51034418327  866.814818976632 1070.29764668924  864.976787229157 1071.0983458255  L 865.775543774257 1072.93191828975  Z M 858.490467011143 1076.19003133837  C 860.303777615524 1075.35783983091  862.123124857756 1074.53886533223  863.948363996695 1073.73317299719  L 863.140714582342 1071.90350023314  C 861.306592019205 1072.71311386629  859.478390028639 1073.53607430724  857.656254056142 1074.37231608407  L 858.490467011143 1076.19003133837  Z M 851.270034922034 1079.58900243689  C 853.066842847565 1078.72175429947  854.869942940074 1077.86760345004  856.679191751057 1077.02661784192  L 855.836163333961 1075.21297424739  C 854.018108923602 1076.05805292568  852.206233157458 1076.91636092043  850.40068018224 1077.78782994754  L 851.270034922034 1079.58900243689  Z M 844.116970707533 1083.12754965648  C 845.89659828445 1082.22557197351  847.682771184404 1081.33656691803  849.475347305561 1080.46060521626  L 848.5972578356 1078.66367481061  C 846.795957260914 1079.54389981092  845.001091071835 1080.43723164685  843.212802061849 1081.34359924793  L 844.116970707533 1083.12754965648  Z M 837.033972160313 1086.80433842687  C 838.795748198467 1085.86797138106  840.564320247135 1084.94444740959  842.339547604747 1084.03383998491  L 841.426728255144 1082.25430048408  C 839.642860880295 1083.16933982776  837.865681205704 1084.09735858296  836.095330617776 1085.03828291964  L 837.033972160313 1086.80433842687  Z M 830.036027376397 1090.63075158231  C 831.773741641607 1089.65288342691  833.520299538846 1088.69081460385  835.27548506093 1087.74466409789  L 834.32646858653 1085.98416197312  C 832.560625665789 1086.93605745761  830.80346275643 1087.9039679144  829.055197177161 1088.8877736363  L 830.036027376397 1090.63075158231  Z M 823.133251420958 1094.62596543482  C 824.846780207426 1093.60631054479  826.569532565581 1092.60223623417  828.301295432377 1091.61386668283  L 827.309932027597 1089.87685816252  C 825.567653983334 1090.87122904431  823.834441159102 1091.88140004387  822.110507911591 1092.90724622738  L 823.133251420958 1094.62596543482  Z M 816.329230821371 1098.78713754118  C 818.017569482061 1097.72629374321  819.715506246239 1096.68080263683  821.422831120016 1095.65079352412  L 820.389702024185 1093.93829702154  C 818.672010359234 1094.97456029803  816.963763807979 1096.02639957409  815.265173639451 1097.0936847625  L 816.329230821371 1098.78713754118  Z M 809.627954795262 1103.11182819373  C 811.290113452152 1102.01041746372  812.962239116983 1100.92412253612  814.644124988045 1099.85307775948  L 813.569835927842 1098.16609731646  C 811.877737729941 1099.24364542338  810.195459001769 1100.33653627941  808.523207800698 1101.44463472025  L 809.627954795262 1103.11182819373  Z M 803.033352320806 1107.5975018134  C 804.66835644532 1106.45616991175  806.313690638494 1105.32970806092  807.969151412142 1104.21825557708  L 806.854332246455 1102.5577802753  C 805.188819597848 1103.67598144299  803.533495017787 1104.80928311381  801.888563230064 1105.95754512564  L 803.033352320806 1107.5975018134  Z M 796.549289833156 1112.24152843634  C 798.156180817461 1111.06094452937  799.773758874672 1109.89497620322  801.401823949276 1108.74376766013  L 800.247128299917 1107.11077104123  C 798.609177695652 1108.26896966498  796.981777785453 1109.44201769244  795.365129839504 1110.62977004581  L 796.549289833156 1112.24152843634  Z M 790.179568957541 1117.04118525585  C 791.757404676662 1115.82204152343  793.346278207026 1114.6172503327  794.94599304318 1113.42696068735  L 793.752097911661 1111.82240018213  C 792.142669687081 1113.01991720663  790.544148596168 1114.23202382917  788.956732337524 1115.45857014132  L 790.179568957541 1117.04118525585  Z M 783.927924280359 1121.99365821878  C 785.475779644505 1120.73666944852  787.0350170867 1119.4937617659  788.605443766822 1118.26508888867  L 787.373049137429 1116.68990525575  C 785.793086905113 1117.92603857319  784.224381851185 1119.17649312907  782.667127986745 1120.44111427222  L 783.927924280359 1121.99365821878  Z M 777.798021159581 1127.09604367543  C 779.314988656514 1125.80194684361  780.843675824984 1124.52165138958  782.383893603203 1123.25531565505  L 781.113722032593 1121.7104324293  C 779.564152129111 1122.98445729103  778.02618284866 1124.27252663498  776.500004401008 1125.574481158  L 777.798021159581 1127.09604367543  Z M 771.79345357574 1132.34535008194  C 773.278643802874 1131.01490392141  774.77588442377 1129.69797133701  776.284990265793 1128.39471520162  L 774.977786459356 1126.8810381527  C 773.459517402185 1128.19220759412  771.953185611181 1129.51713652725  770.458977383314 1130.85566109029  L 771.79345357574 1132.34535008194  Z M 765.927447985486 1137.74491888087  C 767.085050671081 1136.65028705662  768.250990000437 1135.56450521902  769.425164124893 1134.48766821473  C 769.720388964063 1134.21799866006  770.016104599248 1133.94886690337  770.312309559857 1133.68027428305  L 768.968839935095 1132.19869088434  C 768.670344181232 1132.46936074928  768.372342352058 1132.74057481728  768.074835934491 1133.01233173508  C 766.892666141462 1134.09648781099  765.718790557959 1135.1896533576  764.55331181085 1136.29173280416  L 765.927447985486 1137.74491888087  Z M 760.203591292141 1143.29714674769  C 761.616815341659 1141.89093425235  763.043435798867 1140.49824940121  764.483257526038 1139.11928269017  L 763.099897862885 1137.67487414604  C 761.65088054861 1139.06264778662  760.215148815722 1140.46422717979  758.792899048229 1141.87942061301  L 760.203591292141 1143.29714674769  Z M 754.622963374394 1148.99331754699  C 755.999923698545 1147.55157691086  757.390620533181 1146.12301842843  758.794863654294 1144.70783750255  L 757.375174409255 1143.29912090666  C 755.961962927889 1144.72334004834  754.56238424794 1146.16102218386  753.176629808258 1147.61197066243  L 754.622963374394 1148.99331754699  Z M 749.189182925807 1154.82973766275  C 750.528986650621 1153.35340376584  751.882858081405 1151.88989798435  753.250612031275 1150.43942050131  L 751.795513785404 1149.06730931964  C 750.419024517576 1150.527050444  749.056506431149 1151.99990307353  747.708145895704 1153.48566574672  L 749.189182925807 1154.82973766275  Z M 743.905773418403 1160.80262253592  C 745.207551763662 1159.29265268986  746.523719888348 1157.79514860269  747.854097762756 1156.31031510782  L 746.364534057664 1154.97569906998  C 745.025659571904 1156.47001562479  743.701085588076 1157.97708369409  742.390993285648 1159.49669713628  L 743.905773418403 1160.80262253592  Z M 738.776160817907 1166.90809911846  C 740.039069660515 1165.36547244572  741.316681025121 1163.83494109205  742.608820155938 1162.31671440844  L 741.085756881963 1161.02045893074  C 739.78536535593 1162.54838194373  738.499594379366 1164.08868821196  737.22861982414 1165.64116704742  L 738.776160817907 1166.90809911846  Z M 733.803671362223 1173.14220838476  C 735.026891783558 1171.56792518375  736.265117935793 1170.0053590189  737.518180450355 1168.45472362309  L 735.962605220246 1167.19766924738  C 734.701539877768 1168.75820795456  733.455405651773 1170.33075362796  732.224372992485 1171.91509116976  L 733.803671362223 1173.14220838476  Z M 728.991529404568 1179.50090789885  C 730.174268221514 1177.89598899527  731.372306247958 1176.30240124721  732.585479612389 1174.72036263074  L 730.998401120892 1173.50332447939  C 729.777479685196 1175.0954669675  728.571790251073 1176.69923234704  727.381497736602 1178.31440124984  L 728.991529404568 1179.50090789885  Z M 724.342855322683 1185.98007443564  C 725.484345601949 1184.34556052058  726.641418648707 1182.72198453283  727.813916194788 1181.10956855033  L 726.196363564578 1179.93333579764  C 725.01637772803 1181.55604966031  723.85191490114 1183.18999480289  722.703134362883 1184.83494772912  L 724.342855322683 1185.98007443564  Z M 719.860663495454 1192.57550665461  C 720.960165050882 1190.91245760969  722.07552282734 1189.25994617129  723.206584262609 1187.61819837524  L 721.559606376961 1186.48353373572  C 720.421321287714 1188.13576674294  719.298840150497 1189.79883213576  718.192316501893 1191.47250243473  L 719.860663495454 1192.57550665461  Z M 715.550198026544 1199.2848167676  C 716.382992856251 1197.95361849668  717.224506754556 1196.62789476233  718.074685460281 1195.30773104777  C 718.304559898359 1194.95203049331  718.535155681688 1194.59679663309  718.7664713869 1194.24203165983  L 717.091136209556 1193.14967089362  C 716.858052145484 1193.50714796887  716.625694414088 1193.86509810594  716.394064453343 1194.22351908961  C 715.538858254928 1195.55147662729  714.692370961565 1196.88502894568  713.854657191933 1198.22408999875  L 715.550198026544 1199.2848167676  Z M 711.394512126995 1206.0945768255  C 712.414493320157 1204.380660942  713.448730088799 1202.67526904143  714.497114844993 1200.97857852955  L 712.795711145979 1199.92728149589  C 711.741489683075 1201.63341804829  710.701494974291 1203.3483044329  709.675835206503 1205.0717622563  L 711.394512126995 1206.0945768255  Z M 707.391066323484 1212.99493761609  C 708.372737333309 1211.25879496107  709.368849684428 1209.5308576323  710.37929975484 1207.8113053809  L 708.654970809339 1206.79804841068  C 707.638895227235 1208.52717398151  706.637237187282 1210.26473131222  705.65010088837 1212.01053965096  L 707.391066323484 1212.99493761609  Z M 703.541834928671 1219.98249620339  C 704.48471164083 1218.2249829614  705.442208338282 1216.47535234252  706.414225416094 1214.73378635452  L 704.667821582682 1213.75906913879  C 703.690392962437 1215.51033100401  702.727565562334 1217.26970239861  701.779439541852 1219.03700030149  L 703.541834928671 1219.98249620339  Z M 699.848716203869 1227.05380664958  C 700.752333635558 1225.27578954414  701.670742486663 1223.50532847131  702.603847218402 1221.7426076058  L 700.836229741958 1220.80691082961  C 699.897930105756 1222.57944534859  698.974408167056 1224.35976316719  698.065759996513 1226.14767908536  L 699.848716203869 1227.05380664958  Z M 696.313531422906 1234.2053817143  C 697.177443952177 1232.40773758047  698.056312040533 1230.6173191625  698.950044262491 1228.83431271115  L 697.162084849475 1227.93809781649  C 696.263376922916 1229.73103085791  695.37961588354 1231.53141713084  694.510893665818 1233.33906934759  L 696.313531422906 1234.2053817143  Z M 692.938023973957 1241.43369457443  C 693.761805559457 1239.61730992644  694.600699468343 1237.80781711411  695.454618433487 1236.00540437252  L 693.647198822051 1235.14911333076  C 692.788525805952 1236.9615607037  691.944961495601 1238.78112756447  691.116593643965 1240.60762463007  L 692.938023973957 1241.43369457443  Z M 689.723858499788 1248.73518056336  C 690.507102890886 1246.90095115733  691.305608916955 1245.07327630812  692.119293512304 1243.25234614212  L 690.293305037463 1242.43640123605  C 689.475090389287 1244.26746912604  688.672138814522 1246.10531924917  687.884533841339 1247.9497604205  L 689.723858499788 1248.73518056336  Z M 686.672620076833 1256.1062389289  C 687.414941013936 1254.25506932121  688.172665371291 1252.41011375902  688.945714325562 1250.57156416643  L 687.102057479629 1249.79636778199  C 686.324704704659 1251.6451531918  685.562761843731 1253.50038023537  684.816308159023 1255.3618559201  L 686.672620076833 1256.1062389289  Z M 683.785813433506 1263.54323460901  C 684.48684483857 1261.67603771011  685.203413852905 1259.81471128097  685.935445934432 1257.95944894864  L 684.075029922934 1257.22538337653  C 683.338922375287 1259.09097457144  682.618363982859 1260.96266362404  681.913429702754 1262.84025582923  L 683.785813433506 1263.54323460901  Z M 681.064689190681 1271.04283916936  C 681.169638033781 1270.7436154173  681.274885935693 1270.44449664  681.380432738592 1270.14548328602  C 681.939221646358 1268.56380251674  682.509082332996 1266.98605509583  683.089972862818 1265.41235712871  L 681.213715156122 1264.71978437581  C 680.629559356663 1266.30232832668  680.056495994674 1267.88894471082  679.494567246056 1269.47951675759  C 679.38854664559 1269.77987183485  679.282826372541 1270.08033283821  679.177406585236 1270.38089931772  L 681.064689190681 1271.04283916936  Z M 678.485795179294 1278.5979481311  C 679.114662278547 1276.70380090171  679.755439495225 1274.81362870351  680.408088788695 1272.9275437492  L 678.518046563207 1272.27352510583  C 677.862654255778 1274.16753706996  677.219183922176 1276.06565345626  676.587673762937 1277.96776158033  L 678.485795179294 1278.5979481311  Z M 676.034004973848 1286.19525624215  C 676.631008268538 1284.29082598056  677.239986687902 1282.39017039235  677.860904079086 1280.49340231257  L 675.960156313432 1279.87118214948  C 675.33662927402 1281.77592213909  674.725091384618 1283.68456597595  674.125578950046 1285.59700035069  L 676.034004973848 1286.19525624215  Z M 673.710008601236 1293.83262533143  C 674.274980071956 1291.91844801667  674.851988304354 1290.00784395509  675.440999043509 1288.10092657245  L 673.530080680309 1287.51068000602  C 672.938594393109 1289.42561195493  672.359161057897 1291.34424607747  671.791815073562 1293.2664684712  L 673.710008601236 1293.83262533143  Z M 671.514460122315 1301.50790595318  C 672.047240764636 1299.58452030744  672.592116418026 1297.66450548908  673.149054735161 1295.74797548253  L 671.228503579427 1295.18986863057  C 670.669224511147 1297.11445360419  670.122058804676 1299.0425380359  669.587038943289 1300.97400746222  L 671.514460122315 1301.50790595318  Z M 669.447977447822 1309.21893799187  C 669.94841731703 1307.28688532895  670.461007042714 1305.35800011888  670.985716194228 1303.4323968728  L 669.056072762007 1302.90658680777  C 668.529158315021 1304.84028315478  668.014414230504 1306.77727525946  667.511871066976 1308.71744812951  L 669.447977447822 1309.21893799187  Z M 667.511142164476 1316.96355127021  C 667.979100417791 1315.02337534308  668.459259953535 1313.08616260293  668.95159226635 1311.15202805517  L 667.0133996326 1310.65866276  C 666.518998100647 1312.6009262648  666.036820506622 1314.5462808993  665.566895475689 1316.49461117474  L 667.511142164476 1316.96355127021  Z M 665.704499371296 1324.73956615984  C 666.139844307489 1322.7918130077  666.587438518163 1320.84681794271  667.047255431263 1318.90469643221  L 665.101059077013 1318.44391475863  C 664.639309603464 1320.3941987945  664.189834203022 1322.34736846213  663.752659559436 1324.30330780881  L 665.704499371296 1324.73956615984  Z M 664.02855752619 1332.54479419479  C 664.431166622653 1330.5900119894  664.846069538256 1328.63778199501  665.27324164169 1326.68822010855  L 663.31958930052 1326.26015173803  C 662.890621839216 1328.21790742096  662.473975131807 1330.17834242559  662.06967391312 1332.14134036788  L 664.02855752619 1332.54479419479  Z M 662.48378830285 1340.37703868743  C 662.853548250095 1338.41577757873  663.23564310118 1336.45686208664  663.630050172496 1334.50040850498  L 661.669491676382 1334.10517391222  C 661.273426955064 1336.06985025538  660.889726200892 1338.03699885615  660.518412192826 1340.00650293187  L 662.48378830285 1340.37703868743  Z M 661.070626458014 1348.23409534664  C 661.407433191546 1346.26690730801  661.756612442109 1344.30185763145  662.118143480176 1342.33906297495  L 660.151230604749 1341.97677339398  C 659.788180091069 1343.94781746284  659.437533278112 1345.92112602937  659.099310982528 1347.89658194527  L 661.070626458014 1348.23409534664  Z M 659.789469709104 1356.11375289824  C 660.093228438715 1354.14119157112  660.409393816451 1352.17056074971  660.737947072701 1350.20197742333  L 658.765233381958 1349.8727348162  C 658.435299252122 1351.84959188408  658.117805065707 1353.8285050524  657.812769671209 1355.80935684014  L 659.789469709104 1356.11375289824  Z M 658.629303717676 1364.01597645408  C 658.862936125932 1362.35542798083  659.102705932873 1360.69574879945  659.348608224235 1359.03697292631  C 659.395369011215 1358.72024749404  659.4424494237 1358.40356933312  659.489849389768 1358.08693892734  L 657.511890080274 1357.79083595541  C 657.464320123318 1358.10860189542  657.417070669023 1358.4264157326  657.370141789526 1358.74427698173  C 657.123547129423 1360.40773329119  656.883101535808 1362.07209534663  656.648809935635 1363.73732904373  L 658.629303717676 1364.01597645408  Z M 657.562805650781 1371.93267766559  C 657.817810452367 1369.95195690088  658.081533634756 1367.97236832614  658.353967531708 1365.99396948658  L 656.372664498734 1365.7211356699  C 656.099429881082 1367.7053492958  655.834931579961 1369.69075615382  655.579177284184 1371.67729852934  L 657.562805650781 1371.93267766559  Z M 656.589315455893 1379.86135303033  C 656.821050947907 1377.877775238  657.061517510806 1375.89522721223  657.310708154384 1373.91376658439  L 655.32633883856 1373.66421014105  C 655.076415789397 1375.65149455427  654.835242462179 1377.63986956151  654.602825867673 1379.62927736186  L 656.589315455893 1379.86135303033  Z M 655.708967289259 1387.80090990112  C 655.91740153634 1385.8147484371  656.134578341153 1383.8295141744  656.360491390511 1381.84526482247  L 654.373329256879 1381.61902014373  C 654.146752217986 1383.60910147751  653.928937100663 1385.60017061685  653.719890236652 1387.59216968268  L 655.708967289259 1387.80090990112  Z M 654.921882471263 1395.75025413119  C 655.106986749181 1393.76178270751  655.30084386687 1391.77413579212  655.503448189031 1389.78737116461  L 653.513767087512 1389.58446942914  C 653.310567283372 1391.57707343125  653.116140392941 1393.5705623144  652.930492068082 1395.56487812918  L 654.921882471263 1395.75025413119  Z M 654.228169469709 1403.70829022501  C 654.389918269327 1401.71778287202  654.560428984531 1399.72799722066  654.739696658685 1397.7389911127  L 652.747770786335 1397.5594602823  C 652.567976219821 1399.55431235288  652.396964350166 1401.54994625803  652.234740148571 1403.54630398601  L 654.228169469709 1403.70829022501  Z M 653.627923884875 1411.67392148919  C 653.766294915664 1409.6816525178  653.913435730377 1407.69000234194  654.069342051727 1405.69902885758  L 652.075445914954 1405.54289367332  C 651.919081363475 1407.53971890269  651.771508081663 1409.53722281244  651.632730359377 1411.53534733644  L 653.627923884875 1411.67392148919  Z M 653.121228436334 1419.64605018367  C 653.236202629444 1417.65229414759  653.359953266257 1415.65905391564  653.492476749423 1413.66638743003  L 651.496885126157 1413.53366940882  C 651.363972138241 1415.53219261541  651.23985778128 1417.53129125464  651.124545663197 1419.53090721403  L 653.121228436334 1419.64605018367  Z M 652.708152951558 1427.62357767299  C 652.799714462448 1425.62860933083  652.900057867341 1423.63405373034  653.00918024932 1421.63996885194  L 651.012168151145 1421.53068628361  C 650.902725043471 1423.53063205182  650.802086715505 1425.53104992565  650.710256092737 1427.53188175425  L 652.708152951558 1427.62357767299  Z M 652.388754356294 1435.60540457767  C 652.456890566913 1433.6094988551  652.533812911605 1431.61390275492  652.619519154293 1429.61867428767  L 650.621361788547 1429.53284223238  C 650.535403643419 1431.53393495062  650.458255213373 1433.5353963823  650.389918741056 1435.53716834641  L 652.388754356294 1435.60540457767  Z M 652.163076666718 1443.59043092575  C 652.207778187244 1441.59386287768  652.261268871105 1439.59750128992  652.323547163361 1437.60140419538  L 650.324519895212 1437.53903448162  C 650.262058558486 1439.54099838015  650.208410658146 1441.54322754929  650.1635777537 1443.54566378556  L 652.163076666718 1443.59043092575  Z M 652.031150983371 1451.57755630432  C 652.052411653509 1449.58060107688  652.08246330501 1447.58374911927  652.121305064292 1445.58705847868  L 650.121683378787 1445.54815970158  C 650.082727458231 1447.55071889069  650.052587480791 1449.55343987094  650.031264322619 1451.55626442455  L 652.031150983371 1451.57755630432  Z M 651.998459039746 1455.99535592728  C 652.001810870468 1455.188408287  652.006598107453 1454.38146724724  652.012820727977 1453.57453663813  L 650.012880192082 1453.55911415833  C 649.997435056193 1455.56199266622  649.990807155231 1457.5649294635  649.992996681866 1459.56786632611  L 651.998459039746 1455.99535592728  Z M 1115.98610291779 1030.88861479961  C 1117.9834792991 1030.91846289031  1119.98074161629 1030.95550975765  1121.97785095331 1030.99975467977  L 1122.02214904669 1029.00024532023  C 1120.02023533564 1028.95589395969  1118.01816827614 1028.91875797003  1116.01598687838 1028.88883807485  L 1115.98610291779 1030.88861479961  Z M 643.4 1455  L 651 1462  L 658.6 1455  L 643.4 1455  Z " fill-rule="nonzero" fill="#aaaaaa" stroke="none" />
  </g>
</svg>