<?xml version="1.0" encoding="utf-8"?>
<svg version="1.1" xmlns:xlink="http://www.w3.org/1999/xlink" width="254px" height="34px" viewBox="690 1188  254 34" xmlns="http://www.w3.org/2000/svg">
  <g transform="matrix(-0.777145961456971 -0.629320391049834 0.629320391049837 -0.777145961456968 693.597179295292 2655.61564304336 )">
    <path d="M 906.622062355545 1143.59744810894  C 908.439748097056 1142.7694202402  910.260657873431 1141.94848810875  912.0847500986 1141.1346704631  L 911.269873607793 1139.30820494064  C 909.441030153245 1140.12414234442  907.615377436825 1140.94721276516  905.79295715296 1141.77739740551  L 906.622062355545 1143.59744810894  Z M 899.368691367952 1146.94732230022  C 901.177662999889 1146.10042606033  902.989932323991 1145.26059162721  904.805457951521 1144.42783818105  L 903.971621023145 1142.6099504021  C 902.151366479683 1143.44487292864  900.334376721493 1144.28689488601  898.520693244874 1145.13599704416  L 899.368691367952 1146.94732230022  Z M 892.15056880295 1150.37248717475  C 893.950630469819 1149.50681425629  895.754063129117 1148.6481684495  897.560825593919 1147.7965693642  L 896.708118506638 1145.98745614958  C 894.896649951439 1146.84127340266  893.0885198749 1147.70215573189  891.283769571262 1148.57008347637  L 892.15056880295 1150.37248717475  Z M 884.968476159227 1153.87257189345  C 886.759432970208 1152.98821602193  888.553833708907 1152.11085180617  890.351637394671 1151.24049928348  L 889.480152470203 1149.44035650403  C 887.677666029007 1150.31297604176  885.878591398684 1151.19262553592  884.082969666388 1152.07928489714  L 884.968476159227 1153.87257189345  Z M 877.823191034551 1157.44719750576  C 879.604849084594 1156.54425442948  881.390023624777 1155.64826679607  883.178673885153 1154.75925506816  L 882.288505478271 1152.96827762347  C 880.49519630452 1153.8596049682  878.705371904183 1154.75792638864  876.919073153436 1155.66322136886  L 877.823191034551 1157.44719750576  Z M 870.715487041575 1161.09597699065  C 872.487653432402 1160.17454447032  874.26340849506 1159.26003042692  876.042711674727 1158.35245574618  L 875.133956163048 1156.57083754353  C 873.350018416431 1157.48077619218  871.569638028615 1158.39767227853  869.792855660095 1159.32150486241  L 870.715487041575 1161.09597699065  Z M 863.646133724084 1164.81851529852  C 865.408616585065 1163.8786930967  867.17475991103 1162.94575165679  868.944523366667 1162.01971228539  L 868.017279140213 1160.24764621876  C 866.24290596583 1161.17609765322  864.472162350486 1162.11146913407  862.705088734588 1163.05373929921  L 863.646133724084 1164.81851529852  Z M 856.615896473673 1168.614409394  C 858.368504982607 1167.65629926426  860.124845353361 1166.70503143646  861.884877474503 1165.76062763572  L 860.939244925051 1163.99830556487  C 859.174628432457 1164.94516926266  857.413713306169 1165.89891486631  855.656539762132 1166.85952059409  L 856.615896473673 1168.614409394  Z M 849.625536446883 1172.48324829953  C 851.368080850654 1171.50695397547  853.114428109033 1170.53746275257  854.864538338818 1169.57479677212  L 853.900619849029 1167.82240950184  C 852.145951091432 1168.787582947  850.395055106667 1169.7595994124  848.647971881859 1170.73843669904  L 849.625536446883 1172.48324829953  Z M 842.674874964834 1176.42197150728  C 843.461950688939 1175.96965596137  844.250508028742 1175.51992348068  845.040534256423 1175.07278132418  C 845.987300915383 1174.53377299268  846.935213658147 1173.99678024797  847.884266044493 1173.46180673843  L 846.902165976828 1171.71954399789  C 845.951372695334 1172.25549883659  845.001720269653 1172.79347506069  844.053215142294 1173.33346902051  C 843.260116462063 1173.78235646378  842.468491042764 1174.23384191103  841.678351638302 1174.68791808836  L 842.674874964834 1176.42197150728  Z M 835.793981436392 1180.46475514412  C 837.504443531649 1179.43754959996  839.222289241542 1178.42268932052  840.947384629809 1177.42025343198  L 839.942538213989 1175.69100975898  C 838.209131275363 1176.69827540733  836.483008944181 1177.71802530762  834.764305802116 1178.75017995236  L 835.793981436392 1180.46475514412  Z M 828.992080441582 1184.63907402758  C 830.682478816353 1183.5791753797  832.380496773945 1182.53147776799  834.086001923952 1181.49606287892  L 833.048097203993 1179.78645655222  C 831.334374889836 1180.82686009472  829.628175841578 1181.87960553829  827.929633087457 1182.94461080292  L 828.992080441582 1184.63907402758  Z M 822.271686093681 1188.94338524922  C 823.941395944264 1187.85118525651  825.618958529475 1186.77103756171  827.304243053766 1185.70302638134  L 826.233663659192 1184.01368930429  C 824.540259394204 1185.08684618778  822.854614272794 1186.17219805972  821.17685972066 1187.26966029782  L 822.271686093681 1188.94338524922  Z M 815.635282379542 1193.37609785292  C 817.2836865491 1192.25200021348  818.940173702573 1191.13980167892  820.604614687612 1190.03958896471  L 819.501756325133 1188.37114554873  C 817.829296024061 1189.47665911383  816.164827876319 1190.59421624722  814.508481656485 1191.72372981567  L 815.635282379542 1193.37609785292  Z M 809.085322241468 1197.93557342294  C 810.711811448153 1196.77999362486  812.346610900413 1195.63615534049  813.989593136838 1194.50414775218  L 812.854863444091 1192.85721468603  C 811.203965280402 1193.99467631366  809.561289325709 1195.14402563794  807.926963655567 1196.30517304682  L 809.085322241468 1197.93557342294  Z M 802.624226670553 1202.62012668953  C 804.228199732719 1201.43349185729  805.840707230463 1200.25843660773  807.461623440487 1199.09505255707  L 806.295441835365 1197.47023857883  C 804.666716012714 1198.63922784136  803.046439415702 1199.8199445349  801.434738373396 1201.01229660183  L 802.624226670553 1202.62012668953  Z M 796.254383811843 1207.42802615181  C 797.835247870213 1206.21077488845  799.424867399733 1205.00493699666  801.023118461564 1203.81060649276  L 799.825915987192 1202.2085121649  C 798.219964513954 1203.40859698141  796.622686159937 1204.62024462868  795.034205461155 1205.84336063742  L 796.254383811843 1207.42802615181  Z M 789.978148081627 1212.35749471777  C 791.535318818485 1211.11007694273  793.101462825845 1209.87390210959  794.676457995199 1208.64906659993  L 793.44867716061 1207.07028408729  C 791.866093627289 1208.3010208834  790.292403901053 1209.54315163613  788.727730678766 1210.7965794995  L 789.978148081627 1212.35749471777  Z M 783.82294731015 1217.41878651777  C 785.337598842097 1216.12705256943  786.870327494992 1214.85666680819  788.420679315047 1213.60800548878  L 787.166162335077 1212.05038321526  C 785.601218345197 1213.3107971432  784.054063394674 1214.59313998704  782.525155709966 1215.89703195067  L 783.82294731015 1217.41878651777  Z M 777.862654258472 1222.6979280404  C 779.327849557723 1221.3503566725  780.811909066566 1220.02344127203  782.314393245728 1218.71757483633  L 781.002402883167 1217.20804468143  C 779.485777072394 1218.52620214976  777.987749348027 1219.8656066992  776.508763386321 1221.2258616335  L 777.862654258472 1222.6979280404  Z M 772.104320746245 1228.1966573154  C 773.51800266337 1226.79514053215  774.951309393179 1225.41355849548  776.403816428044 1224.05232039353  L 775.036194730999 1222.59300175328  C 773.570016457746 1223.96705205521  772.123219206017 1225.36163777236  770.696231478984 1226.77634586525  L 772.104320746245 1228.1966573154  Z M 766.556031533576 1233.90725406971  C 767.916215244468 1232.45375961524  769.296756817698 1231.01945069791  770.697247373289 1229.60475212216  L 769.27591449684 1228.1976938951  C 767.862242290634 1229.62570784972  766.468706829939 1231.07351672173  765.095720843175 1232.54069170834  L 766.556031533576 1233.90725406971  Z M 761.225576476196 1239.82170056613  C 762.530352268785 1238.31826916177  763.856190390718 1236.8332471484  765.202698163735 1235.36707435035  L 763.729649674015 1234.01425206087  C 762.370468345334 1235.49422472175  761.032151213937 1236.9932240099  759.715094654043 1238.51080596131  L 761.225576476196 1239.82170056613  Z M 756.120439588414 1245.93169286029  C 757.367975543924 1244.38043533936  758.637248724055 1242.8467852163  759.927883203589 1241.33119671781  L 758.405187275989 1240.03450974245  C 757.102405129544 1241.56436321259  755.821185338617 1243.11244830631  754.56190736669 1244.67830652167  L 756.120439588414 1245.93169286029  Z M 751.246556142786 1252.2291303906  C 751.321619129746 1252.12851280941  751.396845844358 1252.02801747644  751.47223598762 1251.92764479113  C 752.588692546899 1250.43311621962  753.724781847194 1248.95335483719  754.880208387886 1247.48874553472  L 753.310002903317 1246.25001443548  C 752.144238917457 1247.72772739952  750.997976162873 1249.22072098961  749.871512511557 1250.72860723104  C 749.795344529819 1250.83002020354  749.719340543526 1250.93155624405  749.643500850623 1251.03321495452  L 751.246556142786 1252.2291303906  Z M 746.725455576851 1258.74393774171  C 747.799513328143 1257.07703502074  748.916253385348 1255.43802431616  750.074568664048 1253.82853046733  L 748.45125118494 1252.66026664352  C 747.272910094408 1254.29758661323  746.136863008572 1255.96493374794  745.044236151942 1257.66065511685  L 746.725455576851 1258.74393774171  Z M 742.661297409131 1265.55317290706  C 743.61863455386 1263.816604358  744.620464566006 1262.10493818964  745.665794277646 1260.41987126865  L 743.966254643919 1259.365563423  C 742.902852498554 1261.07976302808  741.883702107681 1262.82102174799  740.909813809849 1264.5876133794  L 742.661297409131 1265.55317290706  Z M 739.073178897171 1272.62483966204  C 739.909296960314 1270.82676532576  740.791509382818 1269.0504867196  741.718941580104 1267.29776476398  L 739.951165835792 1266.36236703156  C 739.007699504267 1268.14539134158  738.110234740459 1269.95237956694  737.259661249412 1271.78154034313  L 739.073178897171 1272.62483966204  Z M 735.977960414139 1279.92570863029  C 736.688930522525 1278.07457756004  737.447379887334 1276.24203315235  738.25255661696 1274.42989210697  L 736.42485144386 1273.61779987069  C 735.605754223004 1275.46127055167  734.834192224232 1277.32549734338  734.110930338409 1279.20863213764  L 735.977960414139 1279.92570863029  Z M 733.390186222854 1287.42147342678  C 733.972667566724 1285.52598398647  734.603789961645 1283.64578480347  735.282927742076 1281.78273982026  L 733.403881427103 1281.09776905724  C 732.713002210078 1282.99302374101  732.070968504088 1284.90572919905  731.478416791638 1286.8339892637  L 733.390186222854 1287.42147342678  Z M 731.371905814637 1295.07116214354  C 731.629354394846 1293.87662477623  731.911145211845 1292.68746375713  732.217102390437 1291.50442128189  C 732.412275541878 1290.77490310537  732.614587470321 1290.04731355561  732.824009079554 1289.32175727351  L 730.902451158845 1288.76712662401  C 730.688638817673 1289.50789491386  730.482111476 1290.25074654028  730.282899051401 1290.99557389368  C 729.96932411804 1292.20761726355  729.680563220301 1293.42594525879  729.416797387693 1294.64979408721  L 731.371905814637 1295.07116214354  Z M 730.047457337196 1302.86886782749  C 730.292545942741 1300.90594427675  730.602393138265 1298.95165012268  730.976492299224 1297.00918079  L 729.012582106929 1296.63095234501  C 728.630155630629 1298.61666035973  728.313411345845 1300.6144564122  728.062867154409 1302.62107394866  L 730.047457337196 1302.86886782749  Z M 729.413907920083 1310.75283845395  C 729.485418069494 1308.77596628076  729.622194802414 1306.80199489025  729.824014478122 1304.83415188099  L 727.834450536121 1304.63010453184  C 727.628138425634 1306.64175103224  727.488317090894 1308.65966232949  727.415215150786 1310.68053897982  L 729.413907920083 1310.75283845395  Z M 729.476167122888 1318.66197883041  C 729.373544663119 1316.68647739499  729.336191010557 1314.70812564925  729.364167241363 1312.73015835399  L 727.364367262107 1312.70187332323  C 727.335768290272 1314.72386947266  727.373953421962 1316.7462586303  727.478860221481 1318.76573403072  L 729.476167122888 1318.66197883041  Z M 730.233752480855 1326.5349987166  C 729.957792663337 1324.57617675692  729.746598089664 1322.60877548182  729.600514079581 1320.6360117472  L 727.60597509756 1320.7837082238  C 727.755310886169 1322.80038498316  727.971206576543 1324.81157991654  728.25330916224 1326.81400456198  L 730.233752480855 1326.5349987166  Z M 731.68935774787 1334.30918941683  C 731.501672253274 1333.4998747277  731.322268496073 1332.6886617486  731.15117462075 1331.87567774091  C 730.922930114633 1330.75132917453  730.716241825955 1329.62271204123  730.53122347205 1328.49044729215  L 728.557401752752 1328.81298073294  C 728.746923209895 1329.97280331588  728.958687128287 1331.12888168909  729.192576523745 1332.28057720323  C 729.366920637991 1333.10924218491  729.549758760392 1333.93609734399  729.741062045902 1334.76101223353  L 731.68935774787 1334.30918941683  Z M 733.732256648301 1341.97513134082  C 733.159284770372 1340.07585751966  732.632779710644 1338.16287459662  732.15321231256 1336.23789331585  L 730.212529940042 1336.72137230091  C 730.699968565174 1338.67794865004  731.235115248337 1340.6223297102  731.817491418053 1342.55277665849  L 733.732256648301 1341.97513134082  Z M 736.26966633499 1349.49188952379  C 735.574318692773 1347.63392572514  734.924447301665 1345.7592581768  734.32063332926 1343.86956335823  L 732.415525232635 1344.47830233363  C 733.029249713739 1346.39901305743  733.689787562349 1348.30444986566  734.396548072059 1350.19290876252  L 736.26966633499 1349.49188952379  Z M 739.290830985642 1356.82760119022  C 738.476055087265 1355.01882313417  737.705572103686 1353.19041748613  736.980071063146 1351.34401935441  L 735.118612802402 1352.07543793738  C 735.856021623653 1353.95214133791  736.639150684768 1355.81055694085  737.467299648357 1357.64902280057  L 739.290830985642 1356.82760119022  Z M 742.782944189736 1363.95117100241  C 741.852193787591 1362.19924591568  740.964365210758 1360.42485259402  740.120252427408 1358.62957784357  L 738.310334535306 1359.48057562491  C 739.168301895503 1361.30531654681  740.070702564468 1363.10883330922  741.016729542476 1364.88951306148  L 742.782944189736 1363.95117100241  Z M 746.731203233601 1370.83240287047  C 745.688423684238 1369.14475698579  744.687012929435 1367.43189746384  743.727866511748 1365.69535608222  L 741.977161046655 1366.66232576866  C 742.952050109183 1368.42736932024  743.969897201087 1370.16834231749  745.029792081112 1371.88368784144  L 746.731203233601 1370.83240287047  Z M 751.07792794636 1377.4968306949  C 750.128404812275 1376.09773406423  749.194500275332 1374.68810100764  748.276388241642 1373.26819401854  C 748.112533847294 1373.0165334645  747.949610322204 1372.76426805238  747.787621005978 1372.5114029531  L 746.103549030788 1373.59024565821  C 746.267627541329 1373.84637198694  746.432649037898 1374.10189299857  746.598610161213 1374.35680349155  C 747.524237392844 1375.78828997169  748.465776115278 1377.20942483877  749.423051216983 1378.61994378385  L 751.07792794636 1377.4968306949  Z M 755.665111615419 1384.00779381954  C 754.489937667361 1382.40025985416  753.335908098898 1380.77737465341  752.20332093991 1379.13955732985  L 750.558332130075 1380.27710373133  C 751.700870417934 1381.92931123327  752.865039512392 1383.56645541588  754.05053876505 1385.18811348423  L 755.665111615419 1384.00779381954  Z M 760.477266313678 1390.3542937986  C 759.246573892652 1388.78885602504  758.036475861981 1387.20733669988  756.847284731299 1385.61014425288  L 755.24309868156 1386.80454247702  C 756.442738274504 1388.41576816441  757.663468459482 1390.01118302289  758.904973981098 1391.59037503417  L 760.477266313678 1390.3542937986  Z M 765.508500766796 1396.52856093746  C 764.223796546452 1395.00713584094  762.959111514566 1393.46891856442  761.714772277937 1391.91430635481  L 760.153352911049 1393.16409416109  C 761.408625151812 1394.73236549291  762.684421949921 1396.28409784263  763.980413828918 1397.818890473  L 765.508500766796 1396.52856093746  Z M 770.752655492322 1402.52303639732  C 769.415512270187 1401.04748658062  768.097788526143 1399.5544545133  766.799824564314 1398.04432577314  L 765.283083445973 1399.34797311039  C 766.592451569101 1400.87137013245  767.921753087698 1402.37752026701  769.270644707657 1403.86603454853  L 770.752655492322 1402.52303639732  Z M 776.203310340424 1408.33038144915  C 774.815365112405 1406.90251335227  773.446215877845 1405.45649433679  772.096216221562 1403.99269783927  L 770.626010220176 1405.3486087189  C 771.987871233388 1406.8252664143  773.369050076764 1408.28399043129  774.769190058813 1409.72440405223  L 776.203310340424 1408.33038144915  Z M 781.853792353758 1413.94348645807  C 780.416744310063 1412.56504814673  778.997845764201 1411.16781247004  777.597463148854 1409.75214026621  L 776.17559216227 1411.15865471601  C 777.588278808934 1412.58676528843  779.019644070627 1413.99627734681  780.469318295152 1415.38682688259  L 781.853792353758 1413.94348645807  Z M 787.673212700373 1419.40422664862  C 786.35213131876 1418.18580690769  785.038468767311 1416.95936772964  783.732297859791 1415.72497709362  C 783.586962972926 1415.58870937411  783.441807045066 1415.45225091322  783.296830451554 1415.31560206378  L 781.925035203542 1416.77099816022  C 782.070328585598 1416.90794560124  782.215800518208 1417.04470348662  782.361450630135 1417.18127146737  C 783.672569490714 1418.42031620661  784.991202783526 1419.6513851774  786.317277525442 1420.87441024307  L 787.673212700373 1419.40422664862  Z M 793.589099784409 1424.76266810715  C 792.098106247822 1423.43639911337  790.616081702488 1422.10008136428  789.143127426304 1420.75380618056  L 787.793821531142 1422.23007634597  C 789.273418795394 1423.58242319813  790.762127235487 1424.92476770785  792.259845116768 1426.25701814264  L 793.589099784409 1424.76266810715  Z M 799.600471660308 1430.01376542346  C 798.085848995648 1428.714546676  796.58001300847 1427.40511937401  795.083066603888 1426.0855730005  L 793.760549690374 1427.58588930498  C 795.264247286951 1428.91138680064  796.776874557893 1430.22671958799  798.298328134052 1431.5317977805  L 799.600471660308 1430.01376542346  Z M 805.705380844449 1435.15581741746  C 804.167619738848 1433.88406981981  802.63846015037 1432.60195717559  801.118006578004 1431.30956710123  L 799.822707097428 1432.83344349242  C 801.350017878554 1434.13166221469  802.886073939653 1435.4195571558  804.43077031057 1436.6970403043  L 805.705380844449 1435.15581741746  Z M 811.901849550248 1440.18715823613  C 810.341448186922 1438.94329379201  808.789460393753 1437.68891116723  807.245992229757 1436.42409608321  L 805.978329815867 1437.97103887608  C 807.528758983855 1439.24155824546  809.087746204333 1440.50159810545  810.65518493997 1441.75107234806  L 811.901849550248 1440.18715823613  Z M 818.187870328898 1445.10615789317  C 816.605334225737 1443.89057957308  815.031021020086 1442.66433334581  813.465038296559 1441.42750300996  L 812.225423629619 1442.99701104673  C 813.798468897255 1444.23941945741  815.379882217286 1445.47119602543  816.969555519897 1446.69225657427  L 818.187870328898 1445.10615789317  Z M 824.561406719713 1449.91122279706  C 822.957248565555 1448.72432440778  821.361119972253 1447.52661184079  819.773130015291 1446.31816694481  L 818.561964689033 1447.90973175733  C 820.157116442203 1449.1236267105  821.760443536733 1450.32674093211  823.371836405276 1451.51899220435  L 824.561406719713 1449.91122279706  Z M 831.020393909869 1454.60079626733  C 829.395133398334 1453.44296232426  827.777706509752 1452.27417143643  826.16822377502 1451.09450347607  L 824.985900166538 1452.70760945053  C 826.602641629375 1453.89259768478  828.227363074 1455.06665979117  829.859953471031 1456.22971553724  L 831.020393909869 1454.60079626733  Z M 913.909896450729 1140.32322728832  C 915.736099502806 1139.51415744048  917.565452583523 1138.71221649214  919.3979139137 1137.91742275821  L 918.6020860863 1136.08257724179  C 916.764851727567 1136.87944118213  914.930733714643 1137.68347095318  913.099773935003 1138.49464819254  L 913.909896450729 1140.32322728832  Z M 826.91149845097 1462.23207000231  L 837 1460  L 835.603250518203 1449.76236888313  L 826.91149845097 1462.23207000231  Z " fill-rule="nonzero" fill="#f59a23" stroke="none" />
  </g>
</svg>