<?xml version="1.0" encoding="utf-8"?>
<svg version="1.1" xmlns:xlink="http://www.w3.org/1999/xlink" width="270px" height="42px" viewBox="1106 1200  270 42" xmlns="http://www.w3.org/2000/svg">
  <g transform="matrix(-0.681998360062499 -0.731353701619169 0.731353701619171 -0.681998360062499 1194.37709516055 2961.3299413457 )">
    <path d="M 1329.40054377381 1144.88890831371  C 1331.12068227277 1143.87283569968  1332.84414324988 1142.86239833375  1334.5708989866 1141.85761246687  L 1333.56501611077 1140.12897148618  C 1331.83448679702 1141.13595316849  1330.10725944311 1142.14859870036  1328.38336182815 1143.16689179537  L 1329.40054377381 1144.88890831371  Z M 1322.5378276912 1148.98318337723  C 1324.24902849716 1147.95212963757  1325.96360086045 1146.92668191997  1327.68151720523 1145.90685671695  L 1326.66057857353 1144.18706477886  C 1324.93890796885 1145.20911866367  1323.22058865374 1146.23680735008  1321.50564826373 1147.27011430988  L 1322.5378276912 1148.98318337723  Z M 1315.71112351922 1153.13722604365  C 1317.41325616118 1152.09126979135  1319.11880918234 1151.05088990779  1320.82775515216 1150.01610312549  L 1319.79183860639 1148.30529135612  C 1318.07915798024 1149.34233951654  1316.36987771756 1150.38499300112  1314.66402530881 1151.43323504082  L 1315.71112351922 1153.13722604365  Z M 1308.92095176221 1157.35071958662  C 1310.61388646051 1156.28994057095  1312.31029009907 1155.23470784554  1314.01013539476 1154.18503838163  L 1312.95931991874 1152.48333722239  C 1311.25575985497 1153.53530058836  1309.55564896946 1154.5928393736  1307.85901460521 1155.65593656966  L 1308.92095176221 1157.35071958662  Z M 1302.1678301391 1161.62334274689  C 1303.85143781527 1160.54782184736  1305.53856272854 1159.47781673657  1307.22917774475 1158.4133446235  L 1306.16354345825 1156.72088382117  C 1304.46923384537 1157.78768218539  1302.77842196256 1158.86002563889  1301.09113500326 1159.9378969351  L 1302.1678301391 1161.62334274689  Z M 1295.45227354389 1165.95476975688  C 1297.12642583079 1164.86458897689  1298.8041433832 1163.77989306373  1300.48539921851 1162.70069946248  L 1299.40502737118 1161.01760805929  C 1297.72009739238 1162.09916008337  1296.03871342879 1163.18622644394  1294.3609025222 1164.27878965765  L 1295.45227354389 1165.95476975688  Z M 1288.77479400647 1170.34467036549  C 1290.4393632577 1169.2399128263  1292.10754553128 1168.14060881365  1293.7793139977 1167.04677600775  L 1292.68428696284 1165.37318233158  C 1291.00886508618 1166.46940555221  1289.33703723949 1167.57111193612  1287.66883031087 1168.67828376448  L 1288.77479400647 1170.34467036549  Z M 1282.13590065348 1174.79270986328  C 1283.79075995346 1173.67345979746  1285.449279757 1172.55963150219  1287.11143339001 1171.45124289126  L 1286.00183465833 1169.78727454581  C 1284.33604862692 1170.8980853811  1282.67390436621 1172.01434778837  1281.01542860855 1173.13604381469  L 1282.13590065348 1174.79270986328  Z M 1275.53609966957 1179.29854910799  C 1277.18112284304 1178.16489185311  1278.82985372207 1177.03662419949  1280.48226579026 1175.91376429296  L 1279.35817996349 1174.25954814806  C 1277.70215678573 1175.38486190386  1276.04982284174 1176.51559522468  1274.40120470608 1177.65172992488  L 1275.53609966957 1179.29854910799  Z M 1268.97589425879 1183.86184455039  C 1270.61095588036 1182.71386654256  1272.24977212692 1181.57124555567  1273.89231664153 1180.4339999664  L 1272.75382942597 1178.78966214832  C 1271.10769536592 1179.9293930247  1269.4652977214 1181.07451104594  1267.82666290718 1182.22499779505  L 1268.97589425879 1183.86184455039  Z M 1262.4557846062 1188.48224826049  C 1264.08076001 1187.32003702771  1265.70953667208 1186.16314982701  1267.34208839672 1185.01160526471  L 1266.1892865967 1183.37727114652  C 1264.55316716439 1184.53133224432  1262.9208310445 1185.69074765608  1261.29230448999 1186.85549873484  L 1262.4557846062 1188.48224826049  Z M 1255.97292220118 1193.15304993602  C 1257.09939359231 1192.33068428493  1258.22996130416 1191.51394447133  1259.36458311585 1190.70286099625  C 1259.85340081695 1190.35016786508  1260.34256684368 1189.99795775012  1260.83208048016 1189.64623116683  L 1259.66505199145 1188.02202535889  C 1259.17565965731 1188.37366478371  1258.68661400243 1188.72578644718  1258.19791573969 1189.07838983599  C 1257.05908488611 1189.8925001367  1255.9243189898 1190.71228181458  1254.79366033948 1191.53770431926  L 1255.97292220118 1193.15304993602  Z M 1249.57208912744 1197.91993742106  C 1251.16091365737 1196.71301648679  1252.75833310298 1195.51745215777  1254.36422537776 1194.33333580779  L 1253.17728990225 1192.72362025001  C 1251.56373739156 1193.91338493066  1249.95869812616 1195.1146521981  1248.36229477484 1196.32733024274  L 1249.57208912744 1197.91993742106  Z M 1243.26314748245 1202.80779335726  C 1244.82871192191 1201.57084973916  1246.40308587908 1200.34509707527  1247.98614902875 1199.1306290466  L 1246.76878961375 1197.54379696515  C 1245.17817512495 1198.76405810444  1243.59629127682 1199.99565770756  1242.02325896849 1201.23850164666  L 1243.26314748245 1202.80779335726  Z M 1237.04838310551 1207.81484678938  C 1238.59012022329 1206.54832865363  1240.14087826893 1205.2928317664  1241.70053872217 1204.04845208193  L 1240.45319643817 1202.48507841368  C 1238.88609627858 1203.73539388978  1237.32794099174 1204.99687959862  1235.77884966336 1206.26943912819  L 1237.04838310551 1207.81484678938  Z M 1230.93004771388 1212.93928357486  C 1232.44739891177 1211.64364980303  1233.9739791793 1210.35886358079  1235.50967184398 1209.08502310093  L 1234.2327986248 1207.54567428337  C 1232.68978058203 1208.82559108524  1231.1559184033 1210.11650584155  1229.63132931759 1211.41831989116  L 1230.93004771388 1212.93928357486  Z M 1224.91035808688 1218.17924704111  C 1226.40277360219 1216.85496706384  1227.90462298497 1215.54135700702  1229.41579145295 1214.23851726633  L 1228.10984993196 1212.7237510323  C 1226.5914730683 1214.03280542381  1225.08245974261 1215.35268150674  1223.58292528473 1216.68327840649  L 1224.91035808688 1218.17924704111  Z M 1218.99149526281 1223.53283865822  C 1220.45843436739 1222.18039228519  1221.93500871932 1220.83843433753  1223.42110546795 1219.50706737753  L 1222.08656881048 1218.01743255319  C 1220.59338326029 1219.35515024117  1219.10976552942 1220.70350943664  1217.63582900678 1222.06240708814  L 1218.99149526281 1223.53283865822  Z M 1213.17560374861 1228.9981187268  C 1214.61653494494 1227.61799597284  1216.0672992774 1226.2481763491  1217.527785868 1224.88876454717  L 1216.1651375999 1223.42480085314  C 1214.69768437028 1224.79069715918  1213.23999977471 1226.16705093323  1211.79219522018 1227.55375698421  L 1213.17560374861 1228.9981187268  Z M 1207.46479074296 1234.57310708082  C 1208.87919195658 1233.16580798844  1210.30362063245 1231.76862299804  1211.7379679053 1230.38165889275  L 1210.34770173774 1228.94389674854  C 1208.90651251251 1230.33747678467  1207.47528919678 1231.74132646034  1206.0541411751 1233.1553384831  L 1207.46479074296 1234.57310708082  Z M 1201.87346857123 1240.2528107945  C 1202.03061599094 1240.08687032592  1202.18803061045 1239.92118310264  1202.3457118171 1239.75574976953  C 1203.5737811118 1238.49063598265  1204.80981820568 1237.23328112739  1206.05374933162 1235.9837602431  L 1204.63636898222 1234.57272057494  C 1203.38435948787 1235.83035612878  1202.14030894644 1237.09589003771  1200.90429185824 1238.36924651487  C 1200.74301944084 1238.53843319934  1200.5820232612 1238.70788298454  1200.42130396256 1238.87759519348  L 1201.87346857123 1240.2528107945  Z M 1196.50775502756 1246.13536822106  C 1197.82153648284 1244.63978111591  1199.15623764678 1243.16270110342  1200.51146442425 1241.7045643187  L 1199.04650010346 1240.34299186789  C 1197.67853730558 1241.81483179083  1196.33129301488 1243.30579296438  1195.00516503007 1244.81543515478  L 1196.50775502756 1246.13536822106  Z M 1191.36584132402 1252.21452006773  C 1192.62275896577 1250.67083598631  1193.9012739568 1249.14486351672  1195.20100879201 1247.63705323041  L 1193.68613837992 1246.33123255567  C 1192.37418902116 1247.85321279707  1191.0836589244 1249.39352590459  1189.81492914243 1250.95171707241  L 1191.36584132402 1252.21452006773  Z M 1186.45492469813 1258.48175722641  C 1187.65321919406 1256.89213689362  1188.87375844966 1255.31940790051  1190.11618207826 1253.76403462426  L 1188.55352596871 1252.51579350843  C 1187.29942641034 1254.08578372267  1186.06741688781 1255.67329275769  1184.85786117465 1257.27785187217  L 1186.45492469813 1258.48175722641  Z M 1181.78964330688 1264.92672964378  C 1182.27252026698 1264.2251236304  1182.76213963518 1263.52818199832  1183.25843336387 1262.83600160892  C 1183.91960822197 1261.91096877504  1184.5881857749 1260.99124951951  1185.26410161472 1260.07693244419  L 1183.65584708812 1258.88801807483  C 1182.97387255153 1259.81053080053  1182.29929889166 1260.73849179257  1181.63219103815 1261.67181173205  C 1181.12871474914 1262.37402597215  1180.63200568934 1263.08106760563  1180.14213281273 1263.79283847983  L 1181.78964330688 1264.92672964378  Z M 1177.48627451728 1271.59820538927  C 1178.5119484073 1269.89858132381  1179.57562504585 1268.22218261804  1180.67650153337 1266.57027467513  L 1179.01221707337 1265.46115013921  C 1177.89475144595 1267.13795073109  1176.8150462331 1268.83961113786  1175.7739164333 1270.56484688795  L 1177.48627451728 1271.59820538927  Z M 1173.58948987808 1278.5150428919  C 1174.51170885271 1276.7571347443  1175.4732512257 1275.02013823392  1176.4733911919 1273.30536450523  L 1174.74576993955 1272.29773123443  C 1173.73055883502 1274.03834493845  1172.75452695198 1275.80151629991  1171.81841103271 1277.58591441667  L 1173.58948987808 1278.5150428919  Z M 1170.11469032615 1285.65063909914  C 1170.22214673023 1285.41067675774  1170.33069653832 1285.17120554523  1170.44033636634 1284.93223292717  C 1171.15681166158 1283.36701059621  1171.903670556 1281.81587541464  1172.680489104 1280.27970786599  L 1170.89571249945 1279.37717117873  C 1170.10731832964 1280.93622965168  1169.34932521579 1282.51047630963  1168.62216328158 1284.09901784528  C 1168.51011194556 1284.34325295236  1168.39917343231 1284.58799707268  1168.28935119287 1284.83324259283  L 1170.11469032615 1285.65063909914  Z M 1167.21666574115 1293.00615110823  C 1167.85667560744 1291.13525388405  1168.56064203162 1289.28684970503  1169.32732447664 1287.46419584845  L 1167.48378225573 1286.68872690665  C 1166.69937490208 1288.55351864348  1165.9791334991 1290.4446560237  1165.32432726375 1292.35880646511  L 1167.21666574115 1293.00615110823  Z M 1165.00224098866 1300.59551382369  C 1165.46878064435 1298.67400145004  1166.00106321837 1296.76904948299  1166.59815071677 1294.88401484892  L 1164.69151280894 1294.28008448172  C 1164.08062126244 1296.20869917539  1163.53603286344 1298.15769167026  1163.05870729133 1300.12362743127  L 1165.00224098866 1300.59551382369  Z M 1163.50541437677 1308.34739983502  C 1163.61229622253 1307.56951546615  1163.73312388611 1306.79361103066  1163.86783905238 1306.02006100367  C 1164.07375128864 1304.84942539751  1164.30376791173 1303.68315786755  1164.55774240242 1302.52200131931  L 1162.60393235551 1302.09465333396  C 1162.34396577988 1303.28320534479  1162.10853369687 1304.47699128866  1161.89778621435 1305.67525002596  C 1161.75885027524 1306.4729178386  1161.63424484674 1307.27301548834  1161.52403015136 1308.0751562836  L 1163.50541437677 1308.34739983502  Z M 1162.90326546813 1316.19959678556  C 1162.93582470899 1314.22953824348  1163.05704991738 1312.26194387921  1163.26657299662 1310.30278823388  L 1161.27791317424 1310.09010981267  C 1161.06200759345 1312.10894534626  1160.93708961724 1314.13647665942  1160.90353855532 1316.16654721429  L 1162.90326546813 1316.19959678556  Z M 1163.24560921284 1324.06740340613  C 1163.04205475811 1322.10761863546  1162.92682346922 1320.13966414323  1162.90026524249 1318.16951556406  L 1160.90044693667 1318.19647374809  C 1160.9278141813 1320.22663708276  1161.04655565095 1322.25453949412  1161.25631079072 1324.27402331749  L 1163.24560921284 1324.06740340613  Z M 1164.55110831198 1331.82852306984  C 1164.11262318908 1329.9403067127  1163.75878569139 1328.03342848484  1163.49065588886 1326.11360124694  C 1163.48658090519 1326.08357372563  1163.4825267105 1326.05354338717  1163.47849330761 1326.0235102523  L 1161.49628901137 1326.28971717926  C 1161.50061748704 1326.32194745651  1161.50496920011 1326.35417460881  1161.50934414718 1326.38639861092  C 1161.78578472702 1328.36656867921  1162.15068416042 1330.33337866671  1162.60294782103 1332.28092853125  L 1164.55110831198 1331.82852306984  Z M 1166.79331818658 1339.37655284111  C 1166.11902290965 1337.52549344589  1165.52919160402 1335.64474886664  1165.02564936046 1333.7401386141  L 1163.09208346859 1334.25133617064  C 1163.61111224843 1336.21452306924  1164.21908392666 1338.15311030129  1164.91411728148 1340.0610993759  L 1166.79331818658 1339.37655284111  Z M 1169.93192602402 1346.60158387069  C 1169.71206203147 1346.16580734531  1169.49597981999 1345.72813305466  1169.28370374576 1345.28861033216  C 1168.64136036549 1343.95212621287  1168.04491749079 1342.59406262841  1167.49542116613 1341.21680135744  L 1165.63781357005 1341.95794508101  C 1166.20444559752 1343.37815539237  1166.81950826258 1344.77856093311  1167.4819219673 1346.15670362051  C 1167.69949065649 1346.60721013834  1167.92096554506 1347.05581972262  1168.14632160554 1347.50248167883  L 1169.93192602402 1346.60158387069  Z M 1173.8183083409 1353.48354220585  C 1172.7667843191 1351.80961432912  1171.77435348478 1350.0992850269  1170.8428496212 1348.35571459326  L 1169.07881619116 1349.29815082862  C 1170.03237839106 1351.08300961814  1171.04831033362 1352.83384011466  1172.12473481095 1354.54740718724  L 1173.8183083409 1353.48354220585  Z M 1178.33097436682 1359.97208313416  C 1177.1275818019 1358.40377715649  1175.9796210133 1356.79370532244  1174.88921316777 1355.14484267342  L 1173.22099903757 1356.24804782922  C 1174.33722812112 1357.93595612076  1175.51237302151 1359.5841550173  1176.74426234201 1361.18959902742  L 1178.33097436682 1359.97208313416  Z M 1183.42211530427 1366.03626783602  C 1182.70126283965 1365.23779393156  1181.99044265778 1364.43031988063  1181.28982211505 1363.6140357959  C 1180.69955333034 1362.92738377172  1180.12036524457 1362.23128362002  1179.55248251409 1361.5260053452  L 1177.99469622817 1362.78031865829  C 1178.57586650532 1363.50209931554  1179.16860348865 1364.21448969617  1179.77267739306 1364.91721362932  C 1180.48401723999 1365.74597685878  1181.20571025134 1366.56579735328  1181.93758658991 1367.37648218314  L 1183.42211530427 1366.03626783602  Z M 1188.9198406342 1371.76100840353  C 1187.50167348146 1370.37257335219  1186.11578997603 1368.95154234125  1184.7633005794 1367.49905399469  L 1183.29959940839 1368.86198425042  C 1184.67309189242 1370.33702858874  1186.08049706927 1371.78012708398  1187.52068723285 1373.19012343021  L 1188.9198406342 1371.76100840353  Z M 1194.75976507823 1377.13622196734  C 1193.2587645745 1375.83778157491  1191.78797852503 1374.50481847663  1190.34858542085 1373.13840073065  L 1188.97161929261 1374.58890556748  C 1190.43336502982 1375.97654269707  1191.92699121986 1377.33020565483  1193.45130107066 1378.64880979649  L 1194.75976507823 1377.13622196734  Z M 1200.92063129163 1382.15084864388  C 1200.46656269406 1381.79990590815  1200.0139598705 1381.44707075683  1199.56283463217 1381.09235239756  C 1198.45086946096 1380.22068345986  1197.35332363376 1379.33077519624  1196.27064290552 1378.42298903219  L 1194.98564163203 1379.95555933307  C 1196.08475611741 1380.87712457064  1197.19895615375 1381.78054682783  1198.32778953438 1382.66545944377  C 1198.78290102779 1383.02330694842  1199.23950187259 1383.37925622464  1199.69758017354 1383.73329799932  L 1200.92063129163 1382.15084864388  Z M 1207.31223920387 1386.89676816579  C 1205.69162199629 1385.74123602303  1204.0878060272 1384.56231976789  1202.50129470922 1383.36038944365  L 1201.29356157836 1384.95456028913  C 1202.89544755474 1386.16813835138  1204.51480587918 1387.35847931841  1206.15112826055 1388.5252095609  L 1207.31223920387 1386.89676816579  Z M 1213.88212752434 1391.39265197976  C 1212.21815067432 1390.30048179659  1210.57006070904 1389.18429692584  1208.93837493804 1388.04444772039  L 1207.79302264778 1389.68401111691  C 1209.44052085646 1390.83490644095  1211.10458223017 1391.96190810254  1212.7846844462 1393.0646623536  L 1213.88212752434 1391.39265197976  Z M 1220.62052050074 1395.63181037593  C 1218.91565994465 1394.60462726143  1217.22574828047 1393.55283461713  1215.55131594491 1392.4767625842  L 1214.47004873736 1394.15927892168  C 1216.16070776157 1395.24577901758  1217.86699612238 1396.3077644367  1219.58837824273 1397.34490183852  L 1220.62052050074 1395.63181037593  Z M 1227.52634780379 1399.59199451129  C 1226.38789875264 1398.9646386598  1225.25245609071 1398.33184257489  1224.12005876119 1397.69362796008  C 1223.52172429522 1397.34899451995  1222.92512316743 1397.00136046003  1222.33027791668 1396.65073891349  L 1221.3147046777 1398.37370466947  C 1221.9180040463 1398.72930935384  1222.52309220453 1399.08187051425  1223.12994608774 1399.43137471183  C 1224.27059640655 1400.07427495148  1225.4143217153 1400.71170414752  1226.56108259938 1401.34364033312  L 1227.52634780379 1399.59199451129  Z M 1234.55303362447 1403.37496819123  C 1232.78715543058 1402.44644128496  1231.02811585478 1401.50496638372  1229.27605702427 1400.55061955696  L 1228.31937399648 1402.30696735405  C 1230.08002652825 1403.26599517175  1231.8476940453 1404.21208792824  1233.62223372325 1405.14516918092  L 1234.55303362447 1403.37496819123  Z M 1241.65240806881 1407.01970219863  C 1239.8686964166 1406.12591209291  1238.09156867511 1405.21904263741  1236.32116843303 1404.29916710552  L 1235.39904108439 1406.07390121318  C 1237.17812499082 1406.99828865722  1238.96396939447 1407.90960623116  1240.75643000237 1408.8077803022  L 1241.65240806881 1407.01970219863  Z M 1248.82175180772 1410.52480046244  C 1247.02088992625 1409.66608951271  1245.22635472626 1408.79417286826  1243.4382912029 1407.90912097838  L 1242.55107274309 1409.70156160628  C 1244.3479065677 1410.59095460128  1246.15124381198 1411.46714792356  1247.96093876957 1412.33007077831  L 1248.82175180772 1410.52480046244  Z M 1256.05831871124 1413.88892039737  C 1254.24099639876 1413.06561752241  1252.42974111517 1412.2289876661  1250.62469920653 1411.37909842659  L 1249.77272947379 1413.18855900215  C 1251.58662496122 1414.04261687692  1253.40676429972 1414.88335033234  1255.23300042535 1415.71069143869  L 1256.05831871124 1413.88892039737  Z M 1263.35933690037 1417.11077341818  C 1261.52625026012 1416.32319397415  1259.69896867221 1415.52217136686  1257.87763977767 1414.70777031747  L 1257.06124510865 1416.5335577488  C 1258.8915074683 1417.35195336687  1260.72775171877 1418.1569049227  1262.56982949487 1418.94834737769  L 1263.35933690037 1417.11077341818  Z M 1270.72200980884 1420.18912543321  C 1268.87386098235 1419.43757109285  1267.03125300817 1418.67246255657  1265.1943347656 1417.89386164372  L 1264.41382787036 1419.73527658514  C 1266.25975604248 1420.51769647001  1268.11140185386 1421.28655779933  1269.96861569496 1422.04179845055  L 1270.72200980884 1420.18912543321  Z M 1278.1435172543 1423.12279731717  C 1276.28101415254 1422.40755595423  1274.42378558063 1421.67865455446  1272.57198159925 1420.93615201178  L 1271.82766144147 1422.79248913168  C 1273.68854836569 1423.53863358691  1275.5548864876 1424.27111018676  1277.42652501048 1424.98985974845  L 1278.1435172543 1423.12279731717  Z M 1285.62101651852 1425.91066536268  C 1283.74487255066 1425.23201094167  1281.87373476987 1424.53959587525  1280.00775436068 1423.8334761093  L 1279.29990604314 1425.70402436031  C 1281.17503892935 1426.41360758435  1283.05535448364 1427.10941888845  1284.94070077994 1427.79140205234  L 1285.62101651852 1425.91066536268  Z M 1293.15541566306 1428.55911178284  C 1292.80608236892 1428.43808696614  1292.45682416108 1428.31684552599  1292.10764124004 1428.19538753198  C 1290.56816202025 1427.66770181265  1289.03185569871 1427.13080439792  1287.49880486751 1426.58472415151  L 1286.82769952291 1428.46876704286  C 1288.36684761874 1429.01701916492  1289.90926114805 1429.55606044889  1291.45485734345 1430.08586196928  C 1291.80339778645 1430.20709451517  1292.1520130709 1430.32811178529  1292.50070299821 1430.44891371069  L 1293.15541566306 1428.55911178284  Z M 1300.71776716548 1431.14126530454  C 1298.82430579593 1430.50417788029  1296.93298465177 1429.86074716699  1295.04383559082 1429.21098400272  L 1294.39334642874 1431.10224386059  C 1296.28672062321 1431.75346023794  1298.18227175869 1432.39833000158  1300.07996790636 1433.03684228928  L 1300.71776716548 1431.14126530454  Z M 1308.30289084442 1433.65573857564  C 1306.4038120632 1433.03559655416  1304.50681673829 1432.40909237183  1302.61193682311 1431.77623658165  L 1301.97837392618 1433.673233697  C 1303.8774917921 1434.30750488646  1305.77872979877 1434.93541026247  1307.68205592162 1435.55693924854  L 1308.30289084442 1433.65573857564  Z M 1315.91018100011 1436.10233080629  C 1314.00563645552 1435.49918370816  1312.10311843196 1434.88965608549  1310.20265897556 1434.27375820522  L 1309.58607293608 1436.1763410959  C 1311.49078282192 1436.79361644859  1313.39755587911 1437.40450729647  1315.30635998955 1438.00900334955  L 1315.91018100011 1436.10233080629  Z M 1323.53903016271 1438.48084662719  C 1321.62917193962 1437.89474261591  1319.7212831403 1437.30224022587  1317.81539590135 1436.70334943722  L 1317.21583595597 1438.61136617506  C 1319.12598576374 1439.21159639931  1321.03814160858 1439.80542393716  1322.9522712817 1440.39283878606  L 1323.53903016271 1438.48084662719  Z M 1331.18882914081 1440.79109610518  C 1329.27380974842 1440.22208198332  1327.36070252511 1439.64665213935  1325.4495396957 1439.06481626594  L 1324.86705372146 1440.97811448885  C 1326.78249091875 1441.56125165409  1328.69987685862 1442.13796846262  1330.6191792442 1442.70825520012  L 1331.18882914081 1440.79109610518  Z M 1338.85896707009 1443.03289475842  C 1336.93893942962 1442.48101596381  1335.02076655101 1441.92270461611  1333.1044807444 1441.35797011964  L 1332.53911525494 1443.2763970438  C 1334.45968688715 1443.8423945844  1336.3821498117 1444.40195461066  1338.30647164649 1444.95506769729  L 1338.85896707009 1443.03289475842  Z M 1346.54883146209 1445.20606357113  C 1344.62394889475 1444.67136417329  1342.70086353393 1444.13021590506  1340.77960777253 1443.58262788165  L 1340.23140791433 1445.50603031366  C 1342.15696061672 1446.05484303264  1344.08434701048 1446.59720159376  1346.01353463027 1447.13309686141  L 1346.54883146209 1445.20606357113  Z M 1354.25780825312 1447.31042900784  C 1352.32822446779 1446.79295170449  1350.40038019014 1446.26900972838  1348.47430789322 1445.73861190492  L 1347.94331744204 1447.66683625409  C 1349.87369745232 1448.19842032679  1351.80585340626 1448.72353411341  1353.73975275849 1449.24216876891  L 1354.25780825312 1447.31042900784  Z M 1361.98528185329 1449.34582302733  C 1360.05115093427 1448.84560914089  1358.11870168518 1448.33891529559  1356.18796665662 1447.82575002628  L 1355.67422801399 1449.75864231688  C 1357.60928118417 1450.27295529433  1359.5460524088 1450.78078237426  1361.48450906447 1451.28211500272  L 1361.98528185329 1449.34582302733  Z M 1369.73063519568 1451.31208309594  C 1367.79211159036 1450.82917257034  1365.85521168294 1450.33976731719  1363.91996809899 1449.84387558014  L 1363.4235222888 1451.78128146367  C 1365.3630940979 1452.27828227613  1367.30432593488 1452.7687820975  1369.24718510119 1453.25277266569  L 1369.73063519568 1451.31208309594  Z M 1377.4932497856 1453.20905220066  C 1375.55048829217 1452.74348359805  1373.60929239493 1452.27140601784  1371.66969479182 1451.79282741183  L 1371.19058145709 1453.73459217937  C 1373.13451702322 1454.21424113951  1375.08005445811 1454.68737453413  1377.0271609907 1455.15398439364  L 1377.4932497856 1453.20905220066  Z M 1336.29874851696 1140.85471302247  C 1338.02769355639 1139.85369900487  1339.75991174146 1138.85834903175  1341.49537521304 1137.86867911124  L 1340.50462478696 1136.13132088876  C 1338.76536870888 1137.12315359093  1337.0293650093 1138.12067875872  1335.29664160849 1139.12388034887  L 1336.29874851696 1140.85471302247  Z M 1376.43927872842 1461.78567639177  L 1385 1456  L 1379.93626779931 1446.99341262188  L 1376.43927872842 1461.78567639177  Z " fill-rule="nonzero" fill="#aaaaaa" stroke="none" />
  </g>
</svg>