<?xml version="1.0" encoding="utf-8"?>
<svg version="1.1" xmlns:xlink="http://www.w3.org/1999/xlink" width="132px" height="14px" viewBox="856 1282  132 14" xmlns="http://www.w3.org/2000/svg">
  <g transform="matrix(0.642787609686532 -0.766044443118982 0.766044443118985 0.642787609686544 -658.081463311354 1166.73974766975 )">
    <path d="M 891.289975733639 1251.37095464271  C 889.79441054929 1250.03441297251  888.287357364072 1248.71078202617  886.768983990259 1247.40020919168  L 885.462172440424 1248.9142249027  C 886.971849221213 1250.21729133675  888.470270650604 1251.53334109136  889.957269877479 1252.86222762274  L 891.289975733639 1251.37095464271  Z M 897.210259226021 1256.78533891511  C 895.745794575278 1255.4147907972  894.26954834396 1254.05688606941  892.781684913978 1252.71177593618  L 891.440435185886 1254.19536926553  C 892.919776770743 1255.53277518344  894.387567695294 1256.88290241396  895.843644519109 1258.24560061866  L 897.210259226021 1256.78533891511  Z M 903.004589706764 1262.33430710383  C 901.57199864735 1260.93047601951  900.127338646901 1259.53901431744  898.670770570162 1258.16007693866  L 897.295790679175 1259.61246473101  C 898.744016157192 1260.9835041465  900.18040176327 1262.36699615129  901.604787554058 1263.76278669181  L 903.004589706764 1262.33430710383  Z M 908.669908480007 1268.01493003419  C 907.269947244301 1266.57855703411  905.857636078034 1265.15427287889  904.433132243839 1263.74223616436  L 903.025148010706 1265.16265173709  C 904.441492896442 1266.56660090949  905.84571494862 1267.98272737446  907.237657805369 1269.41087344457  L 908.669908480007 1268.01493003419  Z M 914.203224952251 1273.82420903398  C 912.836632548098 1272.35605234694  911.45741574308 1270.8996975859  910.065728114757 1269.45530691785  L 908.625482782476 1270.84300046573  C 910.009199419521 1272.27911828205  911.3805166608 1273.72713166614  912.739281808381 1275.18687937985  L 914.203224952251 1273.82420903398  Z M 919.601618211019 1279.75907751635  C 918.269116031598 1278.25991214901  916.923721645168 1276.77225555888  915.565584863096 1275.29627339842  L 914.093838704565 1276.65051238946  C 915.444196660252 1278.11804075563  916.781885203285 1279.59717668532  918.106755380356 1281.08775547489  L 919.601618211019 1279.75907751635  Z M 924.862238566747 1285.81640259863  C 923.564530009794 1284.28701992643  922.253668245169 1282.76884680743  920.92979923901 1281.26205229213  L 919.427329155703 1282.58212185422  C 920.743615606633 1284.08028609524  922.046969315944 1285.5897637682  923.33724515353 1287.11038679082  L 924.862238566747 1285.81640259863  Z M 929.975750450148 1292.00203289594  C 928.717512096989 1290.43911907584  927.444205652491 1288.88839605446  926.156009330228 1287.35008087293  L 924.622643411115 1288.63413264685  C 925.902570606102 1290.16257315026  927.167703503698 1291.70334184573  928.417865034321 1293.25622308533  L 929.975750450148 1292.00203289594  Z M 934.927594157325 1298.31776676647  C 933.710028313081 1296.72296371362  932.477085384893 1295.1399593149  931.228937936961 1293.56897512953  L 929.663008120872 1294.81310687942  C 930.90314352131 1296.37400667938  932.128172002134 1297.94684953315  933.33792210683 1299.53141530368  L 934.927594157325 1298.31776676647  Z M 939.715124301172 1304.75894721306  C 938.539038825571 1303.13331308555  937.347277476144 1301.51907763909  936.140007053287 1299.91646680407  L 934.542552340803 1301.11985304363  C 935.742073111984 1302.712176477  936.926184364832 1304.31604990167  938.094720369655 1305.93124883753  L 939.715124301172 1304.75894721306  Z M 944.33516433664 1311.32130048718  C 943.201339567011 1309.66591389964  942.051550534686 1308.02151845701  940.885958165565 1306.38834431092  L 939.258038474161 1307.55018658865  C 940.416148729351 1309.17287714258  941.558557091741 1310.80671696182  942.685103668472 1312.45147737217  L 944.33516433664 1311.32130048718  Z M 948.784648849028 1318.00047244168  C 947.693837082553 1316.3164317496  946.586783256874 1314.64296737364  945.4636423166 1312.98031353392  L 943.806337777381 1314.09984096293  C 944.922269105869 1315.75182197585  946.02221658539 1317.41454413055  947.106026265942 1319.0877747104  L 948.784648849028 1318.00047244168  Z M 953.060625587893 1324.79203141974  C 952.013550582471 1323.08045399075  950.949966497978 1321.37903103161  949.870022194984 1319.68800067564  L 948.184432436019 1320.76447044506  C 949.25744441299 1322.4446458211  950.314201190164 1324.13514708857  951.354554862561 1325.83573764285  L 953.060625587893 1324.79203141974  Z M 957.160257425879 1331.69147119531  C 956.157613919881 1329.95349266774  955.138205268804 1328.22524002626  954.102174150367 1326.5069551593  L 952.38941756708 1327.53965302722  C 953.418798244871 1329.24690796341  954.431663157433 1330.96406668944  955.427870542927 1332.69088886964  L 957.160257425879 1331.69147119531  Z M 961.080928705368 1338.69528677339  C 961.013491832318 1338.57081409605  960.945970132119 1338.44638739492  960.87836365198 1338.32200675698  C 959.985992619862 1336.68410996182  959.078931543615 1335.05425952601  958.157290133312 1333.43265258184  L 956.41850314642 1334.42089334917  C 957.334065444689 1336.03180423501  958.235146161016 1337.6509027872  959.121636347459 1339.27799324365  C 959.188650966188 1339.40128592951  959.255581743469 1339.52462416806  959.322428632978 1339.64800787392  L 961.080928705368 1338.69528677339  Z M 964.812778941688 1345.80039368584  C 963.902738701719 1344.01218505035  962.97544594329 1342.23280894317  962.03103045145 1340.46251440802  L 960.266431532067 1341.40389140674  C 961.204784677844 1343.16282215318  962.126125003623 1344.93077617564  963.030323557476 1346.7075060291  L 964.812778941688 1345.80039368584  Z M 968.360388915643 1352.99926261759  C 967.496708460122 1351.18820783289  966.615553715263 1349.38553828296  965.717048008594 1347.59150627168  L 963.928787984298 1348.487121192  C 964.821526046767 1350.26963704011  965.697024525873 1352.06073498121  966.555160885754 1353.86016433097  L 968.360388915643 1352.99926261759  Z M 971.721404774086 1360.28711709082  C 970.904657158384 1358.45441779889  970.070225076732 1356.62965088452  969.218225317296 1354.8130717444  L 967.407490705634 1355.66233034231  C 968.254021349591 1357.46724858584  969.083097085335 1359.28030204502  969.894601874407 1361.10123696266  L 971.721404774086 1360.28711709082  Z M 974.893596469799 1367.65912158549  C 974.124323609164 1365.80599378948  973.337167839687 1363.96034025071  972.532239332667 1362.12241928913  L 970.700231563163 1362.92475807822  C 971.499993112199 1364.75088114681  972.282096009581 1366.58468715601  973.046430791226 1368.42591944405  L 974.893596469799 1367.65912158549  Z M 977.874859241139 1375.11038474766  C 977.153571551136 1373.23805800516  976.414214374772 1371.37274244034  975.656891193395 1369.51469912508  L 973.804825810397 1370.26958575041  C 974.557287619582 1372.11570200424  975.291898750264 1373.96904382597  976.008556385351 1375.82935181956  L 977.874859241139 1375.11038474766  Z M 980.66321500855 1382.63596263498  C 979.990391066396 1380.74567924213  979.29932304953 1378.86193929545  978.590107680703 1376.98500644555  L 976.719213536864 1377.69194003688  C 977.423876344835 1379.55682457057  978.110508291442 1381.42847250525  978.77901327482 1383.30662188274  L 980.66321500855 1382.63596263498  Z M 983.256813687035 1390.23086199696  C 982.632899914054 1388.32387616422  981.990579583033 1386.42296170454  981.329942593936 1384.52838467231  L 979.441461034865 1385.18689617643  C 980.097857295086 1387.06931163178  980.736054474622 1388.95802383364  981.355963250611 1390.85276843554  L 983.256813687035 1390.23086199696  Z M 985.653184913138 1397.89002372935  C 985.382648888248 1396.98566980859  985.108446896494 1396.08241660611  984.830585700579 1395.18028639901  C 984.517102379183 1394.16517720193  984.198428991175 1393.15167805985  983.87457804187 1392.13982874429  L 981.969762082498 1392.74948123622  C 982.29145888431 1393.75460007077  982.608013768276 1394.76135737577  982.919414318027 1395.76971366275  C 983.195609390413 1396.66644128322  983.468168130496 1397.56428487244  983.737083819604 1398.46322229823  L 985.653184913138 1397.89002372935  Z M 987.864063812239 1405.60217830333  C 987.33351451254 1403.6678628437  986.786308831311 1401.73815454251  986.222507700605 1399.81326827527  L 984.303145769739 1400.37545132228  C 984.8637176888 1402.28931266457  985.407789210018 1404.20796842227  985.935299750332 1406.13120495058  L 987.864063812239 1405.60217830333  Z M 989.897179629243 1413.36309021844  C 989.411209452421 1411.41709642501  988.908481445175 1409.47532590924  988.389051586903 1407.53799488973  L 986.457280619648 1408.05593400785  C 986.973735405938 1409.98216882419  987.473584002259 1411.91281770927  987.956770749839 1413.84766568287  L 989.897179629243 1413.36309021844  Z M 991.751459128347 1421.16866266501  C 991.310324607055 1419.21201778385  990.852339652521 1417.25921007018  990.377555261947 1415.31045697158  L 988.434394996455 1415.78387875246  C 988.906460025183 1417.72147022711  989.361821837857 1419.66309309376  989.800429729357 1421.60853115021  L 991.751459128347 1421.16866266501  Z M 993.42592347739 1429.01477525808  C 993.029857476555 1427.04851215774  992.616857334617 1425.08569808911  992.186969039671 1423.12655161407  L 990.233445226248 1423.55520614909  C 990.660871304978 1425.50313147139  991.071505958807 1427.45470338082  991.465303463056 1429.40970456744  L 993.42592347739 1429.01477525808  Z M 994.919688764557 1436.89728621248  C 994.568900358448 1434.9224428387  994.201103042537 1432.95065854027  993.816337771513 1430.98215287783  L 991.853481631146 1431.36581388996  C 992.236043131324 1433.32304479421  992.601733861583 1435.28353555586  992.95051310179 1437.24706787176  L 994.919688764557 1436.89728621248  Z M 996.231966464976 1444.81203452916  C 995.926640826855 1442.82965335706  995.604240488837 1440.84993968906  995.264801350612 1438.87311396881  L 993.293649030614 1439.21157893209  C 993.631144006691 1441.17708224044  993.951697773515 1443.14545695559  994.25527463702 1445.11648389654  L 996.231966464976 1444.81203452916  Z M 997.253502610238 1451.93108272126  C 997.02558353162 1450.21738151866  996.78494108124 1448.50539654699  996.531595165844 1446.79526942734  L 994.553187192891 1447.08835967378  C 994.845437488909 1449.06109784152  995.120685079226 1451.03631744974  995.378899314676 1453.01379855524  L 997.253502610238 1451.93108272126  Z M 885.246864413221 1246.09401241748  C 883.720988170269 1244.79218272508  882.183923570392 1243.50352427499  880.635841767675 1242.22818056096  L 879.364158232325 1243.77181943904  C 880.903373284853 1245.03985852996  882.43163423635 1246.32113609581  883.948770913059 1247.61550946474  L 885.246864413221 1246.09401241748  Z M 988.62960010828 1451.94224417357  L 997 1458  L 1003.72414689944 1450.15488378195  L 988.62960010828 1451.94224417357  Z " fill-rule="nonzero" fill="#027db4" stroke="none" />
  </g>
</svg>