<?xml version="1.0" encoding="utf-8"?>
<svg version="1.1" xmlns:xlink="http://www.w3.org/1999/xlink" width="116px" height="14px" viewBox="1070 1414  116 14" xmlns="http://www.w3.org/2000/svg">
  <g transform="matrix(0.66913060635885 -0.743144825477398 0.743144825477401 0.669130606358862 -682.78812097617 1308.43277150256 )">
    <path d="M 1062.35668911959 1289.60338886309  C 1061.97321948572 1287.64719368826  1061.60909608546 1285.68725572735  1061.26437228503 1283.72386223048  L 1059.29450415392 1284.06972281807  C 1059.64150716109 1286.04609766314  1060.00803803222 1288.01899412534  1060.39404304825 1289.9881230553  L 1062.35668911959 1289.60338886309  Z M 1063.99349984366 1297.40698484925  C 1063.55860484015 1295.4615761883  1063.1429507025 1293.51191614127  1062.7465983493 1291.55829045187  L 1060.78653023673 1291.95594984643  C 1061.18550314863 1293.92249230232  1061.60390546239 1295.88504289627  1062.04167585664 1297.84331399527  L 1063.99349984366 1297.40698484925  Z M 1065.83541793193 1305.1647292004  C 1065.34939971913 1303.23145870225  1064.88250363608 1301.2934311718  1064.43479811144 1299.35093064789  L 1062.48589185155 1299.80011255998  C 1062.93655746611 1301.75545629423  1063.4065405211 1303.70629746102  1063.89577213542 1305.65235014345  L 1065.83541793193 1305.1647292004  Z M 1067.8811636396 1312.87123191961  C 1067.34435989772 1310.95144279972  1066.82654626362 1309.02639430641  1066.32779862851 1307.09636857638  L 1064.3914083003 1307.59676091925  C 1064.89345349993 1309.53954738019  1065.41469075699 1311.47732369642  1065.95504367855 1313.40980586593  L 1067.8811636396 1312.87123191961  Z M 1070.12931560467 1320.52113861208  C 1069.54209929915 1318.61616471918  1068.97372788532 1316.70543276591  1068.4242846642 1314.78922279076  L 1066.50175565074 1315.34047789723  C 1067.05483161985 1317.2693572578  1067.62696092899 1319.19272237748  1068.21805972642 1321.11029136631  L 1070.12931560467 1320.52113861208  Z M 1072.57831183547 1328.10913420533  C 1071.94109095783 1326.22029909467  1071.3225566626 1324.32521123739  1070.72279960267 1322.42414837908  L 1068.81546765635 1323.02588324305  C 1069.41919012374 1324.93951533874  1070.04181397569 1326.84713292854  1070.68324795992 1328.74845643051  L 1072.57831183547 1328.10913420533  Z M 1075.2369952159 1335.62272677794  C 1074.54444406739 1333.7543167339  1073.87262058854 1331.87828895514  1073.22164854062 1329.99498903777  L 1071.33138510584 1330.64836806035  C 1071.98718447752 1332.54563370554  1072.66398990521 1334.43557328512  1073.36167670989 1336.31783864019  L 1075.2369952159 1335.62272677794  Z M 1078.11719210769 1343.05427257937  C 1077.36973488418 1341.20714213325  1076.64277118797 1339.35178480977  1075.93643493807 1337.48854239719  L 1074.06630317088 1338.19749033135  C 1074.77787730122 1340.07454973407  1075.510231842 1341.94366557532  1076.26323188109 1343.80449353229  L 1078.11719210769 1343.05427257937  Z M 1081.21572145121 1350.39746827618  C 1080.41401090486 1348.57323052144  1079.63254184648 1346.7401639312  1078.87145823594 1344.89860618742  L 1077.02309131679 1345.66250391106  C 1077.78981879024 1347.51771784097  1078.57708288108 1349.36437765066  1079.38473856192 1351.20214315407  L 1081.21572145121 1350.39746827618  Z M 1084.52987731011 1357.64590107763  C 1083.67461357232 1355.84614911562  1082.83932160637 1354.03697407017  1082.0241552872 1352.21870922202  L 1080.19916738936 1353.03688962556  C 1081.02037862513 1354.86863792993  1081.86186475067 1356.69122902558  1082.72347074997 1358.50432716034  L 1084.52987731011 1357.64590107763  Z M 1088.05676544204 1364.79324094916  C 1087.14869541206 1363.01954649784  1086.2603099965 1361.23584294433  1085.391772851 1359.44245887703  L 1083.59175773092 1360.31420744598  C 1084.4667355677 1362.12089046451  1085.36170886064 1363.9178211828  1086.27651274047 1365.70466857577  L 1088.05676544204 1364.79324094916  Z M 1091.7933058262 1371.83324614033  C 1090.83322251886 1370.08715816176  1089.89251947799 1368.33048380312  1088.97136999705 1366.56354667359  L 1087.19789960251 1367.48810211254  C 1088.12587992479 1369.26814207439  1089.07355880764 1371.03784316113  1090.04076167253 1372.79687936384  L 1091.7933058262 1371.83324614033  Z M 1095.73619486231 1378.75864089975  C 1095.64478026105 1378.60378503272  1095.55352055808 1378.44883777816  1095.46241589043 1378.2937993687  C 1094.54572048585 1376.73023851442  1093.64480964347 1375.15747675073  1092.75982067391 1373.57575378713  L 1091.01444377129 1374.5523086846  C 1091.90615757931 1376.14605081656  1092.8139171606 1377.73076200486  1093.73758411039 1379.30620063091  C 1093.82953203462 1379.46267537535  1093.92163671727 1379.61905795252  1094.01389801949 1379.77534812665  L 1095.73619486231 1378.75864089975  Z M 1099.88882433306 1385.56151349983  C 1098.8256012571 1383.87624204493  1097.78108762359 1382.17923930986  1096.75547584967 1380.47081791128  L 1095.04073754849 1381.50022189343  C 1096.07395481039 1383.22131219728  1097.12621409979 1384.93089916181  1098.19732157269 1386.62866785212  L 1099.88882433306 1385.56151349983  Z M 1104.2406543797 1392.23871219235  C 1103.12809852937 1390.58559312045  1102.03389731182 1388.92019505726  1100.95825229745 1387.24282479729  L 1099.27467994674 1388.32244701822  C 1100.35830147369 1390.01225592179  1101.46061680852 1391.69000384805  1102.58142288603 1393.35538172736  L 1104.2406543797 1392.23871219235  Z M 1108.78788456212 1398.78440579978  C 1107.62696752911 1397.1648827748  1106.48403429014 1395.5325437706  1105.35929539288 1393.88768949166  L 1103.70835925131 1395.01658712052  C 1104.8414387199 1396.67363891879  1105.99284745148 1398.31808263454  1107.16237333704 1399.94961533336  L 1108.78788456212 1398.78440579978  Z M 1113.52654379787 1405.19287798757  C 1112.31827940754 1403.60836533411  1111.12761226731 1402.01051090563  1109.95476171826 1400.39960905401  L 1108.3379035434 1401.5767962279  C 1109.51945143872 1403.19964382251  1110.71894804528 1404.80934724001  1111.93617239544 1406.40560994573  L 1113.52654379787 1405.19287798757  Z M 1118.45249383009 1411.45853225623  C 1117.19793725609 1409.9104137244  1115.96057602065 1408.34843927313  1114.74063806667 1406.77289664457  L 1113.15926985589 1407.99734532947  C 1114.38825433574 1409.5845714925  1115.63479130048 1411.15812886259  1116.89865111688 1412.71772756379  L 1118.45249383009 1411.45853225623  Z M 1123.56143284143 1417.57589682871  C 1122.26167968425 1416.06552438578  1120.97870493743 1414.54079397931  1119.71274494667 1413.00198649046  L 1118.16824770409 1414.27262737901  C 1119.4435955 1415.82284599063  1120.73608422594 1417.35888313037  1122.04547578361 1418.88045583421  L 1123.56143284143 1417.57589682871  Z M 1128.84953607023 1423.53958828797  C 1128.21145969916 1422.84042244994  1127.57666856383 1422.13826548122  1126.94518364211 1421.43314058588  C 1126.24781386526 1420.65327778838  1125.55498766748 1419.86936390545  1124.86674023227 1419.08143874623  L 1123.36046276269 1420.39716219157  C 1124.05397757485 1421.19111759313  1124.7521072798 1421.9810300633  1125.45481640801 1422.7668594694  C 1126.0906406485 1423.47683320832  1126.72979470577 1424.18381784533  1127.37225744683 1424.88779000465  L 1128.84953607023 1423.53958828797  Z M 1134.30157135176 1429.35771263784  C 1132.91945975854 1427.92121827097  1131.55158158462 1426.47109690966  1130.19813730735 1425.00756108487  L 1128.72977521662 1426.36546858191  C 1130.09216804725 1427.83868085118  1131.46909020694 1429.29838996469  1132.8603398929 1430.74438198632  L 1134.30157135176 1429.35771263784  Z M 1139.90505839722 1435.03011888149  C 1138.48556588521 1433.63055125879  1137.07994268714 1432.21698623155  1135.68839481226 1430.78963097301  L 1134.25633259955 1432.18576772094  C 1135.65708095692 1433.62256020928  1137.07199769917 1435.0454712896  1138.50087545494 1436.45429241888  L 1139.90505839722 1435.03011888149  Z M 1145.65610396437 1440.55286589237  C 1144.20021678164 1439.19119741829  1142.7578251712 1437.81517085482  1141.32914053116 1436.42498787355  L 1139.9343731778 1437.85838385164  C 1141.37250383711 1439.25775829117  1142.82443209303 1440.64288271504  1144.2899451498 1442.0135541183  L 1145.65610396437 1440.55286589237  Z M 1151.55071228891 1445.92211652554  C 1150.05944197013 1444.59929327263  1148.58128410544 1443.26176122132  1147.11645533487 1441.90971640141  L 1145.75995191015 1443.37937570163  C 1147.23446567376 1444.74035982212  1148.7223966593 1446.08673522006  1150.22352679443 1447.41830456962  L 1151.55071228891 1445.92211652554  Z M 1157.58478786069 1451.1341402837  C 1156.05917052435 1449.85108133525  1154.54627341352 1448.55297309892  1153.04631825962 1447.2400058265  L 1151.72902124746 1448.74490734546  C 1153.23889363914 1450.06655554983  1154.76179355595 1451.37324647479  1156.29749780044 1452.66478861065  L 1157.58478786069 1451.1341402837  Z M 1162.89504976062 1455.49808820972  C 1161.62662592666 1454.47962468854  1160.36643810935 1453.45094606002  1159.11460930075 1452.41215272134  L 1157.83743394488 1453.95125086973  C 1159.38161592161 1455.2326448911  1160.93842667526 1456.49874346833  1162.50763803842 1457.74936104097  L 1162.89504976062 1455.49808820972  Z M 1060.92612299811 1281.75936309607  C 1060.59434516443 1279.79374055061  1060.28200549056 1277.82488641956  1059.98914975328 1275.85308925979  L 1058.01085024672 1276.14691074021  C 1058.30564225522 1278.1317448106  1058.62004702203 1280.11361639387  1058.95401846773 1282.09223502532  L 1060.92612299811 1281.75936309607  Z M 1156.81119538858 1461.71704996732  L 1167 1460  L 1166.12476406775 1449.70466309134  L 1156.81119538858 1461.71704996732  Z " fill-rule="nonzero" fill="#009999" stroke="none" />
  </g>
</svg>