<?xml version="1.0" encoding="utf-8"?>
<svg version="1.1" xmlns:xlink="http://www.w3.org/1999/xlink" width="180px" height="16px" viewBox="1262 1304  180 16" xmlns="http://www.w3.org/2000/svg">
  <g transform="matrix(0.642787609686541 -0.766044443118983 0.766044443118978 0.642787609686545 -522.099157668302 1504.35474318812 )">
    <path d="M 1307.88770801741 1254.59168326659  C 1306.86065114373 1252.88032976695  1305.84417103899 1251.16265088021  1304.8383258337 1249.43874483708  L 1303.11086981011 1250.44666134482  C 1304.12086402495 1252.1776783257  1305.14153700711 1253.90244246377  1306.17283038633 1255.62085512319  L 1307.88770801741 1254.59168326659  Z M 1312.05209241991 1261.40294478737  C 1310.9969975204 1259.7087336507  1309.95237380929 1258.00802383905  1308.91828102656 1256.30091261266  L 1307.20765440471 1257.33713486711  C 1308.24601271539 1259.05128775432  1309.29494539344 1260.7590128216  1310.35439245249 1262.46021240753  L 1312.05209241991 1261.40294478737  Z M 1316.32805899648 1268.14471686837  C 1315.245212119 1266.46810741399  1314.17272801052 1264.78482775858  1313.11066800429 1263.0949741656  L 1311.41733455389 1264.15922123549  C 1312.48377545002 1265.85604530331  1313.56068344677 1267.54626831671  1314.64799695789 1269.22979361519  L 1316.32805899648 1268.14471686837  Z M 1320.71444848548 1274.81517174093  C 1319.60414320175 1273.15661851613  1318.50408945814 1271.49122537262  1317.41435016459 1269.81908755096  L 1315.73876896699 1270.91107090718  C 1316.83300332471 1272.59010612792  1317.93759467853 1274.26236884938  1319.05247985904 1275.92776343816  L 1320.71444848548 1274.81517174093  Z M 1325.21007168841 1281.41250097125  C 1324.07260901441 1279.77245362809  1322.94528387238 1278.1253985029  1321.82816073182 1276.47142978755  L 1320.17078605554 1277.59085338139  C 1321.29251721585 1279.25164455009  1322.42449245987 1280.90549361078  1323.56664705213 1282.55230598303  L 1325.21007168841 1281.41250097125  Z M 1329.81370979229 1287.93491595073  C 1328.6493981067 1286.3138191241  1327.49510719649 1284.68554855202  1326.35090307332 1283.05019735211  L 1324.7121842509 1284.1967576955  C 1325.86110810013 1285.83885455339  1327.02016034338 1287.47384157659  1328.18927469669 1289.10162526336  L 1329.81370979229 1287.93491595073  Z M 1334.52411470014 1294.38064838081  C 1333.33326966066 1292.7789415679  1332.15232592328 1291.16989699104  1330.98135102382 1289.55360666828  L 1329.36173232998 1290.72699291609  C 1330.53753738223 1292.34995027264  1331.72335239287 1293.96563199534  1332.91910954746 1295.57394568654  L 1334.52411470014 1294.38064838081  Z M 1339.3400093693 1300.74795075243  C 1338.12295382716 1299.16606819363  1336.91567742941 1297.57668584164  1335.71824921789 1295.97989459018  L 1334.11816974909 1297.17978862446  C 1335.32053723065 1298.78316647803  1336.53279352119 1300.37910487116  1337.75486929412 1301.96751253522  L 1339.3400093693 1300.74795075243  Z M 1344.26008815767 1307.03509681979  C 1343.01715207 1305.47346738085  1341.78387031789 1303.90417815286  1340.56031343024 1302.32731888036  L 1338.98020698565 1303.55339539663  C 1340.20881092147 1305.13675905384  1341.44717983585 1306.71252144088  1342.69524290892 1308.28059244301  L 1344.26008815767 1307.03509681979  Z M 1349.28301717771 1313.24038206833  C 1348.0145375182 1311.69942912422  1346.75558476793 1310.15065847178  1345.50623092394 1308.59415868217  L 1343.94652588782 1309.84608527759  C 1345.20103318981 1311.40900547109  1346.46517899261 1312.96416464554  1347.73889100217 1314.5114738644  L 1349.28301717771 1313.24038206833  Z M 1354.41262250715 1319.3549782586  C 1353.11602762136 1317.83821181892  1351.82986457025 1316.31255876763  1350.55422434239 1314.77812703586  L 1349.01627798806 1316.0566891232  C 1350.29777198521 1317.59816218933  1351.58983709369 1319.13081629062  1352.89238190735 1320.65454300061  L 1354.41262250715 1319.3549782586  Z M 1359.65424469076 1325.37419209988  C 1358.3300914333 1323.88142390585  1357.01620552507 1322.37957955732  1355.71267991593 1320.86876530115  L 1354.19840513312 1322.17527664138  C 1355.50791247444 1323.69302385398  1356.82782765709 1325.20175999703  1358.15805730468 1326.70137833615  L 1359.65424469076 1325.37419209988  Z M 1365.00521480901 1331.29640935159  C 1363.65394726911 1329.82814004184  1362.31277914958 1328.35060807866  1360.98180533036 1326.86391798893  L 1359.49170997051 1328.19794040948  C 1360.82879147864 1329.69145275255  1362.17611406759 1331.17576494348  1363.53358242201 1332.65077197568  L 1365.00521480901 1331.29640935159  Z M 1370.46373827489 1337.11964384414  C 1369.08580963525 1335.67636584097  1367.71780910006 1334.22364179192  1366.35983344744 1332.76157446881  L 1364.89441725277 1334.12266057057  C 1366.25862450268 1335.59143715591  1367.63290263823 1337.05082759198  1369.01715443716 1338.50072863533  L 1370.46373827489 1337.11964384414  Z M 1376.02798443059 1342.8419426044  C 1374.62385681543 1341.42413994862  1373.22948265912 1339.99671102247  1371.84496060556 1338.55975680831  L 1370.40471504152 1339.94745011565  C 1371.7955905108 1341.39099835082  1373.19636329306 1342.82497758753  1374.60693429165 1344.24928637997  L 1376.02798443059 1342.8419426044  Z M 1381.69608716144 1348.46138651063  C 1380.26623148148 1347.06953469925  1378.84595134368 1345.66787962142  1377.43534722467 1344.25652043617  L 1376.02075531506 1345.67035555005  C 1377.43783253746 1347.08819130361  1378.86463018083 1348.49627841871  1380.30104730742 1349.89451728125  L 1381.69608716144 1348.46138651063  Z M 1387.46614552177 1353.97609093618  C 1386.0110413163 1352.61065676289  1384.56533152491 1351.23524561488  1383.12911842322 1349.84995479454  L 1381.74065458823 1351.28945754859  C 1383.18345831005 1352.68110531244  1384.63580230081 1354.06282806728  1386.09758381556 1355.43452806417  L 1387.46614552177 1353.97609093618  Z M 1393.33622437245 1359.38420638148  C 1391.85635964851 1358.04564778016  1390.38570505988 1356.69694184183  1388.92436464694 1355.33818397973  L 1387.56249454403 1356.80287159926  C 1389.03054088352 1358.16786464814  1390.50794414035 1359.52275964605  1391.99459979681 1360.86746074202  L 1393.33622437245 1359.38420638148  Z M 1399.30435502984 1364.68391909436  C 1397.80022609855 1363.37268498543  1396.30511993498 1362.05113658045  1394.8191423093 1360.71936737135  L 1393.48432267702 1362.20874863527  C 1394.97711928663 1363.54662918323  1396.47908632397 1364.87424202499  1397.99011753348 1366.19149323952  L 1399.30435502984 1364.68391909436  Z M 1405.36853592612 1369.87345167832  C 1403.84064723626 1368.58998181828  1402.32159092044 1367.29603416221  1400.81147444327 1365.99170024959  L 1399.50415294812 1367.50527565515  C 1401.02119917971 1368.81559500918  1402.54722627379 1370.11548044523  1404.08212627275 1371.4048400039  L 1405.36853592612 1369.87345167832  Z M 1411.52669115704 1374.94965508161  C 1411.22773203107 1374.70817360071  1410.92909125542 1374.46629826099  1410.63076960797 1374.22402969249  C 1409.38129870365 1373.20739464522  1408.13747350845 1372.18384048546  1406.89935136444 1371.15341440048  L 1405.61996645067 1372.69067633081  C 1406.86400889203 1373.72602957814  1408.11378275248 1374.75447671427  1409.36923039377 1375.77597030829  C 1409.66915651704 1376.01954293519  1409.9694037443 1376.26271990032  1410.26997129215 1376.50550056918  L 1411.52669115704 1374.94965508161  Z M 1417.78128956185 1379.9081450301  C 1416.20636790389 1378.68281760572  1414.63984887133 1377.44672826555  1413.08184247484 1376.19996381542  L 1411.83223278661 1377.76152573449  C 1413.39736241323 1379.01399041159  1414.97104359585 1380.25573117199  1416.55316582077 1381.48666081291  L 1417.78128956185 1379.9081450301  Z M 1424.12531616145 1384.75169231266  C 1422.52830014942 1383.55530383772  1420.93948900928 1382.34800192965  1419.35899431718 1381.12987137266  L 1418.13808386743 1382.71397290783  C 1419.72580460651 1383.93767277718  1421.32187981656 1385.15049448886  1422.9261974113 1386.35235287101  L 1424.12531616145 1384.75169231266  Z M 1430.55665890156 1389.47868441483  C 1428.93808021427 1388.31163319115  1427.32750591379 1387.13352065031  1425.7250491046 1385.94442952667  L 1424.53324435902 1387.55054329861  C 1426.14302762634 1388.74507096587  1427.76096549824 1389.92856985605  1429.38694435314 1391.10095685657  L 1430.55665890156 1389.47868441483  Z M 1437.07317665863 1394.08754762571  C 1435.43357415353 1392.95022218815  1433.80177288533 1391.80169123195  1432.17788744921 1390.64203541404  L 1431.01558518361 1392.26962671513  C 1432.64689504988 1393.43458449795  1434.28615693954 1394.58836655604  1435.93325573348 1395.73089186366  L 1437.07317665863 1394.08754762571  Z M 1443.67269995261 1398.57674756189  C 1442.01261948641 1397.469526549  1440.36013451001 1396.35095954652  1438.71536107114 1395.22112510713  L 1437.58294823935 1396.86965207943  C 1439.23524160864 1398.00465213991  1440.89528177277 1399.12833324862  1442.56295215336 1400.24061649365  L 1443.67269995261 1398.57674756189  Z M 1450.35303166925 1402.94478967827  C 1448.67302591617 1401.86804170623  1447.00040737712 1400.77981105096  1445.33529351371 1399.68017413474  L 1444.23314711878 1401.34908795042  C 1445.90587390937 1402.45375242418  1447.5861396871 1403.54695848739  1449.27382645331 1404.62862936835  L 1450.35303166925 1402.94478967827  Z M 1457.11194779154 1407.19021976562  C 1455.41257605935 1406.14430330554  1453.72038080605 1405.08677129139  1452.03548086804 1404.01769798962  L 1450.96396783671 1405.70644303363  C 1452.65657116414 1406.78040415561  1454.35650316117 1407.84277122302  1456.06364444806 1408.89346962987  L 1457.11194779154 1407.19021976562  Z M 1463.94719814013 1411.31162443476  C 1462.22902618392 1410.29688769328  1460.51781758225 1409.27040639396  1458.81369250679 1408.23225262268  L 1457.77316956733 1409.94026667779  C 1459.48508592984 1410.98316690469  1461.20411820459 1412.01434129292  1462.93014567042 1413.03371742698  L 1463.94719814013 1411.31162443476  Z M 1470.8565071225 1415.30763158703  C 1469.12010695631 1414.32441239046  1467.3904547021 1413.32932354228  1465.66767182675 1412.32243492379  L 1464.65848539022 1414.04914935771  C 1466.38914485639 1415.06064148705  1468.12670510833 1416.06027989734  1469.87104412381 1417.04799438778  L 1470.8565071225 1415.30763158703  Z M 1477.83757449047 1419.17691087116  C 1476.08352419691 1418.22553655297  1474.33600412624 1417.26217144106  1472.59513700013 1416.28688318887  L 1471.61762304501 1418.03172314357  C 1473.36644944344 1419.01147042924  1475.12195920376 1419.97924006182  1476.88402904329 1420.93496407859  L 1477.83757449047 1419.17691087116  Z M 1484.88872209726 1422.91763775861  C 1483.6626833212 1422.28082397196  1482.43934402421 1421.63882636824  1481.21873704621 1420.99166218154  C 1480.67647715222 1420.70367467975  1480.13482418108 1420.41454583618  1479.59378173421 1420.1242775732  L 1478.64826569459 1421.88666215633  C 1479.19198555865 1422.17836684862  1479.73631919809 1422.4689260536  1480.28126299082 1422.75833783782  C 1481.50705674287 1423.40825425944  1482.73559489018 1424.05298127832  1483.96684444232 1424.69250158136  L 1484.88872209726 1422.91763775861  Z M 1492.00338779532 1426.53973971222  C 1490.21737616194 1425.64872563626  1488.43682679997 1424.74680434875  1486.66183946978 1423.83402638241  L 1485.74720102454 1425.61263159844  C 1487.529435199 1426.52913621661  1489.3172541137 1427.43473983076  1491.11055760093 1428.32939170185  L 1492.00338779532 1426.53973971222  Z M 1499.17613817309 1430.04541262564  C 1497.37584283836 1429.1836235877  1495.58083129434 1428.31083976789  1493.79120411169 1427.42711006642  L 1492.90567313922 1429.22038497474  C 1494.70260693713 1430.107722731  1496.50494707948 1430.98406991622  1498.31259258495 1431.84937743051  L 1499.17613817309 1430.04541262564  Z M 1506.40506806764 1433.43372535282  C 1504.5909672102 1432.60139025375  1502.7819702593 1431.7579757228  1500.97817856924 1430.90352901471  L 1500.12199027651 1432.71099730141  C 1501.9331464121 1433.5689325089  1503.74952906034 1434.41579049754  1505.57103645315 1435.25152381966  L 1506.40506806764 1433.43372535282  Z M 1513.68825739416 1436.70377791993  C 1511.86083285951 1435.90111783725  1510.03833099164 1435.08729661553  1508.22085390144 1434.26235985145  L 1507.39423570167 1436.08354143267  C 1509.21913311156 1436.91184621419  1511.04907581412 1437.72899007128  1512.88396128146 1438.53492722108  L 1513.68825739416 1436.70377791993  Z M 1521.0237716559 1439.85470176434  C 1519.18350882853 1439.08192989358  1517.34798612055 1438.29791814111  1515.51730637254 1437.50271043349  L 1514.72047782477 1439.33712158301  C 1516.55863179577 1440.13557593151  1518.40164849931 1440.92278861447  1520.24942467507 1441.69871552602  L 1521.0237716559 1439.85470176434  Z M 1528.40966245805 1442.88565996535  C 1526.55705013235 1442.14298156337  1524.70899411975 1441.38898752249  1522.86559796295 1440.62372008741  L 1522.09877071379 1442.47087356504  C 1523.94969301158 1443.23926540211  1525.80529419023 1443.99633781843  1527.66547028431 1444.74204839684  L 1528.40966245805 1442.88565996535  Z M 1535.84396802519 1445.7958474665  C 1533.97949827577 1445.083459797  1532.11939982294 1444.35968373697  1530.26377688405 1443.62455983804  L 1529.5271546114 1445.48396501913  C 1531.39035361028 1446.22209025127  1533.25804639555 1446.94882131403  1535.13012832434 1447.6641174902  L 1535.84396802519 1445.7958474665  Z M 1543.32471372244 1448.58449128934  C 1541.4488817734 1447.9025835705  1539.57723494327 1447.20921773433  1537.70987809657 1446.50443262871  L 1537.00365645558 1448.37559563438  C 1538.87863726898 1449.08325820726  1540.75792558076 1449.77945488855  1542.6414160983 1450.46414667181  L 1543.32471372244 1448.58449128934  Z M 1550.84991257986 1451.25085073882  C 1548.96321667318 1450.59960409295  1547.08051859617 1449.93683264641  1545.20192383255 1449.26257353291  L 1544.5262904036 1451.1449973613  C 1546.41255501562 1451.82200931181  1548.30293969384 1452.48748669398  1550.19733852394 1453.1413922225  L 1550.84991257986 1451.25085073882  Z M 1556.59605973988 1453.19456450127  C 1555.30822498148 1452.76780415786  1554.02216867756 1452.33569558122  1552.73792412066 1451.89824995751  L 1552.09305835956 1453.79143461574  C 1553.99010575716 1454.4376161219  1555.89108469448 1455.07219744671  1557.79588866356 1455.69514303586  L 1556.59605973988 1453.19456450127  Z M 1303.83603479947 1247.71277891408  C 1302.83729439804 1245.98474701822  1301.84923347862 1244.25056473807  1300.87190854648 1242.51033124811  L 1299.12809145352 1243.48966875189  C 1300.10944775196 1245.23708052864  1301.10158432256 1246.97841613498  1302.10444442694 1248.71357598729  L 1303.83603479947 1247.71277891408  Z M 1553.01299127615 1461.09839917988  L 1562 1456  L 1557.6562057295 1446.62495592887  L 1553.01299127615 1461.09839917988  Z " fill-rule="nonzero" fill="#027db4" stroke="none" />
  </g>
</svg>