<?xml version="1.0" encoding="utf-8"?>
<svg version="1.1" xmlns:xlink="http://www.w3.org/1999/xlink" width="170px" height="14px" viewBox="1618 1380  170 14" xmlns="http://www.w3.org/2000/svg">
  <g transform="matrix(0.601815023152048 -0.798635510047287 0.798635510047293 0.601815023152044 -429.598436863534 1912.35883649864 )">
    <path d="M 1523.4871252529 1246.93878639719  C 1521.61893064444 1246.21246838126  1519.74595180707 1245.49851660724  1517.86831167913 1244.79697793739  L 1517.16831906916 1246.67048009805  C 1519.03769692644 1247.36893175336  1520.90243400451 1248.07974189089  1522.76240790588 1248.80286385452  L 1523.4871252529 1246.93878639719  Z M 1530.93386484523 1249.90980591583  C 1529.07877263285 1249.15064727704  1527.21867880415 1248.40376856574  1525.35370545179 1247.66921880549  L 1524.62077450168 1249.53008210578  C 1526.47754132162 1250.2613995912  1528.32945008951 1251.004991776  1530.17637924993 1251.76080985233  L 1530.93386484523 1249.90980591583  Z M 1538.3270391661 1253.01171839  C 1536.48562659652 1252.21995535478  1534.63899657962 1251.44038211155  1532.78727032427 1250.67304982983  L 1532.02162909923 1252.52069522723  C 1533.86520711401 1253.28465097961  1535.70371131555 1254.060793829  1537.53702102837 1254.84907283105  L 1538.3270391661 1253.01171839  Z M 1545.66434769062 1256.24355860143  C 1543.83718775393 1255.41943754172  1542.00459616236 1254.60741234538  1540.16669320341 1253.80753631203  L 1539.36857994707 1255.641388877  C 1541.19839549278 1256.43774517717  1543.02292304293 1257.24619717977  1544.84204283942 1258.06669181973  L 1545.66434769062 1256.24355860143  Z M 1552.94350727758 1259.60432090241  C 1551.13116852888 1258.74809825894  1549.3131856079 1257.90387378636  1547.48967784332 1257.07170289782  L 1546.65934090359 1258.89119199273  C 1548.4748245988 1259.71970103949  1550.2848077616 1260.56021063029  1552.08917158849 1261.41266559586  L 1552.94350727758 1259.60432090241  Z M 1560.16225287992 1263.0929595287  C 1558.36529926239 1262.2049017312  1556.56249071153 1261.32874067868  1554.75394555996 1260.46453388052  L 1553.89164331176 1262.26909333722  C 1555.69223023467 1263.12949732442  1557.48710579988 1264.00180296309  1559.27615219553 1264.88595299693  L 1560.16225287992 1263.0929595287  Z M 1567.31833824952 1266.70838892494  C 1565.53732891898 1265.78877230925  1563.75025571595 1264.88094731075  1561.95723594014 1263.98497351712  L 1561.063236705 1265.77404181307  C 1562.84836656919 1266.66607300988  1564.62757602761 1267.56990326216  1566.40074829667 1268.48547324438  L 1567.31833824952 1266.70838892494  Z M 1574.40953663616 1270.44948408244  C 1572.6450257871 1269.49859480455  1570.87424401321 1268.55938834681  1569.09730754492 1267.63192635679  L 1568.17188950746 1269.40494678982  C 1569.9410068363 1270.32832762401  1571.70399655352 1271.26340124615  1573.46074294018 1272.21010627998  L 1574.40953663616 1270.44948408244  Z M 1581.43364148042 1274.31508088927  C 1579.68617817348 1273.3332148362  1577.93223884073 1272.36291917095  1576.17193860707 1271.40425758173  L 1575.21538972849 1273.16067844328  C 1576.96794402791 1274.11512158755  1578.71416541663 1275.08114761387  1580.45393927627 1276.05869311428  L 1581.43364148042 1274.31508088927  Z M 1588.38824516706 1278.30725117641  C 1587.618777096 1277.85535616178  1586.84781948255 1277.40600227774  1586.0753849269 1276.95919686834  C 1585.11193216327 1276.40285259317  1584.1464399204 1275.85004769756  1583.17892772241 1275.3007933603  L 1582.19154565082 1277.04006810706  C 1583.15458542033 1277.58678345747  1584.11561502177 1278.13703216485  1585.07461502989 1278.69080310706  C 1585.84302508282 1279.13528247644  1586.60996629191 1279.58229633695  1587.37542612987 1280.03183738704  L 1588.38824516706 1278.30725117641  Z M 1595.26303396514 1282.43665869261  C 1593.55459338759 1281.38734028049  1591.83839411226 1280.35070681785  1590.11457773029 1279.32684382982  L 1589.09324430433 1281.04640134064  C 1590.80855870752 1282.06521456729  1592.51629357215 1283.09673528369  1594.21630800541 1284.14087838656  L 1595.26303396514 1282.43665869261  Z M 1602.05481619656 1286.70121278115  C 1600.36746078084 1285.61831387631  1598.67209733022 1284.54794400623  1596.96886571681 1283.49019147935  L 1595.91372647971 1285.18921507846  C 1597.60855763979 1286.24175069845  1599.29555944342 1287.30684143207  1600.97459270829 1288.38439940639  L 1602.05481619656 1286.70121278115  Z M 1608.76093546896 1291.09924549559  C 1607.09532517117 1289.98318963995  1605.42146063342 1288.87950200398  1603.73947995415 1287.78827364494  L 1602.65094759048 1289.46609881261  C 1604.32463262747 1290.55194515969  1605.99024155232 1291.65018933373  1607.64763694765 1292.76074072653  L 1608.76093546896 1291.09924549559  Z M 1615.37876889438 1295.62903668354  C 1613.73555516568 1294.48026038731  1612.08384422035 1293.3436866582  1610.42377232914 1292.21940926672  L 1609.30227258416 1293.87537977431  C 1610.95415688872 1294.99411215378  1612.59772148414 1296.12508022452  1614.23283077178 1297.2681906785  L 1615.37876889438 1295.62903668354  Z M 1621.90572811506 1300.28881465943  C 1620.2855536469 1299.10776723035  1618.6566423089 1297.93875194326  1617.01912849073 1296.78186524512  L 1615.86510000385 1298.41533341177  C 1617.4945374933 1299.5665142666  1619.1154149306 1300.72976389137  1620.72759858889 1301.90498631478  L 1621.90572811506 1300.28881465943  Z M 1628.33926031587 1305.0767568974  C 1626.74275878861 1303.86390026512  1625.13728415544 1302.66290064365  1623.52296887244 1301.47385711876  L 1622.33686300566 1303.08418406469  C 1623.94321637669 1304.26736314663  1625.54077270057 1305.46243935688  1627.1294001745 1306.66931409836  L 1628.33926031587 1305.0767568974  Z M 1634.6768492227 1309.99099074421  C 1633.1046450578 1308.74679927951  1631.52323506043 1307.51428505694  1629.93274970133 1306.29354976235  L 1628.71503036271 1307.88010565874  C 1630.29767134065 1309.09482020444  1631.87128171711 1310.32125558363  1633.43573166493 1311.55931061203  L 1634.6768492227 1309.99099074421  Z M 1640.91601608665 1315.02959415159  C 1639.36872420237 1313.75455448087  1637.81199735971 1312.49100771647  1636.2459639929 1311.23905810444  L 1634.99710745513 1312.80122241977  C 1636.55541703965 1314.04699733179  1638.1044660004 1315.30431219822  1639.64412653664 1316.5730632872  L 1640.91601608665 1315.02959415159  Z M 1647.05432065351 1320.19059642803  C 1645.53254622451 1318.88520724304  1644.00111140135 1317.59112213343  1642.46014253162 1316.30844786475  L 1641.18063724573 1317.8456096075  C 1642.71400595296 1319.12195764009  1644.23788763615 1320.40966023455  1645.75215657093 1321.70861115194  L 1647.05432065351 1320.19059642803  Z M 1653.08849542043 1325.47444936457  C 1652.48123964304 1324.93124743926  1651.87234812911 1324.38987691014  1651.26182917448 1323.8503451531  C 1650.36895927686 1323.06286543737  1649.47262580619 1322.27932155883  1648.57285483669 1321.49973631065  L 1647.26320124098 1323.01129426827  C 1648.15828504841 1323.78681843587  1649.04995021777 1324.56627951615  1649.93817082512 1325.34965484736  C 1650.54543004134 1325.886308541  1651.1510711578 1326.42479044501  1651.75508592956 1326.9650932287  L 1653.08849542043 1325.47444936457  Z M 1659.01255104494 1330.88002911244  C 1657.5449419813 1329.51402692601  1656.06722224693 1328.1589279351  1654.57951375777 1326.8148439391  L 1653.2387504638 1328.29887688669  C 1654.71912147423 1329.63633176966  1656.18955299512 1330.98474732087  1657.64992371176 1332.34401229228  L 1659.01255104494 1330.88002911244  Z M 1664.82854876232 1336.40170440211  C 1663.38824042337 1335.00694627766  1661.93760777201 1333.62288927037  1660.47677048948 1332.24964756879  L 1659.10692152713 1333.70687569793  C 1660.56055386156 1335.07334447872  1662.00403189471 1336.45057522338  1663.4372365357 1337.8384543066  L 1664.82854876232 1336.40170440211  Z M 1670.53421382767 1342.03731560366  C 1669.12176954477 1340.61434705702  1667.69879134587 1339.20187336382  1666.26539663059 1337.80001105703  L 1664.86699777326 1339.22986441868  C 1666.29332288903 1340.62481264593  1667.70928286337 1342.0303199235  1669.1147608757 1343.44627029319  L 1670.53421382767 1342.03731560366  Z M 1676.12731464926 1347.78465852475  C 1674.74328685565 1346.33403610539  1673.34851966244 1344.89369817099  1671.94312814174 1343.46376355341  L 1670.51672632925 1344.86568290534  C 1671.91518636407 1346.28856498883  1673.30307447133 1347.7217990793  1674.6802761464 1349.16526693094  L 1676.12731464926 1347.78465852475  Z M 1681.60566366134 1353.64148527265  C 1680.25059367603 1352.16377634596  1678.88458300791 1350.69613751336  1677.50774435655 1349.23868985899  L 1676.05389748116 1350.61212688447  C 1677.42394547132 1352.06238630858  1678.78321888261 1353.52278664739  1680.13160557125 1354.99320741386  L 1681.60566366134 1353.64148527265  Z M 1686.9671181797 1359.60550513349  C 1685.64153599579 1358.10128765896  1684.30481612489 1356.60692194892  1682.9570688501 1355.1225312927  L 1681.47634553838 1356.46694881494  C 1682.81744563262 1357.94401835623  1684.14757271085 1359.43101375368  1685.46661703393 1360.92781232606  L 1686.9671181797 1359.60550513349  Z M 1692.20958123978 1365.67438546817  C 1690.9140053171 1364.14424777321  1689.60709905945 1362.62373966  1688.28897029025 1361.11298657469  L 1686.78194968062 1362.42785876702  C 1688.09357734974 1363.93116071611  1689.39403785747 1365.44416958063  1690.68322391223 1366.96676053317  L 1692.20958123978 1365.67438546817  Z M 1697.33100241677 1371.84575262473  C 1696.06593947914 1370.29029317463  1694.78935799011 1368.74423735728  1693.50136327116 1367.20771272651  L 1691.96863478741 1368.49252531794  C 1693.25027702945 1370.02147170549  1694.52056233238 1371.55990227116  1695.77938589418 1373.10769009022  L 1697.33100241677 1371.84575262473  Z M 1702.32937862757 1378.11719286667  C 1701.09532346466 1376.53702003058  1699.84956603899 1374.96602120025  1698.59220912899 1373.40432598738  L 1697.03437224974 1374.65857646382  C 1698.28552779057 1376.21256929045  1699.5251410565 1377.77581984848  1700.75310977602 1379.34819916545  L 1702.32937862757 1378.11719286667  Z M 1707.20205714117 1384.48697309709  C 1706.76016849814 1383.89728677508  1706.31684644785 1383.30867595577  1705.87209492313 1382.72114586084  C 1705.10596302876 1381.71062106138  1704.33509515319 1380.70369561198  1703.55951673924 1379.70040274661  L 1701.97718076347 1380.92360054737  C 1702.74878278052 1381.92174952197  1703.51569932913 1382.92351174947  1704.27790510673 1383.92885417911  C 1704.72054936784 1384.51360250763  1705.16177140232 1385.09942607769  1705.6015672987 1385.68631969593  L 1707.20205714117 1384.48697309709  Z M 1711.95318356676 1390.94512184299  C 1710.77966886544 1389.32014424282  1709.59541761147 1387.70294733816  1708.40050753665 1386.09363727842  L 1706.79474409496 1387.28591399518  C 1707.98439614921 1388.88814253005  1709.16343628511 1390.49822320498  1710.33178711296 1392.11605033765  L 1711.95318356676 1390.94512184299  Z M 1716.58965363224 1397.48607229901  C 1715.44498496272 1395.84064755376  1714.28944416506 1394.20281290828  1713.12310708654 1392.57267586664  L 1711.4965625617 1393.73644255663  C 1712.65776735078 1395.35940642742  1713.80822336641 1396.99003402993  1714.94785509503 1398.62821833311  L 1716.58965363224 1397.48607229901  Z M 1721.11002461296 1404.1077891257  C 1719.99455816038 1402.44242924014  1718.86808738722 1400.78446649683  1717.73068623266 1399.134009721  L 1716.08386675453 1400.26890425638  C 1717.21626294779 1401.91209844746  1718.33777685714 1403.56276557714  1719.44833486876 1405.22079729908  L 1721.11002461296 1404.1077891257  Z M 1725.51288991069 1410.80821185163  C 1724.42697277336 1409.12343503374  1723.32992254721 1407.44586009881  1722.22181124032 1405.77559715938  L 1720.55522924767 1406.88126639643  C 1721.6584644788 1408.5441795971  1722.75068730178 1410.2143726179  1723.83182602543 1411.89173583092  L 1725.51288991069 1410.80821185163  Z M 1729.79687949128 1417.58525551458  C 1728.74084957269 1415.88158601425  1727.67356126132 1414.18492089665  1726.59508461173 1412.49537152726  L 1724.9092586928 1413.57147141625  C 1725.98298966945 1415.25358617985  1727.04558154046 1416.94278537992  1728.09696455954 1418.63895814096  L 1729.79687949128 1417.58525551458  Z M 1733.96066031102 1424.43681131027  C 1732.93484621468 1422.71477925624  1731.89765192487 1420.99955190511  1730.84914552082 1419.29124184076  L 1729.14460025199 1420.33743753302  C 1730.18849286261 1422.03823043798  1731.22112313626 1423.7459101913  1732.24242329321 1425.4603647044  L 1733.96066031102 1424.43681131027  Z M 1738.00293673137 1431.36074724856  C 1737.0076576586 1429.62088848342  1736.00088013281 1427.88763262394  1734.98267023673 1426.16109343735  L 1733.25993601923 1427.17705938946  C 1734.27366543706 1428.89600120218  1735.27601279105 1430.62163013213  1736.26691228918 1432.35383291261  L 1738.00293673137 1431.36074724856  Z M 1741.9224509222 1438.3549088169  C 1740.95801657276 1436.59776473034  1739.98196908869 1434.84701969758  1738.9943725357 1433.10278863381  L 1737.2539854306 1434.08820870892  C 1738.23723621474 1435.82476454841  1739.20898874986 1437.56780569314  1740.16917925221 1439.31721773362  L 1741.9224509222 1438.3549088169  Z M 1745.71798325314 1445.4171196507  C 1744.78469372885 1443.64323701107  1743.83968000201 1441.8755475822  1742.88300410129 1440.11416739146  L 1741.1255056627 1441.06873495761  C 1742.07797185618 1442.82236446191  1743.01882719345 1444.58227544156  1743.94800991871 1446.34835237962  L 1745.71798325314 1445.4171196507  Z M 1747.17253588204 1448.20511889874  C 1746.99789878895 1447.86754247575  1746.82283832813 1447.53018524012  1746.64735491285 1447.19304798825  L 1744.87329201937 1448.11646601385  C 1745.79467724449 1449.88662350827  1746.70434261909 1451.66285669344  1747.60222843464 1453.44504898115  L 1747.17253588204 1448.20511889874  Z M 1515.98913758183 1244.09958432253  C 1514.10842190111 1243.40633293695  1512.22314086755 1242.72553025968  1510.333418227 1242.05722097716  L 1509.666581773 1243.94277902284  C 1511.54798897564 1244.60814751171  1513.42497411593 1245.28595442005  1515.2974139925 1245.97615525803  L 1515.98913758183 1244.09958432253  Z M 1739.06222300617 1451.17146885807  L 1749 1454  L 1752.63441963252 1444.32782372293  L 1739.06222300617 1451.17146885807  Z " fill-rule="nonzero" fill="#009999" stroke="none" />
  </g>
</svg>