<?xml version="1.0" encoding="utf-8"?>
<svg version="1.1" xmlns:xlink="http://www.w3.org/1999/xlink" width="118px" height="20px" viewBox="930 1568  118 20" xmlns="http://www.w3.org/2000/svg">
  <g transform="matrix(0.615661475325653 0.788010753606732 -0.788010753606725 0.615661475325665 1623.59177009434 -172.856443380957 )">
    <path d="M 890.948089837303 1623.73047575806  C 886.158913191805 1622.93406211288  881.414495002591 1621.888605101  876.734137109359 1620.59835798232  C 875.027668591715 1620.129348126  873.327335880475 1619.63829258944  871.633565369938 1619.12531451518  L 871.053846319838 1621.03945291742  C 872.763871204099 1621.55735381758  874.480520321024 1622.05312498547  876.203363308453 1622.52664213177  C 880.950466828544 1623.83526135276  885.762539512283 1624.89561262672  890.620006326073 1625.70338254999  L 890.948089837303 1623.73047575806  Z M 916.625519645278 1625.37665512214  C 912.31794133446 1625.60747399314  908.000086033786 1625.56605593805  903.6977280943 1625.25264819151  C 901.407925800681 1625.08550010459  899.12259057051 1624.86194577115  896.843803818168 1624.58218879773  L 896.600101910815 1626.56728561661  C 898.911553177678 1626.85105267378  901.229646924604 1627.07781024637  903.552271810995 1627.24735180154  C 907.938651718207 1627.56688653139  912.340832170609 1627.60911662872  916.732534860289 1627.37379000585  L 916.625519645278 1625.37665512214  Z M 941.822835253095 1620.62664869361  C 937.414378829866 1622.13475894413  932.892543450289 1623.28846417371  928.300434552446 1624.07676642132  C 926.390493324561 1624.40114971493  924.471737093407 1624.67130437028  922.546479566384 1624.88690462488  L 922.769058571089 1626.87448068296  C 924.732479891416 1626.65460665021  926.689268941327 1626.37908017336  928.637064740843 1626.04823369116  C 933.334700413186 1625.24191211005  937.960445462085 1624.06174410779  942.470192975095 1622.51898269683  L 941.822835253095 1620.62664869361  Z M 964.609317917849 1608.9047986242  C 960.181992499054 1612.04330917908  955.485666135656 1614.78395473373  950.575268234186 1617.094680013  C 949.515257713954 1617.59047357782  948.445411026015 1618.06495960105  947.366373434028 1618.51785190281  L 948.140397476231 1620.36200124115  C 949.244809331096 1619.89845888566  950.339807951785 1619.41280065204  951.424732044095 1618.90531984017  C 956.442635262391 1616.54415732826  961.241761482725 1613.74360062181  965.765963179553 1610.53641492057  L 964.609317917849 1608.9047986242  Z M 983.545962818076 1591.52655346298  C 979.561121892273 1596.11429395331  975.224371689197 1600.38410082217  970.575200427247 1604.29709540275  C 970.165608995814 1604.64112709908  969.75302517165 1604.98158035065  969.337496018294 1605.31841632186  L 970.596920449481 1606.87207333103  C 971.021742745294 1606.52770415874  971.443551987967 1606.17963454161  971.862300002524 1605.82790423279  C 976.591361157176 1601.84773824862  981.002620411364 1597.50460917268  985.05590676278 1592.8380675818  L 983.545962818076 1591.52655346298  Z M 998.562620650281 1570.55291997948  C 995.429824975701 1575.76664970103  992.013560001673 1580.80471433212  988.32920352984 1585.64443578449  C 987.999514206895 1586.07787681633  987.666797894328 1586.50900705677  987.331078996755 1586.93779488258  L 988.905829051242 1588.17074348892  C 989.24721223702 1587.73472110515  989.585542926877 1587.29631736748  989.920796316516 1586.85556441694  C 993.64933475179 1581.95778162675  997.106571486021 1576.85928152592  1000.27694497325 1571.5830132353  L 998.562620650281 1570.55291997948  Z M 1010.33114307501 1547.52725652593  C 1008.30210150841 1552.11755758165  1006.13410203476 1556.64516946328  1003.83014350869 1561.10382941569  C 1003.08836136023 1562.54251087193  1002.32562999501 1563.97029403577  1001.54219289004 1565.3867231342  L 1003.29232346968 1566.35473292456  C 1004.08503004501 1564.92154492172  1004.85678974131 1563.47687060569  1005.60735628985 1562.02117097242  C 1007.9297528419 1557.52678979674  1010.1151092386 1552.96290895033  1012.16040297451 1548.33584060944  L 1010.33114307501 1547.52725652593  Z M 865.944957077492 1617.31173680798  C 859.652797766743 1615.20446554383  853.46650351621 1612.79337482067  847.407860392762 1610.08695569658  L 846.592139607238 1611.91304430342  C 852.709804760914 1614.64582879483  858.956364592173 1617.08040785798  865.309820798856 1619.20820771669  L 865.944957077492 1617.31173680798  Z M 1014.97251895273 1536.28940865946  C 1014.23260135525 1538.21337183979  1013.46871025462 1540.12802935726  1012.6810239712 1542.0329342602  L 1014.52924619069 1542.79718201281  C 1015.32945601865 1540.86199073583  1016.10530434132 1538.91681542262  1016.85660722301 1536.96211722923  L 1014.97251895273 1536.28940865946  Z M 1022.76397592571 1540.16867129846  L 1018 1531  L 1008.47134642876 1534.99559271188  L 1022.76397592571 1540.16867129846  Z " fill-rule="nonzero" fill="#000000" stroke="none" />
  </g>
</svg>