<?xml version="1.0" encoding="utf-8"?>
<svg version="1.1" xmlns:xlink="http://www.w3.org/1999/xlink" width="170px" height="16px" viewBox="1626 940  170 16" xmlns="http://www.w3.org/2000/svg">
  <g transform="matrix(0.601815023152038 -0.798635510047289 0.7986355100473 0.601815023152044 -75.8119681379783 1743.94471574277 )">
    <path d="M 1531.4871252529 807.938786397189  C 1529.61893064445 807.212468381266  1527.74595180706 806.498516607231  1525.86831167913 805.796977937391  L 1525.16831906916 807.670480098049  C 1527.03769692645 808.368931753361  1528.9024340045 809.079741890881  1530.76240790588 809.802863854522  L 1531.4871252529 807.938786397189  Z M 1538.93386484523 810.909805915832  C 1537.07877263286 810.150647277044  1535.21867880413 809.403768565734  1533.35370545179 808.669218805492  L 1532.62077450168 810.530082105782  C 1534.47754132162 811.261399591203  1536.32945008951 812.004991775995  1538.17637924993 812.760809852325  L 1538.93386484523 810.909805915832  Z M 1546.3270391661 814.011718389998  C 1544.48562659653 813.219955354789  1542.63899657961 812.440382111545  1540.78727032427 811.673049829831  L 1540.02162909923 813.520695227225  C 1541.86520711399 814.284650979596  1543.70371131557 815.060793829011  1545.53702102837 815.84907283105  L 1546.3270391661 814.011718389998  Z M 1553.66434769062 817.243558601428  C 1551.83718775393 816.419437541724  1550.00459616236 815.607412345378  1548.16669320341 814.80753631203  L 1547.36857994707 816.641388877002  C 1549.19839549277 817.437745177167  1551.02292304294 818.246197179775  1552.84204283942 819.066691819735  L 1553.66434769062 817.243558601428  Z M 1560.94350727758 820.604320902407  C 1559.13116852887 819.748098258938  1557.31318560791 818.903873786363  1555.48967784332 818.071702897816  L 1554.65934090359 819.891191992734  C 1556.4748245988 820.719701039486  1558.2848077616 821.560210630291  1560.08917158849 822.412665595864  L 1560.94350727758 820.604320902407  Z M 1568.16225287992 824.092959528696  C 1566.36529926237 823.204901731195  1564.56249071154 822.328740678685  1562.75394555996 821.464533880518  L 1561.89164331176 823.269093337216  C 1563.69223023467 824.12949732442  1565.48710579988 825.001802963094  1567.27615219553 825.885952996927  L 1568.16225287992 824.092959528696  Z M 1575.31833824952 827.708388924936  C 1573.53732891899 826.788772309258  1571.75025571594 825.88094731074  1569.95723594014 824.984973517122  L 1569.063236705 826.77404181307  C 1570.84836656919 827.666073009885  1572.62757602761 828.569903262163  1574.40074829667 829.485473244385  L 1575.31833824952 827.708388924936  Z M 1582.40953663616 831.449484082443  C 1580.6450257871 830.498594804546  1578.87424401321 829.55938834681  1577.09730754492 828.631926356791  L 1576.17188950746 830.404946789825  C 1577.9410068363 831.328327624008  1579.70399655352 832.263401246151  1581.46074294018 833.210106279985  L 1582.40953663616 831.449484082443  Z M 1589.43364148042 835.315080889273  C 1587.68617817348 834.333214836195  1585.93223884073 833.362919170951  1584.17193860707 832.404257581729  L 1583.21538972849 834.160678443277  C 1584.96794402792 835.115121587559  1586.71416541662 836.081147613867  1588.45393927627 837.05869311428  L 1589.43364148042 835.315080889273  Z M 1596.38824516706 839.307251176409  C 1595.61877709598 838.855356161767  1594.84781948262 838.406002277785  1594.07538492695 837.959196868373  C 1593.11193216331 837.402852593186  1592.14643992042 836.85004769757  1591.17892772241 836.300793360303  L 1590.19154565082 838.040068107063  C 1591.15458542036 838.586783457488  1592.11561502178 839.13703216486  1593.07461502993 839.690803107084  C 1593.84302508282 840.135282476438  1594.60996629195 840.582296336976  1595.37542612987 841.03183738704  L 1596.38824516706 839.307251176409  Z M 1603.26303396514 843.436658692613  C 1601.5545933876 842.387340280487  1599.83839411226 841.350706817854  1598.11457773029 840.326843829823  L 1597.09324430433 842.046401340645  C 1598.80855870752 843.065214567288  1600.51629357215 844.096735283691  1602.21630800541 845.140878386559  L 1603.26303396514 843.436658692613  Z M 1610.05481619656 847.701212781147  C 1608.36746078086 846.618313876318  1606.6720973302 845.547944006221  1604.96886571681 844.490191479351  L 1603.91372647971 846.189215078459  C 1605.60855763979 847.241750698455  1607.29555944342 848.306841432068  1608.97459270829 849.384399406389  L 1610.05481619656 847.701212781147  Z M 1616.76093546896 852.099245495589  C 1615.09532517118 850.983189639954  1613.42146063341 849.879502003971  1611.73947995415 848.788273644942  L 1610.65094759048 850.466098812606  C 1612.32463262748 851.551945159695  1613.99024155231 852.650189333724  1615.64763694765 853.760740726531  L 1616.76093546896 852.099245495589  Z M 1623.37876889438 856.629036683544  C 1621.73555516567 855.480260387298  1620.08384422036 854.343686658205  1618.42377232914 853.219409266718  L 1617.30227258416 854.875379774309  C 1618.95415688873 855.99411215379  1620.59772148413 857.125080224511  1622.23283077178 858.268190678499  L 1623.37876889438 856.629036683544  Z M 1629.90572811506 861.288814659427  C 1628.2855536469 860.107767230353  1626.6566423089 858.938751943262  1625.01912849073 857.781865245122  L 1623.86510000385 859.415333411773  C 1625.4945374933 860.566514266604  1627.1154149306 861.72976389137  1628.72759858889 862.90498631478  L 1629.90572811506 861.288814659427  Z M 1636.33926031587 866.076756897402  C 1634.74275878861 864.863900265117  1633.13728415544 863.662900643648  1631.52296887244 862.473857118762  L 1630.33686300566 864.084184064692  C 1631.94321637669 865.26736314663  1633.54077270057 866.462439356876  1635.1294001745 867.669314098359  L 1636.33926031587 866.076756897402  Z M 1642.6768492227 870.990990744208  C 1641.1046450578 869.746799279507  1639.52323506043 868.514285056935  1637.93274970133 867.293549762347  L 1636.71503036271 868.880105658737  C 1638.29767134065 870.094820204436  1639.87128171711 871.321255583629  1641.43573166493 872.559310612027  L 1642.6768492227 870.990990744208  Z M 1648.91601608665 876.029594151585  C 1647.36872420237 874.754554480875  1645.81199735971 873.491007716468  1644.2459639929 872.239058104441  L 1642.99710745513 873.801222419771  C 1644.55541703964 875.046997331779  1646.10446600041 876.304312198232  1647.64412653664 877.573063287196  L 1648.91601608665 876.029594151585  Z M 1655.05432065351 881.190596428026  C 1653.53254622451 879.885207243045  1652.00111140135 878.591122133428  1650.46014253162 877.308447864749  L 1649.18063724573 878.845609607499  C 1650.71400595295 880.121957640079  1652.23788763616 881.409660234561  1653.75215657093 882.708611151942  L 1655.05432065351 881.190596428026  Z M 1661.08849542043 886.474449364568  C 1660.48123964305 885.93124743927  1659.87234812906 885.389876910093  1659.26182917444 884.850345153062  C 1658.36895927684 884.062865437352  1657.47262580617 883.27932155881  1656.57285483669 882.499736310648  L 1655.26320124098 884.01129426827  C 1656.1582850484 884.786818435863  1657.04995021775 885.566279516132  1657.93817082509 886.349654847332  C 1658.54543004132 886.886308540987  1659.15107115779 887.424790444994  1659.75508592956 887.965093228703  L 1661.08849542043 886.474449364568  Z M 1667.01255104494 891.880029112441  C 1665.5449419813 890.51402692601  1664.06722224693 889.1589279351  1662.57951375777 887.814843939098  L 1661.2387504638 889.298876886689  C 1662.71912147424 890.636331769671  1664.18955299511 891.984747320863  1665.64992371176 893.344012292279  L 1667.01255104494 891.880029112441  Z M 1672.82854876232 897.401704402109  C 1671.38824042336 896.006946277649  1669.93760777202 894.622889270376  1668.47677048948 893.249647568791  L 1667.10692152713 894.706875697927  C 1668.56055386156 896.073344478718  1670.00403189471 897.450575223382  1671.4372365357 898.838454306598  L 1672.82854876232 897.401704402109  Z M 1678.53421382767 903.037315603664  C 1677.12176954477 901.614347057021  1675.69879134587 900.201873363822  1674.26539663059 898.800011057026  L 1672.86699777326 900.22986441868  C 1674.29332288902 901.624812645917  1675.70928286338 903.030319923511  1677.1147608757 904.446270293195  L 1678.53421382767 903.037315603664  Z M 1684.12731464926 908.784658524748  C 1682.74328685565 907.334036105386  1681.34851966244 905.893698170994  1679.94312814174 904.463763553408  L 1678.51672632925 905.865682905338  C 1679.91518636407 907.288564988832  1681.30307447133 908.7217990793  1682.6802761464 910.165266930935  L 1684.12731464926 908.784658524748  Z M 1689.60566366134 914.641485272647  C 1688.25059367604 913.163776345974  1686.8845830079 911.696137513346  1685.50774435655 910.238689858994  L 1684.05389748116 911.612126884466  C 1685.42394547132 913.06238630858  1686.78321888261 914.522786647393  1688.13160557125 915.993207413865  L 1689.60566366134 914.641485272647  Z M 1694.9671181797 920.605505133486  C 1693.64153599579 919.101287658958  1692.30481612489 917.606921948918  1690.9570688501 916.122531292697  L 1689.47634553838 917.466948814945  C 1690.81744563262 918.944018356233  1692.14757271085 920.431013753675  1693.46661703393 921.927812326064  L 1694.9671181797 920.605505133486  Z M 1700.20958123978 926.674385468171  C 1698.9140053171 925.144247773211  1697.60709905945 923.623739660001  1696.28897029025 922.112986574694  L 1694.78194968062 923.42785876702  C 1696.09357734974 924.931160716114  1697.39403785747 926.444169580628  1698.68322391223 927.966760533172  L 1700.20958123978 926.674385468171  Z M 1705.33100241677 932.845752624725  C 1704.06593947914 931.290293174634  1702.78935799011 929.744237357279  1701.50136327116 928.207712726508  L 1699.96863478741 929.492525317941  C 1701.25027702945 931.021471705488  1702.52056233238 932.559902271165  1703.77938589418 934.107690090223  L 1705.33100241677 932.845752624725  Z M 1710.32937862757 939.11719286667  C 1709.09532346467 937.537020030591  1707.84956603899 935.966021200235  1706.59220912899 934.404325987381  L 1705.03437224974 935.658576463821  C 1706.28552779057 937.21256929045  1707.5251410565 938.775819848483  1708.75310977602 940.348199165452  L 1710.32937862757 939.11719286667  Z M 1715.20205714117 945.48697309709  C 1714.76016849809 944.89728677503  1714.31684644776 944.308675955653  1713.872094923 943.721145860664  C 1713.10596302868 942.710621061283  1712.33509515314 941.703695611909  1711.55951673924 940.700402746615  L 1709.97718076347 941.923600547371  C 1710.74878278048 942.92174952192  1711.515699329 943.923511749298  1712.27790510655 944.928854178877  C 1712.7205493677 945.513602507437  1713.16177140229 946.099426077649  1713.6015672987 946.686319695928  L 1715.20205714117 945.48697309709  Z M 1719.95318356676 951.945121842993  C 1718.77966886544 950.320144242825  1717.59541761147 948.702947338157  1716.40050753665 947.093637278425  L 1714.79474409496 948.285913995183  C 1715.98439614921 949.888142530051  1717.16343628511 951.498223204978  1718.33178711296 953.116050337647  L 1719.95318356676 951.945121842993  Z M 1724.58965363224 958.486072299012  C 1723.44498496272 956.840647553757  1722.28944416506 955.202812908281  1721.12310708654 953.572675866639  L 1719.4965625617 954.736442556629  C 1720.65776735079 956.359406427432  1721.8082233664 957.990034029918  1722.94785509503 959.628218333112  L 1724.58965363224 958.486072299012  Z M 1729.11002461296 965.107789125698  C 1727.99455816037 963.442429240125  1726.86808738722 961.78446649684  1725.73068623266 960.134009721  L 1724.08386675453 961.268904256383  C 1725.21626294779 962.912098447465  1726.33777685714 964.562765577139  1727.44833486876 966.220797299079  L 1729.11002461296 965.107789125698  Z M 1733.51288991069 971.808211851634  C 1732.42697277335 970.123435033725  1731.32992254722 968.445860098822  1730.22181124032 966.775597159384  L 1728.55522924767 967.881266396434  C 1729.65846447879 969.544179597094  1730.75068730179 971.214372617912  1731.83182602543 972.891735830922  L 1733.51288991069 971.808211851634  Z M 1737.79687949128 978.585255514584  C 1736.74084957269 976.881586014253  1735.67356126132 975.184920896645  1734.59508461173 973.495371527258  L 1732.9092586928 974.571471416249  C 1733.98298966944 976.253586179837  1735.04558154047 977.942785379927  1736.09696455954 979.638958140964  L 1737.79687949128 978.585255514584  Z M 1741.96066031102 985.436811310269  C 1740.93484621468 983.714779256244  1739.89765192487 981.999551905113  1738.84914552082 980.29124184076  L 1737.14460025199 981.337437533023  C 1738.18849286261 983.038230437983  1739.22112313626 984.745910191304  1740.24242329321 986.460364704402  L 1741.96066031102 985.436811310269  Z M 1746.00293673137 992.360747248564  C 1745.00765765861 990.620888483435  1744.0008801328 988.887632623929  1742.98267023673 987.161093437347  L 1741.25993601923 988.177059389464  C 1742.27366543706 989.896001202177  1743.27601279105 991.621630132134  1744.26691228918 993.353832912607  L 1746.00293673137 992.360747248564  Z M 1749.9224509222 999.354908816903  C 1748.95801657276 997.597764730356  1747.98196908868 995.847019697573  1746.9943725357 994.10278863381  L 1745.2539854306 995.088208708917  C 1746.23723621473 996.824764548399  1747.20898874986 998.567805693155  1748.16917925221 1000.31721773362  L 1749.9224509222 999.354908816903  Z M 1753.71798325314 1006.4171196507  C 1752.78469372885 1004.64323701107  1751.839680002 1002.8755475822  1750.88300410129 1001.11416739146  L 1749.1255056627 1002.06873495761  C 1750.07797185618 1003.82236446191  1751.01882719345 1005.58227544156  1751.94800991871 1007.34835237962  L 1753.71798325314 1006.4171196507  Z M 1755.17253588204 1009.20511889874  C 1754.99789878892 1008.86754247569  1754.82283832817 1008.53018524018  1754.64735491285 1008.19304798826  L 1752.87329201937 1009.11646601385  C 1753.79467724449 1010.88662350827  1754.70434261909 1012.66285669344  1755.60222843464 1014.44504898115  L 1755.17253588204 1009.20511889874  Z M 1523.98913758183 805.099584322532  C 1522.10842190111 804.406332936951  1520.22314086755 803.725530259679  1518.333418227 803.05722097716  L 1517.666581773 804.94277902284  C 1519.54798897564 805.608147511707  1521.42497411593 806.285954420045  1523.2974139925 806.976155258032  L 1523.98913758183 805.099584322532  Z M 1747.06222300617 1012.17146885807  L 1757 1015  L 1760.63441963252 1005.32782372293  L 1747.06222300617 1012.17146885807  Z " fill-rule="nonzero" fill="#009999" stroke="none" />
  </g>
</svg>