<?xml version="1.0" encoding="utf-8"?>
<svg version="1.1" xmlns:xlink="http://www.w3.org/1999/xlink" width="368px" height="48px" viewBox="520 826  368 48" xmlns="http://www.w3.org/2000/svg">
  <g transform="matrix(-0.342020143325669 -0.939692620785909 0.939692620785908 -0.342020143325669 146.04345323325 1802.2607268601 )">
    <path d="M 1115.98262555062 591.504313134208  C 1117.97934841936 591.556908160874  1119.97585967059 591.617251473237  1121.97211420629 591.685341708236  L 1122.04029254669 589.68650411756  C 1120.03886688429 589.618237500628  1118.03718384129 589.557737874072  1116.03528863266 589.505006604486  L 1115.98262555062 591.504313134208  Z M 1107.9947981231 591.335261820264  C 1109.99195833891 591.367191802345  1111.98898712835 591.40687184509  1113.9858393817 591.454301052191  L 1114.03332995985 589.454864970446  C 1112.03130503141 589.407312902037  1110.02910310966 589.367530071534  1108.026769421 589.335517377564  L 1107.9947981231 591.335261820264  Z M 1100.00564903065 591.24887815711  C 1102.00303272673 591.260139675369  1104.0003652018 591.279152199344  1105.99760133898 591.30591529957  L 1106.02439906934 589.306094837217  C 1104.02198926265 589.279262409467  1102.0194828686 589.260200635174  1100.01692512076 589.248909944915  L 1100.00564903065 591.24887815711  Z M 1092.0160337947 591.245171395177  C 1094.01342708047 591.235763243671  1096.01084935578 591.234106212909  1098.00825550201 591.240200340323  L 1098.01435751492 589.240209648985  C 1096.01177725883 589.234099735255  1094.00918083183 589.235761058413  1092.0066134695 589.245193580932  L 1092.0160337947 591.245171395177  Z M 1084.02680798658 591.324141931406  C 1086.02399697024 591.29406511761  1088.02129515117 591.271738709556  1090.01865741326 591.257163211565  L 1090.0040630553 589.257216461095  C 1088.00152679697 589.271829715668  1085.9990547859 589.294213958373  1083.99669225487 589.324368683584  L 1084.02680798658 591.324141931406  Z M 1076.03882713594 591.485781309202  C 1078.03559794775 591.435039053904  1080.03255815258 591.392045659393  1082.02966264225 591.35680209682  L 1081.99437347625 589.357113452365  C 1079.99209565813 589.392448310373  1077.98996249856 589.435553075599  1075.98801922266 589.486426774371  L 1076.03882713594 591.485781309202  Z M 1068.0529466391 591.730072219345  C 1070.04908545396 591.658669956302  1072.04549383745 591.595014179297  1074.04212669388 591.539106326215  L 1073.98614649879 589.539889925283  C 1071.98434153565 589.595942602878  1069.98276162685 589.659763274733  1067.98145198504 589.731350499235  L 1068.0529466391 591.730072219345  Z M 1060.07002166745 592.056988501839  C 1062.065314728 591.964933877191  1064.06095750392 591.8806225343  1066.05690491681 591.804056377625  L 1065.98023968731 589.805526307152  C 1063.97912194328 589.88229080191  1061.97830962529 589.96682054613  1059.97784792866 590.059113630413  L 1060.07002166745 592.056988501839  Z M 1052.09090707592 592.466495148715  C 1054.08514071534 592.353798020172  1056.07980417944 592.24884013991  1058.07485241192 592.15162387876  L 1057.97751035772 590.153994152188  C 1055.97729412335 590.251462243751  1053.97746365402 590.356692008432  1051.97806412285 590.469681069252  L 1052.09090707592 592.466495148715  Z M 1044.11645731137 592.958548307779  C 1046.10941797631 592.825220743561  1048.1028885292 592.699627565386  1050.09682394069 592.581771610207  L 1049.97881548572 590.585256144564  C 1047.97971495501 590.703417395519  1045.98108048702 590.829335912088  1043.98295722785 590.963008849963  L 1044.11645731137 592.958548307779  Z M 1036.14752632115 593.533095287311  C 1038.13900059457 593.379151564855  1040.1310647646 593.232936537968  1042.12367383369 593.094453509415  L 1041.98501161492 591.099266102406  C 1039.9872408624 591.238107859405  1037.99001642037 591.384701643824  1035.9933834031 591.539044144331  L 1036.14752632115 593.533095287311  Z M 1028.1849674616 594.190074561702  C 1030.17474208564 594.015531166139  1032.16518655178 593.848709948037  1034.15625589907 593.689614675623  L 1033.99695476521 591.69596898274  C 1032.00072772301 591.855476377855  1030.00512718058 592.022729732066  1028.01019821549 592.197725267373  L 1028.1849674616 594.190074561702  Z M 1020.2302058185 594.929241644049  C 1020.96916437145 594.856270028454  1021.70827403364 594.784836832685  1022.44753000072 594.714942521072  C 1023.69654336485 594.595980383472  1024.94584485324 594.480062990649  1026.19542333117 594.367191375746  L 1026.01550034106 592.375300887384  C 1024.76291454418 592.488444146646  1023.51060635239 592.604639954466  1022.25858692282 592.723887275626  C 1021.51679732791 592.794022098132  1020.77515449544 592.865700601098  1020.03366324364 592.938922318849  L 1020.2302058185 594.929241644049  Z M 1012.28993098335 595.773212361747  C 1014.27339356877 595.547410164271  1016.25810435021 595.332710408815  1018.24397008117 595.129123182489  L 1018.04000287869 593.139551022373  C 1016.0467139032 593.34389926579  1014.05458419448 593.559401577412  1012.06370734759 593.786047832418  L 1012.28993098335 595.773212361747  Z M 1004.36313558943 596.735587451405  C 1006.34300748046 596.480209779517  1008.32429311812 596.235914685513  1010.30689941685 596.002713646962  L 1010.07326313078 594.0164070025  C 1008.08324577139 594.250479755745  1006.09455400982 594.495688034453  1004.10728127946 594.752020318165  L 1004.36313558943 596.735587451405  Z M 996.451585168165 597.816152563672  C 998.427425388852 597.531256297522  1000.40484459192 597.2574202767  1002.38374987345 596.994657366682  L 1002.1204965415 595.012058647017  C 1000.13419403386 595.275803775172  998.149383159763 595.550663405848  996.166157170282 595.836624625495  L 996.451585168165 597.816152563672  Z M 988.557041855432 599.014667024793  C 990.528410327825 598.70031561919  992.50152266665 598.396999662918  994.47628617034 598.104733406492  L 994.183474426798 596.126284194902  C 992.20132917915 596.419642954135  990.220841268475 596.724092717431  988.242103742885 597.039619181001  L 988.557041855432 599.014667024793  Z M 980.681263999142 600.330863890205  C 982.647721641272 599.98712736049  984.616087645476 599.654399026189  986.586269533182 599.33269451968  L 986.263964595867 597.358835475223  C 984.286418090466 597.681742525881  982.310694256398 598.015714611837  980.336885917949 598.360736042274  L 980.681263999142 600.330863890205  Z M 972.826005767583 601.764450004002  C 974.787114591266 601.39140491045  976.750295847618 601.029338306544  978.715457301657 600.678267203046  L 978.363730957398 598.709437962417  C 976.391223652243 599.061821383564  974.420703946819 599.425241406735  972.452264420912 599.799680957578  L 972.826005767583 601.764450004002  Z M 964.993016758716 603.315106064226  C 966.94833996711 602.912835494994  968.905899217173 602.521511264407  970.865602538061 602.14115175782  L 970.4845331267 600.177790837428  C 968.517504357387 600.559572142875  966.552627673584 600.952359158881  964.5899953898 601.356133431391  L 964.993016758716 603.315106064226  Z M 957.184041610487 604.982486693983  C 959.133143695375 604.551080246605  961.084644932902 604.130585548799  963.038453636844 603.721022356417  L 962.628126033791 601.763567054712  C 960.667013915761 602.17466121048  958.708217889534 602.596727734074  956.751829984086 603.029746795787  L 957.184041610487 604.982486693983  Z M 949.400819612248 606.766220518371  C 951.343266451067 606.305774279798  953.288275019058 605.856202771369  955.235753935187 605.417527115003  L 954.796259532516 603.466413415082  C 952.841500863321 603.906728858368  950.889221776435 604.357980882863  948.939513994653 604.820148287653  L 949.400819612248 606.766220518371  Z M 941.645084317363 608.665910247199  C 943.580443269795 608.176526772414  945.518525957509 607.69797858619  947.459241324714 607.230288171873  L 946.990678010806 605.28595064437  C 945.042708172922 605.755389303924  943.097380855578 606.235726322168  941.154787454957 606.726939131706  L 941.645084317363 608.665910247199  Z M 933.918563157095 610.681132763468  C 935.846403161579 610.162921052617  937.777128300723 609.655502775421  939.710647864412 609.158901771613  L 939.213120002152 607.221773477907  C 937.272372865957 607.720230795884  935.33443060004 608.229545822627  933.399384253467 608.749694629324  L 933.918563157095 610.681132763468  Z M 926.225369929589 612.8132557185  C 927.119298860865 612.556853351617  928.014136627374 612.303630235784  928.909866260109 612.053591172927  C 929.93629451199 611.76697166126  930.96357680853 611.48341945641  931.991699394846 611.202938355024  L 931.465317798381 609.273450750787  C 930.433380085198 609.554972653144  929.402285756895 609.839576971409  928.372048618732 610.127259895032  C 927.471780838308 610.378565976931  926.572409415549 610.633072144015  925.673951404219 610.89077357037  L 926.225369929589 612.8132557185  Z M 918.577894050703 615.091172371748  C 920.483914979194 614.502267054124  922.394399904571 613.927907966406  924.309182118922 613.368145226869  L 923.747995332564 611.448491770951  C 921.823452022618 612.011108045251  919.903227908171 612.588395076379  917.987490546998 613.180302490565  L 918.577894050703 615.091172371748  Z M 910.978327712491 617.524150601903  C 912.871977380419 616.896602844256  914.770385960037 616.283507520044  916.673387797208 615.684918127646  L 916.073275582262 613.777075018406  C 914.160572703004 614.378715874432  912.252486496599 614.994936609999  910.349183461677 615.625683454  L 910.978327712491 617.524150601903  Z M 903.429814614793 620.111183962949  C 905.310309679281 619.445253361905  907.195856601652 618.793675419312  909.086290850071 618.15650699152  L 908.447501453949 616.261263443213  C 906.547430229964 616.901680001203  904.652271246417 617.556579530211  902.762189873914 618.225904884041  L 903.429814614793 620.111183962949  Z M 895.935477338338 622.851202281141  C 897.80203989814 622.147164311097  899.673945172261 621.457373287267  901.551029819157 620.78188940048  L 900.873827488794 618.900029415319  C 898.987173919353 619.578956755231  897.105726125898 620.272264166494  895.229648282599 620.979891151458  L 895.935477338338 622.851202281141  Z M 888.498416053036 625.743072097705  C 890.350273970379 625.001217996857  892.207763248292 624.273499236501  894.070721803236 623.559979316995  L 893.355386675784 621.692281360838  C 891.482931209699 622.40943863194  889.615972901681 623.140867126145  887.754674661558 623.886503019377  L 888.498416053036 625.743072097705  Z M 881.121707235534 628.785597137713  C 882.958094455452 628.006233787605  884.800399352713 627.240888324911  886.648461168757 626.489627533276  L 885.895289155695 624.636864213599  C 884.037806368474 625.391954750648  882.186109847401 626.161201758999  880.340361170567 626.944538114552  L 881.121707235534 628.785597137713  Z M 873.808402396574 631.977518804944  C 875.628559263851 631.160968603503  877.454917677288 630.358313037644  879.287318269807 629.569622146669  L 878.496620934537 627.732559892962  C 876.654879207963 628.525271338924  874.819210462023 629.332018648303  872.989774876234 630.152731424743  L 873.808402396574 631.977518804944  Z M 866.561526818682 635.317516702525  C 868.364700392086 634.464117430701  870.174356815082 633.624483794855  871.990338178001 632.798689060976  L 871.162442606961 630.978087807694  C 869.337203811239 631.808092242957  867.518322198438 632.652006127561  865.705956483238 633.509755822013  L 866.561526818682 635.317516702525  Z M 859.384078304702 638.804209179136  C 861.169522668449 637.914313861173  862.961728503473 637.038049485175  864.760539422833 636.175492513513  L 863.895788090192 634.372105385718  C 862.087807268789 635.239059463742  860.286465202828 636.119790823132  858.491919076498 637.01422261172  L 859.384078304702 638.804209179136  Z M 852.279025937702 642.436153900559  C 854.046002510023 641.510130657957  855.820016378298 640.59759802462  857.600912743007 639.698635627668  L 856.699663368997 637.913208629484  C 854.909688426301 638.816753718831  853.126631065327 639.733938222345  851.350646874747 640.664682106974  L 852.279025937702 642.436153900559  Z M 845.257810673801 646.219866900924  C 846.611845622351 645.468364069846  847.971242868417 644.726563746159  849.335897922574 643.994522947993  C 849.728382113678 643.784567241446  850.121223324844 643.575279619262  850.514419849264 643.366660990749  L 849.577045252198 641.599932696761  C 849.181503797561 641.809795476978  848.786320083566 642.020331820213  848.391495829818 642.231540810338  C 847.018087352489 642.968270932626  845.64997167808 643.714825610764  844.28725401829 644.47114743273  L 845.257810673801 646.219866900924  Z M 838.332684441854 650.175468202345  C 840.051738445194 649.165334832646  841.780066132984 648.171067086238  843.517447284145 647.192791651317  L 842.536164033235 645.450068729713  C 840.788074667473 646.434373689756  839.049094565405 647.434769528661  837.319445305424 648.451128777404  L 838.332684441854 650.175468202345  Z M 831.506860533922 654.300063086949  C 833.200570837113 653.247988232272  834.903941929115 652.211546303913  836.616756768782 651.190869363842  L 835.592941644607 649.472788285571  C 833.869570002902 650.499756089168  832.155700314674 651.54258604734  830.451550958781 652.601145284165  L 831.506860533922 654.300063086949  Z M 824.784462055978 658.591160113111  C 826.451805581494 657.497779274189  828.129191164614 656.419789221628  829.81640507526 655.357327311381  L 828.750676508402 653.664925875024  C 827.053063585078 654.733936187228  825.365339565389 655.818570348271  823.68771949678 656.918690155579  L 824.784462055978 658.591160113111  Z M 818.169549640364 663.046167264391  C 819.80951923739 661.912140892648  821.459906094987 660.793253870558  823.120499923184 659.689648765128  L 822.013501661837 658.023949257601  C 820.342672891775 659.134356347902  818.682114002191 660.260139543775  817.032036579157 661.401155399515  L 818.169549640364 663.046167264391  Z M 811.666118992986 667.662393515232  C 813.27772404581 666.488406613818  814.90011526966 665.329298480508  816.53308594173 664.185216807228  L 815.38548666285 662.547225386276  C 813.742451302105 663.698358518628  812.110060595195 664.864610725434  810.488522539042 666.045833404485  L 811.666118992986 667.662393515232  Z M 805.278098479726 672.437050456454  C 806.860365506097 671.223812166488  808.453781098614 670.025183075631  810.058142226508 668.841315911511  L 808.870635131897 667.232021997942  C 807.256385648051 668.423185835932  805.65314916153 669.629202584665  804.061129954496 670.849918575166  L 805.278098479726 672.437050456454  Z M 799.009346753529 677.367253979586  C 800.56131999269 676.115497151801  802.124797458881 674.87807112951  803.699579936005 673.655133583794  L 802.472882333591 672.075509263827  C 800.888393806244 673.305984290693  799.315279967381 674.551037092751  797.753741260976 675.810509027107  L 799.009346753529 677.367253979586  Z M 792.863650423609 682.450026018996  C 794.384392413613 681.160506771062  795.916987342472 679.885031278544  797.461239929071 678.623762060756  L 796.196092799616 677.074761498835  C 794.642322331409 678.343804452082  793.100281372032 679.627141239323  791.570166406167 680.924608339597  L 792.863650423609 682.450026018996  Z M 786.84472176816 687.682296350774  C 788.33331391216 686.355793610559  789.834100547102 685.043039092642  791.346890444865 683.744200066356  L 790.044057994386 682.22675892879  C 788.521944132868 683.53360324915  787.011907515372 684.854448828185  785.514140548604 686.18912736564  L 786.84472176816 687.682296350774  Z M 780.963058958304 693.065133233242  C 781.869430242327 692.212911278267  782.780761840869 691.365980241127  783.697007300175 690.524383292854  C 784.249667511057 690.018788959768  784.804076676542 689.515109717836  785.360224826671 689.01335462474  L 784.020494024819 687.528389514522  C 783.460421824303 688.033684873402  782.902102432914 688.540919674652  782.345545908783 689.050084780431  C 781.423078566836 689.897386113646  780.505561037859 690.750060621203  779.593040140825 691.608064792931  L 780.963058958304 693.065133233242  Z M 775.221581052343 698.599946860664  C 776.639650815021 697.198425468939  778.070783032472 695.810182654869  779.514790353142 694.435400155295  L 778.135723343014 692.98689258487  C 776.682694452465 694.370264165822  775.242621103542 695.767180155833  773.815691818289 697.177457682648  L 775.221581052343 698.599946860664  Z M 769.619756793686 704.276063086576  C 771.002474667148 702.839652509575  772.39858171108 701.416191004485  773.807895159152 700.005864918648  L 772.393173791156 698.592159344303  C 770.975055526402 700.01129657337  769.570226174013 701.443651286454  768.178869642193 702.889035971967  L 769.619756793686 704.276063086576  Z M 764.161062691508 710.089959295984  C 765.507570556831 708.619550974485  766.867785998976 707.161754182906  768.241530950233 705.716759763468  L 766.792033204752 704.338733535182  C 765.409705654301 705.792755691485  764.040992139816 707.25966020395  762.686071841523 708.739255038028  L 764.161062691508 710.089959295984  Z M 758.848886427969 716.038027367219  C 760.158348638273 714.534533841103  761.4818283248 713.043306476147  762.819152228941 711.564540491045  L 761.335777668685 710.223048816086  C 759.99009870922 711.711053529052  758.658350460408 713.211597475497  757.340707263302 714.724484217085  L 758.848886427969 716.038027367219  Z M 753.686524755818 722.116575911142  C 754.95812865488 720.580930253056  756.244051230252 719.057197774981  757.544124140005 717.545577950873  L 756.027793351737 716.241453363055  C 754.719598115709 717.762517172438  753.425641619593 719.295769310715  752.146093257044 720.841009057706  L 753.686524755818 722.116575911142  Z M 748.677181452409 728.321832562041  C 749.910137878974 726.75498779836  751.157705295746 725.199695840157  752.4197203819 723.656160292914  L 750.87137440512 722.390212135923  C 749.601474762479 723.943391064885  748.346113052379 725.508399854075  747.105453616002 727.085033625971  L 748.677181452409 728.321832562041  Z M 743.823965331432 734.649946318764  C 745.017509108992 733.052874838114  746.22594712303 731.466988618702  747.449121175185 729.892495271179  L 745.869720918115 728.665509196291  C 744.638904972433 730.249839337277  743.422917129662 731.845633528144  742.221916576468 733.452682861242  L 743.823965331432 734.649946318764  Z M 739.129888313573 741.096989934667  C 740.283278725237 739.470682884456  741.451837376219 737.855186609666  742.635411288845 736.250712597214  L 741.025936932089 735.063450075719  C 739.834968531495 736.677948188614  738.659109201788 738.30353742645  737.498512876382 739.940004981035  L 739.129888313573 741.096989934667  Z M 734.597863557307 747.658962354871  C 735.71038480547 746.004429026212  736.838338882358 744.360325277926  737.981578125877 742.726866342007  L 736.343028514116 741.580064192638  C 735.192646777213 743.223728315012  734.057645702464 744.878103754171  732.938173874447 746.542973933512  L 734.597863557307 747.658962354871  Z M 730.232141225575 754.332944636698  C 730.801735474898 753.43888174018  731.375084168203 752.547216293182  731.952172119549 751.657971912708  C 732.461534698246 750.875387258399  732.974318856231 750.095034946703  733.490509869297 749.316937384846  L 731.823901891403 748.211307316505  C 731.304238714034 748.994638759832  730.788006941576 749.780241198135  730.275221411306 750.568092052018  C 729.694836932278 751.462409203205  729.118214620595 752.359162270498  728.545369761691 753.258327482254  L 730.232141225575 754.332944636698  Z M 726.016261501662 761.106944923188  C 727.052343832915 759.402387096128  728.101887934975 757.706048231249  729.164795383292 756.018087408469  L 727.472382733689 754.952376648711  C 726.403857557663 756.649258760265  725.348766356462 758.354563193949  724.307208074851 760.06813002904  L 726.016261501662 761.106944923188  Z M 721.944139916443 767.968325799007  C 722.944053550757 766.242302419432  723.957599249671 764.524212351105  724.984681964505 762.814216713738  L 723.270176385709 761.784425171592  C 722.237665285706 763.503458557157  721.218762748081 765.230629154757  720.213564323882 766.965774993096  L 721.944139916443 767.968325799007  Z M 718.017586820863 774.914036886825  C 718.980887224699 773.16731529629  719.957983926513 771.428237839108  720.948785295715 769.696967603224  L 719.212949008777 768.703553095101  C 718.216911010256 770.443973520679  717.23465011166 772.192242430654  716.266258427881 773.948195875097  L 718.017586820863 774.914036886825  Z M 714.238347850205 781.940990318471  C 715.164606767252 780.17434706035  716.104820082188 778.415055359354  717.058899623288 776.663280199088  L 715.302504332294 775.706684369194  C 714.343382245776 777.467718092741  713.398199671856 779.236308083765  712.467045248243 781.012288486727  L 714.238347850205 781.940990318471  Z M 710.608103148026 789.046062107704  C 711.49690878957 787.260282581998  712.399820725181 785.481558768894  713.3167542812 783.710057474308  L 711.54058083019 782.790705598294  C 710.618801054437 784.57156971364  709.711117006821 786.359694520273  708.817613808499 788.154912330708  L 710.608103148026 789.046062107704  Z M 707.128466619214 796.226093539058  C 707.979423847224 794.421971653202  708.844632994198 792.624606498688  709.72401292222 790.834166629517  L 707.928850948053 789.95246742542  C 707.044823280478 791.752370210372  706.175041290012 793.55923488252  705.319586543421 795.372891996985  L 707.128466619214 796.226093539058  Z M 703.800985212494 803.47789257211  C 704.613715715261 801.656230388075  705.440837425922 799.841022950197  706.282272778306 798.032440485771  L 704.468920359602 797.188785932307  C 703.623037814089 799.006927200611  702.791544561431 800.831728456962  701.974518577736 802.663018574416  L 703.800985212494 803.47789257211  Z M 700.627138232689 810.798235260581  C 701.401280693052 808.959842638224  702.189947252295 807.127599907278  702.993063950509 805.301678892578  L 701.16232725285 804.496444054879  C 700.354965885034 806.332015511966  699.562131028743 808.173942097106  698.783897034763 810.022051077369  L 700.627138232689 810.798235260581  Z M 697.608336683073 818.183867185602  C 698.343546939026 816.329561422678  699.093407727837 814.481097962347  699.857848728742 812.638650150601  L 698.010541646272 811.872193013471  C 697.242060386354 813.724378615799  696.488236398551 815.582611660874  695.749140375272 817.446717886573  L 697.608336683073 818.183867185602  Z M 694.745922638073 825.631504902546  C 695.441873835775 823.762110371344  696.152595487097 821.898247956594  696.878020941683 820.040092448378  L 695.014964735274 819.312753757146  C 694.285705228449 821.180730074988  693.571227238118 823.05444346175  692.871597766886 824.933718203584  L 694.745922638073 825.631504902546  Z M 692.028424953452 833.137597611564  C 692.692873996793 831.255346006262  693.368381204886 829.377016301348  694.054911569099 827.502705842573  L 692.176926909849 826.814829676667  C 691.487700981115 828.696499350761  690.809541489363 830.582204052009  690.142483580689 832.471846052421  L 692.028424953452 833.137597611564  Z M 689.429751206367 840.687103596142  C 690.064616174111 838.794668627751  690.710599420118 836.905981752054  691.367667465852 835.021140851571  L 689.479131722127 834.362784758964  C 688.819483791504 836.255026221059  688.170964183507 838.151128759057  687.533606508124 840.050994106096  L 689.429751206367 840.687103596142  Z M 686.949727809359 848.27641382865  C 687.554852721516 846.37426044957  688.171153293793 844.475680434622  688.798597585983 842.580772179044  L 686.899974752182 841.952097911263  C 686.270066888589 843.8544462565  685.651346499147 845.760480777765  685.043845649481 847.670102693459  L 686.949727809359 848.27641382865  Z M 684.588964079446 855.903663691247  C 685.164200262859 853.992259241595  685.750666742503 852.084252549572  686.348333124342 850.179742498962  L 684.440089673163 849.580904515004  C 683.84007663868 851.492892355367  683.251307481223 853.408390566222  682.673812714173 855.327299875511  L 684.588964079446 855.903663691247  Z M 682.348040032735 863.566979244703  C 682.89324615761 861.64679333749  683.449734455654 859.72982874661  684.017476086473 857.816184820094  L 682.100080854302 857.247330248481  C 681.530110066147 859.168487827623  680.971436795386 861.092979109261  680.424089995659 863.020704355263  L 682.348040032735 863.566979244703  Z M 680.227506241916 871.264477688805  C 680.742548356545 869.335982094562  681.268921749365 867.410530583908  681.806599140707 865.488222944715  L 679.880523212431 864.949491547342  C 679.340734706744 866.879346856005  678.812294583131 868.812358380109  678.295230228375 870.748425939955  L 680.227506241916 871.264477688805  Z M 678.227883700997 878.994267824948  C 678.712635264668 877.05793635581  679.208764427569 875.124470989616  679.716245477461 873.193971929565  L 677.781962070729 872.685496067365  C 677.272488468163 874.623574959344  676.774411324165 876.564631804258  676.287756451938 878.508566005455  L 678.227883700997 878.994267824948  Z M 676.349663697293 886.754450520777  C 676.804005611381 884.810758914076  677.269768650377 882.869754725504  677.746928675785 880.931538548962  L 675.804913024741 880.453443149382  C 675.325879497879 882.399269458021  674.858287706085 884.347894725436  674.402161882634 886.299217962736  L 676.349663697293 886.754450520777  Z M 674.593307690731 894.543119176791  C 675.017128327962 892.59254497816  675.452410809712 890.644478852607  675.899132577179 888.699021759947  L 673.949861815702 888.251424286261  C 673.501386058305 890.204519941438  673.064394501354 892.160234873558  672.638909792247 894.118467726301  L 674.593307690731 894.543119176791  Z M 672.959247200466 902.358360194772  C 673.35244243233 900.401382640864  673.757137412281 898.4467331987  674.173311166718 896.494513169355  L 672.217264211195 896.077523591798  C 671.799456409285 898.037408737389  671.393172451645 899.999732834557  670.998433394232 901.964394184459  L 672.959247200466 902.358360194772  Z M 671.447883698866 910.198253447935  C 671.810356921218 908.235353348608  672.184364969843 906.274600827734  672.569888461512 904.316097502685  L 670.607545893175 903.929818271438  C 670.220508697961 905.896011383206  669.845032159549 907.864462521961  669.481135737279 909.83506967132  L 671.447883698866 910.198253447935  Z M 670.059340653429 918.061593731821  C 670.069235398924 918.003139035129  670.079137250898 917.944685539842  670.089046208556 917.886233250649  C 670.411563286807 915.97622025391  670.744972776875 914.068062485691  671.089258406529 912.161853074664  L 669.121102353378 911.806379094682  C 668.775503316971 913.719860456948  668.44082069858 915.635297393694  668.117070828944 917.552596441735  C 668.10717090273 917.610995767849  668.097278050318 917.66939629264  668.08739227184 917.727798015333  L 670.059340653429 918.061593731821  Z M 668.769019974383 925.945743517849  C 669.08083430294 923.972961419781  669.400726783504 922.001464618653  669.728689367898 920.03130271536  L 667.755836973 919.70289225885  C 667.426977726311 921.678440660416  667.106210647422 923.655327609497  666.793543806521 925.63350336955  L 668.769019974383 925.945743517849  Z M 667.564879099381 933.843514726009  C 667.855130065599 931.867444950329  668.153472738835 929.892572173233  668.459899613039 927.918946080856  L 666.483578298242 927.612100744116  C 666.176313641194 929.591122806042  665.877155287649 931.571394961037  665.58611076414 933.55286738739  L 667.564879099381 933.843514726009  Z M 666.447061648652 941.753965373737  C 666.715714633748 939.774843610037  666.992471915713 937.796830404101  667.277326531611 935.819975520769  L 665.29777201661 935.53473190184  C 665.012138597258 937.516991582308  664.734624650257 939.500412752299  664.465237157587 941.484945510873  L 666.447061648652 941.753965373737  Z M 665.415700946461 949.676151966166  C 665.662723907663 947.694214268207  665.917862788993 945.71329655482  666.181111171412 943.733448663919  L 664.198559561532 943.469840784363  C 663.93459144793 945.455101655398  663.678755007102 947.441435273875  663.431056675642 949.42879166558  L 665.415700946461 949.676151966166  Z M 664.470920005211 957.609129608662  C 664.696283479607 955.624612366016  664.92977352939 953.641026413094  665.171384280182 951.65842165494  L 663.186072038219 951.416480955784  C 662.943800714359 953.404506231452  662.709672293814 955.393515384533  662.483692667028 957.3834583735  L 664.470920005211 957.609129608662  Z M 663.612831510764 965.55195211952  C 663.816508618815 963.565092029426  664.028321988237 961.579074423131  664.248266290018 959.593949266859  L 662.26043020803 959.37370460484  C 662.039884570085 961.364257169493  661.827492094778 963.35570462418  661.623258125695 965.347996866029  L 663.612831510764 965.55195211952  Z M 662.841537809009 973.503672142818  C 663.023504257748 971.514706181951  663.213615683416 969.526493798475  663.411867303 967.539085013831  L 661.421744474073 967.34056265796  C 661.22295082695 969.333405094512  661.032319629344 971.327053326986  660.849855677349 973.321457197139  L 662.841537809009 973.503672142818  Z M 662.157130893647 981.463341261411  C 662.317364979582 979.472506657619  662.485751786537 977.482336634928  662.662287078067 975.49288126403  L 660.670114868027 975.316104892455  C 660.493096922234 977.310999510706  660.324249739283 979.306610734656  660.163577567207 981.302888356677  L 662.157130893647 981.463341261411  Z M 661.559692395227 989.430010110052  C 661.698175006922 987.437544314109  661.844817111348 985.445654023556  661.999615019111 983.454389352675  L 660.005631038223 983.299380049859  C 659.850409907033 985.29608891484  659.703366877471 987.293425109826  659.564505648996 989.291338383792  L 661.559692395227 989.430010110052  Z M 661.049293571402 997.402728488618  C 661.166008191774 995.408869145699  661.290888103365 993.415496164128  661.423930164322 991.422659695181  L 659.42837223894 991.289435949385  C 659.294966435881 993.287720909737  659.169745097816 995.28654384958  659.052711375192 997.285854480479  L 661.049293571402 997.402728488618  Z M 660.625995298434 1005.38054547545  C 660.720928006699 1003.3855303971  660.824030830793 1001.39091247789  660.935301176754 999.396741900413  L 658.938407320961 999.285319601493  C 658.826832757603 1001.28494231788  658.723448046429 1003.28501359906  658.628255788496 1005.28548312522  L 660.625995298434 1005.38054547545  Z M 660.289848063934 1013.36250954077  C 660.362987537282 1011.36657667632  660.444300976605 1009.37095172143  660.533786336138 1007.37568488405  L 658.535794723357 1007.28607732156  C 658.446064707416 1009.28679929507  658.364528954027 1011.28788036521  658.291189514552 1013.28927018673  L 660.289848063934 1013.36250954077  Z M 660.164801983635 1017.02570113483  C 660.182378896567 1016.46995916876  660.200589424506 1015.91423742318  660.219433531933 1015.358536982  L 658.220582466517 1015.29075484361  C 658.152707700266 1017.29233744424  658.093030629592 1019.29418963049  658.041552755912 1021.2962610377  L 660.164801983635 1017.02570113483  Z M 1123.96827593333 591.75601399601  C 1125.96434763508 591.829268435102  1127.96012755085 591.910268555192  1129.95557059912 591.999012526617  L 1130.04442940088 590.000987473383  C 1128.04381732793 589.912013618284  1126.04286751495 589.830803674309  1124.04162516005 589.757359475854  L 1123.96827593333 591.75601399601  Z M 651.597791340415 1015.79116465995  L 659 1023  L 666.79190172386 1016.21425998688  L 651.597791340415 1015.79116465995  Z " fill-rule="nonzero" fill="#aaaaaa" stroke="none" />
  </g>
</svg>