<?xml version="1.0" encoding="utf-8"?>
<svg version="1.1" xmlns:xlink="http://www.w3.org/1999/xlink" width="278px" height="42px" viewBox="1110 766  278 42" xmlns="http://www.w3.org/2000/svg">
  <g transform="matrix(-0.669130606358856 -0.743144825477393 0.743144825477396 -0.669130606358858 1499.8891496915 2241.79367422568 )">
    <path d="M 1337.74989677265 706.380302149235  C 1339.4253354607 705.291881987242  1341.1041404531 704.208652472572  1342.78628760415 703.130629184957  L 1341.7071513212 701.446745316387  C 1340.02152804416 702.526996319198  1338.33925383229 703.612464307627  1336.66035288117 704.703133669764  L 1337.74989677265 706.380302149235  Z M 1331.06619844652 710.761599179029  C 1332.7325926032 709.659381523116  1334.40239581021 708.56232654098  1336.07558405131 707.4704500112  L 1334.98258022354 705.79553430213  C 1333.30593436987 706.889667174573  1331.63268054542 707.988989200541  1329.96284281602 709.093484568864  L 1331.06619844652 710.761599179029  Z M 1324.41890566701 715.197936145668  C 1326.07614167063 714.081996149632  1327.73682923809 712.971190501816  1329.40094448429 711.865535178567  L 1328.29414763727 710.199701831735  C 1326.62659352768 711.307641971269  1324.96247418007 712.420743078414  1323.30181352888 713.538989143821  L 1324.41890566701 715.197936145668  Z M 1317.80847167428 719.689010561194  C 1319.45643652761 718.55942431445  1321.10789522285 717.434943740373  1322.76282400786 716.315585011818  L 1321.6423096076 714.65894761069  C 1319.98396094289 715.780619473334  1318.32908953872 716.907423765781  1316.67771919653 718.039344281591  L 1317.80847167428 719.689010561194  Z M 1311.23534719529 724.234516205421  C 1312.87392853317 723.0913607279  1314.51604575292 721.95328189928  1316.16167523676 720.820296087995  L 1315.02751968461 719.172967589018  C 1313.37848953796 720.308294694478  1311.73297891317 721.448725342068  1310.09101147733 722.594243129191  L 1311.23534719529 724.234516205421  Z M 1304.69998041308 728.834143146814  C 1306.3290665102 727.677496383624  1307.96173028806 726.525896899424  1309.59794826484 725.379361257108  L 1308.45022889227 723.74145398201  C 1306.81062970129 724.890358919036  1305.17459205392 726.044338162273  1303.54213948049 727.203375114617  L 1304.69998041308 728.834143146814  Z M 1298.20281693621 733.487577763625  C 1299.82229671465 732.317518579797  1301.44539572888 731.152476960812  1303.0720906344 729.992469663076  L 1301.91088569769 728.364095291208  C 1300.28082925722 729.52649972258  1298.6543761389 730.693948878526  1297.03154973543 731.866425968026  L 1298.20281693621 733.487577763625  Z M 1291.7442997684 738.194502765271  C 1293.35406280531 737.011110940291  1294.96748638617 735.832706623977  1296.58454730562 734.659306764927  L 1295.40993598057 733.040576325646  C 1293.78953343462 734.216400993812  1292.17277574377 735.397240460853  1290.5596861613 736.583077743162  L 1291.7442997684 738.194502765271  Z M 1285.32486927828 742.954597213972  C 1286.92480581335 741.757953436399  1288.52844395079 740.56626677134  1290.13576062627 739.379554358243  L 1288.94782300277 737.770578223341  C 1287.33718483714 738.959742955671  1285.73023281106 740.153892219246  1284.12699003676 741.353008839032  L 1285.32486927828 742.954597213972  Z M 1278.9449631694 747.767536546635  C 1280.53496411219 746.557722408696  1282.12870746366 745.352834648935  1283.72617030151 744.152890596855  L 1282.52498737812 742.553778473036  C 1280.92422341284 743.756202187317  1279.32718662022 744.963579825351  1277.73389996987 746.175894021841  L 1278.9449631694 747.767536546635  Z M 1272.60501645037 752.632992596981  C 1274.18497338807 751.410090588787  1275.76871328532 750.192083888723  1277.35621336396 748.978990014787  L 1276.14186704233 747.389850936186  C 1274.55108642417 748.605451646155  1272.96407375763 749.825975334602  1271.38085186816 751.051404447158  L 1272.60501645037 752.632992596981  Z M 1266.30052759659 757.546275902233  C 1266.93900881254 757.044840027995  1267.57885072326 756.545139158108  1268.22004624911 756.047178821603  C 1269.15412924237 755.315574199044  1270.08955678893 754.585687873882  1271.02632414384 753.857523548452  L 1269.79889722317 752.2784658692  C 1268.8612768125 753.007293288584  1267.92499588252 753.737842288468  1266.99005917156 754.470109171686  C 1266.34709256866 754.96945437565  1265.70548105809 755.470541983305  1265.06523171483 755.973366469206  L 1266.30052759659 757.546275902233  Z M 1260.06710555165 762.532080344362  C 1261.61433076237 761.271786264367  1263.16995234657 760.021835366517  1264.73386631062 758.782311210309  L 1263.49158230852 757.214915134603  C 1261.92069247861 758.459968210207  1260.35813201688 759.715494536097  1258.80400538077 760.981410180101  L 1260.06710555165 762.532080344362  Z M 1253.92342567297 767.628058550146  C 1255.44797068121 766.340421357983  1256.98109485584 765.062976241606  1258.52269570722 763.795808598457  L 1257.25270666895 762.250775316391  C 1255.70422947976 763.523595183191  1254.16426677767 764.80673836607  1252.63292150949 766.100119086668  L 1253.92342567297 767.628058550146  Z M 1247.87143499034 772.832595523105  C 1249.37281664355 771.518023291481  1250.88295753722 770.213488799202  1252.4017567181 768.919079254692  L 1251.10446512338 767.396898411867  C 1249.57889131194 768.697081693002  1248.06201440812 770.00743508444  1246.55393581555 771.32787098871  L 1247.87143499034 772.832595523105  Z M 1241.91305147579 778.144041862761  C 1243.39079396228 776.802951200491  1244.87747298731 775.471740760056  1246.37298916611 774.150499533124  L 1245.04880614725 772.65165353284  C 1243.54661919212 773.978788179599  1242.05330880905 775.315936507713  1240.5689748261 776.663009128567  L 1241.91305147579 778.144041862761  Z M 1236.05016343575 783.56071428736  C 1237.50379843542 782.193530207404  1238.96654443963 780.836065700524  1240.4383036635 779.488411513528  L 1239.08764887514 778.013375363903  C 1237.60932484327 779.3670407862  1236.14005423467 780.730560287487  1234.67993527041 782.103842716177  L 1236.05016343575 783.56071428736  Z M 1230.2846289126 789.080896167328  C 1231.71369574544 787.68805195203  1233.15204516135 786.304763580815  1234.5995810064 784.931123526768  L 1233.22288249252 783.480364690199  C 1231.76888988827 784.860131889965  1230.32412468939 786.24959044339  1228.8886834787 787.648647464908  L 1230.2846289126 789.080896167328  Z M 1224.61827509587 794.702838069298  C 1226.02232086787 793.284775133144  1227.43581785972 791.876101283627  1228.85867157883 790.476910690909  L 1227.45636563707 789.050888935927  C 1226.02716525381 790.456320642993  1224.60736333366 791.871277907095  1223.1970547907 793.295666138019  L 1224.61827509587 794.702838069298  Z M 1219.05289774313 800.424758310539  C 1220.43147748988 798.9819260602  1221.81967409799 797.548313163527  1223.21739476622 796.124015457866  L 1221.7899258096 794.723182713426  C 1220.38597058364 796.153833524167  1218.99158190006 797.593841076465  1217.606852974 799.043109105547  L 1219.05289774313 800.424758310539  Z M 1213.59026061091 806.244843523591  C 1214.94293743858 804.777699215528  1216.30539372138 803.31960160643  1217.67753837884 801.870648170392  L 1216.22535879497 800.495448382655  C 1214.84709366203 801.950864901083  1213.47856011892 803.415466380318  1212.11984965237 804.889154911477  L 1213.59026061091 806.244843523591  Z M 1208.30159363319 812.196295421844  C 1209.44554205294 810.857809889442  1210.60487929488 809.532553471063  1211.77937436683 808.220790217482  C 1211.93307352032 808.052071928533  1212.08690147127 807.88347101666  1212.24085808521 807.714987629255  L 1210.76442809288 806.365856620888  C 1210.6078517969 806.537206873782  1210.45140798914 806.708678144509  1210.29509680967 806.880270279534  C 1209.10838594121 808.205577648706  1207.93701423681 809.544540498811  1206.78121584171 810.896891184832  L 1208.30159363319 812.196295421844  Z M 1203.23282868861 818.340095921825  C 1204.47321518998 816.78225469843  1205.7338556647 815.240648254297  1207.01442883811 813.715669468333  L 1205.48281681736 812.429526156766  C 1204.19106694561 813.967814785702  1202.9194237429 815.522876197156  1201.66821128794 817.094314083172  L 1203.23282868861 818.340095921825  Z M 1198.38064023522 824.656339256257  C 1199.56613802727 823.056332089043  1200.77244176299 821.471846010764  1201.99924401548 819.903284828217  L 1200.4238600268 818.671146326168  C 1199.18635038252 820.253397733938  1197.96951816374 821.851713028141  1196.77367348056 823.465684877587  L 1198.38064023522 824.656339256257  Z M 1193.7508903288 831.137394606355  C 1194.88006718064 829.497154505838  1196.03057681028 827.871703052479  1197.20212600995 826.261454493147  L 1195.58487331596 825.084809379369  C 1194.40309896691 826.709112006653  1193.24254781888 828.348750217108  1192.10351563874 830.003306148368  L 1193.7508903288 831.137394606355  Z M 1189.39538633012 837.786796026741  C 1190.43812825743 836.096377064337  1191.51603669794 834.42790486166  1192.6284075281 832.782469316998  L 1190.97150527086 831.662346596075  C 1189.84354934391 833.330835848655  1188.7505386489 835.022684519016  1187.69318717465 836.736787438622  L 1189.39538633012 837.786796026741  Z M 1185.41482087771 844.660765833688  C 1186.36192017343 842.914962316829  1187.345352308 841.189115471387  1188.36447487276 839.484352674563  L 1186.64783192354 838.458128047634  C 1185.61443073571 840.186775768861  1184.61722002606 841.936802941031  1183.65685120386 843.707066391612  L 1185.41482087771 844.660765833688  Z M 1181.82277742959 851.745509025548  C 1182.67130144755 849.949726748552  1183.55721212718 848.171849259816  1184.47993076387 846.413037924586  L 1182.70886262275 845.483889045495  C 1181.77321604974 847.267342563117  1180.87489313913 849.070129364454  1180.01448070358 850.891071812708  L 1181.82277742959 851.745509025548  Z M 1178.66123980283 859.016032294484  C 1179.15055346527 857.758989487765  1179.66751845018 856.512886051052  1180.21175801549 855.278630091479  C 1180.46626825234 854.699733284363  1180.72462245112 854.122534089235  1180.98680350032 853.547070735584  L 1179.16679419227 852.71787466792  C 1178.90108982632 853.301071378663  1178.63926154767 853.886026268874  1178.38132667836 854.472700639116  C 1177.82538951556 855.733524726181  1177.29730667209 857.006447779621  1176.79746278945 858.290542636117  L 1178.66123980283 859.016032294484  Z M 1176.1118392181 866.505337463167  C 1176.66812747618 864.606529781445  1177.28566844195 862.726206200012  1177.9634941078 860.867314163084  L 1176.08451342504 860.182163381269  C 1175.39191814127 862.081560118034  1174.76092114311 864.002855386228  1174.19251153077 865.943037517713  L 1176.1118392181 866.505337463167  Z M 1174.21683267952 874.186358584725  C 1174.60754315501 872.246700737944  1175.06087052441 870.320183696375  1175.57610418813 868.409827313392  L 1173.64510299522 867.889025630447  C 1173.11864254452 869.841008105926  1172.65543730774 871.809503375901  1172.2562133682 873.791425785284  L 1174.21683267952 874.186358584725  Z M 1173.05155541159 881.988134873707  C 1173.20894716381 880.265325536482  1173.43265055565 878.54921906193  1173.72216795114 876.843632988521  C 1173.76286889124 876.605561095057  1173.80450936253 876.367650778896  1173.84708839191 876.12990759973  L 1171.87841246348 875.777324150281  C 1171.8348364479 876.020634076102  1171.7922224948 876.26411532301  1171.7505716032 876.507762182964  C 1171.45236209957 878.264373177145  1171.22195055066 880.031822744771  1171.05984974168 881.806177393837  L 1173.05155541159 881.988134873707  Z M 1172.79483777345 889.862425045808  C 1172.74374615889 887.892028097849  1172.77916525951 885.920338084119  1172.90099281763 883.953047426467  L 1170.90481672271 883.829431092358  C 1170.77937192508 885.855133505203  1170.74290117922 887.885365897492  1170.79550977902 889.914266830975  L 1172.79483777345 889.862425045808  Z M 1173.46116116172 897.708255190107  C 1173.43105675646 897.505248590067  1173.40193413517 897.302097611298  1173.37379431921 897.098809378402  C 1173.13852149894 895.350245531218  1172.97203876383 893.593113100254  1172.87473129645 891.831477472655  L 1170.87777545831 891.941783322538  C 1170.9780419933 893.756989339562  1171.14963705325 895.567551495319  1171.39216307403 897.369274945663  C 1171.42134845359 897.580206479822  1171.45155969489 897.790994799807  1171.4827957257 898.001632424324  L 1173.46116116172 897.708255190107  Z M 1175.09490236597 905.40810335409  C 1174.56781969243 903.510521697173  1174.12907181966 901.589504508224  1173.78007423567 899.651249371306  L 1171.81172736095 900.005665201629  C 1172.17168860236 902.004810058956  1172.62421961173 903.986175443202  1173.16786043389 905.943369075006  L 1175.09490236597 905.40810335409  Z M 1177.66631998609 912.847497381416  C 1176.90910377859 911.029461104409  1176.23665527707 909.177267877745  1175.65114393433 907.296893245672  L 1173.74157616906 907.891494750727  C 1174.34548118004 909.830940804012  1175.03905445531 911.741320141254  1175.82005838936 913.616469498211  L 1177.66631998609 912.847497381416  Z M 1181.12500309644 919.931281161495  C 1180.42770785579 918.676938777389  1179.76442823062 917.403986618785  1179.13589015666 916.113817886104  C 1178.90156362952 915.629859038875  1178.67337770704 915.142950963671  1178.45138732049 914.653210874019  L 1176.62978838533 915.478908954085  C 1176.85908579757 915.98476930674  1177.09479197888 916.487700139158  1177.33685002235 916.987580027972  C 1177.9814781001 918.31087524406  1178.66175919563 919.616503346732  1179.3769479511 920.903033809483  L 1181.12500309644 919.931281161495  Z M 1185.29963609973 926.635356172656  C 1184.1736084557 925.012267142291  1183.10833025101 923.347864377793  1182.10600983517 921.645598229508  L 1180.38257843607 922.660381069636  C 1181.41005758182 924.405374926115  1182.50207478753 926.111555009462  1183.65636627305 927.775384363854  L 1185.29963609973 926.635356172656  Z M 1190.11743345701 932.893232097564  C 1188.83625911171 931.389587008937  1187.61144594317 929.838817226535  1186.44553302102 928.244137536571  L 1184.83102576436 929.424546922411  C 1186.02620366787 931.05925384814  1187.28176024262 932.648948706278  1188.59509268707 934.190336017904  L 1190.11743345701 932.893232097564  Z M 1195.48480067825 938.726176259495  C 1194.09342288071 937.312536121186  1192.73744664101 935.864483058697  1191.41813167186 934.383362324835  L 1189.92469732637 935.713645699046  C 1191.26608645848 937.219547854483  1192.64475026042 938.691829065688  1194.05940794257 940.129121571709  L 1195.48480067825 938.726176259495  Z M 1201.23351012637 944.191677908056  C 1199.75144009259 942.873429437136  1198.3024113317 941.518495902034  1196.88777000295 940.128136046786  L 1195.4858510959 941.554538296524  C 1196.92416154382 942.968161004643  1198.39743477835 944.345764655941  1199.90430211695 945.686069445671  L 1201.23351012637 944.191677908056  Z M 1207.33204636709 949.263879038726  C 1205.76581036049 948.04682711389  1204.23010984531 946.790979526777  1202.72637149952 945.497502969766  L 1201.42214135058 947.013742963497  C 1202.95103954528 948.328861367199  1204.51243468549 949.605721210631  1206.10487622273 950.843136280844  L 1207.33204636709 949.263879038726  Z M 1213.73552448915 953.978702863037  C 1212.19485674066 952.894428406662  1210.67030235146 951.787437008154  1209.16236104619 950.658091521653  C 1209.0775651796 950.594779935827  1208.99285342473 950.531355773434  1208.90822600584 950.467819202365  L 1207.70742776433 952.067220209988  C 1207.79307786305 952.131524588585  1207.87881292679 952.195715720095  1207.96463273098 952.25979343638  C 1209.48796726189 953.400649297212  1211.02807989647 954.518928710072  1212.58446607031 955.614265309539  L 1213.73552448915 953.978702863037  Z M 1220.33717847673 958.422195821872  C 1218.66384514593 957.345816628748  1217.007418781 956.243378083258  1215.36850494091 955.115283216628  L 1214.23453171494 956.76273722897  C 1215.89059282648 957.902634881335  1217.56434968907 959.016607781173  1219.25519040808 960.104248680527  L 1220.33717847673 958.422195821872  Z M 1227.11805252759 962.587074229853  C 1225.40136970111 961.581272720278  1223.70049458688 960.548730762422  1222.01604899346 959.489825834583  L 1220.95162624629 961.183048860441  C 1222.65369549087 962.253032668561  1224.3723661515 963.29637768195  1226.10700991386 964.312702472905  L 1227.11805252759 962.587074229853  Z M 1234.06177623826 966.457182648249  C 1233.87609164357 966.360490235125  1233.69048690968 966.263644537963  1233.50496222595 966.166645655566  C 1231.93801023247 965.327463045506  1230.38283942603 964.466465308823  1228.8399035966 963.583903679734  L 1227.84687599192 965.319961333253  C 1229.40883300776 966.213403109751  1230.98319855635 967.084974777422  1232.56951154931 967.934421076903  C 1232.75893975029 968.033467115046  1232.9484509751 968.132354287038  1233.13804502363 968.231082488466  L 1234.06177623826 966.457182648249  Z M 1241.17690250099 970.067923130061  C 1239.38870899251 969.183923575659  1237.60749715809 968.285870819165  1235.83343233078 967.373848218325  L 1234.919016686 969.152567990683  C 1236.70240974855 970.069386110396  1238.49298739802 970.972160930744  1240.29058343195 971.860808655644  L 1241.17690250099 970.067923130061  Z M 1248.36620137707 973.528623959677  C 1246.55985873013 972.682327629935  1244.76020144444 971.821834744039  1242.96739656523 970.947225173438  L 1242.09049211823 972.744734169476  C 1243.89272377002 973.623942536974  1245.70184385902 974.488959992629  1247.51768446167 975.339706245018  L 1248.36620137707 973.528623959677  Z M 1255.62650935052 976.837762320685  C 1253.80281241225 976.0295416124  1251.98550158073 975.206987240858  1250.17474553972 974.370175556003  L 1249.33573815585 976.185682815641  C 1251.15601535866 977.026894551788  1252.9828818179 977.853774008073  1254.8161679627 978.666244433033  L 1255.62650935052 976.837762320685  Z M 1262.95463165917 979.993882088889  C 1261.11438291319 979.224092644417  1259.28021820929 978.439838736814  1257.4523077957 977.641193160983  L 1256.65156666438 979.473899804345  C 1258.48908843945 980.276744749723  1260.33289739061 981.065122353839  1262.18282237443 981.838959439028  L 1262.95463165917 979.993882088889  Z M 1270.34734370039 982.995594473053  C 1268.49135291359 982.264575023779  1266.64114142707 981.518966676329  1264.79688097854 980.758838638505  L 1264.03475845089 982.607938217448  C 1265.88871623125 983.37206309521  1267.74865634083 984.121591936408  1269.61440613892 984.856455169342  L 1270.34734370039 982.995594473053  Z M 1277.80139245008 985.841578626011  C 1275.93047631635 985.149650843314  1274.06503219804 984.443016146971  1272.20523324675 983.721740127223  L 1271.48206468046 985.5864189802  C 1273.35164266682 986.311487551547  1275.22689550309 987.021837813727  1277.10764912729 987.717403831645  L 1277.80139245008 985.841578626011  Z M 1285.31349789407 988.530582225878  C 1283.42847967493 987.878050579587  1281.54862377847 987.210700475678  1279.67410469402 986.528593857974  L 1278.99020830585 988.408031468073  C 1280.87458382551 989.093724680191  1282.76432421869 989.764583787069  1284.65925407868 990.420546519201  L 1285.31349789407 988.530582225878  Z M 1292.88035447141 991.061422027118  C 1290.98206363373 990.44857365153  1289.08862315442 989.820801794936  1287.20020878372 989.178164727484  L 1286.55588550944 991.071534083476  C 1288.45422937831 991.717550209936  1290.35762578369 992.348622962576  1292.26589805114 992.964693764833  L 1292.88035447141 991.061422027118  Z M 1300.49863252898 993.4329843812  C 1298.58790437998 992.860088948734  1296.68171249074 992.272171578672  1294.7802337951 991.669286841847  L 1294.17576715704 993.575754802103  C 1296.08724404459 994.181809575651  1298.00345890824 994.772818282314  1299.92423388382 995.348726064319  L 1300.49863252898 993.4329843812  Z M 1308.15822338885 995.723572354422  C 1306.24177829108 995.159845664443  1304.32733997737 994.589319004098  1302.4149446202 994.012003153242  L 1301.83694557486 995.926661635473  C 1303.7538712018 996.505345088765  1305.6728446248 997.077223268634  1307.59382958577 997.642285369712  L 1308.15822338885 995.723572354422  Z M 1315.83455184975 997.942167454236  C 1313.91285733837 997.396603710301  1311.99310516461 996.844221307863  1310.07533160137 996.285030683947  L 1309.51547923232 998.205073736817  C 1311.43779580576 998.765589026352  1313.3620956768 999.319279966417  1315.28834248671 999.866136095281  L 1315.83455184975 997.942167454236  Z M 1323.53153383036 1000.08801256668  C 1321.60476203898 999.560660637045  1319.6798679648 999.02647197154  1317.75688797787 998.48545666343  L 1317.21523243326 1000.41071230126  C 1319.14276776388 1000.95300921952  1321.07222171598 1001.48846332354  1323.00355783345 1002.01706449617  L 1323.53153383036 1000.08801256668  Z M 1331.24847988227 1002.16091548012  C 1329.31680339928 1001.65182260173  1327.38693984488 1001.1358755225  1325.458925683 1000.61308399103  L 1324.93551548102 1002.54337976123  C 1326.86809691202 1003.06740973258  1328.80253211654 1003.58457903787  1330.73878454433 1004.09487790542  L 1331.24847988227 1002.16091548012  Z M 1338.98469876877 1004.16069051662  C 1337.04829062191 1003.6699022909  1335.11363045262 1003.17224301332  1333.18075481549 1002.66772208695  L 1332.67563684 1004.60288508546  C 1334.61309126261 1005.10860117052  1336.5523344447 1005.60743935221  1338.49332974519 1006.09939020524  L 1338.98469876877 1004.16069051662  Z M 1346.73949752685 1006.0871585486  C 1344.79853116767 1005.61471893734  1342.85924767849 1005.13539203868  1340.92168370125 1004.6491869093  L 1340.43490319763 1006.5890437961  C 1342.37705706654 1007.07640069591  1344.3209345207 1007.55686307115  1346.26649883145 1008.03042184372  L 1346.73949752685 1006.0871585486  Z M 1354.5121815292 1007.94014701488  C 1352.56683081756 1007.48609833633  1350.62309771761 1007.02514675175  1348.68101895535 1006.55730097062  L 1348.2126195264 1008.50167798524  C 1350.1592988754 1008.97063204536  1352.10763648101 1009.43267557727  1354.0575955303 1009.88779985089  L 1354.5121815292 1007.94014701488  Z M 1362.30205454647 1009.71948993611  C 1360.35249373496 1009.28387286117  1358.40448513192 1008.84133787988  1356.45806554414 1008.39189335377  L 1356.00808914622 1010.34061633083  C 1357.95911960371 1010.79112554524  1359.91174284064 1011.2347088468  1361.8659219631 1011.67135785422  L 1362.30205454647 1009.71948993611  Z M 1370.10841880962 1011.42502792968  C 1368.15482252794 1011.00788147824  1366.20271291247 1010.58380273982  1364.2521268475 1010.15279972721  L 1363.82061378673 1012.10569411206  C 1365.77582059137 1012.5377181269  1367.7325545556 1012.96280146464  1369.69077870786 1013.38093609353  L 1370.10841880962 1011.42502792968  Z M 1377.93057507244 1013.05660822395  C 1375.97311831175 1012.65796976144  1374.01708254186 1012.25238525226  1372.06250472123 1011.83986235974  L 1371.6494936499 1013.79675322409  C 1373.60870166627 1014.21025334131  1375.56937108558 1014.61679863887  1377.53146486192 1015.01638143529  L 1377.93057507244 1013.05660822395  Z M 1385.76782267414 1014.61408467197  C 1383.80668077141 1014.23398990598  1381.84689405679 1013.8469359558  1379.88849955959 1013.45293013466  L 1379.4940274727 1015.41364219222  C 1381.45706120695 1015.80858137301  1383.42149045661 1016.19655221456  1385.38727810471 1016.57754738633  L 1385.76782267414 1014.61408467197  Z M 1344.46954492298 702.054343791393  C 1346.15391390395 700.979795336374  1347.8416062139 699.910465148221  1349.53259757906 698.846368606921  L 1348.46740242094 697.153631393079  C 1346.7729166533 698.219926870264  1345.08173675858 699.291466809365  1343.39388706016 700.368235798957  L 1344.46954492298 702.054343791393  Z M 1384.69905935302 1023.15259167955  L 1393 1017  L 1387.54927393559 1008.22221067861  L 1384.69905935302 1023.15259167955  Z " fill-rule="nonzero" fill="#aaaaaa" stroke="none" />
  </g>
</svg>