<?xml version="1.0" encoding="utf-8"?>
<svg version="1.1" xmlns:xlink="http://www.w3.org/1999/xlink" width="132px" height="14px" viewBox="924 952  132 14" xmlns="http://www.w3.org/2000/svg">
  <g transform="matrix(0.292371704722753 -0.956304755963038 0.95630475596303 0.292371704722738 -216.54424864407 1625.3572435743 )">
    <path d="M 899.289975733639 812.37095464271  C 897.794410549295 811.034412972514  896.287357364067 809.710782026169  894.768983990259 808.40020919168  L 893.462172440424 809.914224902701  C 894.971849221213 811.217291336749  896.470270650604 812.533341091362  897.957269877479 813.862227622737  L 899.289975733639 812.37095464271  Z M 905.210259226021 817.785338915113  C 903.745794575278 816.4147907972  902.26954834396 815.056886069412  900.781684913978 813.711775936183  L 899.440435185886 815.195369265533  C 900.919776770748 816.532775183447  902.387567695289 817.882902413956  903.843644519109 819.245600618662  L 905.210259226021 817.785338915113  Z M 911.004589706764 823.334307103826  C 909.57199864735 821.930476019514  908.127338646902 820.539014317442  906.670770570162 819.160076938655  L 905.295790679175 820.61246473101  C 906.744016157187 821.983504146492  908.180401763275 823.366996151295  909.604787554058 824.762786691808  L 911.004589706764 823.334307103826  Z M 916.669908480007 829.014930034188  C 915.269947244306 827.578557034119  913.857636078029 826.154272878889  912.433132243839 824.742236164364  L 911.025148010706 826.162651737093  C 912.441492896433 827.566600909481  913.845714948629 828.982727374473  915.237657805369 830.410873444573  L 916.669908480007 829.014930034188  Z M 922.203224952251 834.824209033978  C 920.836632548098 833.356052346937  919.45741574308 831.899697585904  918.065728114757 830.455306917849  L 916.625482782476 831.843000465734  C 918.009199419521 833.279118282049  919.3805166608 834.727131666137  920.739281808381 836.18687937985  L 922.203224952251 834.824209033978  Z M 927.601618211019 840.759077516354  C 926.269116031598 839.259912149006  924.923721645168 837.772255558882  923.565584863096 836.296273398421  L 922.093838704565 837.65051238946  C 923.444196660252 839.118040755629  924.781885203285 840.597176685324  926.106755380356 842.08775547489  L 927.601618211019 840.759077516354  Z M 932.862238566747 846.816402598625  C 931.564530009794 845.287019926433  930.253668245169 843.768846807427  928.92979923901 842.262052292131  L 927.427329155703 843.582121854225  C 928.743615606638 845.080286095249  930.04696931594 846.589763768195  931.33724515353 848.110386790818  L 932.862238566747 846.816402598625  Z M 937.975750450148 853.002032895939  C 936.717512096985 851.439119075839  935.444205652495 849.888396054463  934.156009330228 848.350080872932  L 932.622643411115 849.63413264685  C 933.902570606098 851.16257315026  935.167703503702 852.703341845733  936.417865034321 854.256223085326  L 937.975750450148 853.002032895939  Z M 942.927594157325 859.317766766474  C 941.710028313085 857.722963713627  940.477085384889 856.139959314891  939.228937936961 854.568975129528  L 937.663008120872 855.813106879418  C 938.90314352131 857.374006679382  940.128172002134 858.946849533154  941.33792210683 860.531415303685  L 942.927594157325 859.317766766474  Z M 947.715124301172 865.75894721306  C 946.539038825571 864.133313085554  945.347277476144 862.519077639092  944.140007053287 860.916466804072  L 942.542552340803 862.119853043632  C 943.742073111988 863.712176477005  944.926184364828 865.316049901669  946.094720369655 866.931248837526  L 947.715124301172 865.75894721306  Z M 952.33516433664 872.321300487184  C 951.201339567011 870.665913899644  950.051550534686 869.021518457012  948.885958165565 867.388344310915  L 947.258038474161 868.550186588653  C 948.416148729344 870.172877142574  949.558557091749 871.806716961835  950.685103668473 873.451477372174  L 952.33516433664 872.321300487184  Z M 956.784648849029 879.000472441681  C 955.693837082553 877.316431749603  954.586783256874 875.642967373644  953.4636423166 873.980313533924  L 951.806337777381 875.099840962925  C 952.922269105865 876.751821975846  954.022216585393 878.41454413056  955.106026265942 880.087774710395  L 956.784648849029 879.000472441681  Z M 961.060625587893 885.792031419738  C 960.013550582468 884.080453990743  958.949966497981 882.37903103162  957.870022194984 880.688000675637  L 956.184432436019 881.764470445057  C 957.257444412983 883.444645821085  958.314201190171 885.135147088584  959.354554862561 886.835737642851  L 961.060625587893 885.792031419738  Z M 965.160257425879 892.691471195306  C 964.157613919878 890.953492667734  963.138205268807 889.22524002627  962.102174150367 887.506955159301  L 960.38941756708 888.539653027221  C 961.418798244868 890.246907963402  962.431663157437 891.964066689448  963.427870542928 893.690888869643  L 965.160257425879 892.691471195306  Z M 969.080928705368 899.695286773388  C 969.013491832268 899.570814095958  968.94597013206 899.446387394806  968.878363651869 899.322006756777  C 967.985992619787 897.684109961681  967.078931543577 896.054259525947  966.157290133312 894.432652581842  L 964.41850314642 895.420893349172  C 965.334065444649 897.031804234938  966.235146160941 898.650902787066  967.121636347346 900.277993243439  C 967.188650966124 900.401285929393  967.255581743419 900.524624167965  967.322428632978 900.648007873923  L 969.080928705368 899.695286773388  Z M 972.812778941688 906.800393685843  C 971.902738701719 905.012185050346  970.97544594329 903.232808943175  970.031030451449 901.462514408019  L 968.266431532067 902.403891406737  C 969.204784677838 904.162822153168  970.126125003628 905.930776175653  971.030323557476 907.707506029103  L 972.812778941688 906.800393685843  Z M 976.360388915642 913.999262617587  C 975.496708460119 912.188207832889  974.615553715265 910.385538282964  973.717048008593 908.591506271681  L 971.928787984298 909.487121192004  C 972.821526046767 911.269637040115  973.697024525873 913.060734981205  974.555160885754 914.86016433097  L 976.360388915642 913.999262617587  Z M 979.721404774086 921.28711709082  C 978.904657158381 919.454417798881  978.070225076735 917.629650884527  977.218225317296 915.813071744399  L 975.407490705634 916.662330342312  C 976.254021349588 918.467248585833  977.083097085338 920.280302045024  977.894601874407 922.10123696266  L 979.721404774086 921.28711709082  Z M 982.893596469799 928.659121585486  C 982.124323609169 926.805993789494  981.337167839682 924.960340250698  980.532239332667 923.122419289129  L 978.700231563163 923.924758078218  C 979.499993112196 925.750881146808  980.282096009583 927.584687156012  981.046430791226 929.425919444051  L 982.893596469799 928.659121585486  Z M 985.874859241139 936.110384747659  C 985.153571551136 934.238058005159  984.414214374772 932.372742440338  983.656891193395 930.514699125078  L 981.804825810397 931.269585750407  C 982.557287619582 933.115702004239  983.291898750263 934.969043825969  984.008556385351 936.82935181956  L 985.874859241139 936.110384747659  Z M 988.66321500855 943.635962634975  C 987.990391066394 941.745679242124  987.299323049532 939.861939295455  986.590107680703 937.985006445551  L 984.719213536864 938.691940036879  C 985.423876344835 940.556824570572  986.110508291442 942.428472505253  986.77901327482 944.306621882737  L 988.66321500855 943.635962634975  Z M 991.256813687035 951.230861996961  C 990.632899914052 949.32387616421  989.990579583035 947.422961704544  989.329942593935 945.528384672312  L 987.441461034865 946.186896176426  C 988.097857295081 948.069311631763  988.736054474626 949.958023833654  989.355963250611 951.85276843554  L 991.256813687035 951.230861996961  Z M 993.653184913138 958.890023729354  C 993.382648888254 957.985669808618  993.108446896502 957.082416606132  992.830585700594 956.180286399056  C 992.517102379192 955.165177201965  992.198428991181 954.151678059873  991.87457804187 953.139828744289  L 989.969762082497 953.749481236221  C 990.291458884314 954.754600070787  990.608013768291 955.761357375822  990.919414318046 956.769713662811  C 991.195609390427 957.666441283267  991.468168130502 958.564284872456  991.737083819604 959.463222298227  L 993.653184913138 958.890023729354  Z M 995.864063812239 966.602178303332  C 995.33351451254 964.667862843697  994.786308831311 962.738154542513  994.222507700605 960.813268275273  L 992.303145769738 961.37545132228  C 992.863717688798 963.289312664569  993.40778921002 965.207968422273  993.935299750332 967.131204950578  L 995.864063812239 966.602178303332  Z M 997.897179629243 974.363090218439  C 997.411209452421 972.417096425012  996.908481445175 970.475325909244  996.389051586903 968.537994889734  L 994.457280619648 969.055934007845  C 994.973735405938 970.982168824194  995.473584002259 972.912817709267  995.956770749839 974.847665682871  L 997.897179629243 974.363090218439  Z M 999.751459128347 982.168662665007  C 999.310324607054 980.212017783848  998.852339652522 978.259210070183  998.377555261947 976.310456971581  L 996.434394996455 976.783878752464  C 996.906460025184 978.721470227118  997.361821837855 980.663093093752  997.800429729356 982.608531150209  L 999.751459128347 982.168662665007  Z M 1001.42592347739 990.014775258081  C 1001.02985747655 988.048512157737  1000.61685733462 986.085698089113  1000.18696903967 984.126551614073  L 998.233445226248 984.55520614909  C 998.660871304977 986.503131471381  999.071505958808 988.454703380829  999.465303463056 990.409704567439  L 1001.42592347739 990.014775258081  Z M 1002.91968876456 997.897286212483  C 1002.56890035845 995.922442838704  1002.20110304254 993.950658540262  1001.81633777151 991.982152877829  L 999.853481631146 992.365813889956  C 1000.23604313133 994.323044794213  1000.60173386158 996.283535555854  1000.95051310179 998.247067871758  L 1002.91968876456 997.897286212483  Z M 1004.23196646498 1005.81203452916  C 1003.92664082685 1003.82965335706  1003.60424048884 1001.84993968906  1003.26480135061 999.873113968813  L 1001.29364903061 1000.21157893209  C 1001.63114400669 1002.17708224044  1001.95169777351 1004.14545695559  1002.25527463702 1006.11648389654  L 1004.23196646498 1005.81203452916  Z M 1005.25350261024 1012.93108272126  C 1005.02558353162 1011.21738151865  1004.78494108124 1009.50539654699  1004.53159516584 1007.79526942734  L 1002.55318719289 1008.08835967378  C 1002.84543748891 1010.06109784152  1003.12068507923 1012.03631744974  1003.37889931468 1014.01379855524  L 1005.25350261024 1012.93108272126  Z M 893.246864413221 807.094012417477  C 891.720988170274 805.792182725082  890.183923570387 804.503524274986  888.635841767675 803.22818056096  L 887.364158232325 804.77181943904  C 888.903373284848 806.039858529953  890.431634236355 807.321136095812  891.948770913059 808.615509464743  L 893.246864413221 807.094012417477  Z M 996.62960010828 1012.94224417357  L 1005 1019  L 1011.72414689944 1011.15488378195  L 996.62960010828 1012.94224417357  Z " fill-rule="nonzero" fill="#027db4" stroke="none" />
  </g>
</svg>