<?xml version="1.0" encoding="utf-8"?>
<svg version="1.1" xmlns:xlink="http://www.w3.org/1999/xlink" width="122px" height="14px" viewBox="1068 980  122 14" xmlns="http://www.w3.org/2000/svg">
  <g transform="matrix(0.754709580222768 -0.656059028990522 0.656059028990511 0.754709580222791 -370.597377685139 982.792288050404 )">
    <path d="M 1067.07839309028 850.999249602613  C 1067.14253587516 849.009854882915  1067.23534080204 847.021487672309  1067.35677897123 845.034767153797  L 1065.36050479209 844.912745017696  C 1065.23789446669 846.918641935379  1065.14419375989 848.926201439495  1065.07943185036 850.934798370525  L 1067.07839309028 850.999249602613  Z M 1066.97474793435 858.959661428079  C 1066.96242224796 856.969271083183  1066.97877701905 854.978806453969  1067.0238071547 852.988887376598  L 1065.0243190356 852.94364070187  C 1064.9788542561 854.952767051824  1064.96234162404 856.962444219438  1064.97478628151 858.972046385727  L 1066.97474793435 858.959661428079  Z M 1067.17697261436 866.918179124747  C 1067.08819665188 864.929731369311  1067.02807712426 862.940107645823  1066.99663275288 860.949927528567  L 1064.99688233862 860.981523108363  C 1065.02863022014 862.990913017831  1065.08933003877 864.99974116306  1065.17896289243 867.007381989453  L 1067.17697261436 866.918179124747  Z M 1067.6847686062 874.863054327042  C 1067.51967341873 872.879484508086  1067.38316834085 870.893638773291  1067.27529588062 868.906135520482  L 1065.2782352032 869.0145267134  C 1065.38714887952 871.02121392055  1065.52497154376 873.026227610857  1065.69166027757 875.028943417518  L 1067.6847686062 874.863054327042  Z M 1068.49738630131 882.782558808446  C 1068.2562156024 880.806795072172  1068.04352648309 878.827658831979  1067.85938517537 876.845766396357  L 1065.8679622962 877.030793195294  C 1066.05388098891 879.031815428039  1066.26862304491 881.030054861756  1066.51212159293 883.02488923918  L 1068.49738630131 882.782558808446  Z M 1069.61362611326 890.665001794702  C 1069.29673591915 888.699960763963  1069.00817673015 886.730455619744  1068.74803840436 884.757099671347  L 1066.76519306234 885.018488939703  C 1067.02784231823 887.010892288584  1067.31918676372 888.999407664218  1067.63913567333 890.983415837459  L 1069.61362611326 890.665001794702  Z M 1071.043914143 898.489225862832  C 1070.85016238556 897.558829059244  1070.66488564113 896.626687483055  1070.48810694675 895.692917035432  C 1070.29771479676 894.672817291672  1070.11498857119 893.651301667841  1069.93994373752 892.628456633534  L 1067.96860300937 892.965822508412  C 1068.1454826655 893.999389019047  1068.33013060662 895.031611068369  1068.5225311769 896.062401136819  C 1068.70171296493 897.008949562883  1068.88951680781 897.95384547639  1069.08591931242 898.896971179693  L 1071.043914143 898.489225862832  Z M 1072.8613619698 906.22702638058  C 1072.35797568358 904.304467869829  1071.89123976776 902.372499335994  1071.46140796849 900.432171115115  L 1069.50874609979 900.864735129478  C 1069.94406846314 902.829848618553  1070.416766347 904.786495636031  1070.92658276394 906.733612429138  L 1072.8613619698 906.22702638058  Z M 1075.06915297742 913.862622776555  C 1074.46884755352 911.96808790529  1073.90466772536 910.062295169356  1073.37692021554 908.146280674032  L 1071.44872662198 908.677382797701  C 1071.98321544671 910.617871983762  1072.55460196712 912.548008840232  1073.16257554262 914.46674402688  L 1075.06915297742 913.862622776555  Z M 1077.66159743706 921.376337249391  C 1076.96591993089 919.514708449704  1076.30575014604 917.640002956561  1075.68144699111 915.753239974321  L 1073.78269084715 916.381511496646  C 1074.4149686947 918.292375518101  1075.08357132353 920.1910280311  1075.78813524045 922.07643681223  L 1077.66159743706 921.376337249391  Z M 1080.63201432412 928.748806101317  C 1079.84275757585 926.924881002604  1079.08829916703 925.086094081779  1078.3690492673 923.23344501567  L 1076.50462388373 923.957266809398  C 1077.23306130207 925.833581152073  1077.99715697423 927.695856277886  1078.79649549112 929.543079740377  L 1080.63201432412 928.748806101317  Z M 1083.97274853607 935.961029640609  C 1083.0919465502 934.179508705541  1082.24514384263 932.381379120302  1081.432800787 930.567618457928  L 1079.60751100032 931.385125151877  C 1080.4302307233 933.222054340063  1081.28785027722 935.043152783625  1082.17990340772 936.84743042228  L 1083.97274853607 935.961029640609  Z M 1087.67519062043 942.994421145961  C 1086.70511332398 941.259895556843  1085.76814862465 939.507057291888  1084.86480591368 937.736859301005  L 1083.08335570352 938.645944087335  C 1083.99823748873 940.43875414534  1084.94717074116 942.213982728609  1085.92963956277 943.970664714495  L 1087.67519062043 942.994421145961  Z M 1091.74584238545 949.816920810646  C 1090.87745754052 948.444895005312  1090.0294759476 947.060061288526  1089.20217754824 945.662876831189  C 1089.01910415256 945.350114540212  1088.83711719939 945.036717572551  1088.65621997933 944.722691594896  L 1086.92320034574 945.721011658598  C 1087.10724550775 946.040502261688  1087.29240443009 946.359349980035  1087.47867373414 946.677548995576  C 1088.31686226227 948.093223016223  1089.17602903148 949.496370865722  1090.05588982868 950.886528381612  L 1091.74584238545 949.816920810646  Z M 1096.15939061941 956.430211421802  C 1095.01614823087 954.803888753917  1093.90254026379 953.156934667867  1092.81911773262 951.490164078371  L 1091.14224045195 952.580156090066  C 1092.23886187821 954.26723226629  1093.36603647726 955.934250522684  1094.52320652185 957.580386016755  L 1096.15939061941 956.430211421802  Z M 1100.88795453589 962.822058104021  C 1099.66731220958 961.252994405419  1098.47527065163 959.66188869239  1097.31241968553 958.049528245815  L 1095.69028247111 959.219430317613  C 1096.86729997656 960.851433494324  1098.07386369095 962.46192299973  1099.30937660519 964.050101961833  L 1100.88795453589 962.822058104021  Z M 1105.92044317878 968.977468633003  C 1104.62526395953 967.469344178896  1103.35758477178 965.93781881416  1102.11803286459 964.38365033924  L 1100.5544404768 965.630718438761  C 1101.80909333964 967.203820714745  1103.09221614624 968.754004028757  1104.40317400601 970.28050134839  L 1105.92044317878 968.977468633003  Z M 1111.24505272953 974.882005350917  C 1109.87837449017 973.438357482112  1108.53803104348 971.970004693847  1107.22468559289 970.477673528706  L 1105.72330547385 971.798982628865  C 1107.05265087676 973.309494256326  1108.40932318135 974.795735388123  1109.79265110465 976.256970630493  L 1111.24505272953 974.882005350917  Z M 1116.84929419323 980.521819030262  C 1115.41432250919 979.146033856241  1114.00445861014 977.744297699887  1112.62040009828 976.317304141807  L 1111.18475376981 977.709755081535  C 1112.58567370239 979.154133120504  1114.01271339867 980.572946057108  1115.46516675785 981.965491861146  L 1116.84929419323 980.521819030262  Z M 1122.72002269184 985.883681357547  C 1121.22012332242 984.578985814271  1119.74404583939 983.247154094423  1118.29252060754 981.888845189811  L 1116.92597541132 983.349171943208  C 1118.39518398344 984.724028571565  1119.8892439168 986.072085454416  1121.4074159489 987.39267557171  L 1122.72002269184 985.883681357547  Z M 1128.8352181609 990.980260957486  C 1127.28290934988 989.732759688015  1125.74669228134 988.465366104935  1124.22694729124 987.178393989018  L 1122.93445772633 988.704654361503  C 1124.46727546986 990.002696932826  1126.01670698364 991.280992557963  1127.58236866008 992.539224757033  L 1128.8352181609 990.980260957486  Z M 1135.12862363018 995.862867694614  C 1133.5344942261 994.669270817469  1131.95576573602 993.455242098398  1130.39282902087 992.221082106126  L 1129.15337799338 993.79071937328  C 1130.72975899453 995.0354955343  1132.32206761049 996.259967254136  1133.92990961818 997.463831378593  L 1135.12862363018 995.862867694614  Z M 1141.58558328752 1000.52703674535  C 1139.95150425686 999.388745137871  1138.33211723629 998.229506140195  1136.72782315296 997.049606756228  L 1135.54286535741 998.66077869701  C 1137.1609594803 999.850827503293  1138.79427636894 1001.0200382039  1140.44241164744 1002.16812132615  L 1141.58558328752 1000.52703674535  Z M 1148.1985188553 1004.96729395936  C 1146.52640805185 1003.88564358929  1144.86826311115 1002.78255486587  1143.22449455601 1001.65830089134  L 1142.0954207304 1003.30911653711  C 1143.75332888209 1004.44304127555  1145.42573708412 1005.55561870067  1147.1122312824 1006.64657336106  L 1148.1985188553 1004.96729395936  Z M 1154.9596689932 1009.17842798277  C 1153.25148890712 1008.15468834027  1151.55653214528 1007.10904454261  1149.87521834433 1006.04175546985  L 1148.80335363785 1007.73027732372  C 1150.49912999725 1008.80674715179  1152.20866667346 1009.86138551342  1153.93154042013 1010.8939313017  L 1154.9596689932 1009.17842798277  Z M 1161.86109840729 1013.15549637451  C 1160.11885386186 1012.19086898221  1158.38907458242 1011.20389734098  1156.67218882702 1010.19482580487  L 1155.65879124479 1011.91907211568  C 1157.39044554643 1012.93682362341  1159.13510428138 1013.9322851343  1160.89233550781 1014.90521019242  L 1161.86109840729 1013.15549637451  Z M 1168.89470716346 1016.89383140704  C 1167.12044296201 1015.98944840988  1165.35787133837 1015.06230729459  1163.60742866928 1014.11263760238  L 1162.65368759587 1015.87058469058  C 1164.41918746571 1016.82842338338  1166.19692062262 1017.76353970981  1167.98644693618 1018.67570215419  L 1168.89470716346 1016.89383140704  Z M 1067.48775508114 843.048694810033  C 1067.6282716497 841.06323246046  1067.79738973373 839.07989789657  1067.9950566694 837.099308734185  L 1066.0049433306 836.900691265815  C 1065.80536845669 838.900397645741  1065.63461799616 840.90287592661  1065.49274512117 842.907502531132  L 1067.48775508114 843.048694810033  Z M 1165.39056822915 1024.79721227237  L 1175 1021  L 1172.00407677531 1011.11139827722  L 1165.39056822915 1024.79721227237  Z " fill-rule="nonzero" fill="#009999" stroke="none" />
  </g>
</svg>