<?xml version="1.0" encoding="utf-8"?>
<svg version="1.1" xmlns:xlink="http://www.w3.org/1999/xlink" width="188px" height="12px" viewBox="1396 968  188 12" xmlns="http://www.w3.org/2000/svg">
  <g transform="matrix(0.866025403784444 -0.499999999999992 0.499999999999992 0.866025403784424 -287.377851638814 875.491256713959 )">
    <path d="M 1316.00971997594 815.50456539494  C 1314.96070591163 813.807389617728  1313.92393883498 812.102674518701  1312.89949954377 810.390552950436  L 1311.18326181903 811.417455123076  C 1312.21263576541 813.137823865788  1313.25439687931 814.850750462758  1314.30846397382 816.556101421546  L 1316.00971997594 815.50456539494  Z M 1320.27074171248 822.252495391983  C 1319.18930128031 820.575795443372  1318.11996066585 818.891322175517  1317.06280320531 817.19920686337  L 1315.36661983427 818.258905863945  C 1316.42886955119 819.959171981728  1317.50336110748 821.65175924403  1318.59001076546 823.336535743507  L 1320.27074171248 822.252495391983  Z M 1324.66067324999 828.917280953436  C 1323.54720599061 827.261676294037  1322.44568690859 825.598067189739  1321.35620184794 823.926583289561  L 1319.68069948938 825.018687609885  C 1320.7754325263 826.698222935595  1321.88225755163 828.369845533026  1323.00108830792 830.033425128723  L 1324.66067324999 828.917280953436  Z M 1329.17789271838 835.496459759234  C 1328.03281000477 833.862562055914  1326.89951941391 832.22043173933  1325.77810926586 830.570196784611  L 1324.12390693791 831.694302944278  C 1325.25071884322 833.352486969779  1326.38946841862 835.002527317641  1327.54006691865 836.6442953963  L 1329.17789271838 835.496459759234  Z M 1333.82073122071 841.987601116924  C 1332.64445610626 840.376014016875  1331.47981270334 838.755969176757  1330.32689177539 837.127592850523  L 1328.69460062683 838.283285545977  C 1329.85307509734 839.919505651449  1331.02332850919 841.547354138591  1332.20526966176 843.166704145303  L 1333.82073122071 841.987601116924  Z M 1338.58747344983 848.388306859684  C 1337.38044051202 846.799625767398  1336.18487457717 845.202264932966  1335.00086881857 843.596348842525  L 1333.39109190304 844.783201100492  C 1334.58080093775 846.396852780725  1335.78212583329 848.001907994851  1336.99497296757 849.598241657103  L 1338.58747344983 848.388306859684  Z M 1343.47635832206 854.696212232336  C 1342.23901350195 853.131024089626  1341.01296673969 851.556937409446  1339.79831358404 849.974074864121  L 1338.21164563726 851.191648199356  C 1339.43214969547 852.782135287097  1340.66410224251 854.363804236936  1341.90740726939 855.936531785654  L 1343.47635832206 854.696212232336  Z M 1348.48557962785 860.908986765008  C 1347.21838006528 859.367869834176  1345.96230544135 857.817638858102  1344.71745364499 856.258414650042  L 1343.15448086502 857.506259227329  C 1344.40532902876 859.072994113534  1345.66745407965 860.630692447924  1346.94075765729 862.179232835366  L 1348.48557962785 860.908986765008  Z M 1353.6132866991 867.024335134131  C 1352.31670056379 865.507858784282  1351.03106213781 863.982056248688  1349.75647161405 862.447046436775  L 1348.2177714447 863.724701237119  C 1349.49850158529 865.26710508805  1350.79033284508 866.800257311826  1352.0931645486 868.324038426253  L 1353.6132866991 867.024335134131  Z M 1358.85795037153 873.040705447881  C 1357.533293028 871.548083904068  1356.2183954012 870.046829338138  1354.91334157091 868.537037746278  L 1353.4002622972 869.844933426936  C 1354.71100912085 871.361311132948  1356.03164268227 872.869114572229  1357.36207853491 874.368247329859  L 1358.85795037153 873.040705447881  Z M 1364.20826806293 878.964742630065  C 1362.85782463815 877.495409887872  1361.51698914807 876.017275513319  1360.18584733105 874.530434024195  L 1358.69576813561 875.864474500089  C 1360.03271674875 877.357801988878  1361.37940132134 878.842384380351  1362.73573574101 880.318126744379  L 1364.20826806293 878.964742630065  Z M 1369.66091355815 884.794731741407  C 1368.28509342347 883.349133212118  1366.91872652896 881.894567108368  1365.5619002455 880.43112644084  L 1364.09527282867 881.790907312968  C 1365.45801795074 883.260731899518  1366.83034530259 884.721643209116  1368.21216713212 886.173547825255  L 1369.66091355815 884.794731741407  Z M 1375.21423395051 890.528905487872  C 1373.81345416998 889.107479388048  1372.42197006938 887.676922490019  1371.03987062576 886.237326269284  L 1369.59713957875 887.62243533574  C 1370.98526810926 889.068311459662  1372.38282223513 890.505108828951  1373.78971259117 891.932735569043  L 1375.21423395051 890.528905487872  Z M 1380.86654581491 896.16552562075  C 1379.44123101877 894.768702839326  1378.02505152449 893.362588803882  1376.61809788822 891.94727342694  L 1375.19970055832 893.357290807868  C 1376.61279170211 894.778780168481  1378.03514894956 896.191028048873  1379.46668134951 897.593944144327  L 1380.86654581491 896.16552562075  Z M 1386.61613571814 901.702883463584  C 1385.16671797414 900.331087431295  1383.72627238467 898.949842505706  1382.29489105754 897.559237009109  L 1380.90125741556 898.993735273983  C 1382.33888281031 900.390406963145  1383.78561200816 901.777677248001  1385.24135249945 903.155457420948  L 1386.61613571814 901.702883463584  Z M 1392.46126073824 907.139300430137  C 1390.98817942068 905.792946991137  1389.52390439052 904.436989883907  1388.06852927928 903.071515813681  L 1386.7000817892 904.530060110879  C 1388.16180563536 905.901490743675  1389.63246822427 907.263362897956  1391.11197551596 908.615589490226  L 1392.46126073824 907.139300430137  Z M 1398.40014899291 912.473128533234  C 1396.90385064943 911.152625819076  1395.41619005665 909.822367572945  1393.93726234152 908.482438856842  L 1392.59441583244 909.964587045464  C 1394.07979502524 911.310360888489  1395.57394519083 912.646422076357  1397.07677078731 913.972685176028  L 1398.40014899291 912.473128533234  Z M 1404.43100017659 917.702750884335  C 1402.91193839279 916.408499190195  1401.40134320458 915.104343057643  1399.89931120545 913.790365879608  L 1398.58247274581 915.295668663505  C 1400.09105700968 916.615377760921  1401.60824181752 917.92522297082  1403.13393015453 919.225120536513  L 1404.43100017659 917.702750884335  Z M 1410.55198610623 922.826582183671  C 1409.01062136818 921.55897384704  1407.47754950407 920.281315167974  1405.95286854463 918.993687845051  L 1404.66243731884 920.521688909025  C 1406.19376934382 921.814933206217  1407.73352887685 923.098165373676  1409.28161745954 924.371303356411  L 1410.55198610623 922.826582183671  Z M 1416.76089652111 927.845611612915  C 1415.64960892271 926.961303410449  1414.54173369513 926.072715438548  1413.43729552339 925.179867496226  C 1412.98954654482 924.817696792075  1412.54248034109 924.454682790986  1412.09609929291 924.090827426062  L 1410.83246648033 925.641063574195  C 1411.28086534754 926.006563709391  1411.72995257566 926.371218544256  1412.17972577269 926.735026136504  C 1413.28823059781 927.631162537882  1414.40018535781 928.523023009833  1415.51556527377 929.410587678041  L 1416.76089652111 927.845611612915  Z M 1423.0451966056 932.77263022156  C 1421.46524717482 931.552243043599  1419.89192117197 930.323304944922  1418.32528786816 929.085870033773  L 1417.08561721992 930.655333854285  C 1418.65791923514 931.897246304227  1420.23693816626 933.13063119679  1421.82260449156 934.355434227966  L 1423.0451966056 932.77263022156  Z M 1429.40002134637 937.608345518784  C 1427.80260590328 936.410911190691  1426.21168966195 935.204831145798  1424.62734266796 933.990158485942  L 1423.41047539674 935.577368000858  C 1425.00055519741 936.796435836497  1426.59722801559 938.006879965615  1428.2004235523 939.208647094252  L 1429.40002134637 937.608345518784  Z M 1435.82404432681 942.351748165473  C 1434.2094962934 941.177516622827  1432.60132187904 939.994546371883  1430.99959188917 938.802889496987  L 1429.80578198671 940.407513414542  C 1431.41330768196 941.603482184825  1433.0273011202 942.790732899436  1434.64769123985 943.969213285586  L 1435.82404432681 942.351748165473  Z M 1442.31592468682 947.001848090552  C 1440.68458106111 945.851064425911  1439.0594841414 944.691450885466  1437.4407054782 943.523058525207  L 1436.27020212357 945.144761918801  C 1437.8948381811 946.317381994032  1439.52581535719 947.48119148417  1441.16306184234 948.636139148417  L 1442.31592468682 947.001848090552  Z M 1448.8743074027 951.557674697645  C 1447.22650868839 950.430579109385  1445.58482846319 949.294564320842  1443.94933900772 948.149680348987  L 1442.8023865153 949.78812472709  C 1444.44379383151 950.937151351096  1446.09141431814 952.077276699498  1447.74517543306 953.20845057436  L 1448.8743074027 951.557674697645  Z M 1455.49782356999 956.018277067658  C 1453.83391370539 954.915104809842  1452.1759928359 953.80292588893  1450.52413395721 952.681789272437  L 1449.40097172572 954.336632649241  C 1451.05880769633 955.461825990372  1452.72272759245 956.578029223356  1454.39265815431 957.685193203512  L 1455.49782356999 956.018277067658  Z M 1462.18509068922 960.382724157266  C 1460.50541697543 959.303705490536  1458.83160151271 958.215594577822  1457.16371799655 957.118439326962  L 1456.06458045906 958.789336293764  C 1457.73849905071 959.890461494991  1459.41837105316 960.982509632041  1461.10412250415 962.065432623659  L 1462.18509068922 960.382724157266  Z M 1468.93471295439 964.650104993242  C 1467.23962598286 963.59546513676  1465.55026529558 962.531649349193  1463.86670527248 961.458704468703  L 1462.79182184747 963.145306265999  C 1464.48147367 964.222133493968  1466.1769471459 965.289798596305  1467.87816762602 966.348254565303  L 1468.93471295439 964.650104993242  Z M 1475.74528154442 968.819528862602  C 1474.03513512375 967.789487947054  1472.33058182522 966.750189330535  1470.63169669781 965.701678771834  L 1469.58129174132 967.403633362115  C 1471.28632412061 968.455937855088  1472.99704518067 969.498997073305  1474.71337960113 970.532765092502  L 1475.74528154442 968.819528862602  Z M 1482.61537491711 972.890125498519  C 1480.89052599914 971.884898520115  1479.1711358739 970.870334003256  1477.4572802435 969.846476617646  L 1476.43157300226 971.563428758877  C 1478.15163005385 972.590990873617  1479.87724162629 973.60922649425  1481.60833174359 974.618090789454  L 1482.61537491711 972.890125498519  Z M 1489.54279432435 976.866431724971  C 1488.14414576381 976.074472536011  1486.74820350579 975.277743345128  1485.35499192815 974.476258065901  C 1485.01713254673 974.281940199839  1484.67947879285 974.087265028734  1484.34203123335 973.892232879402  L 1483.34123579906 975.623824199171  C 1483.67987515745 975.819545163976  1484.01872142056 976.014907920657  1484.35777401975 976.209912141371  C 1485.75489993514 977.013648991051  1487.15476414491 977.812616489712  1488.55734220357 978.606800685177  L 1489.54279432435 976.866431724971  Z M 1496.51653502136 980.763288602702  C 1494.76760859024 979.798938910903  1493.02277860794 978.827178564115  1491.28209211997 977.848033763729  L 1490.30156305981 979.591181136212  C 1492.04717653911 980.573097393702  1493.79694524079 981.547608295964  1495.55082198629 982.514687567497  L 1496.51653502136 980.763288602702  Z M 1503.53388674312 984.581053347648  C 1501.77416943224 983.636538141136  1500.01846452566 982.684566440007  1498.26681936212 981.725163912093  L 1497.30606048495 983.479285452905  C 1499.06266365818 984.441403557655  1500.82333806553 985.39606980277  1502.58803623421 986.343258447741  L 1503.53388674312 984.581053347648  Z M 1510.59395250979 988.319237961182  C 1508.82366925172 987.394677970845  1507.05731384056 986.462616599373  1505.2949339022 985.523078977762  L 1504.35406801522 987.287950469604  C 1506.12143634792 988.230147440683  1507.89279140596 989.164847000202  1509.66808542862 990.092023946009  L 1510.59395250979 988.319237961182  Z M 1517.6958298817 991.977364616861  C 1515.91520695958 991.072878022847  1514.1384268249 990.160846120031  1512.36553738465 989.241293499359  L 1511.44468475228 991.016689350839  C 1513.22259233388 991.938844753685  1515.00440162249 992.853458151386  1516.79006457549 993.760504883374  L 1517.6958298817 991.977364616861  Z M 1524.83861107468 995.554965721498  C 1523.04787609329 994.670668138111  1521.26089834869 993.778782282721  1519.47772602282 992.879332203078  L 1518.57700435132 994.665025477548  C 1520.36522392412 995.567021439373  1522.15725968686 996.461431766514  1523.95306332118 997.348232343133  L 1524.83861107468 995.554965721498  Z M 1532.02138307609 999.051583974935  C 1530.22076493279 998.187588435857  1528.42381799535 997.315962631531  1526.63059071451 996.436730063439  L 1525.75011513694 998.232492508001  C 1527.54841812513 999.114213732862  1529.35045129839 999.988306663118  1531.15616606879 1000.85474773075  L 1532.02138307609 999.051583974935  Z M 1539.24322776158 1002.4667724285  C 1537.432956617 1001.62318937234  1535.6262701781 1000.77193503301  1533.82321715821 999.913032362725  L 1532.96310021971 1001.71863443741  C 1534.7712567586 1002.57996822095  1536.58305700081 1003.43363202501  1538.39845209521 1004.27960283245  L 1539.24322776158 1002.4667724285  Z M 1546.50322201237 1005.80009454211  C 1544.68352926103 1004.9770317983  1542.86733425697 1004.14625773396  1541.05468596992 1003.30779474911  L 1540.21503761332 1005.12300565621  C 1542.03281657864 1005.96384190004  1543.85415229993 1006.79696745997  1545.67899566881 1007.62235987257  L 1546.50322201237 1005.80009454211  Z M 1553.8004378333 1009.05112424013  C 1551.97155607401 1008.24868701512  1550.14608465652 1007.43849941791  1548.32407280067 1006.62058329345  L 1547.50500035246 1008.44517100704  C 1549.33216939007 1009.26540223285  1551.16280778151 1010.07788305589  1552.99686616773 1010.88259156943  L 1553.8004378333 1009.05112424013  Z M 1561.13394247143 1012.21944596578  C 1559.29610547756 1011.43773682958  1557.46159098415 1010.64823926023  1555.63044845472 1009.85097454475  L 1554.8320566113 1011.68470584032  C 1556.66838216672 1012.48422720359  1558.50808923044 1013.27595943593  1560.35112819889 1014.05988119004  L 1561.13394247143 1012.21944596578  Z M 1564.83398909624 1013.78082875628  C 1564.2132468727 1013.52095740753  1563.59287621035 1013.26019941746  1562.97287900829 1012.99855558431  L 1562.1952698226 1014.84119606859  C 1564.04051717095 1015.619905372  1565.88905774984 1016.39078781195  1567.74084171753 1017.1538226033  L 1564.83398909624 1013.78082875628  Z M 1311.87918228448 808.675984000268  C 1310.8629821486 806.958959419842  1309.85917164575 805.234632300549  1308.86782900527 803.50313702331  L 1307.13217099473 804.49686297669  C 1308.12828886602 806.236698750207  1309.13693465655 807.96933183727  1310.15802976013 809.6946272096  L 1311.87918228448 808.675984000268  Z M 1560.6320409356 1021.35905298979  L 1570 1017  L 1566.42431700347 1007.30595589507  L 1560.6320409356 1021.35905298979  Z " fill-rule="nonzero" fill="#027db4" stroke="none" />
  </g>
</svg>