<?xml version="1.0" encoding="utf-8"?>
<svg version="1.1" xmlns:xlink="http://www.w3.org/1999/xlink" width="40px" height="8px" viewBox="2196 998  40 8" xmlns="http://www.w3.org/2000/svg">
  <g transform="matrix(0.207911690817758 -0.978147600733819 0.978147600733819 0.20791169081777 775.163797212561 2961.24756902674 )">
    <path d="M 2215.88085154462 965.589106184538  C 2216.30932810608 963.658405970445  2216.80288943482 961.742727745397  2217.3606915289 959.845347365964  L 2215.44189183839 959.281248307549  C 2214.87138858232 961.221832066476  2214.36658885478 963.181130313241  2213.92835587563 965.155792599961  L 2215.88085154462 965.589106184538  Z M 2214.51689323354 973.377853076162  C 2214.76999964593 971.416442200183  2215.08927806382 969.464139165546  2215.47418251332 967.524282458169  L 2213.51242698444 967.135032866161  C 2213.11875825489 969.119060139661  2212.79220986267 971.11581714346  2212.5333402135 973.121889374301  L 2214.51689323354 973.377853076162  Z M 2213.85892819456 981.257703482332  C 2213.93461318607 979.281477973319  2214.0770211379 977.308372344516  2214.28590852897 975.341760654765  L 2212.29709598377 975.130515157716  C 2212.08345222369 977.141906624932  2211.93780164067 979.159939898285  2211.86039330078 981.181164091571  L 2213.85892819456 981.257703482332  Z M 2213.93993471673 989.156052058635  C 2213.86904226935 987.96679966368  2213.82235312139 986.776228007393  2213.79989625661 985.585076175246  C 2213.7912787746 984.801536233718  2213.79314679153 984.017916054247  2213.80549980569 983.234426102808  L 2211.8057483467 983.202896715553  C 2211.79307278473 984.006844262331  2211.79119113729 984.810925756079  2211.80010391306 985.614923822164  C 2211.82301474152 986.835817738322  2211.8708162838 988.05611761919  2211.94347873795 989.275062666487  L 2213.93993471673 989.156052058635  Z M 2214.76527534149 997.020133268113  C 2214.47052686933 995.064546701742  2214.24190996832 993.099563200606  2214.07981557896 991.128542934513  L 2212.08654468949 991.292467188983  C 2212.25232997052 993.30836761589  2212.48615248176 995.318093820608  2212.78761238103 997.31820912222  L 2214.76527534149 997.020133268113  Z M 2216.29451282732 1004.77812225548  C 2215.82508674602 1002.85696774982  2215.42067916243 1000.92050696956  2215.0819816234 998.972051309947  L 2213.11153006969 999.314572366936  C 2213.45793975673 1001.30739439094  2213.87155570702 1003.287948412  2214.35167062718 1005.25284763436  L 2216.29451282732 1004.77812225548  Z M 2218.51525364489 1012.36714529124  C 2217.87495436414 1010.49599262203  2217.29803357271 1008.60374838632  2216.78547781926 1006.69364836799  L 2214.8538148993 1007.21199030499  C 2215.37804155489 1009.16558332918  2215.96809884133 1011.10091399432  2216.62297774624 1013.01467283767  L 2218.51525364489 1012.36714529124  Z M 2217.93974908453 957.954585810848  C 2218.54012325605 956.070243396476  2219.20396748461 954.206715374861  2219.93014658036 952.367188424442  L 2218.06985341964 951.632811575558  C 2217.32713921506 953.51422458203  2216.64817924353 955.420185164459  2216.03413454319 957.347434083664  L 2217.93974908453 957.954585810848  Z M 2210.29004675221 1015.46774747142  L 2220 1019  L 2224.31707436766 1009.61262183013  L 2210.29004675221 1015.46774747142  Z " fill-rule="nonzero" fill="#797979" stroke="none" />
  </g>
</svg>