<?xml version="1.0" encoding="utf-8"?>
<svg version="1.1" xmlns:xlink="http://www.w3.org/1999/xlink" width="42px" height="8px" viewBox="2310 966  42 8" xmlns="http://www.w3.org/2000/svg">
  <g transform="matrix(0.13917310096008 -0.990268068741581 0.990268068741565 0.139173100960069 1046.02747498273 3143.31696030536 )">
    <path d="M 2331.55900205343 965.339785168076  C 2331.19066641706 963.351930585927  2330.75826478567 961.376482641165  2330.26247252402 959.416526770721  L 2328.32354587746 959.906999460316  C 2328.80878415182 961.825233523191  2329.23198119962 963.758629878809  2329.59247603264 965.704168770283  L 2331.55900205343 965.339785168076  Z M 2332.68847210625 973.344058234064  C 2332.4923723516 971.331899724648  2332.23137727375 969.3265949292  2331.90589451888 967.331275917846  L 2329.93198415801 967.653266425858  C 2330.25053832379 969.606110850372  2330.5059775692 971.56872849043  2330.69790292566 973.53805394866  L 2332.68847210625 973.344058234064  Z M 2333.12572809208 981.41579268943  C 2333.10331585279 979.394225309322  2333.01565935144 977.37390798497  2332.86289549805 975.357996234449  L 2330.86861334652 975.509121017627  C 2331.01812529807 977.482119821281  2331.10391584533 979.45943041681  2331.12585099269 981.437964458009  L 2333.12572809208 981.41579268943  Z M 2332.85123826151 989.501910242176  C 2332.90772062908 988.820845657193  2332.95677038745 988.139185076881  2332.9983787785 987.457050215905  C 2333.06972675458 986.118190268539  2333.11240734985 984.777956454279  2333.12639123647 983.437269711126  L 2331.12650002065 983.416410064267  C 2331.11284052144 984.725996590393  2331.07120470162 986.035141850054  2331.00162105959 987.342949774824  C 2330.96099874123 988.008004525714  2330.91314915518 988.672598111331  2330.85808078001 989.336612771173  L 2332.85123826151 989.501910242176  Z M 2331.837202911 997.52162483953  C 2332.17686131892 995.528669961286  2332.45210466389 993.525271135699  2332.66250304546 991.514557455978  L 2330.67336319235 991.306416530681  C 2330.46744358549 993.274327915477  2330.19805937748 995.235080158268  2329.86563131743 997.185610775251  L 2331.837202911 997.52162483953  Z M 2330.13755984365 1005.42449162056  C 2330.64727207369 1003.4681096478  2331.09370540171 1001.49578537503  2331.47616254694 999.510599360362  L 2329.51227646139 999.132245765145  C 2329.1379607257 1001.07517289525  2328.70103067563 1003.00551207283  2328.20216874886 1004.920248316  L 2330.13755984365 1005.42449162056  Z M 2327.7648907122 1013.15200940493  C 2328.4408836061 1011.24668250695  2329.05520218266 1009.32003296959  2329.60688694241 1007.37507001193  L 2327.68279234311 1006.82930451929  C 2327.14285136072 1008.73286482525  2326.54160985484 1010.61850155081  2325.88000689995 1012.48326953449  L 2327.7648907122 1013.15200940493  Z M 2326.32585983021 1016.94595356592  C 2326.58025405373 1016.31658801026  2326.82781984684 1015.68448385365  2327.06851359397 1015.04975245872  L 2325.19845364208 1014.34061511214  C 2324.49688434038 1016.19071743845  2323.73578208484 1018.01769323626  2322.9163356352 1019.81868896614  L 2326.32585983021 1016.94595356592  Z M 2329.74567886557 957.462225334507  C 2329.20783396177 955.513389825737  2328.60722664134 953.58242203731  2327.94479498824 951.672337932938  L 2326.05520501176 952.327662067062  C 2326.70353540555 954.197085989926  2327.2913575284 956.086949043441  2327.81775326546 957.994299465072  L 2329.74567886557 957.462225334507  Z M 2319.08238312165 1012.43902316735  L 2323 1022  L 2332.85018976066 1018.88010229671  L 2319.08238312165 1012.43902316735  Z " fill-rule="nonzero" fill="#797979" stroke="none" />
  </g>
</svg>