<?xml version="1.0" encoding="utf-8"?>
<svg version="1.1" xmlns:xlink="http://www.w3.org/1999/xlink" width="40px" height="8px" viewBox="2832 966  40 8" xmlns="http://www.w3.org/2000/svg">
  <g transform="matrix(-0.275637355817037 -0.961261695938353 0.961261695938319 -0.275637355817003 2705.69389373002 3978.88659195868 )">
    <path d="M 2854.72668321274 966.039932183943  C 2855.20120404127 964.074607307042  2855.61185323572 962.094408044303  2855.95798308421 960.102457739587  L 2853.98751011821 959.760059885813  C 2853.64878422513 961.709401004145  2853.24691909924 963.647242443366  2852.78254859745 965.570527670088  L 2854.72668321274 966.039932183943  Z M 2852.49142003038 973.808724352897  C 2853.13393195506 971.891734442874  2853.71409583018 969.954408512878  2854.23099657042 967.999802283169  L 2852.29746503317 967.48847480058  C 2851.79162115511 969.401270659345  2851.22386738411 971.297155855879  2850.59509923119 973.173140033894  L 2852.49142003038 973.808724352897  Z M 2849.59344353512 981.355396830996  C 2850.39914347595 979.50107229256  2851.14448503283 977.621102121365  2851.82829258774 975.718451571121  L 2849.94615654041 975.042016874079  C 2849.27697609919 976.903968421076  2848.54757791059 978.743724737925  2847.75911244537 980.558383999728  L 2849.59344353512 981.355396830996  Z M 2846.03560394354 988.622331221423  C 2846.39439912062 987.971975493205  2846.74543182089 987.31736739369  2847.08862728247 986.658646339317  C 2847.67200064216 985.517628719464  2848.23185400295 984.364738025311  2848.76783248288 983.20070505556  L 2846.95116178111 982.364219812813  C 2846.42771930411 983.501027210523  2845.88100785534 984.62697540457  2845.31137257273 985.741353585902  C 2844.97664753258 986.383685111377  2844.63430713391 987.022019410416  2844.28442377458 987.656221488607  L 2846.03560394354 988.622331221423  Z M 2841.82825941717 995.525141177906  C 2842.95416458358 993.845852803399  2844.02530455352 992.130486648373  2845.03998983114 990.381748338655  L 2843.31010653248 989.378003464191  C 2842.31712607049 991.089335059289  2841.26889852087 992.76800835304  2840.16707723997 994.411375594786  L 2841.82825941717 995.525141177906  Z M 2837.04037622643 1002.0387199032  C 2838.30712995799 1000.46296393477  2839.52243958901 998.84653441827  2840.68438822661 997.191980928031  L 2839.04767424052 996.042560496787  C 2837.91058048306 997.66172195045  2836.72126716052 999.24357492837  2835.48161016211 1000.78562439339  L 2837.04037622643 1002.0387199032  Z M 2831.70774605882 1008.11437532088  C 2833.10587877327 1006.65393127838  2834.45627305206 1005.14852197428  2835.75679893493 1003.60052187207  L 2834.22548947127 1002.31401834448  C 2832.95278273107 1003.82890566033  2831.63127431424 1005.30211322453  2830.2630486197 1006.73131736497  L 2831.70774605882 1008.11437532088  Z M 2829.09501375599 1010.73754967839  C 2829.49821717428 1010.34845536199  2829.89791474198 1009.95574436978  2830.2940580127 1009.55946430134  L 2828.87960033273 1008.14549489872  C 2827.48079469359 1009.5447835788  2826.03697008187 1010.89833280713  2824.55040382428 1012.20400764724  L 2829.09501375599 1010.73754967839  Z M 2856.2825234345 958.107095713728  C 2856.58550589962 956.108127601351  2856.8235706168 954.099857930343  2856.99634208947 952.085454319668  L 2855.00365791053 951.914545680332  C 2854.83458213843 953.885859812971  2854.60160978921 955.851171215138  2854.30510832731 957.807380025398  L 2856.2825234345 958.107095713728  Z M 2824.31512105273 1003.67233333603  L 2824 1014  L 2834.26698456936 1015.16147658287  L 2824.31512105273 1003.67233333603  Z " fill-rule="nonzero" fill="#797979" stroke="none" />
  </g>
</svg>