<?xml version="1.0" encoding="utf-8"?>
<svg version="1.1" xmlns:xlink="http://www.w3.org/1999/xlink" width="42px" height="8px" viewBox="2412 966  42 8" xmlns="http://www.w3.org/2000/svg">
  <g transform="matrix(0.104528463267627 -0.994521895368269 0.99452189536828 0.104528463267657 1213.99601036263 3288.27916206137 )">
    <path d="M 2435.14899056118 965.473563479768  C 2434.84343245121 963.474823509065  2434.47264718495 961.486601267713  2434.03722825042 959.51207915325  L 2432.0841521163 959.942768849324  C 2432.5101892063 961.874746512892  2432.87298527081 963.820129110714  2433.17195960949 965.77580281545  L 2435.14899056118 965.473563479768  Z M 2436.02153762666 973.510907520978  C 2435.89105942419 971.493160592416  2435.69468627037 969.480215739928  2435.43273248489 967.475294932685  L 2433.44958782889 967.734403545807  C 2433.70589737272 969.696124910405  2433.89803933159 971.665697428488  2434.02570615837 973.639968553718  L 2436.02153762666 973.510907520978  Z M 2436.19140335738 981.593690658722  C 2436.23699487606 979.572243493323  2436.21652353046 977.549846321982  2436.1300220875 975.529736243437  L 2434.13185313624 975.615298163746  C 2434.21649075788 977.591881520854  2434.23652101339 979.570702691445  2434.19191184184 981.548594325586  L 2436.19140335738 981.593690658722  Z M 2435.63739416214 989.666399505866  C 2435.73477673327 988.841005915036  2435.82106913343 988.014341613277  2435.89624801541 987.186630262232  C 2435.99505674692 985.997427518758  2436.07092397439 984.806429935698  2436.12380738724 983.61430172315  L 2434.12577234231 983.525667873982  C 2434.07414187131 984.689551552916  2434.00012133093 985.852334047486  2433.90375182103 987.01336972359  C 2433.83035612726 987.820690423443  2433.74615481948 988.626992276216  2433.65117053591 989.432058500913  L 2435.63739416214 989.666399505866  Z M 2434.34137063659 997.64640957099  C 2434.75211583436 995.666607658788  2435.09806143424 993.673913242524  2435.37865370715 991.671515878005  L 2433.39800508588 991.393971216626  C 2433.12345865266 993.353223510387  2432.78496704152 995.302981922469  2432.38307205047 997.240125621519  L 2434.34137063659 997.64640957099  Z M 2432.35588014641 1005.48337742416  C 2432.9373403963 1003.54682605463  2433.4553686795 1001.59179252742  2433.90913582717 999.621406117417  L 2431.96015047816 999.172567494602  C 2431.51616051859 1001.10049856453  2431.0092940394 1003.01340755573  2430.44036234358 1004.90823261891  L 2432.35588014641 1005.48337742416  Z M 2429.69598471382 1013.11785146669  C 2430.44374903161 1011.2392414076  2431.12993021175 1009.33669974374  2431.75342993573 1007.41327173021  L 2429.8508929515 1006.7965440564  C 2429.24082759384 1008.6785285287  2428.56943135903 1010.54007668339  2427.83777890045 1012.3782088806  L 2429.69598471382 1013.11785146669  Z M 2428.47214728088 1016.04581447102  C 2428.62624755577 1015.69415667758  2428.77816449179 1015.34154615549  2428.92788931688 1014.98800326536  L 2427.08623343053 1014.20806506506  C 2426.31472065865 1016.02982611894  2425.48388791096 1017.82589164717  2424.59506503883 1019.59338682299  L 2428.47214728088 1016.04581447102  Z M 2433.58038134313 957.542630196773  C 2433.10206130355 955.57805971731  2432.55967671893 953.629642832488  2431.95409574342 951.700498226412  L 2430.04590425658 952.299501773588  C 2430.6384369558 954.187079664682  2431.1691349383 956.093514580352  2431.63714875579 958.015755033892  L 2433.58038134313 957.542630196773  Z M 2421.3676195482 1011.32705772511  L 2425 1021  L 2434.93837308736 1018.17356401514  L 2421.3676195482 1011.32705772511  Z " fill-rule="nonzero" fill="#797979" stroke="none" />
  </g>
</svg>