<?xml version="1.0" encoding="utf-8"?>
<svg version="1.1" xmlns:xlink="http://www.w3.org/1999/xlink" width="44px" height="8px" viewBox="2502 1002  44 8" xmlns="http://www.w3.org/2000/svg">
  <g transform="matrix(-0.499999999999983 -0.866025403784411 0.866025403784447 -0.499999999999983 2914.7784437928 3694.84811915184 )">
    <path d="M 2538.77085686477 966.074264454472  C 2538.94922080795 964.061339721065  2539.06518643621 962.043372727711  2539.11858690697 960.023266772987  L 2537.11928532322 959.970416255168  C 2537.06697630623 961.949233205744  2536.95338090281 963.925954913265  2536.77866254543 965.897737419714  L 2538.77085686477 966.074264454472  Z M 2537.72594851536 974.086720895634  C 2538.06978341593 972.095375310427  2538.35184876473 970.093856399141  2538.57173874743 968.085043796112  L 2536.58361420906 967.867418384128  C 2536.36821856409 969.835172808157  2536.09191835713 971.795782616425  2535.75511110805 973.746427031516  L 2537.72594851536 974.086720895634  Z M 2536.0235241662 981.985647595862  C 2536.53048544044 980.029459991114  2536.97672712788 978.058037365273  2537.36160720964 976.07421605245  L 2535.39821658484 975.693299717234  C 2535.02120307822 977.636573648769  2534.58408213756 979.567702310428  2534.08748265949 981.483907340047  L 2536.0235241662 981.985647595862  Z M 2533.66882400876 989.723176851476  C 2533.72782610822 989.558449627972  2533.78638626332 989.393564442848  2533.84450384211 989.22852307549  C 2534.44502404682 987.480407040086  2534.99589183578 985.715626545087  2535.49644408742 983.93630599137  L 2533.57117558571 983.39469617209  C 2533.08154802505 985.135182563863  2532.54277258963 986.86146685927  2531.9554960109 988.571476873331  C 2531.89940442996 988.730724087438  2531.84289219163 988.889822821152  2531.78595988767 989.048771408496  L 2533.66882400876 989.723176851476  Z M 2530.63236431998 997.211247646987  C 2531.46842899923 995.371498878626  2532.24730211211 993.506292325113  2532.96786307475 991.618311504849  L 2531.09932591451 990.905171349778  C 2530.39349251825 992.754563675348  2529.6305388155 994.581647218079  2528.81156248645 996.383793308052  L 2530.63236431998 997.211247646987  Z M 2526.98844389725 1004.42326093268  C 2527.97344901092 1002.65876536606  2528.90355797972 1000.86418014395  2529.77743263305 999.042087180126  L 2527.97410477304 998.177212258925  C 2527.11809126907 999.962063411872  2526.20699282444 1001.71996905462  2525.24212025883 1003.44840004523  L 2526.98844389725 1004.42326093268  Z M 2522.76191035345 1011.31003854512  C 2523.88913922748 1009.63282813969  2524.96414171074 1007.92110138747  2525.98537117077 1006.17732099174  L 2524.25954936486 1005.16660881992  C 2523.25919284336 1006.87474803762  2522.20616236701 1008.55148875715  2521.10197295659 1010.19441861051  L 2522.76191035345 1011.31003854512  Z M 2518.58972220399 1017.05596844817  C 2519.63414564081 1015.72220345178  2520.6437573629 1014.3615414506  2521.61753646311 1012.97535832959  L 2519.98098895735 1011.82570087565  C 2518.84311077243 1013.44548048826  2517.65532879812 1015.02962271867  2516.41935192548 1016.57584842258  L 2518.58972220399 1017.05596844817  Z M 2539.15112406481 958.002914596068  C 2539.1628008006 955.982136693277  2539.11187594764 953.96148197943  2538.99842277276 951.943857620021  L 2537.00157722724 952.056142379979  C 2537.11271152939 954.032528456646  2537.16259552781 956.011882950249  2537.15115745316 957.991358114933  L 2539.15112406481 958.002914596068  Z M 2512.85311072732 1010.73137570089  L 2514 1021  L 2524.32810392894 1020.69955161341  L 2512.85311072732 1010.73137570089  Z " fill-rule="nonzero" fill="#797979" stroke="none" />
  </g>
</svg>