<?xml version="1.0" encoding="utf-8"?>
<svg version="1.1" xmlns:xlink="http://www.w3.org/1999/xlink" width="42px" height="8px" viewBox="2620 966  42 8" xmlns="http://www.w3.org/2000/svg">
  <g transform="matrix(-0.13917310096008 -0.990268068741583 0.990268068741566 -0.139173100960059 2047.99613295625 3720.29587747778 )">
    <path d="M 2643.79594639681 966.074336139418  C 2643.97530636162 964.060840721495  2644.09029500786 962.04212914109  2644.14073638511 960.021290339394  L 2642.14135912639 959.971384655436  C 2642.09198064714 961.949640450038  2641.9794150355 963.925813848059  2641.80383453426 965.896880998279  L 2643.79594639681 966.074336139418  Z M 2642.73663098548 974.087360012047  C 2643.08665341576 972.096426036932  2643.37298174576 970.094817953143  2643.59517784883 968.085598530893  L 2641.60729657038 967.86576217627  C 2641.38978257171 969.832643434374  2641.10948773696 971.792073739732  2640.7668409606 973.741054860665  L 2642.73663098548 974.087360012047  Z M 2640.99939016237 981.981199068331  C 2641.51753664379 980.027265083066  2641.97312816224 978.057276453164  2642.36546759219 976.074247566162  L 2640.40349870247 975.686074826564  C 2640.01942662799 977.627317434976  2639.57343530963 979.555794569891  2639.06620718315 981.468555362779  L 2640.99939016237 981.981199068331  Z M 2638.58206866808 989.701629979737  C 2638.7746226546 989.177650664945  2638.96255014175 988.651982758932  2639.14582918946 988.124687632157  C 2639.61639598254 986.736564777156  2640.05474504324 985.337727904403  2640.46052365548 983.929302583281  L 2638.53869564245 983.375608544711  C 2638.14217667228 984.75189438399  2637.71388721347 986.118827632934  2637.25417065874 987.475312315642  C 2637.07555200475 987.98906246556  2636.89242552869 988.501234252663  2636.70481241016 989.011768441385  L 2638.58206866808 989.701629979737  Z M 2635.47357169697 997.162725563131  C 2636.32974570972 995.331523811587  2637.12719943909 993.473437058189  2637.86471265743 991.591308463288  L 2636.00257248698 990.861627721053  C 2635.28060010771 992.704096202921  2634.49995028065 994.523029451683  2633.66181752088 996.315644217911  L 2635.47357169697 997.162725563131  Z M 2631.7415391305 1004.33228856563  C 2632.75041146511 1002.5805721481  2633.70306387842 1000.79707215847  2634.5980386648 998.984517627775  L 2632.80473367391 998.099047577659  C 2631.92861774834 999.873408056271  2630.9960395757 1001.61932622957  2630.00842614494 1003.33413057249  L 2631.7415391305 1004.33228856563  Z M 2627.41303621971 1011.15832425813  C 2628.56729038508 1009.49879688062  2629.66823270643 1007.80281785992  2630.7141785716 1006.07298230642  L 2629.00271407276 1005.03814450792  C 2627.97880832289 1006.7315290592  2626.90106499922 1008.39177050074  2625.77113321585 1010.01632840615  L 2627.41303621971 1011.15832425813  Z M 2624.56925127707 1015.03379439564  C 2625.13747336435 1014.29918209043  2625.69488254176 1013.55626924657  2626.24129870448 1012.80529590713  L 2624.62408649084 1011.6285951567  C 2623.4598164323 1013.22872310594  2622.24472391126 1014.79124749974  2620.98066820734 1016.31377743393  L 2624.56925127707 1015.03379439564  Z M 2644.16965408463 958.000239082283  C 2644.17705083904 955.978784387514  2644.11986588689 953.957609304828  2643.99818673001 951.939806544953  L 2642.00181326999 952.060193455047  C 2642.12092841019 954.03547718314  2642.17690836409 956.014062172651  2642.16966747369 957.992920882262  L 2644.16965408463 958.000239082283  Z M 2618.81145073352 1008.73611425233  L 2620 1019  L 2630.32679969208 1018.65764328583  L 2618.81145073352 1008.73611425233  Z " fill-rule="nonzero" fill="#797979" stroke="none" />
  </g>
</svg>