<?xml version="1.0" encoding="utf-8"?>
<svg version="1.1" xmlns:xlink="http://www.w3.org/1999/xlink" width="44px" height="8px" viewBox="2710 1002  44 8" xmlns="http://www.w3.org/2000/svg">
  <g transform="matrix(-0.573576436351047 -0.819152044288971 0.819152044288992 -0.573576436351031 3474.94386755633 3820.94127996661 )">
    <path d="M 2750.65056109261 966.09021642229  C 2750.9857452759 964.097759562679  2751.26018414706 962.095558718503  2751.47349622632 960.086397019939  L 2749.48467382271 959.875244357365  C 2749.27564795154 961.844034759823  2749.00672354591 963.806004176528  2748.67827442029 965.758425400423  L 2750.65056109261 966.09021642229  Z M 2748.98806739795 973.996282608055  C 2749.48373757459 972.037572866888  2749.91965278696 970.064224736927  2750.29520709746 968.078981242034  L 2748.33006076699 967.70722877083  C 2747.96205269545 969.652581572483  2747.53489658999 971.586278029951  2747.04918621275 973.505630236572  L 2748.98806739795 973.996282608055  Z M 2746.68986072931 981.74147556412  C 2747.34275131823 979.829417339837  2747.93727096921 977.89792276335  2748.47259327888 975.949676680609  L 2746.54406982561 975.419773585515  C 2746.01950406953 977.328872386304  2745.43693045996 979.22155627895  2744.79715879488 981.095194365717  L 2746.68986072931 981.74147556412  Z M 2743.77108216344 989.274768303812  C 2744.57689178188 987.421958644681  2745.32609904895 985.545042720783  2746.01766253999 983.646629511809  L 2744.13846748864 982.962066907679  C 2743.46079999935 984.822334156646  2742.72664700513 986.661536078444  2741.93702900469 988.477116117161  L 2743.77108216344 989.274768303812  Z M 2740.19244186571 996.526509980415  C 2741.15966453166 994.752612269545  2742.0726501869 992.949675191406  2742.93012974901 991.120204892463  L 2741.1191796797 990.271405831159  C 2740.27892997088 992.064115481511  2739.38428948629 993.830825059051  2738.43650180793 995.569078774813  L 2740.19244186571 996.526509980415  Z M 2736.04023338887 1003.45680092548  C 2737.14813469327 1001.76718929145  2738.20433276947 1000.04423527633  2739.20735946472 998.290333847293  L 2737.47121326092 997.297461066401  C 2736.48834098518 999.016120297659  2735.45336573305 1000.70445396005  2734.36772615685 1002.36011520988  L 2736.04023338887 1003.45680092548  Z M 2731.33964961467 1010.02751473756  C 2732.58093046691 1008.43332070294  2733.7733825054 1006.80170094016  2734.91534817953 1005.13492345853  L 2733.26544394352 1004.00451821615  C 2732.14642447348 1005.63780413396  2730.977933092 1007.23663877814  2729.76159404353 1008.79879971185  L 2731.33964961467 1010.02751473756  Z M 2726.12165899373 1016.1953621496  C 2727.48814157025 1014.70708860545  2728.80899144212 1013.17755255476  2730.08237258117 1011.60888010684  L 2728.52958023472 1010.34838975433  C 2727.28178590983 1011.88554192194  2725.98747666997 1013.38434408356  2724.64845165088 1014.84271285101  L 2726.12165899373 1016.1953621496  Z M 2751.66638894947 958.07536386072  C 2751.83887887437 956.062286614328  2751.95003334238 954.04442398306  2751.99969784483 952.024580867536  L 2750.00030215517 951.975419132464  C 2749.95163559148 953.954676323735  2749.84271461715 955.931992825818  2749.6736906362 957.90462009864  L 2751.66638894947 958.07536386072  Z M 2720.68519276042 1009.67232376563  L 2721 1020  L 2731.31868174181 1020.53367322519  L 2720.68519276042 1009.67232376563  Z " fill-rule="nonzero" fill="#797979" stroke="none" />
  </g>
</svg>