<?xml version="1.0" encoding="utf-8"?>
<svg version="1.1" xmlns:xlink="http://www.w3.org/1999/xlink" width="48px" height="8px" viewBox="2910 1002  48 8" xmlns="http://www.w3.org/2000/svg">
  <g transform="matrix(-0.681998360062489 -0.731353701619161 0.73135370161918 -0.681998360062499 4199.24136459445 3837.88211077349 )">
    <path d="M 2959.88916621065 965.931727091149  C 2960.4598891381 963.995271445444  2960.97624916153 962.043206717266  2961.43763860475 960.077830186067  L 2959.49057213875 959.620739191854  C 2959.03771980369 961.54975027894  2958.53091401136 963.465695871843  2957.97075119409 965.366321197787  L 2959.88916621065 965.931727091149  Z M 2957.31938061104 973.58461669106  C 2958.03303688666 971.696157041508  2958.69364684153 969.788074531684  2959.30043303953 967.862614680732  L 2957.39291137745 967.261481493582  C 2956.79735256984 969.151314480417  2956.14896590857 971.024091659804  2955.44851444486 972.877609061512  L 2957.31938061104 973.58461669106  Z M 2954.18559770779 981.024369507632  C 2955.0382065667 979.194439656133  2955.8393815798 977.340982622586  2956.58817988753 975.466179640397  L 2954.7308431589 974.724357372941  C 2953.99589989756 976.564470797179  2953.20954905922 978.38363323775  2952.37271605768 980.17970382071  L 2954.18559770779 981.024369507632  Z M 2950.50529769874 988.209486702203  C 2951.49210330048 986.448293972235  2952.42937442861 984.659800972773  2953.31600805944 982.846112484526  L 2951.51921646294 981.967739011148  C 2950.64898825125 983.747868745476  2949.72905948997 985.503269184206  2948.76051279354 987.231874491466  L 2950.50529769874 988.209486702203  Z M 2946.26489387557 995.087326010157  C 2947.12199969271 993.816002309971  2947.95195787751 992.526585435098  2948.75420493366 991.219950829199  C 2949.00636537332 990.802076693219  2949.25569267554 990.382499476557  2949.50216968462 989.961248049442  L 2947.775945699 988.951222925267  C 2947.53532428916 989.362466605427  2947.29193518209 989.772084624223  2947.04579494609 990.180049097631  C 2946.25964093992 991.460264451371  2945.44638223785 992.723636484798  2944.60656911825 993.969310357649  L 2946.26489387557 995.087326010157  Z M 2941.50530671937 1001.60782042078  C 2942.75561966069 1000.02279591736  2943.96128186555 998.403054263688  2945.12087445523 996.750501646184  L 2943.48371753707 995.601712185355  C 2942.34558093754 997.2236875527  2941.16222715087 998.813459058832  2939.93504880217 1000.36915578761  L 2941.50530671937 1001.60782042078  Z M 2936.2723445846 1007.75490302576  C 2937.63746685209 1006.26761478116  2938.96065398738 1004.742373757  2940.24034880307 1003.18097492698  L 2938.69349645508 1001.91320215022  C 2937.43747988606 1003.44571035242  2936.13877573764 1004.94272977815  2934.79891238454 1006.40249866618  L 2936.2723445846 1007.75490302576  Z M 2930.59519686192 1013.49428548306  C 2932.06751382238 1012.11302957062  2933.50084516852 1010.69079694937  2934.89350409016 1009.22926136798  L 2933.44558463341 1007.84957689436  C 2932.07869413801 1009.28406962178  2930.67188378168 1010.6799866134  2929.22680916349 1012.03568508995  L 2930.59519686192 1013.49428548306  Z M 2925.32785031243 1018.12392646712  C 2926.61358204696 1017.06577137034  2927.87469020536 1015.97804678277  2929.11016494261 1014.8616237108  L 2927.76925485187 1013.3777234013  C 2926.29911492643 1014.70619907328  2924.79204553096 1015.99322722504  2923.24982025399 1017.23729322269  L 2925.32785031243 1018.12392646712  Z M 2961.88062027796 958.108388420596  C 2962.30522637263 956.134738301638  2962.67445621552 954.149579945252  2962.98787528 952.155249577005  L 2961.01212472 951.844750422995  C 2960.70450486157 953.802179613073  2960.3421068939 955.750606501393  2959.92535730355 957.6877380897  L 2961.88062027796 958.108388420596  Z M 2921.04 1010.72  L 2920 1021  L 2930.16 1022.88  L 2921.04 1010.72  Z " fill-rule="nonzero" fill="#797979" stroke="none" />
  </g>
</svg>