<?xml version="1.0" encoding="utf-8"?>
<svg version="1.1" xmlns:xlink="http://www.w3.org/1999/xlink" width="594px" height="38px" viewBox="1116 1174  594 38" xmlns="http://www.w3.org/2000/svg">
  <g transform="matrix(0.992546151641322 -0.121869343405147 0.121869343405149 0.992546151641322 -134.857838951531 181.093823323376 )">
    <path d="M 1169.33065187458 1156.26201344615  C 1162.92294924727 1154.43673870083  1156.5264893667 1152.572224037  1150.14163235793 1150.66857442812  L 1149.5701891657 1152.58519976398  C 1155.96287436229 1154.49118335257  1162.36717665652 1156.35798401452  1168.78273548162 1158.18549664762  L 1169.33065187458 1156.26201344615  Z M 1194.37625150221 1163.18123388581  C 1187.94028828778 1161.45825438554  1181.51494136936 1159.69586086723  1175.10057249838 1157.89415255485  L 1174.55973034724 1159.81963684914  C 1180.9819635892 1161.62355415555  1187.41518833839 1163.38810846581  1193.85904239966 1165.11320043424  L 1194.37625150221 1163.18123388581  Z M 1219.52888505147 1169.70064319468  C 1213.0662942225 1168.08039610452  1206.61369054519 1166.42057089716  1200.17143730554 1164.72126102192  L 1199.66133342132 1166.65511572879  C 1206.11148521973 1168.35650905193  1212.5720001461 1170.0183692968  1219.04251446884 1171.64060289951  L 1219.52888505147 1169.70064319468  Z M 1244.78217063986 1175.81858722771  C 1238.29459192506 1174.30148364682  1231.81636868356 1172.74464789159  1225.34786564377 1171.14816761294  L 1224.8686294532 1173.08990206277  C 1231.34506323546 1174.68833971454  1237.83122913701 1176.24708423652  1244.32676198211 1177.76604787031  L 1244.78217063986 1175.81858722771  Z M 1270.12970084681 1181.53351370212  C 1263.61878031497 1180.11993855946  1257.11658120435 1178.66648726639  1250.62346959322 1177.17324165324  L 1250.17522269107 1179.12236317708  C 1256.67629521621 1180.61743959196  1263.1864663825 1182.07267289668  1269.70536966306 1183.48798116067  L 1270.12970084681 1181.53351370212  Z M 1295.56504433942 1186.84397259125  C 1289.03243398176 1185.53428454788  1282.50790878039 1184.18458649568  1275.99183607054 1182.79495442358  L 1275.57469218882 1184.75096847821  C 1282.09875396424 1186.1423043161  1288.63127859431 1187.49365717275  1295.17189829362 1188.80495096611  L 1295.56504433942 1186.84397259125  Z M 1321.08174750425 1191.74861649246  C 1314.52910481529 1190.54314785057  1307.98390896625 1189.29754549301  1301.44652845615 1188.01187954805  L 1301.06059343518 1189.97428984143  C 1307.60598913533 1191.26153208395  1314.15920975655 1192.50866161891  1320.71988634786 1193.71560823202  L 1321.08174750425 1191.74861649246  Z M 1346.67333608481 1196.24620096902  C 1340.10232364175 1195.14525758761  1333.53811783281 1194.00406696666  1326.98108822728 1192.82269335599  L 1326.6264599889 1194.79100197319  C 1333.19152887537 1195.97382401325  1339.76378276375 1197.11641379702  1346.34285163147 1198.21870699591  L 1346.67333608481 1196.24620096902  Z M 1372.33331682417 1200.33558486585  C 1365.74560186514 1199.33944608311  1359.1640516074 1198.30295674875  1352.58903659673 1197.22617521783  L 1352.26580511942 1199.19988274734  C 1358.84888146213 1200.27798447198  1365.43850106456 1201.3157445996  1372.03429292647 1202.31310470357  L 1372.33331682417 1200.33558486585  Z M 1398.05517911255 1204.01573059904  C 1391.45243311354 1203.1246491615  1384.85520831882 1202.19312409825  1378.26387615669 1201.22120785477  L 1377.97212345275 1203.19981351526  C 1384.57153695265 1204.17292138181  1391.17685030991 1205.10558854632  1397.78769164069 1205.99776249898  L 1398.05517911255 1204.01573059904  Z M 1423.83191251626 1207.27971042349  C 1421.81953177494 1207.04313705955  1419.80764744638 1206.8023599604  1417.79627270068 1206.55738070221  C 1413.19474595877 1205.99345456183  1408.59564411224 1205.40991489966  1403.9990925273 1204.80677762231  L 1403.73889262204 1206.78977938966  C 1408.34132569628 1207.39368840759  1412.94631243072 1207.97797368592  1417.55372728504 1208.54261929595  C 1419.56811306032 1208.78796633219  1421.58300924591 1209.0291044044  1423.59840264814 1209.2660319336  L 1423.83191251626 1207.27971042349  Z M 1449.66207073545 1210.08268421243  C 1443.0326856525 1209.42312896061  1436.40790903629 1208.71804636093  1429.78820969889 1207.96748630959  L 1429.56288780294 1209.95475328793  C 1436.19168707479 1210.70634511533  1442.8255706051 1211.41239697436  1449.46406893725 1212.07285890022  L 1449.66207073545 1210.08268421243  Z M 1475.53816435312 1212.42394771306  C 1468.89805834312 1211.88288220554  1462.26174705795 1211.29621431394  1455.62970012631 1210.66398555473  L 1455.4399018784 1212.65495934287  C 1462.08106571847 1213.28805721109  1468.72649977404 1213.8755315803  1475.37573377109 1214.41734087699  L 1475.53816435312 1212.42394771306  Z M 1501.45194103012 1214.30275425548  C 1494.80323173898 1213.8803510475  1488.15750222091 1213.41228496267  1481.51522277076 1212.89858912439  L 1481.36100870086 1214.89263476595  C 1488.01241912578 1215.40703676901  1494.66728436137 1215.87574629253  1501.32513346622 1216.2987301676  L 1501.45194103012 1214.30275425548  Z M 1527.39513640954 1215.71850465541  C 1520.73994422714 1215.41489845875  1514.08691591538 1215.06558345514  1507.43652228601 1214.67058436438  L 1507.31794157569 1216.66706592331  C 1513.97747733425 1217.0626080094  1520.63965139688 1217.41240320757  1527.30399230491 1217.71642676405  L 1527.39513640954 1215.71850465541  Z M 1553.35947675231 1216.67074740525  C 1546.69992413585 1216.48603504525  1540.0417187977 1216.25558252553  1533.38533191596 1215.97940615442  L 1533.30242238268 1217.9776869178  C 1539.96795963238 1218.25424294163  1546.63531783813 1218.48501225864  1553.3040251744 1218.66997853809  L 1553.35947675231 1216.67074740525  Z M 1579.33668157586 1217.15917881814  C 1572.67489237316 1217.09341920279  1566.01363342696 1216.98190266231  1559.35337613107 1216.82463708833  L 1559.30616421614 1218.82407976945  C 1565.97557720049 1218.98156153247  1572.64599321213 1219.09323137194  1579.31694020916 1219.15908138538  L 1579.33668157586 1217.15917881814  Z M 1605.31846629492 1217.18364312474  C 1598.65656506722 1217.23685722594  1591.9943769049 1217.24431222927  1585.33237326755 1217.20600760716  L 1585.32087402767 1219.20597454876  C 1591.99203575413 1219.24433182727  1598.66338225926 1219.23686657574  1605.33444143528 1219.18357932245  L 1605.31846629492 1217.18364312474  Z M 1631.2965448636 1216.74413252296  C 1624.63665620786 1216.9163033698  1617.97566351772 1217.04272753941  1611.31403816852 1217.12339608519  L 1611.33825527099 1219.1232494628  C 1618.00903818934 1219.042470024  1624.67918757879 1218.91587206226  1631.34823141628 1218.74346453648  L 1631.2965448636 1216.74413252296  Z M 1657.26263241798 1215.84078718043  C 1650.60688028919 1216.13185986461  1643.94920737849 1216.37721288162  1637.2900848263 1216.57682886868  L 1637.35001054788 1218.57593089406  C 1644.01828722869 1218.37604049992  1650.68511227507 1218.13035020228  1657.35001389924 1217.83887738778  L 1657.26263241798 1215.84078718043  Z M 1683.20844791828 1214.47389518978  C 1676.55895495222 1214.88377688313  1669.90672506951 1215.24798050017  1663.252229025 1215.56648026747  L 1663.34784425432 1217.564193392  C 1670.01148806744 1217.24525579107  1676.67286260357 1216.88055151246  1683.33149646063 1216.47010636504  L 1683.20844791828 1214.47389518978  Z M 1709.1244684675 1212.64069145157  C 1708.02389126015 1212.72938473264  1706.92321344257 1212.81682510931  1705.8224371545 1212.90301241159  C 1700.28133949453 1213.33132599856  1694.73783310232 1213.72788587105  1689.19219098242 1214.09267249942  L 1689.32346522611 1216.08835961742  C 1694.87706116295 1215.72304979516  1700.42851817907 1215.3259192654  1705.9775628457 1214.89698758823  C 1707.08018246516 1214.81065671524  1708.1827034209 1214.72307029363  1709.28512356742 1214.63422849383  L 1709.1244684675 1212.64069145157  Z M 1735.0026370707 1210.32247544906  C 1728.37266718359 1210.9761259706  1721.7382857794 1211.5842296384  1715.09996234989 1212.14674341909  L 1715.26883181121 1214.13960144339  C 1721.91628077724 1213.57631438913  1728.559782299 1212.96737477649  1735.19886623922 1212.31282569799  L 1735.0026370707 1210.32247544906  Z M 1760.83528151637 1207.54250842897  C 1754.21804143255 1208.31444973582  1747.59557717989 1209.04093023064  1740.96835740684 1209.72189850298  L 1741.17278750131 1211.71142315387  C 1747.80911754696 1211.02951877154  1754.44068553498 1210.30203960222  1761.06702217258 1209.52903712705  L 1760.83528151637 1207.54250842897  Z M 1786.6141633221 1204.30167697144  C 1780.01176339529 1205.19166287798  1773.4033283138 1206.03628851251  1766.78932573365 1206.8354941038  L 1767.02925126494 1208.82105088703  C 1773.65234594841 1208.02074664788  1780.26986547958 1207.17495992771  1786.88134155983 1206.28375057988  L 1786.6141633221 1204.30167697144  Z M 1812.33106115128 1200.60101463433  C 1805.74560700232 1201.6087613085  1799.15330863773 1202.57126271683  1792.5546325716 1203.48845074641  L 1792.82997702324 1205.46940643318  C 1799.43772412373 1204.55095756823  1806.03908475525 1203.58713303341  1812.63359176273 1202.57800103518  L 1812.33106115128 1200.60101463433  Z M 1837.97777343509 1196.44170162364  C 1831.41136528051 1197.5668876774  1824.83730603227 1198.64695790095  1818.25606091338 1199.68183586152  L 1818.56673647323 1201.65755869039  C 1825.15702866452 1200.62125810907  1831.74012510696 1199.5397031401  1838.31555993795 1198.41297032133  L 1837.97777343509 1196.44170162364  Z M 1863.54612098813 1191.82506441708  C 1857.00085297046 1193.06733100889  1850.44712942101 1194.26462559439  1843.88541412368 1195.41686344525  L 1844.23132171185 1197.38672332363  C 1850.80205723442 1196.23290152032  1857.36479002311 1195.03396104402  1863.91905565636 1193.78998673952  L 1863.54612098813 1191.82506441708  Z M 1889.02794961684 1186.75257534106  C 1882.50590913669 1188.11152629035  1875.97461138304 1189.42566339962  1869.43451855318 1190.69489367195  L 1869.81554785369 1192.65826237704  C 1876.36463118499 1191.38728732572  1882.90490734958 1190.07134370518  1889.43591351506 1188.71052464013  L 1889.02794961684 1186.75257534106  Z M 1914.41513272011 1181.22585210112  C 1907.91839977026 1182.70105401466  1901.4116107577 1184.13161454635  1894.89522614532 1185.51743246041  L 1895.31125564127 1187.47368383958  C 1901.836598164 1186.08596087642  1908.35233189594 1184.65343378911  1914.85799574149 1183.17620395253  L 1914.41513272011 1181.22585210112  Z M 1939.69957388091 1175.24665726604  C 1933.23022038321 1176.83763967611  1926.75001524064 1178.38416739944  1920.25941703484 1179.88613099363  L 1920.71031404713 1181.83464116408  C 1927.20983471535 1180.33061285824  1933.69894803312 1178.7819591621  1940.17719478868 1177.18878966844  L 1939.69957388091 1175.24665726604  Z M 1964.87320944842 1168.81689770569  C 1958.43329859293 1170.52315322016  1951.98174397119 1172.18515492037  1945.51900213734 1173.80278519222  L 1946.00462286701 1175.74293273994  C 1952.47624886983 1174.12307875236  1958.93667228162 1172.45879234017  1965.38543592091 1170.75019127907  L 1964.87320944842 1168.81689770569  Z M 1989.92722687994 1161.93843574526  C 1989.75204947231 1161.98834641235  1989.57686370435 1162.03822773856  1989.40166958712 1162.08807972073  C 1983.1680293515 1163.85686784456  1976.92264203312 1165.58399152558  1970.66592572902 1167.26933514162  L 1971.18611530314 1169.20050131961  C 1977.45167201326 1167.51277640303  1983.70588329421 1165.78321079012  1989.94833042609 1164.01192027542  C 1990.12397786573 1163.96193938555  1990.29961692142 1163.9119290362  1990.47524758548 1163.86188922957  L 1989.92722687994 1161.93843574526  Z M 2014.85904099721 1154.61980766191  C 2008.48132927844 1156.54726040795  2002.09186878996 1158.43562176148  1995.69101926275 1160.28478540646  L 1996.24610669654 1162.20621142399  C 2002.65480401933 1160.3547806021  2009.05209833971 1158.46410401312  2015.43762948582 1156.5342881034  L 2014.85904099721 1154.61980766191  Z M 2039.67111902583 1146.90498711301  C 2033.32491741144 1148.93378131782  2026.96634585916 1150.92367622708  2020.5957623609 1152.87455980833  L 2021.1813843872 1154.78690047942  C 2027.55977857316 1152.833625007  2033.92614608591 1150.84129037651  2040.28012849446 1148.8100087578  L 2039.67111902583 1146.90498711301  Z M 2064.35716549116 1138.79593155078  C 2058.04408417888 1140.92555245608  2051.71801489908 1143.01647603256  2045.37931381381 1145.06858455977  L 2045.99532184497 1146.97135467346  C 2052.34179452839 1144.91673014768  2058.67561991895 1142.82324298327  2064.99644141814 1140.69101104494  L 2064.35716549116 1138.79593155078  Z M 2088.91091689608 1130.29469845518  C 2082.63255768011 1132.52460572033  2076.34059576242 1134.7160274419  2070.03538538478 1136.86884024136  L 2070.6816231234 1138.76155701498  C 2076.99456403774 1136.60610474796  2083.29424024869 1134.41199622217  2089.58029708034 1132.17935496737  L 2088.91091689608 1130.29469845518  Z M 2113.32614331017 1121.40344481192  C 2107.08409917485 1123.73307265099  2100.82784105494 1126.02443649652  2094.55772118208 1128.27740734316  L 2095.23402466072 1130.15959054487  C 2101.51183204732 1127.90385743136  2107.77576068576 1125.609684247  2114.02545791241 1123.27720015537  L 2113.32614331017 1121.40344481192  Z M 2137.59664995045 1112.12442656514  C 2131.392504666 1114.55318389045  2125.17353772058 1116.94390848087  2118.94009924629 1119.29646573694  L 2119.64629686901 1121.1676378075  C 2125.88737788362 1118.81219618612  2132.11396962654 1116.41854043511  2138.32572153623 1113.98680531899  L 2137.59664995045 1112.12442656514  Z M 2161.71627875313 1102.45999804499  C 2155.55160647385 1104.98726861717  2149.37150861786 1107.47674736296  2143.17633312889 1109.92829412301  L 2143.91224571486 1111.78798029703  C 2150.11501683166 1109.33342780504  2156.30269182938 1106.84089682064  2162.47492233787 1104.31052767495  L 2161.71627875313 1102.45999804499  Z M 2185.67890993609 1092.41261137037  C 2179.55527480095 1095.0377539546  2173.41561408722 1097.62535520976  2167.260273462 1100.17526945211  L 2168.02571429089 1102.02299787844  C 2174.18860170414 1099.4699573002  2180.33578998155 1096.87918350277  2186.46693303203 1094.25082234854  L 2185.67890993609 1092.41261137037  Z M 2209.47846355162 1081.98481582665  C 2203.39741928739 1084.70716435545  2197.29975350879 1087.3922315777  2191.18580951859 1090.03986632225  L 2191.98058437801 1091.87516818376  C 2198.10202440173 1089.22428729255  2204.20716625577 1086.53592802941  2210.29566621664 1083.81024175072  L 2209.47846355162 1081.98481582665  Z M 2233.10890102906 1071.17925721893  C 2227.07199055608 1073.99812096112  2221.01786685027 1076.7799728785  2214.94687076297 1079.52465635093  L 2215.77077799769 1081.34706598342  C 2221.84921746201 1078.59901737723  2227.91076385827 1075.81375475556  2233.95507591743 1072.9914349305  L 2233.10890102906 1071.17925721893  Z M 2256.56422670696 1059.9986772007  C 2250.57298174766 1062.91334093664  2244.56393620455 1065.79127172041  2238.53742839099 1068.63230752256  L 2239.39025895415 1070.44136253293  C 2245.42415559964 1067.59684346374  2251.44056856489 1064.71538417767  2257.43915912191 1061.79714690278  L 2256.56422670696 1059.9986772007  Z M 1144.39844089378 1148.94473746332  C 1138.02062465573 1147.01763059301  1131.65467476256 1145.05146785991  1125.3009496216 1143.04635996033  L 1124.6990503784 1144.95364003967  C 1131.06056553779 1146.96120631242  1137.43432043769 1148.9297796698  1143.81995623116 1150.85924927972  L 1144.39844089378 1148.94473746332  Z M 2263.17655789724 1056.76339174882  C 2262.76828822363 1056.96429318796  2262.35993450959 1057.16502379269  2261.95149685977 1057.36558351158  L 2262.8330343659 1059.16082489515  C 2263.24417384784 1058.95893846534  2263.65522838498 1058.75687909293  2264.06619786867 1058.55464683132  L 2263.17655789724 1056.76339174882  Z M 2266.08326766103 1064.9122486078  L 2269 1055  L 2259.36050321674 1051.2797712751  L 2266.08326766103 1064.9122486078  Z " fill-rule="nonzero" fill="#000000" stroke="none" />
  </g>
</svg>