<?xml version="1.0" encoding="utf-8"?>
<svg version="1.1" xmlns:xlink="http://www.w3.org/1999/xlink" width="860px" height="46px" viewBox="1344 1184  860 46" xmlns="http://www.w3.org/2000/svg">
  <g transform="matrix(0.951056516295155 0.309016994374948 -0.309016994374944 0.951056516295153 459.809252302952 -489.121363189407 )">
    <path d="M 555.753114807573 1261.64179705843  C 549.289657610367 1260.01928042417  542.832748818025 1258.37078813709  536.382544937558 1256.69636015447  L 535.880015209458 1258.63219689149  C 542.335406954546 1260.30797160761  548.797509004405 1261.9577897683  555.266164725805 1263.58161138405  L 555.753114807573 1261.64179705843  Z M 580.993172642719 1267.83775996844  C 574.513110833918 1266.28288437127  568.039325589411 1264.70196609976  561.571973825271 1263.09504347329  L 561.089703820866 1265.03602663727  C 567.562257241579 1266.64424170305  574.041249317244 1268.22643149874  580.526523005238 1269.78255767408  L 580.993172642719 1267.83775996844  Z M 606.296608641366 1273.76958958216  C 599.800650073948 1272.28252486973  593.31069554463 1270.76935330623  586.826902361406 1269.23011156896  L 586.364944761714 1271.17602913558  C 592.853952825256 1272.71650887678  599.349127190603 1274.23089747615  605.850310422892 1275.71915822681  L 606.296608641366 1273.76958958216  Z M 631.660658769306 1279.43663793303  C 625.14951303274 1278.01754654564  618.644098152224 1276.57228698226  612.144571810493 1275.10089427407  L 611.702977077696 1277.05153368  C 618.207730953841 1278.5241098215  624.718378105064 1279.9705317995  631.234760721461 1281.39076455453  L 631.660658769306 1279.43663793303  Z M 657.082552371113 1284.83828597804  C 650.556930713846 1283.48732293089  644.036766104566 1282.11013324131  637.522216583523 1280.70675029056  L 637.101032955455 1282.66189845668  C 643.620822093976 1284.06641014085  650.146230837091 1285.4447074968  656.677101017095 1286.79675711634  L 657.082552371113 1284.83828597804  Z M 682.559512472801 1289.97394366531  C 676.020127724564 1288.69125653156  669.485925620148 1287.38228715382  662.957064540054 1286.0470672598  L 662.556338024933 1288.00651061445  C 669.090450233093 1289.34280441869  675.62990776187 1290.65282659361  682.174552102304 1291.93654538577  L 682.559512472801 1289.97394366531  Z M 708.088756085164 1294.84304999855  C 701.536322579107 1293.62877889321  694.988796746577 1292.38817281328  688.446337291024 1291.12126182943  L 688.066111662421 1293.08478633178  C 694.613833183263 1294.35271628539  701.166625156115 1295.59432017821  707.724328749537 1296.80956791533  L 708.088756085164 1294.84304999855  Z M 733.667405170565 1299.44396421068  C 731.596318520347 1299.08310248347  729.525729799052 1298.71938880342  727.455644898756 1298.35282420552  C 722.963965218166 1297.55716437438  718.474483422944 1296.74914648591  713.987250502247 1295.92877971712  L 713.627567294311 1297.89617088055  C 718.118429536033 1298.71720117058  722.611542480636 1299.5258725365  727.106855098612 1300.32217579402  C 729.178768299568 1300.68906419969  731.25118577055 1301.05309914148  733.324101616072 1301.41427958378  L 733.667405170565 1299.44396421068  Z M 759.295088896992 1303.75958014903  C 752.717668631244 1302.6903114889  746.144947196595 1301.59233661392  739.577112450292 1300.46568690569  L 739.238970471302 1302.43689465782  C 745.812541605834 1303.564528389  752.391003696603 1304.66346224212  758.974168722632 1305.73366480823  L 759.295088896992 1303.75958014903  Z M 784.970100404593 1307.78406746963  C 778.380968526167 1306.78951535427  771.796209387408 1305.76620554546  765.216011188881 1304.71416729066  L 764.900262385286 1306.68908569228  C 771.486207770236 1307.74204280389  778.076718079166 1308.76624637795  784.671604946747 1309.76166714137  L 784.970100404593 1307.78406746963  Z M 810.689132602817 1311.51690779515  C 804.0891378304 1310.59720032869  797.493189142248 1309.64868739422  790.901475059476 1308.67139610152  L 790.608160101555 1310.64977077166  C 797.205631428796 1311.62791563671  803.807341060142 1312.57725700836  810.413100309433 1313.4977677531  L 810.689132602817 1311.51690779515  Z M 836.448872730993 1314.95762031409  C 829.838865182109 1314.11287596016  823.232576541297 1313.23928207404  816.630195625201 1312.33686362422  L 816.359352293623 1314.31843973675  C 822.96749977079 1315.22164636452  829.57955838553 1316.09600325302  836.195339156634 1316.94148541199  L 836.448872730993 1314.95762031409  Z M 862.246002785032 1318.10576184269  C 855.626833867031 1317.33608940927  849.011056201891 1316.53752709547  842.398858877467 1315.71009772526  L 842.150522058426 1317.69462004167  C 848.768494517634 1318.5227720939  855.390050444475 1319.32203187703  862.015000586294 1320.0923765472  L 862.246002785032 1318.10576184269  Z M 888.077199944807 1320.96092688205  C 881.449722245075 1320.26642550742  874.825307706182 1319.54299762539  868.204145662836 1318.79066391251  L 867.978347343556 1320.7778768148  C 874.605292351528 1321.53086762068  881.235492695622 1322.25492734916  887.868758876114 1322.95003530566  L 888.077199944807 1320.96092688205  Z M 913.939137002148 1323.52274767033  C 907.304204178292 1322.9035068103  900.6720060287 1322.25530654176  894.042732110544 1321.57816539115  L 893.83950137516 1323.56781291476  C 900.474565342904 1324.24554548472  907.112556095952 1324.89431189543  913.753283911919 1325.51409360432  L 913.939137002148 1323.52274767033  Z M 939.828482789408 1325.79089423014  C 933.186949459299 1325.24699364653  926.547821964635 1324.67410448344  919.91129006064 1324.07224311481  L 919.73065308645 1326.06406898159  C 926.372981379204 1326.66645601973  933.017907529456 1327.23984554781  939.665241616602 1327.78422117761  L 939.828482789408 1325.79089423014  Z M 965.741011826465 1327.77770235581  C 959.094003140915 1327.30863032054  952.449240586215 1326.80825434469  945.806945259252 1326.27659107772  L 945.64737141695 1328.27021496121  C 952.295926549073 1328.80237927614  958.94695123434 1329.30322681431  965.600224166995 1329.77274091056  L 965.741011826465 1327.77770235581  Z M 991.674850700366 1329.44831259361  C 985.022596444268 1329.0606705522  978.372204823483 1328.64169941267  971.723897122203 1328.1914131158  L 971.588747829428 1330.18684155818  C 978.243321002027 1330.63755221204  984.899980058299 1331.05691819668  991.558503505012 1331.44492555814  L 991.674850700366 1329.44831259361  Z M 1017.62720231193 1330.80122912228  C 1010.97070001597 1330.49507520312  1004.3156765801 1330.15757172619  997.662353443389 1329.78872992157  L 997.551648966287 1331.78566370083  C 1004.21124230107 1332.15485310786  1010.87253753727 1332.49267465346  1017.5353130274 1332.79911709697  L 1017.62720231193 1330.80122912228  Z M 1043.59417500839 1331.83624906691  C 1036.93442284 1331.61162917892  1030.27576553511 1331.35564397452  1023.61842465368 1331.06830197136  L 1023.5321815928 1333.06644163977  C 1030.19579645869 1333.35405443862  1036.86072898853 1333.61028088757  1043.52675741381 1333.83511246093  L 1043.59417500839 1331.83624906691  Z M 1069.57187494445 1332.55321722236  C 1062.90987155854 1332.41016504814  1056.24857887535 1332.23573650221  1049.58821854251 1332.02993738852  L 1049.52644983033 1334.02898331751  C 1056.1930869932 1334.23497637957  1062.86065738497 1334.40956930974  1069.52893914936 1334.55275629862  L 1069.57187494445 1332.55321722236  Z M 1095.55640666626 1332.95202607654  C 1088.89315105531 1332.8905630673  1082.23022187971 1332.79771733607  1075.56784084157 1332.6734919722  L 1075.53055574054 1334.67314439731  C 1082.19921551306 1334.79748683315  1088.86842393949 1334.89042006368  1095.53795910904 1334.95194099664  L 1095.55640666626 1332.95202607654  Z M 1121.54387369551 1333.03261582659  C 1114.88036503977 1333.05275119893  1108.21679850307 1333.04150220497  1101.55339580873 1332.99886921898  L 1101.54059990989 1334.9988282848  C 1108.21028230143 1335.0415014488  1114.88012868962 1335.052761044  1121.54991714243 1335.03260669575  L 1121.54387369551 1333.03261582659  Z M 1147.53037911372 1332.79497438774  C 1140.86761663126 1332.89670512231  1134.20441196059 1332.96705455243  1127.54098681224 1333.0060203373  L 1127.55268203438 1335.00598614245  C 1134.22238690097 1334.9669836356  1140.89187108235 1334.89656790706  1147.56091265855 1334.79474129982  L 1147.53037911372 1332.79497438774  Z M 1173.51202614662 1332.23913739525  C 1166.85100894399 1332.42244823712  1160.18916531147 1332.57438554217  1153.52671691503 1332.69494425483  L 1153.56290150441 1334.69461689692  C 1160.23162869871 1334.5739445678  1166.89975055903 1334.42186407461  1173.56704521073 1334.23838047766  L 1173.51202614662 1332.23913739525  Z M 1199.48491874845 1331.36518819895  C 1192.82664567001 1331.63005165999  1186.16716204465 1331.86355405638  1179.50668945909 1332.06568761861  L 1179.56735798969 1334.06476723918  C 1186.23410751095 1333.86244318306  1192.89986714025 1333.62872073027  1199.56441508154 1333.36360765768  L 1199.48491874845 1331.36518819895  Z M 1225.44516218624 1330.17325785081  C 1218.79063166534 1330.51963421373  1212.13450666128 1330.83466668693  1205.47700864976 1331.11834478803  L 1205.56215202411 1333.11653161758  C 1212.22592416817 1332.83258617371  1218.8883220107 1332.51725680888  1225.54912386753 1332.17055401534  L 1225.44516218624 1330.17325785081  Z M 1251.38886362379 1328.66352508528  C 1244.73907353219 1329.09136240965  1238.08730526067 1329.48787771934  1231.43378013996 1329.85305782071  L 1231.54338559049 1331.85005222361  C 1238.20318109962 1331.48452797067  1244.86121810377 1331.08763897863  1251.51727506383 1330.65939845353  L 1251.38886362379 1328.66352508528  Z M 1277.31213270544 1326.83621629247  C 1270.6680802042 1327.34545042247  1264.0216661229 1327.82338910968  1257.37311161412 1328.27001645119  L 1257.50716270508 1330.26551897061  C 1264.1619829179 1329.81847072035  1270.81466068595 1329.34008161609  1277.46497464846 1328.83036757571  L 1277.31213270544 1326.83621629247  Z M 1303.21108213945 1324.6916054842  C 1296.57376352924 1325.28216005826  1289.93370029296 1325.84145045429  1283.29111337188 1326.36945806249  L 1283.44959000181 1328.36316946532  C 1290.09843700297 1327.83466425431  1296.74475794086 1327.27484677408  1303.38833166622 1326.68373565195  L 1303.21108213945 1324.6916054842  Z M 1329.08182828088 1322.23001425294  C 1322.45223885247 1322.90180071518  1315.81952216394 1323.54235895231  1309.18389891134 1324.15166765049  L 1309.36677731607 1326.1432889722  C 1316.00865408595 1325.53340605178  1322.64762155284 1324.89224414231  1329.28345881216 1324.21982457779  L 1329.08182828088 1322.23001425294  Z M 1354.92049171399 1319.45181172356  C 1348.29962559953 1320.20472933705  1341.67525005906 1320.92645936121  1335.04758551188 1321.61697778121  L 1335.25483826809 1323.60621037069  C 1341.88874883228 1322.91504119509  1348.51936729002 1322.19263100104  1355.14647301454 1321.43900382595  L 1354.92049171399 1319.45181172356  Z M 1380.71987072482 1316.33833640531  C 1374.27806164169 1317.15740775418  1367.83252710669 1317.94690813847  1361.38347079346 1318.70681261062  C 1361.21508115543 1318.72648476574  1361.04668916414 1318.74613674239  1360.87829481635 1318.76576854093  L 1361.10989084573 1320.75231410526  C 1361.27877266411 1320.73262547628  1361.44765212036 1320.71291657064  1361.61652920612 1320.69318738931  C 1368.07199229791 1319.932531054  1374.52392994546 1319.14224789618  1380.97213825224 1318.32236289067  L 1380.71987072482 1316.33833640531  Z M 1406.47935295007 1312.90263956318  C 1399.87982173053 1313.82401935587  1393.27598753221 1314.7143111095  1386.66807009014 1315.57348520062  L 1386.92594329568 1317.55679087798  C 1393.54008814464 1316.69680708748  1400.150145902 1315.80567630866  1406.75589662512 1314.88342819294  L 1406.47935295007 1312.90263956318  Z M 1432.19483256319 1309.15176692184  C 1425.60707875684 1310.15389107935  1419.01464161099 1311.12498222007  1412.41774048146 1312.06500803207  L 1412.6998805878 1314.04500726449  C 1419.30299874228 1313.10409555716  1425.90164870639 1312.1320892446  1432.4956109171 1311.1290206693  L 1432.19483256319 1309.15176692184  Z M 1457.86245343123 1305.08628093878  C 1451.28746489655 1306.1689991888  1444.70741336394 1307.22074409785  1438.12251777709 1308.24148067031  L 1438.42888247626 1310.21787654946  C 1445.01998377384 1309.19617801856  1451.60623645231 1308.14344192828  1458.18742136115 1307.05970330729  L 1457.86245343123 1305.08628093878  Z M 1483.47836659786 1300.70679124891  C 1476.91712927925 1301.86994123376  1470.35045006312 1303.00218219807  1463.77854744895 1304.10347646769  L 1464.1090908004 1306.07597262556  C 1470.68718688063 1304.97364047862  1477.2600546401 1303.84033247235  1483.82747537364 1302.67608631636  L 1483.47836659786 1300.70679124891  Z M 1509.03873086051 1296.0139545732  C 1502.49222863994 1297.2573618742  1495.93990643904 1298.46992910989  1489.38198227883 1299.65161593348  L 1489.73665471635 1301.61991658685  C 1496.30075916898 1300.43711612273  1502.85925638318 1299.22340614427  1509.41192813196 1297.97882703638  L 1509.03873086051 1296.0139545732  Z M 1534.53971334636 1291.00847462016  C 1528.00892789673 1292.33195278365  1521.47194525593 1293.6246644618  1514.92898293534 1294.88656664094  L 1515.30773127446 1296.85037663572  C 1521.85685978732 1295.5872852198  1528.40000298492 1294.29335526953  1534.93694315115 1292.96862983906  L 1534.53971334636 1291.00847462016  Z M 1559.97749008713 1285.69110198034  C 1553.46340072417 1287.09445254583  1546.94273788887 1288.4671148194  1540.41571854959 1289.80904312713  L 1540.81848599557 1291.76806798263  C 1547.3516565022 1290.42487502021  1553.87846451426 1289.0509191278  1560.39869285916 1287.64624602231  L 1559.97749008713 1285.69110198034  Z M 1585.34824659248 1280.06263401379  C 1578.85183012839 1281.54564654358  1572.34846489653 1282.9980535767  1565.83836728967 1284.41980678581  L 1566.26509344602 1286.37375273888  C 1572.78132627291 1284.95065964681  1579.29082038 1283.49688384211  1585.7933591708 1282.01247369762  L 1585.34824659248 1280.06263401379  Z M 1610.64817842199 1274.12391473046  C 1604.17040901887 1275.68636684123  1597.68531659453 1277.21830084  1591.19311693374 1278.71966575326  L 1591.64373781126 1280.66823980234  C 1598.14205582478 1279.16545997879  1604.63325990376 1277.63208226096  1611.1171340603 1276.06815767035  L 1610.64817842199 1274.12391473046  Z M 1635.87349175568 1267.87583466365  C 1629.41534077944 1269.51749205983  1622.94949362663 1271.12872330499  1616.47616544166 1272.70947478707  L 1616.95061346806 1274.65238473615  C 1623.43004222097 1273.07014352861  1629.90198289137 1271.4573938334  1636.36622013232 1269.81418931305  L 1635.87349175568 1267.87583466365  Z M 1661.02040396289 1261.31933073648  C 1654.58283983756 1263.03994724536  1648.1372075344 1264.73023412672  1641.68372152518 1266.39013513799  L 1642.18192555518 1268.32708964042  C 1648.64149343277 1266.6656243119  1655.09320020272 1264.9737444772  1661.53683119138 1263.25150643182  L 1661.02040396289 1261.31933073648  Z M 1686.0851441695 1254.45538612138  C 1679.66913223205 1256.25470373005  1673.24468132535 1258.02379278273  1666.8120052164 1259.76259441479  L 1667.33389054245 1261.69330301695  C 1673.77262890818 1259.95286271044  1680.20313431998 1258.18210643999  1686.62519280964 1256.38109312565  L 1686.0851441695 1254.45538612138  Z M 1711.0639538234 1247.28503009269  C 1704.67045617896 1249.1627789867  1698.26815003932 1251.01040492913  1691.85724843462 1252.82784644213  L 1692.40273679804 1254.752019627  C 1698.81968013888 1252.93286532807  1705.22801991405 1251.08349815345  1711.62754289286 1249.20397963887  L 1711.0639538234 1247.28503009269  Z M 1735.95308725809 1239.80933787226  C 1729.58306263569 1241.7652364761  1723.203861313 1243.69112224982  1716.81569555137 1245.58693111158  L 1717.38470515413 1247.50428034215  C 1723.77889122528 1245.60668483982  1730.16410440915 1243.67898408059  1736.54013224456 1241.72124220665  L 1735.95308725809 1239.80933787226  Z M 1760.74881225434 1232.02943046829  C 1754.40321586315 1234.06318548759  1748.04807594266 1236.0670422988  1741.68360395359 1238.04093422562  L 1742.27604947056 1239.95117198816  C 1748.64651943976 1237.97541983403  1755.00764854558 1235.96967455618  1761.35922512823 1233.93400289363  L 1760.74881225434 1232.02943046829  Z M 1785.45410865334 1223.96220166993  C 1780.91244792583 1225.47213595923  1776.3660644946 1226.96782776964  1771.81502538944 1228.44925504937  C 1770.02986987239 1229.03220275612  1768.24394137034 1229.61278069627  1766.45724460484 1230.1909873349  L 1767.07303719658 1232.09382718206  C 1768.86111997126 1231.51517200637  1770.64843401408 1230.934144085  1772.43497460259 1230.35074495312  C 1776.98969037931 1228.86811880124  1781.53974701985 1227.37121752721  1786.08507744855 1225.86006319794  L 1785.45410865334 1223.96220166993  Z M 1810.0684832298 1215.62342008515  C 1803.76929615219 1217.79736465268  1797.46064952644 1219.94380208052  1791.14272366147 1222.06267102084  L 1791.7786609288 1223.95887348683  C 1798.10210490989 1221.83815391308  1804.4162615474 1219.68984177324  1810.72095037456 1217.51399846888  L 1810.0684832298 1215.62342008515  Z M 1834.58663505458 1207.00582499101  C 1828.31252593767 1209.25111953976  1822.02864570108 1211.46901607755  1815.73517394585 1213.65945121416  L 1816.39259041391 1215.54831425512  C 1822.69155892688 1213.35596597872  1828.98092754412 1211.1361323161  1835.26051650732 1208.88887671299  L 1834.58663505458 1207.00582499101  Z M 1859.00540604735 1198.11052638379  C 1852.75718303296 1200.42688170675  1846.49887858554 1202.71595167663  1840.23067157588 1204.97767086871  L 1840.90948256561 1206.85895118812  C 1847.18316426675 1204.59525659626  1853.44693475652 1202.30418733831  1859.70061500825 1199.98580889603  L 1859.00540604735 1198.11052638379  Z M 1883.32165092865 1188.93867002961  C 1877.10011882405 1191.3257877668  1870.86819627199 1193.68573632318  1864.62606138923 1196.01844824821  L 1865.32617946585 1197.89190352625  C 1871.57376626853 1195.55715419592  1877.81113182082 1193.19514444568  1884.03809785074 1190.80594178483  L 1883.32165092865 1188.93867002961  Z M 1907.53223762496 1179.49143731681  C 1901.33819779949 1181.94900999366  1895.13345985083 1184.37953316136  1888.91820111807 1186.78293735256  L 1889.63953610229 1188.6483262773  C 1895.86022328106 1186.24282293779  1902.07038048698 1183.81017693582  1908.26983022572 1181.35045779956  L 1907.53223762496 1179.49143731681  Z M 1931.63404767214 1169.77004510381  C 1925.46829795421 1172.29775617064  1919.29154381499 1174.79854088427  1913.10396179375 1177.27232776917  L 1913.84642077345 1179.12941006769  C 1920.03940706767 1176.65346256179  1926.22155602292 1174.15049364702  1932.39269094537 1171.62057486147  L 1931.63404767214 1169.77004510381  Z M 1955.62397661712 1159.77574556238  C 1949.48731119121 1162.37326943529  1943.339336463 1164.94399357934  1937.18022814989 1167.48784451979  L 1937.94371549203 1169.3363809891  C 1944.10820320912 1166.79030823323  1950.26154761702 1164.21733880258  1956.40357284516 1161.61754623597  L 1955.62397661712 1159.77574556238  Z M 1979.49923134775 1149.51008513076  C 1977.46189999756 1150.39943438881  1975.42337698973 1151.28605128518  1973.38366782187 1152.1699334288  C 1969.30885473516 1153.93540298887  1965.22891453975 1155.6890152332  1961.14389902358 1157.43074790265  L 1961.92831638657 1159.27050044054  C 1966.01691873017 1157.52723845143  1970.10044127309 1155.77208640155  1974.1788321814 1154.00506656979  C 1976.2202008002 1153.12046538432  1978.26038228266 1152.233127196  1980.29937112733 1151.34305439759  L 1979.49923134775 1149.51008513076  Z M 2003.26348379677 1138.98816603571  C 1997.18423188455 1141.71791608953  1991.09403131251 1144.42321736026  1984.99302969912 1147.10400427496  L 1985.7975881115 1148.93503834375  C 1991.90349672798 1146.25209528642  1997.99859561607 1143.54461815621  2004.08273703822 1140.81267257897  L 2003.26348379677 1138.98816603571  Z M 2026.91646911578 1128.21845102544  C 2020.86607905087 1131.01158890769  2014.80448539885 1133.78039377159  2008.7318350855 1136.52479850463  L 2009.55548649281 1138.34732377448  C 2015.63302100668 1135.60071173123  2021.69948996589 1132.82967993246  2027.75474632753 1130.03429554419  L 2026.91646911578 1128.21845102544  Z M 2050.45560355842 1117.20211653546  C 2044.43473625826 1120.05833713631  2038.40241166789 1122.89034314141  2032.35877600363 1125.69806590633  L 2033.20143043386 1127.51188329273  C 2039.2499269622 1124.70190229129  2045.28710331904 1121.86761851888  2051.31281317082 1119.00910067496  L 2050.45560355842 1117.20211653546  Z M 2073.8783158149 1105.9403659409  C 2067.8876289721 1108.85935725957  2061.88523238754 1111.7542550502  2055.87127155212 1114.62498914392  L 2056.73283695748 1116.42990051357  C 2062.75163478979 1113.5568575036  2068.75885906966 1110.65963136224  2074.75436419019 1107.73829231429  L 2073.8783158149 1105.9403659409  Z M 2097.18204729285 1094.43442942502  C 2091.22219530316 1097.41587260402  2085.2503823996 1100.37334595437  2079.26675333108 1103.3067777908  L 2080.14713559802 1105.10258598325  C 2086.13557726752 1102.16679480322  2092.11219326855 1099.20694277273  2098.07683873544 1096.22310163487  L 2097.18204729285 1094.43442942502  Z M 2120.36425239685 1082.6855638449  C 2114.43588628808 1085.72913320459  2108.49530939921 1088.74885905372  2102.5426657227 1091.74466819777  L 2103.44176868219 1093.53117704696  C 2109.39920003851 1090.53295838947  2115.34455490145 1087.51080379106  2121.27768916372 1084.46478650464  L 2120.36425239685 1082.6855638449  Z M 2143.42239880647 1070.69505259408  C 2137.52616616659 1073.80041566866  2131.61747421492 1076.882064155  2125.69646617039 1079.93992335797  L 2126.61419160844 1081.71693771367  C 2132.5399618882 1078.65661909083  2138.4534061695 1075.57249205094  2144.35438111788 1072.46463134938  L 2143.42239880647 1070.69505259408  Z M 2166.3539677529 1058.46420546238  C 2160.49051266023 1061.63102303577  2154.61435108439 1064.77425753404  2148.7256254565 1067.89383276897  L 2149.6618731249 1069.66115851806  C 2155.55533502366 1066.53907422528  2161.43622276467 1063.39331164039  2167.30439380326 1060.22394701238  L 2166.3539677529 1058.46420546238  Z M 530.57919224699 1255.1823776714  C 524.133045700541 1253.49239723653  517.693718684209 1251.7765110078  511.261367278846 1250.03476057605  L 510.738632721154 1251.96523942395  C 517.176157632487 1253.70839073629  523.620663765407 1255.42565704322  530.071994913184 1257.11699672036  L 530.57919224699 1255.1823776714  Z M 2170.4735053816 1066.01882353089  L 2173 1056  L 2163.22226741448 1052.65994828093  L 2170.4735053816 1066.01882353089  Z " fill-rule="nonzero" fill="#000000" stroke="none" />
  </g>
</svg>