<?xml version="1.0" encoding="utf-8"?>
<svg version="1.1" xmlns:xlink="http://www.w3.org/1999/xlink" width="380px" height="30px" viewBox="572 476  380 30" xmlns="http://www.w3.org/2000/svg">
  <g transform="matrix(-0.984807753012209 -0.17364817766693 0.173648177666928 -0.984807753012207 1427.16225256084 1106.86051811119 )">
    <path d="M 1107.49097890458 611.964789662081  C 1108.50261315599 615.134396849241  1109.45425523338 618.322839686275  1110.34539538733 621.528410275976  L 1111.30885872063 621.260570015049  C 1110.41434399007 618.04286054516  1109.4590982269 614.84234368745  1108.44363311086 611.660733806601  L 1107.49097890458 611.964789662081  Z M 1103.24368691834 599.705569334045  C 1104.40977770339 602.821663982887  1105.51687384538 605.959518106468  1106.56438232556 609.117450905547  L 1107.51352768855 608.802612725032  C 1106.46205249494 605.632721440929  1105.35076399248 602.482984866415  1104.18025744557 599.355090165589  L 1103.24368691834 599.705569334045  Z M 1098.39940080511 587.669753436445  C 1099.7171334037 590.724813890535  1100.97701129198 593.804505121017  1102.17835961327 596.907177483749  L 1103.1108959506 596.546101342792  C 1101.90499835393 593.4316797557  1100.64034955005 590.340326325982  1099.31762695119 587.273696944685  L 1098.39940080511 587.669753436445  Z M 1092.96981374496 575.88639412664  C 1094.43600740265 578.873046054415  1095.84562593298 581.887140606255  1097.19791427034 584.927063275036  L 1098.11159061766 584.520620742374  C 1096.75418142407 581.469186470272  1095.33922493909 578.443678121222  1093.8674790876 575.445716316191  L 1092.96981374496 575.88639412664  Z M 1086.91812356045 564.418657359336  C 1088.29842162942 566.836352832392  1089.6256889985 569.283941082308  1090.89897398868 571.759667136095  C 1091.14581958507 572.24103165636  1091.39118546026 572.723153548262  1091.63506813916 573.206025983545  L 1092.52767905653 572.755198133708  C 1092.28278346033 572.27032018558  1092.03639796406 571.786196173548  1091.78852605993 571.302832959431  C 1090.50849084837 568.813963064344  1089.1741828227 566.353382172507  1087.78655884589 563.922854823044  L 1086.91812356045 564.418657359336  Z M 1080.11236232143 553.385272117171  C 1081.9529005944 556.154176924531  1083.72081740433 558.970673697809  1085.41430492306 561.83188235682  L 1086.27486590078 561.322534927621  C 1084.57251092854 558.446344383896  1082.79533693782 555.61509984665  1080.94516122294 552.831696476777  L 1080.11236232143 553.385272117171  Z M 1072.5737666685 542.839014414733  C 1074.59790938226 545.476676493327  1076.55282661892 548.166747592482  1078.43651932832 550.90647691179  L 1079.26054316673 550.339921783206  C 1077.36698704982 547.585846670319  1075.40183345916 544.881689798369  1073.3670919124 542.230216371536  L 1072.5737666685 542.839014414733  Z M 1064.33707206384 532.828478068754  C 1066.53549260956 535.322743906759  1068.66840263324 537.873994335801  1070.73362107363 540.479620510051  L 1071.51731093176 539.858468188753  C 1069.4412785773 537.239198412931  1067.29720019232 534.674589105054  1065.08726825855 532.167262771401  L 1064.33707206384 532.828478068754  Z M 1055.44036754416 523.402726603568  C 1055.55140837414 523.511730201929  1055.66230821417 523.620877332298  1055.77306678628 523.730167721104  C 1058.01905567327 525.965058510844  1060.20907892312 528.255497243953  1062.34110267555 530.59935680494  L 1063.08084755865 529.926469364178  C 1060.93718956311 527.569819592992  1058.73520284265 525.266894034221  1056.47693326569 523.019832338667  C 1056.36506464538 522.909444064349  1056.25305270049 522.799201131042  1056.14089771441 522.689103817662  L 1055.44036754416 523.402726603568  Z M 1045.87086675613 514.660869532477  C 1048.40418270843 516.813432550833  1050.87755168531 519.035566534816  1053.2881435666 521.324728836622  L 1053.97675071497 520.599594231727  C 1051.55280448949 518.297750288744  1049.06573339203 516.063305991145  1046.51838322125 513.898818072668  L 1045.87086675613 514.660869532477  Z M 1035.69874101758 506.628231837252  C 1038.37998896452 508.593461266398  1041.00643671405 510.632383961746  1043.57507898759 512.742666912611  L 1044.20987710737 511.969988876732  C 1041.62700491242 509.848015251445  1038.98600700718 507.797797207576  1036.28990531905 505.821680680369  L 1035.69874101758 506.628231837252  Z M 1024.97643566646 499.346228106078  C 1027.79179165833 501.113991636981  1030.55777676907 502.959190787696  1033.27122605629 504.879714213176  L 1033.84894226206 504.06347651153  C 1031.12046084269 502.13231365304  1028.33915255865 500.276892355333  1025.50819988565 498.499335660017  L 1024.97643566646 499.346228106078  Z M 1013.75923265091 492.852402816517  C 1016.69418130517 494.413586232722  1019.58544294042 496.055548380604  1022.42970926828 497.776410466404  L 1022.94736497697 496.920821448672  C 1020.08734180873 495.19042602595  1017.18006298562 493.539367635841  1014.22885512349 491.969535480364  L 1013.75923265091 492.852402816517  Z M 1002.10635148975 487.170622837426  C 1004.12605339587 488.078310613889  1006.13251694143 489.01517244966  1008.12511217156 489.980914204998  C 1009.12344164375 490.467885759547  1010.11725498683 490.964061763547  1011.10642520078 491.469378810372  L 1011.56135148858 490.578849713331  C 1010.56632662577 490.070541822441  1009.56662940045 489.571432546705  1008.5623876608 489.081585715667  C 1006.56073944847 488.111442766731  1004.54515710182 487.170316445125  1002.51627367804 486.258502341247  L 1002.10635148975 487.170622837426  Z M 990.13065938992 482.190234931871  C 993.236734065552 483.380209545155  996.316579452518 484.637549868678  999.368013917357 485.961365255223  L 999.766007852694 485.043977208955  C 996.70128127861 483.714395256245  993.608020023862 482.451577933257  990.48841522514 481.256419766881  L 990.13065938992 482.190234931871  Z M 977.892812382845 477.894124412898  C 981.061133749583 478.906783875874  984.207072176393 479.98818283623  987.328399212288 481.137555276247  L 987.673948346419 480.199154617732  C 984.539024747851 479.044775488498  981.379382550657 477.958665932753  978.197259913007 476.941595305008  L 977.892812382845 477.894124412898  Z M 965.431873517658 474.296004409637  C 968.652328334733 475.128116326414  971.854318006688 476.030122112133  975.035574378166 477.001382823679  L 975.32757572273 476.044964915663  C 972.132461735199 475.069473373132  968.916524132527 474.163538432265  965.68204095019 473.327801819422  L 965.431873517658 474.296004409637  Z M 952.78761794981 471.407360074532  C 956.049926567166 472.056268354651  959.297746774698 472.776001774945  962.528777952633 473.566050506411  L 962.766299443121 472.594668222469  C 959.521193829088 471.80117802301  956.259226052109 471.078309429616  952.982706753507 470.426574492117  L 952.78761794981 471.407360074532  Z M 940.002510323375 469.182988153041  C 942.64419809205 469.589364412776  945.281166412 470.025848522231  947.912901067414 470.492355365849  C 948.558408165229 470.606315092354  949.203424214734 470.723038994551  949.847931467879 470.842523860702  L 950.03021493877 469.859277840502  C 949.383014518973 469.739293689578  948.735303266423 469.622081549955  948.08709899708 469.50764464567  C 945.44799349443 469.039833920697  942.803639923466 468.602128710482  940.154553895468 468.194614361308  L 940.002510323375 469.182988153041  Z M 927.138379569877 467.446504002877  C 930.444774895905 467.830821765966  933.745546105392 468.262071944493  937.039694906193 468.740124110252  L 937.183312083241 467.750490791059  C 933.879794558708 467.271079021062  930.569635791008 466.838602345484  927.253836911518 466.45319156348  L 927.138379569877 467.446504002877  Z M 914.218918663798 466.18604093593  C 917.53724662187 466.448051923634  920.851686654176 466.75717093973  924.16123633454 467.113304493616  L 924.268226532106 466.11904441817  C 920.949264327138 465.761898002669  917.625397861806 465.451899836649  914.297632413269 465.189143676607  L 914.218918663798 466.18604093593  Z M 901.261736087476 465.403316890882  C 904.587473987388 465.542663997292  907.911065451337 465.729230539513  911.231505285348 465.962960091969  L 911.301722681943 464.965428379583  C 907.97183935118 464.731034088605  904.638795427091 464.543936941818  901.303598962463 464.404193525277  L 901.261736087476 465.403316890882  Z M 888.284491735716 465.099398675601  C 891.613106787946 465.115891978622  894.941319819475 465.179651767498  898.268124238569 465.290658758585  L 898.301473131921 464.291214987624  C 894.965207114876 464.17989228711  891.627528479239 464.115951162209  888.289446679528 464.09941095141  L 888.284491735716 465.099398675601  Z M 875.304872846373 465.274700513138  C 878.631828340002 465.168317533347  881.960126776121 465.109183667952  885.288761537169 465.097316801524  L 885.285196474653 464.097323156379  C 881.947094910071 464.109223772769  878.609330626947 464.168525817831  875.272913105705 464.27521135613  L 875.304872846373 465.274700513138  Z M 862.327184770002 465.818825361771  C 865.652910534152 465.641618508827  868.980120427748 465.493458445144  872.308433843307 465.374362119105  L 872.272673943805 464.375001708849  C 868.938542282496 464.494306227929  865.605516072222 464.642725291157  862.273976585811 464.820241920523  L 862.327184770002 465.818825361771  Z M 849.365896728901 466.657110209596  C 852.686742024315 466.404443133995  856.009730532845 466.18078166551  859.334482129995 465.986151389304  L 859.276042383375 464.987860451743  C 855.945478766912 465.182830962368  852.616681321134 465.406883414882  849.290030835037 465.659992179396  L 849.365896728901 466.657110209596  Z M 836.426981656225 467.789446693409  C 839.741234523239 467.461449649893  843.058288582264 467.162402078391  846.377764387567 466.89233818767  L 846.296674920642 465.895631360988  C 842.971396318655 466.166167352108  839.648543696462 466.465737690559  836.328497163016 466.794308107785  L 836.426981656225 467.789446693409  Z M 823.517109811603 469.21525107197  C 826.823061689122 468.812093149323  830.132471293433 468.437813639583  833.44496005327 468.092455357476  L 833.34126266922 467.097846463216  C 830.022983326798 467.443808468323  826.707788522639 467.81874225844  823.3960574897 468.222604944006  L 823.517109811603 469.21525107197  Z M 810.642936482321 470.933788315694  C 813.93888308857 470.455677349578  817.238942173821 470.006358849891  820.542736236528 469.585884215235  L 820.41648439335 468.593885993415  C 817.106914947328 469.015095662441  813.801087007899 469.465199618642  810.499378736524 469.944146373564  L 810.642936482321 470.933788315694  Z M 797.811098552391 472.944172485571  C 801.09534076346 472.391354951391  804.38434808577 471.867229094079  807.677744281922 471.371854869642  L 807.529003064869 470.382978714429  C 804.229849661964 470.879218905685  800.935092805163 471.404260990722  797.64510938948 471.958044908735  L 797.811098552391 472.944172485571  Z M 785.023395862262 475.231926567444  C 786.586427060472 474.939536193245  788.150211537912 474.651187072261  789.714733617504 474.366882095217  C 791.427289477936 474.05324715129  793.141268246526 473.747432138876  794.85661634029 473.449446618466  L 794.685462428321 472.464202314541  C 792.967341188645 472.762669578178  791.250591306773 473.068977962727  789.535266438192 473.383117894791  C 787.969273945707 473.667691277297  786.404019645345 473.956312022946  784.839519224198 474.24897723916  L 785.023395862262 475.231926567444  Z M 772.269219695594 477.710873726079  C 775.534999639703 477.052228321503  778.804323063082 476.411276240466  782.077046102105 475.788045687488  L 781.889976070518 474.805699107466  C 778.613705899137 475.429605147258  775.340839028083 476.071251922538  772.071519476871 476.730611198224  L 772.269219695594 477.710873726079  Z M 759.551216504515 480.369178362011  C 762.807397638451 479.664609816359  766.067371056163 478.977682940894  769.330993305646 478.308427963175  L 769.130108497894 477.328813092925  C 765.86294897992 477.998793440912  762.599442248512 478.686464840281  759.339731911118 479.39179703072  L 759.551216504515 480.369178362011  Z M 746.871908399783 483.206313306105  C 750.117844989297 482.455961342575  753.367821915227 481.723195897316  756.621696165271 481.00804921501  L 756.407036418876 480.031360322231  C 753.149635465684 480.74728211441  749.896136060731 481.480841765588  746.646681371282 482.232006996143  L 746.871908399783 483.206313306105  Z M 734.233809818525 486.22171592534  C 737.468858161086 485.425729346426  740.708194091282 484.64727064632  743.951675065239 483.886374080352  L 743.723282949435 482.91280485249  C 740.476286537086 483.674526114217  737.233439661022 484.453828544771  733.994885019753 485.250677851662  L 734.233809818525 486.22171592534  Z M 721.639427025592 489.414788234383  C 724.862945577832 488.573324892411  728.090998118743 487.749327313806  731.323442600965 486.942831757792  L 731.081363408256 485.972575263633  C 727.845415449514 486.779944937752  724.613864192208 487.604835604001  721.386851837793 488.44721096382  L 721.639427025592 489.414788234383  Z M 709.091257616546 492.784897014172  C 712.302607121604 491.898123779974  715.51873611723 491.02875073006  718.739503080752 490.176816120358  L 718.48378481793 489.210064771738  C 715.259527034537 490.062922748543  712.039912245818 490.933238066189  708.825082127977 491.820972427244  L 709.091257616546 492.784897014172  Z M 696.591790022363 496.331373937497  C 699.790333636621 495.399466667319  702.993901295526 494.484890551707  706.202352029153 493.587685835708  L 705.933045407779 492.624631349356  C 702.721117203194 493.522808498346  699.514077365769 494.438375874914  696.312067018359 495.371293190356  L 696.591790022363 496.331373937497  Z M 684.135927305132 500.035331912862  C 686.667195235296 499.270095677059  689.200569095471 498.511842871132  691.73601997401 497.760582148498  C 692.395286656149 497.564572230672  693.054772307888 497.369299556841  693.714475692089 497.17476449332  L 693.431634118433 496.215597852839  C 692.771364478661 496.410299895287  692.111312709434 496.605740014797  691.451480047741 496.801917845097  C 688.914414995186 497.553657743851  686.379428163874 498.312393767397  683.846548480127 499.078117257919  L 684.135927305132 500.035331912862  Z M 671.713622925559 503.852103746022  C 674.894388750162 502.859057998702  678.07859647602 501.877070569097  681.266188404104 500.906159251188  L 680.9748140297 499.949550149234  C 677.78500552471 500.921136616176  674.59858357505 501.90380689694  671.415605920254 502.897543185057  L 671.713622925559 503.852103746022  Z M 659.326316523506 507.780975521331  C 662.497978685251 506.759226913027  665.673182537834 505.748505067666  668.851870545022 504.748828300017  L 668.551863543957 503.794891300361  C 665.370965151324 504.795263219901  662.193553336259 505.80668789759  659.019685674677 506.829147006026  L 659.326316523506 507.780975521331  Z M 646.975019675818 511.821626397792  C 650.137319169304 510.771258366904  653.303259853809 509.731884643768  656.472784360952 508.70352406234  L 656.164169232511 507.752337065741  C 652.992440712006 508.781412745115  649.82429850641 509.821509224425  646.659800023667 510.872607656724  L 646.975019675818 511.821626397792  Z M 634.660741018713 515.973726406266  C 637.813419603117 514.894824728319  640.969838581194 513.826884005173  644.129940757456 512.769923588312  L 643.812742703883 511.821564270959  C 640.650443066387 512.879259673404  637.491829188272 513.947943017587  634.336958304827 515.027594938557  L 634.660741018713 515.973726406266  Z M 622.38448616542 520.236936476407  C 625.527286385465 519.129589257094  628.673925896566 518.033168744474  631.824347680443 516.947694806095  L 631.498592604884 516.002240613261  C 628.345980091291 517.088469364861  625.197152480565 518.185652302698  622.052166830663 519.293769545399  L 622.38448616542 520.236936476407  Z M 610.147257624049 524.610908464363  C 613.279922831208 523.475206132286  616.416525913283 522.350395366493  619.557010033854 521.236496548975  L 619.222724538241 520.294024688694  C 616.080056598373 521.408698085429  612.941272395773 522.534291018358  609.806428806407 523.670783091306  L 610.147257624049 524.610908464363  Z M 597.950054715732 529.095285181198  C 601.072329089129 527.931320480505  604.198639599722 526.778211316258  607.3289295976 525.635978583222  L 606.98614098048 524.696566019982  C 603.853674252119 525.839593034957  600.725189778097 526.993504044429  597.600744248095 528.158278138962  L 597.950054715732 529.095285181198  Z M 585.846498036811 533.669540006751  C 588.94063161926 532.484249741791  592.038852425439 531.30965660353  595.141104945755 530.145781636689  L 594.789841200061 529.209505085151  C 591.667831487759 530.380792376107  588.549902222016 531.562927230925  585.4361099009 532.755888228869  L 585.846498036811 533.669540006751  Z M 1111.13102461341 624.417823007631  C 1111.9857604396 627.63329190764  1112.77965137044 630.864627167013  1113.51227215629 634.110097913091  L 1114.48772784371 633.889902086909  C 1113.75233276365 630.632141366417  1112.95543552033 627.388569660995  1112.09746297371 624.160924397802  L 1111.13102461341 624.417823007631  Z M 584.343112172022 526.967964080927  L 581 535  L 588.859503653946 538.730710698193  L 584.343112172022 526.967964080927  Z " fill-rule="nonzero" fill="#333333" stroke="none" />
  </g>
</svg>