<?xml version="1.0" encoding="utf-8"?>
<svg version="1.1" xmlns:xlink="http://www.w3.org/1999/xlink" width="206px" height="48px" viewBox="1016 522  206 48" xmlns="http://www.w3.org/2000/svg">
  <g transform="matrix(-0.669130606358859 0.743144825477396 -0.743144825477393 -0.66913060635886 2273.51422322622 79.7662513627313 )">
    <path d="M 1167.87546411028 609.25179319275  C 1168.45308249751 612.526081229446  1168.94539148355 615.814846983453  1169.35189109661 619.114750499178  L 1170.34438906047 618.992489337193  C 1169.93576826007 615.675366337527  1169.44089031811 612.369439218406  1168.86025781532 609.078065363898  L 1167.87546411028 609.25179319275  Z M 1165.19278858717 596.568706310095  C 1165.99045398591 599.796450887999  1166.70398398766 603.044407670195  1167.3326539563 606.309278145278  L 1168.31461518133 606.12019574913  C 1167.68266470089 602.838288598752  1166.96541137258 599.573383399913  1166.1635836138 596.328795876254  L 1165.19278858717 596.568706310095  Z M 1161.65877083067 584.096009755937  C 1162.67283304414 587.262440392434  1163.60431887682 590.454725227149  1164.45228234426 593.669622287151  L 1165.41921327751 593.41458391683  C 1164.56682498575 590.182910951705  1163.63047849419 586.973968206487  1162.61112472358 583.791014571291  L 1161.65877083067 584.096009755937  Z M 1157.24840116214 571.914738330226  C 1157.95043432478 573.61139415337  1158.61746191201 575.322323798604  1159.24905990816 577.0464396633  C 1159.75698873515 578.443067947408  1160.24865440369 579.845557357482  1160.72395712962 581.253623256499  L 1161.67143299824 580.933795993143  C 1161.1935255048 579.518013571369  1160.69916111127 578.107839673168  1160.18844020185 576.703560644356  C 1159.5520019047 574.966185202764  1158.87985402722 573.242099878624  1158.17242402001 571.532401099302  L 1157.24840116214 571.914738330226  Z M 1151.72539254976 560.205376718189  C 1153.285960528 563.137218192111  1154.73680360041 566.126159342157  1156.07490567241 569.165986588538  L 1156.99015653153 568.763102157376  C 1155.64205200977 565.700551891606  1154.1803637371 562.689268100942  1152.6081303537 559.735510812319  L 1151.72539254976 560.205376718189  Z M 1145.09638177993 549.084720725513  C 1146.9330433332 551.851983123929  1148.66601325092 554.686684181086  1150.2916889373 557.582930960221  L 1151.16370966019 557.093462004252  C 1149.52588188188 554.175565484398  1147.77995783688 551.319674747082  1145.92956705077 548.531726779378  L 1145.09638177993 549.084720725513  Z M 1137.423454342 538.656923353767  C 1139.51900780397 541.233689259113  1141.517874048 543.887601193917  1143.41589771796 546.613142056053  L 1144.23652119866 546.041672806726  C 1142.32430960775 543.295758248049  1140.31050163423 540.622008050258  1138.19928369594 538.025980556379  L 1137.423454342 538.656923353767  Z M 1128.74742177323 529.052695049996  C 1130.46211317931 530.768086153503  1132.13087602907 532.528780459064  1133.75194014648 534.332910272386  C 1134.34536469851 535.002491095238  1134.93205709789 535.678008294296  1135.51192878147 536.359359897997  L 1136.27346928645 535.711242578927  C 1135.68852531423 535.023931015295  1135.09669229424 534.342512344871  1134.49805979141 533.667089690018  C 1132.86442876954 531.848883177397  1131.18270457049 530.074469455405  1129.45467278137 528.345732525179  L 1128.74742177323 529.052695049996  Z M 1119.17065131706 520.338834432475  C 1121.73046916994 522.455458035056  1124.21234054773 524.664619646991  1126.61132948832 526.961925673155  L 1127.30296408455 526.239678080364  C 1124.88643676339 523.925577050816  1122.38642107321 521.700264836247  1119.80788906165 519.568167152214  L 1119.17065131706 520.338834432475  Z M 1108.81287252283 512.569515435188  C 1111.56135320371 514.434620489005  1114.24098627008 516.3992189704  1116.84644245011 518.459403673016  L 1117.46668851169 517.674996366127  C 1114.84218452311 515.599750192093  1112.14296136037 513.620789045133  1109.37438725623 511.742048696178  L 1108.81287252283 512.569515435188  Z M 1097.76689267263 505.814352344572  C 1100.67940937426 507.411227223094  1103.53279420713 509.113659471101  1106.32137234075 510.918263280151  L 1106.86467236809 510.0787246686  C 1104.05570766923 508.260927873183  1101.18146248628 506.546049588364  1098.24765313696 504.937500375345  L 1097.76689267263 505.814352344572  Z M 1086.15442299839 500.062174608387  C 1088.79380324567 501.258673738127  1091.40711142391 502.511871935557  1093.99253012782 503.820897673531  C 1094.37273881347 504.014181401946  1094.75204138578 504.209242399653  1095.13042539809 504.406074265805  L 1095.59191133987 503.518926743947  C 1095.21051970544 503.320530340565  1094.82820162481 503.12392001253  1094.44496965944 502.929102219672  C 1091.84650556552 501.613458338871  1089.22000840366 500.353928942516  1086.56730509215 499.15139012419  L 1086.15442299839 500.062174608387  Z M 1074.17967688909 495.090907440029  C 1077.29017160375 496.266585140334  1080.3711402644 497.51894413643  1083.4197619124 498.846837758769  L 1083.81909644234 497.930032472353  C 1080.75537186383 496.59556043937  1077.65914002494 495.336997232625  1074.53323585941 494.155495202292  L 1074.17967688909 495.090907440029  Z M 1061.91048316253 490.898661390297  C 1065.09003856183 491.872223349136  1068.24505167364 492.924203960819  1071.37263374364 494.053640023791  L 1071.71228656801 493.113089143247  C 1068.56921039605 491.978057832211  1065.39856728837 490.920865688266  1062.20326031023 489.942480684685  L 1061.91048316253 490.898661390297  Z M 1049.39746155784 487.502732656979  C 1052.63295956178 488.270162192125  1055.84900030031 489.117424200688  1059.04263914174 490.043742923045  L 1059.32120893479 489.083326934839  C 1056.11174874487 488.152419211645  1052.87977567843 487.300959850733  1049.6282489549 486.529728454852  L 1049.39746155784 487.502732656979  Z M 1036.69106422564 484.897561004455  C 1037.76413419712 485.09049938754  1038.83629888914 485.288439210479  1039.9075233503 485.491374020655  C 1042.10584977519 485.902369253367  1044.29719412547 486.34986981033  1046.48064869562 486.83369032646  L 1046.69698614544 485.857371675709  C 1044.50310524889 485.371240843307  1042.30129828133 484.921596902093  1040.09247695754 484.508626038701  C 1039.01859081189 484.305190784331  1037.94376245919 484.106761097922  1036.86802691203 483.913343443332  L 1036.69106422564 484.897561004455  Z M 1023.87486260215 482.83721379479  C 1027.17052341023 483.304653346103  1030.45936436136 483.818975518276  1033.74038622114 484.380024047015  L 1033.90893782968 483.39433121694  C 1030.61856322781 482.831683387006  1027.32034724583 482.315895109812  1024.01529196651 481.847123095093  L 1023.87486260215 482.83721379479  Z M 1010.99121006913 481.252426084533  C 1014.30190812841 481.597619155506  1017.60752547198 481.989915059889  1020.90705776831 482.429194608101  L 1021.03902723379 481.437940826176  C 1017.73008943032 480.997409086272  1014.41504923383 480.603994919784  1011.09491383875 480.257817856049  L 1010.99121006913 481.252426084533  Z M 998.057746632146 480.145367729162  C 1001.37894900976 480.367841689253  1004.69681676927 480.637574203168  1008.01034185717 480.954483319235  L 1008.10554848999 479.959025787712  C 1004.78257800769 479.641213303928  1001.45525247474 479.370711901923  998.124582818161 479.147603766975  L 998.057746632146 480.145367729162  Z M 985.092180496714 479.517554487932  C 988.419339877504 479.617004730828  991.744915303487 479.763804542618  995.067896379375 479.957909321749  L 995.126209824774 478.959610998558  C 991.793756399641 478.764952912558  988.458701229068 478.617734639435  985.122057588535 478.518000907885  L 985.092180496714 479.517554487932  Z M 972.112263822655 479.369845948528  C 975.440824735271 479.346136309206  978.769554525094 479.369802423892  982.097441838461 479.440837102213  L 982.118782254984 478.441064834833  C 978.78140860686 478.369827668063  975.44319008075 478.346094091752  972.105140913244 478.369871316769  L 972.112263822655 479.369845948528  Z M 959.123903368239 479.579552096421  C 962.453384347202 479.491098200562  965.783526235726 479.429572172429  969.11400233771 479.394980047896  L 969.103616357532 478.395033983643  C 965.767749031062 478.429682104346  962.432216459039 478.491307728038  959.097345866451 478.579904809075  L 959.123903368239 479.579552096421  Z M 946.143581783867 480.061005429451  C 949.470466999824 479.90256793132  952.798579144278 479.771038452593  956.127591720253 479.666429896674  L 956.096183924317 478.666923243192  C 952.761782492948 478.771701134723  949.428282950652 478.903443527438  946.096012322974 479.062137497044  L 946.143581783867 480.061005429451  Z M 933.176252237902 480.815266784666  C 936.499070842232 480.586915731038  939.823681851556 480.38544095219  943.149759112372 480.210862213355  L 943.097343386375 479.212236862351  C 939.76588202172 479.387098201374  936.435889282033 479.588899118507  933.107691848831 479.81761981652  L 933.176252237902 480.815266784666  Z M 920.227647714071 481.842002695715  C 923.544930656039 481.543839042832  926.864570687061 481.272508037843  930.186242141301 481.028036299066  L 930.112841658749 480.030733752613  C 926.785793232591 480.275601231213  923.460779518003 480.547371454597  920.138126708043 480.846017761351  L 920.227647714071 481.842002695715  Z M 907.303492917583 483.14075923257  C 910.613773593826 482.772914801511  913.926975001091 482.431847528481  917.242772105187 482.117590873119  L 917.148419317155 481.122052048466  C 913.827254750274 481.436817408327  910.508690081996 481.778436785677  907.193050872713 482.146876666708  L 907.303492917583 483.14075923257  Z M 894.409501744182 484.710962202212  C 897.711316647093 484.273599620615  901.016614631755 483.86294686873  904.325071439232 483.479044232738  L 904.209808060015 482.485709267375  C 900.895995671877 482.87023334764  897.585347219938 483.281550845675  894.278187487982 483.719621410093  L 894.409501744182 484.710962202212  Z M 881.54413678289 486.52432901987  C 883.926528160101 486.172988701655  886.310130153981 485.829906986903  888.694899811115 485.495090058079  C 889.609262611307 485.365273955957  890.523915369333 485.23750843735  891.438851185748 485.111794466024  L 891.302728174415 484.121102523094  C 890.386566540151 484.246984924191  889.470688264494 484.374921049053  888.555100251797 484.504909933233  C 886.16829762 484.840014090375  883.782663527469 485.183389195309  881.398240955079 485.535029061603  L 881.54413678289 486.52432901987  Z M 868.70155552724 488.500151492164  C 871.991330450764 487.973007531566  875.283614323689 487.46164236349  878.578293584206 486.966073626617  L 878.429551920713 485.977197538555  C 875.131711294215 486.473241791865  871.836268353766 486.985097633638  868.543336770152 487.512747408262  L 868.70155552724 488.500151492164  Z M 855.884606363953 490.635937505724  C 859.167553332659 490.067818677213  862.453205780593 489.515446134062  865.741450374687 488.978838929436  L 865.580391287784 487.991894163744  C 862.288991501947 488.529016262738  859.000186349707 489.08191882765  855.714089272525 489.650582787092  L 855.884606363953 490.635937505724  Z M 843.095281674006 492.931355054909  C 846.370890357315 492.322349671946  849.649400629115 491.72905561944  852.930699402697 491.151493362073  L 852.757347928846 490.166633338256  C 849.472900628291 490.744749787871  846.191244505366 491.33861312783  842.912492754936 491.948202873879  L 843.095281674006 492.931355054909  Z M 830.33556954418 495.386047319528  C 833.603330752241 494.736250051345  836.874189207009 494.102126716406  840.14803208571 493.483699187732  L 839.962415172211 492.501077001221  C 836.685430920804 493.120097933865  833.411433956989 493.754829733477  830.140537211809 494.405250506049  L 830.33556954418 495.386047319528  Z M 817.607453458017 497.999632720305  C 820.866859220861 497.309144577189  824.129557407164 496.634290533609  827.395435475627 495.975093867522  L 827.19758197643 494.994862265881  C 823.92857017779 495.654691455425  820.662741312518 496.330193046293  817.400208029911 497.021343738189  L 817.607453458017 497.999632720305  Z M 804.912911987486 500.771704978198  C 808.16345563399 500.04063329579  811.417486368901 499.325153448904  814.674891949888 498.625290116818  L 814.464832621107 497.647601475996  C 811.204301439606 498.348136352702  807.947148342465 499.064302728828  804.693485679725 499.796075901416  L 804.912911987486 500.771704978198  Z M 792.25391848542 503.701833177553  C 795.495094722067 502.93029160016  798.739952170003 502.174297170542  801.988378903317 501.433875965459  L 801.766146398449 500.458882266105  C 798.514602680156 501.200013932579  795.266631672095 501.956733766671  792.022345407588 502.729015666596  L 792.25391848542 503.701833177553  Z M 779.62067359642 506.752692181595  C 782.856849850677 505.957944961595  786.095403856286 505.172911300476  789.336291863584 504.397601803265  L 789.103629366984 503.425044266316  C 785.860795595307 504.200819243852  782.62029722665 504.986324223479  779.382178036857 505.781548593824  L 779.62067359642 506.752692181595  Z M 767.011815800216 509.90141091132  C 770.241692514894 509.081437557914  773.474022698769 508.271158915257  776.708762686257 507.470585929413  L 776.468518873602 506.499873350695  C 773.231836812884 507.300926984557  769.997566002619 508.111692102304  766.765750134523 508.932157751321  L 767.011815800216 509.90141091132  Z M 754.427909755689 513.14841464189  C 757.65129029517 512.303265075239  760.877199872326 511.46779078099  764.105594908308 510.642003045575  L 763.857784405696 509.673194522287  C 760.627451105866 510.499478044152  757.399604757124 511.335453940457  754.174288964399 512.181110918014  L 754.427909755689 513.14841464189  Z M 741.869721573859 516.493505694992  C 745.086409698134 515.623231367958  748.305702274232 514.762612286044  751.527555813415 513.911660075168  L 751.272193707605 512.94481458859  C 748.048405832077 513.796277694132  744.827180456868 514.657413474594  741.608561097461 515.528210296905  L 741.869721573859 516.493505694992  Z M 729.338015800034 519.936480420732  C 732.547815676289 519.041134315843  735.760295260317 518.155422840883  738.975411155417 517.279357960739  L 738.71251299291 516.314534372641  C 735.495466806613 517.191125224595  732.281058513858 518.077368463075  729.069331538037 518.973252115834  L 729.338015800034 519.936480420732  Z M 716.833555367268 523.477129210038  C 720.036271582168 522.556765836166  723.24174259765 521.646015890473  726.44992511169 520.744891676087  L 726.179506897786 519.782148725144  C 722.969398255212 520.683813956463  719.762002738808 521.595110698275  716.557363677231 522.516026639885  L 716.833555367268 523.477129210038  Z M 704.357101549915 527.115236507418  C 707.552539121259 526.169911896527  710.75080641864 525.234178926692  713.951860236631 524.308050238742  L 713.673938434451 523.347446536962  C 710.470962767733 524.274131254065  707.270775294638 525.210426019258  704.073419246449 526.15631818415  L 704.357101549915 527.115236507418  Z M 691.909413917276 530.850580824086  C 695.097378306348 529.880352527679  698.288247173922 528.919693501475  701.481977415228 527.968616722814  L 701.196568944715 527.010210751964  C 698.000921251729 527.961858538077  694.808136650073 528.923094324817  691.618258271024 529.893905126865  L 691.909413917276 530.850580824086  Z M 1169.69452120802 622.08723132748  C 1170.04944934412 625.393079352833  1170.3182844592 628.707604357014  1170.50075353372 632.027440224247  L 1171.49924646628 631.972559775753  C 1171.31582523565 628.635400414019  1171.04558729108 625.303579628374  1170.6888070768 621.980481099569  L 1169.69452120802 622.08723132748  Z M 684.923830608974 532.993333170889  C 686.295685650535 532.569237007669  687.668088533649 532.146915021752  689.041035816742 531.726368272194  L 688.748158053626 530.770218380246  C 687.373429724682 531.191310681008  685.999246881633 531.614181758982  684.625612975998 532.038830552046  L 684.923830608974 532.993333170889  Z M 683.86694536201 526.206622454466  L 680 534  L 687.595591413087 538.242286068317  L 683.86694536201 526.206622454466  Z " fill-rule="nonzero" fill="#333333" stroke="none" />
  </g>
</svg>