<?xml version="1.0" encoding="utf-8"?>
<svg version="1.1" xmlns:xlink="http://www.w3.org/1999/xlink" width="350px" height="26px" viewBox="834 502  350 26" xmlns="http://www.w3.org/2000/svg">
  <g transform="matrix(-0.997564050259825 -0.0697564737441254 0.0697564737441255 -0.997564050259823 1979.61754273394 1099.12976789163 )">
    <path d="M 1275.79425539802 609.089780537943  C 1275.92088804413 612.407466717515  1275.91110510501 615.728955931414  1275.76493134977 619.045838601402  L 1276.76396169628 619.089865488053  C 1276.91134183425 615.745608341948  1276.92120551269 612.396706633788  1276.79352775805 609.051639346675  L 1275.79425539802 609.089780537943  Z M 1274.61089267484 596.203583915  C 1275.0906205827 599.488844718588  1275.4351164516 602.792435023133  1275.64350806285 606.105990568092  L 1276.64153629407 606.043223939209  C 1276.43142481155 602.702321377137  1276.08408579296 599.371466299347  1275.60039865547 596.059091997224  L 1274.61089267484 596.203583915  Z M 1271.97891222217 583.550837996265  C 1272.47377573235 585.282991932767  1272.9117826814 587.030886935668  1273.29222886614 588.791712836759  C 1273.60359754608 590.273326345955  1273.88716980353 591.76064554228  1274.14279624501 593.252886865892  L 1275.12843899144 593.084042628805  C 1274.87054400301 591.578558467346  1274.58443783261 590.078043256386  1274.2702713945 588.58328848231  C 1273.88507588299 586.800188745087  1273.4415613815 585.030188425239  1272.94044168511 583.276136172635  L 1271.97891222217 583.550837996265  Z M 1267.47294544053 571.454322098223  C 1268.86923800268 574.460096223022  1270.08317097393 577.547263884575  1271.10814681407 580.699046798347  L 1272.05912353592 580.389784329737  C 1271.02172608997 577.199805193741  1269.79308155551 574.075224377384  1268.37986742787 571.033023499993  L 1267.47294544053 571.454322098223  Z M 1261.13556789044 560.208563818034  C 1262.98354919795 562.959795559544  1264.66409628472 565.81986529967  1266.16807563412 568.773228996372  L 1267.05918400153 568.319438430665  C 1265.53697803849 565.33028313944  1263.83606452683 562.435552427299  1261.96568767158 559.650978713366  L 1261.13556789044 560.208563818034  Z M 1253.10251580329 550.103629577793  C 1254.44100322322 551.552084022208  1255.73629896846 553.039862041581  1256.98669956199 554.565007020445  C 1257.82652551815 555.611255999119  1258.6407101402 556.67783146555  1259.42852723043 557.763782106397  L 1260.23795951305 557.176568874378  C 1259.4395817031 556.076061021597  1258.61444909986 554.995213226885  1257.76329953694 553.93499198441  C 1256.49936688529 552.393180463922  1255.19000940983 550.889173310046  1253.83695206086 549.424951904988  L 1253.10251580329 550.103629577793  Z M 1243.73389814693 541.197675933088  C 1246.28113681624 543.322959218469  1248.72091766638 545.573820257128  1251.04416941658 547.941890185725  L 1251.75799891354 547.241570652032  C 1249.41148835085 544.849793221894  1246.9472820783 542.576398097182  1244.37454219219 540.429837924597  L 1243.73389814693 541.197675933088  Z M 1233.29363599319 533.576131911448  C 1236.09399920752 535.354676189601  1238.8040211437 537.271623533035  1241.41362574514 539.319846593562  L 1242.0310408051 538.533209038055  C 1239.39531062166 536.464480564753  1236.65815779358 534.528342051518  1233.82975925208 532.731992200689  L 1233.29363599319 533.576131911448  Z M 1221.96736013966 527.321797726108  C 1223.16865298552 527.911913501922  1224.36342706464 528.515207885102  1225.55146612275 529.131571679289  C 1227.31261683983 530.040479943683  1229.04632698217 531.001601444074  1230.75029412146 532.01365977716  L 1231.26095517562 531.153877660707  C 1229.54023693733 530.131870139675  1227.7894886076 529.161290951661  1226.01103441068 528.243428599211  C 1224.81680814362 527.623863671763  1223.61581366458 527.01743272748  1222.40826823835 526.424245472196  L 1221.96736013966 527.321797726108  Z M 1210.13810983455 522.02298479995  C 1213.21836109738 523.27357897667  1216.26391545017 524.607987500024  1219.27137296416 526.024720692473  L 1219.69752928543 525.120071152686  C 1216.67361570509 523.695585945349  1213.61139682943 522.353875867405  1210.51429119079 521.096438747548  L 1210.13810983455 522.02298479995  Z M 1197.96303542473 517.575947098004  C 1201.12418071812 518.605070060089  1204.25665706422 519.720255858115  1207.35696749821 520.920259545563  L 1207.71793112897 519.987679652325  C 1204.60065656032 518.781109840429  1201.45104007562 517.659822020544  1198.27259777423 516.625067951227  L 1197.96303542473 517.575947098004  Z M 1185.5033798665 514.003054071699  C 1188.72951802413 514.805529133534  1191.93315940753 515.69588260806  1195.11072760621 516.673120542111  L 1195.40468283024 515.717301350913  C 1192.20972776146 514.734716211718  1188.98855684192 513.839490942398  1185.74476605134 513.032624934788  L 1185.5033798665 514.003054071699  Z M 1172.8267383989 511.24169415133  C 1174.85342188699 511.64027263695  1176.8766753738 512.056097967366  1178.89627890276 512.489124936424  C 1180.13172076578 512.748194120929  1181.36444536299 513.02005626738  1182.59425422045 513.304667604805  L 1182.81972238668 512.330417069257  C 1181.58391737573 512.044418058248  1180.34518412612 511.771222799668  1179.10372184285 511.510875226997  C 1177.07930083608 511.076828413423  1175.05122259033 510.660018011982  1173.01970742677 510.260489303053  L 1172.8267383989 511.24169415133  Z M 1160.04659990297 508.96424770545  C 1163.33367825073 509.489705782537  1166.61339236707 510.060239347862  1169.88481622517 510.675687311353  L 1170.06970138475 509.692927178988  C 1166.78928824751 509.075788076171  1163.50056207193 508.503686788139  1160.20445142933 507.976784847605  L 1160.04659990297 508.96424770545  Z M 1147.19336686636 507.144054639966  C 1150.4970944686 507.551944558048  1153.79507014476 508.005143933097  1157.08636271187 508.503524804333  L 1157.2360800436 507.514795963558  C 1153.93574360175 507.015045632124  1150.62870568688 506.560600947429  1147.31590004068 506.151590221868  L 1147.19336686636 507.144054639966  Z M 1134.2833937633 505.783430971438  C 1137.59956695176 506.073233730733  1140.91160783822 506.408522263898  1144.21858126842 506.789201902263  L 1144.33294027172 505.795762413234  C 1141.01687987862 505.4140367363  1137.69573810479 505.077826891086  1134.37045267417 504.787227806397  L 1134.2833937633 505.783430971438  Z M 1121.33310726418 504.884107959595  C 1124.65750653478 505.055454814608  1127.97939838544 505.272405884224  1131.29784488046 505.53489991234  L 1131.37670004476 504.538013829047  C 1128.04913506094 504.274798514974  1124.71811525425 504.057251303186  1121.3845811377 503.885433618108  L 1121.33310726418 504.884107959595  Z M 1108.35417425836 504.374439541381  C 1111.24032876117 504.460451238513  1114.12591202746 504.564666844296  1117.01075185167 504.687080139358  C 1117.45406577582 504.704647740913  1117.89734720426 504.723025995326  1118.3405939136 504.742214810417  L 1118.38384490346 503.743150572304  C 1117.93984672787 503.723929225112  1117.49581381042 503.705518960598  1117.05174837362 503.687919870914  C 1114.16317321712 503.565353964356  1111.27385380856 503.461006369018  1108.38396252082 503.374883310136  L 1108.35417425836 504.374439541381  Z M 1095.36651259851 504.11032024689  C 1098.69723823522 504.146540201  1102.02765623244 504.206995429515  1105.35750209736 504.291681131241  L 1105.38292619534 503.292004375863  C 1102.04823095276 503.207195343218  1098.71296274466 503.146652071519  1095.37738644903 503.11037936895  L 1095.36651259851 504.11032024689  Z M 1082.37617862927 504.091941998141  C 1085.70699341787 504.065146547455  1089.03795909226 504.062587853997  1092.36881111613 504.084266120972  L 1092.37531930313 503.084287299446  C 1089.03961643629 503.062577461609  1085.70379975342 503.065139881387  1082.36813417607 503.091974355278  L 1082.37617862927 504.091941998141  Z M 1069.38782162925 504.319311372764  C 1072.71753346136 504.229510107452  1076.04785465053 504.163938407786  1079.37852071165 504.122601481295  L 1079.36611065838 503.122678488971  C 1076.03059402512 503.164075615957  1072.69542276605 503.229742810114  1069.36086175147 503.319674856329  L 1069.38782162925 504.319311372764  Z M 1056.4060901695 504.792346994594  C 1059.7335073315 504.639572054791  1063.06199210374 504.511010817221  1066.39128014696 504.40667349187  L 1066.35995629501 503.40716420412  C 1063.02581968651 503.511653479776  1059.69248751881 503.64040194583  1056.36022451616 503.793399377427  L 1056.4060901695 504.792346994594  Z M 1043.43563044978 505.510879562793  C 1046.7595620493 505.295185627099  1050.08501913015 505.103680864069  1053.41173759352 504.936380482493  L 1053.36151115379 503.937642626621  C 1050.02994786731 504.105186653928  1046.69964780034 504.296970312427  1043.37087543632 504.512978371175  L 1043.43563044978 505.510879562793  Z M 1030.47421657407 506.432977007704  C 1033.61842084994 506.192499452948  1036.76356256009 505.964439924063  1039.90956812682 505.748803756292  C 1040.08788671568 505.736310493801  1040.26621017613 505.723886863923  1040.44453846767 505.711532869479  L 1040.37542741635 504.713923896691  C 1040.19709074997 504.726278471317  1040.01875890836 504.738702586625  1039.84043193138 504.751196239838  C 1036.69205113123 504.966997206626  1033.54453477778 505.195229922065  1030.39795649252 505.435889047711  L 1030.47421657407 506.432977007704  Z M 1017.52311175004 507.494210140015  C 1020.84240399129 507.204087136933  1024.16289241501 506.927816212038  1027.48449029491 506.665404581123  L 1027.40573405633 505.668510677598  C 1024.08136293593 505.93114139902  1020.75810219816 506.207642985693  1017.4360386414 506.498008215828  L 1017.52311175004 507.494210140015  Z M 1004.58428257451 508.695888753827  C 1007.90023188862 508.369771464499  1011.21752759732 508.057492460622  1014.53608305806 507.759059898432  L 1014.44651604465 506.76307910037  C 1011.12518988361 507.061760827354  1007.80512452638 507.374300556582  1004.48640668787 507.700690125003  L 1004.58428257451 508.695888753827  Z M 991.659252033271 510.037871403622  C 994.971468111018 509.675798214215  998.285180637164 509.32754788865  1001.60030306276 508.993129522676  L 1001.49993581714 507.998179063605  C 998.182045557528 508.332876639336  994.865566374486 508.681417723124  991.550584889265 509.04379321162  L 991.659252033271 510.037871403622  Z M 978.749541487901 511.520000129164  C 982.057634459479 511.122013658095  985.367373757317 510.737833002193  988.678672935867 510.367468195697  L 988.567517271929 509.373665187866  C 985.253453451373 509.744339216226  981.940950814057 510.128840628983  978.630095877372 510.527159383563  L 978.749541487901 511.520000129164  Z M 965.856670496718 513.1421004741  C 969.160250977828 512.708247566993  972.465627468905 512.288181801389  975.77271363872 511.881914148743  L 975.650782640219 510.889375569339  C 972.34093534595 511.295982419543  969.032799157829 511.716398902911  965.726460479205 512.150614038823  L 965.856670496718 513.1421004741  Z M 952.982156635915 514.90398150649  C 956.280835773221 514.43431323071  959.581460392985 513.978411799907  962.883944288088 513.536289121509  L 962.751252307109 512.545131798888  C 959.446011129982 512.987623610628  956.142630780691 513.443905678789  952.841197537998 513.913966086047  L 952.982156635915 514.90398150649  Z M 940.123621957247 516.790415553665  C 942.616284201602 516.416168467658  945.109671542975 516.046766905727  947.603769850479 515.682212961398  C 948.407021112702 515.56412461562  949.210392236839 515.446853028922  950.013881977372 515.330398383117  L 949.870444632639 514.340738983053  C 949.066420719794 514.457271049693  948.262515482809 514.574620461293  947.458730165979 514.692787036218  C 944.963486336999 515.057508960014  942.468953762489 515.427080462399  939.975146578646 515.801499449059  L 940.123621957247 516.790415553665  Z M 927.277558701242 518.763023076783  C 930.569720859684 518.246223696144  933.863205683447 517.737885555756  937.157980546243 517.238013691375  L 937.007980521612 516.249327698448  C 933.711511804115 516.749456548615  930.4163337891 517.258056027293  927.122479119156 517.775121096211  L 927.277558701242 518.763023076783  Z M 914.444962321113 520.821418510665  C 917.733597957841 520.282633835544  921.023612764784 519.752301374314  924.314974150025 519.230426380614  L 924.15837149345 518.242764693621  C 920.865318008387 518.764907984989  917.57361179414 519.29551309186  914.283285458905 519.834574757973  L 914.444962321113 520.821418510665  Z M 901.626405714666 522.965509960402  C 904.911368011992 522.404764044276  908.197765922852 521.852460938341  911.485566891163 521.308606113884  L 911.322368594005 520.322012825946  C 908.032877356295 520.866147247975  904.744789897588 521.418734294731  901.458138790232 521.979768492195  L 901.626405714666 522.965509960402  Z M 888.822461152916 525.195201705282  C 892.103603457144 524.612519582064  895.386237754134 524.038270488417  898.670331525087 523.472460113031  L 898.500544873163 522.48697926957  C 895.214762738693 523.05308052995  891.930440828742 523.627624846922  888.647611678356 524.210606528955  L 888.822461152916 525.195201705282  Z M 876.033700254542 527.510394203054  C 879.310876082635 526.905801885955  882.589600215746 526.309632441389  885.869840174542 525.721891775063  L 885.6934727478 524.737567371838  C 882.411546406866 525.325610197571  879.131136670778 525.92208613483  875.852276035827 526.526989274826  L 876.033700254542 527.510394203054  Z M 863.260693960361 529.910984094378  C 866.53375700612 529.284508574809  869.808424600395 528.666445394641  873.084664304039 528.056800676461  L 872.901723976216 527.073676657603  C 869.623799946979 527.683634796134  866.347448835207 528.302015724639  863.072703096985 528.92881331733  L 863.260693960361 529.910984094378  Z M 850.504012507842 532.396864207437  C 853.7728166488 531.74853345374  857.04328151014 531.108604130751  860.315374694346 530.477082577668  L 860.125869632622 529.495202833717  C 856.852094254562 530.127049054105  853.579948036364 530.767307366886  850.30946339246 531.415971429553  L 850.504012507842 532.396864207437  Z M 1275.59661018737 622.02868880373  C 1275.36870321761 625.340959297867  1275.00475305329 628.642462982828  1274.50568116883 631.924840881142  L 1275.49431883117 632.075159118858  C 1275.99750959252 628.765691514842  1276.36446346427 625.436940277654  1276.59425136698 622.097333372027  L 1275.59661018737 622.02868880373  Z M 845.000311830393 533.496716659541  C 845.854273149895 533.324780540972  846.708349871543 533.153418091691  847.562541417005 532.982629427735  L 847.366480081635 532.002037793683  C 846.511009184505 532.173082253617  845.655653395996 532.344701923247  844.800413297083 532.516896686005  L 845.000311830393 533.496716659541  Z M 844.634128906743 526.636926641973  L 840 534  L 847.128397545263 538.987579416579  L 844.634128906743 526.636926641973  Z " fill-rule="nonzero" fill="#333333" stroke="none" />
  </g>
</svg>