<?xml version="1.0" encoding="utf-8"?>
<svg version="1.1" xmlns:xlink="http://www.w3.org/1999/xlink" width="46px" height="8px" viewBox="558 592  46 8" xmlns="http://www.w3.org/2000/svg">
  <g transform="matrix(0.642787609686541 0.766044443118983 -0.766044443118978 0.642787609686544 664.10288687103 -232.173236825309 )">
    <path d="M 582.057927426362 592.050022388247  C 579.807110313479 594.531470683324  577.678215919669 597.120837772461  575.678777222106 599.808961320864  L 576.481157001254 600.405775102553  C 578.461259794257 597.743647500132  580.569566360661 595.179321316207  582.798616572199 592.721870279692  L 582.057927426362 592.050022388247  Z M 591.421415247166 582.953619663234  C 588.875887823763 585.131704476433  586.437714427097 587.432209584033  584.115522401294 589.84699477367  L 584.836313232617 590.540147410166  C 587.136048114105 588.148714802439  589.550642749314 585.870457112203  592.071553226285 583.713435830544  L 591.421415247166 582.953619663234  Z M 601.90112163938 575.165188232387  C 599.319534966545 576.833309079678  596.813606932867 578.615703376533  594.390802500364 580.507061510883  C 594.173230875559 580.679630673486  593.956355297631 580.853075584613  593.74018104549 581.027392022486  L 594.367895014197 581.805836094652  C 594.580976177361 581.634013831025  594.794745398281 581.463046597913  595.009197522277 581.292938517899  C 597.407626783375 579.420754449716  599.888302543788 577.656391835882  602.443841314775 576.005102129128  L 601.90112163938 575.165188232387  Z M 613.291114653249 568.786512362743  C 610.270584848301 570.235706281519  607.322267188496 571.830835191408  604.456594135718 573.566254815413  L 604.974600689198 574.421631463768  C 607.812560773974 572.702994503949  610.732366237358 571.123291553554  613.723685506319 569.688112305664  L 613.291114653249 568.786512362743  Z M 625.087574143635 563.996163580958  C 622.01399569387 565.028847542166  618.990689947753 566.205524589854  616.027678306236 567.52229437339  L 616.433784765234 568.436120146697  C 619.465666771916 567.088744200648  622.561237116298 565.889507110458  625.709542290861 564.84265231143  L 625.087574143635 563.996163580958  Z M 573.915146878029 602.253677206382  C 571.994913444298 604.998939830753  570.209228226049 607.835899746514  568.564409773433 610.7545185251  L 569.435590226567 611.2454814749  C 571.064502188699 608.355087684765  572.832918640972 605.545563061836  574.734582137824 602.826848956387  L 573.915146878029 602.253677206382  Z M 626.0224994205 570.737537666472  L 630 563  L 622.465571800146 558.650012448151  L 626.0224994205 570.737537666472  Z " fill-rule="nonzero" fill="#333333" stroke="none" />
  </g>
</svg>