<?xml version="1.0" encoding="utf-8"?>
<svg version="1.1" xmlns:xlink="http://www.w3.org/1999/xlink" width="40px" height="8px" viewBox="726 568  40 8" xmlns="http://www.w3.org/2000/svg">
  <g transform="matrix(-0.798635510047298 0.601815023152043 -0.601815023152037 -0.798635510047289 1686.02028373825 579.865504475626 )">
    <path d="M 765.151250365973 591.863208067043  C 767.034633944372 594.59140995376  768.760188746368 597.425259717817  770.319435159256 600.35083143322  L 771.201920643551 599.880491800605  C 769.624712246634 596.921218502184  767.879279644993 594.054723760543  765.974200133561 591.295093923559  L 765.151250365973 591.863208067043  Z M 757.03475616999 581.825518330195  C 757.539253658877 582.355386718061  758.0370323189 582.891611861634  758.527972824347 583.43406521895  C 760.245398526337 585.36174149245  761.875972811329 587.365075085509  763.414832801048 589.438091435979  L 764.217779633687 588.84204078045  C 762.660416309004 586.744098370317  761.010190015213 584.716712273569  759.272027143535 582.765934809883  C 758.774582185115 582.216245377712  758.270195699951 581.672877816869  757.758989023412 581.135962840025  L 757.03475616999 581.825518330195  Z M 747.459130843156 573.161291441868  C 750.075992243246 575.196544657265  752.574117558513 577.380031265687  754.9412306589 579.701021314792  L 755.64134681628 578.98699234747  C 753.246965384632 576.63926528884  750.720062522313 574.430625663382  748.073055776185 572.371927028808  L 747.459130843156 573.161291441868  Z M 736.704134558199 566.013460800134  C 739.593967255885 567.637987259584  742.388367840015 569.42672123515  745.073604243272 571.370872643012  L 745.660048727842 570.560883219305  C 742.943879321955 568.594335853851  740.117288201266 566.784996276223  737.194165621792 565.141755828992  L 736.704134558199 566.013460800134  Z M 771.676877550535 603.006709214369  C 773.134697608978 605.984120827713  774.420762552968 609.042597706776  775.528752483175 612.167110077152  L 776.471247516825 611.832889922848  C 775.35049392254 608.672384241324  774.049613951372 605.578674757331  772.575000305726 602.566964383122  L 771.676877550535 603.006709214369  Z M 740.169016553436 560.007147088531  L 732 563  L 734.591042529064 571.305209125156  L 740.169016553436 560.007147088531  Z " fill-rule="nonzero" fill="#333333" stroke="none" />
  </g>
</svg>