<?xml version="1.0" encoding="utf-8"?>
<svg version="1.1" xmlns:xlink="http://www.w3.org/1999/xlink" width="96px" height="12px" viewBox="566 404  96 12" xmlns="http://www.w3.org/2000/svg">
  <g transform="matrix(0.559192903470745 -0.829037572555042 0.829037572555042 0.559192903470747 -69.2498474786044 689.75997912579 )">
    <path d="M 554.233159214549 347.46815403343  C 548.640824021024 343.784102692381  542.890723872387 340.34530915873  536.99919699934 337.16154435831  L 536.048358077555 338.921062856315  C 541.888807699095 342.077225651523  547.589056711037 345.486206179821  553.132908528801 349.138318225511  L 554.233159214549 347.46815403343  Z M 575.181092241127 363.035918393833  C 570.0406753517 358.743767254472  564.715800305172 354.677484132834  559.221597105324 350.848622892335  L 558.078098599059 352.489479731359  C 563.524669189448 356.285146230871  568.803379635886 360.316176255954  573.899231105861 364.571116110706  L 575.181092241127 363.035918393833  Z M 594.19150199313 380.925445063399  C 592.103906410038 378.703021886953  589.97245398993 376.522206022376  587.798401215487 374.384283051902  C 585.176639066777 371.845660977125  582.495006394948 369.369608805474  579.755767515461 366.958217264463  L 578.434245720982 368.459410172359  C 581.147801874564 370.848192838889  583.804332855808 373.300984492359  586.401598738686 375.815716995071  C 588.554894105589 377.933370711771  590.666029177515 380.093471730091  592.733761569704 382.294748849236  L 594.19150199313 380.925445063399  Z M 610.95571118712 400.928756673409  C 606.951447588 395.561045780579  602.715353226946 390.370240712899  598.259464465957 385.371090530124  L 596.766456386654 386.701852295105  C 601.1837143214 391.657661785948  605.383083388358 396.803464588226  609.352631576115 402.124639510805  L 610.95571118712 400.928756673409  Z M 625.353177801843 422.69763676277  C 621.980845361518 416.911980264831  618.358183596412 411.275911207225  614.495485872233 405.805443814777  L 612.861717788483 406.959047667283  C 616.690927422493 412.38208823051  620.282182116038 417.969294756724  623.625277742896 423.704791858221  L 625.353177801843 422.69763676277  Z M 635.473358936168 442.125368648853  C 633.25223897757 437.317173027179  630.866190929529 432.586895417171  628.319457083424 427.942946050106  L 626.565840534309 428.904626349722  C 629.757989607084 434.725485364401  632.695163389106 440.682581738868  635.369016247844 446.758989087081  L 635.473358936168 442.125368648853  Z M 531.660846383032 334.366174079883  C 525.68817240586 331.337376833016  519.586446000127 328.570087987224  513.373004501035 326.072170467054  L 512.626995498965 327.927829532946  C 518.786568871676 330.404091077651  524.83539567753 333.147388603125  530.756288889294 336.149927353328  L 531.660846383032 334.366174079883  Z M 627.215670925923 444.679321670175  L 637 448  L 641.112316382374 438.521136462041  L 627.215670925923 444.679321670175  Z " fill-rule="nonzero" fill="#333333" stroke="none" />
  </g>
</svg>