<?xml version="1.0" encoding="utf-8"?>
<svg version="1.1" xmlns:xlink="http://www.w3.org/1999/xlink" width="72px" height="10px" viewBox="710 350  72 10" xmlns="http://www.w3.org/2000/svg">
  <g transform="matrix(-0.422618261740698 -0.906307787036656 0.906307787036651 -0.422618261740703 739.53395886055 1181.1350920473 )">
    <path d="M 740.908073745234 367.576656327298  C 743.269700160483 361.382622587712  745.997672723942 355.334548157498  749.077538916715 349.464475114772  L 747.306504493751 348.535261967708  C 744.189790290449 354.475565500898  741.429179827988 360.596000058578  739.039298537505 366.864140206094  L 740.908073745234 367.576656327298  Z M 733.654153539228 392.344994904956  C 734.113377603485 390.101314932908  734.618661207693 387.867309005437  735.169684339996 385.64439198813  C 736.245492166746 381.445139398375  737.484232453345 377.28932178243  738.883096004888 373.186363635334  L 736.990093640383 372.540962947403  C 735.573653315978 376.695474917129  734.319444801603 380.903541383143  733.23031574692 385.155608033779  C 732.671969569561 387.407622126655  732.160013775033 389.670884904725  731.694773329768 391.943959750914  L 733.654153539228 392.344994904956  Z M 730.445813577646 417.964542441074  C 730.759095042305 411.342972535363  731.46596705059 404.745899655341  732.562684667091 398.208274416619  L 730.590245949899 397.877388474152  C 729.480407028851 404.493230904323  728.765077891076 411.169232216853  728.448048276989 417.870023641402  L 730.445813577646 417.964542441074  Z M 731.220999013091 443.77255958314  C 730.510861803159 437.18172970858  730.193392699721 430.554494086636  730.270273621531 423.925963132029  L 728.270408132832 423.902767720659  C 728.192607395406 430.610603477202  728.513874749851 437.317128403515  729.232508154666 443.986812018274  L 731.220999013091 443.77255958314  Z M 751.94222335087 344.233515927066  C 755.229523585912 338.477042140361  758.856323262487 332.92120172451  762.803407967824 327.5954289523  L 761.196592032176 326.4045710477  C 757.202283775659 331.794062215095  753.532092489091 337.416373592125  750.205462469542 343.241718749671  L 751.94222335087 344.233515927066  Z M 722.535211948133 444.074853315152  L 731 450  L 737.599729773344 442.049932898469  L 722.535211948133 444.074853315152  Z " fill-rule="nonzero" fill="#02a7f0" stroke="none" />
  </g>
</svg>