<?xml version="1.0" encoding="utf-8"?>
<svg version="1.1" xmlns:xlink="http://www.w3.org/1999/xlink" width="66px" height="66px" xmlns="http://www.w3.org/2000/svg">
  <g transform="matrix(1 0 0 1 -1075 -580 )">
    <path d="M 1108 582  C 1125.36 582  1139 595.64  1139 613  C 1139 630.36  1125.36 644  1108 644  C 1090.64 644  1077 630.36  1077 613  C 1077 595.64  1090.64 582  1108 582  Z " fill-rule="nonzero" fill="#ffffff" stroke="none" />
    <path d="M 1108 581.5  C 1125.64 581.5  1139.5 595.36  1139.5 613  C 1139.5 630.64  1125.64 644.5  1108 644.5  C 1090.36 644.5  1076.5 630.64  1076.5 613  C 1076.5 595.36  1090.36 581.5  1108 581.5  Z " stroke-width="3" stroke="#797979" fill="none" />
  </g>
</svg>