<?xml version="1.0" encoding="utf-8"?>
<svg version="1.1" xmlns:xlink="http://www.w3.org/1999/xlink" width="66px" height="66px" xmlns="http://www.w3.org/2000/svg">
  <g transform="matrix(1 0 0 1 -1129 -484 )">
    <path d="M 1162 484  C 1180.48 484  1195 498.52  1195 517  C 1195 535.48  1180.48 550  1162 550  C 1143.52 550  1129 535.48  1129 517  C 1129 498.52  1143.52 484  1162 484  Z " fill-rule="nonzero" fill="#ffffff" stroke="none" />
    <path d="M 1162 484.5  C 1180.2 484.5  1194.5 498.8  1194.5 517  C 1194.5 535.2  1180.2 549.5  1162 549.5  C 1143.8 549.5  1129.5 535.2  1129.5 517  C 1129.5 498.8  1143.8 484.5  1162 484.5  Z " stroke-width="1" stroke="#797979" fill="none" />
  </g>
</svg>