<?xml version="1.0" encoding="utf-8"?>
<svg version="1.1" xmlns:xlink="http://www.w3.org/1999/xlink" width="266px" height="22px" viewBox="848 624  266 22" xmlns="http://www.w3.org/2000/svg">
  <g transform="matrix(0.990268068741571 -0.139173100960065 0.139173100960063 0.990268068741569 -78.8278945451211 142.708588390928 )">
    <path d="M 670.354901290165 512.135703390414  C 665.047386444774 508.116807270434  659.796535215423 504.023621972039  654.60389876592 499.857356670773  L 653.352283167797 501.417311283747  C 658.559514830131 505.595286923175  663.82512489962 509.699977149978  669.147557852512 513.730169389913  L 670.354901290165 512.135703390414  Z M 691.335194969402 527.428068077581  C 685.884602039909 523.605467317078  680.487924910549 519.706559716067  675.146757823833 515.732497058155  L 673.952883106097 517.337072752334  C 679.309062888417 521.322305514462  684.720908738342 525.232171977471  690.186821932335 529.065517120372  L 691.335194969402 527.428068077581  Z M 712.859395066766 541.944884214773  C 707.272980223353 538.323667698941  701.73766158808 534.624228264947  696.255074359808 530.847658771131  L 695.120529883147 532.494719435004  C 700.61852730395 536.281903928743  706.169404346678 539.991741569212  711.771521216289 543.623136426286  L 712.859395066766 541.944884214773  Z M 734.898847220983 555.666826108481  C 729.184047448452 552.25181462721  723.517456269622 548.756768285374  717.90074766278 545.182719561144  L 716.827043803755 546.87007252455  C 722.459539585048 550.454167013062  728.142058145887 553.959037063097  733.872920802801 557.383647294416  L 734.898847220983 555.666826108481  Z M 757.442772071528 568.534381388625  C 751.866830932158 565.501546484394  746.336708567039 562.385220337254  740.854272201157 559.18645516299  C 740.587733886303 559.030675424044  740.321296982421 558.874722236284  740.05496165875 558.71859569877  L 739.043527799086 560.443994651918  C 739.310825817584 560.600685523926  739.578225865237 560.757202280163  739.845727771772 560.913544820963  C 745.345654144621 564.122523283672  750.893420626261 567.248796491669  756.487153888207 570.291308788293  L 757.442772071528 568.534381388625  Z M 780.494200439732 580.468035850006  C 774.521690675123 577.529387944278  768.595788348694 574.496948276409  762.718693803952 571.371842819892  L 761.779704098074 573.137713237633  C 767.675321877057 576.272668299251  773.619901268484 579.314665511213  779.611234993902 582.262575351235  L 780.494200439732 580.468035850006  Z M 804.014394986011 591.448969650157  C 797.926699867549 588.757038643084  791.881737382872 585.969488234481  785.881752083651 583.087353468145  L 785.015766946766 584.890148448916  C 791.034662803287 587.781367033282  797.098677602871 590.577703152027  803.20555971957 593.278118499147  L 804.014394986011 591.448969650157  Z M 827.964000012997 601.458808693292  C 821.771305914195 599.018098919302  815.617398141438 596.480102101719  809.504561698813 593.845760622735  L 808.713030160133 595.682463599069  C 814.845132840599 598.32510790931  821.018436298456 600.871103902194  827.230648327845 603.319506225371  L 827.964000012997 601.458808693292  Z M 852.302941302524 610.480803789888  C 846.015610288814 608.2953992218  839.763054393312 606.011202755802  833.547595249085 603.629062535617  L 832.831841756655 605.496600202727  C 839.066890581596 607.886248374496  845.339153078123 610.177644096154  851.646300295952 612.369936550836  L 852.302941302524 610.480803789888  Z M 876.996536577164 618.47783078794  C 870.623180139743 616.557713050982  864.280430025132 614.537433440323  857.970641356359 612.417742104866  L 857.333744979156 614.313622640318  C 863.663420633342 616.439994749551  870.026161620182 618.466641811368  876.419605393828 620.392811312565  L 876.996536577164 618.47783078794  Z M 901.998328144991 625.455715640603  C 895.551776645063 623.797856128775  889.131709531584 622.038666832513  882.740510636118 620.17880095542  L 882.181683122229 622.099142542149  C 888.593025589204 623.964870283644  895.033327260082 625.729604135152  901.500196790047 627.392688834331  L 901.998328144991 625.455715640603  Z M 927.264577549236 631.405261813258  C 920.755617824868 630.012434577477  914.268976234992 628.517279198881  907.807061330903 626.920350842785  L 907.327237751103 628.861940225808  C 913.809519107102 630.463901728433  920.316605081633 631.963769488814  926.846079532237 633.360986591893  L 927.264577549236 631.405261813258  Z M 952.753007466759 636.316514093239  C 946.192530781991 635.191049713171  939.650168635436 633.962430054788  933.128350267956 632.631111316172  L 932.728333497899 634.59069968715  C 939.270707119065 635.926214432595  945.833689268502 637.158706414205  952.414843048976 638.287717996072  L 952.753007466759 636.316514093239  Z M 978.42047300671 640.180555447267  C 978.106870446896 640.140063575601  977.793294913268 640.099362666571  977.479746614446 640.058452747255  C 971.193747139785 639.233532437419  964.920463224064 638.314453896382  958.662008027991 637.301526716485  L 958.342467404784 639.275835149866  C 964.620892828187 640.291994498951  970.914194855331 641.214002068953  977.220253416929 642.041547256643  C 977.534929059067 642.082604598928  977.849632056193 642.123452015363  978.164362197259 642.164089478556  L 978.42047300671 640.180555447267  Z M 1004.22516495348 643.034852930846  C 997.595850162549 642.423767617646  990.975437950527 641.719674823558  984.365884065799 640.922782545955  L 984.126484331853 642.908402793481  C 990.754616032803 643.707534937577  997.393636581114 644.413606761833  1004.04158473127 645.026409684246  L 1004.22516495348 643.034852930846  Z M 1030.1168064 644.94588505964  C 1023.46961165255 644.57704654922  1016.82792060821 644.114937696975  1010.19369530139 643.559695015346  L 1010.02689113727 645.552726969639  C 1016.67976360556 646.109530300697  1023.34012279571 646.572938026283  1030.0060011585 646.942813250251  L 1030.1168064 644.94588505964  Z M 1056.06092877394 645.911107748164  C 1049.40470323133 645.785007061417  1042.75057518916 645.565497339218  1036.10051035586 645.252643427346  L 1036.0065238217 647.250433839626  C 1042.67528033745 647.56416710623  1049.34811148275 647.7842938158  1056.02304602403 647.910748940293  L 1056.06092877394 645.911107748164  Z M 1082.02299363707 645.929236031611  C 1075.36659848302 646.046041041658  1068.70889183441 646.069422674576  1062.05184045683 645.999374023152  L 1062.03079667339 647.999263309883  C 1068.70655937086 648.069508850687  1075.38297918117 648.0460614978  1082.05808381063 647.928928177848  L 1082.02299363707 645.929236031611  Z M 649.946444308084 496.088148305513  C 644.789073242485 491.878307031908  639.691038174682 487.596293140381  634.653845124775 483.243371588686  L 633.346154875225 484.756628411314  C 638.397506225129 489.121784945585  643.509870604751 493.415834515849  648.681737760936 497.637508608865  L 649.946444308084 496.088148305513  Z M 1101.95347570655 645.300054362777  C 1097.30843785409 645.511878538681  1092.66143523633 645.678165975533  1088.0131375707 645.798892708297  L 1088.06506455278 647.798218491788  C 1092.73204717388 647.677006468755  1097.39772783844 647.509995454062  1102.06143251498 647.297209575096  L 1101.95347570655 645.300054362777  Z M 1101.39796575428 653.948153484825  L 1108 646  L 1100.62036614094 638.768056685353  L 1101.39796575428 653.948153484825  Z " fill-rule="nonzero" fill="#333333" stroke="none" />
  </g>
</svg>