<?xml version="1.0" encoding="utf-8"?>
<svg version="1.1" xmlns:xlink="http://www.w3.org/1999/xlink" width="324px" height="28px" viewBox="690 574  324 28" xmlns="http://www.w3.org/2000/svg">
  <g transform="matrix(0.788010753606725 -0.615661475325657 0.615661475325654 0.78801075360672 -181.394109564414 649.193253856708 )">
    <path d="M 764.825157801304 516.122533380971  C 760.355427617257 511.185058629005  755.934726820757 506.203419696884  751.563706318461 501.178350084134  L 750.054702682753 502.490945995837  C 754.434393175375 507.525982915971  758.863862503893 512.517503010037  763.342458470526 517.464771323555  L 764.825157801304 516.122533380971  Z M 782.503040132285 535.151887132727  C 777.907616799577 530.331178757635  773.360069037012 525.46505798957  768.861066428271 520.554241319095  L 767.386372387965 521.905269626529  C 771.894298841635 526.825826981829  776.450866739219 531.701599779656  781.055405168931 536.531870108302  L 782.503040132285 535.151887132727  Z M 800.664978063492 553.718469322838  C 799.802287640295 552.860579526341  798.941818062666 552.000459343666  798.08357796907 551.138117409773  C 794.241562192636 547.282388224937  790.43083082384 543.395611859329  786.651758643835 539.478170573047  L 785.212352731196 540.866734802263  C 788.998781355213 544.7918018856  792.816929631159 548.686145488692  796.666422075962 552.549382635293  C 797.526954475351 553.414026357605  798.38972194194 554.276442761517  799.254715817104 555.136623191927  L 800.664978063492 553.718469322838  Z M 819.407591680199 571.683040713698  C 814.517486160184 567.165624217194  809.691574645092 562.579209221466  804.931307623822 557.925174231699  L 803.533141216905 559.355254893259  C 808.306904482409 564.022484939651  813.146498356111 568.621903276719  818.050468236703 573.152127490956  L 819.407591680199 571.683040713698  Z M 838.798553350795 588.94577502585  C 833.745532489927 584.611358804558  828.754123225872 580.205628669467  823.825825789978 575.729908818636  L 822.481228863663 577.210469221235  C 827.423498941341 581.698878572043  832.429059780957 586.117099773206  837.496406897764 590.463804872349  L 838.798553350795 588.94577502585  Z M 858.811598533946 605.483290345258  C 853.602506514454 601.337745250553  848.452360232398 597.118667420272  843.362707629549 592.827324951757  L 842.073501404575 594.356359715747  C 847.177584121174 598.659868939989  852.342332027835 602.890908642281  857.566192794084 607.048207129984  L 858.811598533946 605.483290345258  Z M 879.502560068365 621.13901959652  C 874.093512963965 617.264733141717  868.763370177745 613.28145358972  863.515400967955 609.191624096382  L 862.2860077693 610.769151390313  C 867.555245612509 614.875555882621  872.906990059952 618.874978614808  878.337958603943 622.764966529561  L 879.502560068365 621.13901959652  Z M 900.984528724212 635.686823040927  C 895.379344348723 632.102162076727  889.84722713852 628.404511838611  884.391570233445 624.596140290878  L 883.246782636221 626.236098021199  C 888.724549878102 630.05990389317  894.279087298533 633.772539731291  899.906988006181 637.371728379807  L 900.984528724212 635.686823040927  Z M 923.200848089193 649.0849865693  C 922.781049101896 648.847031888316  922.361735271364 648.608222310136  921.942909207606 648.368559321223  C 916.585921128484 645.306096917655  911.286843092142 642.143429356947  906.048470766756 638.882225187663  L 904.99145286863 640.58008064766  C 910.250937820069 643.85442870589  915.571371802626 647.029845224997  920.94994800622 650.104655004964  C 921.371011904231 650.345597892073  921.792566034399 650.585683052671  922.214607774482 650.824908993329  L 923.200848089193 649.0849865693  Z M 946.202584264936 661.036265333147  C 940.195126874092 658.188178774752  934.268785726845 655.172050748056  928.430560099508 651.991443436359  L 927.473755384495 653.747724944924  C 933.344841649699 656.94623440562  939.304539395804 659.979338804447  945.345809950856 662.843455908248  L 946.202584264936 661.036265333147  Z M 970.014375540177 671.278898171143  C 963.815274926514 668.876338509325  957.684824357645 666.300271062686  951.630264172322 663.553738283122  L 950.80403972652 665.375098534461  C 956.892678195619 668.137090260769  963.057634199695 670.727657184627  969.291626647514 673.143739729601  L 970.014375540177 671.278898171143  Z M 994.520204927823 679.689423926793  C 990.474273178672 678.498620137425  986.456155342527 677.215275002127  982.469014426767 675.84039875263  C 980.174760889574 675.048372187341  977.888682539314 674.232859863243  975.611139336116 673.393990188849  L 974.919892005753 675.270736609724  C 977.210364604004 676.114368467071  979.50942121252 676.934509245697  981.81669979284 677.731029795885  C 985.83282970488 679.115907946832  989.880162737831 680.408586939229  993.955512710298 681.60804913758  L 994.520204927823 679.689423926793  Z M 1019.67876259127 685.828225552995  C 1013.15803530826 684.557808935034  1006.68528026786 683.052478119686  1000.27313472923 681.315172080464  L 999.750112131143 683.245572909798  C 1006.20870212045 684.995462603611  1012.72834061824 686.511696830675  1019.29629883118 687.791315329909  L 1019.67876259127 685.828225552995  Z M 1045.29963141622 689.575842590288  C 1044.21766984239 689.471963846675  1043.13641142193 689.360887203515  1042.05592795703 689.242620036978  C 1036.53461734105 688.630495168021  1031.03303661072 687.851889054977  1025.55869774435 686.907864823609  L 1025.21882352883 688.878774643369  C 1030.73327115967 689.829715444294  1036.27516241744 690.614012330883  1041.83692902908 691.230594229616  C 1042.92669188885 691.349883309406  1044.01723672675 691.461917041499  1045.10849106262 691.566687979872  L 1045.29963141622 689.575842590288  Z M 1071.15811966697 690.685302308354  C 1064.51796427512 690.751432205274  1057.87786490939 690.547613595676  1051.25426622413 690.074351250106  L 1051.11172772932 692.069265478211  C 1057.78938837109 692.546390601337  1064.48368437223 692.751872782859  1071.17803685678 692.685203132283  L 1071.15811966697 690.685302308354  Z M 1096.9893827343 689.061059768991  C 1090.3932441369 689.827214058284  1083.76868750329 690.324919815214  1077.13211899519 690.552944437873  L 1077.20079609743 692.551764953985  C 1083.891532422 692.321879189397  1090.57015883091 691.820111147256  1097.22013525499 691.047703489993  L 1096.9893827343 689.061059768991  Z M 1122.51017037088 684.730470737654  C 1116.02676743732 686.171736350033  1109.48995235528 687.361239608637  1102.9144359852 688.296303580401  L 1103.19601100658 690.276383252368  C 1109.82267726259 689.334045568122  1116.41034117945 688.135289354685  1122.94417746331 686.682812368549  L 1122.51017037088 684.730470737654  Z M 1147.46671108666 677.847441634982  C 1141.16111218716 679.933390503715  1134.77705396208 681.774224553204  1128.3289034982 683.365801054544  L 1128.80817358123 685.307527139116  C 1135.30648317211 683.703570019752  1141.74020196095 681.848416417799  1148.09485110172 679.746241287784  L 1147.46671108666 677.847441634982  Z M 1171.63613661575 668.540630843735  C 1167.30419528668 670.428742545484  1162.93022602942 672.218924699273  1158.51756454377 673.909812066832  C 1156.72544600118 674.594844632822  1154.92571584703 675.259796095476  1153.11871228983 675.904541495933  L 1153.79081831464 677.788227640549  C 1155.61213646992 677.13837473976  1157.42612255663 676.468152824941  1159.23243559062 675.777687881104  C 1163.67343452655 674.075955120966  1168.07549078077 672.274284171746  1172.43524684692 670.374049191641  L 1171.63613661575 668.540630843735  Z M 1194.94138618489 657.217910561213  C 1189.08827079352 660.366154225107  1183.13677767765 663.327967960512  1177.09588233495 666.098885030805  L 1177.92973220957 667.916766871467  C 1184.00906497428 665.12821882054  1189.99842665755 662.147559454148  1195.88878465182 658.979283930165  L 1194.94138618489 657.217910561213  Z M 747.643285600601 496.644158305102  C 743.302214451749 491.593193434398  739.011293974431 486.499341901469  734.771155966369 481.363353728092  L 733.228844033631 482.636646271908  C 737.477392424471 487.782821761452  741.776824012411 492.886777031822  746.126505746569 497.947760573589  L 747.643285600601 496.644158305102  Z M 1210.37655439617 648.343137764371  C 1207.01606838996 650.404109183482  1203.61710773444 652.401679129897  1200.1814764984 654.334787351979  L 1201.16221697034 656.077815787404  C 1204.63080032072 654.126166575677  1208.06224161705 652.109229147963  1211.45470784858 650.028080913914  L 1210.37655439617 648.343137764371  Z M 1214.15220508335 656.165906449797  L 1216 646  L 1206.01999098175 643.324290749051  L 1214.15220508335 656.165906449797  Z " fill-rule="nonzero" fill="#02a7f0" stroke="none" />
  </g>
</svg>