<?xml version="1.0" encoding="utf-8"?>
<svg version="1.1" xmlns:xlink="http://www.w3.org/1999/xlink" width="44px" height="10px" viewBox="162 112 44 10" xmlns="http://www.w3.org/2000/svg">
  <g transform="matrix(-0.6427876096865405 -0.7660444431189782 0.7660444431189775 -0.6427876096865388 212.6457203374031 333.15832786721705 )">
    <path d="M 211.94598247134962 113.55102900703726  C 213.9772559893408 116.17190225951407  215.86318158299403 118.90226506025408  217.59525384114312 121.72980363700081  L 218.44798073439898 121.20744662736259  C 216.69679927194463 118.34871304007874  214.79006707665894 115.58822732712079  212.73638339623227 112.93843911327092  L 211.94598247134962 113.55102900703726  Z M 202.35202270373355 105.38449525623736  C 202.94114207803963 105.62428870461466  203.51026959396526 105.91052877541297  204.0540287462812 106.24051138001523  C 206.3051161610327 107.59333112009213  208.3374395579191 109.28053963557898  210.081331829122 111.2443001974686  L 210.82905731209036 110.58029221399265  C 209.01833517978125 108.54127594522015  206.90820440961429 106.78933130141965  204.5709617715533 105.38448296954081  C 203.9824643858349 105.02748583633992  203.36655018897474 104.71777934387194  202.72902542250705 104.45828310449383  L 202.35202270373355 105.38449525623736  Z M 190.6131748091138 107.23276925630555  C 191.08871779771746 106.88211258689664  191.5774052637303 106.54964084259817  192.07818089677602 106.23607266953412  C 193.85311814302585 105.12083695288038  195.90265002841082 104.51987243123773  197.99877963006804 104.50003244934375  C 198.5282188287577 104.5076207887459  199.05657577572504 104.5502330544158  199.58038809928706 104.62759000425612  L 199.72648420547534 103.63831960251721  C 199.15510919654264 103.55393856389358  198.57874700022282 103.50771975588572  198.001226865819 103.4999702481444  C 195.7162901996365 103.51938959221367  193.48169608388162 104.17336901600044  191.54682249406534 105.38892521413393  C 191.02481685568387 105.71580975791312  190.51540741700668 106.06239114282923  190.0196943668774 106.42792084530947  L 190.6131748091138 107.23276925630555  Z M 182.407970748204 116.96831593019758  C 183.58189219419054 115.11511728390965  184.82895286865585 113.30927364226437  186.14620444268166 111.55505442144931  C 186.8275296864386 110.69205510258656  187.56898967575805 109.87828246624463  188.36504398868647 109.11981727719106  L 187.67523706771738 108.39582389891808  C 186.84212609990206 109.1895959537194  186.06635744618532 110.04145202746456  185.35376903090082 110.94498161197191  C 184.01795729311692 112.72338699736272  182.7534337649903 114.55423763452835  181.56319885570664 116.4331893567157  L 182.407970748204 116.96831593019758  Z M 176.37059920866574 128.37842023576687  C 177.68774846109886 125.3370532861129  179.1862063352916 122.37746113258046  180.8578945111632 119.51559920050136  L 179.994413685627 119.01121753555776  C 178.30254875883386 121.90762124176  176.78600496901956 124.90293474247538  175.45295813904994 127.98101003540157  L 176.37059920866574 128.37842023576687  Z M 219.11157852835078 124.29913783933267  C 219.92594627927502 125.73242028844616  220.7010618430398 127.18765236429782  221.43606025102315 128.66321014118904  L 222.35574134720483 128.26673011035382  C 221.60534215928757 126.75797930495419  220.8134720798562 125.27021264250958  219.98103437624735 123.80512718301196  L 219.11157852835078 124.29913783933267  Z M 174.4702886106617 133.16978993692763  C 174.71629311384473 132.4884002261359  174.97122387562817 131.81026631755316  175.23501512222913 131.1355631741072  L 174.30366790956987 130.77143082252078  C 174.03669278552405 131.45427742086935  173.77868508956297 132.14059619261155  173.5297113893383 132.83021006307237  L 174.4702886106617 133.16978993692763  Z M 215.75635553424982 130.21929398851543  L 224 133  L 227.17928950385587 124.90172127852641  L 215.75635553424982 130.21929398851543  Z " fill-rule="nonzero" fill="rgba(51, 51, 51, 1)" stroke="none" class="fill" />
  </g>
</svg>