<?xml version="1.0" encoding="utf-8"?>
<svg version="1.1" xmlns:xlink="http://www.w3.org/1999/xlink" width="19.328611641237714px" height="18px" viewBox="272.64757585874975 119.37367175568062 19.328611641237714 18" xmlns="http://www.w3.org/2000/svg">
  <g transform="matrix(-0.4220295801578659 0.9065820610798431 -0.9065820610798416 -0.4220295801578693 517.8371145067416 -73.38772901015608 )">
    <path d="M 271.9459824713496 112.55102900703726  C 273.9772559893408 115.17190225951407  275.863181582994 117.90226506025407  277.5952538411431 120.7298036370008  L 278.447980734399 120.20744662736257  C 276.69679927194466 117.3487130400787  274.79006707665894 114.58822732712079  272.73638339623227 111.93843911327092  L 271.9459824713496 112.55102900703726  Z M 262.35202270373355 104.38449525623736  C 262.9411420780382 104.62428870461406  263.5102695939624 104.91052877541152  264.05402874627714 105.24051138001276  C 266.30511616103024 106.59333112009007  268.33743955791806 108.28053963557775  270.081331829122 110.24430019746858  L 270.82905731209036 109.58029221399265  C 269.0183351797802 107.54127594521896  266.90820440961176 105.78933130141755  264.57096177154915 104.38448296953831  C 263.98246438583203 104.02748583633849  263.36655018897324 103.71777934387133  262.72902542250705 103.45828310449383  L 262.35202270373355 104.38449525623736  Z M 250.61317480911381 106.23276925630555  C 251.08871779771468 105.88211258689871  251.57740526372484 105.54964084260187  252.0781808967675 105.23607266953947  C 253.85311814301923 104.12083695288233  255.90265002840735 103.51987243123777  257.998779630068 103.50003244934375  C 258.5282188287577 103.5076207887459  259.05657577572504 103.55023305441578  259.5803880992871 103.62759000425612  L 259.72648420547534 102.63831960251721  C 259.15510919654264 102.55393856389358  258.5787470002228 102.50771975588572  258.0012268658189 102.4999702481444  C 255.71629019963297 102.51938959221373  253.48169608387485 103.17336901600244  251.54682249405667 104.38892521413938  C 251.02481685567827 104.71580975791693  250.5154074170039 105.0623911428313  250.01969436687742 105.42792084530947  L 250.61317480911381 106.23276925630555  Z M 242.407970748204 115.96831593019758  C 243.5818921941905 114.11511728390977  244.8289528686555 112.30927364226488  246.14620444268124 110.55505442144991  C 246.82752968643828 109.69205510258698  247.5689896757579 108.87828246624477  248.3650439886865 108.11981727719106  L 247.6752370677174 107.39582389891808  C 246.84212609990195 108.18959595371955  246.06635744618498 109.04145202746494  245.3537690309004 109.94498161197247  C 244.0179572931168 111.7233869973629  242.75343376499004 113.55423763452877  241.56319885570664 115.4331893567157  L 242.407970748204 115.96831593019758  Z M 236.37059920866574 127.37842023576684  C 237.68774846109878 124.33705328611309  239.1862063352917 121.37746113258025  240.8578945111632 118.51559920050136  L 239.994413685627 118.01121753555776  C 238.30254875883386 120.90762124176  236.78600496901956 123.90293474247534  235.45295813904994 126.98101003540154  L 236.37059920866574 127.37842023576684  Z M 279.1115785283508 123.29913783933266  C 279.925946279275 124.73242028844615  280.70106184303984 126.18765236429782  281.43606025102315 127.66321014118904  L 282.35574134720486 127.2667301103538  C 281.60534215928715 125.75797930495332  280.8134720798567 124.27021264251039  279.98103437624735 122.80512718301195  L 279.1115785283508 123.29913783933266  Z M 234.4702886106617 132.16978993692763  C 234.71629311384473 131.48840022613592  234.97122387562817 130.81026631755313  235.23501512222913 130.13556317410718  L 234.30366790956987 129.77143082252076  C 234.03669278552405 130.45427742086932  233.77868508956297 131.14059619261158  233.5297113893383 131.83021006307237  L 234.4702886106617 132.16978993692763  Z M 275.7563555342498 129.21929398851543  L 284 132  L 287.1792895038559 123.90172127852641  L 275.7563555342498 129.21929398851543  Z " fill-rule="nonzero" fill="rgba(51, 51, 51, 1)" stroke="none" class="fill" />
  </g>
</svg>