<?xml version="1.0" encoding="utf-8"?>
<svg version="1.1" xmlns:xlink="http://www.w3.org/1999/xlink" width="19.25029905499052px" height="18px" viewBox="321.1959970777994 115.17765717474327 19.25029905499052 18" xmlns="http://www.w3.org/2000/svg">
  <g transform="matrix(-0.29471334867634186 0.9555857063141842 -0.9555857063141817 -0.2947133486763408 546.9809487740554 -155.35348869099425 )">
    <path d="M 322.05362090544014 107.5117278604237  C 322.28171308234016 107.80150814721951  322.50032243697575 108.09862847922507  322.70910245067387 108.40261788966342  C 324.3034301352801 110.86007538321279  325.74128040939763 113.41557947717732  327.0141019744786 116.05393187251208  L 327.9147692955127 115.61942252068967  C 326.62180352295434 112.93931445471871  325.1609541935488 110.3434927431915  323.54093474195804 107.84744051802517  C 323.3176135504212 107.52176401785194  323.0836428320614 107.20351954120751  322.83940191729044 106.8932230492738  L 322.05362090544014 107.5117278604237  Z M 311.3866787201605 102.79097788706406  C 311.9297903227493 102.65047294738287  312.48305155937766 102.55262561181222  313.04140967203125 102.49832948878927  C 314.77031584144294 102.379246107369  316.49131358102545 102.8230812532206  317.9469931831575 103.76345048405335  C 318.6941445840606 104.24833830150902  319.4020615518093 104.79115474440988  320.06421483365204 105.38689331352671  L 320.7330558815296 104.64348787053211  C 320.0317235508929 104.01249995491509  319.281902380018 103.4375864119935  318.4905131635934 102.92405365181365  C 316.8491675944176 101.86346927194019  314.90789944732893 101.36433236177143  312.9585430441692 101.50167906811888  C 312.34361387545783 101.56073873776839  311.7342898846314 101.66812776106933  311.1362206417441 101.82285044144754  L 311.3866787201605 102.79097788706406  Z M 301.59518999708064 110.4909232201155  C 301.73598185871384 110.30423216407561  301.8774049752175 110.11801800297748  302.01945691812756 109.93228393442004  C 303.6652499647285 107.85816125479933  305.5981580003569 106.02910050242058  307.75991550479563 104.50023682819717  C 308.0745790284533 104.2719266095196  308.4013760347388 104.06082483312409  308.7388709463352 103.86785884202777  L 308.24251532021793 102.99973955735445  C 307.8754559517808 103.20960931357278  307.5199742364383 103.439109194418  307.17761676124064 103.68724071943832  C 304.9378158311744 105.2719949271557  302.9353165613211 107.16789134527353  301.23052604719277 109.3177386440698  C 301.0852925916627 109.50759923995149  300.94070998429225 109.69795681771608  300.79678077029337 109.88880802633527  L 301.59518999708064 110.4909232201155  Z M 294.4692082795017 121.27909751325522  C 296.121714098322 118.40192002494854  297.9114007338462 115.60573843110967  299.8320875421308 112.90020928417086  L 299.01667057292445 112.32133523368127  C 297.07745588702755 115.05296322853994  295.27050506516946 117.87611814782083  293.60205837278625 120.78105028729833  L 294.4692082795017 121.27909751325522  Z M 328.25064920476535 118.76352163543945  C 328.9007282948441 120.2725533215844  329.49725367968387 121.80409630239814  330.0391076488406 123.35528092366542  L 331.0067850385021 123.09322782580088  C 330.45089094109267 121.4966503934343  329.8379200794293 119.9205215989315  329.16905415335935 118.36787994097577  L 328.25064920476535 118.76352163543945  Z M 289.45774645050807 131.20116706253083  C 290.54896120178944 128.71815780218262  291.7372011787385 126.27892962877574  293.0197233638524 123.88911342975965  L 292.1385910217903 123.41624368472182  C 290.84369700490345 125.82911321125599  289.64399468814327 128.29187136408  288.54225354949193 130.79883293746917  L 289.45774645050807 131.20116706253083  Z M 324.2115299581626 124.12317985877583  L 332 128  L 336.25190985772133 120.40979166545397  L 324.2115299581626 124.12317985877583  Z " fill-rule="nonzero" fill="rgba(51, 51, 51, 1)" stroke="none" class="fill" />
  </g>
</svg>