<?xml version="1.0" encoding="utf-8"?>
<svg version="1.1" xmlns:xlink="http://www.w3.org/1999/xlink" width="42px" height="12px" viewBox="358 108 42 12" xmlns="http://www.w3.org/2000/svg">
  <g transform="matrix(-0.5735764363510433 0.8191520442889921 -0.8191520442889948 -0.5735764363510473 689.7688024259908 -131.07091104150857 )">
    <path d="M 377.29737160615946 109.2826072586069  C 379.0179164296196 112.11669480026845  380.57773662893374 115.04528818654533  381.969445827669 118.05451934906714  L 382.87707978788944 117.63475680398412  C 381.4696348091639 114.59150086131687  379.892178032106 111.62979445024415  378.15217934944167 108.76366244263431  L 377.29737160615946 109.2826072586069  Z M 367.8984297019272 101.5642393023237  C 369.34972952938784 101.74827612103331  370.7256021374034 102.31636315357134  371.8839791231463 103.2098414682099  C 373.28173770178347 104.26741646582526  374.5419138685851 105.49545285013706  375.6352391805196 106.86542864628032  L 376.41684643519676 106.24165777533804  C 375.2725261983284 104.80778351080399  373.9537142491916 103.52234081736007  372.4909903772826 102.4151357389997  C 371.1924214303057 101.41458463294475  369.6505311586074 100.77841215124053  368.0242305445931 100.57218378573981  L 367.8984297019272 101.5642393023237  Z M 357.4823172242035 107.46130294932966  C 358.7876948857951 105.85346011008292  360.3008044282323 104.42608307149705  361.98197028873824 103.21659938637814  C 362.9161389127458 102.52696972017122  363.97764495094304 102.02918985708412  365.10521813499025 101.75199171637877  L 364.8664900728808 100.78090525660218  C 363.6127221997112 101.08912660155409  362.4322757586679 101.64222341886375  361.3930693993891 102.40837250364477  C 359.64199076282534 103.66881143249039  358.065873354368 105.1559949595533  356.7059682302854 106.83099965753875  L 357.4823172242035 107.46130294932966  Z M 350.68267430709255 118.4082677553412  C 352.22681132263244 115.47283468156893  353.92213139755427 112.61945020109745  355.7618053382313 109.8596084945225  L 354.92972435793365 109.30495432999571  C 353.0708753886002 112.09356202745668  351.3578848937747 114.97668750059516  349.797653248166 117.94271676430307  L 350.68267430709255 118.4082677553412  Z M 383.1757579277783 120.78271705376893  C 383.81670412858495 122.30100821329653  384.41508734712676 123.83691786402207  384.97020661878355 125.3886467938495  L 385.930795509395 125.10504611737278  C 385.36405400304204 123.51766660971484  384.75255510123054 121.94662439980158  384.09703141975154 120.39380169924114  L 383.1757579277783 120.78271705376893  Z M 345.46967821046576 130.17147121803296  C 346.60069814611336 127.07348529672257  347.8907061962162 124.03587829237682  349.33456455546997 121.07074829490917  L 348.43549207006646 120.6329484936412  C 346.9765842910205 123.62898421380945  345.6731304118599 126.69825237292216  344.53032178953424 129.82852878196704  L 345.46967821046576 130.17147121803296  Z M 379.14520434606345 126.25938705091005  L 387 130  L 391.1190980963697 122.3369046154649  L 379.14520434606345 126.25938705091005  Z " fill-rule="nonzero" fill="rgba(51, 51, 51, 1)" stroke="none" class="fill" />
  </g>
</svg>