<?xml version="1.0" encoding="utf-8"?>
<svg version="1.1" xmlns:xlink="http://www.w3.org/1999/xlink" width="19.185936069602405px" height="18px" viewBox="425.57601106971106 117.08727661707825 19.185936069602405 18" xmlns="http://www.w3.org/2000/svg">
  <g transform="matrix(-0.2077552238719701 0.9781808457304332 -0.9781808457304335 -0.20775522387197107 648.9137666576476 -273.3913930180345 )">
    <path d="M 428.2435655565373 108.54089079864607  C 428.3511031003864 108.72648055772574  428.4550498888001 108.91412786012707  428.5553478906907 109.10372794670167  C 429.93731592584015 111.86692683024029  431.1519882125656 114.71067458669988  432.1927971682069 117.61959542405877  L 433.134343241863 117.28271118402562  C 432.07877014119043 114.33252654998776  430.84665648954433 111.44852220613643  429.44468017828825 108.64632907067033  C 429.3367020993083 108.44188799140026  429.2247232052053 108.2395851583179  429.1088081443878 108.03953736625562  L 428.2435655565373 108.54089079864607  Z M 418.38540155734745 102.74627864186336  C 418.92208456018307 102.61576545726315  419.4693105500216 102.53323620427746  420.0206138944558 102.49966598975892  C 421.6284752671385 102.46517236616371  423.1946870783803 103.01261737794214  424.4309553557395 104.04123234489005  C 425.2068367837685 104.68172159781943  425.92316340072585 105.39111247515413  426.5711710775934 106.16072570541922  L 427.3361252105212 105.51664094817309  C 426.64966660223337 104.70136105901884  425.89087736573435 103.9498380417665  425.0690301681935 103.27125576787041  C 423.64242288529493 102.08489429861962  421.83420444504435 101.45574743343624  419.9792994156568 101.500347963644  C 419.36225006723953 101.53675106852032  418.749720924639 101.62853695299107  418.149103533068 101.7745980134048  L 418.38540155734745 102.74627864186336  Z M 408.7185924153086 110.57501342310151  C 408.9424740608324 110.27621971726278  409.16784014083896 109.97854116012435  409.39468229615466 109.6819887930405  C 411.01463867908365 107.6338620132082  412.9165521848944 105.82553307278822  415.0437438625281 104.31089200789383  C 415.2761108378069 104.13887904554004  415.5163586755742 103.97777544170408  415.7637074091468 103.82810422062933  L 415.24600562585186 102.97254308104128  C 414.9747879403534 103.13665745340666  414.7112787531681 103.31318560224605  414.45631690364047 103.50156557843644  C 412.2529478518147 105.07150123668347  410.2830455074831 106.94560268259579  408.6053015734933 109.06803252632193  C 408.3747937259522 109.36933284477192  408.14579627954555 109.67178569072662  407.9183178495767 109.97537968535597  L 408.7185924153086 110.57501342310151  Z M 401.5693636788103 121.35525562829956  C 403.24192678992887 118.4883362592261  405.0404092114231 115.69675660935839  406.95954412441836 112.98869176243063  L 406.1436507323292 112.41048939928676  C 404.2074755623281 115.14259951821059  402.3930241735273 117.95896597924173  400.70561014959435 120.85134111097848  L 401.5693636788103 121.35525562829956  Z M 433.1424614648517 120.44474223302213  C 433.6364743836153 122.01416172229817  434.08013551746427 123.59898889867998  434.4727636473707 125.19679034092208  L 435.45931938206854 125.02112726806885  C 435.0578023775025 123.38128074956072  434.6032311167779 121.75488136045487  434.096321784482 120.144491520059  L 433.1424614648517 120.44474223302213  Z M 396.4545841721828 131.20821438567225  C 397.5817276399856 128.74737778887283  398.79721693566836 126.32797401970423  400.09868417198 123.95471630382818  L 399.22187228162437 123.47388274745856  C 397.90884914268133 125.868212937784  396.6825673540652 128.30909891841634  395.5454158278172 130.79178561432775  L 396.4545841721828 131.20821438567225  Z M 428.5909293286665 125.43977283601068  L 436 130  L 440.9160079848701 122.82205701522408  L 428.5909293286665 125.43977283601068  Z " fill-rule="nonzero" fill="rgba(51, 51, 51, 1)" stroke="none" class="fill" />
  </g>
</svg>