<?xml version="1.0" encoding="utf-8"?>
<svg version="1.1" xmlns:xlink="http://www.w3.org/1999/xlink" width="19.274501802716486px" height="18px" viewBox="475.03954344535657 117.22519844241924 19.274501802716486 18" xmlns="http://www.w3.org/2000/svg">
  <g transform="matrix(-0.3308014133212964 0.9437003893951896 -0.9437003893951896 -0.330801413321297 764.1273318422395 -289.4090070718743 )">
    <path d="M 476.10085877173026 109.35237181742058  C 477.80619816995926 112.1979092978267  479.36873840506934 115.12662623478376  480.7826712336695 118.12763606011839  L 481.6872932328557 117.70142128023822  C 480.25920678067274 114.67037101551563  478.6810253454484 111.71233729895857  476.95861531173 108.8383156744871  L 476.10085877173026 109.35237181742058  Z M 466.77160998977075 101.73888882327384  C 468.3356954406467 101.81147831010372  469.8313545702539 102.40159303107197  471.0236345291899 103.41653196064337  C 472.29408867128046 104.4534435431238  473.44471303814464 105.62905499811244  474.45409554653867 106.92148925515818  L 475.242218056108 106.30597084770795  C 474.1890710698079 104.9574996472664  472.9888426938152 103.73066741940343  471.6637805391139 102.64821490804249  C 470.30398516492795 101.49374926298749  468.5998220431379 100.82266010008692  466.8179702685065 100.73996403904053  L 466.77160998977075 101.73888882327384  Z M 457.6734985185715 109.3808621271232  C 457.80154954694297 109.14376342333546  457.93062193655703 108.9072177534061  458.0607120905143 108.67123170922508  C 459.20459754451673 106.68176601546217  460.6797188496121 104.90217777731768  462.4225105664733 103.40915242248352  C 462.9212923877216 102.96561736699695  463.48415640450554 102.5998985282641  464.0920874639695 102.32435093238949  L 463.6792590982135 101.413542093814  C 462.9825705449911 101.72931943883573  462.3372992503683 102.14801434894656  461.76506688859564 102.65559724460019  C 459.9364933191486 104.22346325056404  458.38899855937217 106.09198957177175  457.1892678617428 108.18065693751073  C 457.05633305688707 108.42174958665767  456.924449393796 108.66342032705303  456.7936206283406 108.90566227623633  L 457.6734985185715 109.3808621271232  Z M 452.33132600422783 121.1455792356027  C 453.49123256166473 118.03859680901341  454.81514102918294 114.99533219192871  456.2974709041589 112.02861326980725  L 455.4029195676785 111.58164805147227  C 453.9047826787179 114.58000295980844  452.566756544131 117.65571981790559  451.3944811749446 120.79583394850769  L 452.33132600422783 121.1455792356027  Z M 482.0144171560776 120.84659172309493  C 482.6728235252686 122.35970051503448  483.2936381008268 123.8888905636236  483.87628936818146 125.43275411455224  L 484.82953954765173 125.12649552182481  C 484.2359454953654 123.55127174017399  483.60302387485956 121.991149521648  482.9313690678188 120.44759398932432  L 482.0144171560776 120.84659172309493  Z M 449.4836059280514 130.12698545725203  C 450.0290143169589 128.04987571734554  450.64561168478724 125.99211397832218  451.3323073325568 123.95734021457363  L 450.3848093400466 123.63757849987152  C 449.690791025514 125.69405033358532  449.0676184928853 127.7737552777862  448.5163940719486 129.87301454274797  L 449.4836059280514 130.12698545725203  Z M 478.06987906688255 126.42184656755308  L 486 130  L 489.9605039732619 122.25374875970468  L 478.06987906688255 126.42184656755308  Z " fill-rule="nonzero" fill="rgba(51, 51, 51, 1)" stroke="none" class="fill" />
  </g>
</svg>