<?xml version="1.0" encoding="utf-8"?>
<svg version="1.1" xmlns:xlink="http://www.w3.org/1999/xlink" width="42px" height="10px" viewBox="482 108 42 10" xmlns="http://www.w3.org/2000/svg">
  <g transform="matrix(-0.5877852522924751 -0.8090169943749492 0.8090169943749473 -0.5877852522924719 707.237061538746 586.3552816796487 )">
    <path d="M 529.0240117612735 110.47447545351277  C 530.9984893470622 113.14125994774459  532.845629042714 115.90001101268713  534.5592298277953 118.74146726341948  L 535.4155602483639 118.22503894234396  C 533.6856628258485 115.35655995521566  531.8209565148146 112.57157269438216  529.8277013084636 109.87942662212363  L 529.0240117612735 110.47447545351277  Z M 519.8445227817176 101.74424667620316  C 520.2648568382815 101.96232185022265  520.6710863374959 102.20656911680301  521.0608146288916 102.47554747934697  C 523.3638876839739 104.02868541904611  525.4268315183214 105.9110630359712  527.1838461940314 108.06263975691753  C 527.1937286387914 108.07521200674925  527.2036082155139 108.08778651092219  527.213484923254 108.1003632682341  L 527.9999560496188 107.48273622268434  C 527.9880813594278 107.46761528353984  527.9762025613146 107.45249757082328  527.9643196566269 107.43738308624967  C 526.1453380573271 105.20847608082649  524.0092807516384 103.25840729122393  521.6243432780259 101.64943440631427  C 521.2015398601352 101.35790506731338  520.7609138753533 101.09310963288306  520.3050466093753 100.85659933397794  L 519.8445227817176 101.74424667620316  Z M 508.3716590632806 103.29169732523732  C 508.92845851609957 102.82090881144035  509.51194313611586 102.3826203459602  510.1192073098433 101.97901450025206  C 511.68168747482144 100.94215448277414  513.5313268561439 100.42437232391087  515.4050415011563 100.49931490766744  C 515.9940373051343 100.53955640612651  516.5789802781006 100.62583385759915  517.1545123017527 100.75735695463105  L 517.3772935111922 99.78248848518469  C 516.7463250758823 99.63829681672678  516.1049710560579 99.54407254626042  515.4591920862443 99.50069137803365  C 513.3704605276033 99.41415304315376  511.3078167484467 99.99001150146977  509.5659759115485 101.1459868067339  C 508.9265888368052 101.57092620116617  508.31224218164147 102.03238840584322  507.72599618174365 102.52807474607576  L 508.3716590632806 103.29169732523732  Z M 501.1042015024093 113.72763383145853  C 502.2842441840969 111.42960465106131  503.5811118923756 109.19346778590065  504.98971708021674 107.02799548883735  C 505.3924302566725 106.44238511671917  505.82774087444915 105.8798731877852  506.29358927156807 105.34312121403454  L 505.5383623183261 104.68765782901832  C 505.0451162909002 105.25597743772131  504.58439331244625 105.8517271301668  504.1583985301579 106.47205548408178  C 502.72851207338834 108.66944637295477  501.4121958153877 110.93868393930771  500.2146303383089 113.27083722026161  L 501.1042015024093 113.72763383145853  Z M 496.2107017834448 125.6624484728927  C 497.20179104037607 122.50152656620944  498.39923646412126 119.40904789872454  499.79532004163906 116.40494472806947  L 498.88846349067893 115.98350529472145  C 497.4739429152747 119.02728133647109  496.26068375437063 122.160599982002  495.2565059468471 125.36326574374617  L 496.2107017834448 125.6624484728927  Z M 536.0646766373352 121.31984776348614  C 536.8767999982032 122.75725862714593  537.6549575766916 124.21359684619257  538.3985021187831 125.68765107116556  L 539.3127505961716 125.27974237439113  C 538.5556683508297 123.777176559117  537.7629688743701 122.29282311418582  536.9353241153217 120.82794028328709  L 536.0646766373352 121.31984776348614  Z M 532.7308609372462 127.29605119115774  L 541 130  L 544.1038664696794 121.87251496842967  L 532.7308609372462 127.29605119115774  Z " fill-rule="nonzero" fill="rgba(51, 51, 51, 1)" stroke="none" class="fill" />
  </g>
</svg>