<?xml version="1.0" encoding="utf-8"?>
<svg version="1.1" xmlns:xlink="http://www.w3.org/1999/xlink" width="36px" height="10px" viewBox="538 112 36 10" xmlns="http://www.w3.org/2000/svg">
  <g transform="matrix(-0.5446390350150317 -0.8386705679454283 0.8386705679454202 -0.5446390350150292 760.6948470187435 647.0236028744166 )">
    <path d="M 571.7756772481762 110.16212869860297  C 572.2846113375048 110.73040925886767  572.7601441397414 111.32774034689919  573.1998783539855 111.95111064076846  C 574.6220394233944 114.04788928457563  575.9481674664993 116.2082215128849  577.1741576742078 118.42542037610652  L 578.0492828713719 117.94152380731468  C 576.8071626785203 115.69515392421177  575.4634678833529 113.50646840097325  574.0223675080845 111.38225797504955  C 573.5588481232163 110.72454527868788  573.0574133827347 110.09438881027401  572.5206106755159 109.49498989083355  L 571.7756772481762 110.16212869860297  Z M 561.1543661818657 107.31433311843408  C 562.2105835017622 106.51971965110342  563.4908876819344 106.0791920891769  564.8124217162461 106.05566794268195  C 566.2710093854928 106.09548222937  567.6797812110559 106.59484837118316  568.8378199060118 107.48254738959412  C 569.1208352523673 107.69259282730557  569.3981692261391 107.91018709321612  569.6695230077042 108.13509573557221  L 570.3076630901713 107.36517545713494  C 570.0245022268917 107.1304806430024  569.7351433412801 106.90336592335558  569.4398939564642 106.68407266983479  C 568.1097245007497 105.66653871918534  566.4914731462446 105.09641001850271  564.8172422396353 105.05545891358067  C 563.2771429860154 105.07808045846967  561.7840205550355 105.58923810202423  560.5531802986804 106.51522390571112  L 561.1543661818657 107.31433311843408  Z M 554.0087202484785 117.71980393151681  C 554.9344445083663 115.74386669333808  555.9461980068519 113.80938833177962  557.0410769747717 111.92192086976264  C 557.6133506422495 110.98000593699028  558.2759038458978 110.09600031977159  559.0193742657985 109.28239560874749  L 558.281166211019 108.6078225082916  C 557.4916284860566 109.47184022219932  556.7882800798361 110.41083486081324  556.1811180443391 111.41146001127483  C 555.0696643024645 113.32691562804617  554.042697472319 115.29016503069057  553.1031739182149 117.29555654643796  L 554.0087202484785 117.71980393151681  Z M 549.5643660934207 129.82751397982142  C 550.4334096833551 126.63113286324857  551.5138403464069 123.4960160395692  552.7985212250617 120.44287273412013  L 551.8767937603945 120.05503451929562  C 550.5749358773288 123.149000302059  549.4800591657889 126.3260356413815  548.5993959076353 129.56515441634932  L 549.5643660934207 129.82751397982142  Z M 578.5703790588508 121.06036764220622  C 579.315443805488 122.52917590086392  580.0169499613137 124.01967650515329  580.6739794015459 125.52991870164058  L 581.6147954751065 125.18582788005727  C 580.9430481682399 123.63876763423451  580.2251963426706 122.11213739156145  579.4622021174933 120.6079832568951  L 578.5703790588508 121.06036764220622  Z M 574.932860582083 126.74250685159745  L 583 130  L 586.6469048285288 122.10126053273984  L 574.932860582083 126.74250685159745  Z " fill-rule="nonzero" fill="rgba(51, 51, 51, 1)" stroke="none" class="fill" />
  </g>
</svg>