<?xml version="1.0" encoding="utf-8"?>
<svg version="1.1" xmlns:xlink="http://www.w3.org/1999/xlink" width="42px" height="12px" viewBox="604 108 42 12" xmlns="http://www.w3.org/2000/svg">
  <g transform="matrix(-0.5735764363510487 0.8191520442889891 -0.8191520442889891 -0.5735764363510419 1076.86860576835 -332.58231393659946 )">
    <path d="M 623.2973716061596 109.2826072586069  C 625.0179164296197 112.11669480026845  626.5777366289338 115.04528818654532  627.9694458276691 118.05451934906712  L 628.8770797878896 117.6347568039841  C 627.469634809164 114.59150086131686  625.8921780321061 111.62979445024415  624.1521793494418 108.76366244263431  L 623.2973716061596 109.2826072586069  Z M 613.8984297019272 101.56423930232371  C 615.3497295293878 101.74827612103331  616.7256021374034 102.31636315357134  617.8839791231462 103.20984146820989  C 619.2817377017833 104.26741646582519  620.5419138685852 105.49545285013714  621.6352391805196 106.86542864628034  L 622.4168464351967 106.24165777533806  C 621.2725261983283 104.80778351080386  619.9537142491911 103.52234081735963  618.490990377282 102.4151357389992  C 617.1924214303052 101.41458463294458  615.6505311586071 100.77841215124052  614.0242305445931 100.57218378573982  L 613.8984297019272 101.56423930232371  Z M 603.4823172242035 107.46130294932968  C 604.7876948857939 105.8534601100843  606.3008044282296 104.42608307149963  607.9819702887338 103.21659938638136  C 608.9161389127424 102.52696972017274  609.9776449509412 102.02918985708456  611.1052181349903 101.75199171637877  L 610.8664900728809 100.78090525660215  C 609.6127221997093 101.08912660155451  608.4322757586643 101.6422234188654  607.3930693993843 102.40837250364822  C 605.6419907628224 103.66881143249321  604.065873354367 105.1559949595547  602.7059682302855 106.83099965753877  L 603.4823172242035 107.46130294932968  Z M 596.6826743070925 118.4082677553412  C 598.2268113226327 115.4728346815685  599.922131397554 112.61945020109785  601.7618053382313 109.8596084945225  L 600.9297243579337 109.30495432999571  C 599.0708753886003 112.09356202745668  597.3578848937748 114.97668750059515  595.7976532481661 117.94271676430307  L 596.6826743070925 118.4082677553412  Z M 629.1757579277785 120.78271705376892  C 629.8167041285859 122.30100821329835  630.4150873471261 123.83691786402018  630.9702066187835 125.38864679384949  L 631.930795509395 125.10504611737277  C 631.3640540030424 123.51766660971572  630.7525551012302 121.94662439980068  630.0970314197516 120.39380169924112  L 629.1757579277785 120.78271705376892  Z M 591.4696782104658 130.17147121803296  C 592.6006981461134 127.07348529672257  593.8907061962162 124.03587829237682  595.33456455547 121.07074829490917  L 594.4354920700664 120.6329484936412  C 592.9765842910202 123.62898421380989  591.67313041186 126.6982523729217  590.5303217895342 129.82852878196704  L 591.4696782104658 130.17147121803296  Z M 625.1452043460635 126.25938705091005  L 633 130  L 637.1190980963698 122.3369046154649  L 625.1452043460635 126.25938705091005  Z " fill-rule="nonzero" fill="rgba(51, 51, 51, 1)" stroke="none" class="fill" />
  </g>
</svg>