<?xml version="1.0" encoding="utf-8"?>
<svg version="1.1" xmlns:xlink="http://www.w3.org/1999/xlink" width="44px" height="10px" viewBox="630 110 44 10" xmlns="http://www.w3.org/2000/svg">
  <g transform="matrix(-0.6427876096865379 -0.7660444431189748 0.7660444431189783 -0.6427876096865348 983.0024105569403 688.3815520275232 )">
    <path d="M 674.2435655565373 108.54089079864605  C 674.3511031003854 108.7264805577241  674.455049888799 108.91412786012485  674.5553478906887 109.10372794669779  C 675.937315925839 111.86692683023762  677.1519882125651 114.7106745866985  678.1927971682069 117.61959542405876  L 679.134343241863 117.2827111840256  C 678.0787701411904 114.33252654998759  676.8466564895442 111.44852220613635  675.4446801782881 108.6463290706701  C 675.3367020993095 108.44188799140265  675.2247232052039 108.23958515831532  675.1088081443879 108.03953736625559  L 674.2435655565373 108.54089079864605  Z M 664.3854015573474 102.74627864186334  C 664.9220845601832 102.61576545726314  665.4693105500215 102.53323620427746  666.0206138944558 102.49966598975892  C 667.6284752671352 102.46517236616377  669.1946870783739 103.01261737793986  670.4309553557321 104.0412323448839  C 671.2068367837638 104.68172159781477  671.923163400724 105.39111247515176  672.5711710775935 106.1607257054192  L 673.3361252105211 105.51664094817306  C 672.6496666022313 104.70136105901636  671.8908773657291 103.94983804176131  671.0690301681853 103.27125576786368  C 669.6424228852879 102.08489429861713  667.8342044450407 101.45574743343629  665.9792994156567 101.500347963644  C 665.3622500672394 101.53675106852032  664.7497209246391 101.62853695299106  664.149103533068 101.77459801340478  L 664.3854015573474 102.74627864186334  Z M 654.7185924153085 110.57501342310151  C 654.9424740608325 110.27621971726259  655.1678401408384 109.97854116012505  655.3946822961542 109.68198879304103  C 657.0146386790827 107.63386201320917  658.9165521848927 105.82553307278985  661.0437438625257 104.31089200789556  C 661.2761108378054 104.13887904554105  661.5163586755733 103.97777544170461  661.7637074091468 103.82810422062929  L 661.2460056258518 102.97254308104124  C 660.9747879403521 103.13665745340734  660.7112787531667 103.313185602247  660.4563169036379 103.5015655784383  C 658.2529478518131 105.07150123668502  656.2830455074823 106.94560268259687  654.6053015734931 109.06803252632224  C 654.3747937259467 109.36933284477911  654.1457962795508 109.67178569071972  653.9183178495767 109.975379685356  L 654.7185924153085 110.57501342310151  Z M 647.5693636788103 121.35525562829956  C 649.2419267899288 118.48833625922609  651.0404092114231 115.6967566093584  652.9595441244184 112.98869176243065  L 652.1436507323291 112.41048939928677  C 650.2074755623277 115.14259951821103  648.3930241735276 117.95896597924128  646.7056101495943 120.85134111097848  L 647.5693636788103 121.35525562829956  Z M 679.1424614648517 120.44474223302211  C 679.6364743836153 122.01416172229816  680.0801355174643 123.59898889867998  680.4727636473707 125.19679034092208  L 681.4593193820685 125.02112726806885  C 681.0578023775024 123.38128074956026  680.603231116778 121.75488136045531  680.0963217844819 120.144491520059  L 679.1424614648517 120.44474223302211  Z M 642.4545841721828 131.20821438567225  C 643.5817276399861 128.74737778887174  644.7972169356678 126.3279740197053  646.09868417198 123.9547163038282  L 645.2218722816244 123.47388274745859  C 643.9088491426813 125.86821293778402  642.6825673540652 128.30909891841634  641.5454158278172 130.79178561432775  L 642.4545841721828 131.20821438567225  Z M 674.5909293286666 125.43977283601068  L 682 130  L 686.91600798487 122.82205701522408  L 674.5909293286666 125.43977283601068  Z " fill-rule="nonzero" fill="rgba(51, 51, 51, 1)" stroke="none" class="fill" />
  </g>
</svg>