<?xml version="1.0" encoding="utf-8"?>
<svg version="1.1" xmlns:xlink="http://www.w3.org/1999/xlink" width="40px" height="10px" viewBox="682 110 40 10" xmlns="http://www.w3.org/2000/svg">
  <g transform="matrix(-0.5299192642332067 -0.8480480961564281 0.8480480961564252 -0.5299192642332038 976.4777924337222 771.2704788886309 )">
    <path d="M 722.1008587717304 109.35237181742052  C 723.8061981699592 112.19790929782623  725.3687384050696 115.12662623478414  726.7826712336696 118.12763606011833  L 727.6872932328558 117.70142128023815  C 726.2592067806733 114.6703710155164  724.6810253454481 111.7123372989577  722.9586153117302 108.83831567448705  L 722.1008587717304 109.35237181742052  Z M 712.7716099897708 101.73888882327383  C 714.3356954406455 101.81147831010364  715.8313545702515 102.40159303107103  717.0236345291871 103.41653196064104  C 718.2940886712787 104.4534435431219  719.4447130381442 105.62905499811154  720.4540955465388 106.92148925515812  L 721.2422180561082 106.3059708477079  C 720.1890710698073 104.95749964726538  718.9888426938136 103.73066741940161  717.6637805391111 102.64821490804013  C 716.3039851649256 101.49374926298654  714.5998220431368 100.82266010008686  712.8179702685067 100.73996403904052  L 712.7716099897708 101.73888882327383  Z M 703.6734985185716 109.38086212712318  C 703.8015495469485 109.14376342332537  703.9306219365525 108.90721775341467  704.0607120905153 108.67123170922363  C 705.2045975445175 106.68176601546139  706.6797188496126 104.90217777731715  708.4225105664734 103.40915242248342  C 708.9212923877218 102.96561736699685  709.4841564045056 102.59989852826409  710.0920874639696 102.32435093238948  L 709.6792590982136 101.41354209381399  C 708.9825705449914 101.72931943883566  708.3372992503682 102.14801434894656  707.7650668885957 102.6555972446001  C 705.9364933191491 104.22346325056357  704.3889985593731 106.09198957177057  703.1892678617439 108.18065693750891  C 703.0563330568857 108.4217495866604  702.9244493937987 108.66342032704844  702.7936206283408 108.90566227623631  L 703.6734985185716 109.38086212712318  Z M 698.3313260042279 121.14557923560267  C 699.4912325616648 118.0385968090134  700.815141029183 114.99533219192864  702.297470904159 112.02861326980721  L 701.4029195676786 111.58164805147223  C 699.9047826787178 114.58000295980881  698.5667565441313 117.65571981790514  697.3944811749446 120.79583394850766  L 698.3313260042279 121.14557923560267  Z M 728.0144171560777 120.84659172309487  C 728.6728235252682 122.35970051503351  729.2936381008273 123.88889056362451  729.8762893681816 125.43275411455221  L 730.8295395476518 125.12649552182475  C 730.2359454953655 123.55127174017392  729.6030238748598 121.99114952164798  728.931369067819 120.44759398932429  L 728.0144171560777 120.84659172309487  Z M 695.4836059280515 130.12698545725203  C 696.0290143169584 128.04987571734773  696.6456116847879 125.99211397831998  697.3323073325568 123.95734021457358  L 696.3848093400467 123.63757849987147  C 695.690791025514 125.69405033358524  695.0676184928852 127.77375527778622  694.5163940719485 129.87301454274797  L 695.4836059280515 130.12698545725203  Z M 724.0698790668825 126.42184656755303  L 732 130  L 735.9605039732619 122.25374875970469  L 724.0698790668825 126.42184656755303  Z " fill-rule="nonzero" fill="rgba(51, 51, 51, 1)" stroke="none" class="fill" />
  </g>
</svg>