<?xml version="1.0" encoding="utf-8"?>
<svg version="1.1" xmlns:xlink="http://www.w3.org/1999/xlink" width="19.333058869457204px" height="18px" viewBox="775.6117130342466 117.3895220531958 19.333058869457204 18" xmlns="http://www.w3.org/2000/svg">
  <g transform="matrix(-0.4304393827561743 0.9026194867010587 -0.9026194867010588 -0.43043938275617144 1237.374569969222 -528.014894222235 )">
    <path d="M 775.0240117612735 110.47447545351277  C 776.9984893470622 113.14125994774459  778.845629042714 115.90001101268713  780.5592298277953 118.74146726341948  L 781.4155602483639 118.22503894234396  C 779.6856628258485 115.35655995521566  777.8209565148146 112.57157269438216  775.8277013084636 109.87942662212363  L 775.0240117612735 110.47447545351277  Z M 765.8445227817176 101.74424667620316  C 766.2648568382821 101.96232185022295  766.6710863374968 102.2065691168036  767.0608146288931 102.47554747934801  C 769.3638876839751 104.02868541904722  771.4268315183226 105.91106303597249  773.1838461940324 108.06263975691883  C 773.1937286387928 108.07521200675099  773.2036082155136 108.08778651092175  773.213484923254 108.1003632682341  L 773.9999560496188 107.48273622268434  C 773.9880813593236 107.46761528340716  773.9762025614199 107.45249757095722  773.9643196566278 107.43738308625096  C 772.1453380573284 105.20847608082802  770.0092807516401 103.25840729122547  767.624343278028 101.64943440631582  C 767.2015398601368 101.35790506731448  766.7609138753538 101.09310963288335  766.3050466093753 100.85659933397794  L 765.8445227817176 101.74424667620316  Z M 754.3716590632805 103.29169732523731  C 754.9284585160694 102.82090881146574  755.5119431360521 102.38262034600808  756.1192073097442 101.97901450031792  C 757.6816874747423 100.94215448279671  759.5313268561032 100.42437232390932  761.4050415011562 100.49931490766744  C 761.9940373051342 100.53955640612651  762.5789802781006 100.62583385759915  763.1545123017527 100.75735695463105  L 763.3772935111922 99.78248848518469  C 762.7463250758823 99.63829681672678  762.1049710560578 99.54407254626041  761.4591920862442 99.50069137803364  C 759.3704605275591 99.414153043152  757.3078167483608 99.99001150149421  755.5659759114408 101.14598680680545  C 754.9265888367363 101.57092620121784  754.3122421816082 102.03238840587123  753.7259961817435 102.52807474607575  L 754.3716590632805 103.29169732523731  Z M 747.1042015024094 113.72763383145856  C 748.2842441840977 111.42960465105988  749.5811118923772 109.19346778589819  750.9897170802193 107.0279954888336  C 751.3924302566741 106.4423851167172  751.8277408744503 105.87987318778366  752.293589271568 105.34312121403454  L 751.5383623183261 104.68765782901832  C 751.0451162909014 105.25597743771989  750.5843933124481 105.85172713016436  750.1583985301606 106.4720554840777  C 748.7285120733901 108.66944637295181  747.4121958153884 110.93868393930647  746.2146303383089 113.27083722026167  L 747.1042015024094 113.72763383145856  Z M 742.2107017834448 125.66244847289275  C 743.2017910403762 122.50152656620948  744.3992364641213 119.40904789872462  745.7953200416391 116.40494472806954  L 744.888463490679 115.98350529472152  C 743.473942915275 119.02728133647072  742.2606837543705 122.16059998200251  741.256505946847 125.36326574374621  L 742.2107017834448 125.66244847289275  Z M 782.0646766373352 121.31984776348614  C 782.8767999982032 122.75725862714593  783.6549575766916 124.21359684619257  784.3985021187831 125.68765107116556  L 785.3127505961716 125.27974237439113  C 784.5556683508297 123.777176559117  783.7629688743701 122.29282311418582  782.9353241153217 120.82794028328709  L 782.0646766373352 121.31984776348614  Z M 778.7308609372462 127.29605119115774  L 787 130  L 790.1038664696794 121.87251496842967  L 778.7308609372462 127.29605119115774  Z " fill-rule="nonzero" fill="rgba(51, 51, 51, 1)" stroke="none" class="fill" />
  </g>
</svg>