<?xml version="1.0" encoding="utf-8"?>
<svg version="1.1" xmlns:xlink="http://www.w3.org/1999/xlink" width="40px" height="10px" viewBox="824 110 40 10" xmlns="http://www.w3.org/2000/svg">
  <g transform="matrix(-0.5877852522924719 -0.8090169943749458 0.8090169943749486 -0.587785252292469 1247.0537985817273 865.4056472660881 )">
    <path d="M 870.0240117612736 112.4744754535127  C 871.9984893470621 115.14125994774413  873.8456290427143 117.9000110126875  875.5592298277954 120.74146726341944  L 876.415560248364 120.22503894234391  C 874.6856628258486 117.35655995521562  872.8209565148146 114.5715726943821  870.8277013084637 111.87942662212356  L 870.0240117612736 112.4744754535127  Z M 860.8445227817176 103.74424667620319  C 861.264856838281 103.96232185022242  861.6710863374951 104.20656911680254  862.0608146288904 104.47554747934613  C 864.3638876839748 106.02868541904657  866.426831518324 107.9110630359734  868.1838461940351 110.06263975692205  C 868.1937286387964 110.07521200675532  868.2036082155128 110.08778651092055  868.2134849232541 110.10036326823402  L 868.999956049619 109.48273622268425  C 868.9880813593744 109.46761528347163  868.9762025613729 109.45249757089725  868.9643196566317 109.43738308625554  C 867.1453380573306 107.20847608082971  865.0092807516398 105.2584072912248  862.6243432780249 103.64943440631366  C 862.2015398601346 103.35790506731315  861.7609138753527 103.09310963288281  861.3050466093753 102.85659933397797  L 860.8445227817176 103.74424667620319  Z M 849.3716590632806 105.2916973252373  C 849.9284585160791 104.82090881145766  850.5119431360735 104.38262034599204  851.1192073097768 103.9790145002962  C 852.6816874747684 102.94215448278928  854.5313268561165 102.42437232390988  856.4050415011562 102.49931490766743  C 856.9940373051342 102.5395564061265  857.5789802781009 102.62583385759916  858.1545123017528 102.75735695463106  L 858.3772935111923 101.7824884851847  C 857.7463250758823 101.63829681672675  857.104971056058 101.54407254626042  856.4591920862443 101.50069137803364  C 854.3704605275736 101.4141530431526  852.3078167483889 101.99001150148622  850.565975911476 103.145986806782  C 849.9265888367586 103.57092620120105  849.3122421816194 104.03238840586187  848.7259961817437 104.52807474607573  L 849.3716590632806 105.2916973252373  Z M 842.1042015024094 115.72763383145853  C 843.2842441840976 113.42960465106012  844.5811118923773 111.19346778589794  845.9897170802193 109.0279954888336  C 846.3924302566741 108.44238511671726  846.8277408744505 107.87987318778359  847.293589271568 107.34312121403453  L 846.5383623183261 106.6876578290183  C 846.0451162909013 107.25597743771993  845.5843933124481 107.8517271301643  845.1583985301606 108.4720554840777  C 843.7285120733901 110.66944637295181  842.4121958153884 112.93868393930643  841.2146303383089 115.27083722026164  L 842.1042015024094 115.72763383145853  Z M 837.210701783445 127.66244847289272  C 838.2017910403761 124.50152656621015  839.3992364641216 121.40904789872394  840.7953200416391 118.40494472806951  L 839.888463490679 117.9835052947215  C 838.4739429152747 121.02728133647115  837.2606837543707 124.16059998200201  836.2565059468471 127.36326574374618  L 837.210701783445 127.66244847289272  Z M 877.0646766373352 123.3198477634861  C 877.8767999982027 124.75725862714502  878.6549575766921 126.21359684619343  879.3985021187832 127.68765107116552  L 880.3127505961717 127.2797423743911  C 879.555668350829 125.77717655911528  878.762968874371 124.29282311418743  877.9353241153217 122.82794028328705  L 877.0646766373352 123.3198477634861  Z M 873.7308609372462 129.29605119115774  L 882 132  L 885.1038664696794 123.87251496842968  L 873.7308609372462 129.29605119115774  Z " fill-rule="nonzero" fill="rgba(51, 51, 51, 1)" stroke="none" class="fill" />
  </g>
</svg>