<?xml version="1.0" encoding="utf-8"?>
<svg version="1.1" xmlns:xlink="http://www.w3.org/1999/xlink" width="19px" height="20px" xmlns="http://www.w3.org/2000/svg">
  <defs>
    <pattern id="BGPattern" patternUnits="userSpaceOnUse" alignment="0 0" imageRepeat="None" />
    <mask fill="white" id="Clip1">
      <path d="M 18.656774193548387 2.7609427609427617  C 18.885591397849467 3.075196408529741  19.000000000000004 3.45679012345679  19 3.9057239057239057  C 19.000000000000004 4.354657687991019  18.885591397849467 4.736251402918068  18.656774193548387 5.05050505050505  L 9.781935483870969 17.23905723905724  L 8.11483870967742 19.52861952861953  C 7.886021505376345 19.84287317620651  7.608172043010754 20  7.281290322580645 20  C 6.954408602150537 20  6.676559139784947 19.84287317620651  6.4477419354838705 19.52861952861953  L 4.780645161290322 17.23905723905724  L 0.34322580645161294 11.144781144781145  C 0.11440860215053775 10.830527497194161  0 10.448933782267114  0 10  C 0 9.551066217732885  0.11440860215053775 9.169472502805835  0.34322580645161294 8.855218855218856  L 2.0103225806451612 6.565656565656566  C 2.2391397849462367 6.251402918069584  2.5169892473118285 6.094276094276092  2.843870967741936 6.094276094276094  C 3.170752688172044 6.094276094276092  3.4486021505376345 6.251402918069584  3.6774193548387095 6.565656565656566  L 7.281290322580645 11.531986531986531  L 15.32258064516129 0.47138047138047146  C 15.551397849462367 0.15712682379348974  15.82924731182796 0  16.156129032258065 0  C 16.483010752688173 0  16.760860215053764 0.15712682379348974  16.989677419354837 0.47138047138047146  L 18.656774193548387 2.7609427609427617  Z " fill-rule="evenodd" />
    </mask>
  </defs>
  <g transform="matrix(1 0 0 1 -469 -78 )">
    <path d="M 18.656774193548387 2.7609427609427617  C 18.885591397849467 3.075196408529741  19.000000000000004 3.45679012345679  19 3.9057239057239057  C 19.000000000000004 4.354657687991019  18.885591397849467 4.736251402918068  18.656774193548387 5.05050505050505  L 9.781935483870969 17.23905723905724  L 8.11483870967742 19.52861952861953  C 7.886021505376345 19.84287317620651  7.608172043010754 20  7.281290322580645 20  C 6.954408602150537 20  6.676559139784947 19.84287317620651  6.4477419354838705 19.52861952861953  L 4.780645161290322 17.23905723905724  L 0.34322580645161294 11.144781144781145  C 0.11440860215053775 10.830527497194161  0 10.448933782267114  0 10  C 0 9.551066217732885  0.11440860215053775 9.169472502805835  0.34322580645161294 8.855218855218856  L 2.0103225806451612 6.565656565656566  C 2.2391397849462367 6.251402918069584  2.5169892473118285 6.094276094276092  2.843870967741936 6.094276094276094  C 3.170752688172044 6.094276094276092  3.4486021505376345 6.251402918069584  3.6774193548387095 6.565656565656566  L 7.281290322580645 11.531986531986531  L 15.32258064516129 0.47138047138047146  C 15.551397849462367 0.15712682379348974  15.82924731182796 0  16.156129032258065 0  C 16.483010752688173 0  16.760860215053764 0.15712682379348974  16.989677419354837 0.47138047138047146  L 18.656774193548387 2.7609427609427617  Z " fill-rule="nonzero" fill="rgba(217, 0, 27, 1)" stroke="none" transform="matrix(1 0 0 1 469 78 )" class="fill" />
    <path d="M 18.656774193548387 2.7609427609427617  C 18.885591397849467 3.075196408529741  19.000000000000004 3.45679012345679  19 3.9057239057239057  C 19.000000000000004 4.354657687991019  18.885591397849467 4.736251402918068  18.656774193548387 5.05050505050505  L 9.781935483870969 17.23905723905724  L 8.11483870967742 19.52861952861953  C 7.886021505376345 19.84287317620651  7.608172043010754 20  7.281290322580645 20  C 6.954408602150537 20  6.676559139784947 19.84287317620651  6.4477419354838705 19.52861952861953  L 4.780645161290322 17.23905723905724  L 0.34322580645161294 11.144781144781145  C 0.11440860215053775 10.830527497194161  0 10.448933782267114  0 10  C 0 9.551066217732885  0.11440860215053775 9.169472502805835  0.34322580645161294 8.855218855218856  L 2.0103225806451612 6.565656565656566  C 2.2391397849462367 6.251402918069584  2.5169892473118285 6.094276094276092  2.843870967741936 6.094276094276094  C 3.170752688172044 6.094276094276092  3.4486021505376345 6.251402918069584  3.6774193548387095 6.565656565656566  L 7.281290322580645 11.531986531986531  L 15.32258064516129 0.47138047138047146  C 15.551397849462367 0.15712682379348974  15.82924731182796 0  16.156129032258065 0  C 16.483010752688173 0  16.760860215053764 0.15712682379348974  16.989677419354837 0.47138047138047146  L 18.656774193548387 2.7609427609427617  Z " stroke-width="0" stroke-dasharray="0" stroke="rgba(255, 255, 255, 0)" fill="none" transform="matrix(1 0 0 1 469 78 )" class="stroke" mask="url(#Clip1)" />
  </g>
</svg>