<?xml version="1.0" encoding="utf-8"?>
<svg version="1.1" xmlns:xlink="http://www.w3.org/1999/xlink" width="80px" height="14px" viewBox="176 304 80 14" xmlns="http://www.w3.org/2000/svg">
  <g transform="matrix(-0.9135454576426015 -0.40673664307579854 0.4067366430757994 -0.9135454576425975 286.83072285422827 682.9677522312202 )">
    <path d="M 312.37325805053666 319.0802932731066  C 315.2772451290325 320.69967787951146  318.1393328129399 322.3930822445328  320.9567128139864 324.15884479517064  L 321.4877710826255 323.3115094924066  C 318.6559410491479 321.5366905396814  315.7791740320197 319.83460088975727  312.8602927229095 318.20691063765594  L 312.37325805053666 319.0802932731066  Z M 300.8467515967011 313.14613559426056  C 303.8519368320821 314.5689529249699  306.82023435530596 316.06841084952026  309.7487316647044 317.6430380956852  L 310.2223054296473 316.76228393636615  C 307.2787881793535 315.17958060008715  304.2952665843144 313.6724321206146  301.2746680840927 312.2423173161656  L 300.8467515967011 313.14613559426056  Z M 288.95220628830253 307.9909633377553  C 289.2443929057698 308.10571443327825  289.5360802460567 308.22173277864573  289.8272600719859 308.33901509752855  C 292.6226962571698 309.45721768607945  295.3918565152673 310.6400209454615  298.13251286091196 311.88647322676053  L 298.54650831608893 310.97619427880403  C 295.79215745793795 309.72351372434633  293.00916397499424 308.534791804892  290.1997663941145 307.4109846800434  C 289.90627169962835 307.2927736941476  289.6122661138402 307.1758351272331  289.31775791853426 307.06017227331876  L 288.95220628830253 307.9909633377553  Z M 276.6542424851559 303.9890698244523  C 279.8655715783502 304.82612029015274  283.03681425566606 305.8100367568963  286.1579719262157 306.9377170407067  L 286.49777514522674 305.9972204844399  C 283.34785651880384 304.8591488118227  280.147391360496 303.86616571626115  276.9064703965623 303.02140196784677  L 276.6542424851559 303.9890698244523  Z M 263.96753796571494 301.4785730943779  C 267.2556395735896 301.92765643098795  270.5214107600572 302.52733158437496  273.7545548958971 303.27570784255846  L 273.98006266189515 302.3014664723249  C 270.7171256332769 301.5461940497017  267.421260901114 300.9409929881601  264.1028599763726 300.4877714222803  L 263.96753796571494 301.4785730943779  Z M 251.0760387335 300.49712882107383  C 251.16521731966145 300.4979229366036  251.25439456791045 300.49886079116817  251.3435701307762 300.4999423811134  C 254.57112171109532 300.56125826174514  257.7943300985264 300.76655720525997  261.0035789852181 301.1152267108187  L 261.1115886001417 300.12107686140763  C 257.8716294035314 299.7690708279095  254.61757274074435 299.56185821552026  251.3591337685233 299.5000576683561  C 251.26773853143874 299.498945417215  251.1763415397235 299.4979823485644  251.08494315866602 299.49716846625347  L 251.0760387335 300.49712882107383  Z M 238.19760404515773 301.38643136816995  C 241.4763215620669 300.90165188984884  244.7811342892838 300.6137077134288  248.09428662099884 300.5241458625126  L 248.0672642759239 299.524511032754  C 244.7141921728451 299.61515200356973  241.36956015714912 299.90656558451377  238.0513377697912 300.3971861120831  L 238.19760404515773 301.38643136816995  Z M 225.61285517280376 304.2620243264926  C 228.77673774197572 303.274681029164  231.99692294426987 302.47774547742114  235.25610984804473 301.87549932795037  L 235.0744018651862 300.8921467925056  C 231.77594541295545 301.5016493329252  228.51696058898617 302.3081870646562  225.3149567817487 303.3074267418494  L 225.61285517280376 304.2620243264926  Z M 213.63030780493398 309.0634210517015  C 214.48819166165757 308.64067867703864  215.35173504455153 308.2295196421317  216.22070260844728 307.8300560019095  C 218.3697359803373 306.8610101945447  220.55908104587945 305.9839666367737  222.7827817531858 305.2013113010137  L 222.45078415009849 304.25803107141894  C 220.19914608961946 305.0505192585406  217.98231350422478 305.9386299203235  215.80632335351356 306.919944521322  C 214.92807672085962 307.3236377662513  214.0553186314171 307.73916609847623  213.18828753874595 308.1664159880151  L 213.63030780493398 309.0634210517015  Z M 202.39960335187124 315.4734348304981  C 205.1763137253913 313.6564784048086  208.0364849564401 311.9703846578164  210.9707423914231 310.42068002256644  L 210.50373188210162 309.5364282574094  C 207.54190309792637 311.1006944805875  204.6548566585801 312.80263137716736  201.85205530531118 314.63666058572943  L 202.39960335187124 315.4734348304981  Z M 192.02922374252023 323.1982148218223  C 194.56507216363124 321.05790551323776  197.19963665294023 319.03737054787734  199.92428201784122 317.1432325416094  L 199.3534749524743 316.3221483229526  C 196.6032278295663 318.2340843382727  193.94390801489266 320.2736049844472  191.38423184046883 322.43402541710117  L 192.02922374252023 323.1982148218223  Z M 323.47992306248244 325.7673382632452  C 324.8712635090688 326.6693780952775  326.2510402039034 327.5891302827744  327.61891636534017 328.52637032878886  L 328.205298393726 327.7159319295945  C 326.823478508331 326.76887220303024  325.4295720003894 325.83956942183636  324.0239225992164 324.9282527467255  L 323.47992306248244 325.7673382632452  Z M 184.3585342440854 330.3485013569817  C 186.10232447634905 328.55450974047  187.9088327631187 326.82256604995445  189.77469179544786 325.1558986069028  L 189.10851549190616 324.41010431046476  C 187.22512417004106 326.09243236649166  185.40164127490803 327.8406500293268  183.6414657559146 329.6514986430183  L 184.3585342440854 330.3485013569817  Z M 323.46666189463855 332.69473914794764  L 332 331  L 330.72328891562876 322.39418749872834  L 323.46666189463855 332.69473914794764  Z " fill-rule="nonzero" fill="rgba(51, 51, 51, 1)" stroke="none" class="fill" />
  </g>
</svg>