<?xml version="1.0" encoding="utf-8"?>
<svg version="1.1" xmlns:xlink="http://www.w3.org/1999/xlink" width="94px" height="14px" viewBox="392 304 94 14" xmlns="http://www.w3.org/2000/svg">
  <g transform="matrix(-0.9205048534524412 0.39073112848927577 -0.3907311284892725 -0.9205048534524451 964.6190116257853 425.74604401691835 )">
    <path d="M 457.52086376368106 318.8278466826154  C 460.3926952733253 320.5056114677939  463.2265803329739 322.247501853131  466.020386111273 324.0522068615224  L 466.56299048952684 323.21221847547184  C 463.75663949881874 321.39940967982295  460.9100292560927 319.6496975679206  458.0253021698943 317.9643990036348  L 457.52086376368106 318.8278466826154  Z M 446.13702876971115 312.61460112619795  C 449.10165499716885 314.12234852733246  452.0321319405279 315.6963216942876  454.9262540716872 317.3353360273829  L 455.4190417289629 316.46518642826976  C 452.5119239281834 314.8188123198055  449.568288068773 313.23777143617104  446.59034958244945 311.72325369632665  L 446.13702876971115 312.61460112619795  Z M 434.41081767753747 307.0745566375625  C 437.45818437619477 308.4071732733903  440.475314770675 309.8078912423377  443.45993811598737 311.2756563396156  L 443.9012378100249 310.37829655667326  C 440.90321241145824 308.9039406558927  437.87253399514924 307.49693294963254  434.81148350257365 306.15833237645165  L 434.41081767753747 307.0745566375625  Z M 422.25004340669346 302.6713175663821  C 425.4289521965884 303.6280144726807  428.56603021029247 304.7185655688458  431.652888579104 305.94005460927605  L 432.02083483845183 305.01020755183487  C 428.90779118399115 303.7783568311396  425.7441018800757 302.67855477864407  422.5382269567303 301.7137423779566  L 422.25004340669346 302.6713175663821  Z M 409.67340545571585 299.69454806691215  C 411.58989953305104 300.002523907461  413.4944325766774 300.38080248199685  415.38315158051694 300.8286185060046  C 416.7208848486953 301.14467567033245  418.0529878790436 301.4841059716165  419.3788495108039 301.8467536813016  L 419.6426772196145 300.8821838600529  C 418.3056958593774 300.51649469870506  416.9624213448109 300.17421543329334  415.61346984473687 299.8555030695595  C 413.70104653421134 299.4020767317889  411.77261211153586 299.01905581781796  409.832067412131 298.7072151020079  L 409.67340545571585 299.69454806691215  Z M 396.8057862746904 298.6783860700654  C 397.26659887293425 298.6791194714447  397.72738367027716 298.6856931710964  398.18802965208175 298.6981055852509  C 401.04095800673633 298.7373253153421  403.88968718874816 298.9305747455713  406.7217749550142 299.2770098306687  L 406.8431948825928 298.28440860097635  C 403.9775544941046 297.9338691919687  401.09508674912007 297.73821219788323  398.2083621342783 297.69829088191227  C 397.7414696290176 297.68576572372535  397.27443769949946 297.6791306807477  396.8073778120165 297.6783873365618  L 396.8057862746904 298.6783860700654  Z M 384.0409372264969 300.1723536676004  C 387.2557156549981 299.4039961953992  390.53368805142185 298.9294773290527  393.8343865787436 298.75465518749104  L 393.78149551961604 297.7560548991552  C 390.42027648200286 297.93408252135373  387.08220027406355 298.41730200779534  383.80847673762344 299.19974782702946  L 384.0409372264969 300.1723536676004  Z M 371.98010938557826 304.61191920911153  C 374.925826433681 303.1126111613908  378.0017434699367 301.8841952821752  381.1698871088882 300.9418368405968  L 380.8847840000504 299.9833399875341  C 377.6585503331487 300.9429772000424  374.526234305253 302.19391690421355  371.5265055691846 303.7207157655853  L 371.98010938557826 304.61191920911153  Z M 361.2520244345449 311.709722077185  C 363.586173230825 309.77571462623484  366.0611679622241 308.01829589091847  368.6564586331554 306.452057800179  C 368.89285380627405 306.3102021680849  369.13032119847486 306.1701410357626  369.36884033094856 306.0318864818607  L 368.8673571537508 305.16671908592645  C 368.624103036573 305.30771821294167  368.3819231403314 305.45056252153154  368.1408384124643 305.5952396563257  C 365.50263264272036 307.1873040068547  362.9867236754186 308.9737364917977  360.61400687331155 310.93970026479406  L 361.2520244345449 311.709722077185  Z M 352.19361850366784 320.8786626940046  C 353.493247806394 319.3169028702997  354.8493363217241 317.8030031233335  356.2591866694475 316.33997473383886  C 357.14715016780156 315.4191685169994  358.0638447679036 314.5265079154073  359.0079119064282 313.66331587342745  L 358.3331235699482 312.92530455850704  C 357.3735440261051 313.8026801095579  356.4417880621205 314.7100097782455  355.53923668761144 315.6459487585833  C 354.1124913052485 317.12650327900667  352.7401533572119 318.658540236143  351.4249527011631 320.2390120987108  L 352.19361850366784 320.8786626940046  Z M 468.5237154706493 325.6932216781087  C 469.9052119087027 326.6121709890662  471.27639527293763 327.546530847116  472.63700869412685 328.49612621491394  L 473.2277347460603 327.6889431111604  C 471.85497056570216 326.7306626165637  470.47149205383624 325.7878228577395  469.0775607156756 324.86060205033033  L 468.5237154706493 325.6932216781087  Z M 345.4247850268096 330.2637379020891  C 346.93694095093804 327.8282093349653  348.57327780440875 325.4720114647338  350.32732004236885 323.2044685726137  L 349.53634737120143 322.59261709270515  C 347.7613400032565 324.88726271385343  346.10544488939297 327.27162295871176  344.5752149731904 329.7362620979109  L 345.4247850268096 330.2637379020891  Z M 468.4597099502985 332.65935103789684  L 477 331  L 475.7589738646901 322.3889690436349  L 468.4597099502985 332.65935103789684  Z " fill-rule="nonzero" fill="rgba(51, 51, 51, 1)" stroke="none" class="fill" />
  </g>
</svg>