<?xml version="1.0" encoding="utf-8"?>
<svg version="1.1" xmlns:xlink="http://www.w3.org/1999/xlink" width="46px" height="12px" viewBox="508 308 46 12" xmlns="http://www.w3.org/2000/svg">
  <g transform="matrix(-0.6427876096865459 0.7660444431189795 -0.766044443118972 -0.6427876096865389 1112.8581758829132 109.06571014539514 )">
    <path d="M 530.2453986914944 309.84139722963397  C 531.9258908067616 312.10702844002054  533.4203058054318 314.5049211329712  534.7140153065418 317.0116030548932  C 534.9387690532893 317.4421319203747  535.1606900081138 317.8741336999558  535.3797637843433 318.3075803878637  L 536.2722467443692 317.8564992797877  C 536.0515467026084 317.41983495707063  535.8279828936874 316.98462395178797  535.6015697648244 316.5508943882975  C 534.2833672214026 313.9970305697933  532.760736724113 311.5539838495192  531.0485747590147 309.24565550324377  L 530.2453986914944 309.84139722963397  Z M 520.7771477488099 301.54602051376224  C 521.2390216993902 301.7429796071153  521.689164922935 301.9663844952127  522.1253400152984 302.2151247603104  C 524.5173938219073 303.5910646566258  526.6450721295829 305.3823208738547  528.4085693414513 307.50486877572087  L 529.1777330451691 306.86581698057205  C 527.3379042568944 304.6513962783084  525.1180525441397 302.78268520625494  522.622351322336 301.34737881796485  C 522.1523051417694 301.0792397570894  521.6671844038043 300.8384353806519  521.1694059354128 300.6261653539447  L 520.7771477488099 301.54602051376224  Z M 508.6615141371794 302.3079053326363  C 510.7556708789677 301.1975431904597  513.075399424244 300.5791982198144  515.4443872430035 300.49986814653863  C 516.3065923945533 300.4863683813699  517.1680180258105 300.55820764922413  518.0160768883538 300.71433622662204  L 518.1971352399603 299.73086387148766  C 517.2812703078126 299.5622521214542  516.3509307302752 299.4849631046157  515.4197978945388 299.50013341774866  C 512.8958470484397 299.58329999163374  510.4241718207167 300.2414391598663  508.19306930538716 301.42441258248664  L 508.6615141371794 302.3079053326363  Z M 498.81978523735427 310.4040472174941  C 499.47299141557875 309.666980587871  500.13655055372817 308.9391543184985  500.81026506439764 308.22078513354694  C 502.422885680755 306.5707896240262  504.2061110436533 305.0966491300003  506.12996520773373 303.823143892834  L 505.5779878531992 302.9892847919776  C 503.5922315256039 304.30376648718317  501.75184849220244 305.82563522752946  500.08786517981014 307.5292343164278  C 499.4053163958191 308.25688205074175  498.73308963607997 308.99414369579506  498.071386447333 309.7407982061156  L 498.81978523735427 310.4040472174941  Z M 490.85693651851557 320.5913074721129  C 492.7352810746722 317.8560116043004  494.74241629973864 315.2114261145173  496.87156498107197 312.6664806045129  L 496.10458434497093 312.0248103591017  C 493.9551281481243 314.59402919528475  491.92884915443506 317.2638383631178  490.0325892166295 320.025223091589  L 490.85693651851557 320.5913074721129  Z M 536.6908493630089 320.9908326222605  C 537.3959317423627 322.4845455724135  538.0675281061741 323.9938367292939  538.7051349600395 325.5175745804461  L 539.645036225157 325.1731862135194  C 538.9964949269514 323.6215593983416  538.3130302704487 322.084761638511  537.5951639361596 320.56396595363043  L 536.6908493630089 320.9908326222605  Z M 484.44276238854275 331.2322960767898  C 485.9058841911948 328.4435477129617  487.4939123213312 325.72213747502235  489.20201607739193 323.07634375579914  L 488.36188438110173 322.53396129582404  C 486.6374889757877 325.2049902170175  485.0343144605397 327.9523568764636  483.55723761145725 330.7677039232102  L 484.44276238854275 331.2322960767898  Z M 532.9969400400709 326.58810444506594  L 541 330  L 544.7979996724158 322.17279114317694  L 532.9969400400709 326.58810444506594  Z " fill-rule="nonzero" fill="rgba(51, 51, 51, 1)" stroke="none" class="fill" />
  </g>
</svg>