<?xml version="1.0" encoding="utf-8"?>
<svg version="1.1" xmlns:xlink="http://www.w3.org/1999/xlink" width="19.298038933754242px" height="18px" viewBox="571.8775690033268 317.2812557947791 19.298038933754242 18" xmlns="http://www.w3.org/2000/svg">
  <g transform="matrix(-0.3683528824490172 0.9296860513052236 -0.9296860513052265 -0.3683528824490181 1099.0727158687055 -94.1692609079904 )">
    <path d="M 571.7756772481762 310.162128698603  C 572.2846113375047 310.7304092588676  572.7601441397418 311.32774034689953  573.1998783539857 311.9511106407687  C 574.6220394233945 314.0478892845757  575.9481674664994 316.2082215128851  577.1741576742078 318.4254203761065  L 578.0492828713719 317.9415238073147  C 576.8071626785201 315.6951539242113  575.4634678833526 313.5064684009726  574.0223675080838 311.3822579750485  C 573.5588481232157 310.72454527868706  573.0574133827346 310.0943888102738  572.5206106755159 309.49498989083355  L 571.7756772481762 310.162128698603  Z M 561.1543661818657 307.314333118434  C 562.2105835017622 306.5197196511034  563.490887681934 306.07919208917696  564.8124217162457 306.0556679426819  C 566.2710093854928 306.09548222936985  567.6797812110564 306.5948483711832  568.8378199060124 307.48254738959463  C 569.120835252368 307.6925928273061  569.3981692261391 307.91018709321617  569.6695230077042 308.13509573557224  L 570.3076630901713 307.3651754571349  C 570.0245022268913 307.130480643002  569.7351433412813 306.9033659233565  569.4398939564649 306.68407266983536  C 568.1097245007502 305.6665387191855  566.4914731462445 305.0964100185026  564.8172422396349 305.05545891358065  C 563.2771429860151 305.07808045846974  561.7840205550353 305.5892381020243  560.5531802986804 306.5152239057111  L 561.1543661818657 307.314333118434  Z M 554.0087202484787 317.7198039315168  C 554.934444508366 315.7438666933388  555.9461980068525 313.8093883317787  557.0410769747718 311.9219208697624  C 557.6133506422498 310.9800059369898  558.2759038458977 310.09600031977175  559.0193742657987 309.2823956087475  L 558.2811662110191 308.60782250829163  C 557.4916284860569 309.47184022219915  556.7882800798359 310.41083486081345  556.1811180443391 311.4114600112748  C 555.069664302464 313.3269156280468  554.0426974723194 315.29016503068993  553.103173918215 317.295556546438  L 554.0087202484787 317.7198039315168  Z M 549.5643660934209 329.82751397982145  C 550.4334096833553 326.63113286324835  551.5138403464069 323.49601603956944  552.7985212250618 320.44287273412016  L 551.8767937603947 320.0550345192956  C 550.5749358773289 323.14900030205894  549.480059165789 326.32603564138145  548.5993959076354 329.5651544163493  L 549.5643660934209 329.82751397982145  Z M 578.5703790588508 321.06036764220624  C 579.315443805488 322.52917590086395  580.0169499613137 324.01967650515326  580.6739794015459 325.52991870164055  L 581.6147954751066 325.1858278800573  C 580.9430481682394 323.6387676342332  580.2251963426712 322.1121373915627  579.4622021174933 320.6079832568951  L 578.5703790588508 321.06036764220624  Z M 574.932860582083 326.74250685159745  L 583 330  L 586.6469048285288 322.10126053273984  L 574.932860582083 326.74250685159745  Z " fill-rule="nonzero" fill="rgba(51, 51, 51, 1)" stroke="none" class="fill" />
  </g>
</svg>