<?xml version="1.0" encoding="utf-8"?>
<svg version="1.1" xmlns:xlink="http://www.w3.org/1999/xlink" width="19.410773297795345px" height="18px" viewBox="722.6702337124564 318.98128644746464 19.410773297795345 18" xmlns="http://www.w3.org/2000/svg">
  <g transform="matrix(-0.6560949096615215 0.7546783881337993 -0.7546783881337991 -0.6560949096615253 1460.4039254348597 -9.539913732913249 )">
    <path d="M 718.3375697848458 315.2612578301711  C 720.9164136081365 317.35172135288065  723.4055348737505 319.55050205561156  725.7982380427105 321.85168539249565  L 726.4914261436166 321.13092866740595  C 724.0783658540973 318.81016686077027  721.5680671426783 316.5926789299854  718.9672825139858 314.48442974187924  L 718.3375697848458 315.2612578301711  Z M 707.8534639890195 307.67933980431866  C 710.6464522163074 309.4736892593976  713.3621669591838 311.3855612972033  715.9933031601772 313.4098131334462  L 716.6030708669175 312.6172329521291  C 713.9495489569304 310.57575877957413  711.2107289107528 308.64762053287353  708.3939779372963 306.8380047511334  L 707.8534639890195 307.67933980431866  Z M 696.5556008590977 301.4251057721471  C 698.4709927674628 302.28646747248  700.3477680311793 303.2312468721646  702.1805392949511 304.2567319457386  C 703.2364262148764 304.8538440314536  704.2830061680058 305.46726618902824  705.3199029777452 306.09677793358003  L 705.8388613868228 305.24197844267735  C 704.7924962491122 304.6067183694557  703.7363535457895 303.98770486391015  702.6708133600258 303.3851606957627  C 700.8119496004623 302.3450000896084  698.9084364600347 301.386723508301  696.9657419361172 300.5130836797933  L 696.5556008590977 301.4251057721471  Z M 684.3705376030675 297.2115375821381  C 687.584699810101 298.00915643223817  690.7399836167953 299.027645792979  693.8139000754097 300.2597464904128  L 694.185950323194 299.3315338999339  C 691.0693275168975 298.0823154566302  687.8702069146702 297.04967608194613  684.6113899063212 296.2409758025396  L 684.3705376030675 297.2115375821381  Z M 671.6292366992864 295.23943851651893  C 674.9341336681873 295.4508399074965  678.2205011328546 295.8900726088115  681.4649158608008 296.55400603638014  L 681.6653999582077 295.5743090798232  C 678.3759101264767 294.90115153306414  675.0438847028366 294.4558165109126  671.6930723419891 294.2414780910908  L 671.6292366992864 295.23943851651893  Z M 658.7386242643271 295.6123139348131  C 661.6706273902513 295.2872992458751  664.6175081230796 295.1144983858509  667.5674032417413 295.09460699701106  C 667.9292786598121 295.09728640587093  668.2911287253553 295.1026948907745  668.6529225686511 295.1108319903195  L 668.6754078663512 294.1110848165864  C 668.3062289816685 294.10278162019364  667.9369923921984 294.09728063911473  667.5677300041939 294.09458234869726  C 664.58091580521 294.1144781527347  661.5971450332447 294.2893196355295  658.6284483811036 294.6184018286608  L 658.7386242643271 295.6123139348131  Z M 646.0496364815232 298.0014686860526  C 649.2515313884593 297.1434744945834  652.5006879697656 296.47272700649717  655.7805959369849 295.99263456307654  L 655.6357654762647 295.00317807709666  C 652.3174319727577 295.4888950105306  649.0302101209111 296.1675005946979  645.7908036343314 297.03554655812786  L 646.0496364815232 298.0014686860526  Z M 633.8661955257741 302.2772420494679  C 636.9020408015625 300.9461040066142  640.012850525007 299.7929415951814  643.1828174044053 298.82361450323714  L 642.890398535417 297.86732416810895  C 639.6832941269871 298.84800734495496  636.536039926103 300.0146795513363  633.4646284137087 301.36141245041165  L 633.8661955257741 302.2772420494679  Z M 622.3065613814058 308.1109795389485  C 625.0444535468935 306.5858464914465  627.8249191652636 305.1384278602257  630.6446255702492 303.7704585213496  C 630.8148696066054 303.6872048427637  630.9853904302205 303.60451835784306  631.1561852042637 303.52240044218246  L 630.722869152597 302.6211584106681  C 630.5505450968075 302.7040116030968  630.3784966886413 302.787436890493  630.2067267746967 302.8714328925575  C 627.3705442978468 304.24742832555125  624.5738261976892 305.7033240971435  621.8199235113423 307.2373757480799  L 622.3065613814058 308.1109795389485  Z M 611.2409333354448 314.85301028174837  C 614.009665977045 313.014434701589  616.832903299248 311.2592889974617  619.7068398093191 309.5899389620584  L 619.2045664295648 308.72523007926014  C 616.3133451984556 310.40462008930297  613.4731280754188 312.1703217691027  610.6877434405782 314.01995509737134  L 611.2409333354448 314.85301028174837  Z M 600.733927455857 322.43627673062946  C 603.3510777004848 320.3876759394421  606.0290640128233 318.4180072538128  608.7642766865966 316.5299256258534  L 608.1961914316079 315.7069559161652  C 605.4445283637897 317.60639303653886  602.7504358340059 319.5879079037562  600.1175452583935 321.64882959802304  L 600.733927455857 322.43627673062946  Z M 727.9248034634419 323.94957790259116  C 729.0864345960363 325.1250464332674  730.2231452183051 326.324883713608  731.3341770637671 327.5482893671801  L 732.1030585070107 326.90749633386923  C 730.9734864872986 325.6627780259519  729.8175670281553 324.4422265622608  728.636084384723 323.2466700487287  L 727.9248034634419 323.94957790259116  Z M 591.3364507285352 330.36986606666215  C 593.6323231002694 328.2814129704787  595.9862209756647 326.2576524695505  598.3953773613721 324.30096348265045  L 597.7649304182614 323.52473113861765  C 595.3412846393738 325.49318824328316  592.9732297121492 327.52912025029156  590.6635492714648 329.63013393333785  L 591.3364507285352 330.36986606666215  Z M 726.3089566967878 330.60532760206434  L 735 331  L 735.8179043872742 322.3385317403296  L 726.3089566967878 330.60532760206434  Z " fill-rule="nonzero" fill="rgba(51, 51, 51, 1)" stroke="none" class="fill" />
  </g>
</svg>