<?xml version="1.0" encoding="utf-8"?>
<svg version="1.1" xmlns:xlink="http://www.w3.org/1999/xlink" width="42px" height="10px" viewBox="728 308 42 10" xmlns="http://www.w3.org/2000/svg">
  <g transform="matrix(-0.5877852522924706 -0.809016994374943 0.8090169943749467 -0.5877852522924727 936.0288347277021 1102.9305127543762 )">
    <path d="M 775.0240117612735 310.47447545351275  C 776.998489347062 313.1412599477442  778.8456290427142 315.9000110126875  780.5592298277953 318.74146726341945  L 781.4155602483639 318.22503894234393  C 779.6856628258485 315.35655995521563  777.8209565148146 312.57157269438216  775.8277013084636 309.8794266221236  L 775.0240117612735 310.47447545351275  Z M 765.8445227817176 301.7442466762032  C 766.2648568382829 301.9623218502234  766.6710863374992 302.206569116805  767.0608146288961 302.47554747935004  C 769.3638876839765 304.02868541904854  771.4268315183226 305.91106303597275  773.1838461940315 308.06263975691763  C 773.193728638854 308.0752120068289  773.2036082154514 308.08778651084265  773.213484923254 308.1003632682341  L 773.9999560496188 307.48273622268437  C 773.9880813594275 307.4676152835394  773.9762025613162 307.4524975708252  773.964319656628 307.4373830862511  C 772.1453380573294 305.20847608082903  770.0092807516422 303.2584072912274  767.6243432780313 301.6494344063181  C 767.2015398601391 301.3579050673158  766.7609138753551 301.093109632884  766.3050466093753 300.85659933397795  L 765.8445227817176 301.7442466762032  Z M 754.3716590632806 303.29169732523735  C 754.9284585160914 302.8209088114473  755.5119431360993 302.38262034597267  756.1192073098172 301.97901450026944  C 757.6816874748004 300.94215448278027  759.5313268561325 300.42437232391063  761.4050415011554 300.4993149076673  C 761.9940373051339 300.5395564061264  762.5789802781002 300.62583385759905  763.1545123017527 300.75735695463106  L 763.3772935111922 299.7824884851847  C 762.7463250758819 299.6382968167267  762.1049710560573 299.5440725462603  761.4591920862434 299.50069137803354  C 759.3704605275913 299.4141530431535  757.3078167484242 299.99001150147626  755.5659759115207 301.1459868067524  C 754.9265888367873 301.57092620117953  754.3122421816329 302.0323884058504  753.7259961817437 302.52807474607573  L 754.3716590632806 303.29169732523735  Z M 747.1042015024094 313.7276338314585  C 748.2842441840971 311.429604651061  749.5811118923762 309.1934677858998  750.9897170802175 307.0279954888363  C 751.3924302566729 306.44238511671864  751.8277408744495 305.87987318778477  752.2935892715681 305.34312121403457  L 751.5383623183262 304.68765782901835  C 751.045116290901 305.2559774377206  750.5843933124465 305.85172713016647  750.1583985301587 306.4720554840806  C 748.7285120733889 308.669446372954  747.4121958153879 310.9386839393073  746.2146303383089 313.2708372202616  L 747.1042015024094 313.7276338314585  Z M 742.2107017834448 325.6624484728927  C 743.2017910403761 322.5015265662097  744.3992364641214 319.40904789872434  745.7953200416391 316.4049447280695  L 744.888463490679 315.98350529472145  C 743.4739429152748 319.0272813364708  742.2606837543705 322.16059998200234  741.256505946847 325.36326574374624  L 742.2107017834448 325.6624484728927  Z M 782.0646766373352 321.31984776348617  C 782.8767999982032 322.757258627146  783.6549575766916 324.2135968461926  784.3985021187831 325.6876510711656  L 785.3127505961716 325.2797423743911  C 784.5556683508302 323.77717655911783  783.7629688743697 322.292823114185  782.9353241153217 320.8279402832871  L 782.0646766373352 321.31984776348617  Z M 778.7308609372462 327.29605119115774  L 787 330  L 790.1038664696794 321.87251496842964  L 778.7308609372462 327.29605119115774  Z " fill-rule="nonzero" fill="rgba(51, 51, 51, 1)" stroke="none" class="fill" />
  </g>
</svg>