<?xml version="1.0" encoding="utf-8"?>
<svg version="1.1" xmlns:xlink="http://www.w3.org/1999/xlink" width="38px" height="10px" viewBox="802 312 38 10" xmlns="http://www.w3.org/2000/svg">
  <g transform="matrix(-0.601815023152044 0.7986355100472998 -0.7986355100472968 -0.6018150231520507 1568.2575906928214 -147.9043914096331 )">
    <path d="M 817.7756772481762 310.162128698603  C 818.2846113375047 310.7304092588676  818.7601441397418 311.32774034689953  819.1998783539857 311.9511106407687  C 820.6220394233945 314.0478892845757  821.9481674664994 316.2082215128851  823.1741576742078 318.4254203761065  L 824.0492828713719 317.9415238073147  C 822.8071626785201 315.6951539242113  821.4634678833526 313.5064684009726  820.0223675080838 311.3822579750485  C 819.5588481232157 310.72454527868706  819.0574133827346 310.0943888102738  818.5206106755159 309.49498989083355  L 817.7756772481762 310.162128698603  Z M 807.1543661818657 307.314333118434  C 808.2105835017622 306.5197196511034  809.490887681934 306.07919208917696  810.8124217162457 306.0556679426819  C 812.2710093854928 306.09548222936985  813.6797812110564 306.5948483711832  814.8378199060124 307.48254738959463  C 815.120835252368 307.6925928273061  815.3981692261391 307.91018709321617  815.6695230077042 308.13509573557224  L 816.3076630901713 307.3651754571349  C 816.0245022268913 307.130480643002  815.7351433412813 306.9033659233565  815.4398939564649 306.68407266983536  C 814.1097245007502 305.6665387191855  812.4914731462445 305.0964100185026  810.8172422396349 305.05545891358065  C 809.2771429860151 305.07808045846974  807.7840205550353 305.5892381020243  806.5531802986804 306.5152239057111  L 807.1543661818657 307.314333118434  Z M 800.0087202484787 317.7198039315168  C 800.934444508366 315.7438666933388  801.9461980068525 313.8093883317787  803.0410769747718 311.9219208697624  C 803.6133506422498 310.9800059369898  804.2759038458977 310.09600031977175  805.0193742657987 309.2823956087475  L 804.2811662110191 308.60782250829163  C 803.4916284860569 309.47184022219915  802.7882800798359 310.41083486081345  802.1811180443391 311.4114600112748  C 801.069664302464 313.3269156280468  800.0426974723194 315.29016503068993  799.103173918215 317.295556546438  L 800.0087202484787 317.7198039315168  Z M 795.5643660934209 329.82751397982145  C 796.4334096833553 326.63113286324835  797.5138403464069 323.49601603956944  798.7985212250618 320.44287273412016  L 797.8767937603947 320.0550345192956  C 796.5749358773289 323.14900030205894  795.480059165789 326.32603564138145  794.5993959076354 329.5651544163493  L 795.5643660934209 329.82751397982145  Z M 824.5703790588508 321.06036764220624  C 825.315443805488 322.52917590086395  826.0169499613137 324.01967650515326  826.6739794015459 325.52991870164055  L 827.6147954751066 325.1858278800573  C 826.9430481682394 323.6387676342332  826.2251963426712 322.1121373915627  825.4622021174933 320.6079832568951  L 824.5703790588508 321.06036764220624  Z M 820.932860582083 326.74250685159745  L 829 330  L 832.6469048285288 322.10126053273984  L 820.932860582083 326.74250685159745  Z " fill-rule="nonzero" fill="rgba(51, 51, 51, 1)" stroke="none" class="fill" />
  </g>
</svg>