<?xml version="1.0" encoding="utf-8"?>
<svg version="1.1" xmlns:xlink="http://www.w3.org/1999/xlink" width="19.333058869457204px" height="18px" viewBox="870.6117130342468 319.38952205319583 19.333058869457204 18" xmlns="http://www.w3.org/2000/svg">
  <g transform="matrix(-0.4304393827561721 0.9026194867010598 -0.9026194867010542 -0.43043938275616916 1555.595447644669 -324.8149901420909 )">
    <path d="M 870.0240117612736 312.4744754535127  C 871.9984893470621 315.1412599477441  873.8456290427143 317.9000110126875  875.5592298277954 320.74146726341945  L 876.415560248364 320.22503894234393  C 874.6856628258483 317.35655995521523  872.820956514815 314.5715726943825  870.8277013084637 311.87942662212356  L 870.0240117612736 312.4744754535127  Z M 860.8445227817176 303.7442466762032  C 861.2648568382818 303.96232185022285  861.6710863374971 304.2065691168037  862.060814628893 304.47554747934794  C 864.3638876839763 306.0286854190479  866.4268315183248 307.91106303597434  868.1838461940353 310.06263975692207  C 868.193728638859 310.0752120068349  868.2036082154502 310.087786510841  868.2134849232541 310.100363268234  L 868.999956049619 309.48273622268425  C 868.9880813593737 309.46761528347076  868.9762025613757 309.4524975709008  868.9643196566337 309.4373830862582  C 867.1453380573332 307.20847608083255  865.0092807516426 305.2584072912272  862.6243432780283 303.649434406316  C 862.2015398601369 303.35790506731456  861.7609138753539 303.09310963288345  861.3050466093753 302.85659933397795  L 860.8445227817176 303.7442466762032  Z M 849.3716590632806 305.29169732523735  C 849.9284585160852 304.82090881145245  850.5119431360861 304.3826203459827  851.1192073097967 303.9790145002831  C 852.6816874747844 302.9421544827847  854.5313268561251 302.42437232391006  856.4050415011569 302.49931490766744  C 856.9940373051347 302.53955640612656  857.578980278101 302.62583385759916  858.1545123017528 302.75735695463106  L 858.3772935111923 301.7824884851847  C 857.7463250758825 301.6382968167268  857.1049710560586 301.54407254626045  856.4591920862451 301.50069137803365  C 854.3704605275828 301.4141530431528  852.3078167484063 301.9900115014813  850.5659759114974 303.14598680676795  C 849.9265888367728 303.57092620119056  849.3122421816254 304.03238840585675  848.7259961817437 304.52807474607573  L 849.3716590632806 305.29169732523735  Z M 842.1042015024094 315.72763383145855  C 843.2842441840971 313.42960465106114  844.5811118923762 311.19346778589977  845.9897170802175 309.0279954888363  C 846.3924302566729 308.44238511671864  846.8277408744495 307.87987318778477  847.2935892715681 307.34312121403457  L 846.5383623183262 306.68765782901835  C 846.045116290901 307.2559774377206  845.5843933124465 307.85172713016647  845.1583985301587 308.4720554840806  C 843.7285120733889 310.6694463729539  842.4121958153879 312.9386839393074  841.2146303383089 315.2708372202617  L 842.1042015024094 315.72763383145855  Z M 837.2107017834448 327.6624484728927  C 838.2017910403761 324.5015265662097  839.3992364641214 321.40904789872434  840.7953200416391 318.4049447280695  L 839.888463490679 317.98350529472145  C 838.4739429152748 321.0272813364708  837.2606837543705 324.16059998200234  836.256505946847 327.36326574374624  L 837.2107017834448 327.6624484728927  Z M 877.0646766373352 323.3198477634861  C 877.8767999982027 324.757258627145  878.6549575766921 326.21359684619347  879.3985021187832 327.68765107116553  L 880.3127505961717 327.2797423743911  C 879.5556683508295 325.7771765591161  878.7629688743706 324.2928231141866  877.9353241153217 322.82794028328703  L 877.0646766373352 323.3198477634861  Z M 873.7308609372462 329.29605119115774  L 882 332  L 885.1038664696794 323.87251496842964  L 873.7308609372462 329.29605119115774  Z " fill-rule="nonzero" fill="rgba(51, 51, 51, 1)" stroke="none" class="fill" />
  </g>
</svg>