<?xml version="1.0" encoding="utf-8"?>
<svg version="1.1" xmlns:xlink="http://www.w3.org/1999/xlink" width="244px" height="20px" viewBox="176 290 244 20" xmlns="http://www.w3.org/2000/svg">
  <g transform="matrix(-0.9848077530122084 -0.1736481776669309 0.17364817766692847 -0.984807753012211 539.3782570975595 647.1894828484086 )">
    <path d="M 664.8319526335741 323.8705284204849  C 668.0329828372053 324.7949443566012  671.2298320381716 325.73377716282846  674.4224029044892 326.6869982552539  L 674.7084976422036 325.72879691886783  C 671.5130487942027 324.77471653374096  668.3133177550922 323.835037405394  665.1094019440055 322.90978814333346  L 664.8319526335741 323.8705284204849  Z M 652.327126427107 320.33851104382063  C 655.5387651329796 321.2253684229179  658.7463919942692 322.1266906570132  661.9499093512112 323.0424503043496  L 662.2247606089005 322.0809635461742  C 659.0183554024883 321.16437837622703  655.8078369872835 320.2622436343346  652.5933031108525 319.37458678692576  L 652.327126427107 320.33851104382063  Z M 639.7817859708467 316.95321075588134  C 643.00359251047 317.8023878923838  646.2215569142356 318.66607588410324  649.4355812076404 319.54424843509855  L 649.6991512730079 318.5796081805777  C 646.4822296585878 317.70064399033055  643.2613643818848 316.83617741662346  640.0366535058464 315.9862347791357  L 639.7817859708467 316.95321075588134  Z M 627.1976526089427 313.7150920531762  C 630.4291849187589 314.5264724316254  633.657045328621 315.3524076744782  636.8811355627316 316.1928726352177  L 637.1333882713708 315.2252112424856  C 633.9063916421211 314.38398863444115  630.6756214385674 313.5573088423037  627.4411760248629 312.74519703519815  L 627.1976526089427 313.7150920531762  Z M 614.5764530083118 310.6245992374521  C 617.8172676902915 311.3980715284765  621.0545812120423 312.18614069602035  624.2882950099553 312.9887827464419  L 624.5291957503126 312.018232988163  C 621.2925668819825 311.21486738635656  618.0523350449184 310.4260878043583  614.8085988913438 309.65191825738145  L 614.5764530083118 310.6245992374521  Z M 601.9199189217253 307.68215635473206  C 605.1695713042066 308.41761443032294  608.415893746577 309.1677093917142  611.6587874109416 309.93241840143094  L 611.8883031290652 308.9591134465817  C 608.6424861190422 308.1937150806927  605.3932372400375 307.44294393712505  602.1406554191698 306.70682287396977  L 601.9199189217253 307.68215635473206  Z M 589.2297869501921 304.88816713713135  C 592.4878311488934 305.58551008520425  595.7427170845026 306.29752792003353  598.9943456583999 307.024198963445  L 599.212444862475 306.0482723590418  C 595.9578850687296 305.3209462492422  592.7000649768214 304.6082865573229  589.4390837748296 303.9103149810276  L 589.2297869501921 304.88816713713135  Z M 576.5077983046817 302.243014947462  C 579.7737872838817 302.9021470857029  583.0367901103536 303.5759900981176  586.2967074383491 304.2645234688066  L 586.5033602030187 303.2861091215823  C 583.2405041831169 302.59695506415795  579.9745598833985 301.92250460783384  576.7056267389287 301.2627782869542  L 576.5077983046817 302.243014947462  Z M 563.7556985672139 299.7470627266308  C 567.0291842010893 300.367893615625  570.2998562023297 301.00346934773364  573.5676149916904 301.65377057214704  L 573.762792962162 300.67300273017696  C 570.4920884121149 300.02211528385897  567.2184680241577 299.38596660434223  563.9420314670625 298.76457605983376  L 563.7556985672139 299.7470627266308  Z M 550.9752374513454 297.4006529438417  C 554.2557705854581 297.9830973994826  557.5336629930869 298.5803186440408  560.8088148751541 299.19229849445196  L 560.9924912710898 298.2093117287343  C 557.7143869637432 297.5967802016846  554.433539660475 296.9990205848336  551.1500492500883 296.4160510775931  L 550.9752374513454 297.4006529438417  Z M 538.1680875820657 295.210927753944  C 540.7106663082963 295.62625316425743  543.2512810402116 296.0535138731663  545.7898477720023 296.4926957532307  C 546.5340495499645 296.62118562054366  547.2781199215946 296.7504354282399  548.0220577216551 296.8804449739099  L 548.1942073408459 295.8953741599008  C 547.4496545834244 295.76525714512906  546.7049691550646 295.6359004395483  545.9601522211686 295.50730424559674  C 543.4185568670413 295.0675989408017  540.8749111166702 294.63982876804215  538.3292990722427 294.22400787095705  L 538.1680875820657 295.210927753944  Z M 525.3299206367699 293.217733033938  C 528.6257336913724 293.7028190468096  531.9185713802527 294.207909735776  535.2082516555354 294.7329771763854  L 535.3658670932027 293.7454766073684  C 532.072190021024 293.2197712360967  528.7753516991824 292.7140668872267  525.4755343966638 292.2283915191265  L 525.3299206367699 293.217733033938  Z M 512.4618922337406 291.4274255949837  C 515.7649513552509 291.86042971803545  519.0653512376086 292.3134829885495  522.362909414855 292.78656035901577  L 522.5049184046145 291.79669499098463  C 519.2033538592153 291.3230428551893  515.8989441562101 290.8694391476302  512.591871983175 290.43590894623946  L 512.4618922337406 291.4274255949837  Z M 499.56720848717237 289.840451498429  C 502.8766907068803 290.22126584717216  506.18383047656454 290.6221688194301  509.48844495764405 291.043138250875  L 509.6148121174602 290.05115471224144  C 506.30618269517186 289.6296738240056  502.9950249162144 289.2282837747045  499.6815218412388 288.84700675558616  L 499.56720848717237 289.840451498429  Z M 486.6490821525322 288.4572061444094  C 489.9641629014214 288.7857358376227  493.27721857295205 289.13438862524333  496.58806600166236 289.50314523166696  L 496.69875984671614 288.50929067859227  C 493.38388990410846 288.14008605135035  490.0668090357181 287.791009668039  486.74770062965945 287.4620808276934  L 486.6490821525322 288.4572061444094  Z M 473.7107318260888 287.27803417333365  C 477.030585140157 287.5541973566912  480.34873125427276 287.85051309162805  483.66498672135805 288.1669649960279  L 483.7599796718917 287.1714870508433  C 480.43969512038217 286.85465067321707  477.1175176248356 286.55797492949506  473.7936308551392 286.28147622169087  L 473.7107318260888 287.27803417333365  Z M 460.7553811429902 286.30322938001433  C 464.07917986922655 286.526957246498  467.40158969817816 286.77086210064493  470.72242694704386 287.03493045792777  L 470.80169533523207 286.03807714743823  C 467.4768234353066 285.7736879603171  464.15037704472417 285.5294867739815  460.8225400693812 285.30548708933696  L 460.7553811429902 286.30322938001433  Z M 447.7862579740816 285.5330346404684  C 451.11317397643114 285.70427144749925  454.4390197302128 285.89570465111063  457.7636113626662 286.1073236677235  L 457.82713543851344 285.10934336141094  C 454.4985045936121 284.89746723828375  451.16861810372274 284.70580145291257  447.8376600649322 284.534356601731  L 447.7862579740816 285.5330346404684  Z M 434.8065936216719 284.96764185140376  C 438.13579798739954 285.0863449347337  441.4642510199316 285.2252587915585  444.7917687023626 285.3843757418847  L 444.83953263862355 284.38551709002604  C 441.5079721887404 284.2262068205685  438.1754752523874 284.0871241903613  434.8422260699718 283.9682768887259  L 434.8065936216719 284.96764185140376  Z M 421.8196220144419 284.6071918824072  C 425.1502852606586 284.6733316667486  428.4805162762503 284.7596915659146  431.8101309460128 284.86626680541053  L 431.84212284213595 283.8667786771257  C 428.50846285718654 283.7600739540475  425.17418577761373 283.6736091319269  421.83947594224225 283.6073889910577  L 421.8196220144419 284.6071918824072  Z M 408.8296209931381 284.45866627315644  C 410.8845469049227 284.4625803259096  412.93944223874695 284.47634731877656  414.9942361320427 284.4999667770061  C 416.2701744075144 284.5147194284066  417.54607665142055 284.5324391996343  418.8219325139781 284.5531259469513  L 418.8381443990709 283.55325736819617  C 417.5607272074145 283.5325453054643  416.28326357719806 283.5148038757701  415.00576387117087 283.50003322303155  C 412.9477624249804 283.4763767868899  410.8896593788943 283.46258824975456  408.83152570689487 283.4586680871253  L 408.8296209931381 284.45866627315644  Z M 395.8403817097495 284.5651605040007  C 399.1705834443461 284.5042055177304  402.50120861739066 284.469132838065  405.83195548542164 284.4599456424713  L 405.82919719696304 283.45994944655615  C 402.4932692038347 283.46915093324174  399.15746309496575 283.5042781700228  395.8220810832512 283.56532797448904  L 395.8403817097495 284.5651605040007  Z M 382.8559457852249 284.9340804197648  C 386.18423609229666 284.8058511906095  389.51347270311794 284.7034904288328  392.843353999933 284.62700740797925  L 392.8203913633423 283.62727108408137  C 389.4853302878489 283.7038730776806  386.1509149012049 283.8063930661811  382.81744729031016 283.93482176161405  L 382.8559457852249 284.9340804197648  Z M 369.8816145468333 285.56527539663847  C 373.2066345413379 285.369824278439  376.5331233184407 285.20021722673425  379.8607795094231 285.05646960735385  L 379.8176218999596 284.05740133103563  C 376.4847893915502 284.20137255624087  373.1531261130022 284.3712434392684  369.8229339017916 284.5669985903881  L 369.8816145468333 285.56527539663847  Z M 356.92268519627015 286.45848772830624  C 360.24307732831704 286.1958945204758  363.56546012222407 285.95911042655246  366.8895325811684 285.748156898387  L 366.8261976193596 284.75016457245823  C 363.49695441762753 284.96144624823415  360.1694035093462 285.19859867035905  356.84384635942394 285.46160035362203  L 356.92268519627015 286.45848772830624  Z M 343.9844486468981 287.6133527311638  C 347.2988572561371 287.28372464609953  350.61577759365184 286.97986018493356  353.9349091575923 286.7017868767662  L 353.8514227020403 285.7052779647442  C 350.52712808112534 285.9837838283272  347.20504812626837 286.2881209641985  343.88548380682124 286.61826180043  L 343.9844486468981 287.6133527311638  Z M 331.0721873635567 289.0293988932127  C 334.3792592325633 288.6328705125308  337.6893628708109 288.2620497468797  341.00219839401973 287.9169701913762  L 340.89859453084307 286.9223515511252  C 337.58060574441606 287.26796789324794  334.26535309253643 287.6393654871153  330.9531369259325 288.03651068535567  L 331.0721873635567 289.0293988932127  Z M 318.1911732058201 290.70604806657076  C 321.4895581126377 290.2427812861563  324.7914935918872 289.805155615911  328.0966804992046 289.39321070326434  L 327.9730015281218 288.4008884208823  C 324.6626732553335 288.8134741321916  321.35560146841806 289.2517805486534  318.05208577694435 289.71576796118205  L 318.1911732058201 290.70604806657076  Z M 305.3466652755857 292.64261570351965  C 308.6350165450446 292.1127996674196  311.9274357403953 291.608547767805  315.22362457950896 291.12990568820544  L 315.07992099656826 290.1402849122261  C 311.778604788895 290.6196715409004  308.481064088851 291.1247078268028  305.18759764252115 291.6553480153463  L 305.3466652755857 292.64261570351965  Z M 292.5448554770815 294.8400808722789  C 293.18408998506504 294.7229754484071  293.8235314926887 294.6070027888575  294.4631769885715 294.49216343979106  C 297.10200665145624 294.02037195689365  299.7437614938174 293.56509059868785  302.38828648761483 293.1263460827841  L 302.22461696457736 292.1398308587613  C 299.57585917599283 292.5792776238418  296.9298760986028 293.0352884446208  294.28682302266384 293.50783655825217  C 293.6458959001749 293.6229055704616  293.00517321191086 293.7391103745296  292.3646579763877 293.85645042300246  L 292.5448554770815 294.8400808722789  Z M 279.79808373416296 297.3311047852674  C 283.05881759200753 296.65382422645257  286.3256341852941 296.00616626534406  289.5981294928214 295.38821100057606  L 289.41257569881884 294.4055768929189  C 286.1341319438286 295.02465542115453  282.86137722532027 295.6734906366218  279.5947162989175 296.3520022950849  L 279.79808373416296 297.3311047852674  Z M 267.1136687422979 300.1223422017716  C 270.35750564021316 299.36827560871393  273.60812286669346 298.64367976572953  276.8651184039822 297.94864428669007  L 276.65641968830636 296.9706643042389  C 273.39350387764205 297.66696315622266  270.1369779716914 298.3928761043239  266.887244718991 299.1483133717724  L 267.1136687422979 300.1223422017716  Z M 254.49868013837343 303.21223743041605  C 257.72381212942656 302.3818050808387  260.9564182632082 301.5806752082183  264.1960987493804 300.8089468917402  L 263.96437142990175 299.8361661099567  C 260.7188021440956 300.60929720471705  257.4803200697871 301.41188329912603  254.24932572404518 302.243825133894  L 254.49868013837343 303.21223743041605  Z M 241.9601488645989 306.5990683234076  C 245.16477842703475 305.6927330573493  248.37757178061665 304.8155156634567  251.5981315853385 303.9675246309872  L 251.3435048148801 303.00048522756776  C 248.11709096636326 303.85001766182546  244.8984576861734 304.7288295825474  241.68800303650343 305.63681230329126  L 241.9601488645989 306.5990683234076  Z M 229.5050632498221 310.2809472363712  C 232.68740428887867 309.2992141982296  235.87859421737915 308.3463981986802  239.0782383671956 307.4226170765589  L 238.8008540615502 306.46185802925226  C 235.59539388656395 307.38731831755774  232.39840330015764 308.34186626029583  229.21027768796873 309.3253838043989  L 229.5050632498221 310.2809472363712  Z M 217.14036511459648 314.255822080425  C 220.29864395795215 313.19923843742527  223.4664518571811 312.1713548825699  226.64339703591142 311.17229853862085  L 226.34340979474487 310.21835532483016  C 223.1606898509915 311.21922766348683  219.98712379560558 312.24897961257835  216.82310411721136 313.3074838182325  L 217.14036511459648 314.255822080425  Z M 204.8729459021688 318.52147746590856  C 208.00540228852557 317.3906321031328  211.1480625862264 316.2882538820931  214.30053812892257 315.214479138657  L 213.97811514960793 314.2678834369924  C 210.8199093205614 315.3436099915282  207.67153657780958 316.44799201648453  204.53338629412332 317.580892928196  L 204.8729459021688 318.52147746590856  Z M 192.70964283754574 323.07553593712686  C 195.81453089775164 321.8710591292832  198.93029203755177 320.6948006506861  202.05654091741962 319.54690597425997  L 201.7118619018501 318.6081853682083  C 198.57993040811405 319.75816658427283  195.45850571810215 320.93656315968053  192.34797387180367 322.14322935706906  L 192.70964283754574 323.07553593712686  Z M 677.2945488050522 327.5487782583371  C 678.8888191142483 328.0294847081437  680.4820050318065 328.51378024832013  682.0740944421644 329.0016611959868  L 682.3713963929918 328.04686705713607  C 680.7764372547365 327.5580996253475  679.1803786284005 327.07292730220615  677.583232673394 326.591353783948  L 677.2945488050522 327.5487782583371  Z M 184.1885788944701 326.4630745086489  C 186.09415409249485 325.6870627492851  188.00406770551913 324.92174732857364  189.9182295721971 324.1671643747814  L 189.5514866266294 323.2368420586585  C 187.6338453687632 323.9927966254402  185.7204600866693 324.75950316764346  183.8114211055299 325.5369254913511  L 184.1885788944701 326.4630745086489  Z M 679.4125850999919 334.2568926619232  L 687 330  L 683.1180667953447 322.21407715202656  L 679.4125850999919 334.2568926619232  Z " fill-rule="nonzero" fill="rgba(51, 51, 51, 1)" stroke="none" class="fill" />
  </g>
</svg>