<?xml version="1.0" encoding="utf-8"?>
<svg version="1.1" xmlns:xlink="http://www.w3.org/1999/xlink" width="19.252191082310333px" height="18px" viewBox="870.5549615411473 316.81017858845604 19.252191082310333 18" xmlns="http://www.w3.org/2000/svg">
  <g transform="matrix(-0.9547357294243579 0.29745535288600977 -0.2974553528860119 -0.9547357294243605 1817.435342287161 375.0582301589892 )">
    <path d="M 861.7494279309328 321.2399979989575  C 864.9816387052018 322.0346875454885  868.2019361741211 322.877071342301  871.409266772244 323.76687379173046  L 871.6765974772286 322.8032689483572  C 868.4597790133755 321.91083430186904  865.2299553203707 321.06595858097444  861.9881830802972 320.2689181986053  L 861.7494279309328 321.2399979989575  Z M 849.0876353668704 318.3835177419643  C 852.3479716755068 319.0535364874137  855.598234449216 319.7716716775398  858.8373603189829 320.5376883643514  L 859.067501044092 319.56453100469867  C 855.81879325241 318.7962483015685  852.5589156118148 318.0759887372795  849.2889346369374 317.40398795483657  L 849.0876353668704 318.3835177419643  Z M 836.3255160931982 316.01523101132756  C 839.6091710751114 316.5595911167938  842.884607144388 317.1524189210846  846.1507526962162 317.79352047227565  L 846.3433641345828 316.81224536619663  C 843.0675567317222 316.16924732031913  839.7824313283774 315.57466582384234  836.4890626993614 315.0286954024353  L 836.3255160931982 316.01523101132756  Z M 823.4818858788323 314.13862947915106  C 826.7840182931583 314.55652836994176  830.0797985346524 315.0231747555868  833.3681483426216 315.5384159661816  L 833.522946518502 314.5504698518899  C 830.2248691752828 314.0337044643276  826.9193394179684 313.56567765402264  823.6074386969427 313.1465425425047  L 823.4818858788323 314.13862947915106  Z M 810.5756806679498 312.7564799038405  C 813.8914220317153 313.0473014527446  817.2026873277372 313.3870784218982  820.5083932291933 313.7756996485067  L 820.6251499166443 312.7825390995845  C 817.3096651374692 312.39276826089093  813.9886045180189 312.051986169825  810.6630545898164 311.7603043180236  L 810.5756806679498 312.7564799038405  Z M 797.6259286618721 311.87082005094703  C 800.9503904278032 312.03413548661774  804.2722588303714 312.24654209074805  807.5904470737759 312.50797037154075  L 807.6689901331393 311.5110596494468  C 804.34098608698 311.2488580163755  801.0092909950789 311.0358230749789  797.6749948681753 310.8720245226235  L 797.6259286618721 311.87082005094703  Z M 784.6536296055871 311.4879586304626  C 785.1002776975921 311.49097983936207  785.5469186311838 311.4949800232891  785.9935491877494 311.49995915341725  C 788.8743774684253 311.54218371800283  791.7545482177638 311.6212361951378  794.6333553878953 311.7370972058206  L 794.673569019591 310.7379061010634  C 791.7856615936415 310.62167883978645  788.8963860251409 310.54238394061645  786.0064508805775 310.5000408498494  C 785.5577744937614 310.495036345472  785.1090876638575 310.4910165547595  784.6603936326579 310.4879815067553  L 784.6536296055871 311.4879586304626  Z M 771.6771920585811 311.6756844358618  C 775.0030358743561 311.5569166791958  778.3305975132095 311.49247096349796  781.6585459652491 311.4823730667687  L 781.6555117084418 310.48237767013643  C 778.3166760199903 310.492508601689  774.9782284101681 310.5571651487  771.6415042432059 310.67632144883765  L 771.6771920585811 311.6756844358618  Z M 758.7204181042656 312.41404822569496  C 762.0382231418974 312.15421635848713  765.3600502467032 311.94858465757727  768.6845707025786 311.7972353747334  L 768.6390926585798 310.7982700362386  C 765.3036961808305 310.9501144515783  761.9710018653311 311.15641886751774  758.6423427750198 311.417100763206  L 758.7204181042656 312.41404822569496  Z M 745.8066627953153 313.7017190725828  C 749.110448591481 313.30129145115137  752.4205534489948 312.9548444235917  755.7356533405994 312.66251656717793  L 755.6478134852248 311.66638195789676  C 752.3218683907065 311.9596661519848  749.0009346713135 312.3072465656972  745.6863406857976 312.7089841684109  L 745.8066627953153 313.7017190725828  Z M 732.959203641744 315.5363759033504  C 736.2430150033093 314.99607431293475  739.5354310300611 314.50943644199623  742.8351347701949 314.0766569435241  L 742.7050914379541 313.0851486320412  C 739.3945928627362 313.51934394953275  736.091405842334 314.00757383477793  732.7968516368993 314.54964299798905  L 732.959203641744 315.5363759033504  Z M 720.2011986523528 317.914711682846  C 723.4591163908228 317.2355100365629  726.7279088880973 316.60955850457094  730.0062686416798 316.03710746470585  L 729.8342562403725 315.05201268053713  C 726.5451714776156 315.62633646870194  723.2656852700239 316.25433577349105  719.9971093975291 316.93575939796915  L 720.2011986523528 317.914711682846  Z M 707.5556445915828 320.83243937499066  C 710.7817961926527 320.0155619583205  714.0210730440002 319.25142506550276  717.2721794492563 318.5403343479044  L 717.058508037444 317.5634287599512  C 713.796765781139 318.27684577943324  710.5468917786067 319.0434825123544  707.3101859650279 319.8630323074231  L 707.5556445915828 320.83243937499066  Z M 695.0453355270183 324.2842996703158  C 698.2339057359924 323.33121893428404  701.4378280279799 322.43027406496816  704.6558208482787 321.58182543631887  L 704.4008755763927 320.614869952161  C 701.1723552346759 321.4660942430348  697.9579514523837 322.3699865137082  694.7589499767655 323.3261852112837  L 695.0453355270183 324.2842996703158  Z M 874.29222593267 324.58046034443606  C 875.8894980160482 325.03886939699953  877.4833682436714 325.50904993121856  879.073706629548 325.9909636021375  L 879.3778653208191 325.03822774357053  C 877.7781250853541 324.55338887077977  876.1748211196584 324.08038743428904  874.5680849538302 323.6192622376731  L 874.29222593267 324.58046034443606  Z M 691.1495651954353 325.4771061226964  C 691.4928323973747 325.3694973042339  691.8362892941753 325.2624945407828  692.1799342804615 325.1560983324923  L 691.8841746965555 324.2008359242883  C 691.5394054908857 324.3075802030716  691.194824989983 324.41493302134774  690.8504348045647 324.5228938773036  L 691.1495651954353 325.4771061226964  Z M 876.397616900272 331.2301029780576  L 884 327  L 880.1455543466355 319.2004327873106  L 876.397616900272 331.2301029780576  Z " fill-rule="nonzero" fill="rgba(51, 51, 51, 1)" stroke="none" class="fill" />
  </g>
</svg>