<?xml version="1.0" encoding="utf-8"?>
<svg version="1.1" xmlns:xlink="http://www.w3.org/1999/xlink" width="500px" height="18px" viewBox="570 372  500 18" xmlns="http://www.w3.org/2000/svg">
  <g transform="matrix(-0.987688340595138 -0.15643446504023 0.156434465040231 -0.987688340595135 1570.30290810768 885.585519099736 )">
    <path d="M 1016.41461405552 353.218632056634  C 1023.03475362939 352.440261184625  1029.6559714922 351.671088853582  1036.27824847337 350.911117290512  L 1036.05022535912 348.924158443588  C 1029.42610789604 349.684341220101  1022.80304984419 350.453727321861  1016.18107038244 351.2323145209  L 1016.41461405552 353.218632056634  Z M 990.601613151442 356.300905997898  C 997.21889767325 355.498625031277  1003.83729370657 354.705538650298  1010.45678208901 353.921649151201  L 1010.221582598 351.935527000015  C 1003.60025450769 352.719634360011  996.980019071547 353.512941157737  990.36089545436 354.315445096668  L 990.601613151442 356.300905997898  Z M 964.799915355672 359.476408978313  C 971.414258469119 358.650228386936  978.029746302156 357.833238305883  984.646359700799 357.025441100605  L 984.403986902423 355.04018156427  C 977.78553459492 355.848203274948  971.16820816732 356.665420416131  964.55202677598 357.491830622073  L 964.799915355672 359.476408978313  Z M 939.009857383222 362.745099557214  C 945.621172770397 361.895030122829  952.233666070299 361.054147003513  958.847318137614 360.222452633897  L 958.597775194855 358.238081620271  C 951.982285042688 359.070007136734  945.367953978501 359.911123956848  938.754801155892 360.76142964493  L 939.009857383222 362.745099557214  Z M 913.231775797209 366.106935077825  C 919.839977179713 365.232987893932  926.449389652709 364.368222709972  933.059994079806 363.512642029722  L 932.803284249227 361.529185435066  C 926.190842584288 362.385003900714  919.579593203239 363.250009422849  912.969555250753 364.12419949661  L 913.231775797209 366.106935077825  Z M 887.466007004448 369.56187166782  C 894.071008143537 368.664058139661  900.677253538033 367.775422176073  907.284724054805 366.895966350742  L 907.020850686498 364.913450059384  C 900.411543801884 365.793150305692  893.803462381509 366.68203324143  887.196625560874 367.580096292593  L 887.466007004448 369.56187166782  Z M 861.712887251079 373.109864239897  C 868.314601952726 372.18819608377  874.917594052549 371.275700937881  881.521844432744 370.372381444202  L 881.250810970286 368.3908313282  C 874.644725118183 369.294401874983  868.039897894677 370.207150624303  861.436348425845 371.129074933046  L 861.712887251079 373.109864239897  Z M 835.972752618166 376.750866492357  C 842.571094728278 375.805355736267  849.170747365619 374.869013315977  855.771691422053 373.941841942501  L 855.49350140246 371.961283861303  C 848.890722793021 372.888712916864  842.289235960111 373.825315568292  835.689060020134 374.771089103401  L 835.972752618166 376.750866492357  Z M 810.245939017319 380.484830909718  C 816.840822426801 379.515489892685  823.437049475462 378.555312417364  830.034601065084 377.604301263781  L 829.749258118767 375.62476106389  C 823.149872918984 376.576036525177  816.551812626804 377.536480855948  809.955096348709 378.506091274972  L 810.245939017319 380.484830909718  Z M 784.532544076984 384.308125976719  C 788.028332209836 383.780346720042  791.524840248661 383.257346882684  795.022058390503 382.73912793095  C 798.118041665269 382.277302296376  801.214325936951 381.817496759301  804.310909233713 381.359711612546  L 804.018417084429 379.381215127179  C 800.921292213136 379.839080337912  797.82446638868 380.298966084144  794.727941582239 380.76087207315  C 791.229239487005 381.279311809054  787.731247732095 381.80253402316  784.233976123432 382.33053724872  L 784.532544076984 384.308125976719  Z M 758.843710004982 388.274594111513  C 765.427161937582 387.235484936674  772.013281036733 386.21334504021  778.602001681003 385.20818460631  L 778.300375979707 383.231059942482  C 771.708258235541 384.236738630318  765.118743377467 385.259405535271  758.531897061483 386.299050467787  L 758.843710004982 388.274594111513  Z M 733.182031730855 392.413112396884  C 739.758372852084 391.329911269053  746.33749479001 390.263661166102  752.919331992918 389.214372711715  L 752.60446447999 387.23931361151  C 746.019233726241 388.289143071942  739.436719637081 389.355942926309  732.856987798755 390.439702545331  L 733.182031730855 392.413112396884  Z M 707.548661541765 396.723495000815  C 714.11759655372 395.596250559049  720.689425908388 394.485938127389  727.264084125243 393.39256876879  L 726.935988939189 391.419663918351  C 720.357940872439 392.513597010893  713.782723127526 393.624481912045  707.210401216523 394.752307553521  L 707.548661541765 396.723495000815  Z M 681.944750453758 401.205548374056  C 688.505984391585 400.034311235008  695.070226067439 398.879986331115  701.637410076398 397.742585163863  L 701.296101949686 395.771923152599  C 694.725531944485 396.9099107563  688.15790579054 398.064830822215  681.593288924287 399.236671843315  L 681.944750453758 401.205548374056  Z M 656.371448160074 405.859071258821  C 662.924686404476 404.643894014589  669.481045647162 403.445608471151  676.040460561749 402.264226568008  L 675.685954820149 400.295895884618  C 669.123157915257 401.477886900341  662.56341825812 402.676790271696  656.006801208063 403.892594053158  L 656.371448160074 405.859071258821  Z M 630.829902979528 410.683854697822  C 637.374851270236 409.424791913549  643.923033679343 408.182599537221  650.474384961942 406.957289945816  L 650.106697523836 404.991378974318  C 643.551968408488 406.217320327124  637.00040980085 407.460153169434  630.452086978731 408.719865118027  L 630.829902979528 410.683854697822  Z M 605.321261804941 415.679682043654  C 611.857626253933 414.376790255078  618.397337796219 413.090746824062  624.94033127129 411.821564564512  L 624.559478646961 409.858161580267  C 618.013111648369 411.127998221672  611.470028275073 412.414704727977  604.930293720442 413.718268278814  L 605.321261804941 415.679682043654  Z M 579.846670051648 420.846328968522  C 586.374157156585 419.499666679383  592.905104178684 418.169829941029  599.439446046227 416.856832003415  L 599.04544533711 414.896025169172  C 592.507734407002 416.20970007966  585.973420072333 417.540222472936  579.4425674391 418.887579092062  L 579.846670051648 420.846328968522  Z M 554.439362387585 426.299663625569  C 560.946284226561 424.862798034221  567.459637217812 423.455212619889  573.9792236318 422.07695011344  L 573.565559481056 420.120197198432  C 567.040104460504 421.499700348058  560.520888473822 422.908552800559  554.0081094283 424.346711786657  L 554.439362387585 426.299663625569  Z M 529.095761036113 432.051713649524  C 535.585431581865 430.538838653449  542.081875313229 429.055166610004  548.584895013991 427.600742559861  L 548.148372155169 425.648961887314  C 541.639498760492 427.10469513743  535.137207254327 428.589702708487  528.641695030905 430.103939519161  L 529.095761036113 432.051713649524  Z M 503.821171721502 438.099799620982  C 510.292703116029 436.511122198048  516.771348803223 434.951566507987  523.256912106449 433.421179895289  L 522.797590260647 431.474638490138  C 516.306188976763 433.006402680546  509.821711535923 434.567362204837  503.344354791563 436.157469675962  L 503.821171721502 438.099799620982  Z M 478.624589645741 444.454549031321  C 482.587187024924 443.421891384536  486.554163395467 442.406110756015  490.525410878063 441.407234769245  C 493.015438242982 440.779660287519  495.506551711952 440.15640303457  497.998740054135 439.537465820266  L 497.516682061603 437.596429990654  C 495.022404952358 438.215885952136  492.5292035504 438.8396653051  490.037089094635 439.467765237663  C 486.060490735169 440.467988513333  482.088169081939 441.485138550628  478.120232150879 442.51918769106  L 478.624589645741 444.454549031321  Z M 453.542682144524 451.23270810321  C 459.958141151445 449.436842934525  466.385963489774 447.685440399649  472.825686503138 445.978626559556  L 472.313289453032 444.045378188797  C 465.864638456633 445.754558342624  459.427904634252 447.508389008667  453.003551283731 449.306743951171  L 453.542682144524 451.23270810321  Z M 428.586914819133 458.461484037242  C 434.968990433661 456.550370010287  441.364228130573 454.683488746709  447.772167598844 452.860974619314  L 447.225036540543 450.937267883598  C 440.808213153702 452.762308730725  434.404109147838 454.631778224302  428.013185472191 456.545541805217  L 428.586914819133 458.461484037242  Z M 403.775259236766 466.155640277731  C 407.399703896398 464.981911279348  411.031730370288 463.831725026816  414.67110904036 462.705154235342  C 417.393805033951 461.859830048986  420.119000884944 461.022578750157  422.846660672557 460.193411374656  L 422.264973080894 458.279870273529  C 419.533800157315 459.110105589299  416.80509410082 459.948434444796  414.07889087124 460.794845792233  C 410.431512389472 461.923896743253  406.791501745129 463.076613325915  403.15908902728 464.252922675736  L 403.775259236766 466.155640277731  Z M 379.189607135424 474.520056249776  C 385.46159167628 472.282469314727  391.758765923086 470.116127467033  398.079913605221 468.021449125788  L 397.450802953348 466.122970843663  C 391.115292938764 468.222408521064  384.803810829738 470.39367253217  378.517575660417 472.636343507185  L 379.189607135424 474.520056249776  Z M 354.86140192361 483.606099116369  C 361.064648902617 481.184464897484  367.295176327124 478.833301672996  373.551780799039 476.553063559411  L 372.866939571717 474.673970029711  C 366.596119416506 476.959389091366  360.35143555861 479.315894413449  354.134094130312 481.743030847677  L 354.86140192361 483.606099116369  Z M 330.900801087358 493.569918338434  C 336.976721539848 490.858366058544  343.106412625805 488.268942383374  349.28617681626 485.803209295237  L 348.544995252381 483.945616797038  C 342.340394371435 486.421259753522  336.186067840565 489.021090413874  330.085728049235 491.743540518122  L 330.900801087358 493.569918338434  Z M 307.491875550662 504.757454707585  C 313.418214553821 501.732916539343  319.4046163368 498.827538513744  325.447469805039 496.043073201893  L 324.610479635935 494.226635078305  C 318.543339726229 497.022291254567  312.532878383112 499.939346097035  306.582721214235 502.976039990974  L 307.491875550662 504.757454707585  Z M 1042.23858120538 350.229627378536  C 1048.86148943777 349.475176758965  1055.48544272243 348.729928515646  1062.11042188088 347.993884806314  L 1061.88957811912 346.006115193686  C 1055.26275772776 346.742363466363  1048.63696349381 347.487818831344  1042.01221460408 348.242479129962  L 1042.23858120538 350.229627378536  Z M 303.582268065171 496.995406473045  L 301 507  L 310.758974175882 510.394469477616  L 303.582268065171 496.995406473045  Z " fill-rule="nonzero" fill="#ff0000" stroke="none" />
  </g>
</svg>