<?xml version="1.0" encoding="utf-8"?>
<svg version="1.1" xmlns:xlink="http://www.w3.org/1999/xlink" width="100px" height="24px" viewBox="870 452  100 24" xmlns="http://www.w3.org/2000/svg">
  <g transform="matrix(-0.515038074910056 -0.857167300702118 0.857167300702113 -0.515038074910057 996.109401391471 1491.57158340421 )">
    <path d="M 1110.44007283638 360.758676707269  C 1116.76069815715 358.65376999478  1123.09637660292 356.594337407668  1129.4466168565 354.580538650163  L 1128.84204513133 352.674104012122  C 1122.48266637467 354.690800786933  1116.13787038141 356.75319706208  1109.80814917581 358.861132903502  L 1110.44007283638 360.758676707269  Z M 1085.86790673274 369.197706548498  C 1092.14807952566 366.975013046329  1098.44415288378 364.79750432785  1104.75563856102 362.665349253884  L 1104.11553454537 360.770549304248  C 1097.79496613594 362.905772719726  1091.48983222528 365.086415047207  1085.20062176192 367.312307182921  L 1085.86790673274 369.197706548498  Z M 1061.45778932716 378.094601508604  C 1067.69531481375 375.754897997903  1073.94958274869 373.460074138205  1080.22010812799 371.210307887792  L 1079.54469552374 369.327804816342  C 1073.26514635743 371.580808660137  1067.00187803123 373.878934954718  1060.75537624711 376.222005485704  L 1061.45778932716 378.094601508604  Z M 1037.21825140423 387.446252323776  C 1043.41094971022 384.990356478076  1049.62122649668 382.579019466241  1055.84860017103 380.212428281873  L 1055.13811501963 378.342879980907  C 1048.901779657 380.712876879081  1042.68256578611 383.127683997513  1036.48095569246 385.587114073562  L 1037.21825140423 387.446252323776  Z M 1013.28777322361 397.504050393312  C 1019.37274506324 394.804431856508  1025.49727173501 392.194866290468  1031.65934796813 389.676208109883  L 1030.9026462506 387.824883581154  C 1024.7223344361 390.350995287866  1018.57968330429 392.96828340446  1012.47670406017 395.675890987754  L 1013.28777322361 397.504050393312  Z M 989.764845370045 408.485530887635  C 995.741649420601 405.554211069756  1001.76143759985 402.711358686385  1007.82223893012 399.957904534158  L 1006.99499547874 398.137006878563  C 1000.91625827237 400.898609394321  994.878655588231 403.749874699571  988.884164236757 406.689869243151  L 989.764845370045 408.485530887635  Z M 966.837349745317 420.599876121217  C 972.608136873172 417.296154354554  978.464632029207 414.144448241876  984.400786971804 411.148012678744  L 983.499542830028 409.362583039437  C 977.532150386001 412.37478658051  971.644836917837 415.543077742801  965.843682494502 418.864184502681  L 966.837349745317 420.599876121217  Z M 944.834502597945 434.278198579156  C 947.037590260574 432.754395737736  949.271829952136 431.276131440576  951.535800210539 429.844346185094  C 954.880347323586 427.714781384857  958.258014189688 425.637684140058  961.667560297119 423.613817303752  L 960.646688347832 421.893985782015  C 957.220079088721 423.927981106313  953.825500343684 426.015459548692  950.464198196555 428.155654836415  C 948.177905810982 429.601607010326  945.921626697644 431.094478780961  943.696795254131 432.633321076169  L 944.834502597945 434.278198579156  Z M 924.593971266283 450.35733615093  C 924.774196302186 450.193958238536  924.955062399179 450.031288888986  925.136565371293 449.869331867101  C 929.882093465673 445.588382631758  934.835129084271 441.543224115296  939.977751975509 437.748491839015  L 938.790252637948 436.139192201504  C 933.596358753671 439.971757252273  928.593887907508 444.057175216614  923.800929107678 448.380673163027  C 923.616880631163 448.544920517352  923.433473318088 448.709884923323  923.250711351512 448.875562618514  L 924.593971266283 450.35733615093  Z M 908.156740336924 470.033294207286  C 908.25990293811 469.866835829383  908.364096147495 469.701018383246  908.469313962575 469.535851421514  C 911.89212231019 464.122550381466  915.865598494225 459.077750232968  920.326331851258 454.48195834776  L 918.891187919764 453.088989613044  C 914.335196298444 457.782923916319  910.276779513312 462.935378344271  906.780681609554 468.464155636254  C 906.671644545179 468.635343897425  906.563663539626 468.807202522265  906.456744744767 468.979721719678  L 908.156740336924 470.033294207286  Z M 901.195442705528 494.136616889689  C 901.158284200418 492.337215973786  901.246979170261 490.537418762671  901.460878843129 488.750390128148  C 902.084256734688 484.065788813694  903.404714385327 479.500752862533  905.378440241899 475.206745909327  L 903.561215617102 474.371464721325  C 901.50237076811 478.850655216653  900.125586475192 483.612793009464  899.476623947936 488.499595363138  C 899.250509702313 490.383484317324  899.156694920322 492.280903357892  899.195869011797 494.177909060133  L 901.195442705528 494.136616889689  Z M 1135.16570022108 352.780461235211  C 1141.52456915388 350.794076929769  1147.89763851093 348.853440199153  1154.28441407526 346.958701535303  L 1153.71558592474 345.041298464697  C 1147.31961928003 346.938763808883  1140.93737856711 348.882193270769  1134.5693587138 350.87143614195  L 1135.16570022108 352.780461235211  Z M 902.149528096378 501.906168818299  C 902.002140079096 501.258406158904  901.871493401509 500.606947730899  901.757718536211 499.952444124667  L 899.787268682215 500.294974959609  C 899.924681934235 501.085461230509  900.085490144977 501.871701838731  900.26948158349 502.652661566801  L 902.149528096378 501.906168818299  Z M 893.398697784758 504.182278720023  L 903 508  L 907.592665339033 498.744330111567  L 893.398697784758 504.182278720023  Z " fill-rule="nonzero" fill="#ff0000" stroke="none" />
  </g>
</svg>