<?xml version="1.0" encoding="utf-8"?>
<svg version="1.1" xmlns:xlink="http://www.w3.org/1999/xlink" width="66px" height="66px" xmlns="http://www.w3.org/2000/svg">
  <g transform="matrix(1 0 0 1 -302 -507 )">
    <path d="M 335 509  C 352.36 509  366 522.64  366 540  C 366 557.36  352.36 571  335 571  C 317.64 571  304 557.36  304 540  C 304 522.64  317.64 509  335 509  Z " fill-rule="nonzero" fill="#ffffff" stroke="none" />
    <path d="M 335 508.5  C 352.64 508.5  366.5 522.36  366.5 540  C 366.5 557.64  352.64 571.5  335 571.5  C 317.36 571.5  303.5 557.64  303.5 540  C 303.5 522.36  317.36 508.5  335 508.5  Z " stroke-width="3" stroke="#797979" fill="none" />
  </g>
</svg>