<?xml version="1.0" encoding="utf-8"?>
<svg version="1.1" xmlns:xlink="http://www.w3.org/1999/xlink" width="42px" height="8px" viewBox="310 586  42 8" xmlns="http://www.w3.org/2000/svg">
  <g transform="matrix(-0.173648177666934 -0.98480775301221 0.98480775301221 -0.173648177666933 -192.559027469448 1018.42379107053 )">
    <path d="M 331.88085154462 586.589106184538  C 332.30932810608 584.658405970445  332.802889434818 582.742727745397  333.360691528902 580.845347365964  L 331.441891838394 580.281248307549  C 330.87138858232 582.221832066478  330.366588854776 584.181130313239  329.928355875631 586.15579259996  L 331.88085154462 586.589106184538  Z M 330.516893233542 594.377853076162  C 330.769999645931 592.416442200178  331.089278063824 590.46413916555  331.474182513324 588.524282458168  L 329.512426984436 588.135032866161  C 329.118758254889 590.11906013966  328.792209862666 592.115817143461  328.533340213497 594.121889374301  L 330.516893233542 594.377853076162  Z M 329.85892819456 602.257703482332  C 329.934613186069 600.281477973317  330.077021137899 598.308372344517  330.285908528973 596.341760654765  L 328.297095983765 596.130515157716  C 328.083452223686 598.141906624932  327.937801640672 600.159939898285  327.860393300779 602.181164091571  L 329.85892819456 602.257703482332  Z M 329.939934716728 610.156052058635  C 329.869042269354 608.966799663689  329.822353121388 607.776228007415  329.799896256614 606.585076175277  C 329.7912787746 605.801536233744  329.79314679153 605.017916054252  329.80549980569 604.234426102808  L 327.805748346698 604.202896715553  C 327.793072784732 605.006844262351  327.791191137293 605.81092575609  327.800103913063 606.614923822195  C 327.823014741517 607.835817738346  327.870816283798 609.056117619197  327.943478737945 610.275062666487  L 329.939934716728 610.156052058635  Z M 330.765275341494 618.020133268113  C 330.47052686933 616.06454670174  330.241909968323 614.099563200607  330.079815578959 612.128542934513  L 328.086544689492 612.292467188983  C 328.252329970516 614.30836761589  328.486152481764 616.318093820607  328.787612381029 618.31820912222  L 330.765275341494 618.020133268113  Z M 332.294512827324 625.778122255477  C 331.825086746022 623.856967749818  331.420679162431 621.920506969559  331.081981623397 619.972051309947  L 329.111530069687 620.314572366936  C 329.457939756729 622.307394390936  329.871555707021 624.287948411999  330.351670627184 626.252847634363  L 332.294512827324 625.778122255477  Z M 334.515253644892 633.36714529124  C 333.87495436414 631.49599262203  333.298033572714 629.603748386323  332.785477819262 627.693648367993  L 330.853814899301 628.211990304988  C 331.378041554892 630.165583329181  331.968098841331 632.100913994317  332.622977746241 634.01467283767  L 334.515253644892 633.36714529124  Z M 333.939749084532 578.954585810848  C 334.54012325605 577.070243396478  335.20396748461 575.20671537486  335.93014658036 573.367188424442  L 334.06985341964 572.632811575558  C 333.327139215064 574.514224582033  332.648179243534 576.420185164456  332.034134543189 578.347434083664  L 333.939749084532 578.954585810848  Z M 326.290046752206 636.46774747142  L 336 640  L 340.317074367662 630.612621830134  L 326.290046752206 636.46774747142  Z " fill-rule="nonzero" fill="#797979" stroke="none" />
  </g>
</svg>