<?xml version="1.0" encoding="utf-8"?>
<svg version="1.1" xmlns:xlink="http://www.w3.org/1999/xlink" width="42px" height="8px" viewBox="426 586  42 8" xmlns="http://www.w3.org/2000/svg">
  <g transform="matrix(0.139173100960051 -0.990268068741572 0.990268068741575 0.139173100960066 -199.468536686672 950.537697161044 )">
    <path d="M 447.559002053434 586.339785168076  C 447.190666417063 584.351930585929  446.758264785666 582.376482641163  446.262472524022 580.416526770721  L 444.323545877456 580.906999460316  C 444.808784151817 582.825233523191  445.231981199617 584.758629878809  445.592476032644 586.704168770283  L 447.559002053434 586.339785168076  Z M 448.688472106248 594.344058234064  C 448.492372351604 592.331899724646  448.231377273748 590.326594929202  447.905894518883 588.331275917846  L 445.931984158013 588.653266425858  C 446.250538323786 590.60611085037  446.505977569198 592.568728490431  446.697902925657 594.53805394866  L 448.688472106248 594.344058234064  Z M 449.125728092083 602.41579268943  C 449.103315852785 600.394225309321  449.015659351436 598.373907984971  448.862895498051 596.357996234449  L 446.868613346522 596.509121017627  C 447.018125298071 598.482119821282  447.103915845325 600.459430416808  447.12585099269 602.437964458009  L 449.125728092083 602.41579268943  Z M 448.851238261511 610.501910242176  C 448.907720629076 609.820845657208  448.956770387452 609.139185076882  448.9983787785 608.457050215922  C 449.069726754577 607.118190268549  449.112407349852 605.777956454285  449.12639123647 604.437269711126  L 447.126500020645 604.416410064267  C 447.112840521444 605.72599659039  447.071204701624 607.035141850074  447.001621059588 608.342949774841  C 446.960998741228 609.008004525737  446.913149155185 609.672598111326  446.858080780006 610.336612771173  L 448.851238261511 610.501910242176  Z M 447.837202911004 618.52162483953  C 448.176861318919 616.528669961285  448.45210466389 614.5252711357  448.662503045458 612.514557455978  L 446.673363192351 612.306416530681  C 446.467443585495 614.274327915473  446.19805937748 616.235080158273  445.865631317425 618.185610775251  L 447.837202911004 618.52162483953  Z M 446.13755984365 626.424491620559  C 446.647272073688 624.468109647801  447.09370540171 622.495785375034  447.476162546936 620.510599360362  L 445.512276461394 620.132245765145  C 445.137960725705 622.075172895249  444.701030675632 624.005512072834  444.202168748856 625.920248316  L 446.13755984365 626.424491620559  Z M 443.7648907122 634.15200940493  C 444.440883606101 632.246682506944  445.055202182656 630.320032969587  445.60688694241 628.375070011933  L 443.682792343114 627.82930451929  C 443.142851360724 629.732864825246  442.541609854842 631.618501550808  441.880006899951 633.483269534487  L 443.7648907122 634.15200940493  Z M 442.325859830209 637.945953565924  C 442.58025405373 637.316588010261  442.827819846839 636.684483853649  443.068513593974 636.049752458722  L 441.198453642077 635.340615112144  C 440.496884340385 637.19071743845  439.735782084843 639.01769323626  438.916335635205 640.818688966143  L 442.325859830209 637.945953565924  Z M 445.745678865575 578.462225334507  C 445.207833961767 576.513389825739  444.607226641339 574.582422037307  443.944794988243 572.672337932938  L 442.055205011757 573.327662067062  C 442.703535405548 575.197085989923  443.291357528398 577.086949043444  443.817753265459 578.994299465072  L 445.745678865575 578.462225334507  Z M 435.082383121647 633.439023167351  L 439 643  L 448.850189760661 639.880102296715  L 435.082383121647 633.439023167351  Z " fill-rule="nonzero" fill="#797979" stroke="none" />
  </g>
</svg>