<?xml version="1.0" encoding="utf-8"?>
<svg version="1.1" xmlns:xlink="http://www.w3.org/1999/xlink" width="42px" height="8px" viewBox="526 622  42 8" xmlns="http://www.w3.org/2000/svg">
  <g transform="matrix(-0.275637355816992 -0.961261695938306 0.961261695938317 -0.275637355816996 96.0238119745084 1324.35913241969 )">
    <path d="M 551.148990561182 586.473563479768  C 550.843432451215 584.474823509064  550.472647184949 582.486601267714  550.037228250423 580.51207915325  L 548.084152116296 580.942768849324  C 548.510189206303 582.874746512893  548.872985270807 584.820129110713  549.171959609485 586.77580281545  L 551.148990561182 586.473563479768  Z M 552.021537626659 594.510907520978  C 551.891059424193 592.493160592412  551.694686270367 590.480215739932  551.432732484891 588.475294932685  L 549.449587828895 588.734403545807  C 549.705897372718 590.696124910407  549.898039331594 592.665697428485  550.025706158366 594.639968553718  L 552.021537626659 594.510907520978  Z M 552.191403357381 602.593690658722  C 552.236994876064 600.572243493327  552.216523530457 598.549846321979  552.1300220875 596.529736243437  L 550.131853136237 596.615298163746  C 550.216490757884 598.591881520852  550.236521013391 600.570702691446  550.191911841836 602.548594325586  L 552.191403357381 602.593690658722  Z M 551.637394162141 610.666399505866  C 551.73477673327 609.841005915032  551.821069133428 609.014341613258  551.89624801541 608.18663026221  C 551.995056746923 606.997427518746  552.070923974388 605.806429935688  552.123807387243 604.61430172315  L 550.125772342309 604.525667873982  C 550.074141871308 605.689551552904  550.000121330932 606.852334047476  549.903751821032 608.013369723568  C 549.830356127264 608.820690423441  549.746154819484 609.626992276195  549.65117053591 610.432058500913  L 551.637394162141 610.666399505866  Z M 550.341370636589 618.64640957099  C 550.752115834364 616.666607658787  551.098061434235 614.673913242525  551.378653707146 612.671515878005  L 549.398005085876 612.393971216626  C 549.123458652659 614.353223510383  548.784967041517 616.302981922473  548.383072050468 618.240125621519  L 550.341370636589 618.64640957099  Z M 548.355880146413 626.483377424164  C 548.937340396299 624.546826054626  549.455368679499 622.591792527426  549.909135827173 620.621406117417  L 547.96015047816 620.172567494602  C 547.516160518591 622.100498564528  547.009294039403 624.013407555726  546.440362343575 625.908232618909  L 548.355880146413 626.483377424164  Z M 545.695984713821 634.117851466686  C 546.44374903161 632.239241407599  547.129930211749 630.336699743748  547.753429935727 628.413271730211  L 545.850892951498 627.796544056403  C 545.240827593839 629.678528528701  544.569431359035 631.540076683388  543.837778900449 633.378208880601  L 545.695984713821 634.117851466686  Z M 544.472147280875 637.045814471016  C 544.626247555773 636.694156677571  544.778164491791 636.341546155492  544.927889316881 635.988003265355  L 543.086233430532 635.208065065063  C 542.314720658654 637.029826118938  541.483887910962 638.825891647166  540.595065038831 640.59338682299  L 544.472147280875 637.045814471016  Z M 549.580381343133 578.542630196773  C 549.102061303545 576.578059717308  548.559676718929 574.62964283249  547.954095743423 572.700498226412  L 546.045904256577 573.299501773588  C 546.638436955801 575.18707966468  547.169134938297 577.093514580353  547.637148755793 579.015755033892  L 549.580381343133 578.542630196773  Z M 537.367619548195 632.32705772511  L 541 642  L 550.938373087355 639.173564015137  L 537.367619548195 632.32705772511  Z " fill-rule="nonzero" fill="#797979" stroke="none" />
  </g>
</svg>