<?xml version="1.0" encoding="utf-8"?>
<svg version="1.1" xmlns:xlink="http://www.w3.org/1999/xlink" width="44px" height="8px" viewBox="630 588  44 8" xmlns="http://www.w3.org/2000/svg">
  <g transform="matrix(-0.139173100960065 -0.99026806874157 0.990268068741571 -0.139173100960063 156.502165130952 1320.04525658786 )">
    <path d="M 654.770856864766 587.074264454472  C 654.949220807946 585.06133972107  655.065186436211 583.043372727705  655.118586906967 581.023266772987  L 653.119285323222 580.970416255168  C 653.066976306235 582.949233205745  652.953380902806 584.925954913264  652.778662545429 586.897737419714  L 654.770856864766 587.074264454472  Z M 653.725948515361 595.086720895634  C 654.069783415934 593.095375310427  654.351848764733 591.093856399141  654.571738747425 589.085043796112  L 652.583614209057 588.867418384128  C 652.368218564093 590.835172808157  652.09191835713 592.795782616425  651.755111108054 594.746427031516  L 653.725948515361 595.086720895634  Z M 652.0235241662 602.985647595862  C 652.530485440444 601.02945999111  652.976727127878 599.058037365277  653.361607209641 597.07421605245  L 651.398216584837 596.693299717233  C 651.021203078218 598.636573648767  650.584082137563 600.567702310429  650.087482659492 602.483907340047  L 652.0235241662 602.985647595862  Z M 649.668824008761 610.723176851476  C 649.727826108221 610.558449627966  649.786386263313 610.393564442874  649.844503842102 610.228523075509  C 650.445024046813 608.480407040098  650.995891835775 606.715626545094  651.496444087417 604.93630599137  L 649.571175585712 604.39469617209  C 649.081548025046 606.135182563875  648.542772589624 607.861466859277  647.955496010894 609.57147687335  C 647.899404429957 609.730724087455  647.842892191633 609.889822821155  647.785959887673 610.048771408496  L 649.668824008761 610.723176851476  Z M 646.632364319981 618.211247646987  C 647.468428999232 616.371498878628  648.247302112106 614.506292325111  648.967863074755 612.618311504849  L 647.099325914507 611.905171349778  C 646.393492518252 613.754563675351  645.6305388155 615.581647218076  644.811562486453 617.383793308052  L 646.632364319981 618.211247646987  Z M 642.988443897254 625.42326093268  C 643.973449010925 623.658765366061  644.903557979717 621.864180143955  645.777432633052 620.042087180126  L 643.974104773045 619.177212258925  C 643.118091269071 620.962063411869  642.206992824439 622.719969054627  641.242120258829 624.448400045232  L 642.988443897254 625.42326093268  Z M 638.761910353445 632.310038545123  C 639.889139227487 630.632828139688  640.964141710739 628.921101387475  641.985371170766 627.177320991742  L 640.259549364861 626.166608819923  C 639.259192843358 627.874748037622  638.206162367008 629.55148875715  637.101972956585 631.194418610511  L 638.761910353445 632.310038545123  Z M 634.589722203991 638.055968448175  C 635.634145640809 636.722203451783  636.643757362902 635.3615414506  637.617536463106 633.975358329587  L 635.980988957348 632.825700875648  C 634.843110772431 634.445480488263  633.655328798122 636.029622718667  632.419351925478 637.575848422581  L 634.589722203991 638.055968448175  Z M 655.151124064814 579.002914596069  C 655.162800800604 576.982136693277  655.111875947641 574.961481979429  654.998422772762 572.943857620021  L 653.001577227238 573.056142379979  C 653.112711529388 575.032528456646  653.162595527805 577.011882950248  653.151157453157 578.991358114933  L 655.151124064814 579.002914596069  Z M 628.853110727324 631.731375700892  L 630 642  L 640.32810392894 641.699551613408  L 628.853110727324 631.731375700892  Z " fill-rule="nonzero" fill="#797979" stroke="none" />
  </g>
</svg>