<?xml version="1.0" encoding="utf-8"?>
<svg version="1.1" xmlns:xlink="http://www.w3.org/1999/xlink" width="44px" height="8px" viewBox="724 620  44 8" xmlns="http://www.w3.org/2000/svg">
  <g transform="matrix(-0.499999999999996 -0.866025403784431 0.866025403784442 -0.499999999999996 578.600148038505 1582.05495122318 )">
    <path d="M 759.795946396806 587.074336139418  C 759.97530636162 585.060840721493  760.090295007864 583.042129141092  760.140736385111 581.021290339394  L 758.141359126386 580.971384655436  C 758.091980647141 582.949640450044  757.979415035496 584.925813848054  757.803834534263 586.896880998279  L 759.795946396806 587.074336139418  Z M 758.736630985481 595.087360012047  C 759.086653415758 593.096426036927  759.372981745761 591.094817953148  759.595177848827 589.085598530893  L 757.607296570384 588.86576217627  C 757.389782571712 590.832643434376  757.109487736955 592.79207373973  756.766840960599 594.741054860665  L 758.736630985481 595.087360012047  Z M 756.999390162374 602.981199068331  C 757.517536643787 601.027265083065  757.973128162239 599.057276453164  758.365467592187 597.074247566162  L 756.403498702466 596.686074826564  C 756.01942662799 598.627317434979  755.573435309635 600.555794569888  755.066207183151 602.468555362779  L 756.999390162374 602.981199068331  Z M 754.582068668085 610.701629979737  C 754.774622654597 610.177650664947  754.962550141735 609.651982758974  755.145829189448 609.124687632201  C 755.616395982531 607.736564777184  756.054745043238 606.337727904419  756.460523655475 604.929302583281  L 754.538695642449 604.375608544711  C 754.14217667227 605.751894384005  753.713887213457 607.118827632962  753.254170658728 608.475312315685  C 753.075552004745 608.989062465576  752.892425528676 609.501234252691  752.704812410165 610.011768441385  L 754.582068668085 610.701629979737  Z M 751.473571696968 618.162725563131  C 752.329745709722 616.331523811584  753.12719943909 614.473437058192  753.86471265743 612.591308463288  L 752.002572486978 611.861627721053  C 751.280600107708 613.704096202922  750.499950280651 615.523029451682  749.661817520878 617.315644217911  L 751.473571696968 618.162725563131  Z M 747.741539130503 625.332288565632  C 748.750411465108 623.580572148101  749.703063878424 621.797072158466  750.5980386648 619.984517627775  L 748.804733673911 619.099047577659  C 747.92861774834 620.873408056276  746.996039575699 622.619326229568  746.008426144941 624.334130572489  L 747.741539130503 625.332288565632  Z M 743.413036219706 632.158324258126  C 744.567290385083 630.498796880621  745.668232706435 628.802817859914  746.7141785716 627.072982306423  L 745.002714072757 626.038144507924  C 743.978808322892 627.7315290592  742.90106499922 629.391770500741  741.771133215849 631.016328406153  L 743.413036219706 632.158324258126  Z M 740.569251277074 636.033794395637  C 741.137473364343 635.299182090432  741.694882541767 634.556269246569  742.241298704478 633.805295907131  L 740.624086490838 632.628595156704  C 739.459816432303 634.228723105935  738.244723911258 635.791247499738  736.980668207343 637.31377743393  L 740.569251277074 636.033794395637  Z M 760.169654084631 579.000239082283  C 760.177050839043 576.978784387516  760.119865886894 574.957609304827  759.998186730011 572.939806544953  L 758.001813269989 573.060193455047  C 758.12092841019 575.035477183144  758.176908364088 577.014062172647  758.169667473689 578.992920882262  L 760.169654084631 579.000239082283  Z M 734.811450733516 629.736114252334  L 736 640  L 746.326799692076 639.657643285834  L 734.811450733516 629.736114252334  Z " fill-rule="nonzero" fill="#797979" stroke="none" />
  </g>
</svg>