<?xml version="1.0" encoding="utf-8"?>
<svg version="1.1" xmlns:xlink="http://www.w3.org/1999/xlink" width="44px" height="8px" viewBox="826 622  44 8" xmlns="http://www.w3.org/2000/svg">
  <g transform="matrix(-0.573576436351053 -0.819152044288979 0.819152044288986 -0.57357643635104 821.603638300787 1679.69978271281 )">
    <path d="M 866.650561092609 587.09021642229  C 866.9857452759 585.09775956268  867.260184147057 583.095558718503  867.473496226318 581.086397019939  L 865.484673822711 580.875244357365  C 865.275647951535 582.844034759822  865.006723545908 584.806004176529  864.67827442029 586.758425400423  L 866.650561092609 587.09021642229  Z M 864.988067397954 594.996282608055  C 865.483737574591 593.037572866893  865.919652786961 591.064224736923  866.295207097459 589.078981242034  L 864.33006076699 588.70722877083  C 863.962052695446 590.652581572485  863.534896589986 592.586278029949  863.049186212745 594.505630236572  L 864.988067397954 594.996282608055  Z M 862.689860729312 602.74147556412  C 863.342751318226 600.829417339838  863.937270969214 598.897922763349  864.47259327888 596.949676680609  L 862.54406982561 596.419773585515  C 862.019504069533 598.328872386304  861.436930459964 600.22155627895  860.797158794884 602.095194365717  L 862.689860729312 602.74147556412  Z M 859.771082163441 610.274768303812  C 860.576891781881 608.421958644681  861.326099048953 606.545042720783  862.017662539989 604.646629511809  L 860.138467488637 603.962066907679  C 859.460799999349 605.822334156648  858.726647005134 607.661536078441  857.937029004688 609.477116117161  L 859.771082163441 610.274768303812  Z M 856.192441865712 617.526509980414  C 857.159664531655 615.752612269547  858.0726501869 613.949675191404  858.930129749005 612.120204892463  L 857.119179679697 611.271405831159  C 856.278929970884 613.06411548151  855.384289486293 614.830825059052  854.436501807925 616.569078774813  L 856.192441865712 617.526509980414  Z M 852.040233388872 624.456800925485  C 853.148134693264 622.767189291452  854.204332769473 621.044235276326  855.207359464716 619.290333847293  L 853.471213260918 618.297461066401  C 852.488340985175 620.016120297664  851.45336573305 621.704453960042  850.367726156844 623.360115209878  L 852.040233388872 624.456800925485  Z M 847.33964961467 631.027514737559  C 848.580930466911 629.433320702946  849.773382505404 627.80170094016  850.915348179528 626.134923458533  L 849.26544394352 625.004518216153  C 848.14642447348 626.637804133959  846.977933092 628.236638778141  845.761594043533 629.79879971185  L 847.33964961467 631.027514737559  Z M 842.121658993727 637.195362149601  C 843.488141570248 635.707088605457  844.808991442119 634.177552554753  846.082372581174 632.608880106842  L 844.529580234717 631.348389754327  C 843.281785909833 632.885541921946  841.987476669975 634.384344083557  840.648451650881 635.842712851007  L 842.121658993727 637.195362149601  Z M 867.666388949471 579.07536386072  C 867.838878874372 577.062286614328  867.950033342375 575.04442398306  867.999697844827 573.024580867536  L 866.000302155173 572.975419132464  C 865.951635591482 574.954676323738  865.842714617152 576.931992825815  865.6736906362 578.90462009864  L 867.666388949471 579.07536386072  Z M 836.68519276042 630.672323765633  L 837 641  L 847.318681741807 641.533673225194  L 836.68519276042 630.672323765633  Z " fill-rule="nonzero" fill="#797979" stroke="none" />
  </g>
</svg>