<?xml version="1.0" encoding="utf-8"?>
<svg version="1.1" xmlns:xlink="http://www.w3.org/1999/xlink" width="42px" height="8px" viewBox="930 618  42 8" xmlns="http://www.w3.org/2000/svg">
  <g transform="matrix(-0.629320391049835 -0.777145961456979 0.777145961456972 -0.62932039104984 1066.09890386216 1752.50309257859 )">
    <path d="M 970.726683212743 587.039932183943  C 971.201204041267 585.074607307039  971.611853235722 583.094408044306  971.957983084205 581.102457739587  L 969.987510118207 580.760059885813  C 969.648784225129 582.709401004149  969.246919099245 584.647242443362  968.782548597452 586.570527670088  L 970.726683212743 587.039932183943  Z M 968.491420030382 594.808724352897  C 969.133931955062 592.891734442875  969.714095830181 590.954408512878  970.230996570425 588.999802283169  L 968.297465033173 588.48847480058  C 967.791621155106 590.401270659341  967.223867384109 592.297155855882  966.595099231193 594.173140033894  L 968.491420030382 594.808724352897  Z M 965.593443535115 602.355396830996  C 966.399143475943 600.501072292565  967.144485032829 598.62110212136  967.828292587739 596.718451571121  L 965.946156540414 596.042016874079  C 965.276976099187 597.903968421073  964.547577910588 599.743724737928  963.759112445373 601.558383999728  L 965.593443535115 602.355396830996  Z M 962.035603943536 609.622331221423  C 962.39439912061 608.971975493219  962.745431820882 608.3173673937  963.088627282455 607.658646339342  C 963.672000642155 606.517628719477  964.231854002947 605.364738025323  964.767832482883 604.20070505556  L 962.951161781114 603.364219812813  C 962.427719304107 604.501027210534  961.881007855328 605.626975404585  961.311372572715 606.741353585928  C 960.976647532572 607.383685111396  960.634307133905 608.022019410423  960.284423774576 608.656221488607  L 962.035603943536 609.622331221423  Z M 957.828259417175 616.525141177906  C 958.954164583582 614.845852803402  960.025304553517 613.13048664837  961.03998983114 611.381748338656  L 959.310106532479 610.378003464191  C 958.31712607049 612.089335059291  957.268898520866 613.768008353039  956.167077239972 615.411375594786  L 957.828259417175 616.525141177906  Z M 953.040376226434 623.038719903203  C 954.307129957993 621.462963934766  955.522439589006 619.846534418272  956.684388226606 618.191980928032  L 955.047674240523 617.042560496787  C 953.910580483064 618.661721950448  952.721267160521 620.243574928371  951.48161016211 621.785624393391  L 953.040376226434 623.038719903203  Z M 947.707746058823 629.114375320877  C 949.105878773276 627.653931278382  950.456273052053 626.148521974279  951.756798934934 624.600521872071  L 950.225489471271 623.314018344484  C 948.95278273107 624.828905660333  947.631274314245 626.302113224529  946.2630486197 627.731317364972  L 947.707746058823 629.114375320877  Z M 945.095013755993 631.737549678391  C 945.498217174277 631.348455361992  945.897914741989 630.955744369778  946.294058012704 630.559464301344  L 944.879600332726 629.145494898722  C 943.480794693591 630.544783578802  942.036970081867 631.898332807133  940.550403824278 633.204007647235  L 945.095013755993 631.737549678391  Z M 972.282523434501 579.107095713728  C 972.585505899625 577.108127601349  972.823570616795 575.099857930345  972.99634208947 573.085454319668  L 971.00365791053 572.914545680332  C 970.834582138426 574.885859812978  970.601609789215 576.851171215131  970.305108327305 578.807380025398  L 972.282523434501 579.107095713728  Z M 940.31512105273 624.672333336028  L 940 635  L 950.266984569359 636.161476582867  L 940.31512105273 624.672333336028  Z " fill-rule="nonzero" fill="#797979" stroke="none" />
  </g>
</svg>