<?xml version="1.0" encoding="utf-8"?>
<svg version="1.1" xmlns:xlink="http://www.w3.org/1999/xlink" width="48px" height="8px" viewBox="1048 588  48 8" xmlns="http://www.w3.org/2000/svg">
  <g transform="matrix(-0.34202014332567 -0.939692620785911 0.939692620785908 -0.34202014332567 882.347562139861 1801.82641433129 )">
    <path d="M 1075.88916621065 586.931727091149  C 1076.4598891381 584.995271445448  1076.97624916153 583.043206717263  1077.43763860475 581.077830186067  L 1075.49057213875 580.620739191854  C 1075.03771980369 582.549750278934  1074.53091401136 584.465695871848  1073.97075119409 586.366321197787  L 1075.88916621065 586.931727091149  Z M 1073.31938061104 594.58461669106  C 1074.03303688666 592.69615704151  1074.69364684153 590.788074531682  1075.30043303953 588.862614680732  L 1073.39291137745 588.261481493582  C 1072.79735256984 590.151314480419  1072.14896590857 592.024091659801  1071.44851444486 593.877609061512  L 1073.31938061104 594.58461669106  Z M 1070.18559770779 602.024369507631  C 1071.0382065667 600.194439656133  1071.8393815798 598.340982622587  1072.58817988753 596.466179640397  L 1070.7308431589 595.724357372941  C 1069.99589989756 597.564470797177  1069.20954905922 599.383633237752  1068.37271605767 601.17970382071  L 1070.18559770779 602.024369507631  Z M 1066.50529769874 609.209486702203  C 1067.49210330047 607.448293972241  1068.42937442862 605.659800972767  1069.31600805944 603.846112484526  L 1067.51921646294 602.967739011148  C 1066.64898825125 604.747868745473  1065.72905948997 606.503269184209  1064.76051279354 608.231874491466  L 1066.50529769874 609.209486702203  Z M 1062.26489387557 616.087326010157  C 1063.12199969272 614.816002309965  1063.95195787751 613.526585435092  1064.75420493367 612.219950829187  C 1065.00636537333 611.802076693214  1065.25569267555 611.382499476549  1065.50216968462 610.961248049442  L 1063.775945699 609.951222925267  C 1063.53532428916 610.362466605426  1063.2919351821 610.772084624212  1063.04579494609 611.180049097618  C 1062.25964093992 612.460264451366  1061.44638223786 613.723636484791  1060.60656911825 614.969310357648  L 1062.26489387557 616.087326010157  Z M 1057.50530671937 622.607820420778  C 1058.75561966069 621.022795917358  1059.96128186554 619.40305426369  1061.12087445523 617.750501646184  L 1059.48371753707 616.601712185355  C 1058.34558093754 618.223687552698  1057.16222715087 619.813459058834  1055.93504880217 621.369155787609  L 1057.50530671937 622.607820420778  Z M 1052.2723445846 628.754903025759  C 1053.63746685209 627.267614781165  1054.96065398738 625.742373757  1056.24034880307 624.180974926978  L 1054.69349645508 622.913202150218  C 1053.43747988606 624.445710352413  1052.13877573764 625.942729778152  1050.79891238454 627.40249866618  L 1052.2723445846 628.754903025759  Z M 1046.59519686192 634.494285483062  C 1048.06751382237 633.113029570624  1049.50084516852 631.690796949366  1050.89350409016 630.229261367982  L 1049.44558463341 628.849576894363  C 1048.07869413801 630.284069621787  1046.67188378168 631.679986613398  1045.22680916349 633.035685089948  L 1046.59519686192 634.494285483062  Z M 1041.32785031243 639.123926467119  C 1042.61358204696 638.065771370339  1043.87469020536 636.978046782774  1045.11016494261 635.861623710798  L 1043.76925485187 634.377723401296  C 1042.29911492642 635.706199073287  1040.79204553096 636.993227225038  1039.24982025399 638.237293222692  L 1041.32785031243 639.123926467119  Z M 1077.88062027796 579.108388420596  C 1078.30522637263 577.134738301635  1078.67445621552 575.149579945255  1078.98787528 573.155249577005  L 1077.01212472 572.844750422995  C 1076.70450486157 574.802179613069  1076.3421068939 576.750606501398  1075.92535730355 578.6877380897  L 1077.88062027796 579.108388420596  Z M 1037.04 631.72  L 1036 642  L 1046.16 643.88  L 1037.04 631.72  Z " fill-rule="nonzero" fill="#797979" stroke="none" />
  </g>
</svg>