<?xml version="1.0" encoding="utf-8"?>
<svg version="1.1" xmlns:xlink="http://www.w3.org/1999/xlink" width="136px" height="10px" viewBox="1024 626  136 10" xmlns="http://www.w3.org/2000/svg">
  <g transform="matrix(-0.719339800338654 0.69465837045899 -0.694658370458994 -0.719339800338644 2315.84849372944 326.336473472467 )">
    <path d="M 1175.2233267771 730.413634377055  C 1178.37448301604 735.509998675241  1181.39620873215 740.685264453188  1184.28560411682 745.934465250747  L 1185.16165542432 745.452247347064  C 1182.26412737128 740.188271828969  1179.23389652177 734.998439432499  1176.07387084639 729.887730596705  L 1175.2233267771 730.413634377055  Z M 1161.42724448475 709.605164429338  C 1164.55862603625 714.050822888846  1167.61044255652 718.551995113018  1170.58123715114 723.106532305336  C 1170.88489270524 723.571890925035  1171.18745610108 724.037961286215  1171.48892484087 724.504739541268  L 1172.32895783484 723.962204225331  C 1172.02665629539 723.49413650733  1171.72325713293 723.026778601599  1171.4187628521 722.560134366309  C 1168.44148517087 717.995659821099  1165.38300921648 713.484666414414  1162.24479504691 709.029307608329  L 1161.42724448475 709.605164429338  Z M 1146.49623582882 689.591541478211  C 1150.21009127846 694.295898881297  1153.83107670052 699.072834211102  1157.35709209301 703.919577068806  L 1158.16573995609 703.331284086069  C 1154.63201206269 698.4739398825  1151.0031064105 693.686555897784  1147.28112759487 688.971908590454  L 1146.49623582882 689.591541478211  Z M 1130.51563271623 670.401237159291  C 1132.73794156363 672.948925870684  1134.93873011438 675.515306666934  1137.11776369593 678.100105891996  C 1138.80298172348 680.097945810847  1140.47103647877 682.110200430006  1142.12174397146 684.13664779308  L 1142.89706735262 683.505083342974  C 1141.24278010294 681.474241385978  1139.57110829473 679.457622685546  1137.88223631047 677.455449671165  C 1135.69961060623 674.866390699301  1133.4951943944 672.295780252102  1131.26922272758 669.743892428732  L 1130.51563271623 670.401237159291  Z M 1113.70954165063 651.923473341259  C 1117.83459032897 656.273821780448  1121.89436323688 660.685603666037  1125.88749915827 665.157339755559  L 1126.63339418983 664.491276243652  C 1122.63361906933 660.01210520905  1118.56709616813 655.592988061409  1114.43518896554 651.235406502671  L 1113.70954165063 651.923473341259  Z M 1096.15074870213 634.159429803495  C 1100.45286611339 638.334755410049  1104.69231475087 642.574171728364  1108.86767315434 646.876257309056  L 1109.58527012244 646.179798701977  C 1105.40296954712 641.870560246126  1101.15647217796 637.624095249861  1096.84720183861 633.441827525989  L 1096.15074870213 634.159429803495  Z M 1077.94745027946 617.04809821763  C 1082.380406934 621.085977630325  1086.76758878401 625.173826250257  1091.10815539205 629.310860982244  L 1091.79808701093 628.586986434226  C 1087.45206659086 624.444753622861  1083.05937235794 620.351768724631  1078.62084580561 616.308815818705  L 1077.94745027946 617.04809821763  Z M 1059.21597361811 600.516432707493  C 1063.77348306508 604.413185521478  1068.28680864342 608.361319656535  1072.75508575078 612.360078782109  L 1073.42195720238 611.614906005468  C 1068.94806581798 607.611122540314  1064.42906936032 603.658027674672  1059.86583351814 599.756378689453  L 1059.21597361811 600.516432707493  Z M 1187.59592800205 752.090970085194  C 1190.38149312287 757.395999930509  1193.03240746466 762.770649251944  1195.5461270691 768.209760250282  L 1196.4538729309 767.790239749718  C 1193.93307805803 762.335819498014  1191.27470229114 756.946042360988  1188.48129674894 751.626080655293  L 1187.59592800205 752.090970085194  Z M 1048.5507217538 591.55780812911  C 1050.33325464775 593.028694230154  1052.10937241559 594.507337452198  1053.87902451381 595.993695717063  L 1054.52217867242 595.227958994516  C 1052.74869949552 593.738386306863  1050.96873480979 592.256552350394  1049.18233535983 590.782499370376  L 1048.5507217538 591.55780812911  Z M 1053.63293348526 586.921825877229  L 1045 588  L 1045.6560237696 596.675230994834  L 1053.63293348526 586.921825877229  Z " fill-rule="nonzero" fill="#199ed8" stroke="none" />
  </g>
</svg>