<?xml version="1.0" encoding="utf-8"?>
<svg version="1.1" xmlns:xlink="http://www.w3.org/1999/xlink" width="19.28053369561468px" height="18px" viewBox="251.12118957102177 815.6393216363705 19.28053369561468 18" xmlns="http://www.w3.org/2000/svg">
  <g transform="matrix(0.9403641047072625 0.34016959090740867 -0.3401695909074007 0.9403641047072575 296.0679635985756 -39.52501371502842 )">
    <path d="M 278.6803272740637 818.2922620394295  C 275.50532103323945 819.3117348172011  272.3343861108418 820.3438439284228  269.16759789538435 821.3885648348519  L 269.48088902566235 822.3382219664995  C 272.6451567168153 821.2943325790282  275.81356781449364 820.2630449487108  278.98604699008564 819.2443835942929  L 278.6803272740637 818.2922620394295  Z M 291.0831916964652 814.3804804087364  C 287.8978030342142 815.3670342308259  284.7163546740096 816.3662658514855  281.5389222546753 817.3781515140186  L 281.8423667449522 818.3310006318334  C 285.0172701680584 817.3199203538644  288.196186335523 816.3214840461469  291.3790396689775 815.3357154463896  L 291.0831916964652 814.3804804087364  Z M 303.52588233305784 810.5972898070412  C 300.33045254803244 811.5508189690823  297.1388316268443 812.5170660363389  293.9510954498134 813.4960080364281  L 294.24466078750044 814.451947047301  C 297.4298597672311 813.4737842111268  300.6189403992072 812.5083062035618  303.81182686340134 811.5555359787355  L 303.52588233305784 810.5972898070412  Z M 316.0070660105711 806.9430955846606  C 312.80193747745847 807.8634979206622  309.60048596169526 808.7966569059189  306.4027875773224 809.7425503547119  L 306.6864423083336 810.7014768344667  C 309.8815955662414 809.7563362454373  313.0804989683817 808.8239199842578  316.2830764611919 807.9042502190186  L 316.0070660105711 806.9430955846606  Z M 328.5254054313942 803.4182892705819  C 325.31092156399546 804.3054661639485  322.0999824734839 805.2054370837968  318.89266449946626 806.1181806334502  L 319.1663782315885 807.079991837818  C 322.37114342267404 806.1679747631117  325.5795268481698 805.268720152147  328.7914522291264 804.3822493845994  L 328.5254054313942 803.4182892705819  Z M 341.03953918666156 799.9040297133686  C 337.82928591362446 800.8023724805302  334.6196934772393 801.7030750880199  331.4107644757475 802.606136806698  L 331.68166306445966 803.5687446991619  C 334.8901203029836 802.6658157447414  338.09924087866625 801.7652455547387  341.3090221940468 800.8670348580747  L 341.03953918666156 799.9040297133686  Z M 353.56286699481217 796.4124602166925  C 350.3509025457184 797.304665444692  347.13959441586167 798.1992317733929  343.9289452163547 799.0961584754245  L 344.19800343560803 800.0592823899092  C 347.4081806211641 799.1624875496569  350.6190166342573 798.2680527373793  353.83050887603866 797.3759786770312  L 353.56286699481217 796.4124602166925  Z M 366.0928455173325 792.9448334827866  C 362.879181624341 793.8308979127208  359.6661695365125 794.7193246934955  356.4538118663453 795.6101131027317  L 356.721028733206 796.5737495207159  C 359.93291413825136 795.6830920708372  363.1454538588056 794.7947959038681  366.35864529464067 793.9088617387952  L 366.0928455173325 792.9448334827866  Z M 378.6294289792244 789.501162179718  C 375.4140773826158 790.3810825745823  372.19937307471474 791.2633665617959  368.9853186693959 792.1480134239741  L 369.2506932076571 793.112158825064  C 372.4642750964927 792.2276420198702  375.67850679216656 791.3454877423158  378.8933856815844 790.4656967095711  L 378.6294289792244 789.501162179718  Z M 391.1725715813558 786.0814588880389  C 387.95554402565915 786.9552320337949  384.73915924560043 787.8313700032093  381.5234198449208 788.7098720870272  L 381.7869510851059 789.6745229489698  C 385.00221772158227 788.7961500187573  388.2181296423564 787.920140855441  391.43468424447076 787.0464961680623  L 391.1725715813558 786.0814588880389  Z M 403.72222750063736 782.6857361007433  C 400.50353574033755 783.553358804765  397.2854822345103 784.4233475566903  394.0680695882481 785.295701652243  L 394.32975656761465 786.2608544509387  C 397.5466962017625 785.3886286056605  400.7642766068124 784.5187677547641  403.98249516694716 783.6512726054252  L 403.72222750063736 782.6857361007433  Z M 416.27835089018396 779.3140062232127  C 413.0580066839293 780.1754753158675  409.83829620865157 781.0393116720275  406.61922207078214 781.9055145923976  L 406.8790638333253 782.8711658019129  C 410.0976647148138 782.0050902274943  413.3169018457159 781.1413808678715  416.53677260886883 780.2800384252183  L 416.27835089018396 779.3140062232127  Z M 428.84089587948085 775.966281573182  C 425.6189109919569 776.8215939073178  422.39755530959786 777.6792747119133  419.17683144016695 778.5393232926549  L 419.4348270366227 779.5054693852358  C 422.65507740713514 778.6455472456576  425.87595950324936 777.7879925326433  429.0974707064646 776.9328059433653  L 428.84089587948085 775.966281573182  Z M 441.40981657455586 772.6425743806888  C 438.1862027764419 773.4917268316458  434.9632136553818 774.3432489513633  431.7408518204619 775.1971400505138  L 431.99700030831093 776.1637774965982  C 435.2188884035048 775.3100119333608  438.4414036981806 774.458614999808  441.6645435725095 773.6095873881056  L 441.40981657455586 772.6425743806888  Z M 453.98506705814617 769.3428967880268  C 450.75983612607195 770.1858862536485  447.53522534065934 771.0312465776752  444.31123731230645 771.8789770757668  L 444.56553775577714 772.8461023439976  C 447.7890518072487 771.9984964756051  451.01318852402466 771.1532604328772  454.2379452964912 770.3103948999483  L 453.98506705814617 769.3428967880268  Z M 466.5617143470141 766.052388795293  C 463.33667161296836 766.8954593964436  460.111840410964 767.7393390190234  456.887221066959 768.5840275777325  L 457.14062127674583 769.5513891097773  C 460.3650788489052 768.7067429271792  463.5897482407519 767.8629056473719  466.81462918171144 767.0198773411631  L 466.5617143470141 766.052388795293  Z M 479.14045233084624 762.7685154889175  C 475.91486040342255 763.6094824280356  472.6894794803266 764.451258526377  469.46430988756657 765.293843698859  L 469.717079097317 766.2613703013884  C 472.9420868906257 765.4188273994956  476.16730597598297 764.5770935383792  479.3927360827677 763.7361687886671  L 479.14045233084624 762.7685154889175  Z M 491.7213294931341 759.4928471623515  C 488.4951897291481 760.3317100856814  485.2692604878268 761.1713822936799  482.04354200294966 762.0118637254983  L 482.2956801051334 762.9795549869176  C 485.52123674764357 762.1391157241555  488.7470041544734 761.2994856398102  491.9729820549558 760.4606648043319  L 491.7213294931341 759.4928471623515  Z M 504.30434048184907 756.2253852090887  C 501.0776542844935 757.0621437517714  497.85117803577106 757.8997117282374  494.62491206178646 758.7380890538291  L 494.8764189491415 759.7059445624734  C 498.10252306867227 758.8676092963726  501.3288374246957 758.0300833459838  504.5553617465157 757.1933667815813  L 504.30434048184907 756.2253852090887  Z M 516.8894799440695 752.9661310191448  C 513.6622486706268 753.8007848292144  510.43522681782576 754.6362482098299  507.2084147118392 755.4725210765482  L 507.4592902773722 756.4405404206827  C 510.6859405015067 755.6043095078793  513.9128004342322 754.7688880477401  517.1398698047942 753.934276110361  L 516.8894799440695 752.9661310191448  Z M 529.4767425259578 749.7150859790281  C 526.2489675493214 750.5476347014154  523.0214014652512 751.3809931307695  519.794044599978 752.2151611828564  L 520.0442887369641 753.1833439506767  C 523.2714836930556 752.349217746911  526.4988878297435 751.5159011324143  529.7265008762225 750.6833941771101  L 529.4767425259578 749.7150859790281  Z M 542.0661228727732 746.4722514717729  C 538.8378055660685 747.302694752304  535.6096966237666 748.1339478758763  532.381796372154 748.966010758469  L 532.6314089741372 749.934356538101  C 535.8591472893077 749.102335398218  539.0870942569884 748.2711239838667  542.3152496063284 747.4407223647935  L 542.0661228727732 746.4722514717729  Z M 554.6576156288775 743.2376288769062  C 551.4287573500649 744.0659663662524  548.2001069535888 744.8951138225132  544.9716646734222 745.7250711856017  L 545.2206456342147 746.6935795651021  C 548.4489259353544 745.8636638430512  551.6774143608283 745.0345579824506  554.9061106397421 744.2062620528689  L 554.6576156288775 743.2376288769062  Z M 567.251215437727 740.0112195704663  C 564.0218175911825 740.8374509083462  560.7926270524587 741.6644923603789  557.5636441479329 742.4923438429773  L 557.8119933616161 743.461014410334  C 561.0408142753852 742.6332044591688  564.2698427852183 741.8062045050309  567.4990786201892 740.9800146173053  L 567.251215437727 740.0112195704663  Z M 579.8469169418962 736.7930249249987  C 576.6169808860436 737.6171497638746  573.387251609574 738.4420848519484  570.1577294389382 739.2678301058376  L 570.405446799862 740.2366624489688  C 573.6348069526875 739.4109586208481  576.864374173234 738.5860649249796  580.0941481905126 737.7619814305797  L 579.8469169418962 736.7930249249987  Z M 592.4447147830518 733.5830463095565  C 589.2142418919345 734.4050642988385  585.9839752516835 735.2278926720124  582.7539151888051 736.0515313459131  L 583.0010005915882 737.0205250526684  C 586.2308986096722 736.1969276988538  589.4610031670356 735.3741406121783  592.6913139926479 734.5521638616763  L 592.4447147830518 733.5830463095565  Z M 605.0446036019737 730.3812850896857  C 601.8135952498646 731.2011958796796  598.5827926200184 732.0219171879206  595.3521960389946 732.8434489314491  L 595.5986493785247 733.8126035896098  C 598.8290838724331 732.9911130643849  602.0597244233098 732.1704329290902  605.290570667644 731.3505632760725  L 605.0446036019737 730.3812850896857  Z M 617.6465780385514 727.1877426274541  C 614.4150355845429 728.0055458732618  611.1836983703301 728.824159759615  607.9525666300804 729.6435842271914  L 608.1983878015137 730.6128994244699  C 611.4293574277993 729.7935160694694  614.6605325362215 728.9749432503407  617.8919128556591 728.1571810357682  L 617.6465780385514 727.1877426274541  Z M 630.250632731784 724.0024202814227  C 627.0185575814218 724.8181156273441  623.7866870958516 725.6346217591811  620.5550216017425 726.4519385944001  L 620.8002105005046 727.4214139184409  C 624.031713853868 726.604138090053  627.2634222068981 725.7876729197004  630.4953351959614 724.9720184992559  L 630.250632731784 724.0024202814227  Z M 642.855922369136 720.8232489826256  L 638.6277624079057 721.8901722151306  C 636.8049618301807 722.3493614200382  634.9822261817347 722.8088084895451  633.159555592791 723.2685133908213  L 633.4041121145762 724.2381484292004  C 635.2267556004766 723.7784503637187  637.0494640974613 723.319010147815  638.872237574795 722.8598277892346  L 643.1005905253834 721.7928558582811  L 642.855922369136 720.8232489826256  Z M 655.461410757803 717.6440540412373  L 651.8924192330898 718.5430021298536  L 645.7647429961027 720.0892445138832  L 646.00941115235 721.0588513895386  L 652.1367727571151 719.5126883507495  L 655.7056593970332 718.6137666802363  L 655.461410757803 717.6440540412373  Z M 668.068162323522 714.4698994257895  L 665.3740710170114 715.1472795514647  L 658.3705486747998 716.9113081235467  L 658.6147973140299 717.8810207625457  L 665.6180148852716 716.1170689100951  L 668.3120045940651 715.439714329313  L 668.068162323522 714.4698994257895  Z M 680.6761165491813 711.3005515359537  L 679.0725132544281 711.7030560754781  L 670.9776070340926 713.7383726141599  L 671.2214493046357 714.7081875176833  L 679.3160601584002 712.6729452010338  L 680.9195649909817 712.2704653755213  L 680.6761165491813 711.3005515359537  Z M 693.2852167529028 708.1357909756011  L 692.9877462396261 708.2103316196174  L 683.5858580678844 710.5702062105524  L 683.8293065096848 711.5401200501201  L 693.2309082907834 709.1803173033076  L 693.5282833344696 709.105800582216  L 693.2852167529028 708.1357909756011  Z M 705.8953416388979 704.975925415232  L 696.1952455727478 707.4065912309005  L 696.4383121543146 708.3766008375156  L 706.1384082204647 705.9459350218472  L 705.8953416388979 704.975925415232  Z M 718.5067403922849 701.8203615061266  L 708.8057168508502 704.2473230320952  L 709.0484130034471 705.2174253862386  L 718.7494365448817 702.7904638602699  L 718.5067403922849 701.8203615061266  Z M 731.1191446642654 698.6688425552294  L 721.4685855454633 701.0793794641866  L 721.4170474547158 701.0922730483358  L 721.6597436073115 702.0623754024796  L 721.7110120746577 702.0495492361982  L 731.3614813135807 699.6390347776259  L 731.1191446642654 698.6688425552294  Z M 743.7325093008459 695.5211919586083  L 736.0341923723937 697.441151624178  L 734.0297213314549 697.9418326072835  L 734.2720579807702 698.9120248296799  L 736.2762672352593 698.411409202792  L 743.9744968963645 696.4914713016921  L 743.7325093008459 695.5211919586083  Z M 756.3467918366906 692.3772432372432  L 750.816590961734 693.7544225227801  L 746.6433473300973 694.7952291720525  L 746.8853349256159 695.7655085151363  L 751.0583242711364 694.7247652533431  L 756.5884403789634 693.3476070772626  L 756.3467918366906 692.3772432372432  Z M 768.9619522974486 689.2368393220356  L 765.8157815321557 690.019192099786  L 759.2578833567492 691.6522976104247  L 759.4995318990219 692.6226614504442  L 766.057182970495 690.989617446102  L 769.2032713634386 690.2072851517396  L 768.9619522974486 689.2368393220356  Z M 781.5779530192738 686.0998318985418  L 781.0317642884854 686.2354602989132  L 771.8732897865605 688.5128821240661  L 772.1146088525504 689.4833279537701  L 781.2728431333321 687.2059658359274  L 781.818951785938 687.0703573203965  L 781.5779530192738 686.0998318985418  Z M 794.1947835033853 682.9668479319067  L 784.489529284838 685.3768355985491  L 784.7305280515022 686.3473610204038  L 794.4357822700496 683.9373733537615  L 794.1947835033853 682.9668479319067  Z M 806.8125938424206 679.8371463443752  L 797.1065666434952 682.2440190069232  L 797.34725390975 683.2146217268156  L 807.0532811086754 680.8077490642677  L 806.8125938424206 679.8371463443752  Z M 819.4311468451833 676.7104587897795  L 812.1141071288969 678.5224923528053  L 809.7244020020981 679.1150845456109  L 809.9650892683529 680.0856872655033  L 812.3545671035989 679.4931514106928  L 819.6715310523812 677.6811366111651  L 819.4311468451833 676.7104587897795  Z M 832.0504120413406 673.5866642007315  L 827.9804675699766 674.5932561101338  L 822.34318030934 675.9893061681857  L 822.5835645165379 676.9599839895714  L 828.22063056302 675.5639886904785  L 832.2905012923806 674.5574150191885  L 832.0504120413406 673.5866642007315  Z M 844.6703606235293 670.4656479027116  L 844.0636209154976 670.6155182935169  L 834.9626644967117 672.8663964476115  L 835.2027537477517 673.8371472660684  L 844.303494788589 671.586322357413  L 844.9101627007072 671.4364697008708  L 844.6703606235293 670.4656479027116  Z M 857.2910439995994 667.3482208993979  L 847.582826018007 669.7462416711777  L 847.822628095185 670.717063469337  L 857.5308460767774 668.3190426975572  L 857.2910439995994 667.3482208993979  Z M 869.912546291671 664.2335102357301  L 860.3635673202754 666.5892788609385  L 860.2035093940771 666.628814667864  L 860.443311471255 667.5996364660233  L 860.6031596283489 667.5601524526585  L 870.1520686733687 665.2044010785471  L 869.912546291671 664.2335102357301  Z M 266.31861797193994 822.3322155709061  C 264.7358480902256 822.8585656849541  263.1541279494494 823.388067199135  261.57346695820985 823.9207169637966  L 261.8965737015675 824.8670878648743  C 263.47472120507524 824.3352906639298  265.05392532262806 823.8066342049908  266.6341766751036 823.2811216278251  L 266.31861797193994 822.3322155709061  Z M 876.8802388091511 662.5145545785915  L 872.8252188201219 663.514943090637  L 873.0647412018196 664.4858339334539  L 877.1197611908489 663.4854454214085  L 876.8802388091511 662.5145545785915  Z M 260.49911620552723 818.0346885949  L 257 826  L 264.78525305096 829.8832763142116  L 260.49911620552723 818.0346885949  Z " fill-rule="nonzero" fill="rgba(217, 0, 27, 1)" stroke="none" class="fill" />
  </g>
</svg>