<?xml version="1.0" encoding="utf-8"?>
<svg version="1.1" xmlns:xlink="http://www.w3.org/1999/xlink" width="416px" height="12px" viewBox="696 702 416 12" xmlns="http://www.w3.org/2000/svg">
  <g transform="matrix(0.9743700647852346 0.2249510543438653 -0.22495105434386675 0.9743700647852366 182.43480790960552 -185.20975899480163 )">
    <path d="M 496.40671346680733 817.562777794199  C 493.2687870473794 818.6909771155559  490.1350739474928 819.8308610004178  487.0056393868613 820.9824057252023  L 487.3509737712419 821.9208854335415  C 490.478077833588 820.7701982671928  493.6094572488297 819.6311632569516  496.7450468460622 818.503804108646  L 496.40671346680733 817.562777794199  Z M 508.6657271757533 813.222134287655  C 505.51702176735745 814.31989117039  502.3724163207086 815.4293728729328  499.231976282216 816.55055630444  L 499.56820568066144 817.4923364229502  C 502.70630702500125 816.3719879397635  505.84857067556226 815.2633324712123  508.99493123456216 814.1663930909837  L 508.6657271757533 813.222134287655  Z M 520.9662033281629 809.0004178605338  C 517.8070142588248 810.0676293422129  514.65181140889 811.1466048002912  511.50066044532423 812.2373217788296  L 511.8277533217105 813.1823139746797  C 514.9765576147274 812.0924092559918  518.1294107765422 811.0142373138635  521.2862471893327 809.9478205874286  L 520.9662033281629 809.0004178605338  Z M 533.3069882196195 804.8980244822949  C 530.1376118006048 805.9345904654626  526.9721074849454 806.9829584781784  523.8105411536504 808.0431067016308  L 524.1284668287993 808.9912223407176  C 527.2876787331346 807.9318636125018  530.450825689262 806.8842763222497  533.6178418651238 805.8484822725607  L 533.3069882196195 804.8980244822949  Z M 545.6869243650093 800.9153389306734  C 542.5076578632084 801.9211621921831  539.3321489853606 802.9388244294961  536.1604638206915 803.968304462855  L 536.4691924752491 804.919454618117  C 539.6385156774361 803.8907412413108  542.8116597453276 802.8738368597885  545.9885586388042 801.86876263757  L 545.6869243650093 800.9153389306734  Z M 558.1048506070861 797.0527347555919  C 554.9159922170152 798.0277209557653  551.7307766188771 799.0145819676335  548.5492701042698 800.0132972523695  L 548.8487727815024 800.9673927121273  C 552.0279100197009 799.9694211733345  555.2107535791438 798.9832950795384  558.3972372178446 798.0090349541954  L 558.1048506070861 797.0527347555919  Z M 570.5580701703681 793.3108680945375  C 570.5423765311557 793.3155536952008  570.5266831133189 793.3202393431409  570.5109895362664 793.3249251519933  C 567.3290781844289 794.2643196036552  564.1506591837036 795.2155030930311  560.9757980151784 796.1784560240488  L 561.2660466236886 797.1354073003728  C 564.4390346710371 796.1730224973555  567.6155790005799 795.2224020138536  570.7956141491724 794.2835654405292  C 570.8117953884686 794.2787340175124  570.8279766536733 794.273902707323  570.8441579590707 794.2690715056956  L 570.5580701703681 793.3108680945375  Z M 583.0228993853793 789.6130989277227  C 579.8251279595396 790.5556342890455  576.6286305449865 791.5024866555467  573.4334158808155 792.4536534385702  L 573.7187273513601 793.4120882901775  C 576.9130793353213 792.4611783139248  580.1087137240424 791.5145815891296  583.3056217793687 790.5723007041687  L 583.0228993853793 789.6130989277227  Z M 595.5006322751385 785.9591084922807  C 592.2995719200961 786.890412740438  589.0997704142787 787.8260384394052  585.9012365058165 788.7659830312177  L 586.1831817739935 789.7254135215362  C 589.3808521060787 788.7857227066004  592.5797896939887 787.8503496182386  595.7799857905354 786.9192968141402  L 595.5006322751385 785.9591084922807  Z M 607.9911150813475 782.3489418149292  C 604.7868052430133 783.2690034736803  601.5837390748998 784.1933909760324  598.3819253369246 785.1221017939206  L 598.6605009284309 786.0825161002576  C 601.8614502049804 785.1540560260864  605.0636515728029 784.2299181004021  608.2670962757863 783.3101048501713  L 607.9911150813475 782.3489418149292  Z M 620.4941938885987 778.7826433823603  C 617.2866740514942 779.691451114414  614.080382693143 780.6045890287301  610.8753285794185 781.5220546288248  L 611.1505310614746 782.4834409163649  C 614.3547198384234 781.5662230240142  617.5601455266644 780.6533316488024  620.7667993612694 779.7447692869436  L 620.4941938885987 778.7826433823603  Z M 633.0097146262673 775.2602571406971  C 629.7990243159014 776.1577997470285  626.5895472762505 777.0596768213369  623.3812922819012 777.9658858979246  L 623.6531182632926 778.928232319875  C 626.8605070566563 778.0222679118677  630.0691175660917 777.1206343363369  633.2789410179577 776.2233340587143  L 633.0097146262673 775.2602571406971  Z M 645.5375230704111 771.7818264949484  C 642.3237018508833 772.668092915486  639.1110786790853 773.558698036302  635.899662338201 774.4536394225174  L 636.168108469321 775.4169341202537  C 639.3786577556835 774.5222343604402  642.5904135478381 773.6318696950747  645.8033670635479 772.7458425587737  L 645.5375230704111 771.7818264949484  Z M 658.077464845674 768.3473943084747  C 654.8605523196654 769.2223736220985  651.6448226036366 770.1016958148392  648.4302844892643 770.9853584826644  L 648.6953474621546 771.949589585877  C 651.9090176791533 771.0661654992978  655.1238791767998 770.1870807157175  658.3399231643642 769.3123376389093  L 658.077464845674 768.3473943084747  Z M 670.6293854271826 764.957002902461  C 667.4094212354674 765.8206843271381  664.1906246014062 766.6887127562543  660.973004325061 767.5610858166544  L 661.2346808734527 768.5262414434949  C 664.4514324202675 767.6541039162447  667.6693600079055 766.7863098470734  670.8884548372534 765.9228616088801  L 670.6293854271826 764.957002902461  Z M 683.1931301424542 761.6106940553948  C 679.9701539634108 762.4630669483116  676.7483300753087 763.3197909174236  673.5276672864858 764.1808636204815  L 673.7859541858396 765.1469318777089  C 677.0057474236801 764.2860916568026  680.2267014480274 763.4295989955319  683.448807451493 762.5774562358936  L 683.1931301424542 761.6106940553948  Z M 695.768544173302 758.3085090025509  C 692.5425957224247 759.1495628602445  689.3177842815751 759.9949718122731  686.0941186672618 760.8447335473215  L 686.3490127348076 761.8117025304487  C 689.5718079874017 760.9621702236888  692.7957487578841 760.1169895245475  696.020826230696 759.2761627440912  L 695.768544173302 758.3085090025509  Z M 708.3545111358294 755.0491018646914  C 707.8739517261491 755.1731905386805  707.39340399143 755.2973243557037  706.9128679059255 755.4215033224118  C 704.1651644139868 756.1287578883374  701.4182745037044 756.8391694855779  698.6722036158507 757.5527367070201  L 698.9237017106271 758.5205945004607  C 701.6691853214625 757.8071798831018  704.4154878261144 757.096920392069  707.1626037831213 756.3898174346541  C 707.6432334150974 756.2656142629755  708.1238747293548 756.1414562572751  708.6045276975374 756.0173434248776  L 708.3545111358294 755.0491018646914  Z M 720.9451063361294 751.8090088034829  C 717.7160677109262 752.6371535175905  714.4875519646174 753.4673356712683  711.2595610281948 754.2995547679801  L 711.5092109960614 755.2678909149582  C 714.736794585052 754.4357768378449  717.9649029208172 753.6056994459179  721.1935340663781 752.7776592372533  L 720.9451063361294 751.8090088034829  Z M 733.5410002818489 748.5895762057526  C 730.3106073498153 749.4124222516339  727.0807339533503 750.2373065921772  723.8513820242641 751.0642287340154  L 724.099443005986 752.0329731530171  C 727.3283874178182 751.2061553618499  730.557853228566 750.3813751155029  733.7878385119798 749.5586329059233  L 733.5410002818489 748.5895762057526  Z M 746.1421590703438 745.390812736803  C 742.9104205262854 746.208357899716  739.6791981730751 747.0279422068979  736.4484939433289 747.8495651681495  L 736.6949652712344 748.8187152517386  C 739.9252618130776 747.9971959724455  743.1560764103425 747.1777150906357  746.3874071359761 746.3602730950971  L 746.1421590703438 745.390812736803  Z M 758.7485487848 742.2127270063098  C 755.515473327145 743.0249690857803  752.282910714227 743.8392511536377  749.0508628794652 744.6555727228528  L 749.2957438901611 745.6251258625003  C 752.5273838674682 744.8089073062525  755.7595385553101 743.9947279946645  758.992206025833 743.1825884133635  L 758.7485487848 742.2127270063098  Z M 771.360135494328 739.0553275682911  C 768.1257318251023 739.8622643781183  764.8918376531233 740.6712420149581  761.658454912606 741.4822599949557  L 761.9017449469798 742.4522135810485  C 765.1347196615883 741.6412979447495  768.3682057404586 740.8324223947998  771.6022012549429 740.0255874136614  L 771.360135494328 739.0553275682911  Z M 783.9768852540443 735.918622921085  C 780.7411620788488 736.7202522893479  777.5059450520413 737.5239233177566  774.2712361086213 738.3296355256308  L 774.5129345118427 739.2999869474778  C 777.7472352619982 738.4943764137579  780.9820440287623 737.690806802585  784.2173588827058 736.8892785932562  L 783.9768852540443 735.918622921085  Z M 796.5987641051752 732.8026215073304  C 793.3617301331639 733.5989412763927  790.125198959313 734.39730353324  786.8891725194145 735.1977078003654  L 787.1292786409366 736.1684544462044  C 790.3648967213136 735.3681511834154  793.6010194692859 734.569889673877  796.8376449546336 733.7736703937218  L 796.5987641051752 732.8026215073304  Z M 809.2257380751372 729.7073317139417  C 805.9874020170604 730.4983397409301  802.7495654113554 731.2913910764269  799.5122301830176 732.086485248939  L 799.7507433765799 733.0576245059442  C 802.9876700763795 732.2626306686267  806.2250980991885 731.4696794083501  809.4630255024293 730.678771200914  L 809.2257380751372 729.7073317139417  Z M 821.8577731776317 726.632761872085  C 818.618143753535 727.4184560270086  815.3790104230985 728.2061943084999  812.1403751236719 728.9959762454049  L 812.377294747301 729.9675054996939  C 815.6155213579899 729.177823226676  818.8542459341752 728.390184351828  822.0934665440838 727.6045893449475  L 821.8577731776317 726.632761872085  Z M 834.4948354127441 723.5789202571616  C 831.2539213403642 724.3592984257467  828.0135000073876 725.1417215320379  824.7735733519336 725.9261891080617  L 825.0088987679454 726.8981057447023  C 828.2484165717034 726.1137371619376  831.4884289878925 725.3314127915546  834.7289340839725 724.5511331001796  L 834.4948354127441 723.5789202571616  Z M 847.1368907670217 720.5458150887766  C 843.89470076755 721.3208751710482  840.6530001576982 722.097980995272  837.4117908647513 722.8771320994354  L 837.6455214397529 723.8494335024527  C 840.8863217172141 723.0703807211183  844.1276132527066 722.2933729608757  847.369394112935 721.518410685178  L 847.1368907670217 720.5458150887766  Z M 859.7839052135791 717.533454530724  C 856.5404480155073 718.3031944400936  853.2974768501533 719.0749808915543  850.0549936455648 719.8488134262551  L 850.2871287504552 720.8214969786387  C 853.5292027788003 720.0477620956048  856.7717647094621 719.2760730368665  860.01481260838 718.5064302627062  L 859.7839052135791 717.533454530724  Z M 872.4358447121788 714.5418466909612  C 869.1911290474093 715.3062643551699  865.9468960513504 716.0727293574689  862.7031476644006 716.8412412394302  L 862.9336866743738 717.814304323141  C 866.1770257273567 717.0458894209635  869.420849325625 716.2795211407797  872.6651555343653 715.5151999396987  L 872.4358447121788 714.5418466909612  Z M 885.0923540613219 711.5706112901017  C 884.7413278515177 711.6528673975463  884.3903047162867 711.735136548425  884.0392846222828 711.8174187505529  C 881.1445475020115 712.4947915538751  878.2501917949106 713.1737932893789  875.3562188779514 713.8544236340325  L 875.5851611724971 714.8278636300098  C 878.4788315377276 714.1473044421683  881.3728846641735 713.4683737278102  884.2673191693252 712.7910718112653  C 884.618377770342 712.7087805778395  884.9694394903557 712.6265023814038  885.320504208936 712.5442372501828  L 885.0923540613219 711.5706112901017  Z M 897.7512499559342 708.6102127548413  C 894.5050402723869 709.3678391284525  891.2590910498275 710.126581081953  888.0134028690532 710.8864384795808  L 888.2413522523925 711.8601114629972  C 891.486817356747 711.1003062904318  894.7325434837911 710.341616485599  897.9785300550758 709.5840421837117  L 897.7512499559342 708.6102127548413  Z M 910.4127859820331 705.6611264186893  C 907.1659006375942 706.4158519261532  903.9192747572437 707.1716932457887  900.6729089218978 707.9286502423536  L 900.8999882148283 708.9025265151533  C 904.1461309271788 708.1456215443062  907.3925336655079 707.3898321739763  910.6391958512455 706.6351585388595  L 910.4127859820331 705.6611264186893  Z M 923.0769520308462 702.7233546361501  C 919.8293936177768 703.4751786749061  916.5820936716884 704.2281187572266  913.3350527736175 704.9821747483862  L 913.5612617948427 705.9562535330418  C 916.8080795235213 705.2022493682136  920.0551562812591 704.4493610357956  923.3024914893673 703.6975886699686  L 923.0769520308462 702.7233546361501  Z M 935.7437379915144 699.7968997526931  C 932.4955091026131 700.545821722497  929.2475376833775 701.2958599663647  925.9998243149666 702.0470143500927  L 926.2251628838849 703.0212948689157  C 929.4726530366845 702.2701921120912  932.7204012214186 701.5202054186813  935.968406859277 700.7713349223469  L 935.7437379915144 699.7968997526931  Z M 948.4131337510722 696.881764104752  C 945.1642369796723 697.6277834076766  941.9155966804194 698.3749192142744  938.6672134345905 699.1231713908614  L 938.8916813712952 700.0976528660017  C 942.1398413554721 699.3494521168493  945.3882583742511 698.6023676612233  948.6369318487044 697.8563996322679  L 948.4131337510722 696.881764104752  Z M 961.0851291944849 693.9779500197238  C 957.8355671344533 694.7210660601592  954.5862605488448 695.4652988329881  951.3372100190549 696.2106482050416  L 951.5608071443345 697.1853298584889  C 954.80963436661 696.44003171436  958.0587176259505 695.6958500929762  961.3080563433101 694.9527851269685  L 961.0851291944849 693.9779500197238  Z M 973.7597142046299 691.0854598159701  C 970.5094894503646 691.8256720006244  967.2595191725941 692.5670011454968  964.0098039528326 693.3094471179419  L 964.2325300881706 694.284328171526  C 967.4820219547333 693.5419332274546  970.7317688606202 692.80065503446  973.9817702266663 692.060493724651  L 973.7597142046299 691.0854598159701  Z M 986.4368786623279 688.2042958028047  C 983.1859938087563 688.9416035407044  979.9353624335471 689.6800284657577  976.6849851183346 690.4195704458374  L 976.9068400859102 691.3946501212291  C 980.1569940024181 690.6551589699316  983.407401960306 689.9167847971476  986.6580633802898 689.1795277344703  L 986.4368786623279 688.2042958028047  Z M 999.1166124463298 685.334460280506  C 995.8650700889056 686.0688629829966  992.61378021151 686.8043830986812  989.362743395895 687.5410204959572  L 989.5837270185825 688.5162980146687  C 992.8345403901652 687.7797112465425  996.0856068049808 687.0442416834782  999.3369256836268 686.3098894565468  L 999.1166124463298 685.334460280506  Z M 1011.7989054333418 682.4759555403008  C 1008.5467081680431 683.2074526210472  1005.2947623842447 683.9400673401385  1002.0430686638017 684.6737995664917  L 1002.2631807651717 685.6492741498769  C 1005.5146509964321 684.9155923530013  1008.7663732725755 684.1830279868406  1012.018347014083 683.45158118195  L 1011.7989054333418 682.4759555403008  Z M 1024.4837474980309 679.6287838643754  C 1021.2308979213618 680.3573747393615  1017.9782988274499 681.0870834769514  1014.7259507982811 681.817909946581  L 1014.9451912025994 682.7935808158368  C 1018.1973156976162 682.0628045759714  1021.4496912389646 681.3331459915835  1024.7023172470103 680.6046051927091  L 1024.4837474980309 679.6287838643754  Z M 1037.171128513015 676.7929475258642  C 1033.9176292219963 677.5186316133954  1030.6643794148047 678.2454337868984  1027.4113796735303 678.973353916325  L 1027.6297482057587 679.9492202924915  C 1030.8825243680888 679.2213501930763  1034.1355505779934 678.4945979730056  1037.3888262557339 677.7689637618024  L 1037.171128513015 676.7929475258642  Z M 1049.8610383489013 673.9684487888557  C 1046.6068919410761 674.6912255095571  1043.3529940179367 675.4151205387029  1040.0993451617012 676.1401337467663  L 1040.3168416474984 677.1161948507275  C 1043.570266880176 676.3912314728825  1046.823941161483 675.6673861973597  1050.0778639115533 674.9446591531629  L 1049.8610383489013 673.9684487888557  Z M 1062.5534668742628 671.1552899083849  C 1059.2986759476876 671.8751586852036  1056.0441325064699 672.5961459920451  1052.7898371329322 673.3182516999069  L 1053.0064613986522 674.2945067523914  C 1056.2605331041968 673.5724506749152  1059.514852859215 672.8515129218478  1062.769420083738 672.1316936216704  L 1062.5534668742628 671.1552899083849  Z M 1075.2484039556757 668.353473130428  C 1071.9929711089246 669.0704333886318  1068.7377847479947 669.7885123975477  1065.4828454553337 670.5077100286899  L 1065.6985973280268 671.4841582502713  C 1068.953312908438 670.7650100496425  1072.208275538981 670.046980394612  1075.4634846395602 669.3300694131467  L 1075.2484039556757 668.353473130428  Z M 1087.9458394577016 665.5630006919132  C 1084.689767289858 666.2770518590931  1081.4339406081133 666.9922219967777  1078.1783599950181 667.708510977005  L 1078.393239302432 668.6851515881027  C 1081.6485961591995 667.968911838477  1084.904199066547 667.2537908547498  1088.1600474442782 666.5397887643662  L 1087.9458394577016 665.5630006919132  Z M 1100.645763242917 662.7838748207078  C 1097.3890543535788 663.4950163267764  1094.1325899504084 664.2072770222538  1090.8763706160844 664.920656779692  L 1091.0903771866624 665.8974890005719  C 1094.3463727129958 665.184158275485  1097.602613313467 664.4719465306014  1100.8590983611662 663.7608539030434  L 1100.645763242917 662.7838748207078  Z M 484.1903120168358 822.0219412561225  C 482.62630467209016 822.6014244160558  481.06337834527255 823.1838210443781  479.5015411745926 823.7691281085306  L 479.85595059735624 824.7042258766496  C 481.4154640464592 824.1197945753163  482.9760642127604 823.5382672152123  484.537742983073 822.9596468195589  L 484.1903120168358 822.0219412561225  Z M 478.3025111947533 817.9511851923075  L 475 826  L 482.87824194943727 829.6909759937078  L 478.3025111947533 817.9511851923075  Z " fill-rule="nonzero" fill="rgba(217, 0, 27, 1)" stroke="none" class="fill" />
  </g>
</svg>