<?xml version="1.0" encoding="utf-8"?>
<svg version="1.1" xmlns:xlink="http://www.w3.org/1999/xlink" width="228px" height="12px" viewBox="720 788 228 12" xmlns="http://www.w3.org/2000/svg">
  <g transform="matrix(0.9612616959383192 0.27563735581700083 -0.27563735581699833 0.9612616959383238 251.1638061061385 -199.12334132640763 )">
    <path d="M 751.3558547660184 817.4209265371801  C 748.2081840151868 818.5276670863373  745.0712503506518 819.6647114019813  741.945490617104 820.8319011410214  L 742.2953077651828 821.7687191398398  C 745.4150496774964 820.6037765150359  748.5459440083891 819.4689212765998  751.6875547541349 818.3643114627982  L 751.3558547660184 817.4209265371801  Z M 763.6798323240259 813.2527367843819  C 763.0715607140247 813.4529689103338  762.463425731164 813.6536158485761  761.855427799779 813.8546774591046  C 759.2941673618419 814.6942414765733  756.7394806994488 815.5537290601717  754.1915999775404 816.4330621013444  L 754.5178404904657 817.3783488978913  C 757.0612282089617 816.500566496951  759.6114109613354 815.6425977713685  762.1681569168128 814.8045207169476  C 762.7761373108123 814.6034642785854  763.3842548458063 814.402822783455  763.9925090976228 814.2025963715067  L 763.6798323240259 813.2527367843819  Z M 776.0509883462394 809.2435786965045  C 772.8741705015395 810.2569176257554  769.70096122996 811.2815348384377  766.5314205566274 812.3174109526663  L 766.8420727459836 813.2679346068949  C 770.0093630936381 812.2327939489545  773.1803194350233 811.2089041988687  776.3548817873641 810.1962847248476  L 776.0509883462394 809.2435786965045  Z M 788.4586334037457 805.3488137451261  C 785.2725948633662 806.3327780853037  782.0900606103038 807.3280535460063  778.9110908464344 808.3346213002726  L 779.212953658318 809.2879726745316  C 782.3896664020576 808.282119568045  785.5699411042124 807.2875507377797  788.7537176057384 806.3042849973019  L 788.4586334037457 805.3488137451261  Z M 800.9017097552637 801.5687739556755  C 797.7067221262449 802.5232798246683  794.5151342001802 803.4891286869592  791.3270063502072 804.46630227223  L 791.6200540510678 805.4224000941188  C 794.8059183788093 804.4459202872152  797.9952403259964 803.4807571629243  801.187959562445 802.5269289785653  L 800.9017097552637 801.5687739556755  Z M 813.3796820018824 797.9072596913852  C 811.3316463285697 798.5006656388744  809.2840751559569 799.0956735624451  807.236970366721 799.6922829150074  C 806.0835814434292 800.0309736755095  804.9306265835247 800.3711408624389  803.7781086216163 800.712783639474  L 804.0623162293847 801.6715464024591  C 805.2136909783384 801.3302425099026  806.3655020687195 800.9904123278775  807.5177466707012 800.6520566912959  C 809.564025484192 800.0556886138976  811.6107704154696 799.4609210656029  813.6579795890016 798.8677545914256  L 813.3796820018824 797.9072596913852  Z M 825.8733745956029 794.3088095486954  C 822.6683989856239 795.2263950777775  819.4645467970854 796.1479000028603  816.2618252175569 797.0733222566254  L 816.5394179090197 798.0340211156059  C 819.7413561877672 797.1088251955873  822.9444247995301 796.187545646026  826.148616557452 795.2701845340354  L 825.8733745956029 794.3088095486954  Z M 838.3784465138637 790.7501055184473  C 835.1705693338441 791.6574951049287  831.9638031065431 792.5688076398927  828.7581550260627 793.4840410788888  L 829.0326914472628 794.4456177806837  C 832.2375555112174 793.5306081835203  835.4435374490473 792.6195185312907  838.6506300673624 791.7123508682437  L 838.3784465138637 790.7501055184473  Z M 850.8947713129334 787.2311835841049  C 847.6840249989906 788.1283680530098  844.4743771578062 789.0294789832144  841.2658349899517 789.9345143531536  L 841.5373123649427 790.8969591748801  C 844.7450698084547 789.9921451525961  847.9539326554014 789.091254610086  851.163893705926 788.1942895687141  L 850.8947713129334 787.2311835841049  Z M 863.4222224352957 783.7520793268819  C 860.2086394525563 784.6390496064232  856.9961424515104 785.5299498203784  853.7847386391217 786.42477797009  L 854.0531542228883 787.3880811800873  C 857.2637726115307 786.4934718814823  860.4754839205533 785.6027895582182  863.6882809465792 784.7160362079579  L 863.4222224352957 783.7520793268819  Z M 875.9606732109311 780.3128279253781  C 872.7442860532047 781.1895750470482  869.5289723751287 782.0702555365098  866.3147393899806 782.954867418032  L 866.5800904684668 783.9190192759601  C 869.7935373374492 783.0346237470494  873.0080646355752 782.1541586485415  876.2236651502825 781.2776259559712  L 875.9606732109311 780.3128279253781  Z M 888.5099968586021 776.9134641552273  C 885.2908380480534 777.7799792538887  882.0727402042529 778.6504311139478  878.8557105467286 779.5248177826195  L 879.1179944368645 780.4898085395573  C 882.3342372942311 779.6156357226812  885.551548077149 778.7453967519256  888.7699195668058 777.8790935798825  L 888.5099968586021 776.9134641552273  Z M 901.0700664871271 773.5540223887416  C 897.848168573945 774.4102967027171  894.627319103883 775.2705111318892  891.4075253026427 776.1346637464407  L 891.666739352372 777.1004836449844  C 894.8857456774184 776.2365423792502  898.1058074136234 775.3765383355794  901.3269173360017 774.5204734435978  L 901.0700664871271 773.5540223887416  Z M 913.6407550966683 770.2345365945669  C 910.4161506587379 771.0805614657281  907.1925821297006 771.930529766045  903.9700567413539 772.7844395886872  L 904.2261983296606 773.7510788630494  C 907.4479355737396 772.8973778841092  910.6707157039107 772.0476174633638  913.894531489093 771.2017995074546  L 913.6407550966683 770.2345365945669  Z M 926.2219355800183 766.9550403373385  C 922.9946572225923 767.7908072111927  919.7684022293548 768.6305207882889  916.5431778381322 769.4741791848013  L 916.7962443750674 770.4416280609099  C 920.0206799619176 769.5981760008725  923.2461458992518 768.7586677953158  926.4726349499598 767.9231053278793  L 926.2219355800183 766.9550403373385  Z M 938.8124887731923 763.7146658710928  C 938.5568503371778 763.7804033689434  938.3012141092316 763.8461499235201  938.0455803167379 763.9119054763414  C 935.0717813021764 764.6725609406633  932.0988397992749 765.4365649348543  929.1267614611734 766.2039160061364  L 929.376750387881 767.1721647017324  C 932.3483198328404 766.4049450198868  935.3207523591699 765.6410720872838  938.2940423116328 764.8805473572384  C 938.5498714189321 764.8147415480166  938.8057028064741 764.7489447925278  939.0615365648069 764.6831570674865  L 938.8124887731923 763.7146658710928  Z M 951.4053101648879 760.4842007640353  C 948.1759016730455 761.3106530366056  944.9468619224773 762.1385455084419  941.7181918720634 762.9678779336974  L 941.9669805000659 763.9364357371231  C 945.1953625807288 763.107177281226  948.4241143294032 762.2793586501033  951.6532347856319 761.4529800900065  L 951.4053101648879 760.4842007640353  Z M 964.0018689415797 757.2683396979313  C 960.771504320855 758.0910467883958  957.5415067596389 758.9151945076727  954.3118772401956 759.7407826051347  L 954.5595426202683 760.7096282375826  C 957.7888840882332 759.8841137745331  961.0185935544283 759.0600395639353  964.2486700581107 758.2374058509255  L 964.0018689415797 757.2683396979313  Z M 976.6021481667935 754.0670869966094  C 973.3708317528128 754.8860478007739  970.1398807391814 755.7064496554718  966.9092960853485 756.528292317079  L 967.1558378844976 757.4974244759059  C 970.3861343978134 756.6756551156342  973.616797239083 755.8553264335528  976.8478254472798 755.0364386736868  L 976.6021481667935 754.0670869966094  Z M 989.2061308990621 750.8804469642561  C 985.9738670441347 751.6956603790497  982.7419669067999 752.5123152700207  979.5104314699009 753.3304113888208  L 979.7558493566431 754.2998287709978  C 982.9870965720746 753.4818056183987  986.2187084446906 752.6652235677949  989.4506840131828 751.850082862093  L 989.2061308990621 750.8804469642561  Z M 1001.81380019193 747.7084238854065  C 998.5805932342312 748.5198888166926  995.3477483339929 749.3327956420279  992.1152664512255 750.1471441200151  L 992.3595600955888 751.1168454221302  C 995.5917536686225 750.3025695770614  998.824310227581 749.4897352558521  1002.0572288108757 748.6783427002968  L 1001.81380019193 747.7084238854065  Z M 1014.425139093991 744.5510220249478  C 1011.1909933845217 745.3587373807144  1007.9572080603375 746.1678950493817  1004.723784081727 746.9784947906638  L 1004.9669531552508 747.9484787089231  C 1008.2000887401007 747.1379512662041  1011.4335856391277 746.3288657672712  1014.6674428904641 745.5212224528052  L 1014.425139093991 744.5510220249478  Z M 1027.040130648906 741.4082456281049  C 1023.8050505360768 742.2122103223535  1020.5703291358726 743.0176177464137  1017.3359674088591 743.8244676611139  L 1017.5780115845952 744.7947328913433  C 1020.8120848342083 743.987954940754  1024.0465177257665 743.1826193519393  1027.2813092971217 742.3787263644645  L 1027.040130648906 741.4082456281049  Z M 1039.6587578954172 738.2800989204404  C 1036.4227477288953 739.0803118722151  1033.1870946018557 739.8819679687721  1029.9517994751407 740.6850669720551  L 1030.1927184276526 741.6556122097028  C 1033.4277249937165 740.8525848359812  1036.6630895290077 740.0510002400844  1039.898811071103 739.2508586604602  L 1039.6587578954172 738.2800989204404  Z M 1052.2810038673858 735.1665861078455  C 1049.0440679980888 735.9630462412348  1045.8074874946503 736.7609499324377  1042.5712633181897 737.5602969445117  L 1042.8110567235549 738.5311208846488  C 1046.0469922565012 737.7318451674907  1049.2832840854771 736.9340126422666  1052.5199312477828 736.1376235463084  L 1052.2810038673858 735.1665861078455  Z M 1064.906851593807 732.0677113765345  C 1061.668994373897 732.8604176206726  1058.4314908457445 733.6545678337146  1055.1943419707436 734.4501617798325  L 1055.433009506552 735.4212631171557  C 1058.6698696517044 734.6257401321609  1061.9070844307876 733.831660748427  1065.1446528576698 733.0390252078502  L 1064.906851593807 732.0677113765345  Z M 1077.5362840988269 728.9834788930445  C 1074.2975098778438 729.7724301830535  1071.0590876856238 730.5628258482905  1067.821018460671 731.3546656596949  L 1068.0585598060266 732.3260430885281  C 1071.296340219043 731.5342739034053  1074.5344735802578 730.7439487326133  1077.772958926424 729.9550678112512  L 1077.5362840988269 728.9834788930445  Z M 1090.1692844017812 725.9138928042219  C 1086.9295975420803 726.6990880774509  1083.6902610245113 727.4857281359372  1080.4512758110122 728.273812746087  L 1080.6876906465332 729.2454649603825  C 1083.9263869702568 728.4574506406387  1087.1654345675513 727.6708807435145  1090.404832474896 726.8857555029874  L 1090.1692844017812 725.9138928042219  Z M 1102.805835517198 722.8589572372208  C 1099.5652403707793 723.6403954388908  1096.324993890973 724.4232788310832  1093.0850970399854 725.2076071813177  L 1093.3203850478046 726.1795328746588  C 1096.5599929277066 725.3952744798041  1099.7999504060779 724.6124609139121  1103.040256519129 723.8310924098454  L 1102.805835517198 722.8589572372208  Z M 1115.4459204548396 719.8186762995009  C 1112.2044213826493 720.5963563780165  1108.963269289491 721.3754820531595  1105.7224651610213 722.1560530879941  L 1105.9566260247866 723.128250953596  C 1109.197141105112 722.3477495380905  1112.4380041083364 721.5686933559497  1115.6792140704 720.791082638918  L 1115.4459204548396 719.8186762995009  Z M 1128.087373129909 716.786698953971  C 1126.1450959260433 717.2527998653953  1124.2028947887445 717.7192177661373  1122.2607698279517 718.185952629794  C 1120.9615786974555 718.4967877578957  1119.662443125093 718.8078550767134  1118.3633631827847 719.1191545690261  L 1118.5963965876595 720.091623299738  C 1119.8955244870458 719.780312315435  1121.1947080441728 719.4692335380233  1122.493947149865 719.1583869936458  C 1124.436130138674 718.6916381280339  1126.378389238679 718.2252062793207  1128.3207244879611 717.7590914383596  L 1128.087373129909 716.786698953971  Z M 1140.7298928144658 713.7575249630107  C 1137.4879462001875 714.5330884166922  1134.2462108857242 715.3095348522795  1131.004687227048 716.086864184518  L 1131.2378796738456 717.0592947901433  C 1134.4792267723828 716.2820077976775  1137.7207854810265 715.5056036619529  1140.9625555121281 714.7300824518599  L 1140.7298928144658 713.7575249630107  Z M 1153.374554445268 710.7373045597424  C 1150.1320594269052 711.5105720273255  1146.8897750830295 712.2847226262253  1143.6477017696518 713.0597562714397  L 1143.8802055291042 714.0323517689826  C 1147.122102236944 713.2573603421946  1150.3642099760116 712.4832519107001  1153.6065283658652 711.7100265653344  L 1153.374554445268 710.7373045597424  Z M 1166.0213516812842 707.726039258738  C 1162.7783098848856 708.497010352444  1159.5354781375202 709.2688647264379  1156.2928567952783 710.0416022959637  L 1156.5246717507891 711.0143621976874  C 1159.767116473102 710.2416667178293  1163.0097715549177 709.4698543935276  1166.252636708486 708.6989252932724  L 1166.0213516812842 707.726039258738  Z M 1178.6704963227546 704.724220302759  L 1176.6600767310192 705.2002332094908  C 1174.0866345285165 705.8104006318708  1171.513324211059 706.4211241671437  1168.9401459626501 707.0324037716396  L 1169.1712719979691 708.0053275897249  C 1171.7442596064966 707.3940932732969  1174.317379269094 706.7834149746029  1176.890630806987 706.1732927360749  L 1178.9008989533897 705.697315687496  L 1178.6704963227546 704.724220302759  Z M 1191.3211642674496 701.7292818854319  L 1190.7814525804179 701.8566738884629  L 1181.5897824769656 704.0330124108541  L 1181.8201851076008 705.0061077955911  L 1191.0113466209712 702.8298895688064  L 1191.550888759392 702.7025375855446  L 1191.3211642674496 701.7292818854319  Z M 1203.9734883689148 698.7428634901828  L 1194.2409313677877 701.0401084096052  L 1194.47065585973 702.0133641097179  L 1204.203212860857 699.7161191902956  L 1203.9734883689148 698.7428634901828  Z M 1216.6279794300983 695.7641638763566  L 1206.8938693129637 698.0548188541954  L 1207.1229348107474 699.028229865909  L 1216.857044927882 696.7375748880702  L 1216.6279794300983 695.7641638763566  Z M 1229.284132503269 692.7925765147  L 1219.6503311153087 695.0529365685495  L 1219.5482124652387 695.0769673830049  L 1219.7772779630225 696.0503783947185  L 1219.8789161394393 696.0264605352866  L 1229.512557352902 693.7661380628673  L 1229.284132503269 692.7925765147  Z M 1241.941875137076 689.8278077328575  L 1234.397735780704 691.5927817385699  L 1232.2048171477709 692.1073019658002  L 1232.433241997404 693.0808635139674  L 1234.6256933491882 692.5664528188456  L 1242.169676929792 690.801515257341  L 1241.941875137076 689.8278077328575  Z M 1254.6011391010934 686.8695797789018  L 1249.3537845406727 688.0937693207762  L 1244.862997710526 689.14440235471  L 1245.0907995032421 690.1181098791934  L 1249.5811317098296 689.0675831063099  L 1254.8283347141496 687.8434289219459  L 1254.6011391010934 686.8695797789018  Z M 1267.2618600821072 683.9176297582668  L 1264.5184777437855 684.5558992166649  L 1257.522686530226 686.1879929397331  L 1257.7498821432823 687.1618420827773  L 1264.7452308834181 685.5298514930123  L 1267.4884657168684 684.8916163527816  L 1267.2618600821072 683.9176297582668  Z M 1279.9239774062162 680.971708654649  L 1279.8918157180794 680.9791713338765  L 1270.1838198656515 683.2378128539832  L 1270.4104255004127 684.211799448498  L 1280.1179905497954 681.953258068841  L 1280.1500086237338 681.9458287133212  L 1279.9239774062162 680.971708654649  Z M 1292.5875381689589 678.0333028269349  L 1282.8463375822341 680.2936150020995  L 1283.0723687997504 681.267735060772  L 1292.8135693864751 679.0074228856074  L 1292.5875381689589 678.0333028269349  Z M 1305.2526799514255 675.1004476216244  L 1295.510182899732 677.3551651644096  L 1295.7356546540107 678.329414869579  L 1305.4781517057042 676.0746973267937  L 1305.2526799514255 675.1004476216244  Z M 1317.919059103078 672.1729744786169  L 1311.2644272131433 673.7091418873896  L 1308.1754290669335 674.4240323587888  L 1308.4009008212122 675.3982820639582  L 1311.4894901624018 674.6834861224693  L 1318.1439857722214 673.1473501728478  L 1317.919059103078 672.1729744786169  Z M 1330.5866263912385 669.2506779791693  L 1327.263701310103 670.0158401633761  L 1320.842186185771 671.4981944711869  L 1321.0671128549143 672.4725701654179  L 1327.488229547311 670.9903077561021  L 1330.8110218066154 670.2251761564676  L 1330.5866263912385 669.2506779791693  Z M 1343.2551026961178 666.3335375792715  L 1333.5101209231336 668.577491733039  L 1333.7345163385105 669.5519899103373  L 1343.4794981114946 667.3080357565698  L 1343.2551026961178 666.3335375792715  Z M 1355.9253600851625 663.4229558524567  L 1346.1791871089742 665.6617305883826  L 1346.4030645825667 666.6363478860014  L 1356.149237558755 664.3975731500755  L 1355.9253600851625 663.4229558524567  Z M 739.1353807880545 821.8904897282155  C 737.5744088092991 822.4836772510743  736.016306476334 823.0843889119365  734.4611281397291 823.6926037564524  L 734.8343194313884 824.620408208798  C 736.3835265983655 824.014561795475  737.9356407847605 823.4161753600695  739.4906080571953 822.8252696955119  L 739.1353807880545 821.8904897282155  Z M 1359.8880612632038 662.5126913511906  L 1358.849211978019 662.7513234316789  L 1359.0730894516114 663.7259407292977  L 1360.1119387367962 663.4873086488094  L 1359.8880612632038 662.5126913511906  Z M 733.1507498440518 817.8905749019916  L 730 826  L 737.946178761856 829.5423499381948  L 733.1507498440518 817.8905749019916  Z " fill-rule="nonzero" fill="rgba(217, 0, 27, 1)" stroke="none" class="fill" />
  </g>
</svg>