<?xml version="1.0" encoding="utf-8"?>
<svg version="1.1" xmlns:xlink="http://www.w3.org/1999/xlink" width="378px" height="12px" viewBox="1232 702 378 12" xmlns="http://www.w3.org/2000/svg">
  <g transform="matrix(0.9702957262759984 0.2419218955996668 -0.24192189559965896 0.9702957262759934 213.49047504636485 -322.7403878505297 )">
    <path d="M 1002.9574847801381 819.1338039268036  C 999.753997714402 820.0556905261531  996.5509641461675 820.9791522869134  993.3483852477882 821.9041888710839  L 993.6258825725301 822.8649152810264  C 996.828146534525 821.9399696634445  1000.0308651158733 821.0165987160768  1003.2340371559172 820.0948027735516  L 1002.9574847801381 819.1338039268036  Z M 1015.4533789655051 815.5464335808865  C 1012.2487159142244 816.4642238674782  1009.044504346285 817.383589893972  1005.8407454344604 818.3045313238744  L 1006.1170142733529 819.265611720437  C 1009.3204581327523 818.3447608544127  1012.5243545979611 817.425485238536  1015.728702507905 816.507785205944  L 1015.4533789655051 815.5464335808865  Z M 1027.9538492809854 811.9750417818071  C 1024.7480154821324 812.8887342555269  1021.5426311517124 813.8040030450718  1018.3376974629372 814.7208478154413  L 1018.6127373644232 815.6822806277536  C 1021.8173558852475 814.7655260184032  1025.0224249976072 813.8503472365522  1028.227943539994 812.93674461386  L 1027.9538492809854 811.9750417818071  Z M 1040.458875294758 808.419634366953  C 1037.2518759882162 809.3292275343852  1034.0453241344683 810.2403975909863  1030.8392209071546 811.153144203255  L 1031.113031421686 812.1149278598701  C 1034.3188193660385 811.2022710056142  1037.5250558869109 810.2911905536374  1040.7317398223727 809.3816868341135  L 1040.458875294758 808.419634366953  Z M 1052.968436567558 804.8802171475807  C 1049.7602769951168 805.7857095220097  1046.5525628590976 806.6927793563726  1043.3452953335702 807.6014263186709  L 1043.6178760136079 808.5635592475691  C 1046.8248281416795 807.6550016401306  1050.0322268305229 806.7480210071758  1053.240070917786 805.8426176773894  L 1052.968436567558 804.8802171475807  Z M 1065.482512652707 801.3567959088084  C 1062.2731980580509 802.258186010222  1059.064326882721 803.1611541397564  1055.8559003012065 804.0656999669153  L 1056.1272507012213 805.0281805955057  C 1059.3353617712999 804.1237237199077  1062.543917385672 803.2208443884185  1065.7529163815666 802.3195429282371  L 1065.482512652707 801.3567959088084  Z M 1078.0010830961487 797.8493764096143  C 1074.7906187248516 798.7466627647043  1071.5805957550574 799.6455277135242  1068.3710153616785 800.5459709270781  L 1068.6411350381532 801.5087976822015  C 1071.8503998066324 800.6084430167642  1075.0601071022008 799.7096664624819  1078.270255761669 798.8124683450683  L 1078.0010830961487 797.8493764096143  Z M 1090.5241274364769 794.3579643828198  C 1087.3125185359909 795.2511455249863  1084.1013490184673 796.1459058239109  1080.8906200592307 797.0422449520998  L 1081.1595085706588 798.0054162600312  C 1084.3699217882197 797.1091652774385  1087.580775526422 796.2144929672661  1090.7920685986994 795.3213996601407  L 1090.5241274364769 794.3579643828198  Z M 1103.0516252049802 790.8825655350807  C 1099.8388770208005 791.7716400054928  1096.6265662118044 792.6622941899276  1093.4146939307684 793.5545277687628  L 1093.6823508376556 794.5180420552139  C 1096.893907268412 793.625896217173  1100.1059021781944 792.7353296198286  1103.3183344259596 791.8463425795493  L 1103.0516252049802 790.8825655350807  Z M 1115.5835559256614 787.4231855468803  C 1112.3696737166315 788.3081518902408  1109.156226851322 789.194698508672  1105.9432165058963 790.0828250776851  L 1106.209641370762 791.0466807678074  C 1109.4223357539915 790.1586415357123  1112.6354666083698 789.272182100432  1115.849032769466 788.3873027832182  L 1115.5835559256614 787.4231855468803  Z M 1128.119899115282 783.9798300725213  C 1124.9048881267797 784.8606868444764  1121.6903104728042 785.7431244436309  1118.4761673069436 786.6271425533106  L 1118.7413596943204 787.5913380716974  C 1121.9551867827545 786.7074068959702  1125.169448322259 785.8250560737813  1128.3841431479937 784.9442859248941  L 1128.119899115282 783.9798300725213  Z M 1140.6606342833873 780.5525047401115  C 1137.444499777961 781.429250498815  1134.2287965741684 782.3075776405701  1131.013525849001 783.1874858438953  L 1131.2774853254366 784.1520196145846  C 1134.4924398661265 783.2721979399965  1137.7078268370976 782.3939571730879  1140.9236450731034 781.5172976321319  L 1140.6606342833873 780.5525047401115  Z M 1153.205740932345 777.1412151515628  C 1149.988488162882 778.0138484650381  1146.7716646729557 778.8880637116757  1143.5552716399577 779.7638605715046  L 1143.817997774014 780.728731017981  C 1147.034074512168 779.8530202825867  1150.250581659105 778.9788910064307  1153.4675180491788 778.106343506292  L 1153.205740932345 777.1412151515628  Z M 1165.7551985573832 773.7459668825701  C 1162.5368327824326 774.6144863245116  1159.3188942642148 775.4845882471432  1156.1013841805302 776.3562723319994  L 1156.3628765427861 777.3214778771978  C 1159.5800702256136 776.4498795112934  1162.797692283517 775.5798631567128  1166.0157415734643 774.711429122521  L 1165.7551985573832 773.7459668825701  Z M 1178.3089866466114 770.3667654826115  C 1175.0895131227037 771.2311696344683  1171.8704648435348 772.0971568088644  1168.6518429642965 772.9647266950283  L 1168.9121011273464 773.9302657613357  C 1172.1304064925607 773.0627811905789  1175.349138209952 772.1968791775148  1178.5682951360861 771.3325600297519  L 1178.3089866466114 770.3667654826115  Z M 1190.867084681065 767.0036164749417  C 1187.6465086780527 767.8639039217986  1184.4263558840696 768.7257749366412  1181.206627477736 769.5892292040156  L 1181.4656510161924 770.5551002132739  C 1184.6850628035252 769.6917308555543  1187.9048989194368 768.8299445993141  1191.125158220098 767.9697417506959  L 1190.867084681065 767.0036164749417  Z M 1203.4294721347314 763.6565253565698  C 1200.2077989089169 764.5126946943514  1196.986546878762 765.3704481368211  1193.7657172002523 766.2297853761622  L 1194.0235056907454 767.1959867496705  C 1197.2440186342803 766.3367340171758  1200.46495389362 765.4790649242865  1203.6863103015057 764.6229797818212  L 1203.4294721347314 763.6565253565698  Z M 1215.9961284745918 760.325497598266  C 1212.773363295587 761.1775474265519  1209.5510172866686 762.0311818967173  1206.3290916042147 762.886400702423  L 1206.5856446253933 763.8529308609405  C 1209.8072534650914 762.9977961570763  1213.0292825956158 762.1442456314406  1216.2517308493093 761.2922795933604  L 1215.9961284745918 760.325497598266  Z M 1228.567033160643 757.0105386445424  C 1225.343181296005 757.8584675706711  1222.119746575201 758.7079816732781  1218.896730154988 759.5590806475071  L 1219.1520472875202 760.525938011256  C 1222.3747467577145 759.6749227337261  1225.5978644930633 758.825492170461  1228.8213993255254 757.9776466292902  L 1228.567033160643 757.0105386445424  Z M 1241.1421656459481 753.711653913642  C 1237.9172323688567 754.555460550681  1234.6927141971264 755.4008528992308  1231.4686123109677 756.2478306498656  L 1231.7226931375417 757.215013638533  C 1234.9464779707803 756.3681191783086  1238.170679042825 755.5228099657913  1241.3952951852386 754.6790863073205  L 1241.1421656459481 753.711653913642  Z M 1253.7133455308842 750.4026547320957  C 1250.4895213987452 751.2503943715714  1247.2659236458398 752.0989948099065  1244.0425526891702 752.9484559373279  L 1244.2973842224894 753.9154414023822  C 1247.520583058007 753.0660256343778  1250.7440086448219 752.2174705181429  1253.9676606316104 751.3697761461606  L 1253.7133455308842 750.4026547320957  Z M 1266.287406243056 747.1008346894064  C 1263.062994341934 747.9463360372223  1259.8388082685105 748.7926983287517  1256.6148483476338 749.639921478717  L 1256.8690085044325 750.607083623704  C 1260.0927962573376 749.7599057176918  1263.3168101639922 748.9135886206574  1266.5410498730057 748.0681324248458  L 1266.287406243056 747.1008346894064  Z M 1278.863756164006 743.8077447948685  C 1275.638758063317 744.6510074394828  1272.4139851925681 745.4951311843814  1269.1894378766804 746.3401159445107  L 1269.4429265344631 747.3074543032949  C 1272.6673016510106 746.4625146675828  1275.8919023236565 745.618435997644  1279.1167282009321 744.7752183854814  L 1278.863756164006 743.8077447948685  Z M 1291.4423892324037 740.5233866356291  C 1288.216806501852 741.3644101666117  1284.9914483572534 742.2062949660651  1281.7663152158395 743.04904092509  L 1282.019132252434 744.016555031451  C 1285.2440931785998 743.1738540732673  1288.469279063087 742.3320142372451  1291.6946895543836 741.4910356151297  L 1291.4423892324037 740.5233866356291  Z M 1304.0232993858322 737.2477617946148  C 1300.7971335492696 738.0865458146437  1297.571191746827 738.9261912468497  1294.345474303526 739.7666980066346  L 1294.5976195970845 740.734387394267  C 1297.8231647785572 739.8939255197622  1301.0489343204779 739.0543249233808  1304.2749278712668 738.2155856966332  L 1304.0232993858322 737.2477617946148  Z M 1316.6064805607587 733.9808718505653  C 1313.3797331884543 734.8174159513684  1310.1532092521948 735.6548216196727  1306.9269090770579 736.4930887711068  L 1307.1783825060554 737.460952973621  C 1310.404510388244 736.6227305878662  1313.6308620328978 735.7853696357859  1316.8574370883723 734.9488702086467  L 1316.6064805607587 733.9808718505653  Z M 1329.1923791179572 730.7243897582509  L 1322.0717061233522 732.5648746338809  C 1321.2179929701224 732.7859277125433  1320.3642953873161 733.0070411084413  1319.5106134726661 733.2282147962605  L 1319.7614149159022 734.1962533471824  C 1320.6149815825436 733.9751095180571  1321.4685639031784 733.7540259705838  1322.3221618016344 733.5330027244914  L 1329.4426257657076 731.6925718771158  L 1329.1923791179572 730.7243897582509  Z M 1341.7787466632008 727.4711833374965  L 1332.0969254745519 729.9736498149999  L 1332.3471721223023 730.9418319338648  L 1342.0289933109511 728.4393654563614  L 1341.7787466632008 727.4711833374965  Z M 1354.3684925789616 724.229083515256  L 1344.684187444037 726.7219200629813  L 1344.9334710988096 727.6903505764737  L 1354.6177762337343 725.1975140287484  L 1354.3684925789616 724.229083515256  Z M 1366.9591731139044 720.990684575495  L 1364.4519468894518 721.6335019962621  L 1357.273784119439 723.4812325509384  L 1357.5230677742115 724.4496630644309  L 1364.7005327325878 722.6021118951752  L 1367.207526314929 721.9593541205624  L 1366.9591731139044 720.990684575495  Z M 1379.5518771997788 717.762092962175  L 1369.8651817491061 720.2456249724212  L 1370.1135349501308 721.2142945174885  L 1379.8002304008035 718.7307625072423  L 1379.5518771997788 717.762092962175  Z M 1392.1464424490678 714.5389018698477  L 1386.2052787985938 716.0562546882429  L 1382.4578858349805 717.0170333591011  L 1382.7062390360052 717.9857029041684  L 1386.4529573760544 717.0250969747638  L 1392.3938961162708 715.5078015976769  L 1392.1464424490678 714.5389018698477  Z M 1404.7421389108486 711.3220041962061  L 1395.0531416325557 713.7965408682381  L 1395.3005952997587 714.7654405960674  L 1404.9895925780515 712.2909039240353  L 1404.7421389108486 711.3220041962061  Z M 1417.3403317377545 708.1130817400474  L 1408.3340378432897 710.4046455289196  L 1407.6488380943363 710.5796431945965  L 1407.8962917615397 711.5485429224258  L 1408.5808389395788 711.3737117130709  L 1417.5869152772896 709.0822032793965  L 1417.3403317377545 708.1130817400474  Z M 1429.9389117492933 704.9074957260939  L 1420.247696355802 707.3733311214427  L 1420.494279895337 708.3424526607918  L 1430.1854952888284 705.876617265443  L 1429.9389117492933 704.9074957260939  Z M 1442.540494895495 701.7119692729083  L 1432.847140658327 704.1693832862112  L 1433.092882059657 705.138718709928  L 1442.786236296825 702.681304696625  L 1442.540494895495 701.7119692729083  Z M 1455.142566356833 698.5184260276901  L 1453.7178402221184 698.8783407512301  L 1445.4485011666454 700.9747450689174  L 1445.6942425679756 701.9440804926342  L 1453.962970038139 699.8478310387121  L 1455.3874922821678 699.4879678220955  L 1455.142566356833 698.5184260276901  Z M 1467.7466096841029 695.3343889983352  L 1458.051191740049 697.7836482516851  L 1458.296117665384 698.7531900460905  L 1467.9915356094377 696.3039307927405  L 1467.7466096841029 695.3343889983352  Z M 1480.3517422181653 692.1530049785514  L 1476.9728848854456 693.0036447187963  L 1470.655235067319 694.5996112223302  L 1470.9001609926538 695.5691530167355  L 1477.2172182871693 693.9733360254992  L 1480.595878084957 693.1227460153988  L 1480.3517422181653 692.1530049785514  Z M 1492.9583756971817 688.9792387102605  L 1483.2609653287075 691.4205973781766  L 1483.505101195499 692.390338415024  L 1493.2025115639733 689.9489797471078  L 1492.9583756971817 688.9792387102605  Z M 1505.5663769057874 685.80929459745  L 1500.6033593490758 687.0545860044922  L 1495.867598807724 688.2468311098856  L 1496.1117346745157 689.216572146733  L 1500.8469208776248 688.0244714723596  L 1505.8097469629242 686.7792281082069  L 1505.5663769057874 685.80929459745  Z M 1518.1755125456273 682.6454838546719  L 1508.4761774380581 685.0791844260398  L 1508.719547495195 686.0491179367966  L 1518.4188826027641 683.6154173654287  L 1518.1755125456273 682.6454838546719  Z M 1530.7862040415064 679.4863086024736  L 1524.6092641796688 681.031164434407  L 1521.085313077898 681.9153736832615  L 1521.328683135035 682.8853071940183  L 1524.852077260454 682.0012375473392  L 1531.0288314397733 680.4564281546991  L 1530.7862040415064 679.4863086024736  Z M 1543.3977582204384 676.3321524250053  L 1533.696562698183 678.7584264076733  L 1533.93919009645 679.7285459598987  L 1543.6403856187053 677.3022719772308  L 1543.3977582204384 676.3321524250053  Z M 1556.0109744299955 673.1831194573168  L 1548.9905999099908 674.9333798459545  L 1546.308116877115 675.604270230205  L 1546.550744275382 676.5743897824304  L 1549.232686919222 675.9036344076204  L 1556.2528812873081 674.1534189329351  L 1556.0109744299955 673.1831194573168  Z M 1568.6248676130338 670.0383303122549  L 1558.9218728568505 672.4573988853795  L 1559.1637797141632 673.4276983609977  L 1568.8667744703464 671.0086297878731  L 1568.6248676130338 670.0383303122549  Z M 1581.2404546969676 666.8988540676244  L 1573.747367041254 668.7612320870127  L 1571.5357660398888 669.3126097403175  L 1571.7776728972015 670.2829092159358  L 1573.9887493677284 669.731662200381  L 1581.4816621588395 667.8693276429149  L 1581.2404546969676 666.8988540676244  Z M 1593.8566111757452 663.7631570632896  L 1584.1518754228393 666.1752316820086  L 1584.3930828847112 667.1457052572991  L 1594.0978186376171 664.73363063858  L 1593.8566111757452 663.7631570632896  Z M 990.4661871492195 822.7371469560668  C 988.8649555226931 823.2001604169612  987.2638377619186 823.6635675683424  985.6628340127072 824.1273683680065  L 985.9415594033921 825.0877393371502  C 987.5422483065524 824.6240298303245  989.1430511931226 824.160713854075  990.7439679063576 823.6977914537682  L 990.4661871492195 822.7371469560668  Z M 1598.879396269064 662.5147632123548  L 1596.768031901617 663.0395346776738  L 1597.0092393634889 664.0100082529643  L 1599.120603730936 663.4852367876452  L 1598.879396269064 662.5147632123548  Z M 984.9836128623416 818.2656074212007  L 981 826  L 988.5309888690077 830.3559392391173  L 984.9836128623416 818.2656074212007  Z " fill-rule="nonzero" fill="rgba(217, 0, 27, 1)" stroke="none" class="fill" />
  </g>
</svg>