<?xml version="1.0" encoding="utf-8"?>
<svg version="1.1" xmlns:xlink="http://www.w3.org/1999/xlink" width="396px" height="8px" viewBox="1470 700 396 8" xmlns="http://www.w3.org/2000/svg">
  <g transform="matrix(0.9702957262759933 0.2419218955996607 -0.24192189559968136 0.9702957262759688 219.85974307381912 -382.6139131585162 )">
    <path d="M 1243.91729926308 815.0048985011053  C 1240.7181399683782 815.9422380864689  1237.519872583974 816.8826190953382  1234.3225014435636 817.8260402534846  L 1234.6055008631668 818.785160333821  C 1237.802264074281 817.8419185522108  1240.9999233590167 816.9017163418318  1244.1984743844334 815.9645549766901  L 1243.91729926308 815.0048985011053  Z M 1256.398525173257 811.3646992002816  C 1253.1970585723038 812.2941276774363  1249.9964763605965 813.226599773586  1246.7967828749709 814.1621142252164  L 1247.0774105082985 815.1219309428312  C 1250.2764956230715 814.1865943644025  1253.4764692949818 813.2542995629896  1256.6773271879524 812.3250478018851  L 1256.398525173257 811.3646992002816  Z M 1268.8887114336233 807.7553643097561  C 1265.6849570904906 808.6768759989935  1262.4820796072866 809.6014334849398  1259.2800833296817 810.5290355131544  L 1259.5583374619098 811.4895430029212  C 1262.7597249317764 810.5621173432104  1265.961993436866 809.6377356477143  1269.1651386379929 808.7163991690014  L 1268.8887114336233 807.7553643097561  Z M 1281.3877817207267 804.1769158849959  C 1278.1817592106026 805.0905051558077  1274.9766060314569 806.007142380782  1271.7723265263194 806.9268263178603  L 1272.048205457128 807.8880187104312  C 1275.2518757194541 806.9685096366338  1278.456419489706 806.0520466956472  1281.6618324256137 805.1386311293124  L 1281.3877817207267 804.1769158849959  Z M 1293.8956596568262 800.6293757927324  C 1290.687388571622 801.5350370621984  1287.4799792802737 802.4437484254785  1284.2734361288633 803.3555086512558  L 1284.5469381724463 804.3173800730976  C 1287.7528716496934 803.4057932043052  1290.9596711050956 802.4972546174947  1294.1673321875967 801.5917655453923  L 1293.8956596568262 800.6293757927324  Z M 1306.4122688103644 797.1127657108236  C 1303.2017687547786 798.0104934447431  1299.9921229506551 798.9112733934919  1296.783335747111 799.815104336499  L 1297.0544592321864 800.7776489099294  C 1300.2626363348954 799.8739898162779  1303.471671877837 798.9733811359712  1306.6815615069158 798.0758240909772  L 1306.4122688103644 797.1127657108236  Z M 1318.9375326964264 793.6271071281276  C 1315.7248232887766 794.5168958407795  1312.512960584978 795.4097388706233  1309.3019489371513 796.3056350078442  L 1309.5706922069721 797.2688468510677  C 1312.7810933310204 796.3731210545228  1315.99234535213 795.4804477840469  1319.2044439131992 794.5908282508394  L 1318.9375326964264 793.6271071281276  Z M 1331.4713747772125 790.1724213443657  C 1328.2564756502752 791.0542655982789  1325.042415671531 791.9391662538729  1321.8291992018235 792.8271221105142  L 1322.095560614187 793.7909953376575  C 1325.3081661428184 792.9032083114425  1328.5216150172678 792.0184759061597  1331.7359028831993 791.1367993206505  L 1331.4713747772125 790.1724213443657  Z M 1344.011061437249 786.7414610928867  C 1341.2162080388614 787.5045644959046  1338.4216708072029 788.268825385071  1335.6274504625526 789.0342435634011  C 1335.2066226473844 789.14930564941  1334.7858091599066 789.2644200943182  1334.3650099911881 789.3795869005678  L 1334.6289879184471 790.3441156217161  C 1335.0497834399464 790.2289498136591  1335.4705932911297 790.1138363736819  1335.8914174640274 789.9987753039659  C 1338.685447860587 789.2334090899377  1341.4797951233381 788.4692001202093  1344.274458547932 787.706148587407  L 1344.011061437249 786.7414610928867  Z M 1356.5547146385854 783.3249058019936  C 1353.3378509485538 784.1989530231001  1350.121403964413 785.0745331449474  1346.9053747658274 785.9516458736272  L 1347.168496040549 786.9164086396939  C 1350.384218739118 786.0393795032483  1353.6003591943909 785.1638828245868  1356.8169163048758 784.2899189035599  L 1356.5547146385854 783.3249058019936  Z M 1369.1025913042236 779.9238946471895  C 1365.8846471476968 780.7939555208915  1362.667117785976 781.665549813568  1359.4500043221074 782.5386772264168  L 1359.7119300593872 783.5037652577126  C 1362.9287369237393 782.6307210562412  1366.145959645771 781.759209828977  1369.363597123614 780.889231874403  L 1369.1025913042236 779.9238946471895  Z M 1381.6546721718234 776.5384328493917  C 1378.435652484855 777.4045060410947  1375.217045692481 778.272113164524  1371.998852898109 779.1412539222433  L 1372.2595826958627 780.1066657372544  C 1375.4774687916913 779.2376078099375  1378.6957688340206 778.3700833740006  1381.9144817436415 777.5040927203565  L 1381.6546721718234 776.5384328493917  Z M 1394.2109379725994 773.1685256056463  C 1390.990847692893 774.0306097868622  1387.7711684184403 774.8942284071156  1384.55190123 775.7593811765123  L 1384.8114346879802 776.7251152932281  C 1388.0303950716489 775.8600449752039  1391.249767501518 774.9965086602589  1394.4695508980099 774.1345066379707  L 1394.2109379725994 773.1685256056463  Z M 1406.7713694313338 769.8141780891218  C 1403.550213509749 770.6722719344041  1400.3294666804245 771.5319007298522  1397.1091300475102 772.3930641807615  L 1397.3674667673047 773.3591191166765  C 1400.5874964973648 772.4980377359204  1403.807936372687 771.6384908675882  1407.0287853133382 770.7804787999213  L 1406.7713694313338 769.8141780891218  Z M 1419.3359472664156 766.475395449104  C 1416.1137306400924 767.3294976432323  1412.891921215447 768.1851352901508  1409.6705200739427 769.0423081026477  L 1409.9276596589768 770.008682374764  C 1413.1487537923379 769.1515912531283  1416.3702561693908 768.2960351509089  1419.592165709853 767.4420143550036  L 1419.3359472664156 766.475395449104  Z M 1431.904652189875 763.15218281098  C 1428.6813798091027 764.0022920417927  1425.4585127272735 764.8539372287396  1422.236052026216 765.707118085945  L 1422.491994081753 766.6738102107745  C 1425.7141476698475 765.8207106650033  1428.9367076109695 764.9691466402323  1432.1596728014224 764.1191184281159  L 1431.904652189875 763.15218281098  Z M 1444.477464907397 759.8445452762377  C 1441.253141724086 760.6906602377179  1438.0292219248424 761.5383116593432  1434.8057066148947 762.3874992505213  L 1435.060450748036 763.354507744088  C 1438.2836588521964 762.5054010817462  1441.5072713950385 761.6578304457302  1444.7312872955708 760.81179612026  L 1444.477464907397 759.8445452762377  Z M 1457.0543661183708 756.5524879224569  C 1453.8289970783628 757.3946073167401  1450.6040295184414 758.2382636697815  1447.3794645442063 759.0834566923546  L 1447.6330103638925 760.0507800701965  C 1450.8572680284624 759.2056675967788  1454.0819282398127 758.3620916465848  1457.3069898935257 757.5200525085319  L 1457.0543661183708 756.5524879224569  Z M 1469.6353365158989 753.2760158032966  C 1466.4089265666337 754.1141383386387  1463.182916204405 754.9537983259889  1459.9573065120887 755.7949954834983  L 1460.2096536290999 756.7626322606704  C 1463.4349559121872 755.9215152714995  1466.6606588264613 755.081935306132  1469.8867612902309 754.2438926461086  L 1469.6353365158989 753.2760158032966  Z M 1482.2200206990717 750.0144725962974  C 1481.331315053025 750.2444589738693  1480.4426267287035 750.4745118350695  1479.5539555175824 750.7046312338789  C 1477.2154989604994 751.3096536326145  1474.8772513819072 751.9154834823529  1472.539213210201 752.5221206720977  L 1472.790361237157 753.4900693631738  C 1475.1282099266125 752.8834813372885  1477.466268005088 752.2777005984966  1479.804535051971 751.67272725578  C 1480.6931912708892 751.4426117338418  1481.5818647046797 751.2125627246602  1482.470555359235 750.9825802267068  L 1482.2200206990717 750.0144725962974  Z M 1494.806911582611 746.7618802878711  C 1491.5792091265498 747.594738050062  1488.3517330794182 748.4284729805054  1485.1244837876807 749.2630849896964  L 1485.3748605843225 750.2312334595622  C 1488.6019344610668 749.3966668151529  1491.829235103022 748.5629771960986  1495.0567621194587 747.7301647033386  L 1494.806911582611 746.7618802878711  Z M 1507.3960975919933 743.5181826354907  C 1504.1678074479057 744.3487595088119  1500.9397430928893 745.1802137101404  1497.711904873469 746.0125451502278  L 1497.9615975179772 746.9808702935956  C 1501.1892603057856 746.1485840903622  1504.4171491928662 745.3171750844006  1507.6452638807798 744.4866433525734  L 1507.3960975919933 743.5181826354907  Z M 1519.987572441721 740.28338125865  C 1516.7586962214216 741.1116768284127  1513.5300451702183 741.9408498855114  1510.3016196347037 742.7709003409302  L 1510.5506280024126 743.7394016743372  C 1513.7788780590004 742.9093963357598  1517.007353641168 742.080268342124  1520.236054358044 741.2520177938172  L 1519.987572441721 740.28338125865  Z M 1532.5813298451521 737.0574777724229  C 1529.351869160745 737.8834916250779  1526.1226330253512 738.7103831239468  1522.8936217856217 739.5381521802719  L 1523.141945752207 740.5068292201668  C 1526.370781496571 739.6791051527322  1529.5998421003349 738.8522586012148  1532.8291272649494 738.0262896420558  L 1532.5813298451521 737.0574777724229  Z M 1545.1773635145028 733.8404737874224  C 1541.9473199783863 734.6642055105593  1538.717500371087 735.4888150383597  1535.4879050393165 736.3143022823042  L 1535.7355444807954 737.2831545450481  C 1538.9649642854556 736.4577121659785  1542.1946083294088 735.6331474614888  1545.424476314055 734.8094605078151  L 1545.1773635145028 733.8404737874224  Z M 1557.7756671608574 730.6323709098345  C 1554.545042385721 731.4538200921824  1551.31464091909 732.2761472372015  1548.0844631077437 733.099352256618  L 1548.3314179004753 734.0683792584848  C 1551.5614201376509 733.2452189838307  1554.7916460401152 732.4229365302164  1558.0220952167867 731.6015319971935  L 1557.7756671608574 730.6323709098345  Z M 1570.3762344941654 727.4331707413885  C 1567.1450300929866 728.2523369728161  1563.9140483798944 729.0723813244853  1560.6832897017275 729.893303708366  L 1560.9295597224127 730.8625049655421  C 1564.1601427948365 730.0416272023526  1567.3909489122273 729.2216274180242  1570.6219776834357 728.4025057118333  L 1570.3762344941654 727.4331707413885  Z M 1582.979059223239 724.242874879375  C 1579.7472768092862 725.0597577508912  1576.5157164628893 725.8775188997782  1573.284378530947 726.6961582382552  L 1573.5299636566288 727.66553326684  C 1576.7611259513417 726.8469384249612  1579.9925106705923 726.029221719328  1583.2241174231563 725.2123832489383  L 1582.979059223239 724.242874879375  Z M 1595.5841350557725 721.0614849166353  C 1592.3517762426043 721.8760840203882  1589.119638876345 722.6915615582096  1585.887723303964 723.5079174425539  L 1586.1326234120277 724.4774657585601  C 1589.364363331195 723.6611542428052  1592.5963250081202 722.8457210319071  1595.828508143985 722.0311662012633  L 1595.5841350557725 721.0614849166353  Z M 1608.1914556983334 717.8890024415725  C 1604.958522099792 718.7013173708515  1601.7258093274097 719.5145108904501  1598.4933177282112 720.3285829130739  L 1598.7375326963827 721.2983040324277  C 1601.9698485956458 720.4842762581484  1605.2023856782487 719.671126933565  1608.4351435528301 718.8588561571248  L 1608.1914556983334 717.8890024415725  Z M 1620.801014856367 714.7254290381327  C 1617.5675080865844 715.5354593873669  1614.3342215220987 716.3463684827332  1611.1011555099942 717.1581562371885  L 1611.3446852163431 718.1280496757299  C 1614.5775755127072 717.3163060415882  1617.8106863253938 716.505441024818  1621.044017355481 715.6954547003832  L 1620.801014856367 714.7254290381327  Z M 1633.4128062342031 711.5707662858165  C 1630.1787279075977 712.3785116505758  1626.944869165316 713.1871359168462  1623.7112303545032 713.9966389978254  L 1623.9540746774405 714.9667042713081  C 1627.187537725962 714.1572451903315  1630.4212207161836 713.348664870749  1633.6551232566082 712.5409634104528  L 1633.4128062342031 711.5707662858165  Z M 1646.0268235350559 708.4250157596749  C 1642.7921752663306 709.2304757366701  1639.5577459608455 710.0368147701155  1636.3235359658083 710.8440327734518  L 1636.565694784087 711.814269397544  C 1639.7997290012086 711.0070952661573  1643.0339824927794 710.200800062893  1646.2684549597689 709.3953838622996  L 1646.0268235350559 708.4250157596749  Z M 1658.6429728955354 705.2881405793223  L 1653.6388563462078 706.5312661552413  C 1652.0718749580171 706.9207508759438  1650.504944837078 707.310441875494  1648.9380660468673 707.7003391380965  L 1649.179539239583 708.6707466283808  C 1650.7463120335922 708.2808757415446  1652.3131361931103 707.8912110913878  1653.8800115767965 707.5017527130622  L 1658.8840655958538 706.2586426709497  L 1658.6429728955354 705.2881405793223  Z M 1671.2595000866922 702.1539354751845  L 1661.5544791704178 704.5648624783674  L 1661.7955718707362 705.5353645699948  L 1671.5005927870106 703.1244375668119  L 1671.2595000866922 702.1539354751845  Z M 1683.8780808031127 699.0259440302361  L 1677.5198044496935 700.5987469838755  L 1674.1710063615744 701.4306573742297  L 1674.4120990618928 702.4011594658571  L 1677.7601719312936 701.5694289790847  L 1684.1182065053224 699.996685832745  L 1683.8780808031127 699.0259440302361  Z M 1696.4977242357293 695.9043099015117  L 1686.7903062106395 698.3055669236074  L 1687.0304319128493 699.2763087261163  L 1696.737849937939 696.8750517040206  L 1696.4977242357293 695.9043099015117  Z M 1709.1195484018324 692.7895093155893  L 1701.872209955006 694.5748604495348  L 1699.4099496432561 695.1839327948829  L 1699.650075345466 696.1546745973918  L 1702.11163746679 695.5457747217902  L 1709.3587431467329 693.7604809289807  L 1709.1195484018324 692.7895093155893  Z M 1721.7421793759206 689.679977631881  L 1712.0324632420065 692.0719250808874  L 1712.271657986907 693.0428966942787  L 1721.981374120821 690.6509492452724  L 1721.7421793759206 689.679977631881  Z M 1734.3670004561816 686.5774197612382  L 1726.695853829885 688.4596609089253  L 1724.6550942160948 688.9623933971791  L 1724.8942889609953 689.9333650105705  L 1726.9343759311437 689.430798005594  L 1734.6052983090347 687.5486118809167  L 1734.3670004561816 686.5774197612382  Z M 1746.9924980120018 683.4795476741468  L 1737.280576815217 685.8625262026786  L 1737.51887466807 686.8337183223572  L 1747.2307958648548 684.4507397938254  L 1746.9924980120018 683.4795476741468  Z M 1759.6200909292122 680.3883605181314  L 1751.9907370264432 682.253148076112  L 1749.9060743710372 682.7646541155873  L 1750.1443722238903 683.7358462352659  L 1752.2283864073934 683.22449910497  L 1759.8575241213578 681.3597643884488  L 1759.6200909292122 680.3883605181314  Z M 1772.2483412433385 677.3017290202403  L 1762.5343025401644 679.676060941695  L 1762.77173573231 680.6474648120123  L 1772.485774435484 678.2731328905576  L 1772.2483412433385 677.3017290202403  Z M 1784.8785001990152 674.2211095874939  L 1777.7568604297505 675.955321687112  L 1775.1625528542907 676.5894294438037  L 1775.3999860464362 677.560833314121  L 1777.9936680431615 676.9268782733719  L 1785.1150992570363 675.1927169597093  L 1784.8785001990152 674.2211095874939  Z M 1797.5093960378165 671.1453218332184  L 1787.7933223156617 673.5113124134303  L 1788.0299213736828 674.4829197856458  L 1797.7459950958375 672.1169292054338  L 1797.5093960378165 671.1453218332184  Z M 1810.1419325866548 668.0745297776691  L 1803.9942248625375 669.5661814981064  L 1800.424218154463 670.4355246591548  L 1800.660817212484 671.4071320313702  L 1804.2302200450713 670.5379357451957  L 1810.3777264503822 669.046332871834  L 1810.1419325866548 668.0745297776691  Z M 1822.7753728107982 665.0092095492112  L 1813.0573418691495 667.3671481864865  L 1813.2931357328769 668.3389512806514  L 1823.0111666745256 665.9810126433761  L 1822.7753728107982 665.0092095492112  Z M 1835.410114155799 661.947561481835  L 1830.7028310910607 663.0857272834459  L 1825.690782093293 664.3018279580285  L 1825.9265759570203 665.2736310521934  L 1830.9380416737356 664.0576717375274  L 1835.6451302862888 662.9195529521728  L 1835.410114155799 661.947561481835  Z M 1848.0460032701908 658.8923517854646  L 1838.3260885668124 661.2425130903649  L 1838.5611046973022 662.2145045607027  L 1848.2810194006806 659.8643432558024  L 1848.0460032701908 658.8923517854646  Z M 1231.4451099717892 818.6759399681576  C 1229.8465418860992 819.1486073550507  1228.2481986083621 819.6220347156685  1226.650080681638 820.0962218891582  L 1226.9354502869055 821.0546399046061  C 1228.532960644996 820.5806333206966  1230.1306962214342 820.1073861175721  1231.7286564816307 819.6348984535763  L 1231.4451099717892 818.6759399681576  Z M 1857.882491934755 656.5140042648311  L 1850.9619776812042 658.1873033939945  L 1851.196993811694 659.1592948643323  L 1858.117508065245 657.4859957351689  L 1857.882491934755 656.5140042648311  Z M 1225.9397282354082 814.2431616343301  L 1222 822  L 1229.5555474072664 826.3132010591382  L 1225.9397282354082 814.2431616343301  Z " fill-rule="nonzero" fill="rgba(217, 0, 27, 1)" stroke="none" class="fill" />
  </g>
</svg>