<?xml version="1.0" encoding="utf-8"?>
<svg version="1.1" xmlns:xlink="http://www.w3.org/1999/xlink" width="324px" height="16px" viewBox="864 708 324 16" xmlns="http://www.w3.org/2000/svg">
  <g transform="matrix(-0.9510565162951543 0.30901699437494795 -0.30901699437494323 -0.9510565162951546 2223.0401536912877 1079.905029438634 )">
    <path d="M 1485.0944854758686 819.8347720465277  C 1488.40429283131 820.2356230699695  1491.714888393848 820.6299388870656  1495.026252804381 821.0177171920071  L 1495.142563293983 820.0245042893481  C 1491.8325062027486 819.6368790784182  1488.5232176564496 819.242718936386  1485.214717005585 818.8420261680361  L 1485.0944854758686 819.8347720465277  Z M 1472.1903102232618 818.2383290071605  C 1475.4980162560164 818.6561651899685  1478.8065440323257 819.0674702985978  1482.115874206659 819.4722419280763  L 1482.2372816856187 818.4796391756861  C 1478.9292580277186 818.0750273491761  1475.6220364507976 817.6638846228865  1472.3156362932687 817.2462134009045  L 1472.1903102232618 818.2383290071605  Z M 1459.2945001141686 816.5756651932321  C 1462.600017660697 817.0104755247315  1465.9063904663235 817.4387590864114  1469.213599198119 817.8605133740244  L 1469.3401004671564 816.8685469285577  C 1466.0341974140067 816.4469591485987  1462.7291299574836 816.0188446723778  1459.424917421925 815.5842060030294  L 1459.2945001141686 816.5756651932321  Z M 1446.4073949736107 814.8468244185686  C 1449.71063692829 815.2985974408184  1453.014767635074 815.7438481695989  1456.3197677741432 816.182574001453  L 1456.4513594997497 815.1912700027968  C 1453.1476641673787 814.7527173789247  1449.8448379245228 814.3076424342051  1446.5429000824147 813.856047770939  L 1446.4073949736107 814.8468244185686  Z M 1433.5293343972198 813.0518522408621  C 1436.8302137143924 813.5205760489275  1440.1320152532562 813.9827822117469  1443.434719707611 814.4384680267215  L 1443.5713984221368 813.4478525973061  C 1440.269997868395 812.992346686111  1436.9694998734165 812.530323001254  1433.6699237362968 812.0617842443397  L 1433.5293343972198 813.0518522408621  Z M 1420.6606577422892 811.1907959604727  C 1423.9590874385572 811.676458202739  1427.2584728018007 812.1556076197325  1430.5587945399477 812.6282414097846  L 1430.7005566416917 811.6383406538957  C 1427.4015378634667 811.1658934586471  1424.103455090207 810.686933208775  1420.8063276068872 810.2014627049172  L 1420.6606577422892 811.1907959604727  Z M 1407.8017041188302 809.2637046191809  C 1411.0975972753465 809.7662924976788  1414.3944795189407 810.2623725425007  1417.6923315721747 810.7519418529813  L 1417.8391733254812 809.7627818560719  C 1414.5426232571428 809.2734058265019  1411.2470426153068 808.7775216329753  1407.952450670318 808.2751321750906  L 1407.8017041188302 809.2637046191809  Z M 1394.9528123806392 807.2706289988952  C 1398.2460821453992 807.7901292696381  1401.540374391274 808.3031268697937  1404.83566985597 808.8096187997761  L 1404.987587391326 807.8212256277785  C 1401.6935929021902 807.3149336597204  1398.4006012355478 806.8021385898735  1395.108631646606 806.2828434167199  L 1394.9528123806392 807.2706289988952  Z M 1382.114321116363 805.211621620316  C 1385.4048807064926 805.748020593649  1388.6964961448286 806.2779222308385  1391.9891481847324 806.8013234334583  L 1392.1461374988705 805.8137231320982  C 1388.8547853906632 805.2905285671081  1385.5644694752525 804.7608361339824  1382.2752089907249 804.2246489297702  L 1382.114321116363 805.211621620316  Z M 1369.2865686405817 803.0867367415487  C 1372.5743313446233 803.6400202825092  1375.863183236142 804.186811992985  1379.1531050846565 804.7271086757913  L 1379.3151620406593 803.7403272699008  C 1376.0265390462127 803.2002438950625  1372.7389855860868 802.6536680567348  1369.4525208836876 802.100602950926  L 1369.2865686405817 803.0867367415487  Z M 1356.4698929848894 800.8960303566748  C 1359.7547721650888 801.4661838853651  1363.040773843333 802.0298512602999  1366.3278788058071 802.5870291856195  L 1366.4949991332176 801.6010926784516  C 1363.209191912466 801.0441347257367  1359.9244875408463 800.4806898855087  1356.6409052236356 799.9107614521624  L 1356.4698929848894 800.8960303566748  Z M 1343.6646318889905 798.6395601942779  C 1346.9465409835782 799.2265686862496  1350.2296058571997 799.8070968721152  1353.5138073132111 800.3811413574272  L 1353.6859866081436 799.3960757299706  C 1350.4030817478015 798.8222578761864  1347.1213130208707 798.241958881554  1343.840699616933 797.655182139272  L 1343.6646318889905 798.6395601942779  Z M 1330.8711227917954 796.3173857159203  C 1334.1499753172689 796.9212337025698  1337.4300168723084 797.5186074015296  1340.7112282779472 798.1095033198526  L 1340.8884620032045 797.1253345301466  C 1337.6085460125253 796.5346718962169  1334.329799411066 795.9375340391504  1331.0522413692713 795.3339244503419  L 1330.8711227917954 796.3173857159203  Z M 1318.0897028225331 793.9295681145779  C 1321.365412376179 794.5502396836007  1324.6423441778581 795.1644431538193  1327.9204790682509 795.7721749341551  L 1328.1027625534437 794.7889289166062  C 1324.825921863653 794.1814370674697  1321.5502837873426 793.5674760834115  1318.275867476781 792.9470495541889  L 1318.0897028225331 793.9295681145779  Z M 1305.3207087918636 791.4761703130258  C 1308.593189053059 792.1136491086504  1311.8669247500102 792.7446661650772  1315.141896740622 793.3692177926405  L 1315.3292251822918 792.3869204573384  C 1312.055546143332 791.7626154013675  1308.783102910422 791.1318474691616  1305.5119146171496 790.4946203487465  L 1305.3207087918636 791.4761703130258  Z M 1292.5644771830036 788.9572569621828  C 1295.8336419169545 789.6115261858796  1299.1040952405688 790.2593402001235  1302.375818030945 790.9006952170349  L 1302.568186492691 789.9193724490705  C 1299.2977553714336 789.2782706377399  1296.0285932154989 788.6307123790243  1292.7607191407517 787.9767014594095  L 1292.5644771830036 788.9572569621828  Z M 1279.8213441428595 786.3728944394045  C 1283.087107201897 787.043936850143  1286.354191970551 787.7085307512795  1289.622579345614 788.3666722568184  L 1289.8199827582218 787.3863499156007  C 1286.5528857354632 786.7284682429122  1283.287090804591 786.0641367219661  1280.0226170617832 785.3933592373276  L 1279.8213441428595 786.3728944394045  Z M 1267.0916454731719 783.7231508467373  C 1270.353920799267 784.4109487614874  1273.6175509201012 785.092305036414  1276.8825167526668 785.7672156875095  L 1277.0849499142444 784.787919606085  C 1273.8212730831651 784.1132754082626  1270.5589314362253 783.432188131274  1267.2979440494105 782.7446617576609  L 1267.0916454731719 783.7231508467373  Z M 1254.3757166216615 781.0080960091215  C 1257.6344182486926 781.7126313033185  1260.8945077198841 782.4107319972184  1264.1559659729317 783.1023940089058  L 1264.3634235490447 782.1241499932771  C 1261.1032529126987 781.432761048264  1257.8444505175607 780.7349359629612  1254.5870354189215 780.0306788177826  L 1254.3757166216615 781.0080960091215  Z M 1241.6738926731944 778.2278014725522  C 1244.9289347292122 778.9490555805755  1248.185397642239 779.6638822973889  1251.443262371178 780.3722774432788  L 1251.6557388949907 779.3951112717252  C 1248.399160364038 778.686995798715  1245.143983095307 777.9724512938953  1241.8902261228902 777.2514819354423  L 1241.6738926731944 778.2278014725522  Z M 1228.9865083409488 775.3823405021936  C 1232.2378050504396 776.120294417855  1235.4905555923472 776.8518283207668  1238.7447409472818 777.576937933525  L 1238.962230819701 776.6008753559229  C 1235.7093302101437 775.8760520148799  1232.4578638468963 775.1448069199217  1229.2078507423519 774.4071443468787  L 1228.9865083409488 775.3823405021936  Z M 1216.3138979575979 772.47178808045  C 1219.5613636437436 773.2264223574949  1222.8103160994035 773.9746441694278  1226.0607363273955 774.7164491412675  L 1226.2832338172186 773.7415158784117  C 1223.0340968481398 773.000003769579  1219.7864270716645 772.2520773539492  1216.5402434779853 771.4977410048933  L 1216.3138979575979 772.47178808045  Z M 1203.6563954664962 769.4962209049874  C 1206.8999445534325 770.2675156576074  1210.1450133078017 771.0324056617311  1213.3915827551298 771.7908864449164  L 1213.6190819991955 770.8171081878427  C 1210.3737942905007 770.0589268512389  1207.13000668204 769.2943388239831  1203.887738141305 768.5233485768721  L 1203.6563954664962 769.4962209049874  Z M 1191.0143344128826 766.4557173867131  C 1194.253881427954 767.2436522900699  1197.4949809683305 768.025190330322  1200.7376140827475 768.8003269376828  L 1200.9701090860906 767.8277293469904  C 1197.728756156251 767.0528987618944  1194.4889361947457 766.2716692711182  1191.2506681458665 765.484045442766  L 1191.0143344128826 766.4557173867131  Z M 1178.3880479350883 763.3503576477108  C 1181.6235075113404 764.1549119385315  1184.8605524291368 764.9530774200279  1188.0991637623656 765.744849425546  L 1188.3366483983746 764.7734581307221  C 1185.0993156619327 763.9819987150884  1181.8635487222514 763.1841483475441  1178.6293664984792 762.3799116930265  L 1178.3880479350883 763.3503576477108  Z M 1165.7788100631437 760.1744749481555  C 1169.0094170360248 760.9988712085604  1172.241996015437 761.8155202777285  1175.4765191259019 762.6244151134557  L 1175.7191292898985 761.654291251093  C 1172.4861568862561 760.8457842186672  1169.255127681102 760.0295266702361  1166.0260695375546 759.205525644882  L 1165.7788100631437 760.1744749481555  Z M 1153.1895520851685 756.920079810405  C 1156.4149570290858 757.7645995280533  1159.64238223762 758.6013844986016  1162.871799878295 759.4304275058338  L 1163.12045304194 758.4618349164499  C 1159.8925836601645 757.633189371967  1156.6667057555292 756.7968055759042  1153.44284714673 755.9526907409047  L 1153.1895520851685 756.920079810405  Z M 1140.6208265039995 753.5872669722893  C 1143.8409040714369 754.4518773269753  1147.0630500823424 755.3087656791074  1150.2872367497675 756.1579246391034  L 1150.5419232497425 755.1909009647652  C 1147.319282333365 754.3421491115802  1144.0986810953862 753.4856715719696  1140.880147308997 752.6214757318572  L 1140.6208265039995 753.5872669722893  Z M 1128.073121773516 750.1761659557194  C 1131.2877468237525 751.0608333464006  1134.5044884159247 751.9377917791718  1137.7233188096886 752.8070336913712  L 1137.9840287482032 751.8416165131733  C 1134.7667415375631 750.9727913360254  1131.5515421273114 750.0962533378464  1128.338458244058 749.2120100775544  L 1128.073121773516 750.1761659557194  Z M 1115.5469255306712 746.6869093250916  C 1118.7559731351246 747.5915993713236  1121.9671852970077 748.4885938036787  1125.1805343250978 749.3778848871108  L 1125.447257570275 748.4141117237149  C 1122.2354490976522 747.5252469874453  1119.0257764662722 746.6286825952808  1115.8182673550818 745.7244262788381  L 1115.5469255306712 746.6869093250916  Z M 1103.0427245765409 743.1196326821365  C 1106.2460700229042 744.0443102252083  1109.4516279587915 744.9613057977048  1112.6593707417358 745.8706114921041  L 1112.9320969280059 744.9085197982814  C 1109.7258920127624 743.9996500465222  1106.5218708966095 743.0830941032324  1103.3200612097598 742.1588598724283  L 1103.0427245765409 743.1196326821365  Z M 1090.561004857407 739.4744746606481  C 1093.758523654976 740.4191037650772  1096.9583027888937 741.3560648409842  1100.1603146650955 742.2853498082602  L 1100.4390331935979 741.3249769734355  C 1097.2385564373262 740.396137527266  1094.0403113531265 739.4596256526361  1090.8443255214 738.5154494256543  L 1090.561004857407 739.4744746606481  Z M 1078.10225144587 735.7515769210962  C 1081.2938193310938 736.716120876241  1084.4876953102184 737.6730110424969  1087.6838518415145 738.6222391683192  L 1087.9685518805115 737.6636225151177  C 1084.7739276621935 736.7148494716927  1081.581582902199 735.7584180610484  1078.3915451300477 734.7943365310713  L 1078.10225144587 735.7515769210962  Z M 1065.6669485220002 731.9510841451214  C 1068.8524414616443 732.9355054661122  1072.0402901644695 733.9122875357224  1075.2304671392976 734.8814219304371  L 1075.5211376245934 733.9245987132346  C 1072.332490095765 732.9559289443807  1069.1461697229267 731.9796151671729  1065.9622039836456 730.9956658009556  L 1065.6669485220002 731.9510841451214  Z M 1053.2555793545189 728.0731440299135  C 1056.4348735521498 729.0774044596088  1059.616571089979 730.0740404720993  1062.8006445298724 731.0630434726544  L 1063.097274165244 730.1080508761285  C 1059.914727245172 729.1195220269119  1056.734555088316 728.1233638252733  1053.556785119225 727.1195848616874  L 1053.2555793545189 728.0731440299135  Z M 1040.8686262820197 724.1179072824693  C 1044.0415981818667 725.1419677926561  1047.2170209055275 726.1584190161184  1050.3948670689813 727.1672521872446  L 1050.6974443266174 726.2141273249305  C 1047.521121697482 725.2057778121938  1044.3472213465 724.1898138994635  1041.1757706441344 723.1662443480113  L 1040.8686262820197 724.1179072824693  Z M 1028.5065706942203 720.0855276137369  C 1031.6730969864489 721.1293484067962  1034.842121490154 722.1655753390964  1038.0136168779075 723.1941994749484  L 1038.3221299988566 722.2429793877961  C 1035.152155100946 721.214848398665  1031.9846499019905 720.1791182578845  1028.8196417173028 719.1357978971827  L 1028.5065706942203 720.0855276137369  Z M 1016.1698930132585 715.9761617326434  C 1019.3298506380559 717.0397022428655  1022.4923537656144 718.0956646136387  1025.657375124742 719.14403973909  L 1025.9718121193696 718.1947613940249  C 1022.8083081462827 717.1468888843857  1019.6473211969724 716.0914327667647  1016.4888785305417 715.0284021429985  L 1016.1698930132585 715.9761617326434  Z M 1003.8590726750185 711.7899693400018  C 1007.0123388278489 712.8731882353122  1010.1681976765046 713.9488450072316  1013.3266220056801 715.0169303795759  L 1013.6469706541334 714.0696306680621  C 1010.4900605479912 713.0020573610086  1007.3357146926307 711.9269162843601  1004.1839602898824 710.8442167097078  L 1003.8590726750185 711.7899693400018  Z M 991.5745881104992 707.5271131223074  C 994.7210402473451 708.6299683060374  997.8701321716165 709.7252776760824  1001.0218367263624 710.8130317867785  L 1001.348084579047 709.8677475233853  C 998.1978910257163 708.7805149076365  995.0503088505166 707.6857306547824  991.905365196953 706.5834042058098  L 991.5745881104992 707.5271131223074  Z M 979.3169167272237 703.1877587454139  C 982.4564325688771 704.3102073577816  985.5986351862638 705.4251267591701  988.7434974832497 706.5325073353024  L 989.0756318613121 705.5892752562736  C 985.9322772856359 704.4824255845609  982.7915811139565 703.3680407017094  979.6535704303957 702.2461302177342  L 979.3169167272237 703.1877587454139  Z M 967.0865348906818 698.772074848096  C 970.218992427029 699.9140732677007  973.3541836237071 701.0485593718828  976.4920814450414 702.1755233776356  L 976.8300894408623 701.2343801394615  C 973.6936960019033 700.1079564268873  970.560007889493 698.9740142219788  967.4290521273201 697.832563303406  L 967.0865348906818 698.772074848096  Z M 954.8839179058216 694.2802330354941  C 958.0091954012878 695.4417368812606  961.1372533354441 696.5957455991091  964.2680647341285 697.7422492376842  L 964.6119332118242 696.803231415677  C 961.4826227981168 695.6572774380425  958.3560645283745 694.5038219790667  955.2322853648013 693.3428749856946  L 954.8839179058216 694.2802330354941  Z M 942.7095399985737 689.7124078724477  C 945.8275159966196 690.893372005268  948.9483191036595 692.0668584889562  952.0719224080923 693.2328572041934  L 952.4216380040253 692.2960012910662  C 949.2995322286062 691.130561583083  946.1802253083108 689.957637696541  943.0637441414153 688.7772397457485  L 942.7095399985737 689.7124078724477  Z M 930.5638742974254 685.0687768767093  C 933.6744276252668 686.2691554011977  936.7878546225375 687.4620740459399  939.9041284412426 688.6475225240489  L 940.2596775645413 687.7128649284977  C 937.1448977611537 686.5279847824055  934.0329634138824 685.335638050869  930.9239013588201 684.1358350162145  L 930.5638742974254 685.0687768767093  Z M 918.4473928150304 680.3495205120461  C 921.5504025883481 681.569266778322  924.6563324798509 682.7815712241488  927.7651557061957 683.9864233954703  L 928.1265245392818 683.0540004407582  C 925.0191917562645 681.8497259040427  921.9147509204723 680.6380026654297  918.8132288033754 679.4188411743409  L 918.4473928150304 680.3495205120461  Z M 906.3605664298666 675.5548221812273  C 909.4559120575034 676.7938887867286  912.5542241385994 678.025531920287  915.6554759555005 679.2497409610826  L 916.0226504546264 678.3195888836287  C 912.9228854511401 677.0959667575798  909.8260587735978 675.8649141026561  906.7321971278093 674.6264415349692  L 906.3605664298666 675.5548221812273  Z M 894.3038648679379 670.6848682188963  C 897.391426056356 671.9432070101279  900.4819999189119 673.194140966698  903.5755598033011 674.4376593008778  L 903.9485256990963 673.5098142488494  C 900.8564489401978 672.2668920866553  897.7673567717709 671.0165578573792  894.6812758329273 669.7588223434097  L 894.3038648679379 670.6848682188963  Z M 882.2777566845162 665.739847884329  C 885.357413443391 667.0174099591086  888.440128978623 668.2875861237201  891.5258767070513 669.550365425062  L 891.9046195050748 668.6248634569683  C 888.8203511570349 667.3626895618677  885.7391135480066 666.0931223495304  882.6609332493655 664.8161727682029  L 882.2777566845162 665.739847884329  Z M 1498.0066858265332 821.3649522425326  C 1499.6629230280641 821.5569177326213  1501.3193493694464 821.7472478331625  1502.9759624287294 821.9359422658645  L 1503.0871730833164 820.9421434489614  C 1501.43186796726 820.7535966886157  1499.7767493496865 820.5634161971284  1498.121819647668 820.3716022522317  L 1498.0066858265332 821.3649522425326  Z M 876.8071003367451 663.4612913611983  C 877.7067683748696 663.8375083819217  878.6067001339294 664.2130944429155  879.5068949492676 664.5880492667851  L 879.8913999305743 663.6649263500777  C 878.9916366901741 663.290151288524  878.092136378991 662.9147452920818  877.1928996632549 662.5387086388017  L 876.8071003367451 663.4612913611983  Z M 1501.322892799466 827.5772967854127  L 1508 822  L 1502.7548538590668 815.0589307768721  L 1501.322892799466 827.5772967854127  Z " fill-rule="nonzero" fill="rgba(2, 167, 240, 1)" stroke="none" class="fill" />
  </g>
</svg>