<?xml version="1.0" encoding="utf-8"?>
<svg version="1.1" xmlns:xlink="http://www.w3.org/1999/xlink" width="348px" height="10px" viewBox="1090 710 348 10" xmlns="http://www.w3.org/2000/svg">
  <g transform="matrix(-0.9563047559630322 0.29237170472273843 -0.29237170472274737 -0.9563047559630415 2681.8149804140367 1029.2000657440335 )">
    <path d="M 1718.1412336764713 819.3886869368037  C 1721.442727092056 819.8526446354422  1724.7450525532026 820.310662163224  1728.0481940265938 820.7627372964014  L 1728.1837921341905 819.7719733723427  C 1724.8818389986418 819.3200608776696  1721.5807015821615 818.8622081262816  1718.2803959115142 818.3984173410179  L 1718.1412336764713 819.3886869368037  Z M 1705.269691791982 817.5491443074528  C 1708.5689788309446 818.0285403376909  1711.8691256927248 818.5020001541238  1715.1701163545822 818.9695214580279  L 1715.3103474786103 817.9794026611889  C 1712.0105443810658 817.5120495527367  1708.7115847796865 817.038760068145  1705.4134846921415 816.5595365054102  L 1705.269691791982 817.5491443074528  Z M 1692.406895563916 815.6494125462244  C 1695.7039040344564 816.1442364183829  1699.0018000862565 816.6331281636777  1702.3005677075032 817.1160854084608  L 1702.4454287795609 816.1266334036611  C 1699.14784792262 815.6438499075276  1695.851138321962 815.1551340459355  1692.5553159828555 814.6604881915633  L 1692.406895563916 815.6494125462244  Z M 1679.5531264435085 813.6895332212067  C 1682.8477842036846 814.1997741080294  1686.1433572841406 814.7040870847308  1689.439829684342 815.2024697027906  L 1689.58931753472 814.2137061402594  C 1686.2940310733416 813.715502820317  1682.9996436078243 813.2113712751858  1679.7061711336364 812.701313952611  L 1679.5531264435085 813.6895332212067  Z M 1666.708665684473 811.6695492165784  C 1670.000900643778 812.1951959534689  1673.2940786423555 812.7149191266894  1676.5881836912988 813.2287162129008  L 1676.7422950490488 812.2406627278039  C 1673.44937508725 811.7270504852185  1670.1573818419577 811.2075142875385  1666.8663312970139 810.682056657304  L 1666.708665684473 811.6695492165784  Z M 1653.8737943368442 809.5895047316708  C 1657.16353445754 810.1305458168968  1660.4542453166011 810.6656678146377  1663.7459109356287 811.1948681265516  L 1663.9046424286353 810.2075463385169  C 1660.6141610188981 809.6785364116537  1657.3246340260341 809.1436069294122  1654.0360774219116 808.6027604890724  L 1653.8737943368442 809.5895047316708  Z M 1641.0487932408332 807.4494452800009  C 1644.3359665402616 808.005868875065  1647.6241382551711 808.5563779882278  1650.9132924194928 809.1009699464345  L 1651.0766405745476 808.1144014590803  C 1647.7886697159956 807.5700054232216  1644.5016809538001 807.019694361227  1641.2156902475058 806.4634709450593  L 1641.0487932408332 807.4494452800009  Z M 1628.2339430206785 805.249417688274  C 1631.5184775721002 805.8212116180546  1634.8040381942737 806.3870958009337  1638.0906089338073 806.9470674891999  L 1638.2585701766843 805.9612738896614  C 1634.9731818135078 805.4015036567532  1631.688803204682 804.8358230563776  1628.4054502970785 804.2642348351235  L 1628.2339430206785 805.249417688274  Z M 1615.4295240785063 802.9894700953611  C 1618.7113480131661 803.5766218484615  1621.9942256506615 804.1578687188405  1625.2781410520975 804.7332078844515  L 1625.4507117076319 803.7482107429082  C 1622.1679777275133 803.1730785613001  1618.8862811376455 802.592040800219  1615.6056378718772 802.0051002808176  L 1615.4295240785063 802.9894700953611  Z M 1602.635816588197 800.6696519512442  C 1605.9148580961605 801.2721486801366  1609.1949809167231 801.8687455198192  1612.4761691243639 802.4594395737196  L 1612.6533454165315 801.475260442924  C 1609.373337649073 800.8847788971008  1606.0943948850659 800.2883966890188  1602.8165330449879 799.6861167143335  L 1602.635816588197 800.6696519512442  Z M 1589.8531004892534 798.2900140159343  C 1593.129287821714 798.9078425373694  1596.4065840528765 799.5197762922029  1599.6849732709431 800.125812309398  L 1599.866751322944 799.1424727242033  C 1596.589541538095 798.5366547345096  1593.313424346595 797.9249411288835  1590.0384156552018 797.3073348774208  L 1589.8531004892534 798.2900140159343  Z M 1577.0816554806738 795.8506083583615  C 1580.3549169512767 796.4837551536147  1583.6293148824209 797.1110124338572  1586.9048333763794 797.7323771536547  L 1587.0912092107228 796.7498986305446  C 1583.8168691169662 796.1287574528559  1580.5436491832806 795.5017258347036  1577.2715653008931 794.8688068202774  L 1577.0816554806738 795.8506083583615  Z M 1564.321761014835 793.3514883552356  C 1567.5920250012466 793.9999395704026  1570.8634529851713 794.6425066510191  1574.136029083302 795.2791864773185  L 1574.3269986218927 794.2975905139351  C 1571.0555998654079 793.6611397395055  1567.7853488104734 793.0188038288335  1564.5162613339025 792.37058590041  L 1564.321761014835 793.3514883552356  Z M 1551.5736962913759 790.7927086898765  C 1554.840891236851 791.4564501361766  1558.1092776913408 792.1143129571363  1561.3788397863068 792.7662939587273  L 1561.5743988505346 791.7856020334019  C 1558.306013013141 791.1338555884788  1555.0388023929324 790.476229440161  1551.7727828534241 789.8127267814659  L 1551.5736962913759 790.7927086898765  Z M 1538.8377402510869 788.1743253510199  C 1542.1017946660331 788.8533425051063  1545.3670680754255 789.526486671694  1548.6335446258392 790.1937545825601  L 1548.83368893667 789.2139881538426  C 1545.5683875335296 788.5469602992126  1542.304288838957 787.8740583029822  1539.0414086998971 787.1952854320384  L 1538.8377402510869 788.1743253510199  Z M 1526.11417156981 785.4963956315916  C 1529.3750140333536 786.1906736358694  1532.6371029501017 786.8790844189965  1535.9004224820903 787.5616246386285  L 1536.1051476601604 786.5828051448175  C 1532.8430021399197 785.9005104758368  1529.5820867918524 785.2123473552828  1526.3224174489064 784.5183191244413  L 1526.11417156981 785.4963956315916  Z M 1513.403268652338 782.758978127453  C 1516.6608278138863 783.468501790404  1519.9196608601233 784.1721641269335  1523.179751968893 784.869961720648  L 1523.3890535346045 783.8921105793229  C 1520.1301352758824 783.1945640252001  1516.87247462748 782.4911548382454  1513.6160874050863 781.7818864334556  L 1513.403268652338 782.758978127453  Z M 1500.7053096263235 779.9621327361199  C 1503.9595142068827 780.6868865325814  1507.2150200764684 781.4057850257632  1510.4718114276243 782.1188247249769  L 1510.6856848012435 781.1419633325282  C 1507.430065113015 780.4291801564048  1504.1757304442779 779.7105402941575  1500.9226965960297 778.9860472350485  L 1500.7053096263235 779.9621327361199  Z M 1488.0205723361937 777.1059206554505  C 1491.2713511308993 777.8458887271705  1494.523458589042 778.5800076465507  1497.7768789211184 779.3082738493264  L 1497.9953194228754 778.3324235804879  C 1494.743069541211 777.604419378742  1491.4921320608205 776.8705645658879  1488.2425227662075 776.1308627050616  L 1488.0205723361937 777.1059206554505  Z M 1475.3493343370712 774.1904043823089  C 1478.5966162152915 774.9455705379697  1481.8452541030128 775.6948938203772  1485.0952322275782 776.4383705914468  L 1485.3182350777695 775.4635527988278  C 1482.0694261650056 774.7203435008861  1478.8219570073084 773.971289795036  1475.5758433708882 773.216395317875  L 1475.3493343370712 774.1904043823089  Z M 1462.6918728886988 771.2156477111951  C 1465.9355867965603 771.985995426983  1469.1806840303161 772.7505066764521  1472.4271488345005 773.5091777477779  L 1472.6547091535942 772.5354137613962  C 1469.4094122975016 771.7770156295547  1466.1654825195003 771.0127794205525  1462.922935570068 770.2427088450384  L 1462.6918728886988 771.2156477111951  Z M 1450.0484649493753 768.1817157328499  C 1453.2885399110753 768.9672281527631  1456.5300254847957 769.746910641  1459.7729059326036 770.5207594120772  L 1460.0050187413456 769.5480705388921  C 1456.7633049521214 768.7745001676283  1453.5229855348248 767.9950981778609  1450.284076222407 767.209868353875  L 1450.0484649493753 768.1817157328499  Z M 1437.4193871698947 765.0886748328314  C 1440.6557522892547 765.8893347690489  1443.8935552758937 766.6841714357973  1447.13278040976 767.4731809740175  L 1447.3694406292825 766.501588497464  C 1444.131380838964 765.7128628132944  1440.8947426839027 764.9183120968805  1437.659541879172 764.1179402060604  L 1437.4193871698947 765.0886748328314  Z M 1424.8048682611911 761.9375635281367  C 1426.0392349055587 762.2485732440437  1427.2737741054627 762.5588977033096  1428.5084852899859 762.8685367624244  C 1430.5074505296661 763.3700845087881  1432.5069729512152 763.8694089360288  1434.5070488449403 764.366509117755  L 1434.7482512968743 763.3960342972773  C 1432.7488759059459 762.8991082189782  1430.7500537984067 762.3999586529485  1428.7517886831524 761.8985865253808  C 1427.5174174292638 761.5890327360349  1426.2832181137117 761.2787937242745  1425.049191310421 760.9678696343663  L 1424.8048682611911 761.9375635281367  Z M 1412.2030489041827 758.7370804307473  C 1415.4327303266773 759.5638234363505  1418.6636120218195 760.3858704598408  1421.8956837450685 761.2032188946563  L 1422.1408525879099 760.2337384985163  C 1418.9097205314833 759.416627693083  1415.6797781586777 758.594819665385  1412.4510357080685 757.7683170204666  L 1412.2030489041827 758.7370804307473  Z M 1399.613417595429 755.4889845773273  C 1402.8399508062223 756.3279300629026  1406.067702032178 757.1621841370171  1409.2966610386811 757.9917441544017  L 1409.5454928231034 757.023197437376  C 1406.3174725789374 756.1938785997955  1403.0906597642272 755.3598670702111  1399.8650646105139 754.5211654930977  L 1399.613417595429 755.4889845773273  Z M 1387.0361542268843 752.1933223795861  C 1390.2594931223737 753.0444583575272  1393.4840677581358 753.8909075616941  1396.709867909628 754.7326673081496  L 1396.9623590800988 753.7650681097031  C 1393.7374967725627 752.9235530899057  1390.513859624509 752.0773499757861  1387.2914578574096 751.2264614504754  L 1387.0361542268843 752.1933223795861  Z M 1374.4714385137777 748.850140928904  C 1377.691537036483 749.7134552375446  1380.9128890054742 750.5720874766822  1384.1354842093074 751.4260349245169  L 1384.3916311580065 750.4593970705755  C 1381.169972866828 749.6056978928832  1377.9495574476525 748.7473152855379  1374.730395111736 747.8842519702891  L 1374.4714385137777 748.850140928904  Z M 1361.9194499920482 745.4594879956586  C 1365.1362621293513 746.3349682989316  1368.3543454039234 747.2057713046429  1371.573689611804 748.0718942516347  L 1371.8334886786736 747.106231554388  C 1368.6150804377985 746.2403604172212  1365.3979327636869 745.3698105819916  1362.182055857235 744.4945848090282  L 1361.9194499920482 745.4594879956586  Z M 1349.380368015775 742.0214120285424  C 1352.5938478034564 742.9090458169279  1355.808616399786 743.792007146143  1359.024663611314 744.6702932164768  L 1359.288111084112 743.7056194741803  C 1356.0729988810465 742.8275887498828  1352.859164921494 741.9448841259659  1349.6466193958424 741.0575084012993  L 1349.380368015775 742.0214120285424  Z M 1336.8543717546183 738.535962153872  C 1340.0644732755939 739.4357367440617  1343.2758812581815 740.3308437802356  1346.4885855195873 741.2212804241717  L 1346.7556776339395 740.2576094209498  C 1343.5439074090928 739.367431655613  1340.333433086244 738.4725848558853  1337.1242648451273 737.5730718591366  L 1336.8543717546183 738.535962153872  Z M 1324.3416401912566 735.0031881748835  C 1327.548317576714 735.9150907100902  1330.7563190580788 736.8223306631304  1333.9656344633602 737.7249051573107  L 1334.236367402815 736.7622506629597  C 1331.027985048365 735.859938576108  1327.820916237315 734.9529623872144  1324.6151711357322 734.0413249712967  L 1324.3416401912566 735.0031881748835  Z M 1311.8423521188322 731.4231405710233  C 1315.0455595488863 732.347158021165  1318.2501086902244 733.2665179276127  1321.4559893818014 734.1812173752425  L 1321.7303592778835 733.2195931450341  C 1318.5254106390346 732.3051596299819  1315.321793163348 731.3860670110708  1312.1195170088188 730.4623182025499  L 1311.8423521188322 731.4231405710233  Z M 1299.3566861383936 727.7958704972251  C 1302.556377842741 728.731989659111  1305.757428854577 729.6634563823266  1308.9598290239485 730.590267713359  L 1309.2378319562142 729.6296874878435  C 1306.036362827671 728.703145610703  1302.836242464468 727.7719496948658  1299.6374810135105 726.836102692958  L 1299.3566861383936 727.7958704972251  Z M 1286.8848206563446 724.1214297831808  C 1290.0809509153942 725.0696372808412  1293.2784580572852 726.0131975109099  1296.4773319461592 726.9521074823725  L 1296.758963942253 725.9925849871823  C 1293.5610200694803 725.0539479872157  1290.3644425449531 724.1106620802165  1287.1692415043428 723.1627302571436  L 1286.8848206563446 724.1214297831808  Z M 1274.4269338818947 720.3998709325962  C 1277.6194570255159 721.3601532169087  1280.8133746105138 722.3157934719583  1284.0086765095557 723.2667886675829  L 1284.2939335452675 722.308337613237  C 1281.0995606233582 721.3576189025323  1277.906571613076 720.4022564828854  1274.7149766387136 719.4422533835485  L 1274.4269338818947 720.3998709325962  Z M 1261.9832038245152 716.6312471224468  C 1265.1720742355471 717.6035904721772  1268.362356625139 718.5712970968805  1271.554040877483 719.5343639281338  L 1271.8429188768034 718.5769980098411  C 1268.6521625498256 717.6142111731208  1265.4628076780816 716.6467858919026  1262.2748643743414 715.6747252336878  L 1261.9832038245152 716.6312471224468  Z M 1249.5538082913913 712.815612202212  C 1252.7389804043912 713.8000027236457  1255.9255820129576 714.7797618905412  1259.113603012954 715.7548865962598  L 1259.4060978481355 714.798619493724  C 1256.2190037084797 713.8237782881507  1253.0333285476395 712.8443039688027  1249.849082466717 711.8601996413853  L 1249.5538082913913 712.815612202212  Z M 1237.1389248848836 708.9530206931088  C 1240.3203531872527 709.9494443203902  1243.5032284817696 710.9412420298  1246.6875406761123 711.9284106765268  L 1246.9836481677257 710.9732560537508  C 1243.8002617554544 709.9863744087307  1240.6183118253043 708.9948650468604  1237.4378084665664 707.9987311120065  L 1237.1389248848836 708.9530206931088  Z M 1224.738730999993 705.0435277873127  C 1227.916370032628 706.0519702826466  1231.0954735333148 707.0557923628738  1234.276031421693 708.054990845057  L 1234.5757473386889 707.1009623501474  C 1231.3961141408845 706.1020543671315  1228.2179349079825 705.0985241303155  1225.041219717316 704.0903748216809  L 1224.738730999993 705.0435277873127  Z M 1212.3534038218202 701.0871893471669  C 1215.5272081797616 702.1076363010217  1218.7024944607354 703.1234684085563  1221.879252596482 704.1346824487507  L 1222.18257265625 703.1817937137232  C 1219.0067381063664 702.1708736660055  1215.8323749833892 701.155336893584  1212.6594933525528 700.1351866165112  L 1212.3534038218202 701.0871893471669  Z M 1199.983120323039 697.0840619043872  C 1203.1530446561217 698.1164987357008  1206.3244683460387 699.1443263554211  1209.4973813367826 700.167541504493  L 1209.8043012052133 699.2158061450772  C 1206.6323106819525 698.1928884774383  1203.461809027997 697.1653596806192  1200.292806293499 696.1332230117771  L 1199.983120323039 697.0840619043872  Z M 1187.628057261364 693.0342026592526  C 1190.7940562748624 694.0786146156406  1193.9615720575769 695.1184230610236  1197.1305945658883 696.1536246983562  L 1197.4411098574355 695.2030563138012  C 1194.2730086859917 694.168155642912  1191.106413802139 693.1286495033359  1187.9413352464805 692.0845411911276  L 1187.628057261364 693.0342026592526  Z M 1175.2883911770286 688.9376694797874  C 1178.4504196327784 689.9940416379116  1181.6139822470377 691.0458160509264  1184.7790689915498 692.0929893847856  L 1185.093175269292 691.143601557666  C 1181.9290087178656 690.0967326709638  1178.7663658522126 689.0452640423347  1175.6052567004049 687.9891990057632  L 1175.2883911770286 688.9376694797874  Z M 1162.964298390259 684.7945209009351  C 1166.1223111054169 685.862838166087  1169.2818753492832 686.9265635186639  1172.4429811034522 687.9856935857849  L 1172.7606738791571 687.0374998818063  C 1169.6004871602001 685.9786777378936  1166.4418415034274 684.9152616445389  1163.2847469242356 683.8472549736096  L 1162.964298390259 684.7945209009351  Z M 1150.6559549987553 680.6048161237214  C 1153.8099068492716 681.6850632309823  1156.9654275751125 682.760724323345  1160.122507170693 683.8317959900827  L 1160.4437819048812 682.8848099578878  C 1157.2876201739787 681.814049686166  1154.1330168596503 680.7387013231292  1150.979981964476 679.6587682784801  L 1150.6559549987553 680.6048161237214  Z M 1138.363536875179 676.3686150144102  C 1141.5133827945583 677.4607765282398  1144.6648149134608 678.548357990377  1147.8178232392659 679.6313559522979  L 1148.142675341275 678.6855911232732  C 1144.990583696499 677.6029080237261  1141.8400678004193 676.5156427565503  1138.6911376426558 675.4237987692342  L 1138.363536875179 676.3686150144102  Z M 1126.0872196646346 672.0859781036454  C 1129.2329146450506 673.1900384182593  1132.3802131265236 674.2895247098307  1135.5291051295394 675.3844334920877  L 1135.8575299575914 674.4399033801701  C 1132.709553438857 673.3453129231459  1129.5631699784255 672.2461462876533  1126.4183895528136 671.1424069589173  L 1126.0872196646346 672.0859781036454  Z M 1113.827178782163 667.7569665855881  C 1116.968677875102 668.8729099251815  1120.1117977477193 669.9842853357401  1123.2565284337502 671.0910892932935  L 1123.588521295016 670.1478073947773  C 1120.4447048834377 669.0413252207669  1117.3024988170062 667.9302729228372  1114.1619130589913 666.8146540238995  L 1113.827178782163 667.7569665855881  Z M 1731.0212395747856 821.168000183188  C 1732.6733501447134 821.3922950842912  1734.3256621840944 821.6151034972969  1735.978173685805 821.8364251515522  L 1736.1091360238215 820.8450361749815  C 1734.4578134666601 820.6238726684468  1732.8066901566779 820.4012240072195  1731.1557680996987 820.1770904617781  L 1731.0212395747856 821.168000183188  Z M 1101.830889007731 663.4705331787385  C 1104.8857991084385 664.5684767494943  1107.9422620068076 665.6620950202703  1111.0002685134903 666.7513847030704  L 1111.335824664158 665.8093644964139  C 1108.27870721843 664.7203915051981  1105.2231329322465 663.627091184469  1102.169110992269 662.5294668212615  L 1101.830889007731 663.4705331787385  Z M 1734.2369885011276 827.4728123909119  L 1741 822  L 1735.8634019775122 814.9782223934837  L 1734.2369885011276 827.4728123909119  Z " fill-rule="nonzero" fill="rgba(2, 167, 240, 1)" stroke="none" class="fill" />
  </g>
</svg>