<?xml version="1.0" encoding="utf-8"?>
<svg version="1.1" xmlns:xlink="http://www.w3.org/1999/xlink" width="364px" height="8px" viewBox="1350 706 364 8" xmlns="http://www.w3.org/2000/svg">
  <g transform="matrix(-0.965925826289063 0.25881904510252035 -0.25881904510254033 -0.9659258262890652 3195.559887897648 999.2965595681749 )">
    <path d="M 1980.3456057942576 817.9911837189318  C 1983.6135922166895 818.6493439471894  1986.8821105458105 819.3048603137829  1990.1511575744476 819.9577321754983  L 1990.3470032786317 818.9770974523966  C 1987.0784851299718 818.3243312149967  1983.8104955940257 817.668920900304  1980.5430378799815 817.0108671519358  L 1980.3456057942576 817.9911837189318  Z M 1967.6031683208037 815.4109570360545  C 1970.8697631638674 816.0759895625392  1974.1368954792802 816.738379353186  1977.404562049545 817.3981257556675  L 1977.6024699491354 816.4179051359702  C 1974.335332033564 815.758265469603  1971.068728290986 815.0959828436546  1967.802661929228 814.431057908492  L 1967.6031683208037 815.4109570360545  Z M 1954.8661861821042 812.8039341174044  C 1958.1313749978476 813.4758360007174  1961.3971068375429 814.1450962833392  1964.6633784967432 814.811714308568  L 1964.8633477161695 813.8319121289  C 1961.597604487935 813.165401951898  1958.3324009906073 812.4962499447196  1955.067740430643 811.8244567644779  L 1954.8661861821042 812.8039341174044  Z M 1942.1347157282441 810.1701264967921  C 1945.3984840690962 810.848894763955  1948.6628009889378 811.5250225784442  1951.9276632847116 812.1985092768215  L 1952.129692939284 811.2191298719566  C 1948.8653588464638 810.5457521330487  1945.601570040078 809.8697337050576  1942.3383297251946 809.1910752518381  L 1942.1347157282441 810.1701264967921  Z M 1929.408813284924 807.5095458265293  C 1932.671146711545 808.1951774745819  1935.9340342697633 808.8781698296609  1939.1974727579307 809.5585222215931  L 1939.401561953843 808.5795699244346  C 1936.1386514382796 807.8993276027322  1932.8762917622691 807.2164457447225  1929.6144861294708 806.5309250209996  L 1929.408813284924 807.5095458265293  Z M 1916.688535153207 804.8222038773748  C 1919.949419232604 805.5146958729924  1923.2108629937586 806.2045497470134  1926.472863236438 806.8917648225317  L 1926.6790110707727 805.9132439640932  C 1923.417538568012 805.2261400690779  1920.156622455483 804.5363978022089  1916.8962659354272 803.8440178408163  L 1916.688535153207 804.8222038773748  Z M 1903.9739376092791 802.1081125384828  C 1907.2333579148722 802.8074618179899  1910.493343449906 803.504174158949  1913.753891015579 804.1982488777238  L 1913.9620965763115 803.2201637871104  C 1910.7020765155369 802.5262013586203  1907.442618393211 801.8296017344013  1904.1837254101436 801.1303655985191  L 1903.9739376092791 802.1081125384828  Z M 1891.265076904191 799.3672838173516  C 1894.5230190158754 800.0734872867347  1897.7815319021865 800.7770550122849  1901.0406123657617 801.4779863036381  L 1901.2508747317625 800.5003413080269  C 1897.9923215357317 799.799523416243  1894.7343358238784 799.0960695165229  1891.4769207955712 798.3899802996639  L 1891.265076904191 799.3672838173516  Z M 1878.5620092636143 796.599729839766  C 1881.8184587678263 797.3127843746885  1885.075484589322 798.0232043721531  1888.3330835321995 798.7309891350727  L 1888.5454017732409 797.7537885596936  C 1885.28832985628 797.0461183047046  1882.0318309725412 796.335813242503  1878.7759083082854 795.6228740680735  L 1878.5620092636143 796.599729839766  Z M 1865.8647908875926 793.8054628497504  C 1869.1197333773716 794.5253652955649  1872.37525772454 795.2426344219517  1875.6313607346735 795.9572695251048  L 1875.8457339114314 794.9805176932219  C 1872.5901576871377 794.2659982066976  1869.3351600309295 793.5488451228049  1866.0807441392365 792.8290591457916  L 1865.8647908875926 793.8054628497504  Z M 1853.1734779502867 790.984495209508  C 1856.4268990253386 791.7112423812716  1859.6809074953142 792.4353574632892  1862.9355001672754 793.156839745036  L 1863.1519273313345 792.1805409779276  C 1859.897861200864 791.4591754205745  1856.644379176605 790.7351774886157  1853.3914844534984 790.0085478930215  L 1853.1734779502867 790.984495209508  Z M 1840.4881265997362 788.1368393993721  C 1843.7400118664984 788.8704280818597  1846.9924900631188 789.6013859159267  1850.245557998162 790.3297121843348  L 1850.4640381920203 789.3538708012752  C 1847.2114965517899 788.6256623645094  1843.9595445533125 787.894822787547  1840.708185390026 787.1613527880768  L 1840.4881265997362 788.1368393993721  Z M 1827.808792957604 785.2625080177452  C 1831.0591280293079 786.0029349654639  1834.3100615631845 786.7407323177284  1837.5615903693085 787.4758993505865  L 1837.7821226263807 786.5005196688263  C 1834.5311198660627 785.7654715743378  1831.2807122804275 785.0277935857007  1828.0309030614026 784.2874864273224  L 1827.808792957604 785.2625080177452  Z M 1815.1355331189293 782.3615137810486  C 1818.3843036156654 783.1087757182522  1821.6336781042382 783.8534093245996  1824.8836533962526 784.595413869432  L 1825.106236740875 783.6205002041792  C 1821.8567872452697 782.8786157043595  1818.6079384488369 782.1341025667472  1815.3596935535925 781.3869615251222  L 1815.1355331189293 782.3615137810486  Z M 1802.4684031518816 779.4338695236621  C 1805.7155947006622 780.1879631443657  1808.9633957682697 780.9394297104402  1812.2118031678565 781.6882684845214  L 1812.4364366152913 780.7138251489223  C 1809.18855475458 779.9651075246352  1805.941279132304 779.2137625345408  1802.6946129256946 778.4597909137791  L 1802.4684031518816 779.4338695236621  Z M 1789.8074590975084 776.4795881978687  C 1793.053057332331 777.2405101658627  1796.2992706102746 777.998806367076  1799.5460957460523 778.7544760574448  L 1799.7727783024916 777.7805073625649  C 1796.5264784496057 777.0249599271201  1793.280790360112 776.266786406819  1790.0357172096888 775.5059875434811  L 1789.8074590975084 776.4795881978687  Z M 1777.1527569694913 773.498682873797  C 1780.396747531402 774.2664298226626  1783.641358658009 775.0315523042129  1786.8865871655958 775.794049567687  L 1787.1153178281656 774.8205598224919  C 1783.8706143470965 774.0581859189853  1780.6265281458686 773.2931872218247  1777.3830624101956 772.5255644822423  L 1777.1527569694913 773.498682873797  Z M 1764.5043527538978 770.491166739365  C 1767.746721291056 771.2657352724888  1770.989715911739 772.0376806493742  1774.2333334338173 772.8070021125656  L 1774.4641111905835 771.8339956239018  C 1771.2210184343912 771.0647986247253  1767.9785484775625 770.2929781360631  1764.7367045042242 769.5185349158468  L 1764.5043527538978 770.491166739365  Z M 1751.8623024089313 767.4570531002184  C 1755.1030345766715 768.2384397908072  1758.344398343999 769.0172046478416  1761.5863905303775 769.7933469071706  L 1761.819214360349 768.820827979747  C 1758.5777466769027 768.0448112879294  1755.3369073095844 767.2661724223996  1752.0966994409252 766.484912147788  L 1751.8623024089313 767.4570531002184  Z M 1739.226661864687 764.396355379678  C 1742.465743325585 765.1845567707744  1745.7054618993318 765.9701376625964  1748.9458144070118 766.753097284308  L 1749.1806832801453 765.781070220676  C 1745.9408550101234 764.998237269417  1742.7016605702202 764.2127834718233  1739.4631031413453 763.4247095992146  L 1739.226661864687 764.396355379678  Z M 1726.597487022898 761.3090871186693  C 1729.8349034468306 762.1040997231668  1733.072962494058 762.8964931742654  1736.3116609872934 763.686266694443  L 1736.5485738644982 762.7147357949784  C 1733.3103993413276 761.9250900476341  1730.0728641594592 761.132824792925  1726.835971498173 760.3379408088616  L 1726.597487022898 761.3090871186693  Z M 1713.9748337566953 758.1952619756752  C 1717.2105708189783 758.9970822758554  1720.4469560179452 759.7962847815297  1723.6839861663786 760.5928687056368  L 1723.922941999521 759.62183826852  C 1720.686435549312 758.825383218587  1717.4505739487593 758.0263100118491  1714.2153603755005 757.2246194330024  L 1713.9748337566953 758.1952619756752  Z M 1701.3585083260928 755.0574817817486  C 1702.646148578086 755.3783864579597  1703.9338529696745 755.6990337095856  1705.2216214272182 756.0194235182917  C 1707.1684601963307 756.504869382143  1709.1155352210535 756.9893672678265  1711.0628458107617 757.4729170034901  L 1711.3038435426697 756.5023913246874  C 1709.3567632782701 756.018898782644  1707.4099185586713 755.5344581608355  1705.463310079629 755.0490696323895  C 1704.175586239681 754.7286909602691  1702.887926457961 754.4080548347927  1701.600330827548 754.0871612791362  L 1701.3585083260928 755.0574817817486  Z M 1688.745764366805 751.9053967020004  C 1691.9792732376436 752.7157348913801  1695.2131888469175 753.5244491836136  1698.4475099787644 754.3315392746489  L 1698.689624842057 753.3612916810044  C 1695.4556285447338 752.5542826489348  1692.2220377285405 751.7456495786123  1688.9888536106473 750.9353927744164  L 1688.745764366805 751.9053967020004  Z M 1676.1371468398472 748.7368458358346  C 1679.3695948949066 749.551405330467  1682.602451808384 750.3643414604168  1685.835716364805 751.1756539200436  L 1686.0790978750376 750.2057232831027  C 1682.8461580470246 749.394492306509  1679.6136258202998 748.5816378224839  1676.381502411644 747.7671601369962  L 1676.1371468398472 748.7368458358346  Z M 1663.5326772411024 745.5518345851735  C 1666.764058969525 746.3706139963522  1669.9958516756456 747.1877705780807  1673.2280541443906 748.0033040231284  L 1673.4727018866333 747.0336919964828  C 1670.240824039627 746.2182404583972  1667.0093559133766 745.4011659464676  1663.7782987242629 744.582468768255  L 1663.5326772411024 745.5518345851735  Z M 1650.9323770593728 742.350368380004  C 1654.1626869521178 743.173366311828  1657.3934099411406 743.9947419521998  1660.6245448117702 744.8144949923012  L 1660.8704583689337 743.8452032290002  C 1657.63964801282 743.0255325196499  1654.4092494962324 742.2042393728112  1651.1792640351478 741.3813240976347  L 1650.9323770593728 742.350368380004  Z M 1638.3362677763573 739.1324526783652  C 1641.5655003262113 739.9596677277412  1644.7951480902202 740.7852610264273  1648.0252098541139 741.6092322640214  L 1648.2723888069506 740.6402624165677  C 1645.0426514497963 739.8163739333734  1641.8133280502354 738.9908635518145  1638.5844198238399 738.1637315826259  L 1638.3362677763573 739.1324526783652  Z M 1625.7443708666062 735.8980929663389  C 1628.9725205681932 736.7295237229848  1632.2010876011013 737.5593332724675  1635.4300707514699 738.3875213028022  L 1635.6785146785755 737.4188750231498  C 1632.449855830467 736.5907701717099  1629.221613045767 735.7610439608283  1625.9937875627327 734.9296967087598  L 1625.7443708666062 735.8980929663389  Z M 1613.1567077974946 732.6472947580429  C 1616.3837691472838 733.4829398044886  1619.6112499448507 734.3169641900638  1622.839148976742 735.1493676011976  L 1623.0888574545559 734.1810465407491  C 1619.8612826160413 733.3487267318811  1616.6341259575906 732.5147861082072  1613.4073887170457 731.6792249896001  L 1613.1567077974946 732.6472947580429  Z M 1600.5733000291748 729.3800635956195  C 1603.7992675254914 730.2199215072108  1607.025656585326 731.0581593069872  1610.2524659956375 731.8947766797922  L 1610.5034385984422 730.9267824893956  C 1607.2769532720718 730.0902491420848  1604.050888241709 729.2520955273669  1600.8252447447758 728.4123219667326  L 1600.5733000291748 729.3800635956195  Z M 1587.9941690145438 726.0964050492305  C 1591.2190371575773 726.9404743941304  1594.4443289791518 727.7829241790332  1597.6700432666375 728.6237540871971  L 1597.922279566561 727.6560884171431  C 1594.6968892491823 726.8153429565562  1591.4719213545727 725.9729777817342  1588.2473770966649 725.1289932097595  L 1587.9941690145438 726.0964050492305  Z M 1575.4193361992097 722.7963247170368  C 1578.6430994910252 723.6446040562288  1581.8672885756782 724.4912643900008  1585.0919022409605 725.3363054000298  L 1585.3454018079758 724.3689699000491  C 1582.121112002261 723.5240137605331  1578.8972467338212 722.6774384597215  1575.6738072161675 721.8292443162796  L 1575.4193361992097 722.7963247170368  Z M 1562.8488230214498 719.4798282252023  C 1566.0714759621521 720.3323161114757  1569.2945568207954 721.1831855527134  1572.5180643625285 722.0324362229219  L 1572.7728267644557 721.0654325421822  C 1569.549642967356 720.2162671642659  1566.3268858213064 719.3654831807518  1563.104556539408 718.5130809118918  L 1562.8488230214498 719.4798282252023  Z M 1550.282650912183 716.1469212278773  C 1553.5041880152964 717.0036162098955  1556.726155137671 717.8586933039309  1559.9485510679242 718.7121521884932  L 1560.2045758704298 717.7454819755964  C 1556.982503577009 716.8921088069845  1553.7608600476888 716.0371175912336  1550.539646495153 715.1805086501788  L 1550.282650912183 716.1469212278773  Z M 1537.7208412949226 712.7976094071864  C 1540.941257064349 713.6585100233918  1544.1621049651467 714.5177933144685  1547.383383786357 715.3754589573481  L 1547.640670552956 714.4091238603279  C 1544.4197152602233 713.5515443569211  1541.199190832393 712.6923473645228  1537.9790985047634 711.831533212694  L 1537.7208412949226 712.7976094071864  Z M 1525.163415585744 709.4318984732241  C 1528.3827045311377 710.297003255905  1531.602427719278 711.1604912790704  1534.822583939628 712.0223622180706  L 1535.0811322316833 711.0563638843892  C 1531.861299427062 710.1945795072197  1528.6418995989343 709.3311782050181  1525.4229339821647 708.4661603089584  L 1525.163415585744 709.4318984732241  Z M 1512.6103951932487 706.0497941640439  C 1515.8285518261857 706.9191016383212  1519.047144812504 707.7867929214523  1522.2661729420913 708.6528676872074  L 1522.5259823188155 707.6872077637529  C 1519.30727748782 706.8212199810066  1516.0890077556803 705.9536158430454  1512.8711743338076 705.0843956764496  L 1512.6103951932487 706.0497941640439  Z M 1500.0618015185328 702.6513022456462  C 1503.2788203525197 703.5248109294758  1506.4962776497784 704.3967039932838  1509.7141722006236 705.266981109261  L 1509.9752422190786 704.3016612423444  C 1506.7576708568122 703.4314715324707  1503.540536692 702.5596660337529  1500.3238409586393 701.6862450805887  L 1500.0618015185328 702.6513022456462  Z M 1487.5176559551403 699.2364285119705  C 1490.733531505623 700.1141369161459  1493.9498476285205 700.9902302741781  1497.1666031145764 701.8647082566802  L 1497.428933329676 700.899730092033  C 1494.2125009139625 700.0253399365051  1490.99650781657 699.1493345674917  1487.7809552480546 698.2717143147335  L 1487.5176559551403 699.2364285119705  Z M 1474.9779798890336 695.8051787848849  C 1478.1927066734074 696.6870854130397  1481.4078761385867 697.5673775716851  1484.623487075749 698.4460549298532  L 1484.8870770402573 697.4814201126243  C 1481.6717890584864 696.602831003189  1478.4569425036495 695.7226272552617  1475.2425385858683 694.8408092001669  L 1474.9779798890336 695.8051787848849  Z M 1462.4427946985516 692.3575589141744  C 1465.6563672361694 693.2436622627845  1468.8703845622324 694.1281517212723  1472.0848454683462 695.0110269570876  L 1472.3496947328806 694.0467371318402  C 1469.135556666656 693.1639505663655  1465.921862135223 692.2795499401454  1462.7086123482723 691.393535586087  L 1462.4427946985516 692.3575589141744  Z M 1449.9121217543855 688.8935747775384  C 1453.1245345665698 689.7838733359255  1456.3373942740768 690.672558586324  1459.55069966895 691.5596301946117  L 1459.816807781981 690.5956870053213  C 1456.6038251147752 689.7087044898885  1453.3912880779747 688.8201084910364  1450.1791979038114 687.9298993496024  L 1449.9121217543855 688.8935747775384  Z M 1437.385982419526 685.4132322805698  C 1440.597230029575 686.3077245309028  1443.8089266410645 687.2006040581336  1447.021071046474 688.0918705265642  L 1447.288437554325 687.1282756166154  C 1444.0766157599794 686.2370986623496  1440.8652417023852 685.3443088079003  1437.6543166133306 684.4499063957129  L 1437.385982419526 685.4132322805698  Z M 1424.8643980492375 681.9165373567478  C 1428.0744749824369 682.8152217740463  1431.2850030224267 683.7122940558797  1434.495980962129 684.6077538649723  L 1434.764605408979 683.6445088771553  C 1431.5539499593597 682.7491390023175  1428.3437443635576 681.852156816487  1425.1339898299498 680.9535626573022  L 1424.8643980492375 681.9165373567478  Z M 1412.347389991018 678.4034959674385  C 1415.5562907746487 679.3063710195752  1418.7656447696493 680.2076345266303  1421.9754507693892 681.1072861497548  L 1422.2453326972723 680.1443927262637  C 1419.035849069913 679.2448314583929  1415.8268174011869 678.3436584682796  1412.6182388990226 677.4408740951372  L 1412.347389991018 678.4034959674385  Z M 1399.8349795845627 674.874114101867  C 1403.0426987479095 675.7811782495694  1406.2508732264412 676.6866314453266  1409.4595018139603 677.5904733487063  L 1409.7306407627661 676.6279331311358  C 1406.5223344293756 675.7241820038548  1403.3144821586566 674.818819745824  1400.1070851581014 673.9118466978418  L 1399.8349795845627 674.874114101867  Z M 1387.3271881617343 671.3283977771267  C 1390.5337202360997 672.2396494739814  1393.7407097286805 673.1492908147675  1396.9481554337308 674.0573214574823  L 1397.220550941207 673.0951360868249  C 1394.0134273714843 672.187196640899  1390.806759967703 671.2776466584689  1387.6005499369062 670.3664864819051  L 1387.3271881617343 671.3283977771267  Z M 1374.824037046513 667.7663530381521  C 1378.0293765652202 668.681790730606  1381.2351756043988 669.5956186656149  1384.441432958746 670.5078364996032  L 1384.7150845604967 669.5460076162465  C 1381.5091492221263 668.6338813995816  1378.3036721521878 667.720145243403  1375.0986545572757 666.8047994916544  L 1374.824037046513 667.7663530381521  Z M 1362.3255475549718 664.1879859577135  C 1365.5296890533791 665.1076080850772  1368.734292173727 666.0256210563647  1371.9393557111646 666.9420245264265  L 1372.2142629406542 665.9805537701503  C 1369.0095213031152 665.064242338883  1365.8052400242555 664.1463215645539  1362.601420333142 663.2267917992498  L 1362.3255475549718 664.1879859577135  Z M 1993.0934422282469 820.5446027507733  C 1994.7282561641837 820.8702715880906  1996.363201776652 821.1952790885961  1997.9982786602 821.5196251716916  L 1998.1920613661148 820.5385803626505  C 1996.5575135390495 820.2143390047896  1994.923096924774 819.8894365515628  1993.2888119178053 819.5638730813935  L 1993.0934422282469 820.5446027507733  Z M 1995.9044672137695 827.0342243175614  L 2003 822  L 1998.3176794500403 814.6674783145615  L 1995.9044672137695 827.0342243175614  Z " fill-rule="nonzero" fill="rgba(2, 167, 240, 1)" stroke="none" class="fill" />
  </g>
</svg>