<?xml version="1.0" encoding="utf-8"?>
<svg version="1.1" xmlns:xlink="http://www.w3.org/1999/xlink" width="19.20504522383169px" height="18px" viewBox="2236.5070275130915 812.0702689796658 19.20504522383169 18" xmlns="http://www.w3.org/2000/svg">
  <g transform="matrix(-0.9726124687480824 0.23243275508353897 -0.23243275508353353 -0.9726124687481011 4621.547329486857 1097.5840193526421 )">
    <path d="M 2227.5152696997516 817.1324376684786  L 2235.0164194949593 818.9299915432463  L 2237.2403614314812 819.4619646179043  L 2237.473001190722 818.4894016418351  L 2235.24935888611 817.9575002833384  L 2227.7483089616976 816.1599703413196  L 2227.5152696997516 817.1324376684786  Z M 2214.873466706009 814.1009515732025  L 2219.795735219456 815.2825507184376  L 2224.5978677182743 816.4333198826414  L 2224.8309069802203 815.4608525554825  L 2220.029060434886 814.3101519558652  L 2215.1068872333153 813.1285756904123  L 2214.873466706009 814.1009515732025  Z M 2202.23257713078 811.0656957993028  L 2204.2217314183426 811.5439839318004  L 2211.956339057638 813.4006899912835  L 2212.1897595849446 812.4283141084933  L 2204.455425136333 810.5716736649911  L 2202.466361906871 810.09340742723  L 2202.23257713078 811.0656957993028  Z M 2189.592828293832 808.0264937101228  L 2199.315712014561 810.3643414710306  L 2199.549496790652 809.3920530989577  L 2189.826613069923 807.05420533805  L 2189.592828293832 808.0264937101228  Z M 2176.9538830763813 804.9831863651862  L 2186.675928545036 807.3245175902384  L 2186.9100616675414 806.352313043373  L 2177.1880161988865 804.0109818183207  L 2176.9538830763813 804.9831863651862  Z M 2164.3156936433015 801.9367749859316  L 2172.013762954559 803.7934719646494  L 2174.0372694357848 804.2807869976705  L 2174.27140255829 803.308582450805  L 2172.24814617806 802.821327679116  L 2164.550160228873 800.9646508064923  L 2164.3156936433015 801.9367749859316  Z M 2151.678213218998 798.8874541233372  L 2155.3797972710167 799.7815265560047  L 2161.3993211049838 801.233375229217  L 2161.6337876905554 800.2612510497777  L 2155.6145034947444 798.8094602026646  L 2151.9129993180754 797.9154070629127  L 2151.678213218998 798.8874541233372  Z M 2139.041601433479 795.8352348353295  L 2148.7620720377245 798.1830958261046  L 2148.996858136802 797.2110487656801  L 2139.276387532557 794.863187774905  L 2139.041601433479 795.8352348353295  Z M 2126.405749811321 792.7791996304812  L 2136.125479781318 795.1301248335336  L 2136.3605723016235 794.1581518365339  L 2126.6408423316266 791.8072266334815  L 2126.405749811321 792.7791996304812  Z M 2113.7704871041037 789.7207577909398  L 2121.0519007559574 791.484256384481  L 2123.489830820322 792.0739220695656  L 2123.7249233406274 791.1019490725658  L 2121.2872138667994 790.5123367655881  L 2114.0058737418117 788.74885597965  L 2113.7704871041037 789.7207577909398  Z M 2101.1357788509586 786.6600512303135  L 2103.3579691344667 787.1989314433869  L 2110.854781670234 789.0145978778163  L 2111.090168307942 788.0426960665264  L 2103.593567679594 786.227080976074  L 2101.371448028639 785.6882178913652  L 2101.1357788509586 786.6600512303135  Z M 2088.5019454446315 783.5963519204645  L 2098.220278834114 785.9530436972714  L 2098.4559480117946 784.9812103583231  L 2088.737614622312 782.6245185815162  L 2088.5019454446315 783.5963519204645  Z M 2075.868616636583 780.5299803756884  L 2085.310714795151 782.8224798244871  L 2085.586445427786 782.8893443874224  L 2085.8221146054675 781.9175110484741  L 2085.5465876997946 781.8506959093404  L 2076.1045574471314 779.5582129477934  L 2075.868616636583 780.5299803756884  Z M 2063.2357494798766 777.4617298631609  L 2066.9101374154793 778.3549014545041  L 2072.953314352898 779.8221579440433  L 2073.1892551634464 778.8503905161483  L 2067.1462742371828 777.3831816358545  L 2063.4719516357486 776.4900259259654  L 2063.2357494798766 777.4617298631609  Z M 2050.6035982963335 774.391101836825  L 2060.3206376682897 776.7531233955449  L 2060.5568398241617 775.7814194583493  L 2050.8398004522055 773.4193978996294  L 2050.6035982963335 774.391101836825  Z M 2037.9719627729366 771.3178057526645  L 2047.6883901335225 773.6823436243122  L 2047.9248439206874 772.7107008882537  L 2038.2084165601016 770.3461630166059  L 2037.9719627729366 771.3178057526645  Z M 2025.3407112912266 768.242951648907  L 2029.0490123640159 769.1463641943905  L 2035.0570345647607 770.6084443911702  L 2035.2934883519256 769.6368016551116  L 2029.2856479896216 768.1747657255846  L 2025.5774075273182 767.2713679459663  L 2025.3407112912266 768.242951648907  Z M 2012.710123152997 765.1659005797152  L 2022.4259601824044 767.532862940632  L 2022.662656418496 766.5612792376912  L 2012.9468193890887 764.1943168767745  L 2012.710123152997 765.1659005797152  Z M 2000.0799757860539 762.0865331875208  L 2009.5884641591151 764.4054051823787  L 2009.7953720441749 764.4558118714401  L 2010.0320682802665 763.4842281684994  L 2009.8253357172873 763.4338642061211  L 2000.3169057822718 761.1150064627765  L 2000.0799757860539 762.0865331875208  Z M 1987.4501472634001 759.0058761084956  L 1989.7745918456505 759.5733191751481  L 1997.1653956118212 761.3757431988677  L 1997.402325608039 760.4042164741234  L 1990.0116909909202 758.601833715308  L 1987.6873027897605 758.034404412399  L 1987.4501472634001 759.0058761084956  Z M 1974.8210152141448 755.9228542658107  L 1984.5357321751105 758.2944095294145  L 1984.7728877014708 757.3229378333178  L 1975.0581707405051 754.951382569714  L 1974.8210152141448 755.9228542658107  Z M 1962.1921802220036 752.8381438500568  L 1969.6073952008896 754.6501061214698  L 1971.9066001258552 755.2113876867295  L 1972.1437556522155 754.2399159906329  L 1969.8447140240578 753.6786743022927  L 1962.429553475598 751.8667253313544  L 1962.1921802220036 752.8381438500568  Z M 1949.5637394788723 749.7522915533285  L 1959.2779246658963 752.1260240892733  L 1959.5152979194906 751.1546055705709  L 1949.8011127324667 748.7808730346261  L 1949.5637394788723 749.7522915533285  Z M 1936.9358367697366 746.6637825920219  L 1946.6495077773359 749.039618351524  L 1946.8870913532862 748.0682512507642  L 1937.173420345687 745.6924154912621  L 1936.9358367697366 746.6637825920219  Z M 1924.3081627936845 743.5743539863186  L 1928.2130281073198 744.530298688022  L 1934.021735467457 745.9510318641713  L 1934.2593190434072 744.9796647634115  L 1928.450764151599 743.5589688902764  L 1924.5459496585254 742.6030366298849  L 1924.3081627936845 743.5743539863186  Z M 1911.6810371600475 740.4831247433876  L 1921.3942107243836 742.8609933917961  L 1921.6319975892245 741.8896760353624  L 1911.9188240248884 739.5118073869539  L 1911.6810371600475 740.4831247433876  Z M 1899.0542064375034 737.3902659256487  L 1906.9858572873113 739.3337042224766  L 1908.7670850907468 739.7697641488651  L 1909.0048719555878 738.7984467924314  L 1907.2237916052013 738.362422974366  L 1899.2921899047544 736.4189967202708  L 1899.0542064375034 737.3902659256487  Z M 1886.4277067675919 734.2964808513871  L 1896.1403988213701 736.676315523896  L 1896.3783822886212 735.7050463185182  L 1886.665690234843 733.3252116460092  L 1886.4277067675919 734.2964808513871  Z M 1873.8016691243117 731.2003995699247  L 1883.513894847362 733.5821366470431  L 1883.7520685550737 732.6109140747379  L 1874.0398428320234 730.2291769976196  L 1873.8016691243117 731.2003995699247  Z M 1861.1757904047552 728.1036833999301  L 1863.471494214202 728.6671222977494  L 1870.8880014073966 730.4858784467891  L 1871.1261751151083 729.514655874484  L 1863.7098521042915 727.6959449111552  L 1861.4141482948446 727.1325060133358  L 1861.1757904047552 728.1036833999301  Z M 1848.5504843790288 725.0050308287692  L 1858.2622582449721 727.3886097296622  L 1858.5006161350616 726.417432343068  L 1848.7888422691183 724.033853442175  L 1848.5504843790288 725.0050308287692  Z M 1835.9253263660587 721.9053902084939  L 1841.1843491449197 723.1971464142557  L 1845.636952219246 724.2899571585014  L 1845.8753101093355 723.3187797719071  L 1841.422885444122 722.2260128323201  L 1836.163862665261 720.9342566265583  L 1835.9253263660587 721.9053902084939  Z M 1823.3005898008964 718.8044183188671  L 1833.011925620252 721.1897813108877  L 1833.2504619194542 720.2186477289521  L 1823.5391261000987 717.8332847369314  L 1823.3005898008964 718.8044183188671  Z M 1810.6761110046439 715.7020243276844  L 1818.5438784896078 717.636043193551  L 1820.38718905509 718.0888094212609  L 1820.6257253542922 717.1176758393252  L 1818.7825876918992 716.6649520975453  L 1810.9148202069352 714.7309332316787  L 1810.6761110046439 715.7020243276844  Z M 1798.0519267565708 712.5988046978961  L 1807.762837716627 714.9858967208102  L 1808.0015469189184 714.0148056248045  L 1798.2906359588621 711.6277136018904  L 1798.0519267565708 712.5988046978961  Z M 1785.4280884127695 709.4938169314958  L 1795.138587114504 711.8825854350584  L 1795.37746396486 710.9115355648851  L 1785.6669652631256 708.5227670613224  L 1785.4280884127695 709.4938169314958  Z M 1772.8044401005147 706.3884178768642  L 1782.5149388022492 708.777186380427  L 1782.7538156526052 707.8061365102536  L 1773.0433169508708 705.4173680066908  L 1772.8044401005147 706.3884178768642  Z M 1760.1812059598985 703.2809853553805  L 1769.8913044522058 705.6713801490688  L 1770.1303439315745 704.700370299838  L 1760.4202454392673 702.3099755061497  L 1760.1812059598985 703.2809853553805  Z M 1747.558036811339 700.1732991644736  L 1748.5025117895145 700.4059692234498  L 1757.2681764122062 702.5638669172739  L 1757.507215891575 701.5928570680431  L 1748.7417091008967 699.4349982423039  L 1747.7972341227212 699.2023281833277  L 1747.558036811339 700.1732991644736  Z M 1734.935414056442 697.0637341165043  L 1744.6451238679012 699.4557072303269  L 1744.8843211792835 698.484736249181  L 1735.1746113678241 696.0927631353584  L 1734.935414056442 697.0637341165043  Z M 1722.3127977565357 693.9538130671009  L 1724.448737607503 694.4803563772554  L 1732.022501113004 696.3461421823575  L 1732.2616984243862 695.3751712012116  L 1724.688088163045 693.5094231604161  L 1722.5521483120776 692.9828798502616  L 1722.3127977565357 693.9538130671009  Z M 1709.6906659376261 690.8422558450542  L 1719.399998106018 693.2357614004748  L 1719.63934866156 692.2648281836355  L 1709.930016493168 689.8713226282149  L 1709.6906659376261 690.8422558450542  Z M 1697.0685720952054 687.7302244526476  L 1700.041637281796 688.4636160632073  L 1706.7778662871085 690.124204178428  L 1707.0172168426504 689.1532709615888  L 1700.2811366908065 687.4927195532313  L 1697.3080715042158 686.7593279426716  L 1697.0685720952054 687.7302244526476  Z M 1684.4469174655171 684.6167321355111  L 1694.1558825652774 687.011726225616  L 1694.3953819742878 686.04082971564  L 1684.6864168745276 683.6458356255351  L 1684.4469174655171 684.6167321355111  Z M 1671.8253175655595 681.5027070773683  L 1675.281210719381 682.3557482594166  L 1681.534227935589 683.8982339084797  L 1681.7737273445994 682.9273373985037  L 1675.5208547771938 681.3848874426384  L 1672.0649616233723 680.5318462605901  L 1671.8253175655595 681.5027070773683  Z M 1659.204126947444 678.387334325804  L 1668.9127351152251 680.7837749039304  L 1669.1523791730378 679.8129140871522  L 1659.4437710052566 677.4164735090258  L 1659.204126947444 678.387334325804  Z M 1646.582994215308 675.2714250203214  L 1650.167457832427 676.1567529451851  L 1656.2915444971095 677.6684021523661  L 1656.5311885549222 676.6975413355879  L 1650.4072425100387 675.1859268493355  L 1646.8227788929196 674.3005989244718  L 1646.582994215308 675.2714250203214  Z M 1633.9622549692629 672.1542242113685  L 1643.6705159277592 674.5520709874861  L 1643.9103006053708 673.5812448916365  L 1634.2020396468745 671.1833981155189  L 1633.9622549692629 672.1542242113685  Z M 1621.3415642462899 669.0365333478437  L 1624.7003785379263 669.8666301009265  L 1631.049776681714 671.4348701785332  L 1631.2895613593257 670.4640440826836  L 1624.9402999723472 668.8958377929092  L 1621.5814856807108 668.0657410398264  L 1621.3415642462899 669.0365333478437  Z M 1608.721264242066 665.9175547003723  L 1618.429187322238 668.3167690445811  L 1618.669108756659 667.3459767365638  L 1608.9611856764868 664.946762392355  L 1608.721264242066 665.9175547003723  Z M 2240.158050359689 820.1598838956266  L 2245.0208652400343 821.3230826918306  L 2245.2535049960647 820.350519729182  L 2240.3906901189293 819.1873209195575  L 2240.158050359689 820.1598838956266  Z M 1598.8800392827895 663.4853961540086  L 1605.808887318014 665.1977903971097  L 1606.048808752435 664.2269980890924  L 1599.1199607172105 662.5146038459914  L 1598.8800392827895 663.4853961540086  Z M 2242.699998830485 826.7328620226116  L 2250 822  L 2245.628651544538 814.4779449163856  L 2242.699998830485 826.7328620226116  Z " fill-rule="nonzero" fill="rgba(2, 167, 240, 1)" stroke="none" class="fill" />
  </g>
</svg>