<?xml version="1.0" encoding="utf-8"?>
<svg version="1.1" xmlns:xlink="http://www.w3.org/1999/xlink" width="314px" height="10px" viewBox="2202 776 314 10" xmlns="http://www.w3.org/2000/svg">
  <g transform="matrix(-0.9659258262890718 0.2588190451025155 -0.25881904510251236 -0.9659258262890442 4839.756698440982 924.8339429349091 )">
    <path d="M 2484.7715540401373 816.0742527939173  C 2487.97405460245 816.9982569386426  2491.1760067320124 817.9241608292301  2494.377408741833 818.8519639778565  L 2494.6557661912807 817.8914864245858  C 2491.4539843228795 816.9635731885709  2488.251652272074 816.0375594367041  2485.048771720833 815.1134456553565  L 2484.7715540401373 816.0742527939173  Z M 2472.2790280512495 812.4802702882454  C 2475.482949991876 813.3993337841227  2478.6863264305807 814.3202978695085  2481.8891556796207 815.2431620591798  L 2482.1660313535212 814.2822563087537  C 2478.962822080371 813.3592826188203  2475.7590655437884 812.4382092560825  2472.554763449401 811.5190367109052  L 2472.2790280512495 812.4802702882454  Z M 2459.7809735492306 808.9055605799344  C 2462.986309242182 809.8196812394114  2466.1911023768016 810.7357033307949  2469.395351241673 811.653626364912  L 2469.6707444813364 810.6922947033365  C 2466.4661154200935 809.7742627541437  2463.26094202714 808.858131973987  2460.0552260088602 807.9439028506008  L 2459.7809735492306 808.9055605799344  Z M 2447.277420267098 805.3501321732614  C 2450.4841620944867 806.259307823814  2453.690364285498 807.1703857375985  2456.8960251508956 808.0833654346009  L 2457.1699353011586 807.1216101488951  C 2453.963894075672 806.2085221244516  2450.7573114514917 805.2973361063626  2447.5501891357553 804.3880525797291  L 2447.277420267098 805.3501321732614  Z M 2434.768397950951 801.8139935266299  C 2437.9765382800797 802.718222004229  2441.184141907529 803.6243535751349  2444.391207143329 804.532387761939  L 2444.663633552556 803.57021114013  C 2441.4561877862116 802.6620692116002  2438.248203566953 801.7558301254604  2435.039682579716 800.8514943576974  L 2434.768397950951 801.8139935266299  Z M 2422.2539363598944 798.2971530525562  C 2425.46346755856 799.1964322060317  2428.6724649915236 800.0976152783608  2431.8809269680805 801.0007017947426  L 2432.151868988166 800.0381061258597  C 2428.9430263153363 799.1349124548121  2425.733648125183 798.2336224544031  2422.523736103378 797.3342365980201  L 2422.2539363598944 798.2971530525562  Z M 2409.7340652659796 794.7996191176438  C 2412.9449796986705 795.6939468076002  2416.1553633029043 796.5901792374272  2419.3652143872505 797.4883159349336  L 2419.63467137362 796.5253035090029  C 2416.4244394281786 795.6270602441458  2413.213674902281 794.7307214736476  2410.0023794823246 793.8362876682937  L 2409.7340652659796 794.7996191176438  Z M 2397.208814454124 791.3214000425666  C 2400.4211044782073 792.2107741403274  2403.6328666238333 793.1020537976307  2406.844099175866 793.995238538519  L 2407.1120704874784 793.0318116465584  C 2403.9004569104322 792.1385209258876  2400.6883136795773 791.2471355155751  2397.475642505008 790.357655890179  L 2397.208814454124 791.3214000425666  Z M 2384.678213722045 787.8625041020473  C 2387.8918717031047 788.7469224939022  2391.1050047339863 789.6332472540678  2394.317611121804 790.5214779155709  L 2394.584096121152 789.5576388495841  C 2391.371108549141 788.6693027971779  2388.1575942627096 787.782872869803  2384.943554972682 786.8983495393809  L 2384.678213722045 787.8625041020473  Z M 2372.1422928801867 784.4229395248407  C 2375.3573111690644 785.3024001056876  2378.5718074487777 786.1837678622627  2381.7857800257243 787.0670423302049  L 2382.0507780788375 786.102793383176  C 2378.836424155596 785.2194141123963  2375.621546458575 784.337941776787  2372.4061466993253 783.4583768456301  L 2372.1422928801867 784.4229395248407  Z M 2359.60108175165 781.0027144937088  C 2362.8174526997796 781.877215171301  2366.033304581001 782.753623827502  2369.2486357009984 783.631940000563  L 2369.5121461774434 782.6672834664516  C 2366.2964335461234 781.7888630778207  2363.080200094412 780.9123504330989  2359.8634475115796 780.03774599266  L 2359.60108175165 781.0027144937088  Z M 2347.0546101721225 777.601837145409  C 2350.2723261277206 778.4713758392992  2353.489525959901 779.3428233101397  2356.7062079736393 780.2161790987952  L 2356.968230246521 779.2511172725303  C 2353.751166561172 778.3776578568735  2350.5335849985627 777.5061069861719  2347.3154872486716 776.6364651181932  L 2347.0546101721225 777.601837145409  Z M 2334.502907989802 774.2203155706674  C 2337.721961294047 775.084890211182  2340.9405014311074 775.9513744255437  2344.1585266822253 776.8197677510348  L 2344.4190601281903 775.8543029285097  C 2341.200653042243 774.985806563797  2337.981731023399 774.1192195405456  2334.7622957623416 773.2545423139155  L 2334.502907989802 774.2203155706674  Z M 2321.9460050653356 770.8581578141609  C 2325.166388063899 771.7177663455038  2328.386260841221 772.5792852399334  2331.605621677835 773.4427140373836  L 2331.8646656770716 772.4768485154501  C 2328.6449228509923 771.6133172688737  2325.4246680260903 770.7516961526388  2322.2039029167786 769.891985625459  L 2321.9460050653356 770.8581578141609  Z M 2309.38393127174 767.515371874503  C 2312.605636303293 768.3700122516555  2315.8268340607633 769.2265637765897  2319.047522823977 770.0850259918919  L 2319.305076760216 769.1187620683555  C 2316.084005846134 768.2601979922077  2312.862425891551 767.4035448369036  2309.640338588545 766.5488030523859  L 2309.38393127174 767.515371874503  Z M 2296.8167164943343 764.19196570422  C 2300.039735898246 765.0416358949956  2303.2622509649145 765.893218010658  2306.4842599965127 766.7467116025382  L 2306.74032325703 765.7800515761519  C 2303.51793192559 764.9264567150133  2300.2950344901415 764.0747735545434  2297.071632666505 763.2250025481661  L 2296.8167164943343 764.19196570422  Z M 2284.244390630668 760.8879472097352  C 2287.468716731653 761.7326451907328  2290.692541456486 762.579255875259  2293.91586308359 763.427778811211  L 2294.170435059208 762.4607249816702  C 2290.9467309688334 761.6121013642179  2287.7225237351972 760.7653902288088  2284.4978150517563 759.920592020161  L 2284.244390630668 760.8879472097352  Z M 2271.6669835904504 757.6033242513432  C 2274.892608725487 758.4430480150306  2278.1177354235942 759.2846852502902  2281.34236198557 760.1282355136914  L 2281.59544207066 759.1607901816283  C 2278.3704328982653 758.3171398287708  2275.1449235214945 757.4754027287173  2271.9189156575558 756.6355793295978  L 2271.6669835904504 757.6033242513432  Z M 2259.084525295479 754.3381046432053  C 2262.3114417869247 755.1728521908628  2265.537862793379 756.009513976607  2268.76378661496 756.8480895596298  L 2269.015374207441 755.8802550266079  C 2265.7890676176726 755.041579943388  2262.56226378667 754.2048188852087  2259.3349644092527 753.3699722915651  L 2259.084525295479 754.3381046432053  Z M 2246.4970456795645 751.0922961533122  C 2249.7252458466983 751.9220654980767  2252.9529534935045 752.75374984586  2256.180166896332 753.5873487525297  L 2256.4302613976747 752.6191273210387  C 2253.2026650736448 751.7854295046735  2249.974574449628 750.9536464750433  2246.745991244209 750.1237786749755  L 2246.4970456795645 751.0922961533122  Z M 2233.9045746884694 747.8659065034809  C 2237.134050859063 748.6906956732998  2240.3630374520744 749.5174006005708  2243.5915327662665 750.3460208497335  L 2243.840133581492 749.3774148231834  C 2240.611255193995 748.548696255062  2237.381885472021 747.7218932367672  2234.1520261117403 746.8970062025618  L 2233.9045746884694 747.8659065034809  Z M 2221.307142279827 744.6589433693313  C 2224.537886767071 745.4787504010326  2227.7681446321862 746.3004739430327  2230.9979141732674 747.1241135623974  L 2231.2450207109523 746.155125245113  C 2228.014867945374 745.3313878977605  2224.7842268004565 744.5095668557926  2221.5530989730346 743.6896625508547  L 2221.307142279827 744.6589433693313  Z M 2208.7049389940585 741.4694801580764  C 2209.826406203539 741.7529728246792  2210.947838952821 742.036601764298  2212.069237231552 742.3203669743161  C 2214.1794785276343 742.8533054418729  2216.2895133076304 743.3870613439005  2218.3993410777002 743.9216345554762  L 2218.6449527499753 742.9522662526922  C 2216.5349501545047 742.4176487450951  2214.424740550706 741.8838485883867  2212.314324409735 741.3508659017516  C 2211.1929231238955 741.0670999503251  2210.0714873347047 740.7834702516263  2208.9500171225754 740.4999768259921  L 2208.7049389940585 741.4694801580764  Z M 2196.1003885127934 738.2893134163324  C 2199.3326955219954 739.1032695603485  2202.5647174338355 739.9183574866048  2205.79645363095 740.734577039408  L 2206.041328068948 739.7650222397111  C 2202.8093655433313 738.9487455245229  2199.577117282065 738.1336005149021  2196.3445839043848 737.3195873670146  L 2196.1003885127934 738.2893134163324  Z M 2183.4929480327714 735.120623169122  C 2186.7259947277394 735.9316362850933  2189.958757355836 736.7437814423886  2193.191235299559 737.557058485876  L 2193.43522695386 736.5872811544068  C 2190.2025226219807 735.7739471526683  2186.9695336079976 734.9617451219732  2183.736260485041 734.1506752063061  L 2183.4929480327714 735.120623169122  Z M 2170.8826280033845 731.9634120427501  C 2174.116411704481 732.7714814584868  2177.3499123694287 733.5806831736911  2180.5831293805945 734.3910170337969  L 2180.82623804897 733.421017974333  C 2177.5927945978874 732.6106273621035  2174.35906749537 731.8013689796248  2171.125057314668 730.9932429703557  L 2170.8826280033845 731.9634120427501  Z M 2158.269438876413 728.8176826539924  C 2161.5039569033884 729.6228076997444  2164.7381929251765 730.4290653021721  2167.9721463240053 731.2364553072689  L 2168.2143718049615 730.2662353237724  C 2164.980191914643 729.4587887727263  2161.745729403787 728.652474709196  2158.510984845778 727.8472932761221  L 2158.269438876413 728.8176826539924  Z M 2145.6533911060137 725.6834376101204  C 2148.888640785725 726.4856176204906  2152.123609468303 727.288930438059  2155.3582965821183 728.0933759208779  L 2155.5996386748916 727.1229358174937  C 2152.3647250336253 726.3184339987826  2149.12952977982 725.5150649186697  2145.894053533261 724.7128287310599  L 2145.6533911060137 725.6834376101204  Z M 2133.0344951487123 722.5606795088806  C 2136.270473784268 723.3599138151749  2139.50617247726 724.1602811897379  2142.7415906096385 724.9617814796964  L 2142.9820491141973 723.9911220607521  C 2139.746404387745 723.1895656373333  2136.510479103258 722.3891422141521  2133.274273834374 721.5898519330967  L 2133.0344951487123 722.5606795088806  Z M 2120.412761463397 719.4494109384984  C 2123.6494663804424 720.245698880202  2126.885892386586 721.0431201445665  2130.122038863637 721.841674579277  L 2130.3616135806838 720.8707966492816  C 2127.125240466265 720.0721862893291  2123.88858780226 719.274709178856  2120.651656208738 718.47836547064  L 2120.412761463397 719.4494109384984  Z M 2107.788200511308 716.3496344776833  C 2111.025629027173 717.1429753948107  2114.262779664029 717.9374498880513  2117.499651803546 718.73305780565  L 2117.7383425345133 717.7619621692937  C 2114.501243706808 716.9662985328067  2111.263866361344 716.1717683998301  2108.0262111183256 715.3783719225793  L 2107.788200511308 716.3496344776833  Z M 2095.160822756026 713.2613526956129  C 2098.398972187442 714.0517459306218  2101.6368447719706 714.8432729942529  2104.874439891145 715.6359337353182  L 2105.1122464382006 714.6646211974718  C 2101.8744245802054 713.871904943918  2098.6363252365077 713.0803224469694  2095.397949027451 712.2898738582726  L 2095.160822756026 713.2613526956129  Z M 2082.5306386634697 710.1845681519399  C 2085.7695063342917 710.972013051608  2089.008098167412 711.7605920258319  2092.2464135905566 712.5503049352677  L 2092.4833357565994 711.5787763009818  C 2089.2447935441896 710.7890080855035  2086.005974901527 710.0003738844262  2082.766880402765 709.2128738375513  L 2082.5306386634697 710.1845681519399  Z M 2069.897658701882 707.1192833967887  C 2073.137241912202 707.903779304705  2076.3765503405675 708.6894095434452  2079.615583368236 709.47617396295  L 2079.851620956899 708.5044300374541  C 2076.612361089708 707.7176105183985  2073.372825801617 706.9319252593153  2070.133015713244 706.1473744107191  L 2069.897658701882 707.1192833967887  Z M 2057.261893341823 704.0655009707476  C 2060.5021894143088 704.8470472385779  2063.742211737648 705.6297280869261  2066.981959692962 706.4135433662908  L 2067.2171125086097 705.4415849549929  C 2063.977137655981 704.657714780746  2060.7368884383695 703.8749791223428  2057.4963654301814 703.0933781185416  L 2057.261893341823 704.0655009707476  Z M 2044.6233530561624 701.023223404879  C 2047.8643593051675 701.8018193848563  2051.1050928380605 702.5815501941021  2054.345553035828 703.362415683679  L 2054.5798208835604 702.390243592165  C 2051.339133738596 701.6093234142959  2048.0981732616247 700.8295380015821  2044.8569400271797 700.0508874922589  L 2044.6233530561624 701.023223404879  Z M 2031.9820483200658 697.9924532207069  C 2035.223762067083 698.7680982693586  2038.46520410807 699.5448783895371  2041.7063738702352 700.3227934439782  L 2041.939756555884 699.3504084780108  C 2038.6983598045556 698.5724389437676  2035.456690754417 697.7956044230494  2032.2147499801392 697.0199050535712  L 2031.9820483200658 697.9924532207069  Z M 2019.3379896110002 694.973192930215  C 2022.5804081537515 695.7458864009667  2025.822556047144 696.519715195667  2029.0644326718818 697.2946791665056  L 2029.2969300020134 696.3220821320244  C 2026.054826330878 695.5470638862093  2022.8124513943628 694.773180901351  2019.5698057672605 694.0004333146383  L 2019.3379896110002 694.973192930215  Z M 2006.6911874087048 691.9654450358483  C 2009.9343080675135 692.7351862901199  2013.1771591106738 693.5060631142686  2016.4197399187558 694.278075361048  L 2016.65135170067 693.305267064168  C 2013.4085437968727 692.5332007491376  2010.1654656613482 691.7622699415533  2006.9221178690157 690.9924747780807  L 2006.6911874087048 691.9654450358483  Z M 1994.0416521951965 688.9692120305103  C 1997.285472282075 689.7360004303191  2000.5290237872405 690.5039246449943  2003.7723060911267 691.2729845278495  L 2004.0030321328568 690.299965774861  C 2000.7595226918584 689.5308520323586  1997.5157440298105 688.7628740373531  1994.2716967681572 687.9960319369761  L 1994.0416521951965 688.9692120305103  Z M 1981.3893944547576 685.9844963975656  C 1984.6339112811393 686.7483313073762  1987.8781605599634 687.5133022760976  1991.1221416715325 688.2794091576108  L 1991.351981781847 687.3061807549783  C 1988.107773484226 686.5400202206257  1984.8632969996513 685.7749956784  1981.6185529497002 685.0111072748632  L 1981.3893944547576 685.9844963975656  Z M 1968.7344246739262 683.0113006108242  C 1971.9796355506662 683.7721813975494  1975.224579914227 684.5341984862912  1978.4692571447783 685.2973517314919  L 1978.6982111331793 684.3239144858538  C 1975.453306667825 683.5607077946661  1972.208135049834 682.79863733929  1968.9626969009182 682.0377032657251  L 1968.7344246739262 683.0113006108242  Z M 1956.076753341489 680.0496271345537  C 1959.3226555788685 680.8075531675548  1962.5682923376621 681.5666157447339  1965.8136629979192 682.3268147210999  L 1966.0417306746428 681.353169439268  C 1962.796132723282 680.592917221999  1959.5502686770446 679.8338014887196  1956.3041391113322 679.0758223740022  L 1956.076753341489 680.0496271345537  Z M 1943.416390948471 677.0994784234709  C 1946.6629818561962 677.8544490745579  1949.9093083201549 678.610556511041  1953.1553697202646 679.3678005884984  L 1953.3825508962825 678.3939480774562  C 1950.136262156693 677.6366509660437  1946.8897083569912 676.8804905804045  1943.642890072702 676.125467054583  L 1943.416390948471 677.0994784234709  Z M 1930.7533479881283 674.1608569227376  C 1934.0006248753355 674.9128715661699  1937.2476383538142 675.6660232352788  1940.4943878033516 676.4203117862029  L 1940.7206822903702 675.4462528531063  C 1937.4737054531652 674.6919114752187  1934.2264645908322 673.9387070639423  1930.978960279018 673.1866397528008  L 1930.7533479881283 674.1608569227376  Z M 1918.0876349559385 671.2337650679663  C 1921.3355951389397 671.9828230822395  1924.5832929252376 672.7330183561634  1927.8307277409506 673.4843507571707  L 1928.0561353514101 672.5100862093466  C 1924.808473107773 671.7587011902028  1921.5605478742116 671.0084533775658  1918.3123602264932 670.2593429044384  L 1918.0876349559385 671.2337650679663  Z M 1905.4192623495921 668.3182052852127  C 1908.6679031209005 669.0643060459151  1911.916282554211 669.8115443100216  1915.1644000290505 670.5599199348043  L 1915.3889205761272 669.5854505797498  C 1912.1405756178096 668.8370225421185  1908.8919687049893 668.0897319499517  1905.6431004135536 667.3435789357217  L 1905.4192623495921 668.3182052852127  Z M 1892.7482406689837 665.4141799909687  C 1895.9975593437803 666.1573228814974  1899.246617716271 666.9016035128819  1902.495415165851 667.6470217429569  L 1902.719048463456 666.6723483883388  C 1899.4700234905208 665.9268779543147  1896.2207375754833 665.1825451984405  1892.9711913408287 664.4393502633118  L 1892.7482406689837 665.4141799909687  Z M 1880.074580416205 662.5216915921717  C 1883.324574301366 663.2618759965897  1886.5743089201264 664.0031983783713  1889.8237836517549 664.7456585959158  L 1890.0465295145348 663.7707820495702  C 1886.7968272043722 663.0282698334654  1883.5468650112002 662.2868955379048  1880.296643511146 661.5466592943142  L 1880.074580416205 662.5216915921717  Z M 1867.398292095532 659.6407424861964  C 1870.648958497373 660.3779677910184  1873.8993666689348 661.1163313087673  1877.1495159893575 661.8558328984097  L 1877.3713742326945 660.8807539683414  C 1874.1209972942413 660.1412005891107  1870.870361485601 659.4027853612671  1867.6194674295168 658.665508426272  L 1867.398292095532 659.6407424861964  Z M 2497.2585217960304 819.6874995468248  C 2498.858962586705 820.1519432780929  2500.459265594274 820.616861689368  2502.059430596587 821.0822547161106  L 2502.33926920854 820.1222074760299  C 2500.738724485172 819.6567038887861  2499.1380417097107 819.1916750866412  2497.5372210997666 818.7271211328147  L 2497.2585217960304 819.6874995468248  Z M 1857.889745289958 657.4876924224484  C 1860.0841550979324 657.9837920253026  1862.2784476167938 658.4804102453263  1864.47262268344 658.9775470456077  L 1864.693593123452 658.0022665399886  C 1862.4992643918602 657.5050949236615  1860.3048181994016 657.0084419238133  1858.110254710042 656.5123075775516  L 1857.889745289958 657.4876924224484  Z M 2499.4683756972086 826.3548404519111  L 2507 822  L 2503.0175155966813 814.2650263104956  L 2499.4683756972086 826.3548404519111  Z " fill-rule="nonzero" fill="rgba(2, 167, 240, 1)" stroke="none" class="fill" />
  </g>
</svg>