<?xml version="1.0" encoding="utf-8"?>
<svg version="1.1" xmlns:xlink="http://www.w3.org/1999/xlink" width="72px" height="10px" viewBox="526 382  72 10" xmlns="http://www.w3.org/2000/svg">
  <g transform="matrix(0.406736643075795 -0.913545457642603 0.913545457642604 0.406736643075801 -20.1280855162848 743.005466324808 )">
    <path d="M 568.781281303241 397.55203379605  C 566.37876477494 391.299650969694  563.693548620078 385.159598720271  560.733931002398 379.150851743306  L 558.939763057519 380.03457193973  C 561.872625791587 385.988999965132  564.533567646531 392.073546265976  566.914365473839 398.269407677601  L 568.781281303241 397.55203379605  Z M 576.644438245626 422.454623114714  C 576.174553089244 420.487493256073  575.666230202537 418.529743922187  575.11976133671 416.582498760522  C 573.843750302758 412.080123339394  572.425207808443 407.619366970225  570.866274813366 403.206962126106  L 568.980510684658 403.87321556953  C 570.525065528431 408.244924485946  571.930550474654 412.664530330068  573.194845054441 417.125365199329  C 573.734002896041 419.046682563369  574.235538821762 420.978359196158  574.699165222234 422.919287363893  L 576.644438245626 422.454623114714  Z M 580.552997112085 448.298444192986  C 580.112145518418 441.600644891917  579.236896015963 434.938534368249  577.932771290413 428.354149483899  L 575.970882636204 428.742727543607  C 577.258188065636 435.24219361846  578.122149475571 441.818382905092  578.557315406392 448.429800690973  L 580.552997112085 448.298444192986  Z M 580.521875448119 469.130818853588  C 580.860868612313 464.20514788184  580.964430806382 459.266097643416  580.832208130487 454.330546199933  L 578.83292544039 454.384106680496  C 579.01036391307 461.007454030229  578.757586089245 467.635334402056  578.076186956935 474.225926920889  L 580.521875448119 469.130818853588  Z M 557.997415870901 373.780851995595  C 554.875219963367 367.854953802828  551.485522295786 362.073900512434  547.838798101682 356.455557400074  L 546.161201898318 357.544442599926  C 549.774959779209 363.111996003792  553.134014648195 368.840788688958  556.227985967654 374.713116881503  L 557.997415870901 373.780851995595  Z M 572.212625684326 467.209521844012  L 579 475  L 587.32113408395 468.874746735282  L 572.212625684326 467.209521844012  Z " fill-rule="nonzero" fill="#ff0000" stroke="none" />
  </g>
</svg>