<?xml version="1.0" encoding="utf-8"?>
<svg version="1.1" xmlns:xlink="http://www.w3.org/1999/xlink" width="142px" height="32px" viewBox="472 480  142 32" xmlns="http://www.w3.org/2000/svg">
  <g transform="matrix(-0.0348994967025007 -0.999390827019096 0.999390827019096 -0.0348994967025006 66.2525765079863 1055.97936943581 )">
    <path d="M 735.3235635467 360.829694245195  C 738.612411820015 360.299670954005  741.904505429177 359.78998536624  745.199655638066 359.300666702234  L 745.052769697444 358.311513265983  C 741.753542661251 358.801437325058  738.457376006486 359.311753506266  735.164458702752 359.842432553123  L 735.3235635467 360.829694245195  Z M 722.514261176352 362.999773088809  C 725.794165400799 362.416955851124  729.077641434447 361.854421526552  732.364501035222 361.312202365252  L 732.201735178553 360.325537642105  C 728.910809007785 360.868427648052  725.623270590375 361.431657951606  722.339308401268 362.01519626271  L 722.514261176352 362.999773088809  Z M 709.741493723873 365.375458465162  C 713.011606485598 364.739997860805  716.285616607046 364.124760138847  719.563336388824 363.529780570939  L 719.384732669179 362.545859480948  C 716.102957625379 363.141575169759  712.82489683159 363.757574076421  709.550738219403 364.393820885648  L 709.741493723873 365.375458465162  Z M 697.008561230775 367.956136579287  C 700.26803764573 367.268196789302  703.531735963896 366.600414626127  706.799469077238 365.952828373755  L 706.605073639643 364.971905128112  C 703.33329762002 365.620292587448  700.065561387426 366.288900944398  696.802052281546 366.977691867569  L 697.008561230775 367.956136579287  Z M 684.321208119068 370.745031247673  C 686.039514548687 370.347904174633  687.759993240109 369.960235424804  689.482566051267 369.582042605631  C 691.012802327331 369.243815649396  692.544019067169 368.910039949828  694.076196842484 368.580719741921  L 693.866059912 367.603047777279  C 692.332216149706 367.932726065813  690.799334323259 368.266864023009  689.267433876427 368.605457410508  C 687.541508030632 368.984389039737  685.817680114629 369.372813782648  684.09602840184 369.770714002136  L 684.321208119068 370.745031247673  Z M 671.709277284653 373.839858606284  C 674.932219948368 373.002675841821  678.163773779244 372.199001343761  681.403415547901 371.428965237155  L 681.172166533442 370.456070641985  C 677.925785989379 371.227708499879  674.687510206806 372.033054720411  671.457863503476 372.871978907853  L 671.709277284653 373.839858606284  Z M 659.185538708122 377.27420393231  C 662.384693304831 376.350275222364  665.593360982179 375.459609967049  668.811022216343 374.602352376318  L 668.553579777873 373.636058740369  C 665.32922548999 374.495099511705  662.11388346641 375.387617438873  658.908074311619 376.313468011948  L 659.185538708122 377.27420393231  Z M 646.759130562309 381.045561293437  C 649.932162770879 380.035560799338  653.115603032174 379.058554676814  656.308935907008 378.114701115496  L 656.025487892069 377.155713512434  C 652.825512568918 378.101530382541  649.635450436897 379.080568774468  646.455818007403 380.092670169522  L 646.759130562309 381.045561293437  Z M 634.439120001132 385.151178850417  C 637.583714561105 384.055843537329  640.739604551463 382.993209437821  643.906278993759 381.963448605774  L 643.597032225332 381.012466778283  C 640.423770786896 382.044369614742  637.261316233102 383.109214098318  634.110180605329 384.206827817226  L 634.439120001132 385.151178850417  Z M 622.271099151302 389.66180987214  C 625.36278792328 388.432045646757  628.47685725391 387.259310302001  631.611723872819 386.144200085719  L 631.276583209526 385.202031981924  C 628.130151694955 386.321255972371  625.004594192324 387.498317677243  621.901499812894 388.73261864906  L 622.271099151302 389.66180987214  Z M 610.333227628632 394.74445992652  C 613.362528046195 393.368161087981  616.416912328117 392.047754846269  619.494827549392 390.783912528788  L 619.114986214972 389.858860875816  C 616.025716198512 391.127365657865  612.960063929829 392.452643035189  609.919588062872 393.834019203772  L 610.333227628632 394.74445992652  Z M 598.652246465011 400.39253810606  C 601.612218028634 398.872857924137  604.599919292119 397.407805998426  607.613831233745 395.998127197808  L 607.190159491372 395.092311402674  C 604.165128870269 396.507190675984  601.166405621608 397.977647352433  598.195514370975 399.502933815222  L 598.652246465011 400.39253810606  Z M 587.256658742426 406.592701719652  C 587.875345728968 406.233861558056  588.496579573704 405.879430573819  589.120313047244 405.529435712605  C 591.393988722084 404.244868473953  593.686108929846 402.993225121459  595.995955748468 401.77489768621  L 595.52942428217 400.890393084214  C 593.211486244208 402.112988228658  590.911333589656 403.369009803254  588.629686489204 404.658064551529  C 588.002241947256 405.010149745099  587.377310256842 405.366694440383  586.754938864242 405.727671567671  L 587.256658742426 406.592701719652  Z M 576.341567359465 413.567043573371  C 579.061950861195 411.659356816756  581.844683866916 409.842164130833  584.685203042344 408.118445484455  L 584.166418940275 407.263540194122  C 581.307050031149 408.998697466838  578.505850761737 410.82794907442  575.76741474869 412.74829527289  L 576.341567359465 413.567043573371  Z M 566.065734823156 421.452975977129  C 568.612242075142 419.318718266955  571.228639857486 417.269265929516  573.910637604881 415.307979810456  L 573.320353302791 414.500784392539  C 570.620557772599 416.475085639737  567.986797529943 418.538138177846  565.423391612399 420.686558858587  L 566.065734823156 421.452975977129  Z M 556.508667364989 430.192528017281  C 556.787378038839 429.912250275261  557.067854024877 429.633733521135  557.350078581095 429.356994379961  C 559.439481445584 427.307934318865  561.588130491277 425.320173761302  563.793291964157 423.396241760778  L 563.135868783828 422.642720187122  C 560.916082013732 424.579412286022  558.753182266637 426.580356036645  556.649921407618 428.643005631111  C 556.364701908999 428.922681696377  556.081249489204 429.204154189555  555.799581066963 429.48740631009  L 556.508667364989 430.192528017281  Z M 548.049122498134 439.959237128281  C 550.043002375659 437.309066611435  552.175757896938 434.766289308516  554.438438998753 432.341575930434  L 553.707325869789 431.659319678974  C 551.42057027701 434.109831540221  549.265122647912 436.679663503714  547.250028272658 439.358031324241  L 548.049122498134 439.959237128281  Z M 541.009042664466 450.79389365947  C 542.620604549015 447.895302790335  544.384458888407 445.08404321584  546.293203705394 442.371912327039  L 545.475426842283 441.796376922255  C 543.546373348209 444.537364361155  541.763751938495 447.378535195867  540.135043346 450.307966513366  L 541.009042664466 450.79389365947  Z M 535.585875554433 462.509871671909  C 536.268475981492 460.664359010461  537.016875694917 458.843854934867  537.829639092064 457.051851590326  C 538.393931414288 455.830228022275  538.984394591531 454.620864232894  539.600620208442 453.424596722676  L 538.71163554641 452.966659750297  C 538.088325389355 454.176680348615  537.491096008629 455.399958902384  536.920361200286 456.635647851428  C 536.097195414718 458.450386716519  535.339247862612 460.294007542358  534.647974146078 462.162969743108  L 535.585875554433 462.509871671909  Z M 532.068660505908 474.929954460591  C 532.719494654515 471.680228604477  533.565539248716 468.472668664584  534.602195569079 465.324709499928  L 533.652372237668 465.011922609047  C 532.603151936061 468.198034147952  531.746853520796 471.444468806627  531.088131446484 474.733580420493  L 532.068660505908 474.929954460591  Z M 530.531623359013 487.746614516329  C 530.667639651584 484.435149161378  531.003053958357 481.134887131447  531.536043117409 477.863767172592  L 530.549058885958 477.702950112339  C 530.009610049127 481.013715119418  529.670130615873 484.353975391227  529.532465844326 487.705574769185  L 530.531623359013 487.746614516329  Z M 530.837057739346 500.673915732802  C 530.565078232002 497.366076482949  530.440949195585 494.047741630256  530.465041559566 490.728827212366  L 529.465067905862 490.721568293876  C 529.44075943907 494.070252589663  529.566001883606 497.418352121689  529.840420982847 500.755861907799  L 530.837057739346 500.673915732802  Z M 532.643046306567 513.48190700877  C 531.989764416928 510.227833234568  531.482122236989 506.946209607547  531.121636732093 503.646842462769  L 530.127552581899 503.755455087878  C 530.491271556572 507.084416776133  531.003467166883 510.39547579147  531.662608840668 513.678737838321  L 532.643046306567 513.48190700877  Z M 535.911749171271 526.001984133203  C 535.722615298509 525.401493360092  535.536433737358 524.800076696388  535.353211233067 524.197755931065  C 534.564975867356 521.62511475962  533.870134221021 519.024780906837  533.270051391152 516.401863030489  L 532.295238012668 516.624885175417  C 532.900628639743 519.271003042635  533.601604448945 521.894340050263  534.396788631954 524.489743620741  C 534.580870402388 525.094877817266  534.767923479775 525.699104154528  534.957941094463 526.302400764926  L 535.911749171271 526.001984133203  Z M 540.221180575858 538.228550835506  C 539.010776276048 535.131830894958  537.880950475149 532.004216817144  536.832844448655 528.848867911491  L 535.883829905454 529.164100201707  C 536.937390450701 532.335870069877  538.073096053702 535.479760773532  539.289799499574 538.592596561673  L 540.221180575858 538.228550835506  Z M 545.345209966361 550.136718417546  C 543.928756586581 547.128660442358  542.590615212888 544.084345441553  541.332137547427 541.006848581324  L 540.406538076707 541.385353032821  C 541.671565070052 544.478865700524  543.016670354867 547.539023824867  544.440495194524 550.562736235978  L 545.345209966361 550.136718417546  Z M 550.006284168124 559.380613131723  C 548.842812566839 557.220025754824  547.72083601329 555.037349094102  546.640971964799 552.833784341935  L 545.743000554741 553.273838141735  C 547.213736058825 556.27501307768  548.762118601181 559.237509909032  550.386584107902 562.158336116904  L 550.006284168124 559.380613131723  Z M 748.166091354048 358.865782607665  C 751.463033951543 358.388690202665  754.76289457305 357.931985036841  758.065484037164 357.495693293153  L 757.934515962836 356.504306706847  C 754.62784046742 356.941138239613  751.323897190804 357.398408450417  748.022875548425 357.876091123908  L 748.166091354048 358.865782607665  Z M 543.573965161519 561.833912074566  L 552 564  L 554.574294037744 555.689584233792  L 543.573965161519 561.833912074566  Z " fill-rule="nonzero" fill="#797979" stroke="none" />
  </g>
</svg>