<?xml version="1.0" encoding="utf-8"?>
<svg version="1.1" xmlns:xlink="http://www.w3.org/1999/xlink" width="140px" height="18px" viewBox="846 488  140 18" xmlns="http://www.w3.org/2000/svg">
  <g transform="matrix(0.156434465040232 -0.987688340595141 0.987688340595138 0.156434465040232 281.824924747364 1323.97459086015 )">
    <path d="M 975.451878272819 367.927123389763  C 978.523653505323 366.655478361178  981.629002303059 365.466498617175  984.764571128063 364.361468164468  L 984.432189938787 363.418323029817  C 981.279747183865 364.529300156782  978.157687083995 365.724678344577  975.06938122407 367.003166676654  L 975.451878272819 367.927123389763  Z M 963.661391891565 373.30506825053  C 964.446387943665 372.907701568699  965.235608232897 372.518735474057  966.028917559763 372.138236599485  C 968.231304188118 371.079661981869  970.454356996204 370.064632502204  972.696778827774 369.093740432446  L 972.299455328849 368.176061819203  C 970.045091948973 369.15212417155  967.810199638185 370.172556504739  965.596082315422 371.236763460758  C 964.796474209855 371.620286706772  964.000987001069 372.012343080851  963.209756919919 372.412865441531  L 963.661391891565 373.30506825053  Z M 952.436943932015 379.746963897054  C 955.226158591681 377.945589461375  958.086888987073 376.257438354637  961.012161096802 374.686626029992  L 960.539073529754 373.805610619284  C 957.590113533289 375.389142862977  954.706217888631 377.090964059441  951.894417090491 378.906925429942  L 952.436943932015 379.746963897054  Z M 941.948297084571 387.328160295179  C 944.533675898203 385.244777309448  947.202026924801 383.266511565633  949.946845134335 381.39818577182  L 949.38415429573 380.571518353719  C 946.617109455502 382.454973232325  943.927151004185 384.449258318313  941.320836647393 386.549511850902  L 941.948297084571 387.328160295179  Z M 932.474222610977 396.112733978417  C 934.743133336242 393.694125137523  937.140034263387 391.398852026633  939.654613577223 389.236789243339  L 939.002656723143 388.478533178135  C 936.460985903414 390.663889534359  934.038261310562 392.983891395967  931.744905856929 395.428557778696  L 932.474222610977 396.112733978417  Z M 924.311974940705 406.127789395657  C 926.223060723565 403.417554030413  928.27802297824 400.8116870269  930.468020959268 398.321399202659  L 929.71708984469 397.661018659973  C 927.503497323262 400.178136279121  925.426395372405 402.812078301342  923.494719985763 405.5515131263  L 924.311974940705 406.127789395657  Z M 917.696462249975 417.217106945829  C 919.178943005351 414.251800245643  920.829232708824 411.373400963909  922.639302516563 408.5959128348  L 921.801507646274 408.049927711085  C 919.970691437634 410.859250458936  918.301486678151 413.770640968524  916.802014235521 416.76993499966  L 917.696462249975 417.217106945829  Z M 912.792345594587 429.163812066672  C 913.820874175938 426.012158219313  915.028201941137 422.921689290839  916.408455105682 419.907440757955  L 915.499244393975 419.491104497564  C 914.103171239849 422.539901315941  912.882005496839 425.665792142008  911.841688272754 428.853569167568  L 912.792345594587 429.163812066672  Z M 909.593093974499 441.689887587075  C 910.21466546007 438.430412117077  910.989808186724 435.20210638237  911.915932318083 432.015756504452  L 910.955671251332 431.736653147822  C 910.020760628971 434.953233135919  909.238263829183 438.212167031941  908.610795259106 441.502566382353  L 909.593093974499 441.689887587075  Z M 907.954593019523 454.516156538509  C 908.172378975275 451.205099195504  908.546397179921 447.906172923817  909.075397997852 444.630399795864  L 908.088187704318 444.470976346085  C 907.554168054926 447.777827976517  907.176601397672 451.108052413346  906.956749223931 454.450523013565  L 907.954593019523 454.516156538509  Z M 907.746551084979 467.463577442546  C 907.655336653185 464.142158946726  907.673385362005 460.818638921829  907.800667942524 457.498406995948  L 906.801401936923 457.460099685297  C 906.673279427677 460.802241586318  906.655111616706 464.147693284281  906.746927966071 467.491029585332  L 907.746551084979 467.463577442546  Z M 908.655224008559 480.384967791194  C 908.28069428364 477.083472920365  908.014849064978 473.770553145987  907.858119463818 470.451580906109  L 906.859232576733 470.498750671959  C 907.016996425422 473.839624574397  907.284595937839 477.174406071541  907.661597157865 480.497687273011  L 908.655224008559 480.384967791194  Z M 910.629587586964 493.194517611658  C 910.315904687632 491.522363555039  910.020448556715 489.846841666202  909.743271793708 488.168250235135  C 909.476923966154 486.566978353474  909.236322227411 484.961530209735  909.021559741055 483.352527450665  L 908.030350313894 483.484829648331  C 908.246504006364 485.104255337931  908.488661209151 486.720103828607  908.756728178937 488.331749596948  C 909.035060474938 490.017312728871  909.331745951055 491.699793882405  909.646731801067 493.378893597427  L 910.629587586964 493.194517611658  Z M 913.373100971506 505.871700257727  C 912.579778189116 502.641328144764  911.855354639773 499.394424152249  911.200323240351 496.133197559226  L 910.219903967824 496.330118990407  C 910.877731745488 499.605268004699  911.605247913372 502.866033274222  912.401957450305 506.110196088361  L 913.373100971506 505.871700257727  Z M 916.814108971453 518.377590449043  C 915.843196583828 515.196082290819  914.940162738367 511.994253924187  914.10562188309 508.774283957532  L 913.137605548679 509.025171135987  C 913.975709121546 512.25888739627  914.88259808632 515.474384608686  915.85765537185 518.669474864188  L 916.814108971453 518.377590449043  Z M 920.888278887011 530.699683238254  C 919.993057564886 528.153458486139  919.126135015998 525.597372411525  918.287671542457 523.031897658695  C 918.091423976459 522.433774955018  917.897588265279 521.834863599  917.706169133412 521.235178188331  L 916.75352380564 521.539261860161  C 916.945701508645 522.141323752429  917.140304628097 522.742608760241  917.337328423691 523.343102236994  C 918.178035635476 525.915428464272  919.047275897676 528.478341565132  919.944888502495 531.03136770036  L 920.888278887011 530.699683238254  Z M 925.41136567538 542.867729409989  C 924.196160894354 539.768644895031  923.023452147551 536.653064586102  921.89356927654 533.52186478595  L 920.952935926556 533.861289152928  C 922.085917530159 537.001076348395  923.261842460607 540.125201215773  924.480379971739 543.232785049056  L 925.41136567538 542.867729409989  Z M 930.364725633211 554.867058010404  C 929.039974472447 551.813194579808  927.757105221477 548.7413331  926.51647870613 545.652337577164  L 925.58852380316 546.02503007515  C 926.832552768365 549.122497246985  928.118940320977 552.202783385254  929.447324645585 555.265022114191  L 930.364725633211 554.867058010404  Z M 987.594297610216 363.389760228629  C 990.747251385861 362.335356773397  993.92793406288 361.365758044364  997.13291074852 360.482011133614  L 996.86708925148 359.517988866386  C 993.644865120479 360.40649162345  990.447065735267 361.381308206696  987.277144473333 362.441385889158  L 987.594297610216 363.389760228629  Z M 924.783194441442 559.140960578646  L 933 562  L 936.256221333934 553.932347142791  L 924.783194441442 559.140960578646  Z " fill-rule="nonzero" fill="#797979" stroke="none" />
  </g>
</svg>