<?xml version="1.0" encoding="utf-8"?>
<svg version="1.1" xmlns:xlink="http://www.w3.org/1999/xlink" width="108px" height="14px" viewBox="714 474  108 14" xmlns="http://www.w3.org/2000/svg">
  <g transform="matrix(-0.342020143325669 -0.939692620785908 0.939692620785908 -0.342020143325668 578.679319476092 1367.19562170322 )">
    <path d="M 837.59794079939 375.005904713688  C 840.075455751677 372.784648202662  842.592430946984 370.607801570183  845.147663128408 368.476405472411  L 844.507117701689 367.708485192493  C 841.94274536508 369.847505368905  839.416766861166 372.032138658184  836.93038975095 374.261340681702  L 837.59794079939 375.005904713688  Z M 828.140376221749 383.889672874349  C 830.512152307969 381.555847897323  832.925406829827 379.264553938025  835.378986114764 377.016886364943  L 834.703497787545 376.279515684897  C 832.241141963398 378.535223243769  829.81925514543 380.834713241967  827.438995132912 383.176886392841  L 828.140376221749 383.889672874349  Z M 819.105221338652 393.202719674997  C 821.36614907871 390.761353954587  823.670484090667 388.360548767186  826.017124771672 386.001451833864  L 825.308148737884 385.296219259805  C 822.953114040809 387.663754765649  820.640536341649 390.073147717455  818.371521183719 392.523246288726  L 819.105221338652 393.202719674997  Z M 810.537745675574 402.94378929956  C 812.668989520017 400.389339349847  814.851151154019 397.877805453778  817.08291937479 395.410696725161  L 816.341327103954 394.739845844685  C 814.100606800661 397.216850655128  811.909692066385 399.73845883153  809.769899363423 402.303155206716  L 810.537745675574 402.94378929956  Z M 802.48908320706 413.117539181837  C 804.484564766393 410.455684900246  806.533127580094 407.834039938331  808.633540721344 405.254179572705  L 807.858056250475 404.622812931646  C 805.749217919015 407.213021649161  803.692437897454 409.845182569602  801.688952050122 412.517714097587  L 802.48908320706 413.117539181837  Z M 794.980533645407 423.696189269603  C 796.83484978138 420.934138122732  798.744266909139 418.20948068734  800.707637710801 415.523854137494  L 799.900360808645 414.93368127871  C 797.929114521853 417.630080430421  796.012038328274 420.365667028608  794.150284147922 423.138797332161  L 794.980533645407 423.696189269603  Z M 788.032427788035 434.65109589604  C 789.740557594094 431.796326652173  791.505658933149 428.976034261151  793.326671202835 426.191913361527  L 792.489787722069 425.644532288033  C 790.661470996679 428.439820870667  788.889289472189 431.271426036014  787.174308005264 434.137646347966  L 788.032427788035 434.65109589604  Z M 781.675048232632 445.958483038012  C 783.229448043154 443.017181268536  784.842566869746 440.107287875422  786.513435432286 437.23055133608  L 785.648712464034 436.728302206485  C 783.97114170316 439.616577929265  782.351552324329 442.538143504799  780.790917495652 445.491243442164  L 781.675048232632 445.958483038012  Z M 775.914234850636 457.581700465946  C 777.313530144474 454.563524269846  778.773098753282 451.573659492937  780.292063661167 448.613902665311  L 779.402385487901 448.157314505133  C 777.877327698562 451.128943527693  776.411904459103 454.130801268729  775.006996303308 457.161083991896  L 775.914234850636 457.581700465946  Z M 770.765835127032 469.488846827908  C 772.006237051371 466.401968479777  773.308303388342 463.340227935227  774.671251760971 460.305464912583  L 773.759027352169 459.895774019365  C 772.390611912579 462.942710102258  771.083322719045 466.01673191946  769.837945286818 469.115992373156  L 770.765835127032 469.488846827908  Z M 766.244232904014 481.648004402139  C 766.508284829151 480.878002359381  766.775698602552 480.109157278082  767.046466572345 479.34149115824  C 767.884048312265 476.972453312495  768.757398965734 474.616213999608  769.666219127555 472.273580993973  L 768.733918500828 471.911896682171  C 767.82140796569 474.264042230219  766.944512722432 476.629850001324  766.103533421014 479.008508860961  C 765.831754592185 479.779037651175  765.563342979482 480.550749983593  765.298306265703 481.323623769342  L 766.244232904014 481.648004402139  Z M 762.32116892547 494.016368622717  C 763.253321757346 490.822131323359  764.242429315472 487.644790983769  765.288018750337 484.485866552846  L 764.338671700441 484.171637052554  C 763.289342155476 487.34186106702  762.296696524899 490.53056686452  761.361209349633 493.736230062791  L 762.32116892547 494.016368622717  Z M 758.976244616869 506.553447462795  C 759.759175128176 503.319397271314  760.599783066215 500.099583039144  761.497666572707 496.895544020135  L 760.534761300053 496.625704371648  C 759.633666032748 499.841204350672  758.790051210616 503.072535971342  758.004320129392 506.318154473856  L 758.976244616869 506.553447462795  Z M 756.21666589629 519.232232489663  C 756.848687432086 515.965336469762  757.538984841511 512.709984740422  758.287228123247 509.467733544432  L 757.312838999592 509.242865059081  C 756.561919225379 512.496713901385  755.869152597896 515.763710138099  755.234870298886 519.042291959714  L 756.21666589629 519.232232489663  Z M 847.457540788237 366.57055335571  C 850.035457334902 364.466650528823  852.650730923406 362.408940769781  855.302111304617 360.398407780575  L 854.697888695383 359.601592219425  C 852.037024233499 361.619316955692  849.412395719594 363.684387214752  846.825257874969 365.795815775887  L 847.457540788237 366.57055335571  Z M 755.311731705606 524.144754870166  C 755.426678380897 523.487869335086  755.543975096312 522.83139719422  755.663619599257 522.175351054629  L 754.67984573584 521.995938163072  C 754.558703646503 522.660196011076  754.439959911405 523.324889015785  754.32361685172 523.990004183937  L 755.311731705606 524.144754870166  Z M 748.72371631283 522.08257053144  L 754 529  L 761.166430897461 524.067225102245  L 748.72371631283 522.08257053144  Z " fill-rule="nonzero" fill="#797979" stroke="none" />
  </g>
</svg>