<?xml version="1.0" encoding="utf-8"?>
<svg version="1.1" xmlns:xlink="http://www.w3.org/1999/xlink" width="116px" height="16px" viewBox="1036 406  116 16" xmlns="http://www.w3.org/2000/svg">
  <g transform="matrix(-0.139173100960072 -0.990268068741569 0.99026806874157 -0.139173100960065 836.284391991308 1554.97093100074 )">
    <path d="M 1099.7514010283 381.713482777395  C 1099.45651420524 378.385264841173  1099.08406823971 375.064374731306  1098.63436674989 371.75351963942  L 1097.64346545044 371.888110184237  C 1098.09107490538 375.183563004817  1098.46178823277 378.489004159944  1098.75530322688 381.801739051999  L 1099.7514010283 381.713482777395  Z M 1100.49290261397 394.723856960082  C 1100.46299989288 393.276016610393  1100.41308464896 391.828658783477  1100.34317118787 390.382198290108  C 1100.25238462828 388.490184975114  1100.1365937652 386.599454301689  1099.99582894079 384.710501722156  L 1098.99859404792 384.784815707647  C 1099.13870835478 386.665038856358  1099.25396334464 388.547031933975  1099.34432881389 390.430301747333  C 1099.41380178472 391.867615485201  1099.46340219418 393.305820937831  1099.49311582573 394.744505884177  L 1100.49290261397 394.723856960082  Z M 1100.22114388681 407.758777882367  C 1100.42949447868 404.421017159421  1100.53124190845 401.077455895551  1100.52623072617 397.733202391281  L 1099.52623184884 397.734700835298  C 1099.53121114161 401.057672615164  1099.43011119886 404.379956559814  1099.22308648133 407.69647687627  L 1100.22114388681 407.758777882367  Z M 1098.88354289406 420.725469028486  C 1098.96733147009 420.130723712172  1099.04643607373 419.535327911328  1099.12084934962 418.939336987638  C 1099.48685293997 416.221249252353  1099.78163513442 413.494045467092  1100.00489298191 410.760528410553  L 1099.00821172574 410.679125255833  C 1098.78624378079 413.3968490462  1098.49312281258 416.108292064165  1098.12915042022 418.810664441708  C 1098.05521374415 419.403042733623  1097.97660160879 419.994828092138  1097.89332136318 420.585965194248  L 1098.88354289406 420.725469028486  Z M 1096.32910802194 433.522993015018  C 1097.17073438922 430.28198728289  1097.8696914143 427.005600330432  1098.42396095107 423.703292292349  L 1097.43775581049 423.537764588657  C 1096.88833016027 426.811213011621  1096.19548147835 430.05896687918  1095.36121027382 433.271648730874  L 1096.32910802194 433.522993015018  Z M 1092.33414561801 445.946439923704  C 1093.53932301687 442.82233996771  1094.60678744153 439.646844402094  1095.53345672939 436.429122051005  L 1094.57251235745 436.152380449441  C 1093.6539414416 439.34198239882  1092.59580582943 442.489726592127  1091.4011607478 445.586524333649  L 1092.33414561801 445.946439923704  Z M 1086.95061671012 457.834222483953  C 1088.50366983501 454.86766233977  1089.92575753641 451.834360680741  1091.21277372386 448.74307576488  L 1090.28958877567 448.358719743141  C 1089.01382011311 451.42298922257  1087.60416035703 454.429782173926  1086.06467971385 457.370416879601  L 1086.95061671012 457.834222483953  Z M 1080.22622972244 469.022994422101  C 1080.62821471707 468.44395377265  1081.02521689968 467.861469765209  1081.41719230553 467.275606905119  C 1082.86223948493 465.06014661164  1084.2300336204 462.795247043122  1085.51810949211 460.484990301678  L 1084.64469149966 459.998019039215  C 1083.36882181948 462.28638309803  1082.01404773887 464.529853720217  1080.58280738349 466.724393433146  C 1080.19507374054 467.303856293295  1079.80238207874 467.879986216051  1079.40477564332 468.452719755037  L 1080.22622972244 469.022994422101  Z M 1072.22820504425 479.330937409502  C 1074.41754234943 476.798770575536  1076.5026461941 474.178325073898  1078.47831354004 471.476139800998  L 1077.67106382672 470.88592975336  C 1075.71145165662 473.566155833682  1073.6432923188 476.165306397485  1071.4717465692 478.676895686415  L 1072.22820504425 479.330937409502  Z M 1063.18376947915 488.734142857297  C 1065.62889727378 486.448007082929  1067.97972407446 484.063052990431  1070.23038377448 481.58523184563  L 1069.49016050819 480.912870695616  C 1067.25779069757 483.370555933292  1064.92606778994 485.736128798776  1062.50081022133 488.00368638895  L 1063.18376947915 488.734142857297  Z M 1053.19459467685 497.126906058622  C 1055.86802642792 495.112500592178  1058.45814972193 492.989848008275  1060.9585013266 490.764245041899  L 1060.29362561485 490.017291035329  C 1057.81359301013 492.224807734775  1055.24451824184 494.330210673611  1052.59281201908 496.328246160537  L 1053.19459467685 497.126906058622  Z M 1042.3883290093 504.424946953775  C 1042.72246443313 504.217654812695  1043.05592505041 504.009276917823  1043.38870557433 503.799816572865  C 1045.90594659165 502.25888532215  1048.36693461147 500.627889910101  1050.7668946557 498.909994906109  L 1050.1848405979 498.096844813079  C 1047.80269442779 499.80198861922  1045.35993082732 501.420816248818  1042.86129613932 502.950182284575  C 1042.52859720124 503.159607339313  1042.19521467295 503.367944451389  1041.8611538964 503.575190282522  L 1042.3883290093 504.424946953775  Z M 1031.07370099307 510.893446228281  C 1034.03341579848 509.339702294323  1036.949623097 507.704454855856  1039.8189828339 505.98957683046  L 1039.30596993954 505.131195930028  C 1036.45242609389 506.836621559477  1033.55229291006 508.462855525248  1030.60889203241 510.008035233268  L 1031.07370099307 510.893446228281  Z M 1019.32388174505 516.532953090492  C 1022.38750593051 515.195702630794  1025.41358618501 513.774035480495  1028.39865661173 512.269579934698  L 1027.9485924774 511.376583700108  C 1024.97997573846 512.872746697226  1021.97057521763 514.286577627916  1018.92383770772 515.616457172227  L 1019.32388174505 516.532953090492  Z M 1007.23843213497 521.393141037397  C 1010.36876408655 520.228262738323  1013.4757051295 519.00146723352  1016.55742554717 517.713476998284  L 1016.1718052517 516.790819430318  C 1013.10227393586 518.073715289038  1010.00762174965 519.295658460306  1006.88967117267 520.455929326428  L 1007.23843213497 521.393141037397  Z M 994.918936861586 525.619598312092  C 998.105103957072 524.61747116527  1001.27109978647 523.552304388085  1004.41505985502 522.424725270642  L 1004.07746615242 521.483433343574  C 1000.94594136164 522.606552557192  997.792467967864 523.667506289537  994.618903091235 524.665669731616  L 994.918936861586 525.619598312092  Z M 1098.20882668121 368.776812866894  C 1097.712856158 365.47257224165  1097.13991286818 362.180344560321  1096.49046387549 358.902813648903  L 1095.50953612451 359.097186351097  C 1096.15596384647 362.359470017042  1096.72624177409 365.636382082751  1097.21990501645 368.925251207534  L 1098.20882668121 368.776812866894  Z M 989.943688546427 527.128398469242  C 990.64542002708 526.923445002363  991.346259269157 526.715448901176  992.046186496691 526.504416034822  L 991.757515290743 525.546987742543  C 991.066668021604 525.755282939078  990.374928689612 525.960607910237  989.682316462213 526.16295696666  L 989.943688546427 527.128398469242  Z M 989.11670434447 520.335618398056  L 985 528  L 992.454572731878 532.485459328222  L 989.11670434447 520.335618398056  Z " fill-rule="nonzero" fill="#797979" stroke="none" />
  </g>
</svg>