<?xml version="1.0" encoding="utf-8"?>
<svg version="1.1" xmlns:xlink="http://www.w3.org/1999/xlink" width="65px" height="49px" xmlns="http://www.w3.org/2000/svg">
  <defs>
    <pattern id="BGPattern" patternUnits="userSpaceOnUse" alignment="0 0" imageRepeat="None" />
    <mask fill="white" id="Clip1">
      <path d="M 63.825806451612905 6.7643097643097665  C 64.60860215053765 7.534231200897866  65.00000000000001 8.469135802469136  65 9.56902356902357  C 65.00000000000001 10.668911335577997  64.60860215053765 11.603815937149268  63.825806451612905 12.373737373737372  L 33.46451612903226 42.235690235690235  L 27.761290322580646 47.84511784511785  C 26.978494623655916 48.61503928170595  26.02795698924732 49  24.90967741935484 49  C 23.791397849462367 49  22.840860215053766 48.61503928170595  22.058064516129033 47.84511784511785  L 16.354838709677416 42.235690235690235  L 1.1741935483870969 27.30471380471381  C 0.391397849462366 26.534792368125697  0 25.599887766554428  0 24.5  C 0 23.400112233445565  0.391397849462366 22.465207631874296  1.1741935483870969 21.695286195286197  L 6.877419354838709 16.085858585858585  C 7.660215053763442 15.31593714927048  8.610752688172045 14.930976430976425  9.729032258064517 14.93097643097643  C 10.847311827956991 14.930976430976425  11.797849462365592 15.31593714927048  12.580645161290322 16.085858585858585  L 24.90967741935484 28.253367003367  L 52.41935483870967 1.154882154882155  C 53.20215053763442 0.3849607182940499  54.15268817204302 0  55.270967741935486 0  C 56.38924731182796 0  57.33978494623656 0.3849607182940499  58.122580645161285 1.154882154882155  L 63.825806451612905 6.7643097643097665  Z " fill-rule="evenodd" />
    </mask>
  </defs>
  <g transform="matrix(1 0 0 1 -975 -493 )">
    <path d="M 63.825806451612905 6.7643097643097665  C 64.60860215053765 7.534231200897866  65.00000000000001 8.469135802469136  65 9.56902356902357  C 65.00000000000001 10.668911335577997  64.60860215053765 11.603815937149268  63.825806451612905 12.373737373737372  L 33.46451612903226 42.235690235690235  L 27.761290322580646 47.84511784511785  C 26.978494623655916 48.61503928170595  26.02795698924732 49  24.90967741935484 49  C 23.791397849462367 49  22.840860215053766 48.61503928170595  22.058064516129033 47.84511784511785  L 16.354838709677416 42.235690235690235  L 1.1741935483870969 27.30471380471381  C 0.391397849462366 26.534792368125697  0 25.599887766554428  0 24.5  C 0 23.400112233445565  0.391397849462366 22.465207631874296  1.1741935483870969 21.695286195286197  L 6.877419354838709 16.085858585858585  C 7.660215053763442 15.31593714927048  8.610752688172045 14.930976430976425  9.729032258064517 14.93097643097643  C 10.847311827956991 14.930976430976425  11.797849462365592 15.31593714927048  12.580645161290322 16.085858585858585  L 24.90967741935484 28.253367003367  L 52.41935483870967 1.154882154882155  C 53.20215053763442 0.3849607182940499  54.15268817204302 0  55.270967741935486 0  C 56.38924731182796 0  57.33978494623656 0.3849607182940499  58.122580645161285 1.154882154882155  L 63.825806451612905 6.7643097643097665  Z " fill-rule="nonzero" fill="rgba(120, 191, 3, 1)" stroke="none" transform="matrix(1 0 0 1 975 493 )" class="fill" />
    <path d="M 63.825806451612905 6.7643097643097665  C 64.60860215053765 7.534231200897866  65.00000000000001 8.469135802469136  65 9.56902356902357  C 65.00000000000001 10.668911335577997  64.60860215053765 11.603815937149268  63.825806451612905 12.373737373737372  L 33.46451612903226 42.235690235690235  L 27.761290322580646 47.84511784511785  C 26.978494623655916 48.61503928170595  26.02795698924732 49  24.90967741935484 49  C 23.791397849462367 49  22.840860215053766 48.61503928170595  22.058064516129033 47.84511784511785  L 16.354838709677416 42.235690235690235  L 1.1741935483870969 27.30471380471381  C 0.391397849462366 26.534792368125697  0 25.599887766554428  0 24.5  C 0 23.400112233445565  0.391397849462366 22.465207631874296  1.1741935483870969 21.695286195286197  L 6.877419354838709 16.085858585858585  C 7.660215053763442 15.31593714927048  8.610752688172045 14.930976430976425  9.729032258064517 14.93097643097643  C 10.847311827956991 14.930976430976425  11.797849462365592 15.31593714927048  12.580645161290322 16.085858585858585  L 24.90967741935484 28.253367003367  L 52.41935483870967 1.154882154882155  C 53.20215053763442 0.3849607182940499  54.15268817204302 0  55.270967741935486 0  C 56.38924731182796 0  57.33978494623656 0.3849607182940499  58.122580645161285 1.154882154882155  L 63.825806451612905 6.7643097643097665  Z " stroke-width="0" stroke-dasharray="0" stroke="rgba(255, 255, 255, 0)" fill="none" transform="matrix(1 0 0 1 975 493 )" class="stroke" mask="url(#Clip1)" />
  </g>
</svg>