<?xml version="1.0" encoding="utf-8"?>
<svg version="1.1" xmlns:xlink="http://www.w3.org/1999/xlink" width="550px" height="32px" viewBox="618 418  550 32" xmlns="http://www.w3.org/2000/svg">
  <g transform="matrix(0.939692620785908 0.342020143325668 -0.342020143325669 0.939692620785908 202.291231841524 -279.250585410906 )">
    <path d="M 665.11329894346 525.828039293943  C 662.15668793346 527.368903234345  659.203332548797 528.916006035759  656.25325252524 530.469337359687  L 656.71915341081 531.35417427394  C 659.667988338939 529.80149854095  662.62009724651 528.25504870132  665.575460404648 526.714835089937  L 665.11329894346 525.828039293943  Z M 676.660508992694 519.85034194563  C 673.695486486865 521.374957269426  670.733685318804 522.905829226988  667.775125282043 524.442947587593  L 668.23616330687 525.330327968075  C 671.193474669614 523.79385835542  674.154025795118 522.263632509797  677.117796899415 520.739660656985  L 676.660508992694 519.85034194563  Z M 688.240349818124 513.936103874087  C 685.267005112747 515.444424665111  682.296847361213 516.959019673877  679.329896412901 518.479878778442  L 679.786057692071 519.369775900241  C 682.751756424721 517.849558681444  685.720660607205 516.335602914626  688.692750398405 514.827918717517  L 688.240349818124 513.936103874087  Z M 699.85247267391 508.085503196266  C 696.870895316122 509.577484028969  693.892470432272 511.075756474435  690.917217926988 512.580310519802  L 691.368488722458 513.472697582212  C 694.342485508591 511.968778540874  697.319653333764 510.471138448565  700.299972302968 508.979787313307  L 699.85247267391 508.085503196266  Z M 711.496527841984 502.298716112571  C 708.506807626639 503.774312053622  705.520205311054 505.256216812642  702.53674085317 506.744420486817  L 702.983107574182 507.639270614142  C 705.9653128468 506.151695043357  708.950654652829 504.670415729211  711.939113042635 503.195442570397  L 711.496527841984 502.298716112571  Z M 723.172164642587 496.575916901558  C 720.174391610222 498.03508351086  717.179701808869 499.500575953673  714.188115250516 500.972384436856  L 714.629564454007 501.869670679222  C 717.619888399122 500.398483379761  720.613314277557 498.933609454927  723.609822085656 497.475058693783  L 723.172164642587 496.575916901558  Z M 734.879031444827 490.917277914681  C 731.873295878276 492.359971247047  728.870608781136 493.809007237952  725.870990218836 495.264376204224  L 726.30750860984 496.164071538388  C 729.305861168735 494.70931681757  732.307280968108 493.260892398906  735.311747949543 491.818807962182  L 734.879031444827 490.917277914681  Z M 746.616775677267 485.322969571107  C 743.603168099172 486.749146177469  740.592574137076 488.181682076376  737.585013909246 489.620567694922  L 738.016588341299 490.522645025087  C 741.022879213906 489.08436669512  744.032202541107 487.652435404514  747.044538211665 486.226860722831  L 746.616775677267 485.322969571107  Z M 758.385043838549 479.793160352577  C 755.36365500863 481.202777281294  752.345244850538 482.618769945044  749.329833534772 484.04112888147  L 749.756451010304 484.945561040103  C 752.770589657257 483.52380241709  755.787725881593 482.108407379494  758.807839519861 480.699385386365  L 758.385043838549 479.793160352577  Z M 770.183481508035 474.328016798339  C 767.154402420357 475.721031596492  764.128266970626 477.12043838015  761.105095380965 478.526227797791  L 761.526743051694 479.43298754644  C 764.548638697506 478.027791448862  767.573496952535 476.628975291419  770.601297603078 475.236548421742  L 770.183481508035 474.328016798339  Z M 782.012180454889 468.928245551842  C 780.440984716456 469.63969412824  778.870733935975 470.353227751886  777.301432262705 471.068844537325  C 775.837088493403 471.736415124798  774.373425251655 472.40547747101  772.910444816562 473.076030534149  L 773.327109983878 473.98509056426  C 774.789488754783 473.314813272249  776.252550059006 472.64602610014  777.716291618121 471.978730089437  C 779.284804004851 471.26347317563  780.854265031251 470.55029839678  782.424670549674 469.839207637608  L 782.012180454889 468.928245551842  Z M 793.87552862356 463.604048335191  C 790.829100602083 464.959076738178  787.786154233886 466.32191922853  784.746719566188 467.692562349016  L 785.157806802854 468.60415835814  C 788.195682196621 467.234218397392  791.237067489276 465.872075064969  794.281932649131 464.517741811144  L 793.87552862356 463.604048335191  Z M 805.774129747814 458.359108196468  C 802.718730319655 459.693784186119  799.666760340707 461.036297314854  796.618249947289 462.386634326184  L 797.023246917148 463.300952353134  C 800.070193380657 461.951308084214  803.12059765482 460.609483684151  806.174429618895 459.27549240258  L 805.774129747814 458.359108196468  Z M 817.707454331205 453.193658539342  C 814.643219463873 454.5079227216  811.582361689067 455.830046745904  808.524911230871 457.160017557092  L 808.923799911261 458.077016914048  C 811.979681853167 456.747728397114  815.038969363619 455.426282641577  818.10163223416 454.112692695847  L 817.707454331205 453.193658539342  Z M 829.67497133207 448.107929230098  C 826.602037386255 449.401723119246  823.532428025999 450.703399203633  820.466173561803 452.012944630007  L 820.858936201888 452.932584509827  C 823.923617633096 451.623710899238  826.991652239537 450.322702593432  830.063009725693 449.029572439303  L 829.67497133207 448.107929230098  Z M 841.676148187154 443.102146587406  C 838.594651910777 444.375412608624  835.516427564703 445.656582827652  832.441505545187 446.945644593436  L 832.828124666741 447.867884071472  C 835.901469206803 446.579483613011  838.978114379221 445.298970652855  842.058029803454 444.026357835515  L 841.676148187154 443.102146587406  Z M 853.710450835317 438.176533372253  C 850.620529357101 439.42921486432  847.53382700867 440.689822204881  844.450374269996 441.958342945932  L 844.830832668187 442.883140981855  C 847.912703551023 441.615271010284  850.99782237646 440.355310379541  854.086158680283 439.10327153119  L 853.710450835317 438.176533372253  Z M 865.777343741297 433.331308778026  C 862.679134565005 434.563349995701  859.584091574726 435.803338359847  856.492245332796 437.051261626066  L 856.866526076946 437.978577065686  C 859.956786157166 436.731294002099  863.05024134535 435.491941770029  866.146861095655 434.260532607266  L 865.777343741297 433.331308778026  Z M 877.87628991954 428.566688420761  C 874.769930917629 429.778034537354  871.66668501741 430.997348744606  868.566582861524 432.224619002541  L 868.934669295867 433.154410579644  C 872.033181054524 431.927769929096  875.134834944667 430.709081247686  878.239600339497 429.498356569165  L 877.87628991954 428.566688420761  Z M 890.006750958099 423.882884329546  C 886.89238036593 425.073481439223  883.781069652251 426.2720672293  880.672849539337 427.478629864481  L 881.034725283757 428.410856202663  C 884.141350834697 427.204912551604  887.251065401167 426.006941653301  890.363838276077 424.8169553372  L 890.006750958099 423.882884329546  Z M 902.168187042593 419.280104937086  C 899.045943451934 420.449900057406  895.926706380394 421.627704092365  892.810506628518 422.813505411873  L 893.166155579281 423.74812502638  C 896.280756675629 422.562932040093  899.39839353339 421.385732235657  902.519035367945 420.216537237147  L 902.168187042593 419.280104937086  Z M 914.361917414755 414.76223165091  C 911.339548020705 415.868415759439  908.320506660175 416.983671777538  905.304834155308 418.107984625209  C 905.196223821903 418.148464479061  905.087617104995 418.188954018121  904.979013994458 418.229453246162  L 905.328420324924 419.166424545739  C 905.436983628953 419.125940161958  905.545550548803 419.085465461208  905.65412107411 419.045000447355  C 908.667933952113 417.921380802996  911.685113626547 416.806812451037  914.705619299772 415.701310462425  L 914.361917414755 414.76223165091  Z M 926.59167963435 410.342147073952  C 923.451274746032 411.462816343402  920.314363367608 412.593251332952  917.18099102637 413.733435636134  L 917.522939676294 414.67315427531  C 920.654363314101 413.533679074278  923.789323788175 412.403947123568  926.927775599389 411.2839748195  L 926.59167963435 410.342147073952  Z M 938.856788768715 406.021113686275  C 935.707423312586 407.116348683264  932.561472273441 408.221377334173  929.418981309064 409.336183601513  L 929.753318921822 410.278636974734  C 932.893855511724 409.164524026464  936.037850024583 408.060182613714  939.185256830861 406.965628764053  L 938.856788768715 406.021113686275  Z M 951.156442598063 401.799414112229  C 947.998322563706 402.869143201055  944.843537629746 403.948693237177  941.692133582177 405.038048552882  L 942.018838289863 405.983175017423  C 945.168282419743 404.894497192361  948.32110533345 403.815618548767  951.477261273319 402.746554744662  L 951.156442598063 401.799414112229  Z M 963.489836643154 397.677324479069  C 960.323168592643 398.721477692329  957.159756107805 399.775478503905  953.999645099847 400.839311616885  L 954.318695533799 401.787049355184  C 957.476841209044 400.723877860107  960.638286307993 399.670532551514  963.802984947843 398.627028716856  L 963.489836643154 397.677324479069  Z M 975.856164217914 393.655114398898  C 972.681155272538 394.673623441983  969.509322144822 395.70200609042  966.34071086889 396.740247418869  L 966.652086161084 397.690534442568  C 969.818726817945 396.652938815969  972.98858732258 395.625195738174  976.161621670052 394.607320125059  L 975.856164217914 393.655114398898  Z M 988.254616482196 389.733046951032  C 985.071474308559 390.725845206709  981.891427997201 391.728542428858  978.714523701449 392.74112406492  L 979.018203485869 393.693898218922  C 982.193132004846 392.681946326501  985.371200585425 391.679872700666  988.552363102833 390.687691884974  L 988.254616482196 389.733046951032  Z M 1000.68438249469 385.911378664791  C 997.493315291476 386.878401197445  994.305263792675 387.855347410232  991.120274267792 388.842203124328  L 991.416238681758 389.797402090861  C 994.599247401509 388.81116012097  997.785316190955 387.834821489458  1000.97439880921 386.868400366379  L 1000.68438249469 385.911378664791  Z M 1013.14464926594 382.190359502723  C 1009.94586575008 383.131543062677  1006.75001758386 384.082674367245  1003.55715114925 385.043739612478  L 1003.84538083472 386.001300915171  C 1007.03626156528 385.040833374599  1010.23012217348 384.090293596457  1013.42691630535 383.149695376367  L 1013.14464926594 382.190359502723  Z M 1025.63460181156 378.570232844251  C 1022.42831120502 379.485515871765  1019.22487540066 380.410770057937  1016.02434089127 381.345981974171  L 1016.3048169961 382.305842982139  C 1019.50336103276 381.371212691822  1022.70480455974 380.446533938748  1025.90910111372 379.531820142999  L 1025.63460181156 378.570232844251  Z M 1038.1553610079 375.056061610821  C 1035.0255862228 375.918331179563  1031.89896310185 376.791999772211  1028.77555388825 377.677049996228  C 1028.69070996341 377.701083708169  1028.60586802617 377.72512439667  1028.52102805666 377.74917206737  L 1028.79373223585 378.711269999314  C 1028.87853289579 378.687233470811  1028.96333552175 378.663203922692  1029.04814013582 378.639181348694  C 1032.16922608176 377.754789340652  1035.29352355865 376.881770547078  1038.42097036906 376.020142347723  L 1038.1553610079 375.056061610821  Z M 1050.70970595781 371.662893115615  C 1047.48643235634 372.517270952667  1044.26636713397 373.383707339524  1041.04957792439 374.26218407771  L 1041.31302205722 375.226858732128  C 1044.52740471489 374.349039202026  1047.74506093463 373.483251015558  1050.96592313308 372.629512357664  L 1050.70970595781 371.662893115615  Z M 1063.29646912332 368.392027393272  C 1060.06503576771 369.215005319261  1056.83669332081 370.050072438904  1053.61150959015 370.897211212602  L 1053.8655558613 371.864403278387  C 1057.08832675992 371.017898268141  1060.31425401182 370.183455880838  1063.5432698599 369.361093643032  L 1063.29646912332 368.392027393272  Z M 1075.91445907712 365.243774054667  C 1072.6751718457 366.035274168835  1069.43885776001 366.838892976179  1066.20558479501 367.654613597636  L 1066.45020915718 368.624231523128  C 1069.68106323839 367.809121160503  1072.91495616532 367.006103558314  1076.15182001356 366.215195583074  L 1075.91445907712 365.243774054667  Z M 1088.56248143607 362.218431104532  C 1085.31564695056 362.978378485723  1082.0716675664 363.750472912492  1078.83061141952 364.534698167906  L 1079.06579071725 365.506650171823  C 1082.30442215764 364.723011612838  1085.54597464834 363.951494807162  1088.79038010445 363.19211595958  L 1088.56248143607 362.218431104532  Z M 1101.23933897422 359.316284913252  C 1097.98526457079 360.044607627002  1094.73392695404 360.785104588926  1091.48539441446 361.537760245759  L 1091.71110638635 362.511954325881  C 1094.95720862612 361.75986174757  1098.20611384467 361.019918767941  1101.4577538023 360.292140928694  L 1101.23933897422 359.316284913252  Z M 1113.9438317362 356.537610189757  C 1110.68282543636 357.23423929509  1107.42443734929 357.943068698853  1104.16873591396 358.66408351284  L 1104.38495919476 359.640427454718  C 1107.63822496713 358.919952048016  1110.89417538126 358.211652935369  1114.15274204946 357.515544993828  L 1113.9438317362 356.537610189757  Z M 1126.67475715075 353.882669955515  C 1123.40712763205 354.547539511509  1120.14199750457 355.224634261302  1116.87943534888 355.913939983241  L 1117.0861494715 356.892341368926  C 1120.34627083157 356.203551331992  1123.60895824224 355.526963131911  1126.87414317433 354.862590979681  L 1126.67475715075 353.882669955515  Z M 1139.43091014457 351.35171551964  C 1136.15696671149 351.984762591641  1132.88540361167 352.630058595571  1129.61628956046 353.287589977748  L 1129.81347495793 354.267956194539  C 1133.08014331185 353.610916726286  1136.34925888233 352.966103482692  1139.62075300515 352.333530007356  L 1139.43091014457 351.35171551964  Z M 1152.21160226656 348.946169066608  C 1150.71188678961 349.220125916436  1149.21272850759 349.497124281156  1147.71413667171 349.777162451429  C 1145.93477464998 350.109588919297  1144.15608972788 350.445629495172  1142.37809291418 350.785282099206  L 1142.56573092149 351.767520348417  C 1144.3424045579 351.428120512334  1146.11976579338 351.092330030528  1147.89780362714 350.760150981341  C 1149.39507328655 350.480359853601  1150.89290889454 350.203605863719  1152.39130120895 349.929890719365  L 1152.21160226656 348.946169066608  Z M 1165.01885335763 346.682889102725  C 1161.73162670973 347.244271316258  1158.4469069038 347.820235094471  1155.16479092362 348.410763431603  L 1155.34187056996 349.39495995611  C 1158.62107551587 348.804955381159  1161.90288197807 348.229502447269  1165.18719305885 347.668618145105  L 1165.01885335763 346.682889102725  Z M 1177.85135943369 344.567492092155  C 1174.55787591217 345.090918608677  1171.26673086683 345.628954636287  1167.9780214708 346.181584289133  L 1168.14373657257 347.167757957939  C 1171.42952908631 346.615618453492  1174.71775508925 346.07805963061  1178.00831749413 345.555097361108  L 1177.85135943369 344.567492092155  Z M 1190.70741297617 342.600259513798  C 1187.40811081851 343.085660685133  1184.11097845989 343.585697370028  1180.81611325024 344.100354804583  L 1180.97044175705 345.088374395475  C 1184.26238462458 344.574173430304  1187.55659263042 344.074580247068  1190.85296851068 343.589609596618  L 1190.70741297617 342.600259513798  Z M 1203.58530333322 340.781453131504  C 1200.28062155119 341.228764369196  1196.97794060198 341.690735175542  1193.6773580001 342.167351910456  L 1193.82027937669 343.157085955598  C 1197.11793456562 342.680891950297  1200.41768624054 342.219330883561  1203.71943697389 341.772416383315  L 1203.58530333322 340.781453131504  Z M 1216.48331694734 339.111314959236  C 1213.17369526823 339.520476743197  1209.86590519006 339.944320200193  1206.56004437778 340.382832815931  L 1206.69153960676 341.374149619357  C 1209.99446832457 340.93602593724  1213.2993245971 340.512558403231  1216.60601084609 340.103759520515  L 1216.48331694734 339.111314959236  Z M 1229.39973758339 337.590067228877  C 1226.08561639206 337.961025115224  1222.77315732586 338.346684825441  1219.46245818762 338.747034972639  L 1219.58250977198 339.73980262778  C 1222.89027252445 339.339807566449  1226.1997936439 338.954489912591  1229.51097541432 338.583861042991  L 1229.39973758339 337.590067228877  Z M 1242.33284655696 336.21791236065  C 1239.0146668369 336.550616988994  1235.69797954503 336.898041635791  1232.38288260898 337.260176043068  L 1232.49147457441 338.254262450301  C 1235.80363122411 337.892449233888  1239.11737681907 337.54533273131  1242.43261351854 337.212923191434  L 1242.33284655696 336.21791236065  Z M 1255.28092296304 334.99503293619  C 1251.95912623775 335.289440036203  1248.63865204526 335.598583390558  1245.31959842469 335.922453871603  L 1245.41671632173 336.917726755829  C 1248.73282614656 336.594143527914  1252.0503552835 336.285274364622  1255.36920578009 335.991128385539  L 1255.28092296304 334.99503293619  Z M 1268.24290843188 333.924363102075  C 1266.20168188414 334.079738029208  1264.16095071109 334.241553760303  1262.12074539326 334.409807878466  C 1260.83727411021 334.515688618432  1259.55398517887 334.62376830364  1258.27088424982 334.734046458193  L 1258.35651515577 335.730373386438  C 1259.63847369975 335.62019341599  1260.92062007805 335.512209950058  1262.20294864505 335.406423464119  C 1264.24105302846 335.238342636026  1266.27968272443 335.07669355122  1268.31880728385 334.921478624103  L 1268.24290843188 333.924363102075  Z M 1281.21828518401 333.02387243908  C 1277.88976462287 333.232529873548  1274.56233872311 333.458297243864  1271.23613938868 333.701165600285  L 1271.3089622983 334.69851048739  C 1274.63174352118 334.45589171046  1277.95575004886 334.230356346104  1281.28085011308 334.021913334861  L 1281.21828518401 333.02387243908  Z M 1294.20453859652 332.296887157355  C 1290.87352650327 332.461037958574  1287.54338028742 332.64231179821  1284.21423196075 332.840701490305  L 1284.27371815661 333.838930618563  C 1287.59944534121 333.640744798225  1290.92616938956 333.459657241535  1294.25375842548 333.295675127065  L 1294.20453859652 332.296887157355  Z M 1307.19934867763 331.743537132686  C 1303.866440137 331.863151975145  1300.53416853501 331.999899899564  1297.20266596786 332.153775485051  L 1297.24880482276 333.152710521012  C 1300.57688382854 332.998993063126  1303.90573107892 332.86238566536  1307.23521461336 332.742893743038  L 1307.19934867763 331.743537132686  Z M 1320.20039390689 331.363921220954  C 1316.86618434233 331.438978735485  1313.53238266402 331.531176314692  1310.19912102866 331.640510303728  L 1310.2319042999 332.63997278783  C 1313.56174056622 332.530751153988  1316.89211632055 332.438648320039  1320.22289954195 332.363667937073  L 1320.20039390689 331.363921220954  Z M 1333.20535164997 331.158107240471  C 1329.87043671742 331.188594018063  1326.5357005458 331.236224780978  1323.20127532884 331.300997641066  L 1323.22069715969 332.30080901952  C 1326.55169581185 332.236102722149  1329.88300509924 332.188520906168  1333.21449296373 332.15806545779  L 1333.20535164997 331.158107240471  Z M 1346.21189857354 331.126131959868  C 1342.87687405499 331.112042554063  1339.54179914 331.11509799146  1336.20680603592 331.135298150939  L 1336.21286295667 332.135279807626  C 1339.54442891243 332.115100406494  1342.87607659497 332.112048108964  1346.20767393292 332.126123036034  L 1346.21189857354 331.126131959868  Z M 1359.2177110604 331.268001091523  C 1355.88317275733 331.209338019391  1352.54835490955 331.167817585416  1349.21338971422 331.143441435531  L 1349.20608064282 332.143414723912  C 1352.5376187185 332.167765824065  1355.86900959799 332.209243590279  1359.20012122011 332.267846378315  L 1359.2177110604 331.268001091523  Z M 1372.21912008949 331.583029057958  C 1372.14412897308 331.580911643635  1372.06913757117 331.578804378616  1371.99414588437 331.57670726292  C 1368.7361062536 331.476575230822  1365.47758407471 331.392813765918  1362.21870273997 331.325426040047  L 1362.19802898216 332.325212315077  C 1365.45402244194 332.392540324957  1368.70965701041 332.47622988098  1371.96480936972 332.576277813128  C 1372.04017180238 332.578385170969  1372.11553394673 332.580502791067  1372.19089580267 332.582630673419  L 1372.21912008949 331.583029057958  Z M 1385.21835800159 332.051856998483  C 1381.88621832029 331.905574440666  1378.55322860979 331.77934285769  1375.21956987253 331.673169104731  L 1375.18773699668 332.672662310319  C 1378.51738640026 332.778708369942  1381.84636758174 332.904788136378  1385.17449975629 333.050894762694  L 1385.21835800159 332.051856998483  Z M 1398.20867102852 332.723983024936  C 1394.87922749113 332.525591559166  1391.54862035822 332.34723531706  1388.21703050286 332.188923984491  L 1388.16956580604 333.18779690061  C 1391.49714881592 333.345917834878  1394.82375028529 333.524059571019  1398.14918955854 333.722212434806  L 1398.20867102852 332.723983024936  Z M 1411.18687993944 333.599242642142  C 1407.86094738926 333.348790822466  1404.53353796203 333.118353571884  1401.20483235717 332.907943404597  L 1401.14174745581 333.905951568502  C 1404.46644968404 334.116108679122  1407.78985729355 334.346268786812  1411.1117898022 334.596419392417  L 1411.18687993944 333.599242642142  Z M 1424.14980846586 334.6774216403  C 1420.82820088691 334.374970761944  1417.50480351084 334.092508899772  1414.17979681917 333.830051393254  L 1414.1011071526 334.826950553839  C 1417.42211491624 335.089092407255  1420.74151529983 335.371214557435  1424.05912803881 335.673301683352  L 1424.14980846586 334.6774216403  Z M 1437.09428407898 335.958256147407  C 1433.7778143968 335.60388023177  1430.45924243546 335.269462887326  1427.13874841443 334.955022275056  L 1427.04447324103 335.950568452629  C 1430.36097376135 336.264630892615  1433.67555453365 336.598646039108  1436.98803555511 336.952595752963  L 1437.09428407898 335.958256147407  Z M 1450.01713876613 337.441432693837  C 1446.70661864883 337.03521847038  1443.39368428483 336.648927488492  1440.07851558745 336.28258072622  L 1439.96867797999 337.276530272217  C 1443.27985958134 337.642436435576  1446.58880953654 338.028262831988  1449.89534814857 338.433988508627  L 1450.01713876613 337.441432693837  Z M 1462.91520980613 339.126588289059  C 1459.61144946573 338.668635174076  1456.30496350194 338.230565095052  1452.9959314779 337.812401841967  L 1452.87055831789 338.804511498582  C 1456.17561062637 339.222171833958  1459.47811993673 339.659715053682  1462.77790690173 340.117117396377  L 1462.91520980613 339.126588289059  Z M 1475.78534054332 341.013310510475  C 1472.48914853744 340.503730582764  1469.18992019857 340.013988619256  1465.88783469569 339.544111216042  L 1465.74695666678 340.53413817576  C 1469.04507080855 341.003450465552  1472.34033122262 341.492603424878  1475.63255895541 342.001570489627  L 1475.78534054332 341.013310510475  Z M 1488.6243811601 343.101137604356  C 1485.33656419411 342.540055577788  1482.04540092863 341.998761588552  1478.75107009465 341.47728503234  L 1478.59472167513 342.464986997363  C 1481.88509047441 342.985836382744  1485.17229551481 343.526479367071  1488.45615828021 344.086886589993  L 1488.6243811601 343.101137604356  Z M 1501.42918944781 345.389558598852  C 1498.1505521774 344.777111791849  1494.86825945995 344.18439825241  1491.58248954474 343.611450168635  L 1491.4107089991 344.596585410181  C 1494.69252717567 345.16884441921  1497.97087233649 345.760845112336  1501.24556644659 346.37255534016  L 1501.42918944781 345.389558598852  Z M 1514.19663157579 347.878013429044  C 1510.92797640999 347.214351730971  1507.65535754426 346.570363701204  1504.37895270251 345.946084312369  L 1504.19178207207 346.928411729832  C 1507.4642464384 347.551940308647  1510.73292938208 348.195153825161  1513.99765339286 348.858017348791  L 1514.19663157579 347.878013429044  Z M 1526.92358285829 350.565893074015  C 1523.66570976316 349.851178908499  1520.40356568525 349.156073997122  1517.13732777965 348.480616088482  L 1516.93481287229 349.459895268439  C 1520.19712253008 350.134540815539  1523.45534328378 350.828809736273  1526.7092981913 351.542664327428  L 1526.92358285829 350.565893074015  Z M 1539.60692851927 353.452539705902  C 1536.36063482209 352.686947991084  1533.10976390447 351.940896317076  1529.85449230949 351.214425199253  L 1529.63668268842 352.190416474301  C 1532.88803922464 352.916013877894  1536.13500037596 353.661168288442  1539.37738981194 354.425839239365  L 1539.60692851927 353.452539705902  Z M 1552.24356445462 356.537246850889  C 1549.00964464866 355.720964956588  1545.77084250502 354.924149107611  1542.52733391116 354.146842576104  L 1542.29428288281 355.11930708352  C 1545.533890565 355.89567876191  1548.76879745737 356.691536294261  1551.99882788394 357.50683646045  L 1552.24356445462 356.537246850889  Z M 1564.83039799196 359.819259562112  C 1561.6096435422 358.952487264012  1558.38370283232 358.105102251635  1555.15275105133 357.277150543352  L 1554.90451565227 358.245850283547  C 1558.13158162345 359.072806228634  1561.35364255029 359.919172105728  1564.57052345439 360.784901951782  L 1564.83039799196 359.819259562112  Z M 1573.32785972973 362.154465803365  C 1571.46293533757 361.631316964138  1569.59618863258 361.114686207026  1567.72765380326 360.604582993853  L 1567.46429478627 361.569280888621  C 1570.67802925889 362.446618712378  1573.88645565755 363.343285795826  1577.0893997443 364.259233444245  L 1573.32785972973 362.154465803365  Z M 653.599067433532 531.869015890899  C 650.650956962756 533.426082042155  647.706136306176 534.98936909412  644.764625142527 536.558866600143  L 645.235374857473 537.441133399857  C 648.175644542442 535.872298307669  651.119222323612 534.309671048358  654.066088530439 532.753262064226  L 653.599067433532 531.869015890899  Z M 1570.48543943718 368.38421937723  L 1578 364  L 1573.987339722 356.280637494368  L 1570.48543943718 368.38421937723  Z " fill-rule="nonzero" fill="#797979" stroke="none" />
  </g>
</svg>