<?xml version="1.0" encoding="utf-8"?>
<svg version="1.1" xmlns:xlink="http://www.w3.org/1999/xlink" width="638px" height="34px" viewBox="704 394  638 34" xmlns="http://www.w3.org/2000/svg">
  <g transform="matrix(0.933580426497201 0.3583679495453 -0.358367949545301 0.933580426497202 215.236450956482 -339.311967675192 )">
    <path d="M 756.052078414353 523.719948065681  C 753.106340677605 525.281036371969  750.162889153563 526.846434896393  747.221733298259 528.41613861001  L 747.69257542108 529.298356097582  C 750.632870532862 527.729111765368  753.575460641322 526.16417136253  756.520336293638 524.603539916304  L 756.052078414353 523.719948065681  Z M 767.552008896896 517.653576459663  C 764.600352448964 519.203444753135  761.650965796542 520.757631932722  758.703858414735 522.316133005492  L 759.171340237678 523.200135689434  C 762.11758513422 521.64209071956  765.066108634115 520.088358380504  768.016901265475 518.538943663503  L 767.552008896896 517.653576459663  Z M 779.074939042123 511.631006706329  C 776.117406618686 513.169632547153  773.162127540706 514.712585879536  770.209111302211 516.259861746638  L 770.673226056822 517.145636827882  C 773.625378080796 515.598813778565  776.579792281802 514.056311999073  779.536459169034 512.518136444561  L 779.074939042123 511.631006706329  Z M 790.620702014817 505.652326003702  C 787.657336436632 507.179687114821  784.696207721222 508.711384260287  781.737325381407 510.247412519422  L 782.19806634798 511.134947173237  C 785.156082756531 509.599368440219  788.116344883042 508.068119553465  791.078843217921 506.541205431981  L 790.620702014817 505.652326003702  Z M 802.18913064917 499.717620914358  C 799.219974821448 501.233695181811  796.25303934143 502.754113963622  793.288333740596 504.278872375342  L 793.745694248274 505.16815375152  C 796.709532213639 503.643841567742  799.675599405379 502.123867743974  802.643886295251 500.608237163007  L 802.18913064917 499.717620914358  Z M 813.780057451209 493.826977364172  C 810.805154362995 495.331742837414  807.83245507527 496.840861242121  804.86196913803 498.354327730149  L 805.3159425649 499.245342953192  C 808.285559175028 497.732319388471  811.257388487668 496.223642634696  814.231420956069 494.719317538366  L 813.780057451209 493.826977364172  Z M 825.393314601222 487.980480641069  C 822.412707324774 489.473915533292  819.434287269689 490.971711711062  816.458064004346 492.47386436261  L 816.908643777535 493.366600531919  C 819.88399603671 491.864887492628  822.861544442498 490.367529652285  825.841279429775 488.874531821024  L 825.393314601222 487.980480641069  Z M 837.028733956186 482.178215393793  C 834.042465646348 483.660298082237  831.058367947084 485.146750347168  828.076450445008 486.637567413257  L 828.523630040779 487.532011603314  C 831.504674870239 486.041630832068  834.487899258618 484.555613584712  837.473293622555 483.073964634953  L 837.028733956186 482.178215393793  Z M 848.686147052198 476.420265630683  C 845.69426094578 477.890974656954  842.704528807719 479.366061487383  839.716960242727 480.845521383156  L 840.160733186571 481.741660643713  C 843.147427425137 480.262633719052  846.136284603365 478.787978580047  849.127295119807 477.317699963904  L 848.686147052198 476.420265630683  Z M 860.365385106923 470.706714718451  C 857.367924522072 472.166028788826  854.372601232172 473.62972882765  851.379424859899 475.097810132686  L 851.819784726631 475.995631488954  C 854.812085131325 474.52797982503  857.806531825116 473.06470814523  860.803115188592 471.605821150194  L 860.365385106923 470.706714718451  Z M 872.066279022027 465.037645380981  C 869.0632873576 466.485543366722  866.062416283776 467.937835421697  863.06367544105 469.394516880321  L 863.500615854902 470.294007333157  C 866.498479101133 468.837752179642  869.498471956155 467.385885144655  872.500584780063 465.938410893496  L 872.066279022027 465.037645380981  Z M 883.788659385637 459.413139698128  C 880.780180120573 460.849600635783  877.773804711059 462.290463679839  874.769542815273 463.735724201428  L 875.203057449985 464.636870727521  C 878.20644013396 463.192033168432  881.211935712907 461.751591800041  884.219534531926 460.315551249644  L 883.788659385637 459.413139698128  Z M 895.532356474783 453.833279104529  C 892.518433167474 455.25828219624  889.506596950198 456.687695367783  886.496857498683 458.121514027072  L 886.926940077596 459.024303579136  C 889.935798714266 457.59090453383  892.946753502842 456.16190968709  895.959794770881 454.737323629443  L 895.532356474783 453.833279104529  Z M 907.297486440558 448.298266797969  C 905.305966776517 449.229605332083  903.315701516322 450.163623858084  901.326696066949 451.100319838513  C 900.299372839583 451.583690509303  899.272290587594 452.067573171341  898.245449696872 452.551967642826  L 898.672093993016 453.456387149785  C 899.698686468771 452.972109863774  900.725520257698 452.488344290278  901.752594977855 452.005090609238  C 903.740840706354 451.068752237992  905.730345798097 450.13509036846  907.721104847077 449.204107537646  L 907.297486440558 448.298266797969  Z M 919.090379365334 442.821381373563  C 916.062840528021 444.217684896293  913.038154758161 445.620166300356  910.016340957137 447.028816821588  L 910.438849731015 447.935175655602  C 913.459430254323 446.527100039846  916.482881573749 445.125191023763  919.509184796814 443.729457367388  L 919.090379365334 442.821381373563  Z M 930.912170338187 437.407154218978  C 927.877264389171 438.78737189009  924.845178683372 440.173782495873  921.815932168417 441.56637737259  L 922.233625233518 442.474965564989  C 925.261635437281 441.082939041037  928.292483672546 439.697094264336  931.326151000613 438.317439894542  L 930.912170338187 437.407154218978  Z M 942.762526444602 432.055737804752  C 939.720338849914 433.419830755914  936.680938595467 434.790131520378  933.644344673239 436.166631535694  L 934.057210266872 437.077423499642  C 937.092564879022 435.701485268479  940.130724678135 434.331743758061  943.171670679826 432.968207527419  L 942.762526444602 432.055737804752  Z M 954.641113965635 426.767282832604  C 951.591730396819 428.115212649367  948.545101186096 429.469364983558  945.501245370613 430.829731373627  L 945.909271866034 431.742701460232  C 948.95188540745 430.382890269879  951.997271212976 429.029290598955  955.04541025171 427.68191090623  L 954.641113965635 426.767282832604  Z M 966.547598387316 421.541938231187  C 963.491104718338 422.87366695438  960.437332347737 424.21163272389  957.386300357297 425.555827179314  L 957.789476264034 426.470949678342  C 960.839263051857 425.127303822362  963.891789101504 423.789884110177  966.947035338818 422.45869889885  L 966.547598387316 421.541938231187  Z M 978.481644410068 416.379851151901  C 975.41812671512 417.695341278592  972.3572971822 419.017082804848  969.299174937189 420.345067471645  L 969.697488901368 421.26231661225  C 972.754363050053 419.934873929275  975.813943381814 418.613671838825  978.876210778417 417.298718596622  L 978.481644410068 416.379851151901  Z M 990.442915958149 411.281166964745  C 987.372460509456 412.5803814492  984.304660010055 413.885861510715  981.239533630757 415.197598991293  L 981.632974435424 416.116948942738  C 984.696849859833 414.8057468151  987.763398313049 413.50079955268  990.832600631926 412.202115310215  L 990.442915958149 411.281166964745  Z M 1002.43107618912 406.24602925422  C 999.353769453594 407.528931509338  996.279084381231 408.818113341982  993.207040184488 410.113566696578  L 993.595596749921 411.034991568968  C 996.66638716844 409.740066921351  999.739817384851 408.451411236087  1002.81586819438 407.16903256553  L 1002.43107618912 406.24602925422  Z M 1014.44578750331 401.274579815294  C 1011.3617161415 402.541133713052  1008.2802330822 403.813981012254  1005.20135758035 405.093113759392  L 1005.58501896438 406.016587604398  C 1008.66263789974 404.737976903485  1011.74286332912 403.465649084941  1014.82567600389 402.199612099664  L 1014.44578750331 401.274579815294  Z M 1026.48671155337 396.366958649399  C 1023.39596241608 397.617128522259  1020.30776814777 398.873605443252  1017.22214804531 400.13638156116  L 1017.6009034436 401.061878372752  C 1020.68526422717 399.799617625423  1023.77219812609 398.543653504118  1026.8616858512 397.293993856912  L 1026.48671155337 396.366958649399  Z M 1038.55350925376 391.523303960497  C 1035.45616937985 392.757054602314  1032.36135086944 393.997125761336  1029.26907306079 395.243509688864  L 1029.64291180718 396.171003404043  C 1032.73392757976 394.925128157031  1035.82748301726 393.685563102093  1038.92355878915 392.452315984832  L 1038.55350925376 391.523303960497  Z M 1050.64584079029 386.743752151182  C 1047.54199740423 387.961048818192  1044.44064180518 389.18467929349  1041.34179337225 390.414635931107  L 1041.71070493904 391.344100430639  C 1044.80828865403 390.114645769241  1047.90837851268 388.89151468799  1051.01095514224 387.674714830347  L 1050.64584079029 386.743752151182  Z M 1062.76516635865 382.031430362697  C 1059.76644243296 383.185027582027  1056.7709713665 384.347062739774  1053.77878875461 385.517522027416  C 1053.66584556119 385.561638392613  1053.55290564142 385.605763142001  1053.43996899875 385.649896274237  L 1053.80394299698 386.581305383389  C 1053.91690973355 386.537160491127  1054.02987974777 386.493023990591  1054.14285304126 386.448895881155  C 1057.13336418864 385.279089929927  1060.12716203849 384.117703617329  1063.12421101372 382.964750744809  L 1062.76516635865 382.031430362697  Z M 1074.91948735781 377.408616359703  C 1071.79850662144 378.582114552598  1068.6809602199 379.764726334147  1065.56688804997 380.95643656989  L 1065.92429647094 381.890384759362  C 1069.0365499909 380.699370494578  1072.15227571349 379.517449370389  1075.27143376521 378.344636512432  L 1074.91948735781 377.408616359703  Z M 1087.10856479559 372.878238950212  C 1083.9787621878 374.028001709474  1080.85232460503 375.186903875744  1077.72929205714 376.354930618245  L 1078.07959750989 377.291566134215  C 1081.20080617473 376.124221531313  1084.32541788625 374.96599617566  1087.45339265722 373.816904889644  L 1087.10856479559 372.878238950212  Z M 1099.33169568061 368.440559418675  C 1096.19325170948 369.566520432937  1093.05810325881 370.701646145714  1089.92629045061 371.84592203025  L 1090.26947273165 372.785190853312  C 1093.39945652916 371.641583237588  1096.53277402112 370.507120449822  1099.66938510889 369.381817008301  L 1099.33169568061 368.440559418675  Z M 1111.58817505744 364.095833703293  C 1108.44127072912 365.197928034056  1105.29759222695 366.309211826149  1102.15717978212 367.429670857932  L 1102.49321909882 368.371518816807  C 1105.63179751068 367.251714144551  1108.77364007249 366.141079353544  1111.91870657652 365.039628657134  L 1111.58817505744 364.095833703293  Z M 1123.87729604737 359.844312381262  C 1120.72211285603 360.922476466468  1117.57008561051 362.009854245827  1114.42125464883 363.106431803636  L 1114.75013162048 364.050804578298  C 1117.89712363269 362.95486743299  1121.04731006211 361.868124693361  1124.20065059421 360.790590267001  L 1123.87729604737 359.844312381262  Z M 1136.19834988908 355.686240654318  C 1133.03506980639 356.74041231206  1129.87487560716 357.803821365388  1126.71780773393 358.876454205339  L 1127.03950339292 359.823297330143  C 1130.19472750624 358.751290918734  1133.35307611978 357.688502907155  1136.51450881457 356.634946896436  L 1136.19834988908 355.686240654318  Z M 1148.55062597958 351.621858334596  C 1145.37943144418 352.651976766703  1142.2112525519 353.691355763072  1139.04612984748 354.739982022266  L 1139.36062564037 355.689240889095  C 1142.52389988079 354.641227038355  1145.69022852423 353.602455049935  1148.85957104961 352.572938217522  L 1148.55062597958 351.621858334596  Z M 1160.93341191516 347.6513998308  C 1157.75448582203 348.65740562638  1154.57850495812 349.672694620695  1151.40550996729 350.697253820824  L 1151.7127877559 351.648873682234  C 1154.8839296851 350.624912835189  1158.05805574398 349.610216779941  1161.23512531167 348.604798502065  L 1160.93341191516 347.6513998308  Z M 1173.3459935325 343.775094134682  C 1170.15951922275 344.75692927344  1166.97591955812 345.74806971012  1163.79523527995 346.748502760838  L 1164.09527734236 347.702428733219  C 1167.27410406828 346.702579945665  1170.45584447844 345.71201834505  1173.6404578545 344.730756608085  L 1173.3459935325 343.775094134682  Z M 1185.78765494983 339.993164807838  C 1182.59381619982 340.950772663528  1179.402781345 341.917707379658  1176.2145912219 342.893956582109  L 1176.50738025353 343.850133648847  C 1179.6937084409 342.874454585945  1182.882879699 341.908084569494  1186.07485321442 340.951035966614  L 1185.78765494983 339.993164807838  Z M 1198.25812255517 336.30597541591  C 1196.54490389356 336.804060276835  1194.83282737495 337.306065298113  1193.12190644974 337.811986535891  C 1191.63496043598 338.250584783867  1190.14861075559 338.691202208662  1188.66286152068 339.133837591276  L 1188.94838063525 340.092210605928  C 1190.43337021185 339.649801541216  1191.91895997035 339.209409549359  1193.40514580052 338.771035848806  C 1195.11471157952 338.265514791273  1196.82543211088 337.763907095787  1198.53729395283 337.266216703672  L 1198.25812255517 336.30597541591  Z M 1210.76653147573 332.744715104133  C 1207.55419747247 333.640015601711  1204.34570786436 334.549052951864  1201.14115071164 335.471802205141  L 1201.41785670308 336.432756831697  C 1204.61967349578 335.51079666254  1207.82541938101 334.60253667086  1211.03500637392 333.708001784745  L 1210.76653147573 332.744715104133  Z M 1223.31377304218 329.322786144373  C 1220.0916807037 330.182305598385  1216.8732797495 331.055603810503  1213.65865851182 331.942656812173  L 1213.92466022293 332.906629368675  C 1217.13653249427 332.020334925682  1220.35218125008 331.147783509871  1223.57151823335 330.288999069368  L 1223.31377304218 329.322786144373  Z M 1235.89829529223 326.040611793376  C 1232.66684315759 326.864243890275  1229.43892893976 327.701694946522  1226.21464123208 328.552941977426  L 1226.46990576122 329.519813230574  C 1229.69143623639 328.669294139045  1232.91659012049 327.832559224631  1236.14527889601 327.009631452343  L 1235.89829529223 326.040611793376  Z M 1248.51854165238 322.898598021708  C 1245.27812941835 323.686240886836  1242.04110119604 324.487741203294  1238.80754582896 325.303076973096  L 1239.05204160258 326.272727331049  C 1242.28283181191 325.458088791313  1245.51709190681 324.657273873574  1248.75473311949 323.870304557071  L 1248.51854165238 322.898598021708  Z M 1261.17295113044 319.897133463541  C 1257.92397960204 320.648689673731  1254.67823776171 321.414140113211  1251.43581469214 322.193463773423  L 1251.66951146869 323.165773300595  C 1254.90916179735 322.387116074885  1258.15212805885 321.622320206263  1261.39832124646 320.871406685387  L 1261.17295113044 319.897133463541  Z M 1273.85995850859 317.036589368581  C 1270.60282954954 317.751965964207  1267.34877555545 318.481271848514  1264.09788583713 319.224487004966  L 1264.32075471076 320.199335436859  C 1267.56886444801 319.456755836899  1270.82013575507 318.728073614655  1274.0744793976 318.013308769523  L 1273.85995850859 317.036589368581  Z M 1286.57799453699 314.317319556151  C 1283.31311102 314.996428052626  1280.05114736452 315.689499174265  1276.79219309843 316.396513899033  L 1277.0042065026 317.373780657115  C 1280.26037389121 316.667370532245  1283.51954809587 315.974892086677  1286.78163966501 315.296364326237  L 1286.57799453699 314.317319556151  Z M 1299.32548612787 311.739660371426  C 1296.05325188483 312.382416770147  1292.78378203867 313.039167403485  1289.5171663233 313.709894246257  L 1289.71829803418 314.689458452872  C 1292.98212032041 314.019305178608  1296.24879429687 313.363116162069  1299.51823030614 312.72090941308  L 1299.32548612787 311.739660371426  Z M 1312.10085655015 309.30393064383  C 1308.82167632212 309.910255442566  1305.54510468444 310.530604354434  1302.27123156592 311.16496035333  L 1302.46145670561 312.146700846652  C 1305.73253018893 311.512887313918  1309.00629988374 310.893068890135  1312.28267593822 310.287262586829  L 1312.10085655015 309.30393064383  Z M 1324.90355797478 307.012067277362  C 1323.05446911618 307.329922146769  1321.20652047955 307.654374881723  1319.35974736714 307.985419284049  C 1317.92361885932 308.241601879253  1316.48797098403 308.500471571778  1315.0528112821 308.7620270019  L 1315.23210632175 309.745822350921  C 1316.66617722429 309.484465352649  1318.1007359765 309.225792313643  1319.53577504245 308.969804592745  C 1321.38034467284 308.639154156409  1323.22608851627 308.315088017094  1325.07297130728 307.997612366525  L 1324.90355797478 307.012067277362  Z M 1337.74136660617 304.914130472624  C 1334.44524772412 305.424903440026  1331.15240252906 305.956582976236  1327.86302982587 306.509136981209  L 1328.02869037097 307.495319816082  C 1331.31389195275 306.943466482648  1334.60256162305 306.412461147907  1337.89450082915 305.90233587119  L 1337.74136660617 304.914130472624  Z M 1350.61203313351 303.028232162782  C 1347.30793772768 303.484567848511  1344.00677072033 303.961861256641  1340.70873141876 304.46008357068  L 1340.85810284559 305.448864727886  C 1344.15196003599 304.951274189552  1347.44894096602 304.474586018026  1350.74884658118 304.018828993252  L 1350.61203313351 303.028232162782  Z M 1363.51205562021 301.354885475594  C 1360.2008826909 301.756659716797  1356.89229207468 302.179437131689  1353.58648352724 302.623192195146  L 1353.71952519383 303.614302640531  C 1357.02114177827 303.171110285042  1360.32553690353 302.748868977219  1363.63251106747 302.347604209791  L 1363.51205562021 301.354885475594  Z M 1376.43792414233 299.894545706358  C 1373.12057461544 300.241649185634  1369.80546061383 300.609795575182  1366.49278228683 300.998962648236  L 1366.60945799432 301.992132713875  C 1369.91793564699 301.603459127955  1373.22884588566 301.23577957006  1376.54198881486 300.889116238764  L 1376.43792414233 299.894545706358  Z M 1389.38612174358 298.647610194035  C 1386.06349822567 298.939948469157  1382.74276283687 299.253363665648  1379.42411606591 299.587836861129  L 1379.52439406839 300.582796318704  C 1382.83883259665 300.248747255251  1386.15535709432 299.935729487979  1389.47376732677 299.643761915284  L 1389.38612174358 298.647610194035  Z M 1402.35312539221 297.614418213135  C 1399.02613192479 297.85191174276  1395.70067867657 298.110510470103  1392.37696642114 298.390198782319  L 1392.46081943432 299.386676916641  C 1395.78031702374 299.10734326594  1399.10155339823 298.849072457258  1402.42432803887 298.611880083639  L 1402.35312539221 297.614418213135  Z M 1415.33540693959 296.795250881406  C 1412.00494875321 296.977835046712  1408.67568245696 297.181546943649  1405.34780905483 297.40637427314  L 1405.41521426341 298.404099955809  C 1408.73886772298 298.179557720822  1412.06391231027 297.976104142765  1415.39014727643 297.793751505103  L 1415.33540693959 296.795250881406  Z M 1428.3294340802 296.190331083345  C 1424.99641734801 296.317956205622  1421.66424385279 296.466725844856  1418.33311477383 296.636631019112  L 1418.38405383776 297.635332782285  C 1421.71095884572 297.465643057957  1425.03890694555 297.317062067528  1428.3676972131 297.189598781542  L 1428.3294340802 296.190331083345  Z M 1441.33425446256 295.815855211064  C 1438.38788194351 295.866996217744  1435.44197860182 295.942310214587  1432.49684188581 296.041789597126  C 1432.10766840282 296.054630982786  1431.71850448395 296.067760606382  1431.32935044976 296.081178457099  L 1431.36380950919 297.080584567358  C 1431.75260002823 297.067179250474  1432.14140042598 297.05406198776  1432.53021038201 297.041232790025  C 1435.47001032302 296.941931536034  1438.41057554968 296.866752944719  1441.35160912641 296.815704607544  L 1441.33425446256 295.815855211064  Z M 1454.34583307353 295.74716214763  C 1451.00945635243 295.724484866515  1447.6729409506 295.732801195693  1444.33671873116 295.772110058735  L 1444.34850036086 296.772040652927  C 1447.67853004019 296.732804753163  1451.00885235773 296.724503860368  1454.33903625195 296.747139048972  L 1454.34583307353 295.74716214763  Z M 1467.35527573092 295.992719535307  C 1464.02041973934 295.889475166998  1460.68467660989 295.817212020383  1457.34847810575 295.77593944887  L 1457.33610791449 296.775862935127  C 1460.66611392254 296.817058898417  1463.99566540115 296.889187913549  1467.32433138856 296.992240644477  L 1467.35527573092 295.992719535307  Z M 1480.35499389014 296.552384137891  C 1477.02360388461 296.368632905911  1473.69057880157 296.215832435357  1470.35635005237 296.094002504014  L 1470.3198352558 297.093335616461  C 1473.64787516509 297.214939412766  1476.9747136424 297.367456262213  1480.29992007716 297.550866423724  L 1480.35499389014 296.552384137891  Z M 1493.33740467901 297.425829497137  C 1490.01142389432 297.161678585512  1486.68306104623 296.928429921138  1483.35274694263 296.726113694644  L 1483.29210884023 297.724273511777  C 1486.6162413701 297.926214208326  1489.93842626629 298.159029927406  1493.25823352054 298.422690534427  L 1493.33740467901 297.425829497137  Z M 1506.29493532091 298.612546123193  C 1502.97630383661 298.268149613924  1499.65454469249 297.954588812127  1496.33008784169 297.671904303662  L 1496.24536180429 298.668308588372  C 1499.56364795332 298.950468391035  1502.87924140303 299.263447175894  1506.19171299833 299.607204432423  L 1506.29493532091 298.612546123193  Z M 1519.2200275521 300.111841791781  C 1515.91068116079 299.68740057497  1512.59746333765 299.293710539061  1509.28080293025 298.930822641469  L 1509.17203837945 299.924890180668  C 1512.48254255648 300.287104502669  1515.78961053918 300.68006378949  1519.09281427606 301.103717178309  L 1519.2200275521 300.111841791781  Z M 1532.10514203047 301.922841947986  C 1528.80701110869 301.418603604658  1525.50426724126 300.945013978165  1522.19733792015 300.502134367772  L 1522.06459829945 301.493285311421  C 1525.36538945257 301.935342869334  1528.66200292085 302.408053440848  1531.95401200582 302.911355840478  L 1532.10514203047 301.922841947986  Z M 1544.93779468054 304.098823184667  C 1541.65684544231 303.486294176573  1538.36820528856 302.915702766549  1535.07267915749 302.387188614394  L 1534.91432934978 303.374571690204  C 1538.20144657305 303.901737278702  1541.48169538934 304.470872760181  1544.75427291437 305.081838831207  L 1544.93779468054 304.098823184667  Z M 1557.69130343904 306.699686266456  C 1554.43250408203 305.978543811456  1551.16462541934 305.299060431358  1547.88846730745 304.6614024387  L 1547.69741656622 305.64298260062  C 1550.96521518999 306.27901353676  1554.22475549053 306.956763138133  1557.47523965226 307.676065516564  L 1557.69130343904 306.699686266456  Z M 1570.35141099794 309.722623748557  C 1567.11835605887 308.89366328471  1563.87484343862 308.106037421598  1560.62166702979 307.35993894106  L 1560.39812608875 308.334633481763  C 1563.64300164989 309.07882820761  1566.87823808069 309.864444354217  1570.10304351427 310.691289631646  L 1570.35141099794 309.722623748557  Z M 1582.90415294382 313.164301255769  C 1579.70040856268 312.22843714708  1576.48483965993 311.333537571858  1573.25823328862 310.479821568615  L 1573.00244871898 311.446555375792  C 1576.22082203907 312.298093026058  1579.42818605392 313.190709163757  1582.62375571878 314.124185309284  L 1582.90415294382 313.164301255769  Z M 1595.33568329021 317.02092253223  C 1592.1647832767 315.979187060074  1588.98070494393 314.978000869233  1585.78422763717 314.01760901326  L 1585.49648157569 314.975315755483  C 1588.68480270893 315.933257062971  1591.86075650557 316.931888613967  1595.02356560892 317.970965980196  L 1595.33568329021 317.02092253223  Z M 1607.63228975007 321.288233628786  C 1604.49773168574 320.141775853292  1601.3486560405 319.035407380088  1598.18583359225 317.969399007481  L 1597.86644342997 318.917022310404  C 1601.02119557889 319.980310642032  1604.16223600131 321.083856090897  1607.28879588608 322.227388549658  L 1607.63228975007 321.288233628786  Z M 1619.78096160774 325.962283523517  C 1619.67960617112 325.921160197674  1619.57823005718 325.880087853339  1619.47683330416 325.839066506003  C 1616.4822446516 324.6325160666  1613.4728611036 323.463015493836  1610.44937187414 322.330832628663  L 1610.09868990637 323.267327240221  C 1613.11424254934 324.396538152612  1616.11572758118 325.56296608016  1619.10245769788 326.766343924887  C 1619.2033240215 326.80715093664  1619.30416985836 326.84800856842  1619.4049951708 326.888916804971  L 1619.78096160774 325.962283523517  Z M 1631.74480662391 331.096792758617  C 1628.70377562216 329.71917894928  1625.64177504728 328.388331405106  1622.55988723028 327.104720543242  L 1622.17540177453 328.027851592614  C 1625.24784181786 329.307527442685  1628.30045558502 330.634295167247  1631.33216406293 332.007685791235  L 1631.74480662391 331.096792758617  Z M 1643.49424012386 336.704607403054  C 1640.5106022339 335.206744157356  1637.50414535193 333.754773178527  1634.47593217588 332.349207697458  L 1634.05491713103 333.256261351885  C 1637.07384707733 334.657517959524  1640.07108742519 336.105037805152  1643.0455787345 337.598309231238  L 1643.49424012386 336.704607403054  Z M 1655.01054651125 342.776794805287  C 1652.0890543505 341.161068059864  1649.14293012711 339.590286481535  1646.1732152131 338.065005297386  L 1645.71634121128 338.954536716989  C 1648.67695222664 340.475142029641  1651.61404487052 342.041108251374  1654.52658096332 343.651881857197  L 1655.01054651125 342.776794805287  Z M 1666.27538153641 349.303682617424  C 1663.42068873075 347.572666052919  1660.53959002809 345.885575962867  1657.63310381573 344.243008686136  L 1657.14109860858 345.113600942092  C 1660.03867475492 346.751132797426  1662.91094121902 348.433050977836  1665.75688273549 350.158760972575  L 1666.27538153641 349.303682617424  Z M 1677.27080151674 356.27487420224  C 1674.48745528783 354.431325143705  1671.67597138931 352.630613896776  1668.83734360162 350.873376962217  L 1668.31099090103 351.723643293774  C 1671.14091664813 353.475493277926  1673.94378171784 355.270684300466  1676.71859537621 357.108581811872  L 1677.27080151674 356.27487420224  Z M 1687.97929191915 363.679265193918  C 1685.27172584112 361.726120218675  1682.53433514119 359.814656156133  1679.76808740995 357.945548655046  L 1679.20822563972 358.774134678484  C 1681.96599321724 360.637512280994  1684.69499222697 362.543116597526  1687.39425804458 364.490274050592  L 1687.97929191915 363.679265193918  Z M 744.575314096718 529.830033692169  C 741.63553772114 531.40231940899  738.698063942357 532.978906613568  735.762902197204 534.559790241011  L 736.237097802796 535.440209758989  C 739.171400558632 533.859788784805  742.108014671249 532.283662976236  745.046930707017 530.711837396454  L 744.575314096718 529.830033692169  Z M 1684.41629147257 369.417726319175  L 1693 368  L 1692.00242799229 359.357381757278  L 1684.41629147257 369.417726319175  Z " fill-rule="nonzero" fill="#333333" stroke="none" />
  </g>
</svg>