<?xml version="1.0" encoding="utf-8"?>
<svg version="1.1" xmlns:xlink="http://www.w3.org/1999/xlink" width="626px" height="20px" viewBox="1000 506  626 20" xmlns="http://www.w3.org/2000/svg">
  <g transform="matrix(0.987688340595138 0.156434465040232 -0.15643446504023 0.987688340595142 96.8853927593424 -199.045636344918 )">
    <path d="M 837.5854767199 625.315241277111  C 837.124036040079 625.744423017409  836.668719384459 626.18014234294  836.219664740527 626.622267205351  C 834.215618667003 628.533902959782  832.556906775434 630.77740246619  831.316710428261 633.253783887313  L 832.210847764699 633.701576722884  C 833.400646587271 631.325827345934  834.992343804006 629.173736360125  836.915577092428 627.34043876874  C 837.359717557139 626.903045883719  837.810079418591 626.472015635402  838.266525020957 626.047479770791  L 837.5854767199 625.315241277111  Z M 847.990522687625 617.393665640778  C 845.129782621821 619.156352992681  842.406759632495 621.133334365807  839.84485165752 623.307622284279  L 840.491923890712 624.070050985885  C 843.015306361233 621.928459612217  845.697381027931 619.981207724083  848.51510180685 618.245027342802  L 847.990522687625 617.393665640778  Z M 859.372662107358 611.035246455006  C 856.391676977266 612.549924881921  853.457451707041 614.154922152547  850.574056201586 615.848012062124  L 851.080404039782 616.710341388283  C 853.946313882705 615.027518817592  856.862745245445 613.432254669108  859.825652904063 611.926761647306  L 859.372662107358 611.035246455006  Z M 871.219758070406 605.60093463711  C 870.272872799093 605.995664264352  869.327264936 606.393451210171  868.382949278208 606.794289249909  C 866.2576855476 607.717281027729  864.152111464033 608.684963779763  862.06762974265 609.696692844179  L 862.504277552581 610.596325374761  C 864.574876270202 609.591334598459  866.666414447497 608.630070479805  868.777500389832 607.71317263711  C 869.718564062756 607.313724677181  870.660913722894 606.917313193773  871.604534663883 606.523944373306  L 871.219758070406 605.60093463711  Z M 883.298381634644 600.758248508986  C 880.184503674514 601.957597789554  877.083312000019 603.189628364294  873.995320028309 604.454136264638  L 874.374270787328 605.379553101658  C 877.455781141864 604.117699371467  880.550463493362 602.888254797785  883.657805502281 601.691422921073  L 883.298381634644 600.758248508986  Z M 895.504762544426 596.247259567812  C 892.359289629252 597.361115387603  889.225605677595 598.507986797214  886.104229485859 599.687683926584  L 886.457763949713 600.623105426694  C 889.572588451646 599.445884451807  892.699694879823 598.301420296323  895.838565526782 597.18990243177  L 895.504762544426 596.247259567812  Z M 907.829793846684 592.071333378278  C 904.655072755123 593.098864710245  901.491234509437 594.159721295364  898.338802898219 595.253727503741  L 898.666657301439 596.198455766411  C 901.812472038315 595.106745849439  904.969669467419 594.048115975502  908.13772689958 593.022741405852  L 907.829793846684 592.071333378278  Z M 920.264280065506 588.233585521003  C 917.062679397743 589.174025743188  913.871047338702 590.148076018514  910.68991227842 591.155575088274  L 910.991842014954 592.108905269374  C 914.166299953087 591.103520914717  917.351232857018 590.131515146326  920.546113445837 589.193048884416  L 920.264280065506 588.233585521003  Z M 932.776718028751 584.682126156034  C 930.817399299312 585.228903298427  928.859325506788 585.780131773837  926.902511815633 586.335807313233  C 925.649680102777 586.684174765109  924.398279907687 587.037670035076  923.148342694182 587.396284235243  L 923.424122499887 588.35750507291  C 924.672312674725 587.999392108219  925.92196480933 587.646394512342  927.173047439659 587.298521173136  C 929.129280606868 586.743006172026  931.086774075927 586.191938911728  933.045512673037 585.645323663922  L 932.776718028751 584.682126156034  Z M 945.319680497831 581.24720362329  C 942.099292872595 582.112373706449  938.882139018982 582.989536147446  935.668285889847 583.878672691472  L 935.934927225712 584.84246851944  C 939.146387045234 583.953994102447  942.361145131387 583.077484871501  945.579134580867 582.212959067901  L 945.319680497831 581.24720362329  Z M 957.895319813765 577.933912796596  C 954.666704584316 578.767854898745  951.441206836473 579.613820113382  948.218893696738 580.471790834946  L 948.476188777981 581.438123718154  C 951.696102308056 580.580791914888  954.919198074863 579.735456678185  958.145409001579 578.902135600572  L 957.895319813765 577.933912796596  Z M 970.502456518348 574.742564426602  C 967.265916493683 575.545200333041  964.03237736822 576.359888978977  960.801906435814 577.186613409757  L 961.049831130954 578.155392716689  C 964.277896378711 577.329283935551  967.509027534841 576.515201976343  970.743157355294 575.713163781173  L 970.502456518348 574.742564426602  Z M 983.139908199263 571.673457827075  C 979.895746931697 572.444712259271  976.654469699299 573.228047927603  973.416143957324 574.023448529823  L 973.65467501372 574.994583399516  C 976.890589221746 574.199775120524  980.129452722236 573.417022790846  983.37119811022 572.646342700578  L 983.139908199263 571.673457827075  Z M 995.806489600977 568.726880846839  C 992.555011357437 569.466681469542  989.306300014899 570.218590691844  986.06042318297 570.982592865607  L 986.289538229005 571.955992216172  C 989.532997903737 571.192558983699  992.779289978413 570.441209697207  996.028346893467 569.701959993252  L 995.806489600977 568.726880846839  Z M 1008.50101273591 565.903109842769  C 1005.24252246981 566.611387270698  1001.98668171069 567.331799526118  998.733558216872 568.064331616301  L 998.953235764045 569.039904153465  C 1002.20393670424 568.307917569246  1005.45735288621 567.588041794331  1008.71341660213 566.880291810273  L 1008.50101273591 565.903109842769  Z M 1021.2123368443 563.168947145789  C 1018.08543535585 563.835136011915  1014.9596269102 564.506445025989  1011.83492408178 565.182871487481  C 1011.70139849799 565.211540116997  1011.5678772875 565.240229115991  1011.43436045679 565.268938483074  L 1011.64457990173 566.246592708742  C 1011.77827317227 566.217845402805  1011.91197083789 566.189118533946  1012.04567289117 566.160412103758  C 1015.16958435122 565.484156009508  1018.29460124746 564.81301651846  1021.42071100641 564.146996330935  L 1021.2123368443 563.168947145789  Z M 1033.93512035814 560.48786036444  C 1030.67134659793 561.168075416989  1027.40873680541 561.853863444369  1024.14730525047 562.545221447103  L 1024.35467718845 563.523483620212  C 1027.61499503973 562.832361700293  1030.87649072591 562.14680785378  1034.13914998264 561.466825078986  L 1033.93512035814 560.48786036444  Z M 1046.66968234414 557.863288457662  C 1043.40292063729 558.529005832306  1040.1372981415 559.200301295102  1036.87282914276 559.877171909359  L 1037.07585560735 560.856345159951  C 1040.33920986521 560.1797056814  1043.60371722589 559.508639450593  1046.86936340895 558.84314940308  L 1046.66968234414 557.863288457662  Z M 1059.41577176332 555.295283164168  C 1056.14608650719 555.946489737686  1052.87751568595 556.603279402116  1049.61007359557 557.265649284811  L 1049.80875058447 558.245714310246  C 1053.07507691824 557.58357061169  1056.34253159856 556.927005225656  1059.61110033208 556.276021024263  L 1059.41577176332 555.295283164168  Z M 1072.17313734945 552.783895107564  C 1068.90059300098 553.420578042395  1065.62913828634 554.062848961423  1062.35878751703 554.710705054928  L 1062.55311111368 555.691642534987  C 1065.82234513362 555.044007669398  1069.09268272158 554.401956071144  1072.36410957162 553.765490548853  L 1072.17313734945 552.783895107564  Z M 1084.94152761403 550.329173795346  C 1081.66618868456 550.951320540622  1078.39191456931 551.579060052649  1075.11871958919 552.21238958584  L 1075.30868596285 553.194180183105  C 1078.58076322188 552.56106691744  1081.85391924867 551.933541763857  1085.12813972493 551.311607467441  L 1084.94152761403 550.329173795346  Z M 1097.7206908512 547.931167617932  C 1094.44262190864 548.538765909053  1091.16559293823 549.151961639516  1087.88961827293 549.770752127344  L 1088.07522367875 550.753376487579  C 1091.35007967376 550.134797302526  1094.62598961499 549.521810964145  1097.90293917211 548.914420153919  L 1097.7206908512 547.931167617932  Z M 1110.51037514275 545.589923847697  C 1107.22964080833 546.182961706957  1103.94992158349 546.781601567805  1100.67123181296 547.385840811928  L 1100.85247259207 548.369279564463  C 1104.13004276517 547.765246654198  1107.40864204216 547.166811214941  1110.68825608097 546.573975864523  L 1110.51037514275 545.589923847697  Z M 1123.30997348935 543.305474075038  C 1123.27359549426 543.311909264691  1123.23721751097 543.318344833311  1123.20083964661 543.324780761951  C 1119.95402270043 543.896939740848  1116.70817427135 544.474581195051  1113.46330824277 545.05770265383  L 1113.64018082233 546.041936411938  C 1116.88404972654 545.458994142258  1120.12890076337 544.881530380445  1123.37472005173 544.309547596823  C 1123.41120230929 544.303093196732  1123.44768445625 544.296639199522  1123.48416684531 544.290185542799  L 1123.30997348935 543.305474075038  Z M 1136.11508220838 541.056009342599  C 1132.83103507203 541.628882755451  1129.5475136929 542.204766048632  1126.26452221025 542.783658496178  L 1126.43817401628 543.768465609405  C 1129.72056374832 543.189679269014  1133.00348327737 542.613901531839  1136.28692846962 542.041133122892  L 1136.11508220838 541.056009342599  Z M 1148.92551511736 538.837065996467  C 1145.64011212946 539.402111789354  1142.35522772465 539.970168706921  1139.0708660439 540.541236033068  L 1139.24217052882 541.526454168025  C 1142.52593020683 540.955491514909  1145.81021251368 540.387538718482  1149.09501330798 539.822596494918  L 1148.92551511736 538.837065996467  Z M 1161.74119946768 536.648656637704  C 1158.45445928557 537.205871601812  1155.16823050946 537.766098917851  1151.88251728202 538.329337879591  L 1152.05147347302 539.314961441366  C 1155.33658444998 538.751825717768  1158.62221088172 538.191701087753  1161.90834862513 537.634588257626  L 1161.74119946768 536.648656637704  Z M 1174.56206248094 534.490793693967  C 1171.27400376953 535.040174664953  1167.98644928414 535.592569198014  1164.69940316911 536.147976596794  L 1164.8660101067 537.133999988173  C 1168.15245372695 536.578694392059  1171.43940562498 536.026401109324  1174.72686165601 535.477120836398  L 1174.56206248094 534.490793693967  Z M 1187.3880313493 532.36348941945  C 1184.09867278101 532.905033277458  1180.80981125589 533.449591890572  1177.52145091992 533.997164572314  L 1177.68570765797 534.983582193814  C 1180.97346525925 534.436109878521  1184.26172395548 533.891651079784  1187.55047960612 533.350206483181  L 1187.3880313493 532.36348941945  Z M 1200.21903323595 530.266755894803  C 1196.92839349057 530.800459564485  1193.63824360268 531.337179165183  1190.34858771989 531.876914020301  L 1190.51049332562 532.863720270198  C 1193.79954623527 532.324084345068  1197.08909306007 531.787463121583  1200.37912965199 531.25385727641  L 1200.21903323595 530.266755894803  Z M 1213.05499527549 528.200605027073  C 1209.76309304008 528.726465477603  1206.47167347371 529.255343017932  1203.18074072559 529.78723698135  L 1203.34029427954 530.774426255715  C 1206.63062382049 530.242629785099  1209.92144009105 529.713849184584  1213.21273894159 529.188085120951  L 1213.05499527549 528.200605027073  Z M 1225.89584457434 526.165048549633  C 1222.60269854314 526.683062794726  1219.31002798978 527.204095271265  1216.01783706506 527.728145322435  L 1216.17503766116 528.715712015162  C 1219.46662514908 528.191758018899  1222.75869217537 527.670821044535  1226.0512345947 527.152901748025  L 1225.89584457434 526.165048549633  Z M 1238.74150821118 524.160098022113  C 1235.44713708549 524.67026312004  1232.15323424374 525.183447573924  1228.85980383829 525.69965073684  L 1229.01465058383 526.687589239682  C 1232.30747732528 526.171480693389  1235.60077641409 525.658390303184  1238.89454370336 525.148318715144  L 1238.74150821118 524.160098022113  Z M 1251.59191323735 522.185764830335  C 1248.29633572444 522.688077884093  1245.00121930187 523.193411400721  1241.70656811762 523.701764744092  L 1241.85906013324 524.690069446689  C 1245.15310742776 524.181809281424  1248.44761987888 523.676568388842  1251.74259333228 523.174347406043  L 1251.59191323735 522.185764830335  Z M 1264.44832960384 520.246829572322  C 1263.30090631746 520.417462913191  1262.15350883912 520.588269885409  1261.00613724617 520.759250477459  C 1258.8565830478 521.083048584492  1256.70722256412 521.408131380099  1254.55805694813 521.734498689895  L 1254.70819336784 522.723163979807  C 1256.85670468729 522.396896029968  1259.00541078917 522.071912048011  1261.15431052581 521.748212207515  C 1262.30132186958 521.577285380137  1263.44835905884 521.406532082527  1264.59542206807 521.23595231848  L 1264.44832960384 520.246829572322  Z M 1277.3085626864 518.341813880557  C 1274.01079120593 518.828415373076  1270.71323145854 519.316450829553  1267.41588440736 519.805920107452  L 1267.56271880376 520.795081196474  C 1270.85977911221 520.305654483631  1274.15705208377 519.817661469679  1277.4545367846 519.331102292828  L 1277.3085626864 518.341813880557  Z M 1290.17094130272 516.451338793698  C 1286.87262178909 516.93421161592  1283.57451239901 517.418518638832  1280.27661407217 517.904259724451  L 1280.42233005936 518.893586187798  C 1283.7199415916 518.407887343603  1287.01776416592 517.923622437815  1290.31579684832 517.440791607586  L 1290.17094130272 516.451338793698  Z M 1303.03544901227 514.575406728128  C 1299.73658568528 515.05455026227  1296.43793086025 515.535128233746  1293.13948547702 516.017140505634  L 1293.28408286874 517.00663107876  C 1296.5822414098 516.524660724029  1299.88060937164 516.044124545385  1303.1791858201 515.565022678925  L 1303.03544901227 514.575406728128  Z M 1315.90206937178 512.71402008164  C 1312.60266644801 513.189433715267  1309.30347040433 513.666282021038  1306.00448218073 514.144564863092  L 1306.14796079217 515.134218281243  C 1309.44666212639 514.655977032023  1312.74557125981 514.17917019474  1316.04468725813 513.703797904432  L 1315.90206937178 512.71402008164  Z M 1328.77078593531 510.867181233434  C 1325.47084762807 511.338864359441  1322.1711145906 511.811982388879  1318.87158773943 512.28653519033  L 1319.01394738719 513.276350188543  C 1322.31318729427 512.801838656683  1325.61263339052 512.328761769078  1328.91228471789 511.8571196631  L 1328.77078593531 510.867181233434  Z M 1341.64158225421 509.034892544122  C 1338.34111278931 509.502844558484  1335.04084695999 509.972231709107  1331.74078570654 510.443053862255  L 1331.88202620866 511.433029175361  C 1335.18180047942 510.962247966244  1338.48177930545 510.492901635259  1341.78196175215 510.024990315334  L 1341.64158225421 509.034892544122  Z M 1354.51444187719 507.217156355708  C 1351.21344546932 507.681376660857  1347.91265107438 508.147032331574  1344.61205963281 508.614123235187  L 1344.75218080876 509.604257597811  C 1348.05248522153 509.13720731375  1351.35299256722 508.671592138168  1354.65370191106 508.207412202935  L 1354.51444187719 507.217156355708  Z M 1367.38934835031 505.413974991602  C 1364.08782921877 505.874462994177  1360.78651047725 506.336386589792  1357.48539306632 506.799745646839  L 1357.624394737 507.790037793403  C 1360.92522507338 507.326719031376  1364.22625672006 506.864835606341  1367.52748874212 506.40438764911  L 1367.38934835031 505.413974991602  Z M 1380.26628521704 503.625350756608  C 1376.96424758178 504.082105868019  1373.66240871337 504.54029679811  1370.36076955255 504.999923416331  L 1370.49865154029 505.990372081057  C 1373.80000358119 505.530785433272  1377.10155530952 505.072634349154  1380.40330579021 504.615918958464  L 1380.26628521704 503.625350756608  Z M 1393.14523601822 501.851285936926  C 1389.84268409987 502.304307573355  1386.54032932495 502.758765252264  1383.23817263435 503.21465884417  L 1383.3749347629 504.205262761078  C 1386.67680428858 503.749408814973  1389.97887187855 503.29499065738  1393.28113659761 502.842008416999  L 1393.14523601822 501.851285936926  Z M 1406.02618429213 500.091782800142  C 1402.72312231197 500.541070382542  1399.42025585158 500.991794229385  1396.11758585196 501.443954212259  L 1396.25322794653 502.43471211517  C 1399.55561073658 501.982591453413  1402.85818996753 501.531906803177  1406.16096470404 501.082658292102  L 1406.02618429213 500.091782800142  Z M 1418.90911357451 498.34684359523  C 1415.60554575841 498.792396548795  1412.30217182635 499.239385988533  1408.9989927431 499.687811783894  L 1409.1335146303 500.678722406435  C 1412.43640646365 500.230335606919  1415.73949311427 499.783385040098  1419.04277364666 499.337870832552  L 1418.90911357451 498.34684359523  Z M 1431.79400739855 496.616470552554  C 1428.48993796122 497.058288308846  1425.18606079556 497.501542768011  1421.88237684288 497.946233803757  L 1422.01577835078 498.937295879356  C 1425.31917500572 498.492643515206  1428.62276485403 498.049427603084  1431.9265469601 497.607648268518  L 1431.79400739855 496.616470552554  Z M 1444.68084929494 494.900665883851  C 1441.37628246354 495.338747877614  1438.07190627938 495.778266790708  1434.76772168394 496.219222497904  L 1434.90000264202 497.2104347598  C 1438.20389989618 496.769517399364  1441.50798871959 496.330036708455  1444.81226817648 495.891992811547  L 1444.68084929494 494.900665883851  Z M 1457.56962279186 493.199431782248  C 1454.26456279025 493.633777453529  1450.95969181122 494.069560258762  1447.65501079639 494.506780073786  L 1447.78617103556 495.498141255022  C 1451.09056466594 495.060959461875  1454.3951482412 494.625214553922  1457.69992082542 494.190906654573  L 1457.56962279186 493.199431782248  Z M 1470.46031141506 491.512770422236  C 1467.15476247166 491.943379215348  1463.84940091412 492.375425356738  1460.54422770784 492.808908720223  L 1460.67426706046 493.800417553653  C 1463.97915284343 493.366971886596  1467.28422694666 492.934963318562  1470.58948843408 492.5043919719  L 1470.46031141506 491.512770422236  Z M 1483.35289868781 489.840683959686  C 1480.04686501984 490.267555325257  1476.74101712443 490.69586424851  1473.43535594345 491.125610607417  L 1473.56427424331 492.117265825707  C 1476.8696479546 491.687556838764  1480.17520836129 491.259285162834  1483.48095452718 490.83245091921  L 1483.35289868781 489.840683959686  Z M 1496.24736813095 488.183174531839  C 1492.94085396416 488.606307924237  1489.63452395637 489.030879081914  1486.32837902594 489.456887886936  L 1486.45617610825 490.448688222565  C 1489.76203351905 490.022716465493  1493.06807601195 489.598182228066  1496.374302627 489.175085633559  L 1496.24736813095 488.183174531839  Z M 1509.14370326294 486.540244257306  C 1505.83671282762 486.959639135179  1502.52990492567 487.380471985614  1499.22328047562 487.802742691721  L 1499.34995617703 488.79468687698  C 1502.65629306969 488.372452893237  1505.96281340731 487.951656638975  1509.26951625342 487.532298233372  L 1509.14370326294 486.540244257306  Z M 1522.04188759984 484.911895236059  C 1518.73442513082 485.327551062349  1515.42714354567 485.744645069629  1512.12004381036 486.163177136081  L 1512.24559796896 487.155263903081  C 1515.55241011343 486.736768232867  1518.85940407729 486.319710498615  1522.16657892393 485.90409081844  L 1522.04188759984 484.911895236059  Z M 1534.94190465535 483.29812954943  C 1531.63397436835 483.710045794344  1528.32622335099 484.123400422354  1525.01865254569 484.53819331569  L 1525.143085001 485.530421396357  C 1528.45036817055 485.115664574589  1531.75783153369 484.702345893422  1535.06547415367 484.290465469914  L 1534.94190465535 483.29812954943  Z M 1547.84373794081 481.69894926012  C 1544.53534406794 482.107125396655  1541.22712783841 482.516740118045  1537.91909019476 482.927793307583  L 1538.04240078773 483.920161433663  C 1541.35015075503 483.509143990478  1544.65807928989 483.099564890695  1547.96618545542 482.691424250316  L 1547.84373794081 481.69894926012  Z M 1560.74737096526 480.11435641218  C 1557.43851773528 480.51879191861  1554.12984052209 480.924666209813  1550.82134026838 481.331979170149  L 1550.9435288414 482.32448607321  C 1554.25174137853 481.917208533965  1557.56013085695 481.511369539088  1560.86869633966 481.106969203518  L 1560.74737096526 480.11435641218  Z M 1573.65278723545 478.544353031017  C 1570.34347887768 478.945047390398  1567.03434490994 479.347180732632  1563.72538627506 479.750752943145  L 1563.84645267195 480.743397354575  C 1567.15512355039 480.339860239848  1570.46396974364 479.937761868613  1573.77299031455 479.537102354751  L 1573.65278723545 478.544353031017  Z M 1586.55997025582 476.98894112339  C 1583.25021100018 477.38589382356  1579.94062450759 477.784285702821  1576.63121172101 478.184116647669  L 1576.75115578702 479.176897298684  C 1580.06028077767 478.777101124271  1583.36957945641 478.378743890636  1586.67905088598 477.981825710601  L 1586.55997025582 476.98894112339  Z M 1599.46890352856 475.448122677408  C 1596.15869760555 475.841333210986  1592.84866281839 476.235983118057  1589.53880011016 476.63207228618  L 1589.65762169198 477.624987907819  C 1592.96719656515 477.228933184734  1596.27694349947 476.834317597875  1599.58686155758 476.441141259002  L 1599.46890352856 475.448122677408  Z M 1610.97592557319 474.087113265117  C 1608.13320340061 474.421888075617  1605.29060632736 474.757724291334  1602.44813494418 475.094621842479  L 1602.56583388993 476.087671165609  C 1605.87585441536 475.695358400086  1609.1860453748 475.304484964396  1612.49640583074 474.915050969239  L 1610.97592557319 474.087113265117  Z M 830.122799099952 636.073038217152  C 830.081732779022 636.190294232997  830.041575872725 636.307866774218  830.002331999347 636.425745247099  C 828.996914648202 639.642490708227  829.188621785049 643.114306950823  830.542092013878 646.200799094235  L 831.457907986122 645.799200905765  C 830.202614777352 642.936594441271  830.023688510754 639.71686997302  830.954070765357 636.732801329227  C 830.990748353105 636.622779383067  831.028255963045 636.513035879825  831.066590389167 636.403580199964  L 830.122799099952 636.073038217152  Z M 1610.7888808881 480.966651821472  L 1616 474  L 1609.29568175214 468.455442593729  L 1610.7888808881 480.966651821472  Z " fill-rule="nonzero" fill="#0099ff" stroke="none" />
  </g>
</svg>