<?xml version="1.0" encoding="utf-8"?>
<svg version="1.1" xmlns:xlink="http://www.w3.org/1999/xlink" width="624px" height="18px" viewBox="1132 514  624 18" xmlns="http://www.w3.org/2000/svg">
  <g transform="matrix(0.98768834059514 0.156434465040231 -0.156434465040219 0.987688340595137 99.5932613966529 -219.45236964935 )">
    <path d="M 964.641833224185 625.048137113036  C 963.18272817134 625.884609092379  961.744193078236 626.756461762684  960.327505199689 627.662921018384  C 958.890170691056 628.543106331748  957.529521126988 629.542784078726  956.259982981588 630.651355038542  L 956.917722784396 631.404600252136  C 958.147434250189 630.330806270545  959.465571864956 629.36270529384  960.858103849079 628.510602907267  C 962.263828187392 627.610967041691  963.691277998022 626.745738470237  965.139180828479 625.915688472036  L 964.641833224185 625.048137113036  Z M 976.339341184037 619.26831943146  C 975.828130594367 619.490527290155  975.317620893657 619.714344145984  974.80781967288 619.939766670924  C 972.250004398094 621.053743957226  969.738195442111 622.270509854023  967.278526232423 623.587093217597  L 967.750442210536 624.468736745108  C 970.187206730434 623.164413539691  972.675642508938 621.959011737222  975.209669106307 620.855476711293  C 975.71840052832 620.630520800174  976.22784014819 620.407169878488  976.737980365253 620.185427278553  L 976.339341184037 619.26831943146  Z M 988.406742341059 614.371175895257  C 985.282272139718 615.550759262985  982.180331632454 616.789177811073  979.102576272255 618.085770616566  L 979.490810235273 619.007331460981  C 982.556976021999 617.715621096042  985.647235884371 616.481865927943  988.759940603169 615.30672439087  L 988.406742341059 614.371175895257  Z M 1000.69397732186 610.066331126231  C 999.019362835698 610.620701078636  997.346694007816 611.180931189262  995.67600158058 611.747011161509  C 994.18756128247 612.259974923368  992.703711969823 612.786164583754  991.224629644468 613.32551773044  L 991.567216890391 614.265003748926  C 993.039916565766 613.727978060484  994.517360054717 613.204051816631  995.999372308562 612.693287092566  C 997.667035875247 612.128239789189  999.336671269382 611.569028869159  1001.00824783438 611.015664600288  L 1000.69397732186 610.066331126231  Z M 1013.0780484976 606.084572731095  C 1009.89392733061 607.078191588303  1006.71641779606 608.092875240918  1003.54572870454 609.128557008838  L 1003.85622658296 610.079131081436  C 1007.02272111186 609.044819435881  1010.19602706088 608.031478126841  1013.37593589572 607.039173746203  L 1013.0780484976 606.084572731095  Z M 1025.52880585758 602.316514880424  C 1022.32805752276 603.25519274672  1019.13355734843 604.215046065308  1015.9455152617 605.196011759269  L 1016.23960923555 606.151788267948  C 1019.42343380307 605.172120311456  1022.61370791465 604.21353680039  1025.81022192093 603.276100728221  L 1025.52880585758 602.316514880424  Z M 1038.04256206735 598.763273497461  C 1034.82613447729 599.646732380179  1031.61558972535 600.551471100891  1028.41113879299 601.477430204542  L 1028.68874176534 602.438126092813  C 1031.88895347089 601.513391957414  1035.09525093448 600.609850132097  1038.30742345359 599.727559993311  L 1038.04256206735 598.763273497461  Z M 1050.61561113513 595.425900886815  C 1047.38445684588 596.25387914658  1044.15881833015 597.103235327944  1040.93890756129 597.973913615325  L 1041.19993731908 598.939244369809  C 1044.41558840905 598.069717918668  1047.63695966856 597.221485366142  1050.86383940466 596.394602453969  L 1050.61561113513 595.425900886815  Z M 1063.22961373719 592.265004281615  C 1061.0233839088 592.811383188327  1058.81805560261 593.361395947914  1056.61363779451 593.915040321774  C 1055.583588658 594.170025280015  1054.5540775856 594.427178932915  1053.52511142497 594.686499570058  L 1053.76949066332 595.656179304745  C 1054.79764410407 595.397063489729  1055.82634231624 595.140114103315  1056.85557845024 594.885332856401  C 1059.05947957322 594.331816326377  1061.26429121082 593.781931463858  1063.47000438401 593.235680508234  L 1063.22961373719 592.265004281615  Z M 1075.86119004694 589.178840345017  C 1072.61984760433 589.959987909495  1069.3803974563 590.748966706142  1066.14286797565 591.545769824663  L 1066.38185104711 592.516793558439  C 1069.61781627471 591.720375425355  1072.85570124182 590.9317778337  1076.0954775891 590.151007690482  L 1075.86119004694 589.178840345017  Z M 1088.51190616571 586.172096326149  C 1085.26572006356 586.932864449769  1082.02137701821 587.701475539514  1078.77890544534 588.47792286348  L 1079.01178325668 589.450428866025  C 1082.25268818867 588.674356692339  1085.49546368902 587.906116966673  1088.74008135558 587.14571641773  L 1088.51190616571 586.172096326149  Z M 1101.18126275301 583.244890905172  C 1097.93036112256 583.985249559411  1094.68125323841 584.733462604158  1091.43396755796 585.489523486167  L 1091.66073091719 586.463473371384  C 1094.906447631 585.707777789633  1098.15398566748 584.959926253506  1101.4033165842 584.219925312797  L 1101.18126275301 583.244890905172  Z M 1113.86875973259 580.397339622753  C 1110.61327089099 581.11725958473  1107.3595264151 581.845045051413  1104.10755480149 582.580689648797  L 1104.32819475794 583.556044973597  C 1107.57859514037 582.820755812197  1110.83076752933 582.093321984074  1114.08468344035 581.373749860525  L 1113.86875973259 580.397339622753  Z M 1126.57389631216 577.629554875506  C 1123.31394875835 578.32900772892  1120.05569611935 579.036336891102  1116.79916693268 579.751536166886  L 1117.01367477741 580.728258432705  C 1120.26863053134 580.013404714383  1123.52530890426 579.306417307255  1126.78368137369 578.607302403222  L 1126.57389631216 577.629554875506  Z M 1139.29617100319 574.941645911552  C 1136.03189341136 575.62060404813  1132.76926121729 576.307448986484  1129.50830299682 577.002174710863  L 1129.71667026293 577.980225365182  C 1132.97605291046 577.285835306265  1136.23710872291 576.599322225649  1139.49980913801 575.920692136226  L 1139.29617100319 574.941645911552  Z M 1152.02939805862 572.314378015487  C 1149.0797916267 572.91896882721  1146.13080449808 573.526577105756  1143.18244130513 574.13720189667  C 1142.86643275097 574.202298640803  1142.55043942344 574.267469277517  1142.23446134751 574.332713801658  L 1142.43667981046 575.312054239525  C 1142.75267890633 575.246805375096  1143.06869326442 575.181630443395  1143.38472285729 575.116529450086  C 1146.33259180009 574.506006650869  1149.28108460941 573.898500036411  1152.2301966564 573.294010560438  L 1152.02939805862 572.314378015487  Z M 1164.76988965761 569.722459761025  C 1161.50212030026 570.38224324271  1158.2350993495 571.045728029412  1154.96883309592 571.712912843601  L 1155.16896584908 572.692681633222  C 1158.43449222547 572.025647950257  1161.70077312304 571.362313457675  1164.96780226273 570.702679430657  L 1164.76988965761 569.722459761025  Z M 1177.51795947759 567.168074847441  C 1174.24826115865 567.818231540317  1170.97930034524 568.472091725714  1167.71108332585 569.129654145798  L 1167.90832968797 570.110008098527  C 1171.17580638635 569.452594630385  1174.44402671104 568.798882558142  1177.71298437342 568.148873139653  L 1177.51795947759 567.168074847441  Z M 1190.27349694601 564.651245430627  C 1187.00189802772 565.291769695063  1183.73102570165 565.935999608566  1180.46088626582 566.583933930675  L 1180.65524452606 567.564864543245  C 1183.92464320638 566.917076991915  1187.19477460879 566.27299301049  1190.46563244097 565.632613838299  L 1190.27349694601 564.651245430627  Z M 1203.03639142558 562.171993340727  C 1199.76292028372 562.802879621222  1196.4901648174 563.437473674603  1193.21813132827 564.075774278965  L 1193.40959980083 565.057273043108  C 1196.68089210541 564.419117027286  1199.95290622149 563.784666723251  1203.22563585314 563.153923351795  L 1203.03639142558 562.171993340727  Z M 1215.80653221516 559.730340081953  C 1212.53121724274 560.351582906408  1209.25660702297 560.976535595409  1205.98270786107 561.605196945616  L 1206.17128488522 562.587255348138  C 1209.44444243898 561.958736403163  1212.71831089032 561.333925279158  1215.99288393389 560.712823179481  L 1215.80653221516 559.730340081953  Z M 1228.58380855078 557.326306832398  C 1225.3066781568 557.937900812358  1222.03024158646 558.553206716347  1218.75450514852 559.172223359599  L 1218.9401890886 560.154832882449  C 1222.2151835032 559.535956459513  1225.49087788944 558.920789935685  1228.76726594432 558.309334494652  L 1228.58380855078 557.326306832398  Z M 1241.36810960658 554.959914443851  C 1238.08919221578 555.561854274552  1234.8109577136 556.167508056567  1231.53341241226 556.776874623718  L 1231.71620165771 557.760026744067  C 1234.99300452694 557.150798211105  1238.2704964358 556.545281623197  1241.54867108368 555.943478144374  L 1241.36810960658 554.959914443851  Z M 1254.15932449575 552.631183441615  C 1250.8786485474 553.223463902207  1247.59864454966 553.819460308655  1244.31931881229 554.419171514439  L 1244.49921177766 555.402857704752  C 1247.77779467668 554.803282346552  1251.05705568613 554.207420945534  1254.33698849029 553.615274649302  L 1254.15932449575 552.631183441615  Z M 1266.95438686534 550.328294233981  C 1263.67311068191 550.916266626304  1260.39219810695 551.506266402583  1257.11165102323 552.098293224244  L 1257.28924809072 553.082396512329  C 1260.56938980385 552.490442846229  1263.84989695647 551.900515976217  1267.13076767922 551.312616238458  L 1266.95438686534 550.328294233981  Z M 1279.75319998818 548.045482079302  C 1276.47098346459 548.6281823724  1273.18912729789 549.212910629928  1269.90763335966 549.799666518427  L 1270.08364924484 550.784053844718  C 1273.36473769157 550.197370461161  1276.64618832715 549.612714457106  1279.92799926996 549.030086167802  L 1279.75319998818 548.045482079302  Z M 1292.55566391265 545.783234049218  C 1289.2725155236 546.360660738555  1285.9897242272 546.940115969651  1282.70729190731 547.52159940998  L 1282.88172615592 548.506268233956  C 1286.16375287032 547.924856646709  1289.44613851613 547.345473018202  1292.7288812112 546.768117680661  L 1292.55566391265 545.783234049218  Z M 1305.36174559795 543.541555982173  C 1302.07767381469 544.113707577865  1298.79395586478 544.687888286364  1295.51059363262 545.264097778171  L 1295.68344579448 546.249045558584  C 1298.96640230624 545.672907268164  1302.24971449106 545.098797510488  1305.53338046623 544.526716614756  L 1305.36174559795 543.541555982173  Z M 1318.17141199396 541.320453663523  C 1314.88642529207 541.887328688952  1311.60178916332 542.456233392999  1308.31750549263 543.027167449195  L 1308.48877512164 544.012391644076  C 1311.77265295807 543.44152813739  1315.05688320826 542.872693732215  1318.34146398902 542.305888754728  L 1318.17141199396 541.320453663523  Z M 1330.9846300413 539.119932825522  C 1327.69873689871 539.681529817689  1324.41319106817 540.245157049047  1321.12799443509 540.810814196156  L 1321.29768108923 541.796312262823  C 1324.58247177719 541.230725012827  1327.86761161286 540.667167428883  1331.15309872425 540.105639832124  L 1330.9846300413 539.119932825522  Z M 1343.8013666714 536.939999147309  C 1340.51457556842 537.496316656835  1337.22812851546 538.054664960886  1333.94202739847 538.615043739052  L 1334.11013063982 539.600813134118  C 1337.39582569796 539.040503601162  1340.6818666486 538.482224291541  1343.96825160747 537.925975525379  L 1343.8013666714 536.939999147309  Z M 1356.62158880666 534.78065825489  C 1353.33390822587 535.331694846023  1350.04656843221 535.884762781774  1346.75957131213 536.439861744762  L 1346.92609070684 537.425899924138  C 1350.21268165931 536.870869553609  1353.49961523641 536.317869960459  1356.78688956515 535.766901459806  L 1356.62158880666 534.78065825489  Z M 1369.44526336044 532.641915721123  C 1366.15670178478 533.187669972064  1362.86847773835 533.735456111496  1359.58059309636 534.285273827026  L 1359.74552821468 535.271578245929  C 1363.03300657743 534.721828470593  1366.32082430195 534.174110020438  1369.60897951473 533.628423207574  L 1369.44526336044 532.641915721123  Z M 1382.27235723721 530.523777065709  C 1378.98292315777 531.064247567317  1375.69382333703 531.606750498001  1372.40505966248 532.151285546441  L 1372.56841007872 533.137853659402  C 1375.85676736739 532.59338589806  1379.14546075408 532.05095000446  1382.43448836478 531.510546287701  L 1382.27235723721 530.523777065709  Z M 1395.10360181361 528.428020225179  C 1394.48824942059 528.527516174768  1393.87290279758 528.62704639689  1393.25756150305 528.726610962962  C 1390.58246755808 529.162364302634  1387.90759268726 529.599461507474  1385.23293791289 530.037902410432  L 1385.3947032055 531.024731671301  C 1388.06885298431 530.586373549385  1390.74322279865 530.149358785046  1393.41781163658 529.713687543644  C 1394.03294164969 529.614157183682  1394.64807709274 529.514661129182  1395.26321819737 529.415199342683  L 1395.10360181361 528.428020225179  Z M 1407.9381159905 526.357919944254  C 1404.64700932046 526.887439307056  1401.35606060985 527.417939917257  1398.06527028276 527.949421706494  L 1398.22471006445 528.936629362468  C 1401.51530416519 528.405179264929  1404.80605663699 527.874710288404  1408.09696706182 527.345222500283  L 1407.9381159905 526.357919944254  Z M 1420.77423105951 524.297769642684  C 1417.48271489321 524.82473756973  1414.19135592562 525.352686866333  1410.90015458089 525.881617464455  L 1411.05882902808 526.868948422043  C 1414.34983412195 526.340049363493  1417.64099682626 525.812131548433  1420.93231672293 525.285195043928  L 1420.77423105951 524.297769642684  Z M 1433.61193930691 522.247570558494  C 1430.32001563804 522.771986730608  1427.02824836 523.297384401353  1423.73663799114 523.823763487996  L 1423.89454700846 524.81121715387  C 1427.18596111777 524.284869452147  1430.4775320768 523.759503115801  1433.76925946743 523.235118211568  L 1433.61193930691 522.247570558494  Z M 1446.45123301799 520.207323923732  C 1443.15890379342 520.729188030773  1439.86673024585 521.252033749913  1436.57471279954 521.775861013771  L 1436.7318562921 522.763436794532  C 1440.02367743889 522.23964076594  1443.31565467461 521.716826224017  1446.60778758107 521.194993235182  L 1446.45123301799 520.207323923732  Z M 1459.2921044771 518.177030964465  C 1455.99937169102 518.696342690322  1452.70679382094 519.216636148665  1449.41437129118 519.737911272442  L 1449.57074916455 520.725608574615  C 1452.86297537064 520.204364533923  1456.15535690476 519.684102100606  1459.44789334867 519.164821340759  L 1459.2921044771 518.177030964465  Z M 1472.13454596766 516.156692900779  C 1468.84141159879 516.673451933378  1465.54843138485 517.191192818256  1462.25560575018 517.709915488696  L 1462.41121791039 518.697733718735  C 1465.70384719735 518.179041979179  1468.99663105134 517.661331967117  1472.28956905408 517.144603748314  L 1472.13454596766 516.156692900779  Z M 1484.97854977212 514.146310946773  C 1481.68501579945 514.660516975572  1478.39163522053 515.175704975857  1475.09840845974 515.691874881239  L 1475.25325481327 516.679813445523  C 1478.54628520242 516.163674318807  1481.83946939753 515.64851703911  1485.13280698025 515.134341671873  L 1484.97854977212 514.146310946773  Z M 1497.82410817201 512.145886310569  C 1494.53017657475 512.65753902656  1491.23639760996 513.170173832655  1487.9427717021 513.683790662791  L 1488.09685215589 514.671848967628  C 1491.39028168403 514.158262761472  1494.68386420983 513.645658528607  1497.97759940913 513.134036319487  L 1497.82410817201 512.145886310569  Z M 1510.67121344791 510.155420194302  C 1507.37688620552 510.664519290013  1504.08271083424 511.174600593856  1500.78868775856 511.685664040094  L 1500.94200222003 512.673841491721  C 1504.23582887659 512.162808519656  1507.52980781666 511.65275763189  1510.82393862179 511.14368889322  L 1510.67121344791 510.155420194302  Z M 1523.51985787947 508.174913794122  C 1520.22513698736 508.681458961201  1516.93056715777 509.188986461099  1513.6361489095 509.697496213895  L 1513.78869728651 510.685792218476  C 1517.08291910781 510.177312785154  1520.37729245125 509.669815553889  1523.67181689835 509.163300589149  L 1523.51985787947 508.174913794122  Z M 1536.37003374544 506.204368300197  C 1533.07492115211 506.708359239069  1529.77995890688 507.213332620351  1526.48514743436 507.719288378972  L 1526.63692963524 508.7077023426  C 1529.93154464164 508.201776753587  1533.22631040873 507.696833483797  1536.52122651798 507.192872597371  L 1536.37003374544 506.204368300197  Z M 1549.22173332363 504.243784896705  C 1545.92623102496 504.745221302088  1542.63087831275 505.247640266135  1539.33567561166 505.751041724105  L 1539.4866915452 506.739573052802  C 1542.78169775684 506.236201612129  1546.07685396762 505.733812607255  1549.37215975898 505.232406101995  L 1549.22173332363 504.243784896705  Z M 1562.07494889093 502.293164761837  C 1558.77905886732 502.792046332397  1555.48331766844 503.291910577289  1552.187725719 503.792757432095  L 1552.33797529445 504.781405531814  C 1555.63337073122 504.280588541977  1558.92891540552 503.780754103919  1562.22460889869 503.28190228114  L 1562.07494889093 502.293164761837  Z M 1574.92967272333 500.352509067803  C 1571.63339695541 500.848835503742  1568.3372692504 501.346144729088  1565.04129003307 501.844436679751  L 1565.19077316014 502.833200956372  C 1568.48655584171 502.334938718333  1571.78248699908 501.837659147466  1575.07856621356 501.341362306948  L 1574.92967272333 500.352509067803  Z M 1587.7858970959 498.421818980822  C 1584.48923756454 498.915589983878  1581.19272533419 499.410343890824  1577.89636082965 499.906080637899  L 1578.0450774185 500.894960497236  C 1581.3412453643 500.399253310419  1584.6375610241 499.904528905579  1587.93402397913 499.410787345566  L 1587.7858970959 498.421818980822  Z M 1600.64361428283 496.501095661123  C 1597.34657296912 496.992310934569  1594.04967819443 497.484509225792  1590.75293038361 497.977690471373  L 1590.90088034487 498.966685319166  C 1594.19743157411 498.473533481462  1597.49412975543 497.981364539954  1600.79097447005 497.490178557156  L 1600.64361428283 496.501095661123  Z M 1613.50281655741 494.59034026294  C 1610.20539544267 495.078999511584  1606.90812010487 495.568641891313  1603.61099096891 496.059267339026  L 1603.75817421368 497.048376580949  C 1607.05510674532 496.557780388714  1610.35218546705 496.068167206291  1613.64940996005 495.579537095882  L 1613.50281655741 494.59034026294  Z M 1626.363496192 492.689553934529  C 1623.0656972578 493.175656864717  1619.76804333835 493.662743038701  1616.47053485863 494.150812393709  L 1616.61695129845 495.140035435368  C 1619.91426315124 494.651995183419  1623.21172043204 494.164938054316  1626.50932272198 493.678864109932  L 1626.363496192 492.689553934529  Z M 1639.22564545813 490.798737818146  C 1635.92747068623 491.282284137759  1632.62944016684 491.766813813287  1629.33155432496 492.252326782291  L 1629.47720387185 493.241663029221  C 1632.77489306429 492.756179010842  1636.07272692258 492.27167822775  1639.3707050278 491.788160741493  L 1639.22564545813 490.798737818146  Z M 1652.08925662639 488.917893050062  C 1648.79070799881 489.398882468517  1645.49230286139 489.880855354418  1642.19404163918 490.363811645653  L 1642.33892420562 491.353260503322  C 1645.636988756 490.87033301026  1648.93519720998 490.388388864335  1652.2335491486 489.90742812677  L 1652.08925662639 488.917893050062  Z M 1664.95432196654 487.047020760547  C 1661.65540146551 487.5254529888  1658.35662369221 488.004868795433  1655.05798907173 488.485268118671  L 1655.20210457065 489.474828992479  C 1658.50054251276 488.994458312654  1661.79912354894 488.51507109809  1665.09784735456 488.036667395965  L 1664.95432196654 487.047020760547  Z M 1677.82083374744 485.186122073888  C 1674.52154337114 485.661996822159  1671.22239491285 486.138855265976  1667.92338889212 486.616697330248  L 1668.06673723691 487.606369625528  C 1671.36554655713 487.128556052195  1674.6644982562 486.651726047927  1677.96359191503 486.175879673296  L 1677.82083374744 485.186122073888  Z M 1690.68878423708 483.33519810837  C 1687.38912593672 483.808515095225  1684.08960883897 484.282815880566  1680.79023336903 484.758100403274  L 1680.93281447356 485.747883525293  C 1684.23199320522 485.272627343299  1687.53131355323 484.798354840447  1690.83077509845 484.325066076984  L 1690.68878423708 483.33519810837  Z M 1703.5581657026 481.494249976291  C 1700.25814147681 481.965008915026  1696.95825769095 482.436751761411  1693.65851477026 482.909478454659  L 1693.80032854883 483.899371808616  C 1697.09987470934 483.426673303561  1700.39956172359 482.954958587136  1703.69938917242 482.484227719259  L 1703.5581657026 481.494249976291  Z M 1716.42897041026 479.663278783946  C 1713.12858224216 480.131479391663  1709.82833375123 480.600664015605  1706.52822536273 481.070832595312  L 1706.66927173012 482.060835586341  C 1709.96918333664 481.590695042289  1713.26923503422 481.121538395761  1716.56942640366 480.653365706351  L 1716.42897041026 479.663278783946  Z M 1729.30119062549 477.842285631645  C 1726.00044051416 478.307927624764  1722.69982926991 478.774553748758  1719.39935741252 479.242163930152  L 1719.53963628397 480.232275963319  C 1722.83991135346 479.764693662796  1726.14032575124 479.298095368103  1729.44087905807 478.832481138504  L 1729.30119062549 477.842285631645  Z M 1740.9790806009 476.199054859146  C 1738.07658118142 476.606433540769  1735.17418861234 477.014573120733  1732.27190318484 477.423473558097  L 1732.41141447606 478.413694038405  C 1735.71205102524 477.948670262401  1739.01282613987 477.484630599935  1742.31373940066 477.021575109954  L 1740.9790806009 476.199054859146  Z M 954.067808852756 632.771225907011  C 953.409851023228 633.475590974032  952.786201226384 634.211238256919  952.199027185632 634.975610743958  C 950.554524707697 636.961473068899  949.930952981073 639.601005201157  950.512901972093 642.112851722225  L 951.487098027907 641.887148277775  C 950.97413843116 639.673078319031  951.526791218044 637.346533515131  952.980641442057 635.599664070598  C 953.551581827506 634.855429689892  954.158273459527 634.139317238788  954.798579201353 633.4538493007  L 954.067808852756 632.771225907011  Z M 1740.94124630877 483.078065490761  L 1746 476  L 1739.17697251974 470.6021952607  L 1740.94124630877 483.078065490761  Z " fill-rule="nonzero" fill="#f59a23" stroke="none" />
  </g>
</svg>