<?xml version="1.0" encoding="utf-8"?>
<svg version="1.1" xmlns:xlink="http://www.w3.org/1999/xlink" width="372px" height="38px" viewBox="1590 584  372 38" xmlns="http://www.w3.org/2000/svg">
  <g transform="matrix(0.754709580222772 0.656059028990508 -0.656059028990507 0.754709580222773 831.239380005631 -1017.25071236147 )">
    <path d="M 1336.65242311767 680.106982361922  C 1333.66150939563 678.642423682004  1330.68435992284 677.149921360696  1327.72136538389 675.629671255698  L 1327.26486669204 676.51939533896  C 1330.23340928628 678.042492034301  1333.21613331875 679.53778898965  1336.21264737332 681.005089980574  L 1336.65242311767 680.106982361922  Z M 1348.38520049528 685.676328969191  C 1345.35955798091 684.284932406435  1342.34699614953 682.865265764372  1339.34791033282 681.417515342644  L 1338.91318175002 682.318076867081  C 1341.91788320109 683.768538127214  1344.93608589997 685.190863022244  1347.96739377475 686.584864903694  L 1348.38520049528 685.676328969191  Z M 1360.24993651494 690.958726702043  C 1357.19135453625 689.641315111372  1354.14516193854 688.295323722059  1351.11175846677 686.920929165507  L 1350.69905708619 687.831795550038  C 1353.73814045037 689.208763589901  1356.79003688747 690.55727527905  1359.85434590403 691.87715365535  L 1360.24993651494 690.958726702043  Z M 1372.23961451677 695.951051615014  C 1369.14990188176 694.708404097544  1366.07187999879 693.436883963839  1363.00595278971 692.136658072607  L 1362.61552267791 693.057290641984  C 1365.68719067843 694.359951139505  1368.77097599949 695.63385212944  1371.86647396293 696.878826440647  L 1372.23961451677 695.951051615014  Z M 1384.34714395172 700.65035130816  C 1381.22812787869 699.483202750446  1378.12009701499 698.286905833817  1375.02345922048 697.061617545608  L 1374.65553127305 697.991471848981  C 1377.757967363 699.21905442666  1380.87181785507 700.417591347904  1383.99667412571 701.586925331425  L 1384.34714395172 700.65035130816  Z M 1396.56536457485 705.053846673071  C 1393.41888961179 703.962887312507  1390.28268781883 702.84252108833  1387.15717075263 701.692895023665  L 1386.81196255767 702.631421156561  C 1389.94333199425 703.783199837065  1393.0854061642 704.905663889529  1396.23777274024 705.998666015536  L 1396.56536457485 705.053846673071  Z M 1408.89621661959 709.119631864998  C 1405.71816196959 708.127634287387  1402.55242158496 707.096607712707  1399.39971296163 706.026785816908  L 1399.07837543267 706.973750543012  C 1402.23884447888 708.046205815792  1405.41237736417 709.079770272383  1408.59825482654 710.07420966166  L 1408.89621661959 709.119631864998  Z M 1421.3501815468 712.789669936299  C 1418.1420507529 711.899733218569  1414.94498076987 710.970393934854  1411.75969619434 710.001862714291  L 1411.46878288404 710.95861213075  C 1414.66190806847 711.929527400311  1417.86684767028 712.861154261689  1421.08287530926 713.753281567286  L 1421.3501815468 712.789669936299  Z M 1433.91506191719 716.059869185702  C 1430.68013167834 715.272902285406  1427.45499749869 714.44619949494  1424.24039033539 713.579948181489  L 1423.98019837483 714.545505090045  C 1427.20271832485 715.413888689509  1430.43579120359 716.242626416917  1433.67868425461 717.031530443873  L 1433.91506191719 716.059869185702  Z M 1446.5780242981 718.926889519182  C 1443.31959868551 718.24369622326  1440.06969437499 717.520474298153  1436.82904793768 716.757387657732  L 1436.59984307997 717.73076586439  C 1439.84846639992 718.49573084998  1443.10637038144 719.220732992876  1446.37281664029 719.905607975724  L 1446.5780242981 718.926889519182  Z M 1459.32613507854 721.387802638874  C 1456.04754216095 720.809080742681  1452.77618708487 720.190078362457  1449.51281128314 719.530935791346  L 1449.31482763197 720.511141113648  C 1452.58623626491 721.171906170595  1455.86564381325 721.792432231183  1459.15230701912 722.37257865694  L 1459.32613507854 721.387802638874  Z M 1472.14637367921 723.440095033956  C 1468.85096212372 722.966435628553  1465.56149755664 722.452285025684  1462.27872551521 721.89775975447  L 1462.1121652858 722.883791036924  C 1465.40301790246 723.439681277473  1468.7005795185 723.955097467042  1472.00410276151 724.429922789666  L 1472.14637367921 723.440095033956  Z M 1485.02594509868 725.059459861005  C 1482.34436901521 724.773580973681  1479.66626500863 724.456021857347  1476.99219407314 724.106849032501  C 1476.3658520535 724.024507348639  1475.73970294933 723.940704821977  1475.11375187063 723.855442136428  L 1474.97878518314 724.846292273062  C 1475.60642106491 724.931784450721  1476.23425555055 725.015812203293  1476.86228351391 725.098374844706  C 1479.54431035193 725.448589994933  1482.2303825136 725.76709567426  1484.91993727511 726.053825156731  L 1485.02594509868 725.059459861005  Z M 1497.95683523422 726.190494384773  C 1494.63606180561 725.963386172891  1491.31877767193 725.687852442682  1488.00604139068 725.363981117964  L 1487.90873979194 726.359236059616  C 1491.23115409162 726.684053560661  1494.55812953009 726.960392250968  1497.88860445731 727.18816394985  L 1497.95683523422 726.190494384773  Z M 1510.92131047426 726.830447931371  C 1507.59431403488 726.729408352831  1504.26896835409 726.579845779736  1500.94633456185 726.381807938049  L 1500.88683748033 727.380036417552  C 1504.21917820616 727.578652818387  1507.55423874321 727.728652332191  1510.89095486147 727.829987093571  L 1510.92131047426 726.830447931371  Z M 1523.90072759939 726.978400232594  C 1520.57229244814 727.003574584678  1517.2436671453 726.980198243185  1513.91591386738 726.908278667589  L 1513.89430686129 727.908045208982  C 1517.23178202916 727.980174894564  1520.57013176953 728.003619529047  1523.90829080279 727.978371631162  L 1523.90072759939 726.978400232594  Z M 1536.87642190341 726.634138529563  C 1533.55133440809 726.785490610963  1530.22421612444 726.888334116798  1526.89612874809 726.94263622933  L 1526.9124428888 727.942503144881  C 1530.25025313116 727.888042391032  1533.58709144964 727.78489843226  1536.92189304694 727.633104182178  L 1536.87642190341 726.634138529563  Z M 1549.82973403362 725.798157878679  C 1546.51277574802 726.075470041552  1543.19194895769 726.304385503343  1539.86831335059 726.484831216292  L 1539.922525178 727.483360673929  C 1543.25587064544 727.30238779649  1546.58639909029 727.072803567894  1549.91304772872 726.794681249308  L 1549.82973403362 725.798157878679  Z M 1562.73912513767 724.455303941865  C 1559.76357081251 724.824761303633  1556.7831656296 725.154042390051  1553.79872385582 725.443057239299  C 1553.47046506928 725.474353200869  1553.14216123099 725.505174807556  1552.81381336924 725.535521962819  L 1552.90584492545 726.531278053767  C 1553.2353988972 726.500819425242  1553.56490865052 726.469884245553  1553.8943731518 726.43847261174  C 1556.88801808912 726.14857324736  1559.87761373359 725.818280147285  1562.86234317279 725.447683564703  L 1562.73912513767 724.455303941865  Z M 1575.58632865568 722.605422653465  C 1572.30176703687 723.143858394926  1569.00932297251 723.633055097692  1565.71010485119 724.072848075576  L 1565.84223823339 725.064080020838  C 1569.15135668304 724.622967307574  1572.4536807481 724.132302618211  1575.74809871385 723.592251133131  L 1575.58632865568 722.605422653465  Z M 1588.35174856982 720.256645646188  C 1585.09064630751 720.922581161194  1581.81975010014 721.539621947241  1578.54016108235 722.107560279923  L 1578.71079503184 723.092894768956  C 1582.00022547476 722.523252160969  1585.28093702177 721.90435975246  1588.55182523395 721.236425891177  L 1588.35174856982 720.256645646188  Z M 1601.01601879763 717.412536187795  C 1597.7833232242 718.204961203108  1594.53893706436 718.948909976105  1591.28395252823 719.644132059292  L 1591.49282818075 720.622074267085  C 1594.75758030861 719.924765954179  1598.01170225647 719.178584731901  1601.25409853668 718.383781799291  L 1601.01601879763 717.412536187795  Z M 1613.55992670816 714.077409001864  C 1610.36054206095 714.995121350357  1607.14758792146 715.864849485207  1603.92214591835 716.686300615781  L 1604.16894639414 717.655366931957  C 1607.40406733745 716.831450782214  1610.62666294342 715.959112758058  1613.83564833763 715.038646528723  L 1613.55992670816 714.077409001864  Z M 1625.96444226898 710.256323722045  C 1622.80322225021 711.297931166477  1619.62657441921 712.292119221521  1616.43556818225 713.2385531976  L 1616.71991906681 714.197273477164  C 1619.92050090876 713.247999432084  1623.10668125789 712.250828007095  1626.27738749885 711.206094896122  L 1625.96444226898 710.256323722045  Z M 1638.2145577797 705.961671493428  C 1635.09277326327 707.117758683114  1631.95584177647 708.232525640209  1628.80458559133 709.305680155053  L 1629.12695341838 710.252294640512  C 1632.28655237752 709.176299009283  1635.43178871449 708.058580769193  1638.56183798032 706.899432903516  L 1638.2145577797 705.961671493428  Z M 1650.30946623218 701.244674025891  C 1647.22925391273 702.507356972699  1644.13248361982 703.729264610211  1641.01996709825 704.910076644363  L 1641.3746744627 705.845054016071  C 1644.49543119719 704.661115848288  1647.60040001575 703.43597327884  1650.68876702455 702.169947449753  L 1650.30946623218 701.244674025891  Z M 1662.23513373391 696.114827028085  C 1659.20013216795 697.482614164942  1656.14718118492 698.81021908235  1653.07708104336 700.097293780234  L 1653.46370894072 701.019529579251  C 1656.5419370002 699.729047423294  1659.60297049973 698.397927746329  1662.6460070621 697.026519469746  L 1662.23513373391 696.114827028085  Z M 1673.97747287435 690.578190224605  C 1670.99126721241 692.0494658282  1667.98574189284 693.481199768178  1664.96168474265 694.873016749515  L 1665.37977646171 695.781421568114  C 1668.41183963358 694.385919829387  1671.42532191288 692.9503954541  1674.41943338681 691.47522473087  L 1673.97747287435 690.578190224605  Z M 1685.52261280291 684.641303867863  C 1682.58873055446 686.214329967267  1679.63418122951 687.748501668189  1676.65973929293 689.243416823983  L 1677.10880095528 690.136917592535  C 1680.09111756006 688.638044732714  1683.05348888864 687.099811398262  1685.99513842577 685.522620800489  L 1685.52261280291 684.641303867863  Z M 1696.85691561412 678.311181012299  C 1693.97882248067 679.984099441966  1691.07873926519 681.618896635751  1688.15742615557 683.215144070423  L 1688.63692729901 684.092685324976  C 1691.56597442123 682.492211914752  1694.47373544436 680.85308668709  1697.35944816796 679.175739299711  L 1696.85691561412 678.311181012299  Z M 1707.97976281435 671.611420549092  C 1705.44780605459 673.184937893729  1702.90131257689 674.734942702372  1700.34061081747 676.261235061796  C 1700.04104169755 676.439678275695  1699.74122563087 676.617706590842  1699.44116347992 676.795319495109  L 1699.95053768504 677.655864624177  C 1700.2514342819 677.477757794365  1700.5520840772 677.29923434306  1700.85248620598 677.120294783858  C 1703.41853860949 675.590814206635  1705.97035282943 674.037571262904  1708.50759973312 672.460766289756  L 1707.97976281435 671.611420549092  Z M 1718.91619100757 664.608961880407  C 1716.13630037744 666.442131721904  1713.33749621637 668.246458098376  1710.52022892387 670.021650647343  L 1711.05333411615 670.867699613993  C 1713.87644369663 669.088825772116  1716.6810518579 667.280757686669  1719.46670726644 665.443786322266  L 1718.91619100757 664.608961880407  Z M 1729.6600949839 657.314551939942  C 1726.93057501227 659.221912500444  1724.18137168616 661.100949348558  1721.41292742303 662.951360098967  L 1721.96862127126 663.782747100934  C 1724.74280657596 661.928499074409  1727.4977110429 660.045565587004  1730.23289133713 658.134249651123  L 1729.6600949839 657.314551939942  Z M 1740.20368304299 649.733480783948  C 1737.52651323395 651.713648806307  1734.82890452163 653.666033409868  1732.11129102065 655.590320405746  L 1732.68917052422 656.40644250406  C 1735.41241965686 654.47816503172  1738.11562251601 652.521731684501  1740.79834408689 650.537457302798  L 1740.20368304299 649.733480783948  Z M 1750.53930875773 641.871246361294  C 1747.91643064992 643.922785786907  1745.2723729128 645.947102236388  1742.60756104321 647.943869945201  L 1743.207207112 648.744135271317  C 1745.87754511623 646.743226779688  1748.52708594927 644.714712418376  1751.15540323187 642.65891862749  L 1750.53930875773 641.871246361294  Z M 1760.65947651959 633.733550526237  C 1758.09279227822 635.854973536473  1755.50420304138 637.949753755923  1752.89412537961 640.017554080617  L 1753.51510313796 640.801382265645  C 1756.13059342969 638.729293854749  1758.72455073502 636.630169599737  1761.29655761957 634.504347303637  L 1760.65947651959 633.733550526237  Z M 1770.55731999384 625.326307661427  C 1770.40460069453 625.459428184643  1770.2518200864 625.592478355917  1770.09897821755 625.725458133354  C 1767.74030343429 627.779102851997  1765.3617061478 629.80975327145  1762.96352400164 631.817121139433  L 1763.60538310368 632.583943735038  C 1766.00849269751 630.572451409636  1768.3919775663 628.53762913844  1770.75549938553 626.479765754937  C 1770.90852787207 626.3466235383  1771.0614950416 626.213410862164  1771.21440084498 626.080127769322  L 1770.55731999384 625.326307661427  Z M 1780.26489970746 616.694877973262  C 1777.79763357039 618.932509025132  1775.31345742893 621.151423610537  1772.81258497434 623.351430856279  L 1773.4730841816 624.102257598746  C 1775.97774726511 621.898915752284  1778.46568872853 619.676637907859  1780.93669455667 617.435615228014  L 1780.26489970746 616.694877973262  Z M 1789.80066047435 607.873996557285  C 1787.37792749834 610.159769914901  1784.9379193021 612.427163361436  1782.48084577751 614.675981853494  L 1783.15599938628 615.413659021748  C 1785.61679715277 613.161431944649  1788.0605037246 610.890601758609  1790.48690889176 608.601363802627  L 1789.80066047435 607.873996557285  Z M 1799.16090563493 598.867082940958  C 1796.78364502339 601.200112495052  1794.38875067274 603.515105818658  1791.97642859412 605.811863773792  L 1792.66597487247 606.536105397847  C 1795.0819533622 604.235866194755  1797.48047770838 601.917363983413  1799.86134158757 599.580798203678  L 1799.16090563493 598.867082940958  Z M 1808.34200657048 589.677628769503  C 1806.01113989888 592.05701009135  1803.66228780525 594.418705855245  1801.29565234009 596.762512905878  L 1801.99932397659 597.47303822421  C 1804.36954660462 595.125678612251  1806.7219589065 592.760403172653  1809.05635852541 590.377415368754  L 1808.34200657048 589.677628769503  Z M 1817.34040410984 580.30919645232  C 1815.05683496845 582.734007144319  1812.75493569438 585.141489806965  1810.43490429919 587.531437346319  L 1811.15242850652 588.227970914702  C 1813.47597642576 585.83440087783  1815.78136474062 583.423269139265  1818.06839513938 580.994783106879  L 1817.34040410984 580.30919645232  Z M 1826.15260990916 570.765417781977  C 1823.91722355277 573.234717835249  1821.66316945891 575.687054105235  1819.39064152353 578.122215639576  L 1820.12174014427 578.804487437868  C 1822.39771260164 576.365634874123  1824.65518321624 573.909581542614  1826.89395779828 571.436538715413  L 1826.15260990916 570.765417781977  Z M 1834.77520780419 561.049992526299  C 1832.5888708089 563.562824685106  1830.38353570815 566.059063882923  1828.15939220708 568.538495390748  L 1828.9037818215 569.206240927563  C 1831.13129650717 566.723051289334  1833.33997428419 564.223028485334  1835.52962515991 561.70638757  L 1834.77520780419 561.049992526299  Z M 1843.22303077107 551.179187175289  C 1841.33124621492 553.421731495133  1839.42883548456 555.655290107468  1837.51586277939 557.879787637838  C 1837.2567667348 558.181423465705  1836.99739804624 558.482824993369  1836.73775703152 558.783991851522  L 1837.49514906748 559.436952266764  C 1837.7551218105 559.135400625143  1838.01482194429 558.833614069989  1838.27424915072 558.531592970987  C 1840.18922123376 556.304769089944  1842.09362063754 554.068874948438  1843.98738309959 551.823985994986  L 1843.22303077107 551.179187175289  Z M 1851.5310912573 541.189623933633  C 1849.41878370333 543.765930565932  1847.29261539852 546.330841557708  1845.15267885969 548.884245300946  L 1845.91911093263 549.526570668316  C 1848.06135386148 546.970414906589  1850.18981371709 544.402739494043  1852.304397883 541.82365615888  L 1851.5310912573 541.189623933633  Z M 1859.69845137245 531.084700799265  C 1857.62242744502 533.69033387381  1855.53238455052 536.284766519847  1853.42841363369 538.867885844921  L 1854.20376516366 539.499415737303  C 1856.31000370731 536.913512366776  1858.40229921725 534.316283481946  1860.48056065067 531.707842096983  L 1859.69845137245 531.084700799265  Z M 1867.72350950541 520.866399337447  C 1865.68417631077 523.500847892164  1863.6306686818 526.124293426927  1861.5630759736 528.736621786688  L 1862.34719491495 529.357232361705  C 1864.41701604212 526.742088475429  1866.47273690936 524.115815432284  1868.51426806531 521.478527510253  L 1867.72350950541 520.866399337447  Z M 1875.60469195036 510.536723346814  C 1873.60244939966 513.199470769041  1871.58587972708 515.851414737403  1869.55507068032 518.492439856936  L 1870.3478032681 519.102009413479  C 1872.38080108897 516.458137838538  1874.3995441887 513.803335646582  1876.40394472498 511.137718356989  L 1875.60469195036 510.536723346814  Z M 1883.34045321534 500.097698466435  C 1881.37569394635 502.788222594057  1879.39645767741 505.468144952523  1877.40283053171 508.137348929435  L 1878.20402131187 508.735757931528  C 1880.19979715759 506.063677128503  1882.18116661636 503.380866391723  1884.14804347202 500.687442459463  L 1883.34045321534 500.097698466435  Z M 1890.92927632536 489.551371778588  C 1889.00238562541 492.269145002505  1887.06087088631 494.976520221047  1885.10481658998 497.673379627098  L 1885.91430844981 498.260510727337  C 1887.87247095077 495.560744688535  1889.81607822395 492.850451503518  1891.74504569647 490.129749106265  L 1890.92927632536 489.551371778588  Z M 1898.36967311984 478.899811407324  C 1896.48102885023 481.644300774992  1894.57761637013 484.378597939953  1892.6595185034 487.102583923777  L 1893.47715270236 487.678321986345  C 1895.39731786484 484.95140013322  1897.30278181307 482.214155985632  1899.19346163381 479.466708650438  L 1898.36967311984 478.899811407324  Z M 1325.05854300329 674.253980523759  C 1322.1041268634 672.717125848785  1319.16415039901 671.152670495864  1316.23899941658 669.560819764931  L 1315.76100058342 670.439180235069  C 1318.69162876103 672.034011624844  1321.63711018055 673.601396340167  1324.59705831311 675.14112869669  L 1325.05854300329 674.253980523759  Z M 1904.82966699352 481.505428777717  L 1903 473  L 1894.41548570747 474.412839113761  L 1904.82966699352 481.505428777717  Z " fill-rule="nonzero" fill="#007745" stroke="none" />
  </g>
</svg>