<?xml version="1.0" encoding="utf-8"?>
<svg version="1.1" xmlns:xlink="http://www.w3.org/1999/xlink" width="528px" height="64px" viewBox="956 388  528 64" xmlns="http://www.w3.org/2000/svg">
  <g transform="matrix(0.573576436351047 0.819152044288992 -0.819152044288991 0.573576436351046 864.280606253099 -820.26759730001 )">
    <path d="M 1099.64272604776 627.970505039938  C 1098.58530593822 631.132910971707  1097.53900789854 634.299024946729  1096.5038513298 637.468788257066  L 1097.45444512141 637.7792257602  C 1098.48887403887 634.611690598147  1099.53443659547 631.44780220622  1100.59111340384 628.287619250951  L 1099.64272604776 627.970505039938  Z M 1103.82297460797 615.656155543613  C 1102.73669022722 618.808763164286  1101.66149355542 621.965180343111  1100.59740452936 625.125348552305  L 1101.54512080529 625.44446273303  C 1102.60846184231 622.286515927413  1103.68290271713 619.132317515315  1104.76842350687 615.981925983592  L 1103.82297460797 615.656155543613  Z M 1108.1156174811 603.380533412476  C 1107.00055960434 606.523079274871  1105.896554149 609.669535892151  1104.80362158607 612.819844921224  L 1105.74838115057 613.147609112816  C 1106.84054544924 609.999514556925  1107.94377485679 606.855269704712  1109.05804891654 603.71493285847  L 1108.1156174811 603.380533412476  Z M 1112.52029595318 591.144664456807  C 1111.37655776004 594.276885954614  1110.24383577719 597.413119077234  1109.12215100811 600.553305671145  L 1110.0638749125 600.889692484046  C 1111.18477120631 597.751713247809  1112.31669695538 594.617684703886  1113.45963117105 591.487664964783  L 1112.52029595318 591.144664456807  Z M 1117.036641948 578.949571164924  C 1115.86431901479 582.071206554526  1114.70297516011 585.196954103812  1113.55263191829 588.326755853343  L 1114.49124146758 588.671737177446  C 1115.64077608899 585.544135485684  1116.80130359047 582.420585144381  1117.97280245291 579.301144072102  L 1117.036641948 578.949571164924  Z M 1121.66427805788 566.79627261773  C 1120.46346834951 569.907061040309  1119.27359967059 573.022061813466  1118.09469408424 576.141217177381  L 1119.03011084368 576.494764184379  C 1120.20818773201 573.377801394597  1121.39722000663 570.26499027487  1122.59718561972 567.156388544979  L 1121.66427805788 566.79627261773  Z M 1126.40281757519 554.685784403557  C 1125.17362143715 557.785465906549  1123.95532736512 560.889459599182  1122.7479579493 563.997707925732  L 1123.68010375094 564.35979107153  C 1124.88662446047 561.253727652021  1126.10406214681 558.151915875752  1127.33239423571 555.054413257851  L 1126.40281757519 554.685784403557  Z M 1131.25186452468 542.619118533301  C 1129.99438467455 545.707434092289  1128.7477670159 548.800161319805  1127.51203466425 551.897242868689  L 1128.4408316135 552.26783189587  C 1129.67569532146 549.172927404471  1130.92143668468 546.082374173687  1132.17803260396 542.996229510233  L 1131.25186452468 542.619118533301  Z M 1136.21101369655 530.59728335585  C 1134.92535521541 533.673974896325  1133.65051814358 536.755177215383  1132.38652611985 539.840833179563  L 1133.31189660194 540.219897119919  C 1134.57500011719 537.136410181683  1135.84894105704 534.057373758172  1137.13369579951 530.982844942204  L 1136.21101369655 530.59728335585  Z M 1141.27985068035 518.621283473822  C 1139.96612100403 521.686093892578  1138.66317105057 524.755513823027  1137.37102498003 527.829486350187  L 1138.29289166653 528.216993527303  C 1139.58412943803 525.145181813352  1140.88616349789 522.077919496155  1142.19896970323 519.01526345021  L 1141.27985068035 518.621283473822  Z M 1146.45795189958 506.692119659618  C 1145.11626080968 509.744792846292  1143.78530685538 512.802173892576  1142.46511471599 515.864206106722  L 1143.38340057127 516.260124138626  C 1144.70266469694 513.200244344442  1146.0326830726 510.145012448702  1147.37343103634 507.094485103171  L 1146.45795189958 506.692119659618  Z M 1151.74488464709 494.81078877179  C 1150.37534426179 497.851069630263  1149.01649752758 500.896156302855  1147.66836964099 503.945992325784  L 1148.58299792866 504.350288127653  C 1149.93017816441 501.302595951515  1151.28806971307 498.259649787281  1152.65664739587 495.221506058907  L 1151.74488464709 494.81078877179  Z M 1157.16835247784 482.987916628192  C 1156.34224035125 484.749465037696  1155.52161548364 486.513581593964  1154.70648981047 488.28024063907  C 1154.12925766745 489.544596840848  1153.55387876137 490.809798303492  1152.98035494592 492.075840950887  L 1153.8912492352 492.488480737812  C 1154.46409427276 491.223936479385  1155.03879131437 489.960232005962  1155.6153385105 488.69737138451  C 1156.42931846087 486.933205440781  1157.24878795901 485.171577538221  1158.07373509436 483.412513281156  L 1157.16835247784 482.987916628192  Z M 1162.77259149291 471.25035935927  C 1161.31474305896 474.249977083326  1159.87291596834 477.257354950901  1158.44717183815 480.272364440449  L 1159.35119000391 480.699858482473  C 1160.77541292031 477.688065891344  1162.21570163724 474.683896779515  1163.67199460335 471.687479531459  L 1162.77259149291 471.25035935927  Z M 1168.53917826061 459.591704950215  C 1167.03984315278 462.570802595689  1165.55642015445 465.557881972877  1164.08897266031 468.552815427696  L 1164.986971243 468.992813774835  C 1166.45285302746 466.001075798082  1167.93469327089 463.017183518937  1169.4324286462 460.041264455333  L 1168.53917826061 459.591704950215  Z M 1174.46700217655 448.014198776569  C 1172.92646915633 450.972202590029  1171.4017359472 453.938408186171  1169.89286770927 456.912688802963  L 1170.78467376062 457.365106714601  C 1172.29193209455 454.393999540097  1173.81503847238 451.430958770482  1175.3539278035 448.476111032591  L 1174.46700217655 448.014198776569  Z M 1180.55492158318 436.520070585288  C 1178.97348734648 439.456410875826  1177.40773757954 442.401171420408  1175.85773919532 445.354226373466  L 1176.74318095971 445.81897671707  C 1178.29152555566 442.869072559311  1179.8556047282 439.927453960271  1181.4353516358 436.994246631133  L 1180.55492158318 436.520070585288  Z M 1186.80176398968 425.11153406531  C 1185.1797331097 428.025645314262  1183.57326833744 430.948393666939  1181.98243832581 433.879654218471  L 1182.86134527333 434.356647486365  C 1184.45047793089 431.428514476404  1186.05522866747 428.508884583003  1187.67552890327 425.597882577979  L 1186.80176398968 425.11153406531  Z M 1193.21587067167 413.794684301561  C 1191.7920197655 416.255713442327  1190.38312626992 418.7253660486  1188.98926811012 421.203505525115  C 1188.74776907694 421.632541013451  1188.50660814065 422.061766725503  1188.2657855264 422.49118226056  L 1189.13798838569 422.980326587166  C 1189.37858047529 422.551322105133  1189.61951059982 422.12250728591  1189.86077853506 421.693882528565  C 1191.25267800513 419.219224067145  1192.65959197644 416.753040711578  1194.08144263023 414.29546887056  L 1193.21587067167 413.794684301561  Z M 1199.83461996124 402.595211053585  C 1198.11095042905 405.451083188881  1196.40764850505 408.319198813024  1194.72484385971 411.199339579546  L 1195.58826731972 411.703819439104  C 1197.26867596268 408.827779460013  1198.96955269999 405.963747501682  1200.69076804576 403.111941599778  L 1199.83461996124 402.595211053585  Z M 1206.65966738212 391.52024961379  C 1204.88339786323 394.343706520759  1203.12726568812 397.179782059509  1201.39140454922 400.02826032267  L 1202.2453360606 400.548645731633  C 1203.97872565451 397.704223174332  1205.7323574224 394.872185682295  1207.50609786224 392.052748855406  L 1206.65966738212 391.52024961379  Z M 1213.68867137254 380.573599619712  C 1211.86041127586 383.363672616647  1210.0520513498 386.166735058972  1208.26372926279 388.982573552648  L 1209.10787585566 389.518685975321  C 1210.89365170299 386.706856714528  1212.69943685919 383.90778531435  1214.52509385186 381.121684864999  L 1213.68867137254 380.573599619712  Z M 1220.91922039658 369.759016687336  C 1219.03959696816 372.514748545949  1217.17962970974 375.283836207175  1215.3394602186 378.066068863357  L 1216.17353228011 378.617724368367  C 1218.01108171046 375.839453096561  1219.86840071973 373.074308103708  1221.74534791226 370.32249989724  L 1220.91922039658 369.759016687336  Z M 1228.35309055399 359.08194375915  C 1227.36250423212 360.471821723132  1226.37867767905 361.866505100288  1225.40164574166 363.265944491316  C 1224.4684977417 364.601558540068  1223.54000015625 365.940415658257  1222.61616984945 367.282491528425  L 1223.43988122317 367.849500851819  C 1224.36242833523 366.50928911695  1225.28963640549 365.172291775565  1226.22148859216 363.838533112823  C 1227.19669805538 362.441703156731  1228.17868969042 361.049620501446  1229.16742871317 359.662334457304  L 1228.35309055399 359.08194375915  Z M 1236.03542120965 348.579828619852  C 1234.03242313328 351.248235853788  1232.05481884174 353.935610412621  1230.10287601424 356.641588545988  L 1230.91389292799 357.226611251187  C 1232.86213079776 354.525769300334  1234.83598142386 351.843495612811  1236.83517763519 349.180153248546  L 1236.03542120965 348.579828619852  Z M 1243.97476969423 338.270639886381  C 1241.90648336799 340.888767104959  1239.86311466335 343.526482990052  1237.84494016113 346.183430512788  L 1238.64126196186 346.788303714105  C 1240.65560579285 344.136399309509  1242.69509600547 341.503690039231  1244.75945654387 338.890532254469  L 1243.97476969423 338.270639886381  Z M 1252.16629309612 328.160666045751  C 1250.03398015096 330.726916221388  1247.92609346475 333.313364456223  1245.84291835111 335.919660660805  L 1246.62405929165 336.544015392518  C 1248.70328035723 333.942666165455  1250.80716609065 331.361127234964  1252.93543171987 328.79974802599  L 1252.16629309612 328.160666045751  Z M 1260.6049946799 318.256074066173  C 1258.40995580228 320.768881815651  1256.23883692122 323.302484696463  1254.09193190913 325.856539772054  L 1254.85741550245 326.499995184929  C 1257.00024550156 323.95078792865  1259.16724340964 321.421994047068  1261.35811591201 318.913955825878  L 1260.6049946799 318.256074066173  Z M 1269.29956724677 308.572511993904  C 1267.49597878363 310.519587384947  1265.71173978536 312.48449739589  1263.94711334125 314.466952297151  C 1263.49273151816 314.977154540795  1263.03934255714 315.488240153635  1262.58694903142 316.000206234984  L 1263.33630834129 316.662369828592  C 1263.78787210502 316.151342774832  1264.24042954181 315.641194631038  1264.69397808293 315.131928292835  C 1266.45423809274 313.15437752362  1268.23406246181 311.194328520697  1270.0331887431 309.252070306428  L 1269.29956724677 308.572511993904  Z M 1278.2980516899 299.168569988106  C 1275.95183664143 301.542258838267  1273.63530848768 303.94510859091  1271.34900736696 306.376558980381  L 1272.07752471369 307.061586334223  C 1274.3581317803 304.636191494463  1276.66889059922 302.239326061388  1279.00926237739 299.87154890529  L 1278.2980516899 299.168569988106  Z M 1287.5966025525 290.061221341138  C 1285.17468580283 292.357619187504  1282.78149520781 294.684124806811  1280.41758878086 297.040195734381  L 1281.12352074159 297.748475387355  C 1283.48153983769 295.398272276254  1285.86877016937 293.077560840733  1288.28465511294 290.786882194475  L 1287.5966025525 290.061221341138  Z M 1297.18544920486 281.260035773321  C 1294.69037562923 283.476729632043  1292.22303728359 285.724446497865  1289.78400947019 288.002662277058  L 1290.46661427345 288.733449990809  C 1292.89956766549 286.460908129117  1295.36076108213 284.218789222961  1297.84962065391 282.007616060827  L 1297.18544920486 281.260035773321  Z M 1307.05737912816 272.776084070374  C 1306.2445989429 273.449515170281  1305.43517585057 274.126987778813  1304.62913993256 274.808476718383  C 1302.88624406861 276.282023328955  1301.15594369631 277.770403510795  1299.43842748974 279.273454969092  L 1300.09698787551 280.025982854489  C 1301.8102282983 278.526673266582  1303.53622107313 277.041998445345  1305.27477799521 275.572120281902  C 1306.07828157764 274.8927723572  1306.88516170029 274.217428153967  1307.69538837609 273.546112770856  L 1307.05737912816 272.776084070374  Z M 1317.25071336268 264.676403159852  C 1314.59484099105 266.699501693773  1311.97098547088 268.76428967855  1309.38012229407 270.869999471337  L 1310.01082920027 271.646020604084  C 1312.59354710793 269.546930833988  1315.20915363615 267.488634220141  1317.85667635988 265.471895992017  L 1317.25071336268 264.676403159852  Z M 1327.7669710265 257.000647925538  C 1325.03053243091 258.913365768024  1322.32437781396 260.869048360346  1319.64951326452 262.866968622659  L 1320.2479348095 263.66815003439  C 1322.91439000259 261.676510921323  1325.6120368921 259.726976689614  1328.33987255215 257.820272133273  L 1327.7669710265 257.000647925538  Z M 1338.58853334781 249.761678206379  C 1335.77611311422 251.560810820201  1332.99219324914 253.40411150038  1330.23780875285 255.290894948201  L 1330.80294235061 256.115894352248  C 1333.54866749226 254.235042656891  1336.32383514812 252.397537026137  1339.12741357176 250.604060604247  L 1338.58853334781 249.761678206379  Z M 1349.69959431749 242.973722235305  C 1348.94773230622 243.410512067662  1348.19798703244 243.850935395278  1347.45038479783 244.294976767734  C 1345.32776970085 245.556886910748  1343.21992162269 246.843472311955  1341.12726929621 248.154471282002  L 1341.65816813086 249.001906487408  C 1343.74418372727 247.695065277436  1345.84534646542 246.41255953501  1347.96122899595 245.154650105224  C 1348.7060010288 244.712290508976  1349.45290781661 244.273534977047  1350.20192316144 243.838398898884  L 1349.69959431749 242.973722235305  Z M 1361.11483094424 236.705726123662  C 1358.14952474608 238.241963116244  1355.21300831287 239.83314505367  1352.30680099311 241.478448661152  L 1352.79946284426 242.348669495439  C 1355.69489453755 240.709466339555  1358.62052296427 239.124184181568  1361.57483440932 237.593643243729  L 1361.11483094424 236.705726123662  Z M 1372.81932939063 230.996074766664  C 1369.78332266702 232.387379233843  1366.77341983696 233.834954335197  1363.79117821894 235.33805109788  L 1364.24125833193 236.231039279154  C 1367.21244240374 234.733515693973  1370.21118512546 233.291307907076  1373.23593495278 231.905162114274  L 1372.81932939063 230.996074766664  Z M 1384.78579995709 225.85808053912  C 1381.68617132927 227.101208575901  1378.6098998609 228.401801738032  1375.5585772095 229.759187100867  L 1375.96502619711 230.672860576717  C 1379.00503516387 229.320508123109  1382.06990044246 228.024737296259  1385.15803627689 226.786218525746  L 1384.78579995709 225.85808053912  Z M 1396.98896088268 221.30857273922  C 1395.45756016073 221.835551640143  1393.93124732411 222.377201544004  1392.41023283475 222.93344776318  C 1390.79490362722 223.525172767875  1389.18527288066 224.132339338536  1387.58156160902 224.754864106801  L 1387.94343181247 225.687092595884  C 1389.54111310511 225.066908530303  1391.14469130817 224.462024112586  1392.75394626186 223.872522389029  C 1394.2688738115 223.318504042439  1395.78907819549 222.779022788019  1397.31434981754 222.254153006076  L 1396.98896088268 221.30857273922  Z M 1409.40931061963 217.38855503978  C 1406.19936542405 218.311633385021  1403.0079867802 219.29809423637  1399.83704607699 220.347359144169  L 1400.15119412414 221.296733150804  C 1403.30961968614 220.251609505715  1406.48840252384 219.269042040591  1409.68567863438 218.349606922053  L 1409.40931061963 217.38855503978  Z M 1422.01469039469 214.111967321084  C 1418.76155151812 214.868875003524  1415.52369759395 215.690035539234  1412.30302726369 216.574967408821  L 1412.56797429148 217.539230377343  C 1415.7759332065 216.657791177077  1419.00100789483 215.83987161653  1422.24130720856 215.085951314624  L 1422.01469039469 214.111967321084  Z M 1434.77179148146 211.487467708938  C 1431.48405508795 212.07620465945  1428.20828165826 212.729895027274  1424.94639206945 213.448155495657  L 1425.16143797617 214.424759436875  C 1428.41045346463 213.709333815319  1431.67329799691 213.058223447573  1434.9480582773 212.471810137508  L 1434.77179148146 211.487467708938  Z M 1447.64690424183 209.521991237522  C 1444.33325791671 209.941001764935  1441.02822095561 210.425494639396  1437.7337313954 210.975185759678  L 1437.89830793912 211.961550074349  C 1441.17979473266 211.414028487539  1444.47178729838 210.931447820625  1447.77235524847 210.514091053535  L 1447.64690424183 209.521991237522  Z M 1460.60600720115 208.220731524106  C 1457.27520699468 208.468908425997  1453.94963980286 208.78292357271  1450.63125570127 209.162592829261  L 1450.7449280014 210.156111127122  C 1454.0502150288 209.777940357867  1457.36265679604 209.465164573309  1460.68031092416 209.217967181685  L 1460.60600720115 208.220731524106  Z M 1473.61485694724 207.587127045322  C 1470.27570423747 207.663814533712  1466.93839436516 207.806522192305  1463.60488429166 208.015166338921  L 1463.66735197806 209.01321332587  C 1466.98770527784 208.805392660738  1470.3118433793 208.663248243992  1473.63781704487 208.586863427534  L 1473.61485694724 207.587127045322  Z M 1486.63907861596 207.622852051263  C 1483.30039685177 207.527847485483  1479.9601628783 207.498870562173  1476.62033537155 207.535938273078  L 1476.63143337826 208.535876688305  C 1479.9580791775 208.498955277089  1483.28512983922 208.527817833616  1486.61063441794 208.622447433204  L 1486.63907861596 207.622852051263  Z M 1499.64346924577 208.249564890143  C 1496.31253155613 208.018615858795  1492.97799478837 207.842891200911  1489.64123281421 207.722463317293  L 1489.60516505518 208.721812663998  C 1492.93088457523 208.841842011733  1496.25438625283 209.016985138335  1499.57430076286 209.247169882598  L 1499.64346924577 208.249564890143  Z M 1512.61040542652 209.429817790589  C 1509.29250911078 209.055588735915  1505.96863803143 208.736377741798  1502.64016166578 208.472316327243  L 1502.56107613191 209.469184161177  C 1505.87853746329 209.732371708769  1509.19140874878 210.050526327639  1512.49832504314 210.423516934023  L 1512.61040542652 209.429817790589  Z M 1525.51445938291 211.167581386495  C 1522.21576473556 210.650767134662  1518.90873073236 210.18866247917  1515.59471991355 209.781457813036  L 1515.47276344191 210.773993262793  C 1518.77580709775 211.179850353382  1522.07189702657 211.64042575102  1525.35967519724 212.155529692768  L 1525.51445938291 211.167581386495  Z M 1538.33167232755 213.459629195031  C 1535.05830399158 212.801189308267  1531.77424719112 212.197048975041  1528.48085499947 211.647457108881  L 1528.31625402504 212.633817346935  C 1531.5987472876 213.181590430993  1534.87193605288 213.783731463113  1538.13447172535 214.439992353505  L 1538.33167232755 213.459629195031  Z M 1551.0437784139 216.261671689922  C 1547.79720184009 215.4865542683  1544.54044251094 214.754725129822  1541.27436746285 214.066379106976  L 1541.06814145969 215.044883494099  C 1544.32552548281 215.731397828335  1547.57361857614 216.461279569643  1550.81155601042 217.234334403983  L 1551.0437784139 216.261671689922  Z M 1563.65035767324 219.503249229872  C 1560.43257262216 218.616160828466  1557.20311175743 217.771982091936  1553.96283484792 216.970937763242  L 1553.72284483594 217.941713120444  C 1556.95449936935 218.740625870365  1560.17536663943 219.582558247466  1563.38458916524 220.467286106841  L 1563.65035767324 219.503249229872  Z M 1576.13711176028 223.179475275572  C 1572.95197875729 222.181480175314  1569.75369089039 221.22596464096  1566.54309962933 220.313183056301  L 1566.26963353565 221.275064699543  C 1569.4716814141 222.185417372616  1572.66145863771 223.138390280347  1575.83811600251 224.133729715874  L 1576.13711176028 223.179475275572  Z M 1588.48905973934 227.285939288812  C 1585.34040013565 226.178234830526  1582.17712240026 225.112528874473  1579.0000686823 224.089105140083  L 1578.69345459682 225.040939055524  C 1581.86205417556 226.061639459594  1585.01691442961 227.124509572336  1588.15719545083 228.229266429315  L 1588.48905973934 227.285939288812  Z M 1600.69618446029 231.798123056111  C 1598.29931847301 230.87414853755  1595.89521399092 229.969061975907  1593.48409460519 229.082947547787  C 1592.76313652981 228.817810575568  1592.04136720388 228.554884779213  1591.31879680562 228.294173866437  L 1590.97940258742 229.234818094959  C 1591.7000840298 229.49484745281  1592.41996645637 229.757086007614  1593.13903971475 230.021530061068  C 1595.5452657243 230.905845513347  1597.94449097306 231.809094860462  1600.33649231736 232.731194094302  L 1600.69618446029 231.798123056111  Z M 1612.77484771111 236.639797227378  C 1609.69441768604 235.357222709014  1606.60094950052 234.106189720206  1603.49492859135 232.886894577002  L 1603.1295169931 233.817740624352  C 1606.22919050253 235.034544041355  1609.31633694079 236.283020445161  1612.39047186311 237.562973920909  L 1612.77484771111 236.639797227378  Z M 1624.72049717921 241.800937943579  C 1621.67526075394 240.436906547792  1618.61615207121 239.104058836643  1615.543651176 237.802603964803  L 1615.15361705882 238.723404370664  C 1618.21983905508 240.022199616387  1621.27269620694 241.352323547675  1624.31170945036 242.713567437261  L 1624.72049717921 241.800937943579  Z M 1636.52468510018 247.277895331923  C 1633.51679581521 245.833371679008  1630.49420998599 244.419651813229  1627.45740192624 243.036957579972  L 1627.04302111575 243.947061169627  C 1630.0736232177 245.3269297577  1633.09003215337 246.737760574958  1636.09177457834 248.179332229373  L 1636.52468510018 247.277895331923  Z M 1648.17906374883 253.066796179328  C 1645.21064873339 251.542801812363  1642.22672328006 250.049209551108  1639.22775563586 248.586253774775  L 1638.78932117528 249.485016938118  C 1641.78216019157 250.944983048445  1644.75998775688 252.435523035614  1647.72233658113 253.956402999379  L 1648.17906374883 253.066796179328  Z M 1659.69178247184 259.125977160024  C 1656.75542452837 257.54290523165  1653.80693719488 255.98243538857  1650.84658196245 254.444706023431  L 1650.38561987404 255.332125852512  C 1653.3414259852 256.867492218347  1656.28538243461 258.425564117266  1659.21722813299 260.006203369287  L 1659.69178247184 259.125977160024  Z M 1671.08104578259 265.413984983422  C 1668.17692163553 263.772529031843  1665.26021868674 262.153428171601  1662.33119560852 260.556825995173  L 1661.85258533399 261.434853446399  C 1664.77710743847 263.029002154808  1667.68932834561 264.645614973711  1670.58898978065 266.284548531333  L 1671.08104578259 265.413984983422  Z M 1682.34233027757 271.928417627303  C 1679.47160063341 270.229233701796  1676.5878478033 268.552148938942  1673.69132753727 266.897312073559  L 1673.19526036528 267.765596221102  C 1676.08732960402 269.417890130325  1678.96665102631 271.092397749102  1681.83296927514 272.78897057117  L 1682.34233027757 271.928417627303  Z M 1693.47113510026 278.666671434266  C 1690.63494731856 276.910438656584  1687.78529717168 275.176040280332  1684.92243738527 273.463630123324  L 1684.40911158159 274.321823935513  C 1687.26757206614 276.031602664593  1690.11284321012 277.763335824018  1692.94467267632 279.516869832391  L 1693.47113510026 278.666671434266  Z M 1704.46301234298 285.626053291137  C 1701.66249997774 283.813473584019  1698.84809144871 282.022454790464  1696.02003635607 280.253155749756  L 1695.48965708431 281.100916227777  C 1698.3133663588 282.867496420499  1701.12345004005 284.655762989714  1703.91965891151 286.465557340273  L 1704.46301234298 285.626053291137  Z M 1715.32516312541 292.782450641502  C 1712.55391286286 290.926611065697  1709.77200230857 289.086739730887  1706.97956974052 287.262928089924  L 1706.43274254261 288.100173582966  C 1709.22196200849 289.921886661833  1712.00067156776 291.759640955551  1714.76873310149 293.613345116435  L 1715.32516312541 292.782450641502  Z M 1726.07844302544 300.100813854681  C 1723.3352784902 298.203706350751  1720.58121586929 296.322405752551  1717.81639205645 294.457005572222  L 1717.25709550921 295.285973226748  C 1720.01873798779 297.149226991282  1722.76963165682 299.028362877962  1725.50963977996 300.923287482182  L 1726.07844302544 300.100813854681  Z M 1736.72098857432 307.579295850937  C 1734.00652425524 305.64134538478  1731.28092649778 303.719036948226  1728.54433078082 301.812466091757  L 1727.97269017076 302.632970212973  C 1730.70613703402 304.537347280762  1733.42859859257 306.457443820279  1736.13993952336 308.393164390924  L 1736.72098857432 307.579295850937  Z M 1747.25041576434 315.216221395836  C 1744.56525972119 313.23786208247  1741.86873738094 311.274976418652  1739.16098277723 309.3276619718  L 1738.57712615601 310.139518760809  C 1741.28176509193 312.084592537519  1743.97518468881 314.045219614265  1746.65725106712 316.021302535829  L 1747.25041576434 315.216221395836  Z M 1757.66436592712 323.009879762436  C 1755.00911965444 320.991554768775  1752.34227677199 318.98853157834  1749.6639698383 317.000909753743  L 1749.06802799406 317.80393734871  C 1751.74325314383 319.78927212365  1754.40702743342 321.78999054288  1757.05921845685 323.805993158396  L 1757.66436592712 323.009879762436  Z M 1767.9608391245 330.957423977539  C 1767.4581563993 330.563987939792  1766.95514731604 330.170969059843  1766.45181239363 329.778367743132  C 1764.32587627488 328.119153221202  1762.19222877084 326.469842965725  1760.05093921846 324.830490574197  L 1759.4430456465 325.624509091093  C 1761.58190940477 327.262004316047  1763.71313963598 328.909446300885  1765.83666707936 330.566781506995  C 1766.33960370254 330.95907204931  1766.84221472032 331.351779856048  1767.3444996135 331.744904521541  L 1767.9608391245 330.957423977539  Z M 1778.15713799805 339.030852000902  C 1775.55439099948 336.946028622961  1772.94261934771 334.872496909225  1770.32189665013 332.810315297891  L 1769.70351118041 333.596190231228  C 1772.32196290817 335.656584872795  1774.93147134653 337.72831978138  1777.53196295199 339.811336569482  L 1778.15713799805 339.030852000902  Z M 1788.26180417727 347.218676631012  C 1785.68271781736 345.104653451415  1783.0944801236 343.00181951374  1780.49716404012 340.910234082003  L 1779.86996126004 341.689090084525  C 1782.46502665659 343.778863066849  1785.05102153005 345.879874807648  1787.62787299987 347.99206609455  L 1788.26180417727 347.218676631012  Z M 1798.27355426498 355.519857929381  C 1795.71845611438 353.376903450958  1793.15408111162 351.245034371021  1790.58050152827 349.124310771881  L 1789.94456109907 349.896048920814  C 1792.51591056414 352.014934821016  1795.07806342477 354.144956543945  1797.63094747204 356.28605405941  L 1798.27355426498 355.519857929381  Z M 1808.19111666526 363.933341560053  C 1805.6603312479 361.761727960206  1803.12014463829 359.601094507449  1800.57062842633 357.451502094758  L 1799.92603111903 358.216024371366  C 1802.47333806462 360.363754069001  1805.01132349248 362.522515239255  1807.53991587451 364.692247041732  L 1808.19111666526 363.933341560053  Z M 1818.01323174503 372.458058923512  C 1815.50708049685 370.258062019647  1812.99140491039 368.068938616885  1810.46627588476 365.890750411131  L 1809.8131035699 366.647959713173  C 1812.33604446181 368.824260424457  1814.84954010618 371.011486856776  1817.3535196657 373.209577367989  L 1818.01323174503 372.458058923512  Z M 1824.609236244 378.292999829141  C 1823.16478503081 377.005355286573  1821.71709738818 375.721345898364  1820.26618705391 374.440983849105  L 1819.60452269113 375.19078400316  C 1822.1027770896 377.395379315252  1824.59146371081 379.610793209483  1827.07051241636 381.836963249059  L 1824.609236244 378.292999829141  Z M 1095.57522112225 640.32255285492  C 1094.54675364701 643.494492831929  1093.52944167322 646.670039027253  1092.52330406446 649.849132558057  L 1093.47669593554 650.150867441943  C 1094.48212629156 646.974008617994  1095.4987231577 643.800694636034  1096.52646768368 640.630984337372  L 1095.57522112225 640.32255285492  Z M 1819.32710458054 382.686210640522  L 1828 382  L 1827.73742184799 373.303963390481  L 1819.32710458054 382.686210640522  Z " fill-rule="nonzero" fill="#00bfbf" stroke="none" />
  </g>
</svg>