<?xml version="1.0" encoding="utf-8"?>
<svg version="1.1" xmlns:xlink="http://www.w3.org/1999/xlink" width="802px" height="56px" viewBox="1072 328  802 56" xmlns="http://www.w3.org/2000/svg">
  <g transform="matrix(0.71933980033865 0.694658370458996 -0.694658370458999 0.71933980033865 660.710853984572 -923.316748606661 )">
    <path d="M 1218.69242799227 628.511683288388  C 1216.64476116193 631.142335154133  1214.59964674793 633.774972793876  1212.55708763574 636.409592493202  L 1213.34739681743 637.022300741345  C 1215.38955968031 634.388192148994  1217.43427734927 631.756065231742  1219.48154693944 629.125923703227  L 1218.69242799227 628.511683288388  Z M 1226.69125783258 618.262223704789  C 1224.63696249529 620.887702584424  1222.58521455587 623.515173671781  1220.53601691284 626.144633255043  L 1221.32477821022 626.75933286929  C 1223.37357831671 624.130383391176  1225.42492822298 621.503422025582  1227.4788250348 618.878452478854  L 1226.69125783258 618.262223704789  Z M 1234.71591338071 608.032971341891  C 1232.65500260362 610.653260535035  1230.5966341934 613.27554835226  1228.54081105423 615.899831093757  L 1229.32801944961 616.516518163706  C 1231.38344376631 613.89274452385  1233.44141286025 611.270965421287  1235.50192382789 608.651184555051  L 1234.71591338071 608.032971341891  Z M 1242.76634358794 597.823991272925  C 1240.69883048272 600.439074109087  1238.63385469353 603.056161977658  1236.57141913754 605.675251181492  L 1237.35706962311 606.293921784097  C 1239.41910507445 603.675340673597  1241.48368026433 601.058760512475  1243.55079227988 598.444184992427  L 1242.76634358794 597.823991272925  Z M 1250.84249724157 587.635348442162  C 1248.76839495946 590.24520828709  1246.69682493006 592.857079555328  1244.62779007618 595.470958561763  L 1245.41187765403 596.09160876136  C 1247.48051112179 593.478236839058  1249.55167927509 590.866872263152  1251.62537918802 588.257518722652  L 1250.84249724157 587.635348442162  Z M 1258.94432296529 577.4671076645  C 1256.86364470188 580.071727914056  1254.78549360807 582.678365969692  1252.70987261966 585.287018149019  L 1253.49239230183 585.909643997352  C 1255.56761062767 583.301497886616  1257.6453585662 580.695365511196  1259.72563318595 578.091250548051  L 1258.94432296529 577.4671076645  Z M 1267.07176921944 567.319333625047  C 1264.9845282097 569.918697711532  1262.89980927409 572.520085969368  1260.81761535394 575.123494728241  L 1261.59856216245 575.748092264485  C 1263.68035214428 573.145188557775  1265.76466665171 570.544304960159  1267.85150274403 567.945445141185  L 1267.07176921944 567.319333625047  Z M 1275.22478430141 557.192090878712  C 1273.13099382391 559.786182265532  1271.03972030715 562.382304178436  1268.95096670174 564.980452954531  L 1269.7303356686 565.607018205319  C 1271.81868406315 563.009373460968  1273.90955188016 560.413755186632  1276.00293616965 557.820167044437  L 1275.22478430141 557.192090878712  Z M 1283.40331634591 547.085443849798  C 1281.30298972027 549.674246034683  1279.20517492598 552.265085087461  1277.10987492287 554.857957352695  L 1277.88766109014 555.48648633214  C 1279.9825546124 552.894117075026  1282.07996243796 550.30378063596  1284.17988160761 547.715480669613  L 1283.40331634591 547.085443849798  Z M 1291.60731332534 536.999456831583  C 1289.50046391275 539.582953345906  1287.39612118614 542.168493056976  1285.29428811455 544.756072316831  L 1286.07048653436 545.386561026557  C 1288.17191185708 542.799483748768  1290.27584634981 540.214445621815  1292.38228704039 537.631450297519  L 1291.60731332534 536.999456831583  Z M 1299.83672305009 526.934193985925  C 1297.72336425324 529.512368394811  1295.61250698106 532.092592316302  1293.50415421177 534.674862109932  L 1294.27875994634 535.307306539094  C 1296.38670370258 532.725537696741  1298.49715147584 530.145814329665  1300.6101002885 527.568140077565  L 1299.83672305009 526.934193985925  Z M 1308.09149316889 516.889719342837  C 1305.97163843189 519.462555245271  1303.85428004232 522.037446963125  1301.73942098759 524.614390863461  L 1302.51242910927 525.248786988774  C 1304.62687788877 522.672343006511  1306.74382551822 520.097950808641  1308.86326901084 517.525614027343  L 1308.09149316889 516.889719342837  Z M 1316.37157116916 506.86609680009  C 1314.24523397806 509.433577828249  1312.12138793938 512.003120963865  1310.00003605348 514.574722576951  L 1310.7714416448 515.211066362713  C 1312.89238199651 512.639963630549  1315.01581601522 510.070918978842  1317.14174070501 507.503936032227  L 1316.37157116916 506.86609680009  Z M 1324.6769043773 496.86339012281  C 1322.5440982575 499.425499945234  1320.41377808305 501.98967814944  1318.28594685967 504.555921117603  L 1319.05574501335 505.194208515723  C 1321.18316344494 502.62846338969  1323.31307034472 500.064782627084  1325.44546270763 497.503169844974  L 1324.6769043773 496.86339012281  Z M 1333.00743995907 486.881662943063  C 1330.86817847964 489.438385259402  1328.7313977189 491.997182223269  1326.59710069546 494.558050219866  L 1327.36528651443 495.198277169888  C 1329.49916949237 492.637905971933  1331.63553572385 490.079605407248  1333.77438219469 487.523379085304  L 1333.00743995907 486.881662943063  Z M 1341.36312491988 476.920978759452  C 1339.21742168908 479.472297305918  1337.0741939364 482.025696750177  1334.93344468958 484.581173485047  L 1335.70001328704 485.223335914178  C 1337.84034723666 482.668354932064  1339.98315920937 480.115450839885  1342.12844618192 477.564627239503  L 1341.36312491988 476.920978759452  Z M 1349.74390610518 466.98140093672  C 1347.59177477286 469.52729948314  1345.44211366235 472.075285164376  1343.29492581049 474.625354380895  L 1344.05987230993 475.269448204027  C 1346.20664361424 472.719873692747  1348.35588769929 470.172382310299  1350.50760152505 467.626977660021  L 1349.74390610518 466.98140093672  Z M 1358.14973020075 457.062992705337  C 1355.99118445702 459.603455056773  1353.83510366501 462.146010764499  1351.68149086676 464.690656241198  L 1352.44481040198 465.336677360939  C 1354.59800540626 462.792525537291  1356.75366792742 460.25046307496  1358.91179492022 457.710493565062  L 1358.14973020075 457.062992705337  Z M 1366.58054373307 447.165817161112  C 1364.41559731077 449.700827154937  1362.25311055056 452.237936717753  1360.09308650739 454.777142265392  L 1360.85477422255 455.425086572089  C 1363.01437922864 452.886373621415  1365.17644647397 450.349756248976  1367.34097290427 447.815238038193  L 1366.58054373307 447.165817161112  Z M 1375.03629306965 437.289937264772  C 1372.86495974041 439.819478775316  1370.69608076992 442.351126051923  1368.52965922214 444.884875518143  L 1369.28971027177 445.534738889907  C 1371.45571154137 443.001480962191  1373.62416975693 440.470324816298  1375.79508185512 437.941274027929  L 1375.03629306965 437.289937264772  Z M 1383.52533977747 427.441047047535  C 1382.53277771516 428.585715218039  1381.5410292804 429.731088645003  1380.55009522337 430.877166462041  C 1379.36305212687 432.255455915111  1378.17673866447 433.634373600016  1376.99115534188 435.013918928955  L 1377.74956489093 435.66569723169  C 1378.93470732044 434.286664926146  1380.12057948563 432.908259922808  1381.30718088669 431.530482802604  C 1382.2975937903 430.385008435397  1383.28882046809 429.240237938423  1384.28086017239 428.096172175168  L 1383.52533977747 427.441047047535  Z M 1392.06324548318 417.635089921743  C 1389.8689298144 420.144984313519  1387.67854055925 422.658308727676  1385.49208575231 425.175053945083  L 1386.24699110858 425.830887691611  C 1388.43276216961 423.31492950819  1390.6224664489 420.802391057778  1392.81609591353 418.293281557606  L 1392.06324548318 417.635089921743  Z M 1400.6409513451 407.863928724688  C 1398.43644865845 410.364880346909  1396.23585840662 412.869277927842  1394.03918866158 415.377112281097  L 1394.79142117713 416.036010029269  C 1396.98740398186 413.528959923405  1399.18730606779 411.025345514629  1401.39111936462 408.525175987437  L 1400.6409513451 407.863928724688  Z M 1409.25831555503 398.127724995001  C 1407.04366229576 400.619692501477  1404.83290742779 403.115121846024  1402.6260590604 405.614003875149  L 1403.3756062992 406.275954731947  C 1405.58176454323 403.777854150651  1407.79182806663 401.283205173725  1410.0057887618 398.792016952775  L 1409.25831555503 398.127724995001  Z M 1417.91519564912 388.426639693392  C 1415.69042843028 390.909581886459  1413.46954549479 393.396001739722  1411.25255498907 395.885890132741  L 1411.99940455945 396.550883154671  C 1414.21570177017 394.061773397001  1416.43589019386 391.576131093922  1418.65996168577 389.093965363995  L 1417.91519564912 388.426639693392  Z M 1426.61144851023 378.76083319998  C 1424.37660411208 381.234709031181  1422.14562982511 383.712078287214  1419.91853383276 386.192931880834  L 1420.66267338768 386.860956074111  C 1422.88907292485 384.380878290486  1425.11934954427 381.904283754345  1427.35349506416 379.43118155106  L 1426.61144851023 378.76083319998  Z M 1435.34693037032 369.130465311654  C 1433.10204573973 371.59523388242  1430.86101698415 374.063511584899  1428.62385232392 376.535289365193  L 1429.36526956113 377.206333685917  C 1431.60173461751 374.735328877439  1433.84206256131 372.267823051752  1436.08624517388 369.80382526089  L 1435.34693037032 369.130465311654  Z M 1444.1214968128 359.535695239424  C 1441.8666090626 361.991315801749  1439.61556288752 364.450461144652  1437.36836654464 366.913122247738  L 1438.10704920688 367.587175602081  C 1440.35354280883 365.125284619854  1442.60388503949 362.666908297883  1444.85806764351 360.212055654706  L 1444.1214968128 359.535695239424  Z M 1452.93500277493 349.976681605789  C 1450.67014918334 352.423113562902  1448.40912280347 354.873085891189  1446.15193192898 357.3265896039  L 1446.88786780423 358.003640848289  C 1449.14435281229 355.550904392747  1451.40467212676 353.101698216818  1453.66881745565 350.656031305401  L 1452.93500277493 349.976681605789  Z M 1461.7871197379 340.453352153554  C 1461.14749784254 341.138522987701  1460.50830819985 341.824097212259  1459.86955119199 342.510074417351  C 1458.23586252692 344.263498040715  1456.60414551995 346.018757651144  1454.97440326545 347.775849919997  L 1455.70758018707 348.455887861296  C 1457.33684617069 346.699309079702  1458.96808636947 344.944562459207  1460.60129769112 343.19165132622  C 1461.23980153254 342.505945912065  1461.87873785925 341.820643340666  1462.51810629076 341.135744020112  L 1461.7871197379 340.453352153554  Z M 1470.68787796478 330.974329599769  C 1468.39854846304 333.398185494259  1466.1146602146 335.82717487501  1463.83623046518 338.261279400652  L 1464.56629771241 338.944654710806  C 1466.84370527534 336.511642213026  1469.12656888841 334.083742565281  1471.41487131364 331.660974100743  L 1470.68787796478 330.974329599769  Z M 1479.64378108053 321.547391339133  C 1477.34035085146 323.957851076324  1475.04233183667 326.373475954243  1472.74974138858 328.794247732437  L 1473.47580971048 329.481870297461  C 1475.76737161908 327.062184565573  1478.06435965893 324.647643424858  1480.36675648538 322.238265107616  L 1479.64378108053 321.547391339133  Z M 1488.65452431059 312.1728581758  C 1486.33707174125 314.569839726355  1484.02500016303 316.972017896332  1481.71832703444 319.379374546815  L 1482.44037172249 320.071220966516  C 1484.74600999359 317.664944343825  1487.05704429238 315.263843878369  1489.37345716816 312.867937700958  L 1488.65452431059 312.1728581758  Z M 1497.71980101416 302.851049130549  C 1495.38840496881 305.234470923801  1493.06235950829 307.623120638325  1490.74168219661 310.01698023736  L 1491.45967867922 310.713026967804  C 1493.77931485061 308.320241341293  1496.10431676252 305.932663261932  1498.43466685876 303.550310758424  L 1497.71980101416 302.851049130549  Z M 1506.83930269465 293.582281429927  C 1504.49404251204 295.952062356655  1502.15410232588 298.327102328598  1499.81949980512 300.70738341176  L 1500.53342364844 301.407606766075  C 1502.86697878156 299.02839356362  1505.20586918543 296.654419121016  1507.55007719898 294.285701364242  L 1506.83930269465 293.582281429927  Z M 1516.01271901013 284.366870495454  C 1513.653674501 286.722929910469  1511.29991921837 289.084279316199  1508.95147093657 291.450900880971  L 1509.66129784537 292.155277030152  C 1512.008692528 289.789717217754  1514.36139183003 287.429427199628  1516.71937798613 285.074424798422  L 1516.01271901013 284.366870495454  Z M 1525.23973778397 275.205129932885  C 1522.86698922778 277.547387658301  1520.49949894868 279.894966139381  1518.13728482472 282.247847648441  L 1518.84299064318 282.956352622161  C 1521.20414499211 280.604526701186  1523.57057312859 278.258001429571  1525.94225718361 275.916794526026  L 1525.23973778397 275.205129932885  Z M 1534.51968077307 266.09708913517  C 1534.15327424806 266.454681422847  1533.78705201302 266.812462495845  1533.42101421528 267.170432210212  C 1531.40246816859 269.142638965634  1529.38766942057 271.118677425394  1527.37662887101 273.09853689939  L 1528.07818958356 273.811146586814  C 1530.08838348922 271.83212062955  1532.10233411509 269.85691418342  1534.12003056513 267.885537934859  C 1534.48587845869 267.527753826423  1534.85191072276 267.170158289514  1535.21812720856 266.812751469485  L 1534.51968077307 266.09708913517  Z M 1543.86592225815 257.054957176119  C 1541.45934777057 259.362984546136  1539.06052590347 261.679081990167  1536.66949718384 264.003210378817  L 1537.36650112857 264.72027767066  C 1539.75592550808 262.397708733132  1542.15313780584 260.083165351737  1544.55809752235 257.776686629329  L 1543.86592225815 257.054957176119  Z M 1553.29070595781 248.094720991898  C 1550.86408416504 250.381661695076  1548.44514428139 252.676739811305  1546.03392717373 254.979916566303  L 1546.72464774299 255.703038336961  C 1549.13424696446 253.401406974891  1551.55156377991 251.107868817681  1553.97655735021 248.822462613312  L 1553.29070595781 248.094720991898  Z M 1562.79331429238 239.217062792677  C 1560.34682995138 241.482742707021  1557.90795622326 243.75662675389  1555.47673431167 246.038676517068  L 1556.16111891571 246.767797709842  C 1558.59070951822 244.487279163736  1561.02794680287 242.214920855019  1563.47278959396 239.950761173852  L 1562.79331429238 239.217062792677  Z M 1572.37302375681 230.422658501344  C 1569.90686313674 232.666905123686  1567.44824125414 234.919421973133  1564.99719964573 237.180170994963  L 1565.67519617721 237.915236096373  C 1568.12459317776 235.65600399926  1570.5815653664 233.404998550765  1573.04607123401 231.162257780305  L 1572.37302375681 230.422658501344  Z M 1582.02910497578 221.712177702041  C 1579.5434558441 223.934820160921  1577.06527300021 226.165798312068  1574.5945983113 228.405074464637  L 1575.26615514923 229.14602750865  C 1577.73517205681 226.90825387286  1580.21169208166 224.678772670562  1582.69567338442 222.457621567532  L 1582.02910497578 221.712177702041  Z M 1591.7608227592 213.086283589183  C 1589.25587436716 215.287152658033  1586.75831924449 217.496422249897  1584.26819958623 219.714055040189  L 1584.93326559994 220.460839612475  C 1587.42171442972 218.244694816547  1589.91759373469 216.036907607618  1592.42086134843 213.837515284956  L 1591.7608227592 213.086283589183  Z M 1601.56700230733 204.545580511016  C 1601.44695418168 204.649337020729  1601.32693207938 204.753123639213  1601.20693601482 204.856940354015  C 1598.80372604455 206.932886408215  1596.40715744671 209.016508411495  1594.01726694649 211.107774434292  L 1594.67579149951 211.860333676525  C 1597.06417501351 209.770386337192  1599.45923268383 207.688078506459  1601.86092780542 205.613442096372  C 1601.98089442421 205.509650771909  1602.10088709394 205.405889562049  1602.22090580322 205.30215847664  L 1601.56700230733 204.545580511016  Z M 1611.46567952199 196.108058945143  C 1608.91276438231 198.25410293847  1606.37118023393 200.413590170084  1603.84103302356 202.586430621099  L 1604.4925401964 203.345073095347  C 1607.02002119384 201.174522335337  1609.55892707735 199.017310723358  1612.10915201176 196.873528183524  L 1611.46567952199 196.108058945143  Z M 1621.47907080908 187.807000235197  C 1618.89698199315 189.917852640824  1616.32603885246 192.042302323485  1613.76634855757 194.180260724847  L 1614.40739665343 194.94776143416  C 1616.96438960357 192.812055965853  1619.53262354148 190.689844981077  1622.1119914096 188.58121694481  L 1621.47907080908 187.807000235197  Z M 1631.60529504673 179.643963823214  C 1628.99451762735 181.719228095098  1626.39469847333 183.808241128372  1623.80594595892 185.910915841891  L 1624.4364145501 186.687130603109  C 1627.02243909463 184.586671641481  1629.61951861698 182.499859963737  1632.22754485713 180.426782559228  L 1631.60529504673 179.643963823214  Z M 1641.84244991616 171.620483222273  C 1639.2034743556 173.659769499983  1636.57526759188 175.712953440587  1633.95793918262 177.779949456486  L 1634.5777098289 178.564732449425  C 1637.19228015565 176.499914587996  1639.81771737346 174.44889424702  1642.45391204022 172.411756923875  L 1641.84244991616 171.620483222273  Z M 1652.18861225913 163.738065728412  C 1649.52193431696 165.740990910364  1646.8658336801 167.75796004589  1644.22042106891 169.788889057019  L 1644.8293773398 170.582092851857  C 1647.47200227397 168.553303988591  1650.12530397098 166.538460290336  1652.78917182718 164.537645746434  L 1652.18861225913 163.738065728412  Z M 1662.64183843915 155.99819213747  C 1659.94795907918 157.964379952878  1657.26446354584 159.944755374292  1654.5914637016 161.939235849047  L 1655.18949119819 162.740711434029  C 1657.85967429462 160.74833269846  1660.54034201993 158.770044152711  1663.23138262971 156.805928262314  L 1662.64183843915 155.99819213747  Z M 1673.22422433613 148.429939947151  C 1670.48880525868 150.339961331161  1667.77014547612 152.273872912582  1665.06855698404 154.231452754156  L 1665.65531395867 155.041215838472  C 1668.35218044803 153.087057575487  1671.06608838967 151.156526203772  1673.79672633322 149.24984327275  L 1673.22422433613 148.429939947151  Z M 1683.97607077093 141.102847892795  C 1681.19792493902 142.950171620021  1678.43599080233 144.821760475218  1675.69058532275 146.717399673279  L 1676.25877646225 147.54029628221  C 1678.99938335311 145.647970399049  1681.75649001124 143.779652822097  1684.52978002883 141.935557961016  L 1683.97607077093 141.102847892795  Z M 1694.89175580392 134.022148775395  C 1692.07232001815 135.80581944752  1689.26853994367 137.614117628688  1686.48073734455 139.446835797137  L 1687.030068792 140.282440345259  C 1689.81299869809 138.452925514469  1692.61187815314 136.647787988191  1695.42638595544 134.867234925492  L 1694.89175580392 134.022148775395  Z M 1705.96563406435 127.191504588817  C 1703.10636647972 128.910599727554  1700.26219052554 130.654672019612  1697.43343260181 132.423521313794  L 1697.96362025414 133.271401643395  C 1700.7874339006 131.505644052914  1703.62663862892 129.764620157799  1706.48090860963 128.048529759385  L 1705.96563406435 127.191504588817  Z M 1717.19197836716 120.614448003591  C 1714.29435773881 122.268078527837  1711.41125685503 123.947022931978  1708.54300658288 125.651088538948  L 1709.05377623778 126.510806143532  C 1711.91701320551 124.809719007344  1714.79507482805 123.133709165614  1717.68763081666 121.482968958608  L 1717.19197836716 120.614448003591  Z M 1728.5929693712 114.334046168027  C 1725.63858906362 115.888773217769  1722.70814681715 117.488569935126  1719.80266960289 119.132875672631  L 1720.29519885646 120.003171561616  C 1723.19180720779 118.363885007233  1726.1133043865 116.768971610837  1729.05866655624 115.218990308549  L 1728.5929693712 114.334046168027  Z M 1740.23226575901 108.501249404379  C 1737.21844558091 109.937364697482  1734.22675384362 111.41946518185  1731.25823898307 112.947031456573  L 1731.71580053011 113.836209408769  C 1734.67525410763 112.313305974227  1737.65781381532 110.835729547375  1740.66243441756 109.403997943677  L 1740.23226575901 108.501249404379  Z M 1752.09412129735 103.13551351104  C 1749.025620893 104.450749029667  1745.97740436229 105.812812640053  1742.95053995026 107.221227008107  L 1743.37241117627 108.12788276895  C 1746.39003619539 106.723767534241  1749.42894815663 105.365861573203  1752.48808207573 104.054640762891  L 1752.09412129735 103.13551351104  Z M 1764.15980288027 98.2453124488182  C 1761.04146824892 99.4375910772753  1757.9415408903 100.677466743651  1754.86110717145 101.964504934519  L 1755.24662182666 102.887206647218  C 1758.31765263426 101.604097093351  1761.408117578 100.368006102097  1764.51693360695 99.1793668605434  L 1764.15980288027 98.2453124488182  Z M 1776.42803015527 93.870134610078  C 1774.28000135167 94.5632076698978  1772.14488663568 95.2956848586247  1770.02376677087 96.0671954071134  C 1769.00437864119 96.4348015879123  1767.98682072968 96.8074633839856  1766.97113061167 97.1851670340532  L 1767.31967986328 98.1224575008802  C 1768.33269984545 97.7457467915043  1769.34758349975 97.3740668191538  1770.36429331773 97.0074313205083  C 1772.47432833226 96.239934713304  1774.59828819819 95.5112754252192  1776.73509735921 94.821822443491  L 1776.42803015527 93.870134610078  Z M 1788.96479518214 90.3093078260085  C 1785.7190887552 91.1083186873368  1782.49572202451 91.9954885989884  1779.29827275265 92.9698328503829  L 1779.58976497586 93.9264060487365  C 1782.76986372451 92.9573489437843  1785.97573929444 92.0749931388877  1789.20383333729 91.2803180012287  L 1788.96479518214 90.3093078260085  Z M 1801.72187395851 87.643429768314  C 1798.42781328207 88.2110500871262  1795.14980573763 88.8681878742624  1791.89148973613 89.6141137423491  L 1792.11464658169 90.5888962936273  C 1795.35528177497 89.847018090721  1798.61550165771 89.1934461723297  1801.8916875623 88.6289059679073  L 1801.72187395851 87.643429768314  Z M 1814.63546445053 85.8858333045779  C 1811.30952412465 86.2192242388924  1807.99327007993 86.6430433554258  1804.69038317884 87.1568202378999  L 1804.84408857146 88.1449369578677  C 1808.1290528064 87.6339480157058  1811.42731165 87.2124286959136  1814.73520421345 86.8808468621195  L 1814.63546445053 85.8858333045779  Z M 1827.67247743093 85.3140015038579  C 1824.32420960675 85.26892314709  1820.97558237455 85.3715044336453  1817.63635215627 85.6214464869263  L 1817.7109935582 86.618656926662  C 1821.02090993027 86.3709090206641  1824.34014082341 86.2692282566429  1827.65901546364 86.3139108874705  L 1827.67247743093 85.3140015038579  Z M 1840.68997177083 86.2368559697123  C 1837.36883203598 85.8091173319229  1834.03044676966 85.5280282460765  1830.68454255324 85.3944076817177  L 1830.64463879907 86.3936112097355  C 1833.96117058076 86.5260587694143  1837.27024941839 86.804680279893  1840.56223411658 87.2286639610528  L 1840.68997177083 86.2368559697123  Z M 1853.51649071543 88.6425224092892  C 1850.26606758484 87.8377373741127  1846.98173913945 87.1766670878951  1843.67307446289 86.6612376177035  L 1843.51914927204 87.6493201221653  C 1846.79876842579 88.16022483089  1850.05426498699 88.8154918296919  1853.27615387539 89.6132119597226  L 1853.51649071543 88.6425224092892  Z M 1865.92926158814 92.7054377882907  C 1862.82301837436 91.4464292389192  1859.65251164543 90.3521865099951  1856.43096181707 89.4272723875447  L 1856.15500755162 90.388443154567  C 1859.34274903487 91.3036508259266  1862.47998308718 92.3864100957147  1865.55362803362 93.6322060617654  L 1865.92926158814 92.7054377882907  Z M 1877.66676792683 98.4282892761021  C 1874.76182103285 96.7564241578476  1871.77068764194 95.238991752174  1868.7058402168 93.8823194663338  L 1868.30106803849 94.7967370315965  C 1871.33375162169 96.1391718083867  1874.29349475781 97.6406796183911  1877.16795587559 99.2949994569197  L 1877.66676792683 98.4282892761021  Z M 1888.50906417675 105.706585640798  C 1888.07809341924 105.371644162051  1887.64486206125 105.039621582182  1887.20939983332 104.710540686256  C 1884.96259247306 103.030007293255  1882.64265657041 101.44952956154  1880.2563739741 99.9737276881006  L 1879.73038547065 100.824219366037  C 1882.09092452395 102.284100087025  1884.38585246322 103.847496886046  1886.60846452339 105.509842208676  C 1887.03966459636 105.835716134286  1887.46865891268 106.164498519876  1887.8954181222 106.496166871414  L 1888.50906417675 105.706585640798  Z M 1898.36470170108 114.256802378248  C 1895.95793743918 111.929964058843  1893.45568081496 109.703971299738  1890.86438579481 107.584565511433  L 1890.23128126374 108.358631821735  C 1892.80116831442 110.460528150842  1895.28275255938 112.66813088308  1897.66963335163 114.97574604058  L 1898.36470170108 114.256802378248  Z M 1907.24277067159 123.818166748623  C 1905.1004403398 121.24579206237  1902.85231780999 118.76339864713  1900.50420157107 116.377389236951  L 1899.79145775528 117.078813682678  C 1902.12017504489 119.445111089313  1904.34972472285 121.906996225081  1906.47435620445 124.458119252092  L 1907.24277067159 123.818166748623  Z M 1915.04041683867 134.277320118825  C 1914.92232004837 134.100945067756  1914.80394410216 133.924757093414  1914.68528944498 133.748756858047  C 1912.93639387793 131.147248997781  1911.08709959412 128.614660928808  1909.14158939647 126.156720953474  L 1908.35748784895 126.777353504314  C 1910.28706118799 129.215158996734  1912.1212000004 131.72700624711  1913.8557551782 134.307213065325  C 1913.97394303716 134.482519656  1914.09185299529 134.658013441293  1914.2094846083 134.833693759943  L 1915.04041683867 134.277320118825  Z M 1921.9354800283 145.333637283283  C 1920.25990200001 142.442243037826  1918.51251617839 139.593061761574  1916.69495042108 136.788747740391  L 1915.85579126376 137.332633673908  C 1917.6643194404 140.123003652578  1919.40301664085 142.958017790444  1921.07026310175 145.83503499967  L 1921.9354800283 145.333637283283  Z M 1928.10010424086 156.813247640265  C 1926.61527926986 153.819417782528  1925.05606366405 150.863062281387  1923.42390998243 147.946935265784  L 1922.55129205499 148.435338739057  C 1924.17533009045 151.33696573834  1925.72679272404 154.278621192885  1927.2042346194 157.257564668251  L 1928.10010424086 156.813247640265  Z M 1933.50841166185 168.6679621653  C 1932.22057273557 165.584264172385  1930.85607260944 162.533144613871  1929.41618244631 159.517445900527  L 1928.51376881791 159.948316697024  C 1929.94649933719 162.9490202883  1931.30421468543 165.984968599766  1932.58565002046 169.053333354112  L 1933.50841166185 168.6679621653  Z M 1938.17852225185 180.825620311439  C 1937.574404251 179.145917521397  1936.95773889865 177.470753981755  1936.32857787832 175.800270090086  C 1935.78474506582 174.344299207265  1935.22405260122 172.8946814643  1934.64661349516 171.451709039627  L 1933.71819231114 171.823238453067  C 1934.29292919416 173.259458246541  1934.8509928958 174.702294191794  1935.39227086907 176.151455306208  C 1936.01984232451 177.817699427645  1936.63494663559 179.488612562473  1937.23753222327 181.164054597705  L 1938.17852225185 180.825620311439  Z M 1942.36077111758 193.152944964922  C 1941.34593884246 189.972901934642  1940.28670431289 186.807199957881  1939.18337795213 183.656766787235  L 1938.23958264083 183.987297285648  C 1939.33982881568 187.128935307184  1940.3961062517 190.285799508478  1941.40810539223 193.456964727007  L 1942.36077111758 193.152944964922  Z M 1946.09234271159 205.624092150567  C 1945.19372800805 202.409274918485  1944.25021928591 199.207175906047  1943.26209305339 196.018733532457  L 1942.30691108332 196.314752795428  C 1943.29227873723 199.494293908591  1944.23315344066 202.687453534984  1945.12925945734 205.893295875235  L 1946.09234271159 205.624092150567  Z M 1949.36830881681 218.222591456625  C 1948.58709846855 214.977245771975  1947.76056162823 211.742978676356  1946.88894052385 208.520738016269  L 1945.92363338604 208.781855096675  C 1946.7928211623 211.995100140746  1947.61705053747 215.220338045817  1948.39607995976 218.456623611533  L 1949.36830881681 218.222591456625  Z M 1952.18429280321 230.930761507822  C 1952.17905131086 230.905160037859  1952.17380820377 230.879558902245  1952.1685634805 230.853958093972  C 1951.51032672254 227.608466474495  1950.8071147703 224.372258991118  1950.05913045362 221.146269074266  L 1949.08497301122 221.372139119641  C 1949.83094322802 224.589442402646  1950.53225720156 227.816936735828  1951.18871260926 231.053691017032  C 1951.19401477968 231.07957203033  1951.19931529656 231.105453382969  1951.20461415962 231.131335073615  L 1952.18429280321 230.930761507822  Z M 1954.6601877193 243.703237246005  C 1954.05965829788 240.421697392597  1953.43270461407 237.145048258194  1952.77938768942 233.87360875983  L 1951.79875108127 234.069445024985  C 1952.4510163174 237.335618265516  1953.07696075137 240.606992755747  1953.67652345989 243.883250092096  L 1954.6601877193 243.703237246005  Z M 1956.86805452639 256.524762751192  C 1956.33637982516 253.231366114333  1955.77818423383 249.942305738901  1955.19352208168 246.657901749828  L 1954.20899927781 246.833158272249  C 1954.79272025967 250.112275133655  1955.35001728573 253.39604088573  1955.88083611416 256.684135918847  L 1956.86805452639 256.524762751192  Z M 1958.80692479154 269.389714139086  C 1958.3443380181 266.085905295867  1957.85514535963 262.785876354399  1957.33939442937 259.489948507278  L 1956.35141726937 259.644548414491  C 1956.86633796041 262.93517058321  1957.3547431323 266.229887244477  1957.81658524847 269.528377722719  L 1958.80692479154 269.389714139086  Z M 1960.47594807134 282.292448477568  C 1960.08265212934 278.979676572109  1959.66267697751 275.670126550843  1959.2160634921 272.364120532965  L 1958.22506533074 272.49799601307  C 1958.67095987215 275.798680129032  1959.09025896153 279.10290254337  1959.4829217884 282.410341655405  L 1960.47594807134 282.292448477568  Z M 1961.8743922849 295.227306261849  C 1961.55055968509 291.907024369781  1961.19998625288 288.589404931049  1960.82270610966 285.274770850336  L 1959.8291216268 285.387863181757  C 1960.20579443661 288.697161471391  1960.55580352701 292.009440313276  1960.87911483154 295.324377322599  L 1961.8743922849 295.227306261849  Z M 1963.03963181526 308.181853643109  C 1962.78150374638 305.092014661791  1962.50930879004 302.003366966852  1962.22305541019 298.916006600302  C 1962.20170806339 298.682737763752  1962.18022877762 298.449481020899  1962.15861756306 298.216236482429  L 1961.16288257302 298.308496059664  C 1961.18447735193 298.541563212335  1961.20594019037 298.77464257164  1961.22727107791 299.007734024438  C 1961.51326440256 302.092269959689  1961.78521126244 305.178092135556  1962.04310320022 308.265104585486  L 1963.03963181526 308.181853643109  Z M 1964.03987998537 321.14961306359  C 1963.80457770601 317.822952011003  1963.55298544563 314.497463231125  1963.28511225495 311.173266354407  L 1962.28834332372 311.253588815406  C 1962.55595427655 314.574531427521  1962.8073002375 317.896764677916  1963.04237216471 321.220169053564  L 1964.03987998537 321.14961306359  Z M 1964.87493633445 334.129056876139  C 1964.68200951836 330.799669520257  1964.47277911587 327.471246931638  1964.24725265378 324.143908845904  L 1963.24954182301 324.211533532081  C 1963.47484750312 327.535614277993  1963.68387307686 330.860778465226  1963.87661102479 334.186906475128  L 1964.87493633445 334.129056876139  Z M 1965.54466548261 347.118080844759  C 1965.39414540721 343.786506948118  1965.22731078318 340.455690156702  1965.04416761218 337.12575029226  L 1964.04567663142 337.180666240258  C 1964.22864051209 340.507346217864  1964.39531181125 343.834902263997  1964.54568453312 347.163214674146  L 1965.54466548261 347.118080844759  Z M 1966.04895885292 360.114579180308  C 1965.94086992062 356.781358859868  1965.81645812239 353.448687859872  1965.67572793378 350.116686068772  L 1964.67661867904 350.15888437558  C 1964.81721109805 353.487624261264  1964.94150110178 356.817032700838  1965.04948421905 360.146989922968  L 1966.04895885292 360.114579180308  Z M 1966.38773468901 373.116444881896  C 1966.32209442326 369.782118521568  1966.24012562055 366.448133607752  1966.14183122959 363.114610076355  L 1965.14226567713 363.144083900755  C 1965.24046384155 366.474344037042  1965.32235239986 369.8050651041  1965.38792840624 373.136127283378  L 1966.38773468901 373.116444881896  Z M 1210.71947474423 638.781284890902  C 1208.67844944825 641.417093006339  1206.63998156718 644.054880454119  1204.60407398077 646.694643507848  L 1205.39592601923 647.305356492152  C 1207.43143864671 644.666105543192  1209.46951107214 642.028829816948  1211.51014041637 639.393533039035  L 1210.71947474423 638.781284890902  Z M 1959.60561727263 374.100689062621  L 1966 380  L 1972.20403196102 373.900820757955  L 1959.60561727263 374.100689062621  Z " fill-rule="nonzero" fill="#00bfbf" stroke="none" />
  </g>
</svg>