<?xml version="1.0" encoding="utf-8"?>
<svg version="1.1" xmlns:xlink="http://www.w3.org/1999/xlink" width="418px" height="16px" viewBox="698 610  418 16" xmlns="http://www.w3.org/2000/svg">
  <g transform="matrix(0.992546151641322 0.121869343405147 -0.121869343405145 0.992546151641324 82.0758946857 -105.929016182807 )">
    <path d="M 728.89192176715 637.763116384702  C 725.571579854028 638.042986971236  722.25022397779 638.310694996443  718.927920976183 638.566235073063  L 719.004611003164 639.563290056383  C 722.329348654963 639.307562714875  725.653138487236 639.039658507871  728.975913613425 638.759582826565  L 728.89192176715 637.763116384702  Z M 741.835847818487 636.609979992491  C 738.518321681578 636.921457593889  735.199665803133 637.22078284147  731.879946966563 637.507949711722  L 731.966128497535 638.504229162338  C 735.288280090568 638.216851850451  738.609367946436 637.91730725134  741.929325232954 637.605601392916  L 741.835847818487 636.609979992491  Z M 754.768205577886 635.333630532338  C 751.453796083965 635.676686900666  748.138141172542 636.007602224785  744.821307566639 636.326369845475  L 744.916972785789 637.321783410706  C 748.236237033801 637.002782190717  751.554321723477 636.671624365229  754.87116008307 636.328316598322  L 754.768205577886 635.333630532338  Z M 767.699645998645 634.00140052525  C 764.384369785116 634.34530221029  761.068817460315 634.686536904951  757.752992242536 635.025104278012  L 757.854570620329 636.019931817421  C 761.170929356103 635.681309968694  764.4870151555 635.340020369141  767.802824798688 634.996063350142  L 767.699645998645 634.00140052525  Z M 780.627810504422 632.64666365106  C 777.313260827572 632.997498608574  773.998429456018 633.345667159666  770.683319619204 633.691168965136  L 770.786978494032 634.685781873593  C 774.102621735712 634.340224476498  777.417986461908 633.991999905267  780.733069453494 633.641108498017  L 780.627810504422 632.64666365106  Z M 793.553113249726 631.264889997746  C 790.239304605215 631.622656693414  786.925208695651 631.97775757703  783.610828737914 632.330192303911  L 783.716567656318 633.324586230448  C 787.031480899507 632.972094796638  790.346110049329 632.61693677705  793.660451887367 632.259112516536  L 793.553113249726 631.264889997746  Z M 806.475497692375 629.856085609924  C 803.162444580523 630.220782478256  799.849098622676 630.582814141843  796.535463046835 630.942180247976  L 796.643281546257 631.936350842584  C 799.957450287779 631.576926914257  803.271329365216 631.214836999533  806.584915549029 630.850081451286  L 806.475497692375 629.856085609924  Z M 819.394907302952 628.420256650458  C 816.082624212875 628.791882096511  812.770042708993 629.160842955484  809.457166006709 629.52713886924  L 809.567063615493 630.521081782884  C 812.880473361353 630.154726931926  816.193587861825 629.785706706903  819.506403899967 629.414021466123  L 819.394907302952 628.420256650458  Z M 832.31128556506 626.957409400429  C 828.999786988428 627.335961798297  825.687984425558 627.711850239057  822.375881091102 628.085074357847  L 822.487857328496 629.078785242491  C 825.800493582094 628.705501071747  829.112829016222 628.329552150284  832.424860414689 627.95093884314  L 832.31128556506 626.957409400429  Z M 845.225534559161 625.471309645012  C 843.62195328643 625.656329820301  842.018345594923 625.84112079835  840.414711499127 626.025682577488  C 838.707073306898 626.223161227358  836.999353253509 626.419931392778  835.291551786652 626.61599302216  L 835.405606162813 627.60946753078  C 837.113591789302 627.413384759223  838.821495995065 627.216593413145  840.529318338014 627.019093543485  C 842.132956477908 626.834531272668  843.736568191849 626.649739817972  845.340153511525 626.464719175749  L 845.225534559161 625.471309645012  Z M 858.138904377228 623.97635267583  C 854.827931116148 624.360945342307  851.516844431098 624.744560825565  848.205644735714 625.127199077683  L 848.320439598368 626.120588296221  C 851.631834724667 625.737927460342  854.94311690286 625.354289327663  858.254285581491 624.969673962073  L 858.138904377228 623.97635267583  Z M 871.051123249051 622.471487165516  C 867.740446092944 622.858620368387  864.429654715702 623.244776480896  861.118749625654 623.629955443746  L 861.234306724569 624.623256282812  C 864.545407259721 624.238054582572  867.856394049518 623.851875678004  871.167266637274 623.464719622382  L 871.051123249051 622.471487165516  Z M 883.962183571716 620.956714000167  C 880.651804438384 621.346387515175  877.341310381547 621.735084022188  874.030701814768 622.122803472644  L 874.147021081902 623.116015347369  C 877.457825060493 622.728273011404  880.768514543911 622.339553558683  884.079089075512 621.949857042826  L 883.962183571716 620.956714000167  Z M 896.872077742994 619.432034071696  C 893.561998613211 619.824247665679  890.2518037629 620.215484345742  886.9414937003 620.605744051812  L 887.058575067162 621.598866377376  C 890.369080539741 621.208583633996  893.679470767398 620.817323862003  896.989745293528 620.42508711537  L 896.872077742994 619.432034071696  Z M 909.780798161351 617.897448277863  C 906.471020968355 618.292201721737  903.161127305238 618.685978340772  899.851117680191 619.078778074513  L 899.968961077841 620.071810266151  C 903.279166095133 619.67898734516  906.589255117819 619.285187484282  909.899227689339 618.890410737828  L 909.780798161351 617.897448277863  Z M 922.688337225937 616.35295752225  C 919.378863918574 616.750250583579  916.069273391564 617.146566909733  912.759566153054 617.541906439859  L 912.878171512105 618.534847912859  C 916.18807412501 618.139485045557  919.497859993696 617.743145327659  922.807528661644 617.345828813835  L 922.688337225937 616.35295752225  Z M 935.594687336593 614.798562714281  C 932.28551984775 615.19839516104  928.976234437148 615.597250957147  925.666831518197 615.995130052773  L 925.786198768812 616.987980222477  C 929.09579702841 616.59007764166  932.405277794245 616.191198300116  935.714640609839 615.791342252869  L 935.594687336593 614.798562714281  Z M 948.499840893874 613.234264769206  C 945.190981187821 613.636636364071  941.882002810617 614.038031399059  938.572906175636 614.438449824023  L 938.69303524753 615.431208105825  C 942.00232720508 615.030766045783  945.311500919391 614.629347315462  948.620555934028 614.226951970232  L 948.499840893874 613.234264769206  Z M 961.404073728258 611.660958288908  L 957.341926113784 612.15667010969  C 955.387253166643 612.395409779701  953.432538606294 612.633808636999  951.477782526076 612.871866670207  L 951.598673348516 613.864532479555  C 953.553527532836 613.626462498837  955.508340226909 613.388051676112  957.463111274716 613.149300030403  L 961.525207071177 612.653594533074  L 961.404073728258 611.660958288908  Z M 974.30803231804 610.086249942038  L 974.287383463083 610.088782895315  L 964.381982460758 611.297558260152  L 964.503115803677 612.290194504318  L 974.408983313739 611.081362111732  L 974.429787663334 611.078810084242  L 974.30803231804 610.086249942038  Z M 987.211314166701 608.503430453259  L 977.285712744655 609.720983906166  L 977.407468089946 610.713544048371  L 987.333069511992 609.495990595464  L 987.211314166701 608.503430453259  Z M 1000.1136957201 606.9157085747  L 991.750483915974 607.94661976795  L 990.188994593315 608.138164417387  L 990.310749938605 609.130724559592  L 991.872678809879 608.939125903798  L 1000.23603712323 607.90819665074  L 1000.1136957201 606.9157085747  Z M 1013.01553797321 605.323473955063  L 1009.73125183008 605.730177725631  L 1003.09115994822 606.548684365322  L 1003.21350135135 607.541172441362  L 1009.85400809369 606.72261458466  L 1013.13843251733 606.315893690369  L 1013.01553797321 605.323473955063  Z M 1025.91699453218 603.725844881441  L 1015.99279717912 604.954790322689  L 1016.11569172325 605.947210057995  L 1026.03988907631 604.718264616747  L 1025.91699453218 603.725844881441  Z M 1038.81749724211 602.122669010373  L 1028.89394883813 603.356843663287  L 1029.01736630342 604.349198503685  L 1038.9409147074 603.115023850771  L 1038.81749724211 602.122669010373  Z M 1051.71758455129 600.516041576695  L 1047.24578479132 601.074457441798  L 1041.7945617633 601.752416614498  L 1041.91797922859 602.744771454896  L 1047.36957359404 602.066766036883  L 1051.84149712816 601.508334715486  L 1051.71758455129 600.516041576695  Z M 1064.61739535557 598.905178077298  L 1054.69446396766 600.144303846065  L 1054.81837654453 601.136596984856  L 1064.74130793245 599.897471216089  L 1064.61739535557 598.905178077298  Z M 1077.51633584697 597.28926397661  L 1067.59399182828 598.533084371564  L 1067.71837386778 599.525318773432  L 1077.64071788646 598.281498378478  L 1077.51633584697 597.28926397661  Z M 1090.41495798122 595.670715275686  L 1086.83097317075 596.121623009059  L 1080.49303905257 596.916117858123  L 1080.61742109207 597.908352259992  L 1086.95568953067 597.113815451171  L 1090.53978577685 596.662893697866  L 1090.41495798122 595.670715275686  Z M 1103.31327746956 594.047953932552  L 1093.39149324776 595.296231888809  L 1093.51632104339 596.288410310989  L 1103.43810526518 595.040132354732  L 1103.31327746956 594.047953932552  Z M 1116.21091072482 592.421455610474  L 1107.40006076894 593.533788240735  L 1106.2898127361 593.673470545675  L 1106.41464053172 594.665648967855  L 1107.52520641786 594.525926627231  L 1116.33616232127 593.413580621541  L 1116.21091072482 592.421455610474  Z M 1129.10830219607 590.792957632848  L 1128.48680955613 590.87167522185  L 1119.18728575802 592.045700821106  L 1119.31253735448 593.037825832173  L 1128.61236372654 591.863761992566  L 1129.23395722093 591.785031629446  L 1129.10830219607 590.792957632848  Z M 1142.00526415185 589.159442309623  L 1132.08452418586 590.415992558258  L 1132.21017921073 591.408066554856  L 1142.13091917671 590.151516306221  L 1142.00526415185 589.159442309623  Z M 1154.90179734111 587.524086884169  L 1150.09121881518 588.135284030908  L 1144.98148614164 588.782477235032  L 1145.10714116651 589.774551231631  L 1150.2171622103 589.127321464987  L 1155.02783685627 588.516112105934  L 1154.90179734111 587.524086884169  Z M 1167.79812522406 585.885573187116  L 1157.8778730064 587.145968338695  L 1158.00391252156 588.13799356046  L 1167.92416473922 586.877598408881  L 1167.79812522406 585.885573187116  Z M 1180.69387061456 584.243946528013  L 1172.2132878947 585.324614739739  L 1170.77420088936 585.507454641642  L 1170.90024040451 586.499479863408  L 1172.33960255311 586.316604969337  L 1180.82027698467 585.235925070923  L 1180.69387061456 584.243946528013  Z M 1193.5895916724 582.600663716578  L 1183.6698062433 583.864727417681  L 1183.79621261341 584.856705960592  L 1193.71599804251 583.592642259489  L 1193.5895916724 582.600663716578  Z M 1206.4846131963 580.953294342657  L 1196.56527491285 582.220862099583  L 1196.69203168854 583.212795927928  L 1206.611369972 581.945228171003  L 1206.4846131963 580.953294342657  Z M 1219.37952626988 579.305015235652  L 1218.01040319521 579.480442114716  L 1209.46041468134 580.573024015579  L 1209.58717145703 581.564957843925  L 1218.13741125121 580.472343803817  L 1219.50661808376 580.296906192786  L 1219.37952626988 579.305015235652  Z M 1232.27410871263 577.652821655236  L 1222.35519914128 578.923739794017  L 1222.48229095516 579.915630751152  L 1232.40120052651 578.644712612371  L 1232.27410871263 577.652821655236  Z M 1245.16838636306 575.999522628532  L 1241.68544838064 576.446938896956  L 1235.24978158403 577.271546213602  L 1235.37687339791 578.263437170736  L 1241.81278069114 577.438799012715  L 1245.29579883686 576.99137244656  L 1245.16838636306 575.999522628532  Z M 1258.06243399742 574.343160469184  L 1248.14393581715 575.617285207144  L 1248.27134829094 576.609135025172  L 1258.18984647122 575.335010287211  L 1258.06243399742 574.343160469184  Z M 1270.95612575298 572.68524529287  L 1265.87815130499 573.339157812162  L 1261.0379834515 573.960923047795  L 1261.1653959253 574.952772865823  L 1266.00579417103 574.330978009952  L 1271.08384541446 573.677055601382  L 1270.95612575298 572.68524529287  Z M 1283.84965976364 571.024889693636  L 1273.93155667851 572.302086308431  L 1274.05927633999 573.293896616944  L 1283.97737942512 572.016700002148  L 1283.84965976364 571.024889693636  Z M 1296.74281085537 569.362725313425  L 1290.58851155251 570.157098907638  L 1286.82509068918 570.641730709198  L 1286.95281035066 571.63354101771  L 1290.71645212572 571.148880746169  L 1296.87082506379 570.354497647403  L 1296.74281085537 569.362725313425  Z M 1309.63585119709 567.698540604075  L 1299.71812785731 568.97868268819  L 1299.84614206572 569.970455022168  L 1309.7638654055 568.690312938053  L 1309.63585119709 567.698540604075  Z M 1322.52850299217 566.032461070139  L 1315.81652874098 566.900762227111  L 1312.61116819903 567.314497978841  L 1312.73918240744 568.306270312819  L 1315.94475495363 567.892507175909  L 1322.6567998712 567.024196877111  L 1322.52850299217 566.032461070139  Z M 1335.42106848279 564.364601642657  L 1325.50371041308 565.647570433028  L 1325.63200729212 566.639306239999  L 1335.54936536183 565.356337449628  L 1335.42106848279 564.364601642657  Z M 1348.31325886765 562.694911555548  L 1341.5622025184 563.570147811061  L 1338.39627590371 563.979711005546  L 1338.52457278275 564.971446812517  L 1341.69070302217 564.561857257024  L 1348.44182724504 563.686612202082  L 1348.31325886765 562.694911555548  Z M 1361.2053672726 561.023522649534  L 1351.28836080725 562.309206423391  L 1351.41692918464 563.300907069925  L 1361.33393564998 562.015223296068  L 1361.2053672726 561.023522649534  Z M 1374.09713099256 559.350500190328  L 1367.82553256001 560.165255697013  L 1364.1804692122 560.637817517377  L 1364.30903758958 561.629518163911  L 1367.95429667043 561.156930950409  L 1374.22596034548 560.342166967944  L 1374.09713099256 559.350500190328  Z M 1386.98879910156 557.675718602329  L 1377.0721313254 558.964012131559  L 1377.20096067833 559.955678909175  L 1387.11762845448 558.667385379945  L 1386.98879910156 557.675718602329  Z M 1399.88016806242 555.999618203766  L 1394.60651856579 556.686085919804  L 1389.9637994344 557.28923054356  L 1390.09262878732 558.280897321176  L 1394.73553620933 557.677728220062  L 1400.00924846816 556.991252334307  L 1399.88016806242 555.999618203766  Z M 1412.77141175946 554.32157292919  L 1402.85507045405 555.612376986556  L 1402.98415085979 556.604011117097  L 1412.9004921652 555.313207059732  L 1412.77141175946 554.32157292919  Z M 1425.66241529591 552.642627635914  L 1421.90516025807 553.132638511815  L 1415.74631415109 553.93433171198  L 1415.87539455683 554.925965842522  L 1422.03442192891 554.124249032213  L 1425.79173738705 553.634230276463  L 1425.66241529591 552.642627635914  Z M 1438.55324962305 550.961440451092  L 1428.63722321756 552.254661362494  L 1428.7665453087 553.246264003042  L 1438.68257171419 551.953043091641  L 1438.55324962305 550.961440451092  Z M 1451.44391473793 549.279864009956  L 1449.72145737953 549.504913503188  L 1441.52805754469 550.573474177672  L 1441.65737963583 551.565076818221  L 1449.85095409605 550.496493355674  L 1451.57346966171 550.271436257312  L 1451.44391473793 549.279864009956  Z M 1464.33435395356 547.595650000908  L 1454.41863148 548.891199238637  L 1454.54818640377 549.882771485993  L 1464.46390887733 548.587222248264  L 1464.33435395356 547.595650000908  Z M 1477.22479316918 545.91143599186  L 1467.30907069563 547.206985229589  L 1467.4386256194 548.198557476945  L 1477.35434809296 546.903008239216  L 1477.22479316918 545.91143599186  Z M 1490.11476316393 544.224506759919  L 1480.19933421607 545.522300572483  L 1480.32911359733 546.513843467269  L 1490.24454254519 545.216049654705  L 1490.11476316393 544.224506759919  Z M 1503.00482079615 542.537374803586  L 1493.08939184829 543.83516861615  L 1493.21917122955 544.826711510936  L 1503.13460017741 543.528917698372  L 1503.00482079615 542.537374803586  Z M 1515.89451305901 540.848294346709  L 1506.90701697164 542.026630794489  L 1505.97944948051 542.148036659817  L 1506.10922886177 543.139579554603  L 1507.03695874822 543.018152421928  L 1516.02450896647 541.839808877133  L 1515.89451305901 540.848294346709  Z M 1528.78420195453 539.158347549683  L 1518.86905665028 540.458306624318  L 1518.99905255775 541.449821154743  L 1528.91419786199 540.149862080107  L 1528.78420195453 539.158347549683  Z M 1541.67363705196 537.467276688518  L 1536.27627901382 538.176073145107  L 1531.7587455458 538.768359827292  L 1531.88874145326 539.759874357717  L 1536.40643167794 539.16756711221  L 1541.80384196741 538.458763793826  L 1541.67363705196 537.467276688518  Z M 1554.56296942097 535.774612787697  L 1544.64809836788 537.076661942174  L 1544.77830328333 538.068149047483  L 1554.69317433642 536.766099893006  L 1554.56296942097 535.774612787697  Z M 1567.45216635959 534.081699701036  L 1566.16319562549 534.251237996757  L 1557.5374307369 535.383998041354  L 1557.66763565234 536.375485146662  L 1566.29355194749 535.242705208471  L 1567.58257314966 535.073160274687  L 1567.45216635959 534.081699701036  Z M 1580.34115381704 532.386411430103  L 1570.42654808054 533.690479330821  L 1570.55695487061 534.681939904471  L 1580.47156060712 533.377872003753  L 1580.34115381704 532.386411430103  Z M 1593.2301412745 530.691123159169  L 1583.31553553799 531.995191059887  L 1583.44594232807 532.986651633537  L 1593.36054806457 531.682583732819  L 1593.2301412745 530.691123159169  Z M 1606.11878378249 528.993968224291  L 1596.56776662711 530.252125370873  L 1596.20452299545 530.299902788953  L 1596.33492978552 531.291363362604  L 1596.69836851748 531.243560263456  L 1606.24938567286 529.985403116875  L 1606.11878378249 528.993968224291  Z M 1619.00743738607 527.296143649448  L 1609.09308846024 528.602162553174  L 1609.22369035061 529.593597445757  L 1619.13803927644 528.287578542031  L 1619.00743738607 527.296143649448  Z M 1631.89588613211 525.597493086063  L 1627.48999185102 526.178735287541  L 1621.98174206382 526.90433797833  L 1622.11234395419 527.895772870913  L 1627.62078240271 527.170145309474  L 1632.0266766838 526.588903107995  L 1631.89588613211 525.597493086063  Z M 1644.78421641723 523.897215914078  L 1634.8701161979 525.205121430989  L 1635.00090674959 526.196531452922  L 1644.91500696892 524.888625936011  L 1644.78421641723 523.897215914078  Z M 1657.67254670235 522.196938742094  L 1647.75844648303 523.504844259005  L 1647.88923703472 524.496254280937  L 1657.80333725404 523.188348764026  L 1657.67254670235 522.196938742094  Z M 1670.56050301018 520.494532164506  L 1660.64664377008 521.804263040465  L 1660.77761685767 522.795648964476  L 1670.69147609778 521.485918088516  L 1670.56050301018 520.494532164506  Z M 1683.44852002231 518.791882025759  L 1673.53466078221 520.101612901718  L 1673.66563386981 521.092998825729  L 1683.57949310991 519.78326794977  L 1683.44852002231 518.791882025759  Z M 1696.33632028352 517.08827233295  L 1690.88740434859 517.809122822766  L 1686.42267779434 518.398962762971  L 1686.55365088194 519.390348686982  L 1691.01855414021 518.800485386189  L 1696.46747007514 518.079634896373  L 1696.33632028352 517.08827233295  Z M 1709.22403360803 515.38332504187  L 1699.31040797379 516.694822958085  L 1699.44155776541 517.686185521509  L 1709.35518339965 516.374687605294  L 1709.22403360803 515.38332504187  Z M 1722.11174693253 513.678377750791  L 1712.1981212983 514.989875667006  L 1712.32927108992 515.981238230429  L 1722.24289672416 514.669740314215  L 1722.11174693253 513.678377750791  Z M 1734.99910873733 511.971432832608  L 1725.08570966829 513.28464222104  L 1725.21703060713 514.275982127944  L 1735.13042967618 512.962772739513  L 1734.99910873733 511.971432832608  Z M 1747.88652752709 510.264260627648  L 1737.97312845805 511.577470016079  L 1738.10444939689 512.568809922983  L 1748.01784846593 511.255600534552  L 1747.88652752709 510.264260627648  Z M 1760.77376541038 508.55636022304  L 1756.35543197948 509.142400739916  L 1750.8605472478 509.870297811118  L 1750.99186818665 510.861637718023  L 1756.48691876679 510.133718663069  L 1760.90525219769 509.547678146193  L 1760.77376541038 508.55636022304  Z M 1773.66089841137 506.84703198807  L 1763.74771917984 508.161899861124  L 1763.87920596715 509.153217784277  L 1773.79238519868 507.838349911223  L 1773.66089841137 506.84703198807  Z M 1786.54803141236 505.137703753101  L 1776.63485218083 506.452571626154  L 1776.76633896813 507.443889549307  L 1786.67951819966 506.129021676254  L 1786.54803141236 505.137703753101  Z M 1799.43487801861 503.426834068568  L 1789.86592615204 504.697623630295  L 1789.52198518182 504.743243391185  L 1789.65347196912 505.734561314338  L 1789.99757373136 505.688920212988  L 1799.56652559793 504.418130651261  L 1799.43487801861 503.426834068568  Z M 1812.32173359363 501.71541553741  L 1802.40876776669 503.031891330608  L 1802.54041534601 504.023187913301  L 1812.45338117295 502.706712120103  L 1812.32173359363 501.71541553741  Z M 1825.20848370615 500.003800564789  L 1823.89407374174 500.17856916068  L 1815.29562334171 501.32047279945  L 1815.42727092103 502.311769382143  L 1824.02587728438 501.169845018424  L 1825.34028724879 500.995076422533  L 1825.20848370615 500.003800564789  Z M 1838.09506985682 498.290354510386  L 1828.18231127938 499.60838993685  L 1828.31411482203 500.599665794594  L 1838.22687339946 499.28163036813  L 1838.09506985682 498.290354510386  Z M 1850.98165600749 496.576908455983  L 1841.06889743005 497.894943882447  L 1841.2007009727 498.886219740191  L 1851.11345955014 497.568184313727  L 1850.98165600749 496.576908455983  Z M 1863.86805621957 494.862643672742  L 1858.43987464144 495.585237344175  L 1853.95548358072 496.181497828044  L 1854.08728712337 497.172773685788  L 1858.571829533 496.576493066273  L 1864.00001111114 495.853899394839  L 1863.86805621957 494.862643672742  Z M 1876.75438060684 493.147230082345  L 1866.84182338587 494.466778998035  L 1866.97377827743 495.458034720133  L 1876.88633549841 494.138485804443  L 1876.75438060684 493.147230082345  Z M 1889.64070499411 491.431816491949  L 1879.72814777313 492.751365407639  L 1879.8601026647 493.742621129736  L 1889.77265988568 492.423072214046  L 1889.64070499411 491.431816491949  Z M 1902.52677775315 489.715075092326  L 1893.50332875024 490.917628193151  L 1892.6144721604 491.035951817242  L 1892.74642705197 492.02720753934  L 1893.63543057812 491.908864344162  L 1902.65887958103 490.706311243337  L 1902.52677775315 489.715075092326  Z M 1915.4128477163 487.997751329912  L 1905.50048620619 489.318769608692  L 1905.63258803406 490.310005759703  L 1915.54494954418 488.988987480923  L 1915.4128477163 487.997751329912  Z M 1928.29891767944 486.280427567498  L 1918.38655616933 487.601445846278  L 1918.51865799721 488.592681997289  L 1928.43101950732 487.271663718509  L 1928.29891767944 486.280427567498  Z M 1941.18468397874 484.56137114527  L 1931.27251276768 485.883816562945  L 1931.40475730945 486.875033684051  L 1941.31692852051 485.552588266375  L 1941.18468397874 484.56137114527  Z M 1954.07050655311 482.842192102291  L 1944.15833534206 484.164637519967  L 1944.29057988382 485.155854641072  L 1954.20275109488 483.833409223397  L 1954.07050655311 482.842192102291  Z M 1966.95622668034 481.122774263826  L 1965.18319622016 481.35957793367  L 1957.04415791643 482.445458476989  L 1957.1764024582 483.436675598094  L 1965.31557943282 482.350776543942  L 1967.088609893 482.113972874099  L 1966.95622668034 481.122774263826  Z M 1979.84180861389 479.401792499289  L 1969.92982251116 480.725624625856  L 1970.06220572381 481.716823236129  L 1979.97419182654 480.392991109562  L 1979.84180861389 479.401792499289  Z M 1992.72739054743 477.680810734752  L 1982.8154044447 479.004642861319  L 1982.94778765736 479.995841471592  L 1992.85977376009 478.672009345025  L 1992.72739054743 477.680810734752  Z M 2005.61283578474 475.959319390373  L 2001.79960940688 476.469136846727  L 1995.70098637825 477.283661096782  L 1995.83336959091 478.274859707055  L 2001.93212741682 477.460317444318  L 2005.74535379468 476.950499987964  L 2005.61283578474 475.959319390373  Z M 2018.49818355342 474.23658526113  L 2008.58637757751 475.561765360547  L 2008.71889558745 476.552945958139  L 2018.63070156337 475.227765858721  L 2018.49818355342 474.23658526113  Z M 2031.38353132211 472.513851131888  L 2021.4717253462 473.839031231305  L 2021.60424335614 474.830211828896  L 2031.51604933205 473.505031729479  L 2031.38353132211 472.513851131888  Z M 715.93760130981 638.792935130918  C 712.614744742611 639.041173321096  709.290990082674 639.277239845461  705.966404216018 639.501129953496  L 706.033595783982 640.498870046504  C 709.360617973759 640.274815867313  712.686808347608 640.038576348676  716.012099970663 639.790156244579  L 715.93760130981 638.792935130918  Z M 2033.88824860906 479.039886200587  L 2039 472  L 2032.21769012906 466.551121875607  L 2033.88824860906 479.039886200587  Z " fill-rule="nonzero" fill="#ff0000" stroke="none" />
  </g>
</svg>