<?xml version="1.0" encoding="utf-8"?>
<svg version="1.1" xmlns:xlink="http://www.w3.org/1999/xlink" width="1022px" height="76px" viewBox="186 208  1022 76" xmlns="http://www.w3.org/2000/svg">
  <g transform="matrix(-0.965925826289068 -0.258819045102521 0.258819045102523 -0.965925826289068 1306.58081582826 664.014627703568 )">
    <path d="M 1141.62762687908 147.625175459417  C 1148.22181496615 146.649118211675  1154.81692912607 145.679327759281  1161.41296043062 144.715805415099  L 1161.12387627698 142.736808105319  C 1154.52659119057 143.70051359703  1147.93022341582 144.670488389477  1141.33478189726 145.646731167398  L 1141.62762687908 147.625175459417  Z M 1115.91502419559 151.463566077322  C 1122.50678048665 150.471218733272  1129.09947833777 149.485135876392  1135.69310881223 148.505318843369  L 1135.39913578763 146.527041850427  C 1128.80425198373 147.507045128878  1122.21030098493 148.493315421533  1115.61729172069 149.485851392796  L 1115.91502419559 151.463566077322  Z M 1090.21198398593 155.365476285901  C 1096.80126824238 154.35684490321  1103.39150952858 153.354475663037  1109.9826989229 152.358369922352  L 1109.68383882202 150.380825323588  C 1103.09139656424 151.377120405591  1096.49990259339 152.379680177872  1089.9093658356 153.388503282774  L 1090.21198398593 155.365476285901  Z M 1064.51866316664 159.330882264077  C 1071.10543515711 158.305973001021  1077.69317965295 157.287323495803  1084.28188772413 156.274935129254  L 1083.97814237152 154.298134997535  C 1077.38818190656 155.31071580073  1070.79918520459 156.32955893203  1064.21116118836 157.354663011729  L 1064.51866316664 159.330882264077  Z M 1038.83521859489 163.35975980313  C 1045.41943811121 162.318578916146  1052.00464559079 161.283655365933  1058.59083211883 160.254990553527  L 1058.28220336884 158.278946957176  C 1051.69476493025 159.307807299473  1045.10830571892 160.342927570391  1038.52283466595 161.384306366337  L 1038.83521859489 163.35975980313  Z M 1013.16180706757 167.452084306849  C 1019.74343391124 166.394638152631  1026.32606417595 165.343446874998  1032.90968895036 164.298511897013  L 1032.59617868716 162.323236899735  C 1026.01130248718 163.368370500575  1019.42742098454 164.419761590495  1012.84454309507 165.477408745712  L 1013.16180706757 167.452084306849  Z M 987.498585320319 171.607830791677  C 994.077579308696 170.53412582623  1000.65759217562 169.466673238042  1007.23861500155 168.405474474101  L 1006.92022513912 166.430980134908  C 1000.33795138025 167.492380613466  993.756687776827 168.560036104283  987.176443241144 169.633945161549  L 987.498585320319 171.607830791677  Z M 961.847050893263 175.831197358202  C 968.061629317907 174.797153543577  974.277548388771 173.771183170054  980.494792370547 172.753288834829  C 980.855780831929 172.694124800857  981.21677236359 172.634979594746  981.577766993764 172.575853211872  L 981.254499475872 170.60215158501  C 980.893491769036 170.661280109677  980.532487152004 170.720427456735  980.171485613236 170.779593628071  C 973.952587901971 171.797758861973  967.735015442121 172.824002210214  961.518783973385 173.858321074875  L 961.847050893263 175.831197358202  Z M 936.210862938721 180.143891910337  C 942.782262635124 179.026328526342  949.355195270084 177.917797769856  955.929642217117 176.818302782249  L 955.599748430313 174.845697882776  C 949.023493978098 175.945495153282  942.448754252532 177.054330677157  935.875547888725 178.172201311575  L 936.210862938721 180.143891910337  Z M 910.590250425576 184.548171827852  C 917.15761446266 183.407132174052  923.726543707306 182.275119612009  930.297019544377 181.152137349639  L 929.960078607653 179.180723946732  C 923.387796356195 180.304014949499  916.817061123548 181.436338734425  910.247891527601 182.577692093123  L 910.590250425576 184.548171827852  Z M 884.985540541768 189.043980865907  C 891.548785051034 187.879479513943  898.113627016878 186.723999602705  904.680047835747 185.577544406613  L 904.336064052007 183.607347676201  C 897.767837933592 184.754118066081  891.201191103459 185.909915652053  884.636142167907 187.074737159215  L 884.985540541768 189.043980865907  Z M 859.397060272158 193.631261610784  C 865.956101437714 192.443313431918  872.516772288464 191.26438092754  879.079054232678 190.094467438527  L 878.728031994766 188.125512541002  C 872.163945888903 189.295747673166  865.601471320623 190.475004300073  859.040626884402 191.663279080351  L 859.397060272158 193.631261610784  Z M 833.825136394342 198.309955480634  C 840.379890453976 197.098575645553  846.93630640661 195.896205603587  853.49436567257 194.702848762031  L 853.136309463212 192.735160841922  C 846.57644719654 193.928845771889  840.018228696171 195.131546380038  833.461672544522 196.343259258572  L 833.825136394342 198.309955480634  Z M 808.270095474485 203.080002726213  C 814.820478720734 201.845206704839  821.372556046563 200.619414480148  827.926308884596 199.402629525806  L 827.56122327635 197.436233711467  C 821.005668621567 198.653353195286  814.451789940816 199.879482425594  807.899605804215 201.114617928209  L 808.270095474485 203.080002726213  Z M 782.733985420217 207.945735423107  C 787.970971579082 206.9344517999  793.209644557024 205.931923114306  798.449982397642 204.938153568136  C 799.758323563994 204.689659666908  801.066732944436 204.44152503827  802.375210385538 204.19374971132  L 802.003100040728 202.2286711146  C 800.694355186354 202.476497079344  799.38567839774 202.724682394616  798.077069836338 202.973227029798  C 792.83463458649 203.967394645165  787.593864835647 204.970324751657  782.354782550542 205.982013145485  L 782.733985420217 207.945735423107  Z M 757.224438102804 212.94362910148  C 763.761853891675 211.644358053458  770.301976632429 210.358744611131  776.844763516434 209.086797189531  L 776.463099701924 207.123551730427  C 769.917578765721 208.396030664164  763.374723087314 209.682181329037  756.834575490679 210.981995306995  L 757.224438102804 212.94362910148  Z M 731.742411501129 218.079996089062  C 738.272674290762 216.745238301617  744.805718169311 215.424123216478  751.341500374478 214.116659481058  L 750.949179443502 212.1555158639  C 744.410666113688 213.46352595266  737.874892254576 214.785193095702  731.341900646708 216.120508641924  L 731.742411501129 218.079996089062  Z M 706.288657283189 223.354684873467  C 712.811574444103 221.98447971924  719.337346748928 220.627901961501  725.865931482965 219.284960479784  L 725.462965008194 217.325976554324  C 718.931652157137 218.66947921456  712.403152910339 220.026623849085  705.877510000728 221.397401574574  L 706.288657283189 223.354684873467  Z M 680.863926283005 228.767539862094  C 687.379305402399 227.361927759354  693.897613636481 225.969927345301  700.418808319406 224.591547731331  L 700.005208187532 222.634781283613  C 693.481288475686 224.013736884729  686.960256418664 225.406318977727  680.442154700514 226.812518447326  L 680.863926283005 228.767539862094  Z M 655.468968478471 234.318401386723  C 661.976617365904 232.877423798168  668.487269252395 231.450041788986  675.000881522218 230.03626470216  L 674.576659933604 228.081773452818  C 668.060325802859 229.496141318531  661.546953293774 230.924119791449  655.036585037354 232.365699525237  L 655.468968478471 234.318401386723  Z M 630.106001211638 240.009297922972  C 633.739151414236 239.180480604914  637.373866881294 238.358539680397  641.010128086133 237.543479565114  C 643.877127619654 236.899329256356  646.744719763892 236.257819390513  649.612900868587 235.618950784186  L 649.178070336907 233.66679238674  C 646.308854755083 234.305891416091  643.440228312426 234.947632506527  640.572194660079 235.59201484125  C 636.933635417224 236.40759070881  633.296622821178 237.230051423604  629.661176407616 238.059392567903  L 630.106001211638 240.009297922972  Z M 604.791572088802 245.901480395119  C 611.275768324615 244.362113899405  617.76515595656 242.84469748895  624.259623485282 241.3492572357  L 623.810839947518 239.400259201778  C 617.311974846955 240.896712056279  610.818193082039 242.415155948811  604.329606229343 243.955564789371  L 604.791572088802 245.901480395119  Z M 579.529971575822 252.016190169331  C 586.000371041565 250.41982530406  592.476154853907 248.84536399212  598.957211745781 247.29283328594  L 598.491295289863 245.347859801261  C 592.005849906594 246.901441766172  585.525681173264 248.476969186656  579.050900432547 250.074414991901  L 579.529971575822 252.016190169331  Z M 554.323155766092 258.352953762409  C 560.779257436521 256.699714139597  567.240935986363 255.068329842286  573.708080390906 253.458828900961  L 573.225067094361 251.518030571572  C 566.753543618928 253.128621347649  560.287489699138 254.761110297531  553.827016435142 256.415469371689  L 554.323155766092 258.352953762409  Z M 529.173076510835 264.911280496756  C 535.614380467593 263.201294132484  542.06145340474 261.513113173552  548.514184548519 259.846766626325  L 548.014111812742 257.910293734975  C 541.557011357667 259.577768608586  535.10557294041 261.26709267858  528.659907409999 262.978236918886  L 529.173076510835 264.911280496756  Z M 504.081305677306 271.688852413798  C 505.446816512011 271.313284937171  506.812803268404 270.939449992132  508.179262647596 270.567348481502  C 513.241672005415 269.183449694289  518.30776080621 267.813045940394  523.377475069404 266.456151821846  L 522.860381616763 264.524154316351  C 517.787551226285 265.881882457206  512.71834829919 267.253127693535  507.652826843281 268.637875415954  C 506.285051973595 269.010336010914  504.917750073885 269.384531307621  503.550924443426 269.760460403146  L 504.081305677306 271.688852413798  Z M 479.081643296389 278.773810145285  C 485.477607878316 276.907448107161  491.88465497926 275.079277346926  498.302442242055 273.289395551914  L 497.76515861795 271.362915262041  C 491.339705821521 273.154934927714  484.925006015186 274.985289291724  478.521401965073 276.853880550043  L 479.081643296389 278.773810145285  Z M 454.194932320179 286.245848823142  C 460.561165394262 284.280461676276  466.939072288798 282.353089235124  473.328312203716 280.46383448781  L 472.761198978516 278.54592349149  C 466.364327627489 280.43743480251  459.978802833208 282.367109335911  453.604965802847 284.334843980546  L 454.194932320179 286.245848823142  Z M 429.42716570444 294.103169109671  C 435.762134221445 292.039230137907  442.109365049174 290.01312014538  448.468519026714 288.024947396204  L 447.871712766657 286.116067544575  C 441.504963288254 288.106615007098  435.150151200889 290.135145025983  428.807616070619 292.20154920779  L 429.42716570444 294.103169109671  Z M 404.784307762007 302.343878887712  C 411.086486201502 300.181885107105  417.40151248911 298.057525469685  423.729049184752 295.97091348948  L 423.102693606439 294.071524458893  C 416.767599174308 296.160628730215  410.445030092694 298.287525745377  404.135324205118 300.452101854632  L 404.784307762007 302.343878887712  Z M 380.309902188639 311.040510811976  C 386.551113227888 308.71933171082  392.819512655817 306.471922800082  399.113789816488 304.298753989166  L 398.461076103734 302.408260717773  C 392.151918378816 304.58656720809  385.868699565296 306.839289312349  379.61273341764 309.165956010232  L 380.309902188639 311.040510811976  Z M 356.112218349294 320.465149156984  C 362.279245608866 317.95350379273  368.475712656803 315.514759377265  374.700323877464 313.149425826221  L 373.989893267451 311.279856798783  C 367.750566182708 313.650782333938  361.539449807532 316.095292287204  355.357842820533 318.612875537454  L 356.112218349294 320.465149156984  Z M 332.215202781372 330.628040382888  C 338.302235280828 327.928295393701  344.420931228221 325.300513419585  350.570011269023 322.745243901924  L 349.802533176396 320.89836074987  C 343.638915837953 323.45967128721  337.505754425208 326.093665710748  331.404331317302 328.799793280127  L 332.215202781372 330.628040382888  Z M 308.653997980389 341.527058736832  C 311.214692904091 340.27046886337  313.789987547405 339.043851627394  316.379354221232 337.847458368121  C 319.824002202111 336.23407418982  323.279492440012 334.643940702869  326.745589165598 333.077166402645  L 325.921786758911 331.254709381275  C 322.449075930594 332.824473444048  318.986986978167 334.417630631379  315.535755906351 336.034072340449  C 312.933835907666 337.236310447197  310.346048065808 338.468900687726  307.772921987796 339.731590804711  L 308.653997980389 341.527058736832  Z M 285.800345836657 353.764348630923  C 291.547034062473 350.42015140409  297.383768035413 347.233142905581  303.304051383061 344.206870323633  L 302.393745794743 342.426043623508  C 296.441116799211 345.468850337623  290.572493652939 348.673271153859  284.794408221459 352.035739503813  L 285.800345836657 353.764348630923  Z M 263.870072667128 367.588378396826  C 269.365671216957 363.845855553101  274.962214464746 360.253754452621  280.653473373957 356.816073157763  L 279.619415664738 355.104137220293  C 273.897062389618 358.560600391316  268.269942257818 362.172327045257  262.744318338397 365.935297276209  L 263.870072667128 367.588378396826  Z M 243.443205894031 383.417508778995  C 247.915543753191 379.390482014314  252.593659049268 375.598035650199  257.458714932967 372.055440310843  C 257.955622296205 371.701286449542  258.453414401093 371.34837559775  258.952086579479 370.996711064965  L 257.799462684387 369.362251473398  C 257.295298452289 369.717789012512  256.79202890183 370.074593548738  256.289658804787 370.432661699014  C 251.365765520877 374.017664834318  246.631158541879 377.855680800124  242.104923452597 381.931238242736  L 243.443205894031 383.417508778995  Z M 226.049795778201 402.381679187459  C 229.413982363463 397.704039752227  233.16395294057 393.316321436257  237.260403492679 389.264512588271  C 237.862293072732 388.66678291633  238.468542629055 388.073459635665  239.079103600501 387.48459027202  L 237.690693015869 386.045036157552  C 237.073600399723 386.640205113929  236.46086191708 387.239872130481  235.852526572365 387.843989248188  C 231.677253834791 391.973919491587  227.855099844479 396.446183969978  224.426116038466 401.213918894087  L 226.049795778201 402.381679187459  Z M 214.919312894758 425.289512444911  C 215.048187529964 424.780554426033  215.185024255091 424.273645713391  215.329772744135 423.768972738584  C 217.015296243181 417.961692247556  219.504302997579 412.418523871525  222.724545718976 407.30036668533  L 221.031737028924 406.235285120902  C 217.711675647923 411.512091090488  215.145647196508 417.227152311242  213.408159663511 423.214524513381  C 213.257331521213 423.740274232424  213.114761539374 424.268358048472  212.980502355768 424.798580989508  L 214.919312894758 425.289512444911  Z M 215.031427450735 450.527628868804  C 214.24398749143 447.418861594014  213.730450054212 444.247077362269  213.496706330608 441.048662203164  C 213.27007114217 437.71820644195  213.375593408448 434.37346005685  213.811711778865 431.063913282286  L 211.828853725422 430.802620458241  C 211.375172869235 434.245442673778  211.265567673318 437.724895504013  211.501661458339 441.189446102828  C 211.743750445982 444.506064488443  212.2761196044 447.795076350432  213.092655590506 451.018713050982  L 215.031427450735 450.527628868804  Z M 226.090966514158 473.498167786113  C 222.762533469684 468.801477490834  219.949131851596 463.76027767036  217.69934165163 458.461616488755  C 217.376101128414 457.698554965476  217.070179038983 456.928272538545  216.781810567694 456.15136137958  L 214.906803681445 456.847313372551  C 215.20577438147 457.652788645261  215.522949987253 458.4513892034  215.858086504444 459.242500705822  C 218.164002087527 464.673500231325  221.047632884886 469.84060187062  224.459181557911 474.654575091766  L 226.090966514158 473.498167786113  Z M 243.198417081376 492.744238957187  C 238.339395685548 488.248094424169  233.822139652815 483.396148919832  229.684163859565 478.228696847351  L 228.123017984418 479.478826263257  C 232.323092754831 484.723826756577  236.908139657602 489.648585846138  241.840080827197 494.212204427007  L 243.198417081376 492.744238957187  Z M 263.220086382621 509.121701691658  C 257.847796610548 505.222537964518  252.651384503312 501.086628008272  247.646219130366 496.72620431835  L 246.332471573822 498.234205431637  C 251.382300261674 502.633539119906  256.625082263415 506.80635563868  262.045311364557 510.740313336536  L 263.220086382621 509.121701691658  Z M 284.85950302523 523.387638215092  C 279.195105023674 519.899272893075  273.607548202677 516.287645247126  268.100827297655 512.555337353332  L 266.978729485455 514.210902664595  C 272.509549123952 517.959544034286  278.121558435815 521.586977030383  283.810745203697 525.090608277005  L 284.85950302523 523.387638215092  Z M 307.323942549283 536.357587255981  C 301.470751424912 533.196218722976  295.6872842409 529.907426724033  289.977675795679 526.493562528998  L 288.95131632765 528.210124861797  C 294.685911390958 531.63892894661  300.494688416645 534.942113489359  306.373494511397 538.11731693047  L 307.323942549283 536.357587255981  Z M 330.488064725914 548.032092172214  C 324.46493721756 545.207905146183  318.504191785548 542.252544021786  312.61008997059 539.168121687736  L 311.682775383631 540.940150936031  C 317.60267120398 544.038071443138  323.589502289866 547.006365937739  329.638988451039 549.842912284606  L 330.488064725914 548.032092172214  Z M 354.108714337172 558.843519230727  C 348.017898477885 556.149171811921  341.95380216373 553.394822748335  335.91731002022 550.580873842204  L 335.07229885346 552.393594484788  C 341.120708938056 555.213099014365  347.196777692651 557.972886032496  353.299618745188 560.672552943656  L 354.108714337172 558.843519230727  Z M 377.994808582447 569.045718768846  C 371.836917184749 566.508413233571  365.704198228184 563.910440741261  359.597546348794 561.252180282028  L 358.799287443912 563.085969452237  C 364.91799578184 565.749478156768  371.062822661632 568.352579866918  377.232871680852 570.894894844288  L 377.994808582447 569.045718768846  Z M 402.134615115355 578.632173497448  C 395.913696464594 576.253577906434  389.71638660216 573.813689929416  383.54358958665 571.312865495296  L 382.792607730394 573.166517634068  C 388.977591795836 575.672279485079  395.187137104306 578.116984571188  401.420337812298 580.500276260771  L 402.134615115355 578.632173497448  Z M 426.50804580925 587.624265599968  C 424.089371631452 586.755209209342  421.67242451081 585.88135372313  419.257218725372 585.00270430361  C 415.409503952007 583.610515617907  411.570259662566 582.195026683641  407.739697264649 580.75631544457  L 407.036486163164 582.628611934645  C 410.874066068599 584.06995886161  414.720342539966 585.488044247799  418.575103842708 586.882790028703  C 420.992249965398 587.762142882797  423.411138423852 588.63669903813  425.831754934469 589.506453330427  L 426.50804580925 587.624265599968  Z M 451.021942158312 596.247685229987  C 444.721617877047 594.078622954888  438.432495525637 591.877158683897  432.15482483852 589.643379834848  L 431.484347689843 591.527646374673  C 437.76848164703 593.763725044259  444.064079058773 595.96745586584  450.370889933455 598.138751331558  L 451.021942158312 596.247685229987  Z M 475.649001079516 604.542409409817  C 469.32022485603 602.457821029294  463.002216116829 600.340683703285  456.695225743047 598.191081500969  L 456.050014532458 600.084148455339  C 462.363498362832 602.235963812863  468.68801190278 604.35528086939  475.023304012808 606.442015469165  L 475.649001079516 604.542409409817  Z M 500.384815468789 612.506953767618  C 494.028719861256 610.507212326561  487.682955365384 608.474780815115  481.347773964454 606.409739938887  L 480.727944154904 608.311268536409  C 487.069648036922 610.378435506463  493.421945909898 612.412959538283  499.784585531054 614.414759843152  L 500.384815468789 612.506953767618  Z M 525.224958759858 620.139893018462  C 518.842681215361 618.22535637808  512.47029656093 616.277994392364  506.108057837259 614.297884389011  L 505.513720349607 616.207534344047  C 511.882509411698 618.18968299939  518.261454850297 620.139049920837  524.650303364483 622.055557701168  L 525.224958759858 620.139893018462  Z M 550.154876486762 627.491910848164  C 544.197606147597 625.760119096191  538.245160879262 624.011772285932  532.2976096624 622.246890678319  C 531.855575323295 622.116118861744  531.413587546709 621.985189706867  530.971646416286 621.854103238463  L 530.402907609442 623.77153281203  C 530.845039306898 623.902675805517  531.287217641767 624.033661511431  531.729442532425 624.164489905593  C 537.680282722785 625.930345887099  543.63601944915 627.679658662565  549.596583699647 629.412407961897  L 550.154876486762 627.491910848164  Z M 575.14179789905 634.650592369287  C 568.727797166628 632.839911008013  562.319217388603 631.010081606132  555.916144274666 629.161128636166  L 555.361293118485 631.082622897018  C 561.768191261289 632.932680383261  568.180599357152 634.763602877338  574.598431646314 636.575365892428  L 575.14179789905 634.650592369287  Z M 600.183542466007 641.615073098536  C 593.755677867573 639.85424116587  587.333085405771 638.07421968446  580.915850976263 636.275032460289  L 580.375933992059 638.200776381523  C 586.797001909795 640.001038393146  593.223431060725 641.782123212935  599.65513549757 643.544007020604  L 600.183542466007 641.615073098536  Z M 625.278600864678 648.384933270801  C 618.837259822505 646.674056896159  612.401041780717 644.943950621031  605.970032817204 643.194637583835  L 605.445082547003 645.124515096481  C 611.879933227289 646.874873127593  618.319996097771 648.606012923059  624.765185028832 650.317911330558  L 625.278600864678 648.384933270801  Z M 650.425460558767 654.9597648512  C 643.971031307143 653.298947152997  637.521575610881 651.618860361594  631.077179724914 649.919526946451  L 630.567227808663 651.853421732398  C 637.015473408401 653.553770284936  643.468781841186 655.234860716342  649.927066800252 656.896670543657  L 650.425460558767 654.9597648512  Z M 675.622579987054 661.343737765005  C 673.732031609175 660.8707146392  671.841742711786 660.396655040026  669.951714148033 659.921559181444  C 665.377295041166 658.773799775576  660.805306263317 657.61637587247  656.235778434492 656.449295223747  L 655.740855608154 658.387090722753  C 660.312972957892 659.554832748288  664.887552576049 660.712912852133  669.464563826874 661.861323278677  C 671.355161070629 662.336561922598  673.246018706316 662.810764072085  675.137135881917 663.283929513464  L 675.622579987054 661.343737765005  Z M 700.855624125465 667.591829194991  C 694.381718327267 666.005529213694  687.910792794072 664.407090985289  681.442881656155 662.796522940586  L 680.959620764956 664.737259633452  C 687.429958037306 666.34843180745  693.903310835359 667.947469615144  700.379645016607 669.534364622707  L 700.855624125465 667.591829194991  Z M 726.118830368783 673.716824975885  C 719.637267652135 672.162106781236  713.158625986163 670.595235953734  706.682939541834 669.016220757686  L 706.209146277793 670.959290479274  C 712.687261773098 672.538897969039  719.168333598275 674.1063565348  725.652327570107 675.661657909283  L 726.118830368783 673.716824975885  Z M 751.411598216995 679.718579518089  C 744.922532647002 678.195480065347  738.436328843921 676.660213882869  731.953021018608 675.112789068269  L 731.488706643671 677.058145632302  C 737.974446378765 678.606150890966  744.463083177634 680.141992956699  750.954582817156 681.665663728983  L 751.411598216995 679.718579518089  Z M 776.733326467415 685.596950161417  C 770.236912287522 684.10550565427  763.743300522755 682.601880609705  757.252525423042 681.086082958447  L 756.797700973846 683.033680124294  C 763.290910784338 684.550046356164  769.786958323642 686.054235415291  776.285809329552 687.546239368107  L 776.733326467415 685.596950161417  Z M 802.083413228972 691.351797178487  C 795.579804857299 689.892043068193  789.078939482356 688.420094902329  782.580851392323 686.935960444541  L 782.135527679928 688.885751918309  C 788.636053223867 690.370443079743  795.1393570942 691.842943378071  801.645404990454 693.303245046864  L 802.083413228972 691.351797178487  Z M 826.352223900531 696.739607735662  C 820.211549185908 695.391357084134  814.073263910899 694.032246538581  807.937396878555 692.662282476439  L 807.501584488194 694.61422191208  C 814.009271249247 696.067202712237  820.519676869697 697.507979249024  827.0327670087 698.936543922686  L 826.352223900531 696.739607735662  Z M 1167.34963506152 143.850327865484  C 1173.94621468328 142.890566673441  1180.54370489682 141.937074544924  1187.14209675891 140.98985277244  L 1186.85790324109 139.01014722756  C 1180.25825714452 139.957549049704  1173.65951287236 140.911222419113  1167.06167936059 141.871166044332  L 1167.34963506152 143.850327865484  Z M 823.533448785889 704.92262699643  L 832 699  L 826.792052043981 690.076027897433  L 823.533448785889 704.92262699643  Z " fill-rule="nonzero" fill="#00f78f" stroke="none" />
  </g>
</svg>