<?xml version="1.0" encoding="utf-8"?>
<svg version="1.1" xmlns:xlink="http://www.w3.org/1999/xlink" width="10px" height="7px" xmlns="http://www.w3.org/2000/svg">
  <g transform="matrix(1 0 0 1 -846 -1038 )">
    <path d="M 851 1038  C 853.8 1038  856 1039.54  856 1041.5  C 856 1043.46  853.8 1045  851 1045  C 848.2 1045  846 1043.46  846 1041.5  C 846 1039.54  848.2 1038  851 1038  Z " fill-rule="nonzero" fill="#ffffff" stroke="none" />
    <path d="M 851 1038.5  C 853.52 1038.5  855.5 1039.82  855.5 1041.5  C 855.5 1043.18  853.52 1044.5  851 1044.5  C 848.48 1044.5  846.5 1043.18  846.5 1041.5  C 846.5 1039.82  848.48 1038.5  851 1038.5  Z " stroke-width="1" stroke="#797979" fill="none" />
  </g>
</svg>