<?xml version="1.0" encoding="utf-8"?>
<svg version="1.1" xmlns:xlink="http://www.w3.org/1999/xlink" width="10px" height="7px" xmlns="http://www.w3.org/2000/svg">
  <g transform="matrix(1 0 0 1 -906 -989 )">
    <path d="M 911 989  C 913.8 989  916 990.54  916 992.5  C 916 994.46  913.8 996  911 996  C 908.2 996  906 994.46  906 992.5  C 906 990.54  908.2 989  911 989  Z " fill-rule="nonzero" fill="#d9001b" stroke="none" />
    <path d="M 911 989.5  C 913.52 989.5  915.5 990.82  915.5 992.5  C 915.5 994.18  913.52 995.5  911 995.5  C 908.48 995.5  906.5 994.18  906.5 992.5  C 906.5 990.82  908.48 989.5  911 989.5  Z " stroke-width="1" stroke="#d9001b" fill="none" />
  </g>
</svg>