<?xml version="1.0" encoding="utf-8"?>
<svg version="1.1" xmlns:xlink="http://www.w3.org/1999/xlink" width="19.41390688729939px" height="18px" viewBox="306.06195993884177 1063.8867141667056  19.41390688729939 18" xmlns="http://www.w3.org/2000/svg">
  <g transform="matrix(0.6922283456228328 -0.7216785416764684 0.7216785416764702 0.6922283456228412 -677.0945983912779 558.0877678950003 )">
    <path d="M 330.7420458594707 1084.5208009638727  C 328.0306488624693 1082.6041848809261  325.3972496527065 1080.579543335591  322.84820312334097 1078.4517621729979  L 322.20738339928715 1079.2194535701515  C 324.7769661390172 1081.364377048925  327.4315811404625 1083.4053299735217  330.16482231271556 1085.3373871363442  L 330.7420458594707 1084.5208009638727  Z M 341.68150550621954 1091.4458330562043  C 340.7338759859959 1090.9031992038845  339.79108999869993 1090.3521502736996  338.85325934200733 1089.7927516102668  C 336.9378900036197 1088.6514661370165  335.05361923484986 1087.4587799950605  333.20249821377524 1086.2159915177954  L 332.6450971247748 1087.0462348712654  C 334.51106771823805 1088.2989929168336  336.4104528527024 1089.501248445335  338.3411850383573 1090.651692795872  C 339.28404123250715 1091.2140875096059  340.2318789499921 1091.768088334459  341.18458580986544 1092.3136295849918  L 341.68150550621954 1091.4458330562043  Z M 353.1496446008953 1097.487253990987  C 350.1556176702607 1096.0421954827825  347.2012563184015 1094.5163549448405  344.2898066022169 1092.9114088698498  L 343.8070454470685 1093.7871609278432  C 346.7342992745326 1095.4008190703053  349.70469767326784 1096.9349422701555  352.71497696592075 1098.38784493426  L 353.1496446008953 1097.487253990987  Z M 365.01421803537636 1102.7072998168267  C 361.9259884313148 1101.4763533248552  358.871645761925 1100.1620355540965  355.85454593696716 1098.7657905900094  L 355.43456121459155 1099.6733217646645  C 358.46803864728037 1101.0771459119558  361.53896108830935 1102.3985981436635  364.6439544111648 1103.6362265354571  L 365.01421803537636 1102.7072998168267  Z M 377.21175806109557 1107.1121024016365  C 375.62371666930284 1106.585430818015  374.0402507393929 1106.0450621111024  372.4615372173548 1105.491056664942  C 370.9009166279332 1104.9457909394444  369.34770626155836 1104.3795432353932  367.8023282055514 1103.7924674314788  L 367.44719917327456 1104.72728472402  C 369.0007532423368 1105.3174665248252  370.56217999130894 1105.8867129021498  372.1310552162401 1106.434869204767  C 373.7149851716072 1106.9907010547795  375.3036825604375 1107.5328529605022  376.89696990022514 1108.061264355033  L 377.21175806109557 1107.1121024016365  Z M 389.6167457920591 1110.9211155422447  C 386.4146329394819 1110.0155700908294  383.22830173673236 1109.0551199601202  380.05916055965946 1108.0401896743372  L 379.7541653720862 1108.9925435663106  C 382.9342060672029 1110.0109644668519  386.131495909071 1110.9747178406026  389.3446216780394 1111.8833777032844  L 389.6167457920591 1110.9211155422447  Z M 402.179333071837 1114.1728385545327  C 398.94000483749795 1113.411069642422  395.71399275045167 1112.5937465720428  392.5027227256928 1111.7212306046645  L 392.24052425269565 1112.686244573868  C 395.4628386877924 1113.5617613553466  398.6999458870554 1114.3818954168003  401.9504150313657 1115.1462842544804  L 402.179333071837 1114.1728385545327  Z M 414.8753060218641 1116.8621161893063  C 414.64727846661316 1116.8186364146814  414.4192839978478 1116.774983298899  414.19132281311954 1116.731156879784  C 411.1504037636743 1116.1503508432816  408.1189549193632 1115.521014195972  405.098136046825 1114.843387708419  L 404.8792565448493 1115.819139604966  C 407.91026756321384 1116.499052382518  410.9519437370287 1117.1305155472837  414.00312153836325 1117.7132875465845  C 414.23138208739624 1117.7571712071465  414.4596759355157 1117.800881487574  414.6880028842766 1117.8444183498711  L 414.8753060218641 1116.8621161893063  Z M 427.6640771873145 1119.113266363381  C 424.37690985597067 1118.5825654410326  421.09562715445736 1118.016036091696  417.82081428138747 1117.4137793527457  L 417.6399418234365 1118.3972859129449  C 420.9219043191119 1119.0008575082127  424.2103507682809 1119.5686237132752  427.5046946946764 1120.100483270165  L 427.6640771873145 1119.113266363381  Z M 440.51152255829436 1121.0009878651335  C 437.2106323939109 1120.5636817300194  433.91460886405196 1120.0903947539327  430.6240397963679 1119.5812113449995  L 430.471119540328 1120.5694498765758  C 433.76887262979534 1121.0797449426805  437.0720920897013 1121.5540652062853  440.3801888090476 1121.9923260749838  L 440.51152255829436 1121.0009878651335  Z M 453.40731642269225 1122.5237635004291  C 450.0953564072643 1122.1802036229842  446.7872411197263 1121.800539409011  443.483560544181 1121.3848385695264  L 443.35871539468366 1122.3770148082294  C 446.669608617261 1122.7936232122795  449.9849462337602 1123.1741163150944  453.30413697202266 1123.5184262578296  L 453.40731642269225 1122.5237635004291  Z M 320.5776355922826 1076.5095933109226  C 319.33424428207735 1075.4198510587066  318.11275025827723 1074.305374466353  316.9138848151299 1073.1668307580194  L 316.1960510139215 1073.8642003274902  C 317.4139398558022 1075.021556189897  318.6550155980436 1076.154265038508  319.9185232039206 1077.2616377640686  L 320.5776355922826 1076.5095933109226  Z M 464.03998302344047 1123.5016012060241  C 461.4878178346696 1123.2968589759066  458.9374142141924 1123.0707210983921  456.389041107528 1122.8232114202042  L 456.2923714047603 1123.81852793698  C 458.84630815938806 1124.0665779821627  461.40227986089246 1124.2932095674241  463.96001697655953 1124.4983987939759  L 464.03998302344047 1123.5016012060241  Z M 321.69994488629874 1069.9690326726345  L 313 1070  L 312.6067952611756 1078.6911098274827  L 321.69994488629874 1069.9690326726345  Z " fill-rule="nonzero" fill="#000000" stroke="none" />
  </g>
</svg>