<?xml version="1.0" encoding="utf-8"?>
<svg version="1.1" xmlns:xlink="http://www.w3.org/1999/xlink" width="118px" height="10px" viewBox="560 1076  118 10" xmlns="http://www.w3.org/2000/svg">
  <g transform="matrix(-0.9781476007338048 -0.20791169081775726 0.20791169081776187 -0.9781476007337965 999.7208270802246 2267.074893009426 )">
    <path d="M 650.4514320155768 1074.532587744396  C 653.7248891341727 1073.9119091235775  657.0012304975929 1073.306539754312  660.2803486630008 1072.7164994888053  L 660.1032541010483 1071.7323056480773  C 656.8210680410513 1072.3228979465534  653.5416613808585 1072.9288336904935  650.2651416640654 1073.5500930090748  L 650.4514320155768 1074.532587744396  Z M 637.7000005679546 1077.0307697983785  C 640.965670440799 1076.370342861297  644.2344104541236 1075.7251889818253  647.5061134143657 1075.0953293168443  L 647.3170674661785 1074.1133610742447  C 644.0423035488429 1074.7438100266497  640.7705053505789 1075.3895675025744  637.5017801651087 1076.0506123253695  L 637.7000005679546 1077.0307697983785  Z M 624.9798808355057 1079.6837815832014  C 628.2372808327754 1078.9837039336405  631.4979364124474 1078.2988608905578  634.7617406460769 1077.6292749123822  L 634.5607712505515 1076.649677391937  C 631.2939134497609 1077.31988982489  628.0302072488261 1078.0053735970218  624.7697596761044 1078.7061062289185  L 624.9798808355057 1079.6837815832014  Z M 612.2929527109869 1082.4912310131183  C 615.5416014250543 1081.751606114798  618.7936906823074 1081.027175120318  622.0491138352216 1080.3179617863361  L 621.836250693408 1079.3408797617049  C 618.5777818145483 1080.0507566252343  615.3226499505574 1080.7758653866667  612.0709618486097 1081.5161822671464  L 612.2929527109869 1082.4912310131183  Z M 599.6410911818035 1085.4527031782097  C 602.8805084983235 1084.6736403395093  606.1235508105199 1083.9097284564775  609.3701117671865 1083.1609925805765  L 609.1453863378983 1082.1865704536563  C 605.895787946566 1082.9360068358271  602.6497114919409 1083.70063342352  599.4072634242399 1084.4804251419503  L 599.6410911818035 1085.4527031782097  Z M 587.0261660529062 1088.5677604057034  C 590.255873222013 1087.7493747634494  593.4893893031899 1086.946094889635  596.7266082579926 1086.157947126653  L 596.4900537531586 1085.1863289062378  C 593.2498061039901 1085.9752140486564  590.0132647928646 1086.7792454592718  586.780535957308 1087.598396771077  L 587.0261660529062 1088.5677604057034  Z M 574.4500416704553 1091.8359423246561  C 577.6695613771541 1090.978354827193  580.8930733495836 1090.1358256784326  584.1204718773687 1089.3083825078902  L 583.8721232571235 1088.3397117883874  C 580.6417052228794 1089.1679291025555  577.4151773800781 1090.0112465091906  574.1926455382292 1090.869636352867  L 574.4500416704553 1091.8359423246561  Z M 561.9285129467929 1095.2876701897335  C 563.31439648075 1094.8853262249754  564.7020251747937 1094.489018035552  566.0913595743305 1094.0987568897351  C 567.910779207403 1093.598294892395  569.731520957868 1093.1026518994745  571.5535656725948 1092.6118331248458  L 571.2934596401127 1091.6462530650547  C 569.4688393942893 1092.137765631118  567.6455245793117 1092.6341115410778  565.8235343932765 1093.1352855687953  C 564.4305347209082 1093.5265681153637  563.0392462896699 1093.9239174410698  561.6497087077406 1094.3273222338935  L 561.9285129467929 1095.2876701897335  Z M 549.5052368654408 1099.0709521011163  C 552.677868300446 1098.059323134436  555.8605830565014 1097.0795936891536  559.0528992959138 1096.1319120885125  L 558.7683112967021 1095.173262167684  C 555.569574308996 1096.1228498529872  552.3804581161975 1097.1045498412022  549.2014455252086 1098.118213510736  L 549.5052368654408 1099.0709521011163  Z M 537.1850098540662 1103.177412499402  C 540.3301374546903 1102.0832663645542  543.486178083086 1101.0207455147436  546.6526539398105 1099.9900108071733  L 546.3431251614245 1099.039120731849  C 543.1702805295057 1100.071928569907  540.0078921144112 1101.1365864821041  536.8564386766255 1102.2329332876905  L 537.1850098540662 1103.177412499402  Z M 524.975549279291 1107.6032960388638  C 525.2396665155247 1107.5037931892218  525.5039401593763 1107.4047059986426  525.7683692293606 1107.3060348351255  C 528.6217099805323 1106.2346059629754  531.4848425605754 1105.189437159088  534.3574038502599 1104.170660977888  L 534.0231454710819 1103.2281795001127  C 531.1451304572082 1104.2488898869717  528.2765609840418 1105.296040031304  525.4178007785264 1106.3694971572693  C 525.1527115040585 1106.4684158286623  524.8877778562705 1106.5677510594985  524.6230008165976 1106.6675024817946  L 524.975549279291 1107.6032960388638  Z M 512.9477985954175 1112.4689088940552  C 516.0012421016564 1111.1471502625916  519.078941555133 1109.882146774273  522.1793086601198 1108.6745512542589  L 521.8163671542144 1107.7427393294097  C 518.7044766312945 1108.954823230122  515.6153380108188 1110.2245284725839  512.5505454918771 1111.5511998052218  L 512.9477985954175 1112.4689088940552  Z M 501.16860452883793 1117.908721584938  C 504.1547756237227 1116.4412934545967  507.16791062514216 1115.0293850954565  510.2064545568804 1113.6737251452705  L 509.79901244926936 1112.7604941071727  C 506.74917488344283 1114.1211927626628  503.72484068762077 1115.5383488907164  500.72757061755965 1117.0112311453775  L 501.16860452883793 1117.908721584938  Z M 663.2322906580902 1072.1896046248812  C 664.8719013510066 1071.8993215900905  666.5121881323699 1071.6128703560314  668.1531375669091 1071.3302532689702  L 667.9880187252702 1070.3439685075164  C 666.3439961181061 1070.627107478568  664.7006380108741 1070.9140913707884  663.0579578895632 1071.204917829084  L 663.2322906580902 1072.1896046248812  Z M 494.233405300221 1121.442178658269  C 495.6452321179192 1120.696941736309  497.0636639357434 1119.9642855007894  498.4885322115266 1119.2442970080406  L 498.0375370303867 1118.3517706237872  C 496.6073728163984 1119.0744351636  495.18366898330254 1119.8098145295614  493.766594699779 1120.557821341731  L 494.233405300221 1121.442178658269  Z M 668.1719595787752 1077.237404623967  L 673 1070  L 666.0065752355981 1064.824866179059  L 668.1719595787752 1077.237404623967  Z " fill-rule="nonzero" fill="#000000" stroke="none" />
  </g>
</svg>