<?xml version="1.0" encoding="utf-8"?>
<svg version="1.1" xmlns:xlink="http://www.w3.org/1999/xlink" width="19.248892226958674px" height="18px" viewBox="511.5507152431412 1460.1707302644552  19.248892226958674 18" xmlns="http://www.w3.org/2000/svg">
  <g transform="matrix(-0.9562096608448342 -0.2926825661138669 0.2926825661138667 -0.9562096608448454 589.5272262450021 3026.544859594468 )">
    <path d="M 503.1560933016261 1475.2146974801249  C 506.3412208266055 1474.232689562855  509.5271147491238 1473.2531691815354  512.713772161798 1472.2761372300565  L 512.4206396995503 1471.320065391973  C 509.2334845339345 1472.2972499549394  506.047092972085 1473.2769233381728  502.861467933131 1474.2590846441713  L 503.1560933016261 1475.2146974801249  Z M 490.73799323919087 1479.0571365669562  C 493.92112029462857 1478.0686634773363  497.1050187968069 1477.082676362418  500.2896858401643 1476.0991761219932  L 499.9946127397805 1475.1437014413084  C 496.80944825247707 1476.1273553041476  493.62505242644954 1477.1134964299135  490.4414281676114 1478.1021239187053  L 490.73799323919087 1479.0571365669562  Z M 478.32772060009336 1482.9247818867752  C 481.5088340611 1481.92984770055  484.6907240205587 1480.9373979157529  487.87338756336015 1479.9474334416227  L 487.5763750413303 1478.9925598574464  C 484.39321436563154 1479.9826789642925  481.2108273998511 1480.9752837682208  478.02921704807034 1481.9703733634324  L 478.32772060009336 1482.9247818867752  Z M 465.9253265478338 1486.817617494547  C 469.10441330161507 1485.816226312916  472.28428159666544 1484.8173179509604  475.4649285197271 1483.8208933238386  L 475.1659778005368 1482.866624772803  C 471.98483406147 1483.8632050411245  468.80446907208847 1484.8622694322214  465.62488574599996 1485.8638170308263  L 465.9253265478338 1486.817617494547  Z M 453.5308622134309 1490.7356273413786  C 456.7079091536508 1489.7277832927502  459.88574267473456 1488.7224204718111  463.06435986528834 1487.7195397996309  L 462.7634721814137 1486.7658802158733  C 459.5843584900038 1487.768917538283  456.406028596208 1488.7744373953497  453.2284854004054 1489.7824388694883  L 453.5308622134309 1490.7356273413786  Z M 441.14437869521265 1494.6787952745972  C 444.3193727239446 1493.6645025139833  447.4951583698919 1492.6526893788425  450.6717327235375 1491.6433567961533  L 450.3689093154402 1490.690310111301  C 447.1918387819235 1491.6998003514082  444.01555707935324 1492.7117715314116  440.84006711759645 1493.7262227242218  L 441.14437869521265 1494.6787952745972  Z M 428.7659270586044 1498.6471050378098  C 431.93885508638493 1497.626367746808  435.11257976446916 1496.6081084688403  438.2870981852281 1495.5923281367907  L 437.98234030135 1494.6398982799435  C 434.8073260218559 1495.6558372765476  431.6331056090716 1496.6742556062632  428.4596819709747 1497.6951523360947  L 428.7659270586044 1498.6471050378098  Z M 416.3955583359185 1502.6405402709709  C 419.5664072818019 1501.6133626577478  422.7380579077932 1500.5886614349029  425.910507308163 1499.5664375412232  L 425.6038162049215 1498.614628438938  C 422.43087126710606 1499.6370120042636  419.25872523416126 1500.6618732838651  416.0873810008237 1501.6892113425063  L 416.3955583359185 1502.6405402709709  Z M 404.03332352614456 1506.659084510451  C 407.2020803196457 1505.6254708091083  410.37164381408456 1504.594331867125  413.54201111698296 1503.5656686254972  L 413.2333880587652 1502.6144842017727  C 410.06252554742525 1503.6433081196476  406.8924669644818 1504.6746081264077  403.7232152140992 1505.708383277255  L 404.03332352614456 1506.659084510451  Z M 391.6792735947375 1510.702721189107  C 394.84592516832873 1509.6626756621285  398.0133884717001 1508.625103249596  401.18166060295795 1507.5900049020893  L 400.87110686211594 1506.6394490783478  C 397.70233984779145 1507.6747091078764  394.5343817877441 1508.7124435888622  391.36723558421676 1509.7526515706106  L 391.6792735947375 1510.702721189107  Z M 379.33074986700325 1514.7628244553446  C 381.8660156283938 1513.92379594962  384.40294191285216 1513.0897933405438  386.9415137698661 1512.2608215430291  C 387.5708126060209 1512.0535932607368  388.2001435806039 1511.8464626763607  388.82950672377456 1511.6394297799748  L 388.51702358061993 1510.6895064750474  C 387.8879551924987 1510.896442409938  387.25891890366654 1511.1034759373383  386.62991475228887 1511.3106070446884  C 384.0904806979968 1512.1398621186245  381.5526925238376 1512.974148933209  379.0165651795399 1513.8134625737823  L 379.33074986700325 1514.7628244553446  Z M 367.00531297504494 1518.8858611882986  C 370.1622727880566 1517.8185133735808  373.3218677768563 1516.7589756937437  376.4840689471494 1515.7072578717255  L 376.16847570183376 1514.7583633024972  C 373.00470985216185 1515.8106015218902  369.8435514731661 1516.8706634685486  366.68502957423607 1517.9385394144717  L 367.00531297504494 1518.8858611882986  Z M 354.70664560852777 1523.0880757814275  C 357.8566761805379 1522.0004480817402  361.00939210005504 1520.9206134088752  364.1647644352062 1519.8485816722703  L 363.84307551089006 1518.901736259348  C 360.6861418751981 1519.9742984448358  357.5318659695326 1521.0546674275383  354.3802767401238 1522.1428332931014  L 354.70664560852777 1523.0880757814275  Z M 342.43525639537114 1527.3692944464985  C 345.5782274528665 1526.2614318420658  348.72393391782697 1525.1613448343492  351.8723469234076 1524.0690435183906  L 351.54457562396874 1523.1242864198389  C 348.39460476149026 1524.2171282141705  345.24734177847444 1525.3177595528061  342.1028155567954 1526.426170335447  L 342.43525639537114 1527.3692944464985  Z M 330.1916528353688 1531.729340127961  C 333.32743439643957 1530.6012884359704  336.46600131215934 1529.4809945888976  339.60732478120036 1528.3684688672147  L 339.27348466206143 1527.4258391547328  C 336.1306068440751 1528.5389153619672  332.990486943 1529.6597635384474  329.85315377515894 1530.7883733983488  L 330.1916528353688 1531.729340127961  Z M 317.97634127920236 1536.1680325102645  C 321.1048036593874 1535.0198383828101  324.23610122621363 1533.8793840276387  327.37020524506084 1532.7466799102276  L 327.0303101126287 1531.8062165675346  C 323.8946553169542 1532.9394811549514  320.7618083619316 1534.0804998150088  317.631797996442 1535.2292620770356  L 317.97634127920236 1536.1680325102645  Z M 305.7898269074983 1540.6851880253198  C 308.9108407250309 1539.5168989475128  312.03473944394506 1538.3563312492656  315.16149439751416 1537.203495580628  L 314.81555830860884 1536.2652375018497  C 311.68725621469827 1537.4186436016842  308.56181176835753 1538.5797855571284  305.439253651238 1539.7486527125875  L 305.7898269074983 1540.6851880253198  Z M 293.63453358109297 1545.2808488300518  C 293.72075749500766 1545.247600493957  293.806989708824 1545.2143736859343  293.89323021426674 1545.1811684091724  C 296.91995580072836 1544.0264069783875  299.94945353530113 1542.8789247119491  302.98169714620616 1541.738731560814  L 302.6297344074795 1540.8027175488737  C 299.59551322161605 1541.9436543135548  296.5640401357982 1543.0918860944107  293.5353414471824 1544.2474029308612  C 293.44846943611617 1544.2808510824539  293.3616058237196 1544.3143210423464  293.27475061769354 1544.3478128075706  L 293.63453358109297 1545.2808488300518  Z M 281.5717408327292 1550.0951354851363  C 284.65020532771075 1548.8245720417597  287.7400396028896 1547.5817332669787  290.84086845446427 1546.3667700808082  L 290.4760537122013 1545.4356899533072  C 287.3696398372351 1546.652841456905  284.2742403414294 1547.897918756917  281.19023110436837 1549.1707706615057  L 281.5717408327292 1550.0951354851363  Z M 269.6248626046909 1555.1902729211363  C 272.67276425021834 1553.8480469082776  275.7326810894437 1552.5332720205483  278.8042415514041 1551.2461079133247  L 278.4177471725009 1550.3238161508787  C 275.3406544035689 1551.6132986194214  272.27522622920236 1552.9304415992988  269.22183488951754 1554.2750851476155  L 269.6248626046909 1555.1902729211363  Z M 257.83990326606835 1560.6153332416877  C 259.9723559991741 1559.546404389723  262.1301668654612 1558.5288308834124  264.31147042186376 1557.5634924223955  C 265.16834593620297 1557.1753709364266  266.0262064528916 1556.7894277713206  266.8850436605254 1556.4056666662975  L 266.477081150941 1555.4926679856997  C 265.6180135118516 1555.8765320562547  264.75992132883016 1556.2625754336839  263.90281289009897 1556.6507943892354  C 261.7082217228382 1557.6220891566718  259.5372537546319 1558.6459056000513  257.3917835446194 1559.7213596876893  L 257.83990326606835 1560.6153332416877  Z M 246.52394316382544 1566.9173114632765  C 249.35366030373578 1565.1761389358758  252.24081679271833 1563.5300888884  255.18057156689378 1561.9819213490846  L 254.71460638417426 1561.0971182927533  C 251.75512436800517 1562.6556748196003  248.8485935981402 1564.3127706957619  245.99988762443905 1566.0656273718212  L 246.52394316382544 1566.9173114632765  Z M 239.5800435261569 1575.6333080135785  C 239.16372894376988 1575.1623186435202  239.02829265864975 1574.505933347834  239.22417829873737 1573.9086246887443  C 239.61024281954266 1572.7750336011409  240.28948939868675 1571.7638323759215  241.19290675156356 1570.9777588077109  C 242.10471622279258 1570.1187434824567  243.0660084337796 1569.313817099574  244.0718548867334 1568.5671064769597  L 243.47578276447402 1567.7641755801417  C 242.44376973667264 1568.5303114931057  241.45723842426634 1569.355884001915  240.52119665721713 1570.2367023356392  C 239.49081417094706 1571.137981893976  238.71633541414374 1572.2950520981324  238.27588284912397 1573.5911980961803  C 237.96663732485524 1574.5271904002968  238.17794083526002 1575.5570031524924  238.83078660776349 1576.2955874638408  L 239.5800435261569 1575.6333080135785  Z M 515.5819695916289 1471.397480467405  C 517.175402507647 1470.9097492319743  518.7690257850104 1470.4226401542633  520.3628390729641 1469.936153341485  L 520.0716483683964 1468.9794879959036  C 518.4773370799888 1469.4661266030248  516.8832158791404 1469.9533877704082  515.2892851408612 1470.4412713834283  L 515.5819695916289 1471.397480467405  Z M 243.1132045699316 1577.512983855148  C 242.6980589747205 1577.416485250201  242.29145462458507 1577.2863631975888  241.89741718517934 1577.1239059960665  L 241.51625317476214 1578.0484134309543  C 241.96044676292632 1578.2315494481209  242.41880687592115 1578.3782344472324  242.8867954300684 1578.487016144852  L 243.1132045699316 1577.512983855148  Z M 521.1066422014477 1475.7802162600053  L 525 1468  L 517.418841868414 1463.73197453336  L 521.1066422014477 1475.7802162600053  Z " fill-rule="nonzero" fill="#d9001b" stroke="none" />
  </g>
</svg>