<?xml version="1.0" encoding="utf-8"?>
<svg version="1.1" xmlns:xlink="http://www.w3.org/1999/xlink" width="232px" height="6px" viewBox="298 1526  232 6" xmlns="http://www.w3.org/2000/svg">
  <g transform="matrix(-0.974370064785236 -0.22495105434386797 0.22495105434385979 -0.9743700647852473 473.43904472932616 3111.9415655550047 )">
    <path d="M 501.6334100293918 1509.3816196865976  C 504.88955863150966 1508.669148732125  508.1460254146166 1507.9581327028845  511.4028093993438 1507.24857181271  L 511.1899316241279 1506.2714929761678  C 507.9328565900676 1506.9811172777397  504.67609879056 1507.6921968474182  501.4196591958914 1508.4047314733523  L 501.6334100293918 1509.3816196865976  Z M 488.9360475368128 1512.1676320302824  C 492.1913662542316 1511.4513788431595  495.4470048426324 1510.736580210652  498.7029623228943 1510.0232363477307  L 498.4889496051622 1509.046405473603  C 495.2327011494298 1509.7598130859951  491.9767716186401 1510.4746755969759  488.72116198283516 1511.1909927935674  L 488.9360475368128 1512.1676320302824  Z M 476.24193016183125 1514.9683931977718  C 479.49641460123735 1514.24835874464  482.75122060119156 1513.5297784735408  486.0063471828124 1512.8126526005876  L 485.7911998113915 1511.836071007186  C 482.5357823285547 1512.5532609675975  479.2806854606173 1513.271905455118  476.0259101773816 1513.9920042556394  L 476.24193016183125 1514.9683931977718  Z M 463.5510750361727 1517.7838994092124  C 466.80472080538067 1517.0600846618152  470.0586898242628 1516.337723721908  473.3129811141905 1515.6168168067413  L 473.0966993794393 1514.6404858120407  C 469.84211726294353 1515.3614571525663  466.58785745087494 1516.083882646757  463.33392091278716 1516.8077620793777  L 463.5510750361727 1517.7838994092124  Z M 450.86349928715885 1520.6141468648525  C 454.1163019951138 1519.8865528000358  457.3694296414329 1519.160412166205  460.62288124774136 1518.435725181746  L 460.40546544154927 1517.459646103383  C 457.1517230837129 1518.1843978510146  453.89830471939706 1518.910603376904  450.6452113179044 1519.6382624646908  L 450.86349928715885 1520.6141468648525  Z M 438.1792200376876 1523.4591317450504  C 441.4311752983492 1522.7277593438885  444.6834571739955 1521.9978399978593  447.9360647097695 1521.2693739212625  L 447.71751512555664 1520.2935480765339  C 444.4646169175649 1521.022079253161  441.21204439174943 1521.7520638306771  437.9597985171613 1522.483501591596  L 438.1792200376876 1523.4591317450504  Z M 425.4982544062092 1526.3188502102696  C 428.7493578269269 1525.5837004606753  432.0007895504386 1524.8500033858004  435.2525486221465 1524.117759201053  L 435.03286555486295 1523.1421879069135  C 431.780815886761 1523.8744975293255  428.52909358905674 1524.6082601732955  425.27769963053777 1525.343475620213  L 425.4982544062092 1526.3188502102696  Z M 412.8206195066945 1529.1932984010925  C 416.07086669596896 1528.4543722960902  419.321443887034 1527.7168984807936  422.5723501022907 1526.9808771769951  L 422.3515338484163 1526.0055617500564  C 419.10033711298104 1526.7416488290653  415.84946942409283 1527.4791885509765  412.5989317735344 1528.2181806907795  L 412.8206195066945 1529.1932984010925  Z M 400.14633244862665 1532.082472438221  C 403.3957190238647 1531.3397709741744  406.64543728782127 1530.598521415485  409.89548626314513 1529.8587239850824  L 409.67353712068893 1528.8836657416102  C 406.4231976979202 1529.6235292855622  403.1731890206491 1530.3648450865296  399.923512057163 1531.1076129236508  L 400.14633244862665 1532.082472438221  Z M 387.4747182019093 1534.9830584747424  C 389.781697639448 1534.4526283845446  392.08916527824715 1533.9243238547328  394.39711818189335 1533.3981455576086  C 395.33870892289093 1533.1824070247865  396.28032763138253 1532.9667904122011  397.2219742131453 1532.7512957414292  L 396.99889248164556 1531.7764959973429  C 396.05733720282456 1531.991969773548  395.1158098285399 1532.2075654480566  394.1743103746603 1532.423283017235  C 391.86593421924135 1532.9495581495457  389.55804337998546 1533.4779597430345  387.2506407955005 1534.0084871248982  L 387.4747182019093 1534.9830584747424  Z M 374.81186976343645 1537.9170434021917  C 378.0574827239129 1537.1592648657736  381.3040772914913 1536.4056967810154  384.55164527194745 1535.6563410498804  L 384.3268094189574 1534.68194439594  C 381.0783987954193 1535.4314945616263  377.83096183768885 1536.1852581738272  374.5845067413974 1536.943233330253  L 374.81186976343645 1537.9170434021917  Z M 362.15898865398253 1540.8937190244733  C 365.40202743201115 1540.1249984746833  368.64606201194886 1539.3604850419865  371.8910842060296 1538.6001806559734  L 371.6629633309114 1537.6265478369214  C 368.4170991543013 1538.3870494983219  365.1722228484485 1539.151761298438  361.9283426025254 1539.9206813073488  L 362.15898865398253 1540.8937190244733  Z M 349.51621879771903 1543.9130514824549  C 352.75664650433674 1543.133397663346  355.9980841963423 1542.3579475789097  359.2405236925235 1541.5867031863395  L 359.0091203901098 1540.6138452770679  C 355.76583958152906 1541.3852897836173  352.52356083742 1542.1609410731937  349.28229234039975 1542.9407971882672  L 349.51621879771903 1543.9130514824549  Z M 336.88370400380416 1546.9750064317907  C 340.1214837797484 1546.1844282117804  343.36028771306894 1545.398050296205  346.60010762920444 1544.6158746698393  L 346.36542453166464 1543.6438027364266  C 343.12476398282934 1544.4261813130875  339.88511968078376 1545.2127632692343  336.6464998014927 1546.0035466197521  L 336.88370400380416 1546.9750064317907  Z M 324.26158796474357 1550.079549043312  C 327.4966829808708 1549.2780554150806  330.73281631471633 1548.4807586132686  333.9699797984562 1547.6876606502099  L 333.7320195752671 1546.7163857497928  C 330.4940161480891 1547.509689497154  327.25704313845586 1548.3071931726486  324.0211087155937 1549.1088947635972  L 324.26158796474357 1550.079549043312  Z M 311.65001425476294 1553.226644003424  C 314.8823877124692 1552.4142440838125  318.11581363642193 1551.6060374648673  321.3502838656339 1550.8020261864574  L 321.10904922354865 1549.831559367108  C 317.8737397497147 1550.635779261487  314.6394748524625 1551.4441955848727  311.40626269418135 1552.2568062970454  L 311.65001425476294 1553.226644003424  Z M 299.04386653185543 1556.3977175375219  C 300.6397415478927 1555.992854481191  302.23698347487255 1555.5933986720843  303.8355648181612 1555.1993569863666  C 305.47049273430997 1554.784809883902  307.10569260693853 1554.3713360836375  308.74116337743334 1553.9589358532526  L 308.4966570604511 1552.9892881538503  C 306.8618357967952 1553.4015246046222  305.2272851452182 1553.8148334945813  303.59300616318876 1554.2292145563388  C 301.9933097804604 1554.623538820181  300.3949528704149 1555.023277343215  298.7979629101278 1555.4284232536118  L 299.04386653185543 1556.3977175375219  Z M 286.4808053235951 1559.7042948274445  C 289.6944763694542 1558.8277725649252  292.9141170750657 1557.9732860540712  296.13950059227636 1557.1408954999497  L 295.8896131394497 1556.1726206108196  C 292.6598054610494 1557.0061529299326  289.4357484713946 1557.8618115141603  286.2176693299893 1558.739536075803  L 286.4808053235951 1559.7042948274445  Z M 273.97865705354656 1563.234202606757  C 277.1761995378915 1562.3005565664962  280.38010337922526 1561.388836408801  283.5901428381766 1560.4991063712835  L 283.32304181008624 1559.535437838647  C 280.1085992369268 1560.426388291994  276.90030069733166 1561.3393590287303  273.69837224050144 1562.2742857230758  L 273.97865705354656 1563.234202606757  Z M 261.54139147500945 1566.9863200390432  C 264.7217900959155 1565.9958466776568  267.90893975124254 1565.027182367677  271.10261588189917 1564.0803953589198  L 270.8183860899842 1563.121639172297  C 267.6203292901729 1564.0697248602173  264.428807917856 1565.0397178577953  261.2440468401547 1566.0315498215964  L 261.54139147500945 1566.9863200390432  Z M 249.2141750286291 1571.013468100715  C 250.27923365270183 1570.6097106446998  251.3546875644606 1570.2339260599877  252.43942986813437 1569.886501117561  C 254.51690294781625 1569.2095261291265  256.597408960539 1568.5418941138698  258.6808848341006 1567.8836253115896  L 258.3796165286229 1566.9300859007026  C 256.2940831953694 1567.58900475204  254.21152151129584 1568.257292468345  252.1319945623727 1568.9349288055212  C 251.03143709125797 1569.2874655527942  249.94029762362803 1569.6687544202478  248.85969755884034 1570.0784035449694  L 249.2141750286291 1571.013468100715  Z M 514.3340005034607 1506.610359926662  C 515.9624147622044 1506.2560318844019  517.5909081601518 1505.9020676279486  519.2194805677191 1505.5484671854683  L 519.0077380011503 1504.5711416076065  C 517.3788744849165 1504.9248051883546  515.7500900039324 1505.2788326796563  514.1213846789113 1505.6332240552752  L 514.3340005034607 1506.610359926662  Z M 240.2132616648565 1576.547761719552  C 240.05686826204985 1576.4740114005342  239.9260897949782 1576.3551962986046  239.83771962998773 1576.2065735549338  C 239.81097245239314 1576.1456315868368  239.81100038180475 1576.07626731532  239.8377966270881 1576.0153469063953  C 240.24514042184703 1575.38579975061  240.81229813375137 1574.8756648957387  241.48132973233464 1574.5370569977458  C 243.10462561160932 1573.6654569815983  244.7641306017714 1572.863043616847  246.45537786695678 1572.1319767335722  L 246.05859624975363 1571.214063693982  C 244.34494080574203 1571.954816847143  242.6633805876746 1572.7677140336361  241.01842324525776 1573.6505761725557  C 240.18046476971125 1574.077238854369  239.4728721451808 1574.72169302322  238.96997391479223 1575.5162424682921  C 238.77267222143172 1575.8762769050202  238.76674158068934 1576.3107170513313  238.95414175942724 1576.6760031403655  C 239.1441205715418 1577.015097078438  239.43518114325042 1577.286454720593  239.7867383351435 1577.452238280448  L 240.2132616648565 1576.547761719552  Z M 519.4757652030876 1511.4311035184828  L 524 1504  L 516.7982956850749 1499.1188674510531  L 519.4757652030876 1511.4311035184828  Z " fill-rule="nonzero" fill="#d9001b" stroke="none" />
  </g>
</svg>