<?xml version="1.0" encoding="utf-8"?>
<svg version="1.1" xmlns:xlink="http://www.w3.org/1999/xlink" width="72px" height="8px" viewBox="552 1480  72 8" xmlns="http://www.w3.org/2000/svg">
  <g transform="matrix(0.8746197071394018 -0.48480962024633634 0.4848096202463237 0.8746197071393971 -645.7338642435125 471.1324113099805 )">
    <path d="M 578.5058546415969 1478.9735211722093  C 577.4165906238932 1478.379943252152  576.3283740602168 1477.784445183519  575.2412100251431 1477.1870297432386  C 573.4146283278178 1476.1788008825097  571.6051693739834 1475.1398578286924  569.8136040688713 1474.070643215002  L 569.3011272361806 1474.929344266565  C 571.1026113743226 1476.0044784865327  572.9220909083964 1477.0491689719463  574.7587904313648 1478.0629705073811  C 575.8472593388292 1478.661104261561  576.9367823067322 1479.2573178571236  578.0273542518405 1479.8516085124  L 578.5058546415969 1478.9735211722093  Z M 589.9535732218978 1485.1206813039398  C 587.0085886563345 1483.5625743628962  584.0709993337496 1481.9905295866988  581.1409040743414 1480.4045998587699  L 580.6649006244928 1481.2840432712374  C 583.5977724055045 1482.8714758063318  586.5381453510995 1484.4450102325552  589.4859205471867 1486.0045936162396  L 589.9535732218978 1485.1206813039398  Z M 601.4761109107893 1491.1264255198535  C 598.5121653995552 1489.6046967867485  595.5554429610701 1488.06894022104  592.6060430594978 1486.5192074855895  L 592.1409038320523 1487.4044450238193  C 595.0930985481205 1488.9556462666471  598.0526227398079 1490.492858096069  601.0193768487758 1492.0160288003085  L 601.4761109107893 1491.1264255198535  Z M 613.0717208544345 1496.989843329778  C 610.0892637411081 1495.5047235035338  607.1138564355899 1494.005487974071  604.1455990302712 1492.4921871755166  L 603.6913945418345 1493.3830846346466  C 606.6624646307287 1494.8978194181018  609.6406913951063 1496.3984756044567  612.6259746474736 1497.885002711665  L 613.0717208544345 1496.989843329778  Z M 624.7285992032862 1502.7385419682416  C 621.8918705221514 1501.3448093746738  619.0560817799669 1499.949164492347  616.2212349114781 1498.5516082734546  C 616.0667454363823 1498.4753211492498  615.9122746436796 1498.3989961900945  615.7578225527994 1498.3226334055882  L 615.3146216622353 1499.219055722693  C 615.4693174118913 1499.2955389747337  615.6240319033425 1499.3719843172553  615.7787651197448 1499.4483917419352  C 618.6141123638224 1500.846194804997  621.450401680713 1502.2420861287171  624.2876311343275 1503.6360647602412  L 624.7285992032862 1502.7385419682416  Z M 636.4008572932986 1508.4599328186653  C 633.4066154305909 1506.9956760618422  630.4134149778507 1505.5292906936984  627.4212582067239 1504.0607778271244  L 626.980673041272 1504.9584886446953  C 629.9732553067811 1506.4272103385542  632.9668813979061 1507.8938042292841  635.9615490515029 1509.3582692081598  L 636.4008572932986 1508.4599328186653  Z M 648.0836714508936 1514.1597376874568  C 645.0867280204619 1512.701018298035  642.0908220634659 1511.2401683758749  639.0959558536201 1509.7771890296754  L 638.6570308622427 1510.6757127366218  C 641.6523229499769 1512.1389001223502  644.6486549336561 1513.5999577816872  647.6460245373625 1515.0588846048606  L 648.0836714508936 1514.1597376874568  Z M 659.7770017562756 1519.8379370985665  C 656.7773669985744 1518.3847600609408  653.7787657742467 1516.9294505764467  650.7812003590387 1515.4720097495724  L 650.3439370415282 1516.371343275668  C 653.3419287184588 1517.828991354479  656.3409563527447 1519.2845077882837  659.3410176664344 1520.7378914715239  L 659.7770017562756 1519.8379370985665  Z M 671.4808082537269 1525.4945116497772  C 668.4784924184108 1524.0468819294065  665.4772061728665 1522.597117855321  662.47695179488 1521.1452205278  L 662.0413516453507 1522.0453608000519  C 665.0420326692257 1523.4974645920745  668.0437457029684 1524.947434825169  671.0464884773188 1526.3952704031738  L 671.4808082537269 1525.4945116497772  Z M 683.1950509517221 1531.1294420127595  C 680.1900642958141 1529.687364555287  677.1861032879319 1528.2431508471273  674.1831701971471 1526.7968019791826  L 673.7492347040304 1527.6977459218413  C 676.752594819835 1529.1443004644163  679.7569829998533 1530.5887195440353  682.7623969728036 1532.0310020687323  L 683.1950509517221 1531.1294420127595  Z M 694.9196898230791 1536.7427089331395  C 691.9120426163095 1535.3061886669598  688.9054171069466 1533.867530257829  685.8998155660756 1532.4267347924529  L 685.4675462121149 1533.3284793270227  C 688.4735751556751 1534.7694796764622  691.4806282196577 1536.2083426687868  694.4887031200144 1537.6450672110877  L 694.9196898230791 1536.7427089331395  Z M 706.6546848050937 1542.3342932305707  C 703.6443873262881 1540.9033350650789  700.635107585398 1539.4702368691178  697.6268478662754 1538.0349997303163  L 697.1962461285208 1538.9375417755657  C 700.2049336301242 1540.3729830088807  703.2146412994891 1541.8062849956416  706.2253668505502 1543.2374466471654  L 706.6546848050937 1542.3342932305707  Z M 718.399995799673 1547.9041757987943  C 715.3870583331271 1546.4787846226716  712.3751346468996 1545.0512515384405  709.3642270268592 1543.6215776295132  L 708.9352943766626 1544.5249141014854  C 711.9466301557221 1545.95479131382  714.9589821464017 1547.3825273974758  717.9723480606162 1548.80812126799  L 718.399995799673 1547.9041757987943  Z M 730.1555826734735 1553.4523376057011  C 727.1400155124962 1552.0325182886152  724.1254581761779 1550.610555195648  721.1119129415939 1549.186449400894  L 720.6846508446041 1550.0905772129183  C 723.6986246114865 1551.5148855184302  726.7136106303637 1552.9370508204483  729.7296066111616 1554.3570720387463  L 730.1555826734735 1553.4523376057011  Z M 741.9214052580479 1558.9787596934095  C 738.9032187103289 1557.564517088529  735.8860380173707 1556.148128842235  732.8698654690215 1554.7295960294753  L 732.444275385179 1555.6345120921767  C 735.4608768430318 1557.0532466248962  738.4784865844072 1558.4698362840973  741.4971023280272 1559.8842799988558  L 741.9214052580479 1558.9787596934095  Z M 753.6974233499639 1564.4834231783154  C 750.6766277267496 1563.0747621172147  747.6568339903532 1561.6639535590396  744.638044432605 1560.2509985745048  L 744.2141278161371 1561.156699795815  C 747.2333466537368 1562.569855706282  750.2535698137297 1563.9808648856044  753.2747950020632 1565.38972626203  L 753.6974233499639 1564.4834231783154  Z M 765.4835967109552 1569.966309251163  C 762.4602023342052 1568.5632345471906  759.4378058729058 1567.1580104978218  756.416409620863 1565.750638169533  L 755.9941679202788 1566.6571214547002  C 759.0159938228517 1568.0646939150527  762.0388200778632 1569.4701177914358  765.062644389282 1570.8733920163384  L 765.4835967109552 1569.966309251163  Z M 567.2568832747938 1472.5167094013175  C 566.2108093379603 1471.8693243630448  565.1711948743892 1471.2115595363448  564.1381938876993 1470.5435123594184  C 563.8023362600902 1470.3448354629368  563.4721565462127 1470.1367130692686  563.1480496066506 1469.9193940711425  L 562.3915180069946 1470.6145047991158  C 562.7894793902717 1470.8877983687976  563.196439362347 1471.1477515609633  563.6117201278246 1471.3939314212964  C 564.6448322958875 1472.0618956556148  565.6845220851594 1472.7196312075866  566.7306371144418 1473.3670416767925  L 567.2568832747938 1472.5167094013175  Z M 773.2099268081549 1573.5462040819732  C 771.5412885566495 1572.7742890245904  769.8729530868654 1572.001719611423  768.2049207875104 1571.2284960224724  L 767.784355445596 1572.1357582740739  C 769.4526249463836 1572.9090918187746  771.1211976527381 1573.6817710909725  772.7900731918451 1574.4537959180268  L 773.2099268081549 1573.5462040819732  Z M 567.5701180316797 1468.497690529808  L 559 1467  L 557.086284323023 1475.4869130022462  L 567.5701180316797 1468.497690529808  Z " fill-rule="nonzero" fill="#0099cc" stroke="none" />
  </g>
</svg>