<?xml version="1.0" encoding="utf-8"?>
<svg version="1.1" xmlns:xlink="http://www.w3.org/1999/xlink" width="19.318721392676707px" height="18px" viewBox="557.9563700190133 1499.6591548553552  19.318721392676707 18" xmlns="http://www.w3.org/2000/svg">
  <g transform="matrix(0.4039326788379235 -0.9147887138387975 0.9147887138387875 0.4039326788379216 -1041.7671798342883 1418.5108852370424 )">
    <path d="M 582.5010330575172 1520.3924527286522  C 579.6779632220483 1518.6611140514874  576.9775369283985 1516.737323192907  574.4189379042467 1514.6347466914235  L 573.7840416016983 1515.4073440542265  C 576.3781286222919 1517.53908347913  579.1160100692484 1519.4895574883328  581.9782361348772 1521.244909987216  L 582.5010330575172 1520.3924527286522  Z M 593.9738510864046 1526.3679396860655  C 591.7863430721534 1525.3514788239486  589.6206804318273 1524.2886511018537  587.4783295470838 1523.180176166067  C 586.668285279005 1522.767700327052  585.8661142651608 1522.3399416743998  585.0722467978339 1521.8971296619854  L 584.5851128388729 1522.7704569236846  C 585.3890436807992 1523.2188821944092  586.2013735125505 1523.6520812782662  587.0216676178246 1524.069822349837  C 589.1756610748174 1525.1842695877574  591.353081544282 1526.2528420494311  593.5524559962431 1527.2748168431206  L 593.9738510864046 1526.3679396860655  Z M 605.9251804872406 1531.377578136979  C 602.8131045549079 1530.2102278639197  599.7358754317959 1528.9520071767163  596.6974485903087 1527.6045333930952  L 596.2920484163275 1528.5186727144987  C 599.3483190774598 1529.8740598297304  602.4436198950226 1531.139669690408  605.5739721672362 1532.3138754807537  L 605.9251804872406 1531.377578136979  Z M 618.172254484234 1535.674995574211  C 615.0113064941494 1534.631994612494  611.8655782002312 1533.5434217501916  608.7360526210324 1532.4096171588694  L 608.3954254845604 1533.3498156240344  C 611.5339984998408 1534.4868980363262  614.6888210717655 1535.5786179549905  617.858907339897 1536.624634225033  L 618.172254484234 1535.674995574211  Z M 630.5731615957003 1539.5103841484504  C 627.3753060438053 1538.586715879318  624.1909496207172 1537.6169367568446  621.0210874159927 1536.6013498303594  L 620.7159762272972 1537.5536665647144  C 623.8950024809919 1538.572189545743  627.0885648557465 1539.5447722927302  630.2956653851785 1540.4711108802246  L 630.5731615957003 1539.5103841484504  Z M 643.1083798943251 1542.9019185808165  C 640.1118349724463 1542.1244175793165  637.1197807829504 1541.3297106472571  634.1323654043912 1540.5178371151605  C 633.9064281581824 1540.4551872002423  633.6805546692602 1540.3923075811679  633.454745287936 1540.3291983554584  L 633.1855797152703 1541.292292273252  C 633.4128668688578 1541.3558145068835  633.6402187846996 1541.4191047893846  633.8676351070795 1541.4821630217311  C 636.8595691668127 1542.2952747628037  639.8561503885594 1543.0911891889052  642.8572303878558 1543.8698668880106  L 643.1083798943251 1542.9019185808165  Z M 655.7096069413959 1546.0636570185213  C 652.4720680498411 1545.2789326568884  649.2394105012523 1544.4742044033583  646.0118195494978 1543.6495183744828  L 645.7642615121619 1544.61839144055  C 648.9958448986793 1545.4440975817072  652.2325011491255 1546.249821260306  655.4740447807511 1547.0355163028173  L 655.7096069413959 1546.0636570185213  Z M 668.3600158743238 1549.02248564992  C 665.1102845392032 1548.2898898215044  661.8651124545665 1547.5372142412173  658.6246855912713 1546.7645020425875  L 658.392729296853 1547.737228251487  C 661.6371644724944 1548.5108962722898  664.8863507392209 1549.264502890055  668.1401018960446 1549.9980049178782  L 668.3600158743238 1549.02248564992  Z M 681.0563395846867 1551.7776403246999  C 677.7952550851929 1551.097362230507  674.538406566134 1550.3969337102653  671.2859806675075 1549.676394903385  L 671.0696860212926 1550.652723037784  C 674.3261350747177 1551.3741531298924  677.5870122192712 1552.075448059541  680.8521305839971 1552.756567637649  L 681.0563395846867 1551.7776403246999  Z M 693.7952991060623 1554.3284094936064  C 690.5237036534692 1553.700624823006  687.2560198171806 1553.052624256232  683.9924348583168 1552.3844449282462  L 683.7918577207968 1553.3641228405747  C 687.0594796379178 1554.0331286866656  690.3312055026071 1554.6819308110028  693.6068478222018 1555.3104920327094  L 693.7952991060623 1554.3284094936064  Z M 706.5749716762006 1556.6750957094528  C 706.4957042264816 1556.6609544666871  706.4164376681903 1556.6468082565711  706.3371719917602 1556.6326570773979  C 703.1348909319951 1556.0703912966032  699.9360309229112 1555.488812599646  696.7407665809677 1554.8879527332147  L 696.5559587534132 1555.8707274107855  C 699.7547076488476 1556.4722425370392  702.9570556104389 1557.0544582907928  706.1628278824526 1557.6173428998768  C 706.2416661912422 1557.6314177215195  706.3205053725857 1557.6454876302055  706.3993454346802 1557.6595526273977  L 706.5749716762006 1556.6750957094528  Z M 719.37719207872 1558.9144807064042  C 716.0926457100701 1558.351351125687  712.8095656506858 1557.7797022307614  709.527985038146 1557.1995397915318  L 709.3538912432884 1558.1842688662484  C 712.6371748103106 1558.7647323769256  715.9219586022216 1559.3366779252372  719.2082094644132 1559.9000997383134  L 719.37719207872 1558.9144807064042  Z M 732.1942247537601 1561.0674706753107  C 728.905955083106 1560.526506402257  725.6190942298061 1559.9770131192304  722.3336753703334 1559.4189963726324  L 722.1662270033864 1560.4048772195945  C 725.4533508091744 1560.9631835452803  728.7419173570187 1561.5129619841857  732.0318934533974 1562.054206987059  L 732.1942247537601 1561.0674706753107  Z M 745.0254866764038 1563.1339676803368  C 741.7336432813927 1562.6151933224664  738.4431511481046 1562.0878806468922  735.1540434896674 1561.5520349761323  L 734.9932481675712 1562.5390227493049  C 738.2840626867238 1563.0751464936397  741.5762623987396 1563.6027328145747  744.8698140741586 1564.121776386975  L 745.0254866764038 1563.1339676803368  Z M 757.8703941744686 1565.1138777200647  C 754.5751267954319 1564.6173168755365  751.2811530610214 1564.1122087939677  747.9885062195074 1563.5985585737499  L 747.8343712565663 1564.586608376745  C 751.1287267954316 1565.1005251523552  754.4244099153229 1565.6058953563606  757.7213873516216 1566.1027138878624  L 757.8703941744686 1565.1138777200647  Z M 770.7283629550598 1567.0071107317697  C 767.4298214880802 1566.5327859882884  764.1325159897847 1566.049905477228  760.8364797420728 1565.5584740726233  L 760.689012149623 1566.547540960744  C 763.9867588534731 1567.0392273904151  767.285775466492 1567.5223584891  770.5860286896768 1567.9969293802594  L 770.7283629550598 1567.0071107317697  Z M 783.5988081311457 1568.813580595517  C 780.2971426211158 1568.3615135292878  776.9966553479744 1567.9008825541798  773.6973796249991 1567.4316923195454  L 773.5565861110894 1568.4217313018287  C 776.857573971184 1568.8911650196044  780.1597740104559 1569.3520350361227  783.4631528977693 1569.8043366995391  L 783.5988081311457 1568.813580595517  Z M 796.4811442481656 1570.533205138078  C 793.1765048824542 1570.1034163128932  789.8729859675028 1569.665055826985  786.5706208479255 1569.2181281050182  L 786.4365078170122 1570.2090941462827  C 789.7405866770539 1570.656253798425  793.0458199311397 1571.0948417685868  796.3521742175204 1571.5248536298307  L 796.4811442481656 1570.533205138078  Z M 572.1852534259718 1512.6906481149965  C 571.024008041364 1511.5785773552766  569.9631063195737 1510.3662553140912  569.0148790007748 1509.0677726727824  L 568.0999350126207 1509.5095087270574  C 569.109833564297 1510.9113404084774  570.24578465854 1512.2179028898831  571.4936040303133 1513.4128815353567  L 572.1852534259718 1512.6906481149965  Z M 804.0625178635909 1571.503923880103  C 802.526649609898 1571.3103664841174  800.9910151499474 1571.114958437895  799.4556178291026 1570.9177001671305  L 799.3281913817585 1571.909548190024  C 800.8643854869478 1572.106908826671  802.4008168539843 1572.3024182785732  803.9374821364091 1572.496076119897  L 804.0625178635909 1571.503923880103  Z M 574.1867649702118 1507.943956406354  L 566 1505  L 562.660427175843 1513.0335081597116  L 574.1867649702118 1507.943956406354  Z " fill-rule="nonzero" fill="#0099cc" stroke="none" />
  </g>
</svg>