<?xml version="1.0" encoding="utf-8"?>
<svg version="1.1" xmlns:xlink="http://www.w3.org/1999/xlink" width="44px" height="10px" viewBox="546 1438  44 10" xmlns="http://www.w3.org/2000/svg">
  <g transform="matrix(0.7547095802227676 -0.6560590289905086 0.6560590289905137 0.7547095802227728 -807.3682203998433 726.5956042051477 )">
    <path d="M 547.3023514972244 1418.9121468855926  C 545.6583255233916 1416.0318586309972  544.1680194721124 1413.0665097198535  542.837696620688 1410.028562560475  L 541.9216745291604 1410.4296903802945  C 543.2661622767528 1413.4999847297029  544.7723366794258 1416.4969078255501  546.4338677702999 1419.407864563376  L 547.3023514972244 1418.9121468855926  Z M 554.4642471937893 1429.666590328161  C 552.4404530583414 1427.0392077656995  550.5572492542966 1424.306471092742  548.8225502819189 1421.4798651231324  L 547.9702531956405 1422.0029231282535  C 549.7234227451411 1424.859625987519  551.626678363164 1427.6214600567857  553.6720212781149 1430.2768182352038  L 554.4642471937893 1429.666590328161  Z M 563.1035654991119 1439.2689527860714  C 560.7203297122794 1436.9626420922234  558.4609297048755 1434.5317126613584  556.3348610088872 1431.9863809084948  L 555.5673756006265 1432.627447323234  C 557.7160820663047 1435.199881038567  559.999539516962 1437.6566943087896  562.4081513149088 1439.987561937425  L 563.1035654991119 1439.2689527860714  Z M 572.9847794583567 1447.5943605490286  C 570.3075512564154 1445.636981948214  567.7358826139665 1443.539167207883  565.2805814276971 1441.3097327690846  L 564.6083474847046 1442.0500715603746  C 567.0897920137932 1444.303244377647  569.6888430463564 1446.4233960476502  572.3945776063282 1448.4016162544046  L 572.9847794583567 1447.5943605490286  Z M 541.6843109252252 1407.2764937513998  C 541.0711313719371 1405.7456201731857  540.4983796652696 1404.1988616893195  539.9666516064301 1402.637827305173  L 539.002907693874 1402.909860675375  C 539.5451259961646 1404.5046222327371  540.1296997745375 1406.084667722847  540.7560079136185 1407.6483183318705  L 541.6843109252252 1407.2764937513998  Z M 582.2457965988496 1453.5645875151147  C 579.911385602936 1452.2467789932396  577.6344666170154 1450.8296273201868  575.4212946663165 1449.3170256162314  L 574.8570361293976 1450.1426237651597  C 577.0937733002595 1451.671331218224  579.3949362664933 1453.1035723158348  581.7542034011504 1454.4354124848853  L 582.2457965988496 1453.5645875151147  Z M 545.73465756594 1401.9830983339166  L 538 1398  L 533.6445617589853 1405.531278625088  L 545.73465756594 1401.9830983339166  Z " fill-rule="nonzero" fill="#000000" stroke="none" />
  </g>
</svg>