<?xml version="1.0" encoding="utf-8"?>
<svg version="1.1" xmlns:xlink="http://www.w3.org/1999/xlink" width="19.3796681411917px" height="18px" viewBox="708.1721695545789 1392.3806761899411  19.3796681411917 18" xmlns="http://www.w3.org/2000/svg">
  <g transform="matrix(-0.5344990937063017 -0.845169047485248 0.8451690474852565 -0.534499093706305 -82.84497729067675 2757.132123380734 )">
    <path d="M 707.2116149965374 1417.1427404319747  C 709.2810038241246 1414.5187813971017  711.2848873855728 1411.8438182969453  713.2214111953452 1409.1203266647535  L 712.4064302417161 1408.5408389209474  C 710.4795037491158 1411.250833061976  708.4855513364681 1413.9125391760003  706.4264182985752 1416.5234939983884  L 707.2116149965374 1417.1427404319747  Z M 698.8166794389267 1427.1080152931577  C 701.0511104172131 1424.6230908798839  703.2234646411821 1422.083040872366  705.3317317148229 1419.490215949119  L 704.5558516263487 1418.8593355418234  C 702.4580330210835 1421.439310551721  700.2964448782732 1423.9667721957824  698.0730876304956 1426.4393814453501  L 698.8166794389267 1427.1080152931577  Z M 689.7960637799754 1436.5106818941201  C 692.1862191451748 1434.1751544447754  694.5179851331138 1431.7806097505734  696.789203820856 1429.3292638327387  L 696.0556600823044 1428.6496215859413  C 693.7956974431601 1431.0888187534465  691.4754875732709 1433.4714962014043  689.0971777010186 1435.795448891078  L 689.7960637799754 1436.5106818941201  Z M 680.1873847403504 1445.3115303298584  C 682.7232973449688 1443.1351391889652  685.2047514379756 1440.89608525943  687.6294505682033 1438.5964406642167  L 686.941302118227 1437.870870742848  C 684.5286196781515 1440.1591184120607  682.059463550119 1442.387075699962  679.5361188041857 1444.5526807529384  L 680.1873847403504 1445.3115303298584  Z M 670.0307113141291 1453.473860327381  C 672.7018061908166 1451.46568122776  675.3226005180782 1449.391455104778  677.8906688929177 1447.2531015422046  L 677.2507853680246 1446.4846296334335  C 674.6954442142928 1448.6123856204656  672.0876384153834 1450.6763319803515  669.4297813541016 1452.6745586426953  L 670.0307113141291 1453.473860327381  Z M 659.3207812896225 1460.9010858492668  C 662.1300571781904 1459.0912515700213  664.8939385929996 1457.211906886378  667.6098677117159 1455.2647910299045  L 667.0272103909517 1454.4520730920196  C 664.3247412839523 1456.3895391376561  661.574557530088 1458.2595698810787  658.7792042752573 1460.0604347102615  L 659.3207812896225 1460.9010858492668  Z M 648.1449346603792 1467.6004961363744  C 651.0651643457668 1465.975753165628  653.9445805830252 1464.2787148491175  656.7805186285984 1462.5109517037615  L 656.2515310315869 1461.662322148415  C 653.429647756092 1463.4213243461895  650.5645017647074 1465.1099522239033  647.6587445946375 1466.7266430480502  L 648.1449346603792 1467.6004961363744  Z M 636.5599933555964 1473.5646206354186  C 639.5789992361301 1472.1317442870509  642.5619428896464 1470.6240891291854  645.506063763581 1469.0430504148994  L 645.0329518127804 1468.1620480982115  C 642.1034218577256 1469.7352512620519  639.1352615268853 1471.235434554783  636.131217691657 1472.661209638135  L 636.5599933555964 1473.5646206354186  Z M 624.614267548047 1478.7685884491368  C 627.7194601170686 1477.5335539371893  630.7934920626831 1476.2215689858913  633.8335185350523 1474.8338477661562  L 633.4182551468103 1473.9241465413654  C 630.3932948967686 1475.304990282692  627.3344977029486 1476.6104731008163  624.2446943162382 1477.839386842202  L 624.614267548047 1478.7685884491368  Z M 612.3575719120122 1483.190698597129  C 615.5360022571781 1482.158656118661  618.6883035249383 1481.0478124607516  621.811558431464 1479.85919564895  L 621.4558752887909 1478.9245890461389  C 618.3480990806403 1480.1073151312262  615.2114204635951 1481.2126535023647  612.0487422635763 1482.2395812288473  L 612.3575719120122 1483.190698597129  Z M 599.8410178919294 1486.8125105107595  C 603.0794316932457 1485.9877637690997  606.2968569236034 1485.0826937154036  609.4903160304789 1484.098137942911  L 609.1956963617849 1483.1425233496682  C 606.0180638818673 1484.1221997119635  602.8165840533867 1485.022784282797  599.5942196722926 1485.8434436199907  L 599.8410178919294 1486.8125105107595  Z M 714.9458628704177 1406.6564133390052  C 715.8960336289988 1405.2770309324546  716.8289920464907 1403.885870852525  717.7445211678194 1402.483256606924  L 716.8935781381274 1401.9574115206356  C 715.9869299458477 1403.3460454919225  715.0631115375147 1404.723392904338  714.1223356187317 1406.0891366289857  L 714.9458628704177 1406.6564133390052  Z M 722.1175704369193 1406.4383585752614  L 720 1398  L 711.4684404386051 1399.7036699945618  L 722.1175704369193 1406.4383585752614  Z " fill-rule="nonzero" fill="#000000" stroke="none" />
  </g>
</svg>