<?xml version="1.0" encoding="utf-8"?>
<svg version="1.1" xmlns:xlink="http://www.w3.org/1999/xlink" width="132px" height="12px" viewBox="870 508  132 12" xmlns="http://www.w3.org/2000/svg">
  <g transform="matrix(0.642787609686536 -0.766044443118979 0.766044443118981 0.642787609686538 -59.3960464297543 900.624767380484 )">
    <path d="M 905.289975733639 476.37095464271  C 903.794410549295 475.034412972514  902.287357364067 473.710782026169  900.768983990259 472.40020919168  L 899.462172440424 473.914224902701  C 900.971849221213 475.217291336749  902.470270650604 476.533341091362  903.957269877479 477.862227622737  L 905.289975733639 476.37095464271  Z M 911.210259226021 481.785338915113  C 909.745794575278 480.4147907972  908.26954834396 479.056886069412  906.781684913978 477.711775936183  L 905.440435185886 479.195369265533  C 906.919776770748 480.532775183447  908.387567695289 481.882902413956  909.843644519109 483.245600618662  L 911.210259226021 481.785338915113  Z M 917.004589706764 487.334307103826  C 915.57199864735 485.930476019514  914.127338646902 484.539014317442  912.670770570162 483.160076938655  L 911.295790679175 484.61246473101  C 912.744016157192 485.983504146497  914.18040176327 487.36699615129  915.604787554058 488.762786691808  L 917.004589706764 487.334307103826  Z M 922.669908480007 493.014930034187  C 921.269947244305 491.578557034119  919.857636078029 490.154272878889  918.433132243839 488.742236164364  L 917.025148010706 490.162651737093  C 918.441492896432 491.566600909481  919.845714948629 492.982727374473  921.237657805369 494.410873444573  L 922.669908480007 493.014930034187  Z M 928.203224952251 498.824209033978  C 926.836632548098 497.356052346937  925.45741574308 495.899697585904  924.065728114757 494.455306917849  L 922.625482782476 495.843000465734  C 924.009199419525 497.279118282054  925.380516660796 498.727131666132  926.739281808381 500.18687937985  L 928.203224952251 498.824209033978  Z M 933.601618211019 504.759077516354  C 932.269116031602 503.259912149011  930.923721645164 501.772255558877  929.565584863096 500.296273398421  L 928.093838704565 501.65051238946  C 929.444196660252 503.118040755629  930.781885203285 504.597176685324  932.106755380356 506.08775547489  L 933.601618211019 504.759077516354  Z M 938.862238566747 510.816402598625  C 937.564530009786 509.287019926423  936.253668245177 507.768846807437  934.92979923901 506.262052292131  L 933.427329155703 507.582121854225  C 934.743615606637 509.080286095249  936.04696931594 510.589763768195  937.33724515353 512.110386790818  L 938.862238566747 510.816402598625  Z M 943.975750450148 517.002032895939  C 942.717512096985 515.439119075839  941.444205652495 513.888396054463  940.156009330228 512.350080872932  L 938.622643411115 513.63413264685  C 939.902570606102 515.162573150265  941.167703503697 516.703341845728  942.417865034321 518.256223085325  L 943.975750450148 517.002032895939  Z M 948.927594157325 523.317766766474  C 947.710028313081 521.722963713622  946.477085384893 520.139959314896  945.228937936961 518.568975129528  L 943.663008120872 519.813106879418  C 944.90314352131 521.374006679382  946.128172002134 522.946849533155  947.33792210683 524.531415303685  L 948.927594157325 523.317766766474  Z M 953.715124301172 529.75894721306  C 952.539038825571 528.133313085554  951.347277476144 526.519077639092  950.140007053287 524.916466804072  L 948.542552340803 526.119853043632  C 949.742073111988 527.712176477005  950.926184364828 529.316049901669  952.094720369655 530.931248837526  L 953.715124301172 529.75894721306  Z M 958.33516433664 536.321300487184  C 957.201339567011 534.665913899644  956.051550534686 533.021518457012  954.885958165565 531.388344310915  L 953.258038474161 532.550186588653  C 954.416148729344 534.172877142574  955.558557091749 535.806716961835  956.685103668473 537.451477372174  L 958.33516433664 536.321300487184  Z M 962.784648849029 543.000472441681  C 961.693837082556 541.316431749609  960.586783256871 539.642967373639  959.4636423166 537.980313533924  L 957.806337777381 539.099840962925  C 958.922269105869 540.751821975852  960.02221658539 542.414544130555  961.106026265942 544.087774710395  L 962.784648849029 543.000472441681  Z M 967.060625587893 549.792031419738  C 966.013550582468 548.080453990743  964.949966497981 546.37903103162  963.870022194984 544.688000675637  L 962.184432436019 545.764470445057  C 963.257444412983 547.444645821085  964.314201190171 549.135147088584  965.354554862561 550.835737642851  L 967.060625587893 549.792031419738  Z M 971.160257425879 556.691471195306  C 970.157613919881 554.953492667739  969.138205268804 553.225240026264  968.102174150367 551.506955159301  L 966.38941756708 552.539653027221  C 967.418798244875 554.246907963413  968.43166315743 555.964066689437  969.427870542927 557.690888869643  L 971.160257425879 556.691471195306  Z M 975.080928705368 563.695286773388  C 975.013491832231 563.57081409589  974.945970132075 563.446387394835  974.878363651848 563.322006756738  C 973.985992619772 561.684109961654  973.078931543571 560.054259525935  972.157290133312 558.432652581842  L 970.41850314642 559.420893349172  C 971.334065444641 561.031804234925  972.235146160928 562.650902787044  973.121636347327 564.277993243405  C 973.188650966055 564.401285929266  973.255581743469 564.524624168057  973.322428632978 564.648007873923  L 975.080928705368 563.695286773388  Z M 978.812778941688 570.800393685843  C 977.902738701718 569.012185050346  976.97544594329 567.232808943175  976.031030451449 565.462514408019  L 974.266431532067 566.403891406737  C 975.204784677841 568.162822153174  976.126125003625 569.930776175647  977.030323557476 571.707506029102  L 978.812778941688 570.800393685843  Z M 982.360388915642 577.999262617587  C 981.496708460119 576.188207832889  980.615553715265 574.385538282964  979.717048008593 572.591506271681  L 977.928787984298 573.487121192004  C 978.821526046767 575.269637040115  979.697024525873 577.060734981205  980.555160885754 578.86016433097  L 982.360388915642 577.999262617587  Z M 985.721404774085 585.28711709082  C 984.904657158381 583.454417798881  984.070225076735 581.629650884527  983.218225317296 579.813071744399  L 981.407490705634 580.662330342312  C 982.254021349591 582.467248585838  983.083097085335 584.280302045019  983.894601874406 586.10123696266  L 985.721404774085 585.28711709082  Z M 988.893596469799 592.659121585486  C 988.124323609166 590.805993789488  987.337167839684 588.960340250704  986.532239332667 587.122419289129  L 984.700231563163 587.924758078218  C 985.499993112196 589.750881146808  986.282096009583 591.584687156012  987.046430791226 593.425919444051  L 988.893596469799 592.659121585486  Z M 991.874859241139 600.110384747659  C 991.153571551136 598.238058005159  990.414214374772 596.372742440338  989.656891193395 594.514699125078  L 987.804825810397 595.269585750407  C 988.557287619581 597.115702004239  989.291898750263 598.969043825969  990.008556385351 600.82935181956  L 991.874859241139 600.110384747659  Z M 994.66321500855 607.635962634975  C 993.990391066394 605.745679242123  993.299323049532 603.861939295455  992.590107680703 601.985006445551  L 990.719213536864 602.691940036879  C 991.423876344835 604.556824570572  992.110508291442 606.428472505253  992.77901327482 608.306621882737  L 994.66321500855 607.635962634975  Z M 997.256813687035 615.230861996961  C 996.632899914054 613.323876164216  995.990579583033 611.422961704538  995.329942593935 609.528384672312  L 993.441461034865 610.186896176426  C 994.097857295085 612.069311631775  994.736054474621 613.958023833641  995.35596325061 615.85276843554  L 997.256813687035 615.230861996961  Z M 999.653184913138 622.890023729354  C 999.382648888275 621.985669808686  999.108446896539 621.082416606254  998.830585700652 620.180286399245  C 998.517102379231 619.165177202089  998.198428991201 618.151678059938  997.87457804187 617.139828744289  L 995.969762082497 617.749481236221  C 996.291458884335 618.754600070851  996.608013768331 619.76135737595  996.919414318106 620.769713663004  C 997.195609390465 621.666441283392  997.468168130522 622.564284872524  997.737083819604 623.463222298227  L 999.653184913138 622.890023729354  Z M 1001.86406381224 630.602178303332  C 1001.33351451254 628.667862843697  1000.78630883131 626.738154542513  1000.2225077006 624.813268275273  L 998.303145769739 625.375451322279  C 998.863717688801 627.289312664581  999.407789210016 629.207968422261  999.935299750332 631.131204950578  L 1001.86406381224 630.602178303332  Z M 1003.89717962924 638.363090218439  C 1003.41120945242 636.417096425018  1002.90848144517 634.475325909238  1002.3890515869 632.537994889734  L 1000.45728061965 633.055934007845  C 1000.97373540594 634.982168824194  1001.47358400226 636.912817709267  1001.95677074984 638.847665682871  L 1003.89717962924 638.363090218439  Z M 1005.75145912835 646.168662665007  C 1005.31032460706 644.212017783854  1004.85233965252 642.259210070177  1004.37755526195 640.310456971581  L 1002.43439499646 640.783878752464  C 1002.90646002518 642.721470227111  1003.36182183786 644.663093093758  1003.80042972936 646.608531150209  L 1005.75145912835 646.168662665007  Z M 1007.42592347739 654.014775258081  C 1007.02985747655 652.048512157737  1006.61685733462 650.085698089113  1006.18696903967 648.126551614073  L 1004.23344522625 648.55520614909  C 1004.66087130498 650.503131471374  1005.07150595881 652.454703380836  1005.46530346306 654.409704567439  L 1007.42592347739 654.014775258081  Z M 1008.91968876456 661.897286212483  C 1008.56890035845 659.922442838711  1008.20110304253 657.950658540255  1007.81633777151 655.982152877828  L 1005.85348163115 656.365813889956  C 1006.23604313132 658.323044794206  1006.60173386158 660.283535555861  1006.95051310179 662.247067871758  L 1008.91968876456 661.897286212483  Z M 1010.23196646498 669.812034529163  C 1009.92664082685 667.829653357063  1009.60424048884 665.849939689061  1009.26480135061 663.873113968813  L 1007.29364903061 664.21157893209  C 1007.63114400669 666.177082240437  1007.95169777351 668.145456955589  1008.25527463702 670.116483896537  L 1010.23196646498 669.812034529163  Z M 1011.25350261024 676.931082721257  C 1011.02558353162 675.217381518657  1010.78494108124 673.505396546987  1010.53159516584 671.795269427342  L 1008.55318719289 672.088359673779  C 1008.84543748891 674.061097841517  1009.12068507923 676.036317449751  1009.37889931468 678.013798555244  L 1011.25350261024 676.931082721257  Z M 899.246864413221 471.094012417477  C 897.720988170274 469.792182725082  896.183923570387 468.503524274986  894.635841767675 467.22818056096  L 893.364158232325 468.77181943904  C 894.903373284848 470.039858529953  896.431634236355 471.321136095812  897.948770913059 472.615509464743  L 899.246864413221 471.094012417477  Z M 1002.62960010828 676.942244173566  L 1011 683  L 1017.72414689944 675.154883781946  L 1002.62960010828 676.942244173566  Z " fill-rule="nonzero" fill="#027db4" stroke="none" />
  </g>
</svg>