<?xml version="1.0" encoding="utf-8"?>
<svg version="1.1" xmlns:xlink="http://www.w3.org/1999/xlink" width="170px" height="16px" viewBox="1632 604  170 16" xmlns="http://www.w3.org/2000/svg">
  <g transform="matrix(0.601815023152045 -0.798635510047297 0.798635510047295 0.601815023152052 194.918673098993 1614.94637658215 )">
    <path d="M 1537.4871252529 471.938786397189  C 1535.61893064445 471.212468381266  1533.74595180706 470.498516607231  1531.86831167913 469.796977937391  L 1531.16831906916 471.670480098049  C 1533.03769692645 472.368931753361  1534.9024340045 473.079741890881  1536.76240790588 473.802863854522  L 1537.4871252529 471.938786397189  Z M 1544.93386484523 474.909805915832  C 1543.07877263285 474.150647277039  1541.21867880415 473.403768565739  1539.35370545179 472.669218805492  L 1538.62077450168 474.530082105782  C 1540.47754132162 475.261399591204  1542.32945008951 476.004991775995  1544.17637924993 476.760809852325  L 1544.93386484523 474.909805915832  Z M 1552.3270391661 478.011718389998  C 1550.48562659653 477.219955354789  1548.63899657961 476.440382111545  1546.78727032427 475.673049829831  L 1546.02162909923 477.520695227225  C 1547.865207114 478.284650979601  1549.70371131556 479.060793829006  1551.53702102837 479.84907283105  L 1552.3270391661 478.011718389998  Z M 1559.66434769062 481.243558601428  C 1557.83718775393 480.419437541724  1556.00459616236 479.607412345378  1554.16669320341 478.80753631203  L 1553.36857994707 480.641388877002  C 1555.19839549277 481.437745177167  1557.02292304294 482.246197179775  1558.84204283942 483.066691819735  L 1559.66434769062 481.243558601428  Z M 1566.94350727758 484.604320902407  C 1565.13116852887 483.748098258938  1563.31318560791 482.903873786363  1561.48967784332 482.071702897816  L 1560.65934090359 483.891191992734  C 1562.4748245988 484.719701039486  1564.2848077616 485.560210630291  1566.08917158849 486.412665595864  L 1566.94350727758 484.604320902407  Z M 1574.16225287992 488.092959528696  C 1572.36529926237 487.204901731195  1570.56249071154 486.328740678685  1568.75394555996 485.464533880518  L 1567.89164331176 487.269093337216  C 1569.69223023467 488.12949732442  1571.48710579988 489.001802963094  1573.27615219553 489.885952996927  L 1574.16225287992 488.092959528696  Z M 1581.31833824952 491.708388924936  C 1579.53732891899 490.788772309258  1577.75025571594 489.88094731074  1575.95723594014 488.984973517122  L 1575.063236705 490.77404181307  C 1576.84836656919 491.666073009885  1578.62757602761 492.569903262163  1580.40074829667 493.485473244385  L 1581.31833824952 491.708388924936  Z M 1588.40953663616 495.449484082443  C 1586.6450257871 494.498594804546  1584.87424401321 493.55938834681  1583.09730754492 492.631926356791  L 1582.17188950746 494.404946789825  C 1583.9410068363 495.328327624008  1585.70399655352 496.263401246151  1587.46074294018 497.210106279985  L 1588.40953663616 495.449484082443  Z M 1595.43364148042 499.315080889273  C 1593.68617817348 498.333214836195  1591.93223884073 497.362919170951  1590.17193860707 496.404257581729  L 1589.21538972849 498.160678443277  C 1590.96794402792 499.115121587559  1592.71416541662 500.081147613867  1594.45393927627 501.05869311428  L 1595.43364148042 499.315080889273  Z M 1602.38824516706 503.307251176409  C 1601.61877709598 502.855356161767  1600.84781948262 502.406002277785  1600.07538492695 501.959196868373  C 1599.11193216331 501.402852593186  1598.14643992042 500.85004769757  1597.17892772241 500.300793360303  L 1596.19154565082 502.040068107063  C 1597.15458542036 502.586783457488  1598.11561502178 503.13703216486  1599.07461502993 503.690803107084  C 1599.84302508285 504.135282476453  1600.60996629192 504.582296336961  1601.37542612987 505.03183738704  L 1602.38824516706 503.307251176409  Z M 1609.26303396514 507.436658692613  C 1607.5545933876 506.387340280487  1605.83839411226 505.350706817854  1604.11457773029 504.326843829823  L 1603.09324430433 506.046401340645  C 1604.80855870752 507.065214567288  1606.51629357215 508.096735283691  1608.21630800541 509.140878386559  L 1609.26303396514 507.436658692613  Z M 1616.05481619656 511.701212781147  C 1614.36746078084 510.618313876311  1612.67209733022 509.547944006228  1610.96886571681 508.490191479351  L 1609.91372647971 510.189215078459  C 1611.60855763979 511.241750698455  1613.29555944342 512.306841432068  1614.97459270829 513.384399406389  L 1616.05481619656 511.701212781147  Z M 1622.76093546896 516.099245495589  C 1621.09532517118 514.983189639954  1619.42146063341 513.879502003971  1617.73947995415 512.788273644942  L 1616.65094759048 514.466098812606  C 1618.32463262748 515.551945159695  1619.99024155231 516.650189333724  1621.64763694765 517.760740726531  L 1622.76093546896 516.099245495589  Z M 1629.37876889438 520.629036683544  C 1627.73555516567 519.480260387298  1626.08384422036 518.343686658205  1624.42377232914 517.219409266718  L 1623.30227258416 518.875379774309  C 1624.95415688873 519.99411215379  1626.59772148413 521.125080224511  1628.23283077178 522.268190678499  L 1629.37876889438 520.629036683544  Z M 1635.90572811506 525.288814659427  C 1634.2855536469 524.107767230353  1632.6566423089 522.938751943262  1631.01912849073 521.781865245122  L 1629.86510000385 523.415333411773  C 1631.4945374933 524.566514266604  1633.1154149306 525.72976389137  1634.72759858889 526.90498631478  L 1635.90572811506 525.288814659427  Z M 1642.33926031587 530.076756897402  C 1640.74275878861 528.863900265117  1639.13728415544 527.662900643648  1637.52296887244 526.473857118762  L 1636.33686300566 528.084184064692  C 1637.94321637669 529.26736314663  1639.54077270057 530.462439356876  1641.1294001745 531.669314098359  L 1642.33926031587 530.076756897402  Z M 1648.6768492227 534.990990744208  C 1647.1046450578 533.746799279507  1645.52323506043 532.514285056935  1643.93274970133 531.293549762347  L 1642.71503036271 532.880105658737  C 1644.29767134065 534.094820204436  1645.87128171711 535.321255583629  1647.43573166493 536.559310612027  L 1648.6768492227 534.990990744208  Z M 1654.91601608665 540.029594151585  C 1653.36872420237 538.754554480875  1651.81199735971 537.491007716468  1650.2459639929 536.239058104441  L 1648.99710745513 537.801222419771  C 1650.55541703964 539.046997331779  1652.10446600041 540.304312198232  1653.64412653664 541.573063287196  L 1654.91601608665 540.029594151585  Z M 1661.05432065351 545.190596428026  C 1659.53254622451 543.885207243045  1658.00111140135 542.591122133428  1656.46014253162 541.308447864749  L 1655.18063724573 542.845609607499  C 1656.71400595295 544.121957640079  1658.23788763616 545.409660234561  1659.75215657093 546.708611151942  L 1661.05432065351 545.190596428026  Z M 1667.08849542043 550.474449364568  C 1666.48123964305 549.931247439273  1665.87234812912 549.389876910149  1665.2618291745 548.850345153119  C 1664.36895927688 548.062865437385  1663.4726258062 547.279321558833  1662.57285483669 546.499736310648  L 1661.26320124098 548.01129426827  C 1662.15828504842 548.786818435873  1663.0499502178 549.566279516178  1663.93817082515 550.349654847388  C 1664.54543004138 550.886308541041  1665.15107115779 551.424790444997  1665.75508592956 551.965093228703  L 1667.08849542043 550.474449364568  Z M 1673.01255104494 555.880029112441  C 1671.5449419813 554.51402692601  1670.06722224693 553.1589279351  1668.57951375777 551.814843939098  L 1667.2387504638 553.298876886689  C 1668.71912147424 554.636331769671  1670.18955299511 555.984747320863  1671.64992371176 557.344012292279  L 1673.01255104494 555.880029112441  Z M 1678.82854876232 561.401704402109  C 1677.38824042337 560.006946277658  1675.93760777201 558.622889270367  1674.47677048948 557.249647568791  L 1673.10692152713 558.706875697927  C 1674.56055386156 560.073344478718  1676.00403189471 561.450575223382  1677.4372365357 562.838454306598  L 1678.82854876232 561.401704402109  Z M 1684.53421382767 567.037315603664  C 1683.12176954477 565.614347057021  1681.69879134587 564.201873363822  1680.26539663059 562.800011057026  L 1678.86699777326 564.22986441868  C 1680.29332288902 565.624812645917  1681.70928286338 567.030319923511  1683.1147608757 568.446270293195  L 1684.53421382767 567.037315603664  Z M 1690.12731464926 572.784658524748  C 1688.74328685566 571.334036105395  1687.34851966243 569.893698170985  1685.94312814174 568.463763553408  L 1684.51672632925 569.865682905338  C 1685.91518636407 571.288564988832  1687.30307447133 572.7217990793  1688.6802761464 574.165266930935  L 1690.12731464926 572.784658524748  Z M 1695.60566366134 578.641485272647  C 1694.25059367604 577.163776345974  1692.8845830079 575.696137513346  1691.50774435655 574.238689858994  L 1690.05389748116 575.612126884466  C 1691.42394547133 577.062386308589  1692.78321888261 578.522786647383  1694.13160557125 579.993207413865  L 1695.60566366134 578.641485272647  Z M 1700.9671181797 584.605505133486  C 1699.64153599579 583.101287658958  1698.30481612489 581.606921948918  1696.9570688501 580.122531292697  L 1695.47634553838 581.466948814944  C 1696.81744563262 582.944018356233  1698.14757271085 584.431013753675  1699.46661703393 585.927812326064  L 1700.9671181797 584.605505133486  Z M 1706.20958123978 590.674385468171  C 1704.91400531709 589.144247773201  1703.60709905946 587.623739660011  1702.28897029025 586.112986574694  L 1700.78194968062 587.42785876702  C 1702.09357734974 588.931160716114  1703.39403785747 590.444169580628  1704.68322391224 591.966760533172  L 1706.20958123978 590.674385468171  Z M 1711.33100241677 596.845752624725  C 1710.06593947914 595.290293174634  1708.78935799011 593.744237357279  1707.50136327116 592.207712726508  L 1705.96863478741 593.492525317941  C 1707.25027702945 595.021471705488  1708.52056233238 596.559902271165  1709.77938589418 598.107690090223  L 1711.33100241677 596.845752624725  Z M 1716.32937862757 603.11719286667  C 1715.09532346466 601.53702003058  1713.84956603899 599.966021200245  1712.59220912899 598.404325987381  L 1711.03437224974 599.658576463821  C 1712.28552779057 601.21256929045  1713.5251410565 602.775819848483  1714.75310977602 604.348199165452  L 1716.32937862757 603.11719286667  Z M 1721.20205714117 609.48697309709  C 1720.76016849807 608.897286774999  1720.31684644773 608.30867595561  1719.87209492294 607.721145860591  C 1719.10596302864 606.710621061234  1718.33509515312 605.703695611884  1717.55951673924 604.700402746615  L 1715.97718076347 605.923600547371  C 1716.74878278045 606.921749521878  1717.51569932898 607.923511749272  1718.2779051065 608.928854178809  C 1718.72054936767 609.513602507402  1719.16177140226 610.099426077615  1719.6015672987 610.686319695928  L 1721.20205714117 609.48697309709  Z M 1725.95318356676 615.945121842993  C 1724.77966886544 614.320144242825  1723.59541761147 612.702947338157  1722.40050753665 611.093637278425  L 1720.79474409496 612.285913995183  C 1721.98439614921 613.888142530051  1723.16343628511 615.498223204978  1724.33178711296 617.116050337647  L 1725.95318356676 615.945121842993  Z M 1730.58965363224 622.486072299012  C 1729.44498496272 620.840647553757  1728.28944416506 619.202812908281  1727.12310708654 617.572675866639  L 1725.4965625617 618.736442556629  C 1726.65776735079 620.359406427432  1727.8082233664 621.990034029918  1728.94785509503 623.628218333112  L 1730.58965363224 622.486072299012  Z M 1735.11002461296 629.107789125698  C 1733.99455816037 627.442429240125  1732.86808738722 625.78446649684  1731.73068623266 624.134009721  L 1730.08386675453 625.268904256383  C 1731.21626294779 626.912098447465  1732.33777685714 628.562765577139  1733.44833486876 630.220797299079  L 1735.11002461296 629.107789125698  Z M 1739.51288991069 635.808211851634  C 1738.42697277335 634.123435033725  1737.32992254722 632.445860098822  1736.22181124032 630.775597159384  L 1734.55522924767 631.881266396434  C 1735.65846447879 633.544179597094  1736.75068730179 635.214372617912  1737.83182602543 636.891735830922  L 1739.51288991069 635.808211851634  Z M 1743.79687949128 642.585255514584  C 1742.74084957269 640.881586014253  1741.67356126132 639.184920896645  1740.59508461173 637.495371527258  L 1738.9092586928 638.571471416249  C 1739.98298966944 640.253586179837  1741.04558154047 641.942785379927  1742.09696455954 643.638958140964  L 1743.79687949128 642.585255514584  Z M 1747.96066031102 649.436811310269  C 1746.93484621468 647.714779256244  1745.89765192487 645.999551905113  1744.84914552082 644.29124184076  L 1743.14460025199 645.337437533023  C 1744.18849286261 647.038230437983  1745.22112313626 648.745910191304  1746.24242329321 650.460364704402  L 1747.96066031102 649.436811310269  Z M 1752.00293673137 656.360747248564  C 1751.00765765861 654.620888483435  1750.0008801328 652.887632623929  1748.98267023673 651.161093437347  L 1747.25993601923 652.177059389464  C 1748.27366543706 653.896001202177  1749.27601279105 655.621630132134  1750.26691228918 657.353832912607  L 1752.00293673137 656.360747248564  Z M 1755.9224509222 663.354908816903  C 1754.95801657276 661.597764730356  1753.98196908868 659.847019697573  1752.9943725357 658.10278863381  L 1751.2539854306 659.088208708917  C 1752.23723621473 660.824764548399  1753.20898874986 662.567805693155  1754.16917925221 664.317217733622  L 1755.9224509222 663.354908816903  Z M 1759.71798325314 670.417119650699  C 1758.78469372885 668.64323701107  1757.839680002 666.875547582196  1756.88300410129 665.11416739146  L 1755.1255056627 666.068734957611  C 1756.07797185618 667.822364461911  1757.01882719345 669.582275441559  1757.94800991871 671.348352379621  L 1759.71798325314 670.417119650699  Z M 1761.17253588204 673.205118898738  C 1760.99789878892 672.867542475693  1760.82283832817 672.530185240185  1760.64735491285 672.193047988255  L 1758.87329201937 673.116466013845  C 1759.79467724449 674.886623508267  1760.70434261909 676.662856693441  1761.60222843464 678.445048981149  L 1761.17253588204 673.205118898738  Z M 1529.98913758183 469.099584322532  C 1528.10842190111 468.406332936951  1526.22314086755 467.725530259679  1524.333418227 467.05722097716  L 1523.666581773 468.94277902284  C 1525.54798897564 469.608147511707  1527.42497411593 470.285954420045  1529.2974139925 470.976155258032  L 1529.98913758183 469.099584322532  Z M 1753.06222300617 676.171468858067  L 1763 679  L 1766.63441963252 669.327823722928  L 1753.06222300617 676.171468858067  Z " fill-rule="nonzero" fill="#009999" stroke="none" />
  </g>
</svg>