<?xml version="1.0" encoding="utf-8"?>
<svg version="1.1" xmlns:xlink="http://www.w3.org/1999/xlink" width="368px" height="48px" viewBox="526 490  368 48" xmlns="http://www.w3.org/2000/svg">
  <g transform="matrix(-0.342020143325669 -0.939692620785909 0.939692620785908 -0.342020143325669 469.832294677269 1356.98011442739 )">
    <path d="M 1121.98262555062 255.504313134208  C 1123.97934841936 255.556908160874  1125.97585967059 255.617251473237  1127.97211420629 255.685341708236  L 1128.04029254669 253.68650411756  C 1126.03886688424 253.618237500627  1124.03718384134 253.557737874073  1122.03528863266 253.505006604486  L 1121.98262555062 255.504313134208  Z M 1113.9947981231 255.335261820264  C 1115.99195833891 255.367191802345  1117.98898712835 255.40687184509  1119.9858393817 255.454301052191  L 1120.03332995985 253.454864970446  C 1118.03130503146 253.407312902038  1116.02910310961 253.367530071533  1114.026769421 253.335517377564  L 1113.9947981231 255.335261820264  Z M 1106.00564903065 255.24887815711  C 1108.00303272679 255.260139675369  1110.00036520175 255.279152199344  1111.99760133898 255.30591529957  L 1112.02439906934 253.306094837217  C 1110.02198926265 253.279262409467  1108.0194828686 253.260200635174  1106.01692512076 253.248909944915  L 1106.00564903065 255.24887815711  Z M 1098.0160337947 255.245171395177  C 1100.01342708042 255.235763243671  1102.01084935583 255.23410621291  1104.00825550201 255.240200340323  L 1104.01435751492 253.240209648985  C 1102.01177725883 253.234099735255  1100.00918083183 253.235761058413  1098.0066134695 253.245193580932  L 1098.0160337947 255.245171395177  Z M 1090.02680798658 255.324141931406  C 1092.02399697029 255.294065117609  1094.02129515112 255.271738709556  1096.01865741326 255.257163211565  L 1096.0040630553 253.257216461095  C 1094.00152679692 253.271829715668  1091.99905478595 253.294213958372  1089.99669225487 253.324368683584  L 1090.02680798658 255.324141931406  Z M 1082.03882713594 255.485781309202  C 1084.03559794775 255.435039053904  1086.03255815258 255.392045659393  1088.02966264225 255.35680209682  L 1087.99437347625 253.357113452365  C 1085.99209565813 253.392448310373  1083.98996249856 253.435553075599  1081.98801922266 253.486426774371  L 1082.03882713594 255.485781309202  Z M 1074.0529466391 255.730072219345  C 1076.04908545396 255.658669956302  1078.04549383745 255.595014179297  1080.04212669388 255.539106326215  L 1079.98614649879 253.539889925283  C 1077.9843415356 253.59594260288  1075.98276162691 253.659763274731  1073.98145198504 253.731350499235  L 1074.0529466391 255.730072219345  Z M 1066.07002166745 256.056988501839  C 1068.06531472805 255.964933877189  1070.06095750387 255.880622534302  1072.05690491681 255.804056377625  L 1071.98023968731 253.805526307152  C 1069.97912194323 253.882290801912  1067.97830962535 253.966820546128  1065.97784792866 254.059113630413  L 1066.07002166745 256.056988501839  Z M 1058.09090707592 256.466495148715  C 1060.08514071534 256.353798020172  1062.07980417944 256.24884013991  1064.07485241192 256.15162387876  L 1063.97751035772 254.153994152188  C 1061.97729412335 254.251462243751  1059.97746365402 254.356692008432  1057.97806412285 254.469681069252  L 1058.09090707592 256.466495148715  Z M 1050.11645731137 256.958548307779  C 1052.10941797631 256.82522074356  1054.1028885292 256.699627565387  1056.09682394069 256.581771610208  L 1055.97881548572 254.585256144564  C 1053.97971495501 254.703417395519  1051.98108048702 254.829335912088  1049.98295722785 254.963008849963  L 1050.11645731137 256.958548307779  Z M 1042.14752632115 257.533095287311  C 1044.13900059457 257.379151564855  1046.1310647646 257.232936537968  1048.12367383369 257.094453509415  L 1047.98501161492 255.099266102406  C 1045.98724086235 255.238107859409  1043.99001642042 255.38470164382  1041.9933834031 255.539044144331  L 1042.14752632115 257.533095287311  Z M 1034.1849674616 258.190074561702  C 1036.17474208564 258.015531166139  1038.16518655178 257.848709948037  1040.15625589907 257.689614675623  L 1039.99695476521 255.69596898274  C 1038.00072772301 255.855476377855  1036.00512718058 256.022729732066  1034.01019821549 256.197725267373  L 1034.1849674616 258.190074561702  Z M 1026.2302058185 258.92924164405  C 1026.96916437127 258.856270028472  1027.70827403355 258.784836832694  1028.44753000044 258.714942521099  C 1029.69654336473 258.595980383484  1030.94584485309 258.480062990663  1032.19542333117 258.367191375746  L 1032.01550034105 256.375300887384  C 1030.76291454407 256.488444146657  1029.51060635212 256.604639954491  1028.25858692243 256.723887275662  C 1027.51679732767 256.794022098155  1026.77515449529 256.865700601113  1026.03366324364 256.938922318849  L 1026.2302058185 258.92924164405  Z M 1018.28993098335 259.773212361747  C 1020.27339356877 259.547410164272  1022.25810435021 259.332710408815  1024.24397008117 259.12912318249  L 1024.04000287869 257.139551022373  C 1022.04671390318 257.343899265793  1020.0545841945 257.559401577409  1018.06370734759 257.786047832418  L 1018.28993098335 259.773212361747  Z M 1010.36313558943 260.735587451405  C 1012.34300748046 260.480209779518  1014.32429311812 260.235914685513  1016.30689941685 260.002713646962  L 1016.07326313078 258.016407002501  C 1014.08324577141 258.250479755742  1012.09455400979 258.495688034456  1010.10728127946 258.752020318166  L 1010.36313558943 260.735587451405  Z M 1002.45158516817 261.816152563673  C 1004.42742538885 261.531256297522  1006.40484459192 261.2574202767  1008.38374987345 260.994657366682  L 1008.1204965415 259.012058647017  C 1006.13419403386 259.275803775172  1004.14938315976 259.550663405848  1002.16615717028 259.836624625495  L 1002.45158516817 261.816152563673  Z M 994.557041855432 263.014667024793  C 996.528410327825 262.70031561919  998.50152266665 262.396999662918  1000.47628617034 262.104733406492  L 1000.1834744268 260.126284194902  C 998.20132917915 260.419642954135  996.220841268475 260.724092717431  994.242103742885 261.039619181001  L 994.557041855432 263.014667024793  Z M 986.681263999142 264.330863890205  C 988.647721641272 263.98712736049  990.616087645476 263.654399026189  992.586269533182 263.33269451968  L 992.263964595867 261.358835475224  C 990.286418090466 261.681742525881  988.310694256398 262.015714611837  986.336885917949 262.360736042274  L 986.681263999142 264.330863890205  Z M 978.826005767583 265.764450004003  C 980.787114591267 265.39140491045  982.750295847618 265.029338306544  984.715457301657 264.678267203046  L 984.363730957398 262.709437962417  C 982.391223652217 263.061821383568  980.420703946845 263.42524140673  978.452264420912 263.799680957578  L 978.826005767583 265.764450004003  Z M 970.993016758716 267.315106064226  C 972.94833996711 266.912835494994  974.905899217173 266.521511264408  976.865602538061 266.141151757821  L 976.4845331267 264.177790837428  C 974.517504357413 264.55957214287  972.552627673559 264.952359158886  970.5899953898 265.356133431391  L 970.993016758716 267.315106064226  Z M 963.184041610487 268.982486693983  C 965.1331436954 268.5510802466  967.084644932877 268.130585548805  969.038453636844 267.721022356417  L 968.628126033791 265.763567054712  C 966.667013915736 266.174661210486  964.708217889559 266.596727734069  962.751829984086 267.029746795788  L 963.184041610487 268.982486693983  Z M 955.400819612248 270.766220518372  C 957.343266451042 270.305774279804  959.288275019083 269.856202771364  961.235753935187 269.417527115003  L 960.796259532516 267.466413415082  C 958.841500863321 267.906728858369  956.889221776435 268.357980882863  954.939513994653 268.820148287653  L 955.400819612248 270.766220518372  Z M 947.645084317363 272.665910247199  C 949.580443269795 272.176526772414  951.518525957509 271.69797858619  953.459241324714 271.230288171873  L 952.990678010806 269.28595064437  C 951.042708172897 269.75538930393  949.097380855603 270.235726322161  947.154787454957 270.726939131707  L 947.645084317363 272.665910247199  Z M 939.918563157095 274.681132763468  C 941.846403161579 274.162921052617  943.777128300723 273.655502775421  945.710647864412 273.158901771613  L 945.213120002152 271.221773477907  C 943.272372865982 271.720230795877  941.334430600015 272.229545822634  939.399384253467 272.749694629324  L 939.918563157095 274.681132763468  Z M 932.225369929589 276.8132557185  C 933.119298861053 276.556853351563  934.014136627663 276.303630235702  934.909866260587 276.053591172794  C 935.936294512301 275.766971661174  936.963576808698 275.483419456364  937.991699394846 275.202938355024  L 937.465317798381 273.273450750788  C 936.433380085151 273.554972653157  935.402285756944 273.839576971395  934.372048618733 274.127259895032  C 933.471780838336 274.378565976924  932.572409415522 274.633072144023  931.673951404219 274.89077357037  L 932.225369929589 276.8132557185  Z M 924.577894050703 279.091172371748  C 926.483914979194 278.502267054124  928.394399904571 277.927907966407  930.309182118922 277.368145226869  L 929.747995332564 275.448491770951  C 927.823452022618 276.011108045251  925.903227908171 276.58839507638  923.987490546998 277.180302490565  L 924.577894050703 279.091172371748  Z M 916.978327712491 281.524150601903  C 918.871977380419 280.896602844256  920.770385960037 280.283507520045  922.673387797208 279.684918127646  L 922.073275582262 277.777075018406  C 920.160572703004 278.378715874432  918.252486496599 278.994936609999  916.349183461677 279.625683454  L 916.978327712491 281.524150601903  Z M 909.429814614793 284.111183962949  C 911.310309679281 283.445253361905  913.195856601652 282.793675419312  915.086290850071 282.156506991521  L 914.447501453949 280.261263443213  C 912.547430229964 280.901680001203  910.652271246417 281.556579530211  908.762189873914 282.225904884041  L 909.429814614793 284.111183962949  Z M 901.935477338338 286.851202281141  C 903.802039898152 286.147164311093  905.673945172249 285.457373287271  907.551029819157 284.78188940048  L 906.873827488794 282.900029415319  C 904.987173919353 283.578956755231  903.105726125898 284.272264166494  901.229648282599 284.979891151458  L 901.935477338338 286.851202281141  Z M 894.498416053036 289.743072097705  C 896.350273970379 289.001217996857  898.207763248292 288.273499236501  900.070721803236 287.559979316995  L 899.355386675784 285.692281360838  C 897.482931209699 286.40943863194  895.615972901681 287.140867126145  893.754674661558 287.886503019377  L 894.498416053036 289.743072097705  Z M 887.121707235534 292.785597137713  C 888.95809445544 292.00623378761  890.800399352725 291.240888324907  892.648461168757 290.489627533276  L 891.895289155695 288.636864213599  C 890.037806368474 289.391954750648  888.186109847401 290.161201759  886.340361170567 290.944538114553  L 887.121707235534 292.785597137713  Z M 879.808402396574 295.977518804944  C 881.628559263851 295.160968603503  883.454917677288 294.358313037644  885.287318269807 293.569622146669  L 884.496620934537 291.732559892962  C 882.654879207963 292.525271338924  880.819210462023 293.332018648303  878.989774876234 294.152731424743  L 879.808402396574 295.977518804944  Z M 872.561526818682 299.317516702525  C 874.364700392086 298.464117430701  876.174356815082 297.624483794855  877.990338178001 296.798689060976  L 877.162442606961 294.978087807695  C 875.337203811239 295.808092242957  873.518322198438 296.652006127561  871.705956483238 297.509755822013  L 872.561526818682 299.317516702525  Z M 865.384078304702 302.804209179136  C 867.169522668449 301.914313861173  868.961728503473 301.038049485175  870.760539422833 300.175492513513  L 869.895788090192 298.372105385718  C 868.087807268778 299.239059463747  866.28646520284 300.119790823126  864.491919076498 301.01422261172  L 865.384078304702 302.804209179136  Z M 858.279025937702 306.43615390056  C 860.046002510023 305.510130657957  861.820016378298 304.597598024621  863.600912743007 303.698635627668  L 862.699663368997 301.913208629484  C 860.909688426301 302.816753718831  859.126631065327 303.733938222345  857.350646874747 304.664682106975  L 858.279025937702 306.43615390056  Z M 851.257810673801 310.219866900924  C 852.611845622288 309.468364069881  853.971242868298 308.726563746224  855.33589792239 307.994522948091  C 855.728382113586 307.784567241494  856.121223324751 307.575279619311  856.514419849264 307.366660990749  L 855.577045252198 305.599932696762  C 855.181503797518 305.809795477001  854.786320083431 306.020331820285  854.391495829641 306.231540810433  C 853.018087352363 306.968270932695  851.649971678029 307.714825610792  850.287254018289 308.47114743273  L 851.257810673801 310.219866900924  Z M 844.332684441854 314.175468202345  C 846.051738445194 313.165334832646  847.780066132984 312.171067086238  849.517447284145 311.192791651317  L 848.536164033235 309.450068729712  C 846.788074667467 310.434373689759  845.049094565411 311.434769528658  843.319445305424 312.451128777404  L 844.332684441854 314.175468202345  Z M 837.506860533922 318.300063086948  C 839.200570837113 317.247988232272  840.903941929115 316.211546303913  842.616756768782 315.190869363841  L 841.592941644607 313.472788285571  C 839.869570002902 314.499756089168  838.155700314674 315.542586047339  836.451550958781 316.601145284164  L 837.506860533922 318.300063086948  Z M 830.784462055978 322.59116011311  C 832.451805581489 321.497779274192  834.129191164619 320.419789221624  835.81640507526 319.35732731138  L 834.750676508402 317.664925875024  C 833.053063585073 318.733936187231  831.365339565395 319.818570348268  829.68771949678 320.918690155579  L 830.784462055978 322.59116011311  Z M 824.169549640364 327.046167264391  C 825.809519237385 325.912140892652  827.459906094992 324.793253870554  829.120499923184 323.689648765128  L 828.013501661837 322.023949257601  C 826.342672891769 323.134356347905  824.682114002196 324.260139543771  823.032036579157 325.401155399515  L 824.169549640364 327.046167264391  Z M 817.666118992986 331.662393515231  C 819.27772404581 330.488406613818  820.90011526966 329.329298480508  822.533085941731 328.185216807228  L 821.38548666285 326.547225386275  C 819.742451302105 327.698358518628  818.110060595195 328.864610725434  816.488522539042 330.045833404485  L 817.666118992986 331.662393515231  Z M 811.278098479726 336.437050456454  C 812.860365506097 335.223812166488  814.453781098614 334.02518307563  816.058142226508 332.841315911511  L 814.870635131897 331.232021997942  C 813.256385648046 332.423185835935  811.653149161535 333.62920258466  810.061129954496 334.849918575166  L 811.278098479726 336.437050456454  Z M 805.009346753529 341.367253979586  C 806.561319992695 340.115497151796  808.124797458875 338.878071129513  809.699579936005 337.655133583794  L 808.472882333591 336.075509263827  C 806.888393806239 337.305984290697  805.315279967386 338.551037092747  803.753741260976 339.810509027107  L 805.009346753529 341.367253979586  Z M 798.863650423609 346.450026018996  C 800.384392413618 345.160506771058  801.916987342467 343.885031278547  803.461239929071 342.623762060756  L 802.196092799616 341.074761498835  C 800.64232233141 342.343804452082  799.100281372032 343.627141239323  797.570166406167 344.924608339597  L 798.863650423609 346.450026018996  Z M 792.84472176816 351.682296350774  C 794.333313912165 350.355793610554  795.834100547097 349.043039092646  797.346890444865 347.744200066356  L 796.044057994386 346.22675892879  C 794.521944132872 347.533603249146  793.011907515367 348.854448828189  791.514140548604 350.18912736564  L 792.84472176816 351.682296350774  Z M 786.963058958305 357.065133233242  C 787.869430242356 356.21291127824  788.78076184089 355.365980241107  789.697007300226 354.524383292807  C 790.249667511086 354.018788959741  790.804076676563 353.515109717817  791.360224826671 353.01335462474  L 790.020494024819 351.528389514522  C 789.460421824313 352.033684873393  788.902102432952 352.540919674618  788.34554590883 353.050084780388  C 787.423078566875 353.897386113609  786.505561037866 354.750060621196  785.593040140825 355.608064792931  L 786.963058958305 357.065133233242  Z M 781.221581052343 362.599946860664  C 782.639650815021 361.198425468938  784.070783032472 359.810182654869  785.514790353142 358.435400155295  L 784.135723343014 356.98689258487  C 782.682694452466 358.370264165822  781.242621103542 359.767180155832  779.815691818289 361.177457682648  L 781.221581052343 362.599946860664  Z M 775.619756793687 368.276063086576  C 777.002474667144 366.83965250958  778.398581711085 365.41619100448  779.807895159153 364.005864918647  L 778.393173791156 362.592159344302  C 776.975055526402 364.01129657337  775.570226174014 365.443651286454  774.178869642193 366.889035971966  L 775.619756793687 368.276063086576  Z M 770.161062691508 374.089959295984  C 771.507570556831 372.619550974485  772.867785998976 371.161754182906  774.241530950233 369.716759763468  L 772.792033204752 368.338733535181  C 771.409705654301 369.792755691484  770.040992139816 371.25966020395  768.686071841523 372.739255038027  L 770.161062691508 374.089959295984  Z M 764.84888642797 380.038027367218  C 766.158348638273 378.534533841103  767.4818283248 377.043306476147  768.819152228941 375.564540491045  L 767.335777668685 374.223048816086  C 765.99009870922 375.711053529052  764.658350460409 377.211597475496  763.340707263302 378.724484217085  L 764.84888642797 380.038027367218  Z M 759.686524755818 386.116575911142  C 760.95812865488 384.580930253056  762.244051230252 383.057197774981  763.544124140005 381.545577950873  L 762.027793351737 380.241453363055  C 760.719598115717 381.762517172428  759.425641619585 383.295769310725  758.146093257045 384.841009057706  L 759.686524755818 386.116575911142  Z M 754.677181452409 392.321832562041  C 755.910137878974 390.75498779836  757.157705295746 389.199695840156  758.4197203819 387.656160292913  L 756.87137440512 386.390212135922  C 755.601474762479 387.943391064885  754.346113052379 389.508399854075  753.105453616002 391.085033625971  L 754.677181452409 392.321832562041  Z M 749.823965331432 398.649946318764  C 751.017509108996 397.052874838109  752.225947123026 395.466988618707  753.449121175185 393.892495271179  L 751.869720918115 392.665509196291  C 750.638904972442 394.249839337267  749.422917129654 395.845633528154  748.221916576468 397.452682861241  L 749.823965331432 398.649946318764  Z M 745.129888313573 405.096989934666  C 746.283278725237 403.470682884455  747.451837376219 401.855186609666  748.635411288845 400.250712597213  L 747.025936932089 399.063450075719  C 745.834968531491 400.677948188619  744.659109201792 402.303537426444  743.498512876383 403.940004981035  L 745.129888313573 405.096989934666  Z M 740.597863557308 411.658962354871  C 741.710384805474 410.004429026206  742.838338882354 408.360325277931  743.981578125877 406.726866342006  L 742.343028514116 405.580064192638  C 741.192646777217 407.223728315007  740.057645702461 408.878103754176  738.938173874448 410.542973933511  L 740.597863557308 411.658962354871  Z M 736.232141225575 418.332944636698  C 736.801735474889 417.438881740193  737.375084168198 416.54721629319  737.952172119535 415.657971912729  C 738.461534698235 414.875387258415  738.974318856228 414.095034946708  739.490509869297 413.316937384846  L 737.823901891403 412.211307316505  C 737.304238714045 412.994638759816  736.788006941557 413.780241198165  736.275221411297 414.568092052032  C 735.694836932279 415.462409203204  735.118214620585 416.359162270514  734.545369761691 417.258327482254  L 736.232141225575 418.332944636698  Z M 732.016261501662 425.106944923188  C 733.052343832908 423.402387096139  734.101887934982 421.706048231237  735.164795383292 420.018087408469  L 733.472382733689 418.95237664871  C 732.403857557663 420.649258760265  731.348766356462 422.354563193949  730.307208074851 424.06813002904  L 732.016261501662 425.106944923188  Z M 727.944139916443 431.968325799006  C 728.944053550751 430.242302419443  729.957599249678 428.524212351094  730.984681964505 426.814216713738  L 729.270176385709 425.784425171591  C 728.237665285706 427.503458557157  727.218762748081 429.230629154757  726.213564323882 430.965774993096  L 727.944139916443 431.968325799006  Z M 724.017586820863 438.914036886825  C 724.980887224699 437.16731529629  725.957983926513 435.428237839108  726.948785295715 433.696967603223  L 725.212949008777 432.703553095101  C 724.21691101025 434.44397352069  723.234650111666 436.192242430642  722.266258427881 437.948195875097  L 724.017586820863 438.914036886825  Z M 720.238347850205 445.940990318471  C 721.164606767258 444.174347060339  722.104820082181 442.415055359366  723.058899623288 440.663280199088  L 721.302504332294 439.706684369194  C 720.343382245776 441.467718092741  719.398199671856 443.236308083765  718.467045248243 445.012288486727  L 720.238347850205 445.940990318471  Z M 716.608103148026 453.046062107704  C 717.49690878957 451.260282581998  718.399820725181 449.481558768893  719.3167542812 447.710057474307  L 717.54058083019 446.790705598293  C 716.618801054437 448.57156971364  715.711117006821 450.359694520273  714.817613808499 452.154912330708  L 716.608103148026 453.046062107704  Z M 713.128466619215 460.226093539058  C 713.979423847218 458.421971653214  714.844632994204 456.624606498676  715.72401292222 454.834166629517  L 713.928850948053 453.95246742542  C 713.044823280478 455.752370210372  712.175041290012 457.559234882519  711.319586543421 459.372891996985  L 713.128466619215 460.226093539058  Z M 709.800985212494 467.47789257211  C 710.613715715261 465.656230388075  711.440837425922 463.841022950197  712.282272778306 462.03244048577  L 710.468920359602 461.188785932307  C 709.623037814089 463.006927200611  708.791544561431 464.831728456962  707.974518577736 466.663018574416  L 709.800985212494 467.47789257211  Z M 706.627138232689 474.798235260581  C 707.401280693052 472.959842638224  708.189947252295 471.127599907277  708.993063950509 469.301678892578  L 707.16232725285 468.496444054879  C 706.354965885034 470.332015511966  705.562131028743 472.173942097106  704.783897034763 474.022051077369  L 706.627138232689 474.798235260581  Z M 703.608336683073 482.183867185602  C 704.343546939031 480.329561422666  705.093407727832 478.481097962359  705.857848728742 476.638650150601  L 704.010541646272 475.872193013471  C 703.242060386354 477.724378615799  702.488236398551 479.582611660874  701.749140375272 481.446717886573  L 703.608336683073 482.183867185602  Z M 700.745922638073 489.631504902546  C 701.441873835775 487.762110371344  702.152595487097 485.898247956594  702.878020941683 484.040092448378  L 701.014964735274 483.312753757146  C 700.285705228454 485.180730074976  699.571227238114 487.054443461761  698.871597766886 488.933718203584  L 700.745922638073 489.631504902546  Z M 698.028424953452 497.137597611564  C 698.692873996793 495.255346006262  699.368381204886 493.377016301348  700.054911569099 491.502705842573  L 698.176926909849 490.814829676667  C 697.487700981115 492.696499350761  696.809541489363 494.582204052009  696.142483580689 496.471846052421  L 698.028424953452 497.137597611564  Z M 695.429751206367 504.687103596141  C 696.064616174111 502.79466862775  696.710599420118 500.905981752054  697.367667465852 499.021140851571  L 695.479131722127 498.362784758964  C 694.819483791504 500.255026221059  694.170964183507 502.151128759057  693.533606508124 504.050994106095  L 695.429751206367 504.687103596141  Z M 692.949727809359 512.27641382865  C 693.554852721516 510.37426044957  694.171153293793 508.475680434622  694.798597585983 506.580772179044  L 692.899974752182 505.952097911262  C 692.270066888589 507.8544462565  691.651346499147 509.760480777764  691.043845649481 511.670102693459  L 692.949727809359 512.27641382865  Z M 690.588964079446 519.903663691247  C 691.164200262859 517.992259241595  691.750666742503 516.084252549572  692.348333124342 514.179742498961  L 690.440089673163 513.580904515004  C 689.84007663868 515.492892355367  689.251307481223 517.408390566222  688.673812714173 519.327299875511  L 690.588964079446 519.903663691247  Z M 688.348040032735 527.566979244703  C 688.89324615761 525.64679333749  689.449734455654 523.72982874661  690.017476086473 521.816184820094  L 688.100080854302 521.247330248481  C 687.530110066148 523.168487827623  686.971436795387 525.092979109261  686.424089995659 527.020704355263  L 688.348040032735 527.566979244703  Z M 686.227506241916 535.264477688805  C 686.742548356548 533.335982094549  687.268921749362 531.41053058392  687.806599140707 529.488222944715  L 685.880523212431 528.949491547342  C 685.340734706744 530.879346856005  684.812294583131 532.812358380109  684.295230228375 534.748425939954  L 686.227506241916 535.264477688805  Z M 684.227883700997 542.994267824948  C 684.712635264668 541.057936355809  685.208764427569 539.124470989616  685.716245477461 537.193971929565  L 683.781962070729 536.685496067365  C 683.272488468163 538.623574959344  682.774411324165 540.564631804258  682.287756451938 542.508566005455  L 684.227883700997 542.994267824948  Z M 682.349663697293 550.754450520777  C 682.804005611382 548.810758914076  683.269768650377 546.869754725504  683.746928675785 544.931538548961  L 681.804913024741 544.453443149382  C 681.325879497876 546.399269458033  680.858287706088 548.347894725423  680.402161882635 550.299217962736  L 682.349663697293 550.754450520777  Z M 680.593307690731 558.543119176791  C 681.017128327962 556.59254497816  681.452410809712 554.644478852607  681.899132577179 552.699021759947  L 679.949861815702 552.25142428626  C 679.501386058305 554.204519941438  679.064394501354 556.160234873558  678.638909792247 558.118467726301  L 680.593307690731 558.543119176791  Z M 678.959247200466 566.358360194771  C 679.35244243233 564.401382640864  679.757137412281 562.446733198699  680.173311166718 560.494513169355  L 678.217264211195 560.077523591798  C 677.799456409288 562.037408737376  677.393172451643 563.999732834569  676.998433394232 565.964394184459  L 678.959247200466 566.358360194771  Z M 677.447883698866 574.198253447935  C 677.810356921218 572.235353348608  678.184364969843 570.274600827734  678.569888461512 568.316097502685  L 676.607545893175 567.929818271437  C 676.220508697961 569.896011383206  675.845032159549 571.864462521961  675.481135737279 573.83506967132  L 677.447883698866 574.198253447935  Z M 676.059340653429 582.061593731821  C 676.069235398924 582.003139035129  676.079137250898 581.944685539842  676.089046208556 581.886233250649  C 676.411563286809 579.976220253897  676.744972776872 578.068062485704  677.089258406529 576.161853074664  L 675.121102353378 575.806379094681  C 674.775503316972 577.719860456948  674.44082069858 579.635297393694  674.117070828944 581.552596441735  C 674.10717090273 581.610995767849  674.097278050318 581.66939629264  674.08739227184 581.727798015333  L 676.059340653429 582.061593731821  Z M 674.769019974383 589.945743517849  C 675.080834302941 587.972961419781  675.400726783504 586.001464618653  675.728689367898 584.03130271536  L 673.755836973 583.70289225885  C 673.426977726311 585.678440660416  673.106210647422 587.655327609496  672.793543806521 589.63350336955  L 674.769019974383 589.945743517849  Z M 673.564879099381 597.843514726008  C 673.855130065607 595.867444950278  674.153472738828 593.892572173284  674.459899613039 591.918946080856  L 672.483578298242 591.612100744116  C 672.176313641194 593.591122806042  671.877155287649 595.571394961037  671.58611076414 597.55286738739  L 673.564879099381 597.843514726008  Z M 672.447061648652 605.753965373736  C 672.715714633748 603.774843610036  672.992471915714 601.796830404101  673.277326531611 599.819975520769  L 671.29777201661 599.53473190184  C 671.012138597265 601.516991582257  670.73462465025 603.50041275235  670.465237157587 605.484945510873  L 672.447061648652 605.753965373736  Z M 671.415700946461 613.676151966165  C 671.662723907663 611.694214268206  671.917862788993 609.71329655482  672.181111171412 607.733448663919  L 670.198559561532 607.469840784363  C 669.93459144793 609.455101655398  669.678755007102 611.441435273874  669.431056675642 613.42879166558  L 671.415700946461 613.676151966165  Z M 670.470920005211 621.609129608662  C 670.696283479607 619.624612366016  670.92977352939 617.641026413094  671.171384280182 615.65842165494  L 669.186072038219 615.416480955784  C 668.943800714359 617.404506231452  668.709672293814 619.393515384533  668.483692667028 621.3834583735  L 670.470920005211 621.609129608662  Z M 669.612831510764 629.551952119519  C 669.816508618815 627.565092029425  670.028321988237 625.579074423131  670.248266290018 623.593949266859  L 668.26043020803 623.37370460484  C 668.039884570091 625.364257169441  667.827492094773 627.355704624231  667.623258125695 629.347996866029  L 669.612831510764 629.551952119519  Z M 668.841537809009 637.503672142817  C 669.023504257748 635.514706181951  669.213615683416 633.526493798476  669.411867303 631.539085013831  L 667.421744474073 631.34056265796  C 667.22295082695 633.333405094512  667.032319629344 635.327053326985  666.849855677349 637.321457197139  L 668.841537809009 637.503672142817  Z M 668.157130893647 645.463341261411  C 668.317364979582 643.472506657619  668.485751786537 641.482336634928  668.662287078067 639.492881264029  L 666.670114868027 639.316104892455  C 666.493096922234 641.310999510706  666.324249739283 643.306610734656  666.163577567207 645.302888356677  L 668.157130893647 645.463341261411  Z M 667.559692395227 653.430010110052  C 667.698175006926 651.437544314057  667.844817111344 649.445654023607  667.999615019111 647.454389352675  L 666.005631038223 647.299380049859  C 665.850409907033 649.29608891484  665.703366877471 651.293425109826  665.564505648996 653.291338383791  L 667.559692395227 653.430010110052  Z M 667.049293571402 661.402728488618  C 667.166008191774 659.408869145699  667.290888103365 657.415496164129  667.423930164322 655.422659695181  L 665.42837223894 655.289435949385  C 665.294966435881 657.287720909737  665.169745097816 659.286543849579  665.052711375192 661.285854480479  L 667.049293571402 661.402728488618  Z M 666.625995298434 669.38054547545  C 666.720928006699 667.385530397098  666.824030830793 665.390912477886  666.935301176754 663.396741900413  L 664.938407320961 663.285319601493  C 664.826832757603 665.284942317875  664.723448046429 667.285013599065  664.628255788496 669.285483125224  L 666.625995298434 669.38054547545  Z M 666.289848063934 677.362509540768  C 666.362987537282 675.366576676319  666.444300976605 673.370951721433  666.533786336138 671.375684884045  L 664.535794723357 671.286077321556  C 664.446064707418 673.286799295018  664.364528954025 675.287880365259  664.291189514552 677.289270186726  L 666.289848063934 677.362509540768  Z M 666.164801983635 681.025701134826  C 666.182378896566 680.469959168763  666.200589424506 679.914237423177  666.219433531933 679.358536981997  L 664.220582466517 679.290754843607  C 664.152707700266 681.292337444243  664.093030629592 683.29418963049  664.041552755912 685.296261037703  L 666.164801983635 681.025701134826  Z M 1129.96827593333 255.75601399601  C 1131.96434763508 255.829268435102  1133.96012755085 255.910268555192  1135.95557059912 255.999012526617  L 1136.04442940088 254.000987473383  C 1134.04381732793 253.912013618284  1132.04286751495 253.830803674309  1130.04162516005 253.757359475854  L 1129.96827593333 255.75601399601  Z M 657.597791340415 679.79116465995  L 665 687  L 672.79190172386 680.214259986877  L 657.597791340415 679.79116465995  Z " fill-rule="nonzero" fill="#aaaaaa" stroke="none" />
  </g>
</svg>