<?xml version="1.0" encoding="utf-8"?>
<svg version="1.1" xmlns:xlink="http://www.w3.org/1999/xlink" width="262px" height="44px" viewBox="1150 614  262 44" xmlns="http://www.w3.org/2000/svg">
  <g transform="matrix(0.882947592858927 -0.469471562785892 0.469471562785891 0.882947592858931 -148.639780384111 675.838402870448 )">
    <path d="M 1343.74989677265 370.380302149235  C 1345.4253354607 369.291881987242  1347.1041404531 368.208652472572  1348.78628760415 367.130629184957  L 1347.7071513212 365.446745316387  C 1346.02152804416 366.526996319198  1344.33925383229 367.612464307627  1342.66035288117 368.703133669764  L 1343.74989677265 370.380302149235  Z M 1337.06619844652 374.761599179029  C 1338.7325926032 373.659381523116  1340.40239581021 372.56232654098  1342.07558405131 371.4704500112  L 1340.98258022354 369.79553430213  C 1339.30593436987 370.889667174573  1337.63268054542 371.988989200541  1335.96284281602 373.093484568864  L 1337.06619844652 374.761599179029  Z M 1330.41890566701 379.197936145668  C 1332.07614167063 378.081996149632  1333.73682923809 376.971190501816  1335.40094448429 375.865535178567  L 1334.29414763727 374.199701831735  C 1332.62659352768 375.307641971269  1330.96247418007 376.420743078414  1329.30181352888 377.538989143821  L 1330.41890566701 379.197936145668  Z M 1323.80847167428 383.689010561193  C 1325.45643652761 382.55942431445  1327.10789522285 381.434943740373  1328.76282400786 380.315585011818  L 1327.6423096076 378.65894761069  C 1325.98396094289 379.780619473334  1324.32908953872 380.907423765781  1322.67771919653 382.039344281591  L 1323.80847167428 383.689010561193  Z M 1317.23534719529 388.234516205421  C 1318.87392853317 387.0913607279  1320.51604575292 385.95328189928  1322.16167523676 384.820296087995  L 1321.02751968461 383.172967589018  C 1319.37848953791 384.308294694507  1317.73297891321 385.448725342038  1316.09101147733 386.594243129191  L 1317.23534719529 388.234516205421  Z M 1310.69998041308 392.834143146814  C 1312.32906651016 391.677496383654  1313.9617302881 390.525896899395  1315.59794826484 389.379361257108  L 1314.45022889227 387.74145398201  C 1312.81062970133 388.890358919007  1311.17459205388 390.044338162303  1309.54213948049 391.203375114617  L 1310.69998041308 392.834143146814  Z M 1304.20281693621 397.487577763625  C 1305.82229671465 396.317518579797  1307.44539572888 395.152476960812  1309.0720906344 393.992469663076  L 1307.91088569769 392.364095291208  C 1306.28082925722 393.52649972258  1304.6543761389 394.693948878526  1303.03154973543 395.866425968026  L 1304.20281693621 397.487577763625  Z M 1297.7442997684 402.194502765271  C 1299.35406280531 401.011110940291  1300.96748638617 399.832706623977  1302.58454730562 398.659306764927  L 1301.40993598057 397.040576325646  C 1299.78953343462 398.216400993812  1298.17277574377 399.397240460853  1296.5596861613 400.583077743162  L 1297.7442997684 402.194502765271  Z M 1291.32486927828 406.954597213972  C 1292.92480581335 405.757953436399  1294.52844395079 404.56626677134  1296.13576062627 403.379554358244  L 1294.94782300277 401.770578223341  C 1293.33718483714 402.95974295567  1291.73023281106 404.153892219247  1290.12699003676 405.353008839032  L 1291.32486927828 406.954597213972  Z M 1284.9449631694 411.767536546635  C 1286.53496411219 410.557722408696  1288.12870746366 409.352834648935  1289.72617030151 408.152890596855  L 1288.52498737812 406.553778473036  C 1286.92422341284 407.756202187317  1285.32718662022 408.963579825351  1283.73389996987 410.175894021841  L 1284.9449631694 411.767536546635  Z M 1278.60501645037 416.632992596981  C 1280.18497338807 415.410090588787  1281.76871328532 414.192083888723  1283.35621336396 412.978990014787  L 1282.14186704233 411.389850936186  C 1280.55108642417 412.605451646155  1278.96407375763 413.825975334602  1277.38085186816 415.051404447158  L 1278.60501645037 416.632992596981  Z M 1272.30052759659 421.546275902233  C 1272.93900881255 421.044840027989  1273.57885072323 420.545139158134  1274.22004624908 420.047178821622  C 1275.15412924241 419.315574199016  1276.08955678887 418.585687873929  1277.02632414384 417.857523548452  L 1275.79889722317 416.2784658692  C 1274.86127681243 417.007293288637  1273.92499588259 417.737842288415  1272.99005917156 418.470109171686  C 1272.34709256869 418.969454375632  1271.70548105807 419.470541983324  1271.06523171483 419.973366469206  L 1272.30052759659 421.546275902233  Z M 1266.06710555165 426.532080344362  C 1267.61433076238 425.271786264359  1269.16995234656 424.021835366525  1270.73386631062 422.782311210309  L 1269.49158230852 421.214915134603  C 1267.92069247862 422.4599682102  1266.35813201687 423.715494536105  1264.80400538077 424.9814101801  L 1266.06710555165 426.532080344362  Z M 1259.92342567297 431.628058550146  C 1261.44797068121 430.340421357983  1262.98109485584 429.062976241606  1264.52269570722 427.795808598457  L 1263.25270666895 426.250775316391  C 1261.70422947976 427.523595183191  1260.16426677767 428.80673836607  1258.63292150949 430.100119086668  L 1259.92342567297 431.628058550146  Z M 1253.87143499034 436.832595523105  C 1255.37281664355 435.518023291481  1256.88295753722 434.213488799202  1258.4017567181 432.919079254692  L 1257.10446512338 431.396898411867  C 1255.57889131193 432.69708169301  1254.06201440813 434.007435084431  1252.55393581555 435.32787098871  L 1253.87143499034 436.832595523105  Z M 1247.91305147579 442.144041862761  C 1249.39079396227 440.802951200499  1250.87747298732 439.471740760048  1252.37298916611 438.150499533124  L 1251.04880614725 436.65165353284  C 1249.54661919213 437.978788179591  1248.05330880904 439.315936507722  1246.5689748261 440.663009128567  L 1247.91305147579 442.144041862761  Z M 1242.05016343575 447.56071428736  C 1243.50379843543 446.193530207395  1244.96654443962 444.836065700533  1246.4383036635 443.488411513528  L 1245.08764887514 442.013375363903  C 1243.60932484326 443.367040786209  1242.14005423468 444.730560287478  1240.67993527041 446.103842716177  L 1242.05016343575 447.56071428736  Z M 1236.2846289126 453.080896167328  C 1237.71369574543 451.688051952039  1239.15204516136 450.304763580806  1240.5995810064 448.931123526768  L 1239.22288249252 447.480364690199  C 1237.76888988827 448.860131889966  1236.32412468939 450.24959044339  1234.8886834787 451.648647464908  L 1236.2846289126 453.080896167328  Z M 1230.61827509587 458.702838069298  C 1232.02232086788 457.284775133135  1233.43581785971 455.876101283636  1234.85867157883 454.476910690909  L 1233.45636563707 453.050888935927  C 1232.02716525381 454.456320642993  1230.60736333366 455.871277907095  1229.1970547907 457.295666138019  L 1230.61827509587 458.702838069298  Z M 1225.05289774313 464.424758310539  C 1226.43147748988 462.981926060191  1227.81967409798 461.548313163537  1229.21739476622 460.124015457865  L 1227.7899258096 458.723182713426  C 1226.38597058365 460.153833524158  1224.99158190005 461.593841076475  1223.606852974 463.043109105547  L 1225.05289774313 464.424758310539  Z M 1219.59026061091 470.244843523591  C 1220.94293743857 468.777699215538  1222.30539372139 467.31960160642  1223.67753837884 465.870648170392  L 1222.22535879497 464.495448382655  C 1220.84709366203 465.950864901083  1219.47856011892 467.415466380318  1218.11984965237 468.889154911477  L 1219.59026061091 470.244843523591  Z M 1214.30159363319 476.196295421844  C 1215.44554205294 474.857809889441  1216.60487929488 473.532553471069  1217.77937436683 472.220790217487  C 1217.93307352039 472.052071928455  1218.0869014712 471.883471016742  1218.24085808521 471.714987629255  L 1216.76442809288 470.365856620888  C 1216.6078517969 470.537206873782  1216.45140798914 470.70867814451  1216.29509680967 470.880270279534  C 1215.10838594122 472.205577648701  1213.9370142368 473.544540498816  1212.78121584171 474.896891184832  L 1214.30159363319 476.196295421844  Z M 1209.23282868861 482.340095921825  C 1210.47321518998 480.782254698438  1211.7338556647 479.240648254289  1213.01442883811 477.715669468333  L 1211.48281681735 476.429526156766  C 1210.19106694561 477.967814785705  1208.9194237429 479.522876197153  1207.66821128794 481.094314083172  L 1209.23282868861 482.340095921825  Z M 1204.38064023522 488.656339256257  C 1205.56613802727 487.056332089043  1206.77244176299 485.471846010764  1207.99924401548 483.903284828217  L 1206.4238600268 482.671146326168  C 1205.18635038252 484.253397733941  1203.96951816374 485.851713028139  1202.77367348056 487.465684877587  L 1204.38064023522 488.656339256257  Z M 1199.7508903288 495.137394606355  C 1200.88006718064 493.497154505838  1202.03057681028 491.871703052479  1203.20212600995 490.261454493147  L 1201.58487331596 489.084809379369  C 1200.40309896691 490.709112006653  1199.24254781888 492.348750217108  1198.10351563874 494.003306148368  L 1199.7508903288 495.137394606355  Z M 1195.39538633012 501.786796026741  C 1196.43812825743 500.096377064335  1197.51603669794 498.427904861663  1198.6284075281 496.782469316998  L 1196.97150527086 495.662346596075  C 1195.84354934391 497.330835848655  1194.7505386489 499.022684519016  1193.69318717465 500.736787438622  L 1195.39538633012 501.786796026741  Z M 1191.41482087771 508.660765833689  C 1192.36192017343 506.91496231683  1193.345352308 505.189115471388  1194.36447487276 503.484352674563  L 1192.64783192354 502.458128047634  C 1191.61443073571 504.186775768855  1190.61722002606 505.936802941038  1189.65685120386 507.707066391612  L 1191.41482087771 508.660765833689  Z M 1187.82277742959 515.745509025549  C 1188.67130144755 513.949726748552  1189.55721212718 512.171849259816  1190.47993076387 510.413037924586  L 1188.70886262275 509.483889045496  C 1187.77321604974 511.267342563116  1186.87489313913 513.070129364455  1186.01448070358 514.891071812708  L 1187.82277742959 515.745509025549  Z M 1184.66123980283 523.016032294484  C 1185.15055346527 521.758989487785  1185.66751845017 520.512886051092  1186.21175801546 519.278630091539  C 1186.46626825232 518.6997332844  1186.72462245111 518.122534089257  1186.98680350032 517.547070735584  L 1185.16679419227 516.71787466792  C 1184.90108982632 517.301071378676  1184.63926154766 517.886026268906  1184.38132667834 518.472700639161  C 1183.82538951555 519.73352472621  1183.29730667209 521.006447779638  1182.79746278945 522.290542636117  L 1184.66123980283 523.016032294484  Z M 1182.1118392181 530.505337463167  C 1182.66812747618 528.606529781445  1183.28566844195 526.726206200012  1183.9634941078 524.867314163084  L 1182.08451342504 524.182163381269  C 1181.39191814127 526.081560118034  1180.76092114311 528.002855386229  1180.19251153077 529.943037517713  L 1182.1118392181 530.505337463167  Z M 1180.21683267952 538.186358584725  C 1180.60754315501 536.246700737945  1181.06087052441 534.320183696374  1181.57610418813 532.409827313392  L 1179.64510299522 531.889025630447  C 1179.11864254452 533.841008105926  1178.65543730774 535.809503375901  1178.2562133682 537.791425785284  L 1180.21683267952 538.186358584725  Z M 1179.05155541159 545.988134873707  C 1179.20894716381 544.265325536516  1179.43265055564 542.549219062  1179.72216795112 540.843632988623  C 1179.76286889123 540.605561095147  1179.80450936253 540.367650778909  1179.84708839191 540.12990759973  L 1177.87841246348 539.777324150281  C 1177.83483644789 540.02063407613  1177.79222249479 540.264115323088  1177.75057160318 540.507762183071  C 1177.45236209956 542.264373177219  1177.22195055066 544.031822744805  1177.05984974168 545.806177393837  L 1179.05155541159 545.988134873707  Z M 1178.79483777345 553.862425045808  C 1178.74374615889 551.892028097849  1178.77916525951 549.920338084119  1178.90099281763 547.953047426467  L 1176.90481672271 547.829431092358  C 1176.77937192508 549.855133505203  1176.74290117922 551.885365897492  1176.79550977902 553.914266830975  L 1178.79483777345 553.862425045808  Z M 1179.46116116172 561.708255190107  C 1179.43105675645 561.505248590059  1179.40193413517 561.302097611283  1179.3737943192 561.098809378379  C 1179.13852149894 559.350245531204  1178.97203876383 557.593113100246  1178.87473129645 555.831477472655  L 1176.87777545831 555.941783322538  C 1176.9780419933 557.756989339554  1177.14963705324 559.567551495304  1177.39216307403 561.36927494564  C 1177.42134845359 561.580206479818  1177.45155969489 561.790994799789  1177.4827957257 562.001632424324  L 1179.46116116172 561.708255190107  Z M 1181.09490236597 569.40810335409  C 1180.56781969243 567.510521697173  1180.12907181966 565.589504508224  1179.78007423567 563.651249371307  L 1177.81172736095 564.005665201629  C 1178.17168860236 566.004810058956  1178.62421961173 567.986175443202  1179.16786043389 569.943369075006  L 1181.09490236597 569.40810335409  Z M 1183.66631998609 576.847497381416  C 1182.90910377859 575.029461104409  1182.23665527707 573.177267877745  1181.65114393433 571.296893245672  L 1179.74157616906 571.891494750727  C 1180.34548118004 573.830940804013  1181.03905445531 575.741320141254  1181.82005838936 577.616469498211  L 1183.66631998609 576.847497381416  Z M 1187.12500309644 583.931281161495  C 1186.42770785579 582.676938777402  1185.76442823063 581.403986618808  1185.13589015668 580.11381788614  C 1184.90156362953 579.6298590389  1184.67337770705 579.142950963682  1184.45138732049 578.653210874019  L 1182.62978838533 579.478908954085  C 1182.85908579758 579.984769306751  1183.09479197889 580.487700139185  1183.33685002236 580.987580028008  C 1183.98147810011 582.310875244085  1184.66175919563 583.616503346743  1185.3769479511 584.903033809483  L 1187.12500309644 583.931281161495  Z M 1191.29963609973 590.635356172656  C 1190.1736084557 589.012267142292  1189.10833025101 587.347864377792  1188.10600983517 585.645598229508  L 1186.38257843607 586.660381069637  C 1187.41005758182 588.405374926115  1188.50207478753 590.111555009462  1189.65636627305 591.775384363854  L 1191.29963609973 590.635356172656  Z M 1196.11743345701 596.893232097564  C 1194.83625911171 595.389587008938  1193.61144594316 593.838817226534  1192.44553302102 592.244137536571  L 1190.83102576436 593.424546922411  C 1192.02620366787 595.059253848142  1193.28176024262 596.648948706277  1194.59509268707 598.190336017904  L 1196.11743345701 596.893232097564  Z M 1201.48480067825 602.726176259495  C 1200.09342288071 601.312536121186  1198.73744664101 599.864483058697  1197.41813167186 598.383362324835  L 1195.92469732637 599.713645699046  C 1197.26608645848 601.219547854484  1198.64475026042 602.691829065689  1200.05940794257 604.129121571709  L 1201.48480067825 602.726176259495  Z M 1207.23351012637 608.191677908056  C 1205.75144009259 606.873429437135  1204.30241133171 605.518495902035  1202.88777000295 604.128136046786  L 1201.4858510959 605.554538296524  C 1202.92416154382 606.968161004644  1204.39743477835 608.345764655941  1205.90430211695 609.686069445671  L 1207.23351012637 608.191677908056  Z M 1213.33204636709 613.263879038726  C 1211.76581036049 612.046827113892  1210.23010984531 610.790979526775  1208.72637149952 609.497502969766  L 1207.42214135058 611.013742963497  C 1208.95103954528 612.328861367201  1210.51243468549 613.60572121063  1212.10487622273 614.843136280844  L 1213.33204636709 613.263879038726  Z M 1219.73552448915 617.978702863037  C 1218.19485674065 616.894428406658  1216.67030235144 615.787437008138  1215.16236104617 614.658091521633  C 1215.07756517956 614.5947799358  1214.99285342474 614.531355773441  1214.90822600584 614.467819202365  L 1213.70742776433 616.067220209988  C 1213.79307786299 616.131524588546  1213.87881292681 616.195715720115  1213.96463273096 616.259793436361  C 1215.48796726187 617.400649297202  1217.02807989646 618.518928710064  1218.58446607031 619.614265309539  L 1219.73552448915 617.978702863037  Z M 1226.33717847673 622.422195821872  C 1224.66384514593 621.345816628746  1223.007418781 620.24337808326  1221.36850494091 619.115283216628  L 1220.23453171494 620.76273722897  C 1221.89059282647 621.902634881333  1223.56434968908 623.016607781175  1225.25519040808 624.104248680527  L 1226.33717847673 622.422195821872  Z M 1233.11805252759 626.587074229853  C 1231.40136970111 625.58127272028  1229.70049458687 624.54873076242  1228.01604899346 623.489825834583  L 1226.95162624629 625.183048860441  C 1228.65369549087 626.253032668562  1230.3723661515 627.296377681949  1232.10700991386 628.312702472905  L 1233.11805252759 626.587074229853  Z M 1240.06177623826 630.457182648249  C 1239.87609164368 630.360490235182  1239.69048690957 630.263644537906  1239.50496222595 630.166645655566  C 1237.93801023247 629.327463045506  1236.38283942603 628.466465308823  1234.8399035966 627.583903679734  L 1233.84687599192 629.319961333253  C 1235.40883300776 630.213403109749  1236.98319855635 631.084974777424  1238.56951154931 631.934421076903  C 1238.75893975029 632.033467115046  1238.9484509751 632.132354287038  1239.13804502363 632.231082488467  L 1240.06177623826 630.457182648249  Z M 1247.17690250099 634.067923130061  C 1245.38870899253 633.183923575664  1243.60749715808 632.28587081916  1241.83343233078 631.373848218325  L 1240.919016686 633.152567990683  C 1242.70240974855 634.069386110397  1244.49298739802 634.972160930744  1246.29058343195 635.860808655644  L 1247.17690250099 634.067923130061  Z M 1254.36620137707 637.528623959677  C 1252.55985873013 636.682327629935  1250.76020144444 635.821834744039  1248.96739656523 634.947225173438  L 1248.09049211823 636.744734169476  C 1249.89272377002 637.623942536974  1251.70184385902 638.488959992629  1253.51768446167 639.339706245018  L 1254.36620137707 637.528623959677  Z M 1261.62650935052 640.837762320685  C 1259.80281241227 640.029541612405  1257.98550158072 639.206987240853  1256.17474553972 638.370175556003  L 1255.33573815585 640.185682815642  C 1257.15601535867 641.026894551794  1258.98288181789 641.853774008068  1260.8161679627 642.666244433033  L 1261.62650935052 640.837762320685  Z M 1268.95463165917 643.993882088889  C 1267.11438291319 643.224092644417  1265.28021820929 642.439838736814  1263.4523077957 641.641193160983  L 1262.65156666438 643.473899804345  C 1264.48908843945 644.276744749723  1266.33289739061 645.065122353839  1268.18282237443 645.838959439028  L 1268.95463165917 643.993882088889  Z M 1276.34734370039 646.995594473053  C 1274.49135291358 646.264575023774  1272.64114142708 645.518966676334  1270.79688097854 644.758838638505  L 1270.03475845089 646.607938217448  C 1271.88871623125 647.37206309521  1273.74865634084 648.121591936408  1275.61440613892 648.856455169342  L 1276.34734370039 646.995594473053  Z M 1283.80139245008 649.841578626011  C 1281.93047631635 649.149650843314  1280.06503219804 648.443016146971  1278.20523324675 647.721740127223  L 1277.48206468046 649.5864189802  C 1279.3516426668 650.311487551538  1281.22689550312 651.021837813736  1283.10764912729 651.717403831645  L 1283.80139245008 649.841578626011  Z M 1291.31349789407 652.530582225879  C 1289.42847967493 651.878050579588  1287.54862377847 651.210700475678  1285.67410469402 650.528593857974  L 1284.99020830585 652.408031468073  C 1286.87458382551 653.093724680191  1288.76432421869 653.764583787069  1290.65925407868 654.420546519201  L 1291.31349789407 652.530582225879  Z M 1298.88035447141 655.061422027118  C 1296.98206363373 654.44857365153  1295.08862315442 653.820801794936  1293.20020878372 653.178164727484  L 1292.55588550944 655.071534083477  C 1294.45422937833 655.717550209945  1296.35762578366 656.348622962568  1298.26589805114 656.964693764833  L 1298.88035447141 655.061422027118  Z M 1306.49863252898 657.4329843812  C 1304.58790437998 656.860088948734  1302.68171249074 656.272171578672  1300.7802337951 655.669286841847  L 1300.17576715704 657.575754802103  C 1302.08724404459 658.181809575651  1304.00345890824 658.772818282314  1305.92423388382 659.348726064319  L 1306.49863252898 657.4329843812  Z M 1314.15822338885 659.723572354423  C 1312.24177829108 659.159845664443  1310.32733997737 658.589319004098  1308.4149446202 658.012003153242  L 1307.83694557486 659.926661635473  C 1309.7538712018 660.505345088765  1311.6728446248 661.077223268634  1313.59382958577 661.642285369712  L 1314.15822338885 659.723572354423  Z M 1321.83455184975 661.942167454236  C 1319.91285733837 661.396603710302  1317.99310516461 660.844221307863  1316.07533160137 660.285030683947  L 1315.51547923232 662.205073736817  C 1317.43779580576 662.765589026352  1319.3620956768 663.319279966417  1321.28834248671 663.866136095281  L 1321.83455184975 661.942167454236  Z M 1329.53153383036 664.088012566681  C 1327.60476203898 663.560660637045  1325.6798679648 663.02647197154  1323.75688797787 662.48545666343  L 1323.21523243326 664.410712301261  C 1325.14276776388 664.953009219519  1327.07222171598 665.488463323541  1329.00355783345 666.017064496174  L 1329.53153383036 664.088012566681  Z M 1337.24847988227 666.160915480117  C 1335.31680339928 665.65182260173  1333.38693984488 665.135875522502  1331.458925683 664.613083991031  L 1330.93551548102 666.543379761233  C 1332.86809691197 667.067409732569  1334.80253211659 667.584579037881  1336.73878454433 668.094877905419  L 1337.24847988227 666.160915480117  Z M 1344.98469876877 668.160690516616  C 1343.04829062191 667.669902290896  1341.11363045262 667.172243013319  1339.18075481549 666.667722086945  L 1338.67563684 668.602885085465  C 1340.61309126261 669.108601170515  1342.5523344447 669.60743935221  1344.49332974519 670.099390205238  L 1344.98469876877 668.160690516616  Z M 1352.73949752685 670.0871585486  C 1350.79853116767 669.614718937344  1348.85924767849 669.135392038684  1346.92168370125 668.649186909297  L 1346.43490319763 670.589043796104  C 1348.37705706654 671.076400695911  1350.3209345207 671.556863071152  1352.26649883145 672.030421843717  L 1352.73949752685 670.0871585486  Z M 1360.5121815292 671.940147014879  C 1358.56683081756 671.48609833633  1356.62309771761 671.02514675175  1354.68101895535 670.557300970622  L 1354.2126195264 672.501677985237  C 1356.1592988754 672.970632045359  1358.10763648101 673.432675577273  1360.0575955303 673.887799850886  L 1360.5121815292 671.940147014879  Z M 1368.30205454647 673.719489936115  C 1366.35249373496 673.283872861168  1364.40448513192 672.841337879883  1362.45806554414 672.391893353769  L 1362.00808914622 674.340616330827  C 1363.95911960371 674.791125545236  1365.91174284064 675.234708846799  1367.8659219631 675.671357854218  L 1368.30205454647 673.719489936115  Z M 1376.10841880962 675.425027929683  C 1374.15482252794 675.007881478243  1372.20271291247 674.583802739822  1370.2521268475 674.152799727206  L 1369.82061378673 676.105694112057  C 1371.77582059137 676.537718126902  1373.7325545556 676.962801464642  1375.69077870786 677.380936093529  L 1376.10841880962 675.425027929683  Z M 1383.93057507244 677.056608223954  C 1381.97311831175 676.657969761441  1380.01708254186 676.252385252256  1378.06250472123 675.839862359743  L 1377.6494936499 677.796753224089  C 1379.60870166627 678.210253341308  1381.56937108558 678.616798638868  1383.53146486192 679.016381435287  L 1383.93057507244 677.056608223954  Z M 1391.76782267414 678.614084671972  C 1389.80668077141 678.233989905975  1387.84689405679 677.846935955798  1385.88849955959 677.452930134659  L 1385.4940274727 679.41364219222  C 1387.45706120695 679.80858137301  1389.42149045661 680.196552214556  1391.38727810471 680.577547386332  L 1391.76782267414 678.614084671972  Z M 1350.46954492298 366.054343791393  C 1352.15391390399 364.979795336346  1353.84160621386 363.910465148248  1355.53259757906 362.846368606921  L 1354.46740242094 361.153631393079  C 1352.77291665335 362.219926870237  1351.08173675853 363.291466809393  1349.39388706016 364.368235798957  L 1350.46954492298 366.054343791393  Z M 1390.69905935302 687.152591679549  L 1399 681  L 1393.54927393559 672.222210678607  L 1390.69905935302 687.152591679549  Z " fill-rule="nonzero" fill="#aaaaaa" stroke="none" />
  </g>
</svg>