<?xml version="1.0" encoding="utf-8"?>
<svg version="1.1" xmlns:xlink="http://www.w3.org/1999/xlink" width="118px" height="16px" viewBox="1020 548  118 16" xmlns="http://www.w3.org/2000/svg">
  <g transform="matrix(0.190808995376544 -0.981627183447671 0.981627183447663 0.190808995376547 327.332379991808 1509.08592951068 )">
    <path d="M 1073.07839309028 514.999249602613  C 1073.14253587516 513.009854882915  1073.23534080204 511.021487672309  1073.35677897123 509.034767153797  L 1071.36050479209 508.912745017696  C 1071.23789446669 510.918641935376  1071.14419375989 512.926201439498  1071.07943185036 514.934798370525  L 1073.07839309028 514.999249602613  Z M 1072.97474793435 522.959661428079  C 1072.96242224796 520.969271083183  1072.97877701905 518.978806453969  1073.0238071547 516.988887376598  L 1071.0243190356 516.94364070187  C 1070.9788542561 518.952767051824  1070.96234162404 520.962444219438  1070.97478628151 522.972046385727  L 1072.97474793435 522.959661428079  Z M 1073.17697261436 530.918179124747  C 1073.08819665188 528.929731369311  1073.02807712426 526.940107645823  1072.99663275288 524.949927528567  L 1070.99688233862 524.981523108363  C 1071.02863022014 526.990913017831  1071.08933003877 528.99974116306  1071.17896289243 531.007381989453  L 1073.17697261436 530.918179124747  Z M 1073.6847686062 538.863054327042  C 1073.51967341873 536.879484508086  1073.38316834085 534.893638773291  1073.27529588062 532.906135520482  L 1071.2782352032 533.0145267134  C 1071.38714887952 535.02121392055  1071.52497154376 537.026227610857  1071.69166027757 539.028943417518  L 1073.6847686062 538.863054327042  Z M 1074.49738630131 546.782558808446  C 1074.2562156024 544.806795072172  1074.04352648309 542.827658831979  1073.85938517537 540.845766396357  L 1071.8679622962 541.030793195294  C 1072.05388098891 543.031815428039  1072.26862304491 545.030054861756  1072.51212159293 547.02488923918  L 1074.49738630131 546.782558808446  Z M 1075.61362611326 554.665001794702  C 1075.29673591915 552.699960763963  1075.00817673015 550.730455619744  1074.74803840436 548.757099671347  L 1072.76519306234 549.018488939703  C 1073.02784231823 551.010892288584  1073.31918676372 552.999407664218  1073.63913567333 554.983415837459  L 1075.61362611326 554.665001794702  Z M 1077.043914143 562.489225862832  C 1076.85016238556 561.558829059244  1076.66488564113 560.626687483055  1076.48810694675 559.692917035432  C 1076.29771479676 558.672817291672  1076.11498857119 557.651301667841  1075.93994373752 556.628456633534  L 1073.96860300937 556.965822508412  C 1074.1454826655 557.999389019047  1074.33013060662 559.031611068369  1074.5225311769 560.062401136819  C 1074.70171296493 561.008949562883  1074.88951680781 561.95384547639  1075.08591931242 562.896971179693  L 1077.043914143 562.489225862832  Z M 1078.8613619698 570.22702638058  C 1078.35797568358 568.304467869829  1077.89123976776 566.372499335994  1077.46140796849 564.432171115115  L 1075.50874609979 564.864735129478  C 1075.94406846314 566.829848618553  1076.416766347 568.786495636031  1076.92658276394 570.733612429138  L 1078.8613619698 570.22702638058  Z M 1081.06915297742 577.862622776555  C 1080.46884755352 575.96808790529  1079.90466772536 574.062295169356  1079.37692021554 572.146280674032  L 1077.44872662198 572.677382797701  C 1077.98321544671 574.617871983762  1078.55460196712 576.548008840232  1079.16257554262 578.46674402688  L 1081.06915297742 577.862622776555  Z M 1083.66159743706 585.376337249391  C 1082.96591993089 583.514708449704  1082.30575014604 581.640002956561  1081.68144699111 579.753239974321  L 1079.78269084715 580.381511496646  C 1080.4149686947 582.292375518101  1081.08357132353 584.1910280311  1081.78813524045 586.07643681223  L 1083.66159743706 585.376337249391  Z M 1086.63201432412 592.748806101317  C 1085.84275757585 590.924881002604  1085.08829916703 589.086094081779  1084.3690492673 587.23344501567  L 1082.50462388373 587.957266809398  C 1083.23306130207 589.833581152073  1083.99715697423 591.695856277886  1084.79649549112 593.543079740377  L 1086.63201432412 592.748806101317  Z M 1089.97274853607 599.961029640609  C 1089.0919465502 598.179508705541  1088.24514384263 596.381379120302  1087.432800787 594.567618457928  L 1085.60751100032 595.385125151877  C 1086.4302307233 597.222054340063  1087.28785027722 599.043152783625  1088.17990340772 600.84743042228  L 1089.97274853607 599.961029640609  Z M 1093.67519062043 606.994421145961  C 1092.70511332398 605.259895556843  1091.76814862465 603.507057291888  1090.86480591368 601.736859301005  L 1089.08335570352 602.645944087335  C 1089.99823748873 604.43875414534  1090.94717074116 606.213982728609  1091.92963956277 607.970664714495  L 1093.67519062043 606.994421145961  Z M 1097.74584238545 613.816920810646  C 1096.87745754052 612.444895005312  1096.0294759476 611.060061288526  1095.20217754824 609.662876831189  C 1095.01910415256 609.350114540212  1094.83711719939 609.036717572551  1094.65621997933 608.722691594896  L 1092.92320034574 609.721011658598  C 1093.10724550775 610.040502261688  1093.29240443009 610.359349980035  1093.47867373414 610.677548995576  C 1094.31686226227 612.093223016223  1095.17602903148 613.496370865722  1096.05588982868 614.886528381612  L 1097.74584238545 613.816920810646  Z M 1102.15939061941 620.430211421802  C 1101.01614823087 618.803888753917  1099.90254026379 617.156934667867  1098.81911773262 615.490164078371  L 1097.14224045195 616.580156090066  C 1098.23886187821 618.26723226629  1099.36603647726 619.934250522684  1100.52320652185 621.580386016755  L 1102.15939061941 620.430211421802  Z M 1106.88795453589 626.822058104021  C 1105.66731220958 625.252994405419  1104.47527065163 623.66188869239  1103.31241968553 622.049528245815  L 1101.69028247111 623.219430317613  C 1102.86729997656 624.851433494324  1104.07386369095 626.46192299973  1105.30937660519 628.050101961833  L 1106.88795453589 626.822058104021  Z M 1111.92044317878 632.977468633003  C 1110.62526395953 631.469344178896  1109.35758477178 629.93781881416  1108.11803286459 628.38365033924  L 1106.5544404768 629.630718438761  C 1107.80909333964 631.203820714745  1109.09221614624 632.754004028757  1110.40317400601 634.28050134839  L 1111.92044317878 632.977468633003  Z M 1117.24505272953 638.882005350917  C 1115.87837449017 637.438357482112  1114.53803104348 635.970004693847  1113.22468559289 634.477673528706  L 1111.72330547385 635.798982628865  C 1113.05265087676 637.309494256326  1114.40932318135 638.795735388123  1115.79265110465 640.256970630493  L 1117.24505272953 638.882005350917  Z M 1122.84929419323 644.521819030262  C 1121.41432250919 643.146033856241  1120.00445861014 641.744297699887  1118.62040009828 640.317304141807  L 1117.18475376981 641.709755081535  C 1118.58567370239 643.154133120504  1120.01271339867 644.572946057108  1121.46516675785 645.965491861146  L 1122.84929419323 644.521819030262  Z M 1128.72002269184 649.883681357547  C 1127.22012332242 648.578985814271  1125.74404583939 647.247154094423  1124.29252060754 645.888845189811  L 1122.92597541132 647.349171943208  C 1124.39518398344 648.724028571565  1125.8892439168 650.072085454416  1127.4074159489 651.39267557171  L 1128.72002269184 649.883681357547  Z M 1134.8352181609 654.980260957486  C 1133.28290934988 653.732759688015  1131.74669228134 652.465366104935  1130.22694729124 651.178393989018  L 1128.93445772633 652.704654361503  C 1130.46727546986 654.002696932826  1132.01670698364 655.280992557963  1133.58236866008 656.539224757033  L 1134.8352181609 654.980260957486  Z M 1141.12862363018 659.862867694614  C 1139.5344942261 658.669270817469  1137.95576573602 657.455242098398  1136.39282902087 656.221082106126  L 1135.15337799338 657.79071937328  C 1136.72975899453 659.0354955343  1138.32206761049 660.259967254136  1139.92990961818 661.463831378593  L 1141.12862363018 659.862867694614  Z M 1147.58558328752 664.527036745349  C 1145.95150425686 663.388745137871  1144.33211723629 662.229506140195  1142.72782315296 661.049606756228  L 1141.54286535741 662.66077869701  C 1143.1609594803 663.850827503293  1144.79427636894 665.020038203899  1146.44241164744 666.168121326146  L 1147.58558328752 664.527036745349  Z M 1154.1985188553 668.967293959362  C 1152.52640805185 667.885643589287  1150.86826311115 666.782554865869  1149.22449455601 665.658300891343  L 1148.0954207304 667.309116537113  C 1149.75332888209 668.443041275548  1151.42573708412 669.555618700673  1153.1122312824 670.646573361058  L 1154.1985188553 668.967293959362  Z M 1160.9596689932 673.178427982773  C 1159.25148890712 672.154688340266  1157.55653214528 671.109044542611  1155.87521834433 670.041755469851  L 1154.80335363785 671.730277323723  C 1156.49912999725 672.806747151788  1158.20866667346 673.86138551342  1159.93154042013 674.893931301698  L 1160.9596689932 673.178427982773  Z M 1167.86109840729 677.155496374506  C 1166.11885386186 676.190868982208  1164.38907458242 675.203897340984  1162.67218882702 674.194825804872  L 1161.65879124479 675.919072115679  C 1163.39044554643 676.936823623415  1165.13510428138 677.932285134302  1166.89233550781 678.905210192417  L 1167.86109840729 677.155496374506  Z M 1174.89470716346 680.893831407038  C 1173.12044296201 679.989448409876  1171.35787133837 679.06230729459  1169.60742866928 678.112637602381  L 1168.65368759587 679.870584690576  C 1170.41918746571 680.828423383376  1172.19692062262 681.763539709812  1173.98644693618 682.675702154186  L 1174.89470716346 680.893831407038  Z M 1073.48775508114 507.048694810033  C 1073.6282716497 505.063232460459  1073.79738973373 503.07989789657  1073.9950566694 501.099308734185  L 1072.0049433306 500.900691265815  C 1071.80536845669 502.900397645741  1071.63461799616 504.90287592661  1071.49274512117 506.907502531132  L 1073.48775508114 507.048694810033  Z M 1171.39056822915 688.797212272371  L 1181 685  L 1178.00407677531 675.111398277219  L 1171.39056822915 688.797212272371  Z " fill-rule="nonzero" fill="#009999" stroke="none" />
  </g>
</svg>