<?xml version="1.0" encoding="utf-8"?>
<svg version="1.1" xmlns:xlink="http://www.w3.org/1999/xlink" width="168px" height="16px" viewBox="1280 524  168 16" xmlns="http://www.w3.org/2000/svg">
  <g transform="matrix(0.656059028990512 -0.754709580222773 0.754709580222766 0.656059028990508 67.6299877784295 1212.40046400091 )">
    <path d="M 1322.00971997594 479.50456539494  C 1320.96070591162 477.807389617717  1319.92393883499 476.102674518712  1318.89949954378 474.390552950436  L 1317.18326181903 475.417455123076  C 1318.21263576541 477.137823865788  1319.25439687931 478.850750462758  1320.30846397382 480.556101421546  L 1322.00971997594 479.50456539494  Z M 1326.27074171248 486.252495391983  C 1325.18930128032 484.575795443372  1324.11996066585 482.891322175517  1323.06280320531 481.19920686337  L 1321.36661983427 482.258905863945  C 1322.42886955118 483.959171981717  1323.50336110749 485.651759244041  1324.59001076546 487.336535743507  L 1326.27074171248 486.252495391983  Z M 1330.66067324999 492.917280953436  C 1329.54720599061 491.261676294026  1328.4456869086 489.598067189749  1327.35620184794 487.926583289561  L 1325.68069948938 489.018687609885  C 1326.77543252629 490.698222935585  1327.88225755164 492.369845533037  1329.00108830792 494.033425128723  L 1330.66067324999 492.917280953436  Z M 1335.17789271838 499.496459759234  C 1334.03281000477 497.862562055914  1332.89951941391 496.22043173933  1331.77810926586 494.570196784611  L 1330.12390693791 495.694302944278  C 1331.25071884323 497.352486969789  1332.38946841861 499.00252731763  1333.54006691865 500.6442953963  L 1335.17789271838 499.496459759234  Z M 1339.82073122071 505.987601116924  C 1338.64445610625 504.376014016865  1337.47981270334 502.755969176767  1336.32689177539 501.127592850523  L 1334.69460062683 502.283285545977  C 1335.85307509734 503.919505651449  1337.02332850919 505.547354138591  1338.20526966176 507.166704145303  L 1339.82073122071 505.987601116924  Z M 1344.58747344983 512.388306859684  C 1343.38044051202 510.799625767398  1342.18487457717 509.202264932966  1341.00086881857 507.596348842525  L 1339.39109190304 508.783201100492  C 1340.58080093775 510.396852780725  1341.78212583329 512.001907994851  1342.99497296757 513.598241657103  L 1344.58747344983 512.388306859684  Z M 1349.47635832206 518.696212232336  C 1348.23901350195 517.131024089626  1347.01296673969 515.556937409446  1345.79831358404 513.974074864121  L 1344.21164563726 515.191648199356  C 1345.43214969547 516.782135287097  1346.66410224251 518.363804236936  1347.90740726939 519.936531785654  L 1349.47635832206 518.696212232336  Z M 1354.48557962785 524.908986765009  C 1353.21838006527 523.367869834166  1351.96230544136 521.817638858112  1350.71745364499 520.258414650042  L 1349.15448086502 521.506259227329  C 1350.40532902876 523.072994113534  1351.66745407965 524.630692447924  1352.94075765729 526.179232835366  L 1354.48557962785 524.908986765009  Z M 1359.6132866991 531.024335134131  C 1358.31670056378 529.507858784273  1357.03106213782 527.982056248698  1355.75647161405 526.447046436775  L 1354.2177714447 527.724701237119  C 1355.49850158529 529.26710508805  1356.79033284508 530.800257311826  1358.0931645486 532.324038426253  L 1359.6132866991 531.024335134131  Z M 1364.85795037153 537.040705447881  C 1363.53329302799 535.548083904059  1362.21839540121 534.046829338148  1360.91334157091 532.537037746278  L 1359.4002622972 533.844933426936  C 1360.71100912084 535.361311132939  1362.03164268227 536.869114572239  1363.36207853491 538.368247329859  L 1364.85795037153 537.040705447881  Z M 1370.20826806293 542.964742630065  C 1368.85782463815 541.495409887872  1367.51698914807 540.017275513319  1366.18584733105 538.530434024196  L 1364.69576813561 539.864474500089  C 1366.03271674875 541.357801988878  1367.37940132134 542.842384380351  1368.73573574101 544.318126744379  L 1370.20826806293 542.964742630065  Z M 1375.66091355815 548.794731741407  C 1374.28509342348 547.349133212128  1372.91872652895 545.894567108359  1371.5619002455 544.43112644084  L 1370.09527282867 545.790907312968  C 1371.45801795075 547.260731899528  1372.83034530258 548.721643209107  1374.21216713212 550.173547825255  L 1375.66091355815 548.794731741407  Z M 1381.21423395051 554.528905487873  C 1379.81345416998 553.107479388048  1378.42197006938 551.676922490019  1377.03987062576 550.237326269284  L 1375.59713957875 551.62243533574  C 1376.98526810925 553.068311459653  1378.38282223514 554.505108828961  1379.78971259117 555.932735569043  L 1381.21423395051 554.528905487873  Z M 1386.86654581491 560.165525620751  C 1385.44123101877 558.768702839327  1384.02505152449 557.362588803882  1382.61809788822 555.94727342694  L 1381.19970055832 557.357290807868  C 1382.61279170211 558.778780168481  1384.03514894956 560.191028048873  1385.46668134951 561.593944144327  L 1386.86654581491 560.165525620751  Z M 1392.61613571814 565.702883463585  C 1391.16671797414 564.331087431295  1389.72627238467 562.949842505706  1388.29489105754 561.559237009109  L 1386.90125741556 562.993735273983  C 1388.33888281031 564.390406963145  1389.78561200816 565.777677248001  1391.24135249945 567.155457420948  L 1392.61613571814 565.702883463585  Z M 1398.46126073824 571.139300430137  C 1396.98817942069 569.792946991146  1395.52390439051 568.436989883898  1394.06852927928 567.071515813681  L 1392.7000817892 568.53006011088  C 1394.16180563536 569.901490743675  1395.63246822427 571.263362897956  1397.11197551596 572.615589490226  L 1398.46126073824 571.139300430137  Z M 1404.40014899291 576.473128533234  C 1402.90385064942 575.152625819068  1401.41619005666 573.822367572954  1399.93726234152 572.482438856843  L 1398.59441583244 573.964587045464  C 1400.07979502524 575.31036088848  1401.57394519084 576.646422076365  1403.07677078731 577.972685176028  L 1404.40014899291 576.473128533234  Z M 1410.4310001766 581.702750884335  C 1408.91193839279 580.408499190195  1407.40134320458 579.104343057643  1405.89931120545 577.790365879608  L 1404.58247274581 579.295668663505  C 1406.09105700968 580.615377760922  1407.60824181752 581.92522297082  1409.13393015453 583.225120536513  L 1410.4310001766 581.702750884335  Z M 1416.55198610623 586.826582183672  C 1415.01062136818 585.55897384704  1413.47754950407 584.281315167975  1411.95286854463 582.993687845051  L 1410.66243731884 584.521688909025  C 1412.19376934383 585.814933206225  1413.73352887684 587.098165373668  1415.28161745954 588.371303356411  L 1416.55198610623 586.826582183672  Z M 1422.76089652111 591.845611612915  C 1421.64960892271 590.961303410449  1420.54173369513 590.072715438548  1419.43729552339 589.179867496226  C 1418.98954654482 588.817696792075  1418.54248034109 588.454682790986  1418.09609929291 588.090827426063  L 1416.83246648033 589.641063574195  C 1417.28086534754 590.006563709391  1417.72995257566 590.371218544256  1418.17972577269 590.735026136504  C 1419.28823059778 591.631162537859  1420.40018535784 592.523023009856  1421.51556527377 593.410587678041  L 1422.76089652111 591.845611612915  Z M 1429.0451966056 596.77263022156  C 1427.46524717482 595.552243043599  1425.89192117197 594.323304944923  1424.32528786816 593.085870033773  L 1423.08561721992 594.655333854285  C 1424.65791923516 595.897246304244  1426.23693816624 597.130631196774  1427.82260449156 598.355434227966  L 1429.0451966056 596.77263022156  Z M 1435.40002134637 601.608345518785  C 1433.80260590328 600.410911190691  1432.21168966195 599.204831145798  1430.62734266796 597.990158485942  L 1429.41047539675 599.577368000858  C 1431.00055519741 600.796435836497  1432.59722801559 602.006879965615  1434.2004235523 603.208647094252  L 1435.40002134637 601.608345518785  Z M 1441.82404432681 606.351748165473  C 1440.20949629342 605.177516622843  1438.60132187902 603.994546371867  1436.99959188917 602.802889496987  L 1435.80578198671 604.407513414543  C 1437.41330768196 605.603482184825  1439.0273011202 606.790732899436  1440.64769123985 607.969213285586  L 1441.82404432681 606.351748165473  Z M 1448.31592468682 611.001848090552  C 1446.68458106111 609.851064425911  1445.0594841414 608.691450885467  1443.4407054782 607.523058525207  L 1442.27020212357 609.144761918801  C 1443.89483818113 610.317381994047  1445.52581535717 611.481191484155  1447.16306184234 612.636139148417  L 1448.31592468682 611.001848090552  Z M 1454.8743074027 615.557674697645  C 1453.22650868839 614.430579109385  1451.58482846319 613.294564320842  1449.94933900772 612.149680348987  L 1448.8023865153 613.78812472709  C 1450.44379383149 614.937151351082  1452.09141431817 616.077276699512  1453.74517543306 617.20845057436  L 1454.8743074027 615.557674697645  Z M 1461.49782356999 620.018277067658  C 1459.83391370539 618.915104809842  1458.1759928359 617.80292588893  1456.52413395721 616.681789272437  L 1455.40097172572 618.336632649242  C 1457.05880769633 619.461825990373  1458.72272759245 620.578029223356  1460.39265815431 621.685193203512  L 1461.49782356999 620.018277067658  Z M 1468.18509068922 624.382724157266  C 1466.50541697543 623.303705490536  1464.83160151271 622.215594577822  1463.16371799655 621.118439326962  L 1462.06458045906 622.789336293764  C 1463.73849905071 623.890461494991  1465.41837105316 624.982509632041  1467.10412250415 626.065432623659  L 1468.18509068922 624.382724157266  Z M 1474.93471295439 628.650104993242  C 1473.23962598286 627.59546513676  1471.55026529558 626.531649349194  1469.86670527248 625.458704468703  L 1468.79182184747 627.145306265999  C 1470.48147367002 628.222133493982  1472.17694714588 629.289798596291  1473.87816762602 630.348254565303  L 1474.93471295439 628.650104993242  Z M 1481.74528154442 632.819528862602  C 1480.03513512375 631.789487947054  1478.33058182522 630.750189330535  1476.63169669781 629.701678771834  L 1475.58129174132 631.403633362115  C 1477.28632412061 632.455937855088  1478.99704518067 633.498997073305  1480.71337960113 634.532765092502  L 1481.74528154442 632.819528862602  Z M 1488.61537491711 636.89012549852  C 1486.89052599914 635.884898520116  1485.1711358739 634.870334003256  1483.4572802435 633.846476617646  L 1482.43157300226 635.563428758877  C 1484.15163005383 636.590990873604  1485.87724162631 637.609226494263  1487.60833174359 638.618090789454  L 1488.61537491711 636.89012549852  Z M 1495.54279432435 640.866431724971  C 1494.14414576381 640.074472536012  1492.74820350579 639.277743345128  1491.35499192815 638.476258065901  C 1491.01713254673 638.281940199839  1490.67947879285 638.087265028734  1490.34203123335 637.892232879402  L 1489.34123579906 639.623824199171  C 1489.67987515745 639.819545163976  1490.01872142056 640.014907920657  1490.35777401975 640.209912141371  C 1491.75489993517 641.013648991067  1493.15476414488 641.812616489696  1494.55734220357 642.606800685177  L 1495.54279432435 640.866431724971  Z M 1502.51653502136 644.763288602702  C 1500.76760859024 643.798938910903  1499.02277860794 642.827178564115  1497.28209211997 641.848033763729  L 1496.30156305981 643.591181136212  C 1498.04717653908 644.573097393689  1499.79694524082 645.547608295977  1501.55082198629 646.514687567498  L 1502.51653502136 644.763288602702  Z M 1509.53388674312 648.581053347648  C 1507.77416943224 647.636538141136  1506.01846452566 646.684566440007  1504.26681936212 645.725163912093  L 1503.30606048495 647.479285452905  C 1505.06266365819 648.441403557655  1506.82333806553 649.39606980277  1508.58803623421 650.343258447741  L 1509.53388674312 648.581053347648  Z M 1516.59395250979 652.319237961182  C 1514.82366925172 651.394677970845  1513.05731384056 650.462616599374  1511.29493390221 649.523078977762  L 1510.35406801522 651.287950469604  C 1512.12143634792 652.230147440683  1513.89279140596 653.164847000202  1515.66808542862 654.092023946009  L 1516.59395250979 652.319237961182  Z M 1523.6958298817 655.977364616861  C 1521.91520695958 655.072878022847  1520.1384268249 654.160846120032  1518.36553738465 653.241293499359  L 1517.44468475228 655.016689350839  C 1519.2225923339 655.938844753696  1521.00440162247 656.853458151374  1522.79006457549 657.760504883374  L 1523.6958298817 655.977364616861  Z M 1530.83861107468 659.554965721498  C 1529.04787609329 658.670668138111  1527.26089834869 657.778782282722  1525.47772602282 656.879332203079  L 1524.57700435132 658.665025477548  C 1526.36522392414 659.567021439385  1528.15725968684 660.461431766503  1529.95306332118 661.348232343133  L 1530.83861107468 659.554965721498  Z M 1538.02138307609 663.051583974936  C 1536.22076493279 662.187588435857  1534.42381799535 661.315962631531  1532.63059071451 660.43673006344  L 1531.75011513694 662.232492508001  C 1533.54841812516 663.114213732874  1535.35045129837 663.988306663107  1537.15616606879 664.854747730746  L 1538.02138307609 663.051583974936  Z M 1545.24322776158 666.466772428495  C 1543.432956617 665.623189372337  1541.6262701781 664.771935033011  1539.82321715821 663.913032362726  L 1538.96310021971 665.718634437409  C 1540.7712567586 666.579968220954  1542.58305700081 667.433632025012  1544.39845209521 668.279602832453  L 1545.24322776158 666.466772428495  Z M 1552.50322201237 669.800094542112  C 1550.68352926103 668.977031798298  1548.86733425697 668.146257733962  1547.05468596992 667.307794749108  L 1546.21503761332 669.123005656212  C 1548.03281657867 669.963841900051  1549.85415229991 670.796967459957  1551.67899566881 671.622359872568  L 1552.50322201237 669.800094542112  Z M 1559.8004378333 673.051124240133  C 1557.97155607401 672.248687015115  1556.14608465652 671.438499417908  1554.32407280067 670.620583293446  L 1553.50500035246 672.445171007036  C 1555.33216939005 673.265402232842  1557.16280778154 674.077883055903  1558.99686616773 674.882591569434  L 1559.8004378333 673.051124240133  Z M 1567.13394247143 676.219445965776  C 1565.29610547758 675.437736829591  1563.46159098412 674.648239260223  1561.63044845472 673.850974544749  L 1560.8320566113 675.68470584032  C 1562.66838216672 676.484227203594  1564.50808923044 677.27595943593  1566.35112819889 678.059881190043  L 1567.13394247143 676.219445965776  Z M 1570.83398909624 677.780828756279  C 1570.2132468727 677.520957407531  1569.59287621035 677.260199417457  1568.97287900829 676.998555584309  L 1568.1952698226 678.841196068593  C 1570.04051717092 679.619905371994  1571.88905774987 680.390787811956  1573.74084171753 681.153822603302  L 1570.83398909624 677.780828756279  Z M 1317.87918228448 472.675984000268  C 1316.86298214861 470.958959419854  1315.85917164575 469.234632300538  1314.86782900527 467.50313702331  L 1313.13217099473 468.49686297669  C 1314.12828886603 470.236698750229  1315.13693465654 471.969331837248  1316.15802976013 473.6946272096  L 1317.87918228448 472.675984000268  Z M 1566.6320409356 685.359052989787  L 1576 681  L 1572.42431700347 671.305955895069  L 1566.6320409356 685.359052989787  Z " fill-rule="nonzero" fill="#027db4" stroke="none" />
  </g>
</svg>