<?xml version="1.0" encoding="utf-8"?>
<svg version="1.1" xmlns:xlink="http://www.w3.org/1999/xlink" width="42px" height="8px" viewBox="2200 628  42 8" xmlns="http://www.w3.org/2000/svg">
  <g transform="matrix(-0.173648177666906 -0.984807753012215 0.984807753012209 -0.173648177666933 1984.27410269448 2929.00366772563 )">
    <path d="M 2221.88085154462 629.589106184538  C 2222.30932810608 627.658405970445  2222.80288943482 625.742727745397  2223.3606915289 623.845347365964  L 2221.44189183839 623.281248307549  C 2220.87138858232 625.221832066476  2220.36658885478 627.181130313241  2219.92835587563 629.155792599961  L 2221.88085154462 629.589106184538  Z M 2220.51689323354 637.377853076162  C 2220.76999964593 635.416442200183  2221.08927806382 633.464139165546  2221.47418251332 631.524282458169  L 2219.51242698444 631.135032866161  C 2219.11875825489 633.119060139661  2218.79220986267 635.11581714346  2218.5333402135 637.121889374301  L 2220.51689323354 637.377853076162  Z M 2219.85892819456 645.257703482332  C 2219.93461318607 643.281477973319  2220.0770211379 641.308372344516  2220.28590852897 639.341760654765  L 2218.29709598377 639.130515157716  C 2218.08345222369 641.141906624932  2217.93780164067 643.159939898285  2217.86039330078 645.181164091571  L 2219.85892819456 645.257703482332  Z M 2219.93993471673 653.156052058635  C 2219.86904226935 651.96679966368  2219.82235312139 650.776228007393  2219.79989625661 649.585076175246  C 2219.7912787746 648.801536233718  2219.79314679153 648.017916054247  2219.80549980569 647.234426102808  L 2217.8057483467 647.202896715553  C 2217.79307278473 648.006844262331  2217.79119113729 648.810925756079  2217.80010391306 649.614923822164  C 2217.82301474152 650.835817738322  2217.8708162838 652.05611761919  2217.94347873795 653.275062666487  L 2219.93993471673 653.156052058635  Z M 2220.76527534149 661.020133268113  C 2220.47052686933 659.064546701742  2220.24190996832 657.099563200606  2220.07981557896 655.128542934513  L 2218.08654468949 655.292467188983  C 2218.25232997052 657.30836761589  2218.48615248176 659.318093820608  2218.78761238103 661.31820912222  L 2220.76527534149 661.020133268113  Z M 2222.29451282732 668.778122255477  C 2221.82508674602 666.856967749819  2221.42067916243 664.920506969559  2221.0819816234 662.972051309947  L 2219.11153006969 663.314572366936  C 2219.45793975673 665.307394390937  2219.87155570702 667.287948411997  2220.35167062718 669.252847634363  L 2222.29451282732 668.778122255477  Z M 2224.51525364489 676.36714529124  C 2223.87495436414 674.49599262203  2223.29803357271 672.603748386323  2222.78547781926 670.693648367993  L 2220.8538148993 671.211990304988  C 2221.37804155489 673.16558332918  2221.96809884133 675.100913994318  2222.62297774624 677.01467283767  L 2224.51525364489 676.36714529124  Z M 2223.93974908453 621.954585810848  C 2224.54012325605 620.070243396476  2225.20396748461 618.206715374861  2225.93014658036 616.367188424442  L 2224.06985341964 615.632811575558  C 2223.32713921506 617.51422458203  2222.64817924353 619.420185164459  2222.03413454319 621.347434083664  L 2223.93974908453 621.954585810848  Z M 2216.29004675221 679.46774747142  L 2226 683  L 2230.31707436766 673.612621830134  L 2216.29004675221 679.46774747142  Z " fill-rule="nonzero" fill="#797979" stroke="none" />
  </g>
</svg>