<?xml version="1.0" encoding="utf-8"?>
<svg version="1.1" xmlns:xlink="http://www.w3.org/1999/xlink" width="42px" height="8px" viewBox="2820 660  42 8" xmlns="http://www.w3.org/2000/svg">
  <g transform="matrix(-0.629320391049815 -0.777145961456966 0.777145961456994 -0.629320391049834 4112.87431256508 3289.74041615633 )">
    <path d="M 2860.72668321274 630.039932183943  C 2861.20120404127 628.074607307042  2861.61185323572 626.094408044303  2861.95798308421 624.102457739587  L 2859.98751011821 623.760059885813  C 2859.64878422513 625.709401004145  2859.24691909924 627.647242443366  2858.78254859745 629.570527670088  L 2860.72668321274 630.039932183943  Z M 2858.49142003038 637.808724352897  C 2859.13393195506 635.891734442874  2859.71409583018 633.954408512878  2860.23099657042 631.999802283169  L 2858.29746503317 631.48847480058  C 2857.79162115511 633.401270659345  2857.22386738411 635.297155855879  2856.59509923119 637.173140033894  L 2858.49142003038 637.808724352897  Z M 2855.59344353512 645.355396830996  C 2856.39914347595 643.50107229256  2857.14448503283 641.621102121365  2857.82829258774 639.718451571121  L 2855.94615654041 639.042016874079  C 2855.27697609919 640.903968421076  2854.54757791059 642.743724737925  2853.75911244537 644.558383999728  L 2855.59344353512 645.355396830996  Z M 2852.03560394354 652.622331221423  C 2852.39439912062 651.971975493205  2852.74543182089 651.31736739369  2853.08862728247 650.658646339317  C 2853.67200064216 649.517628719464  2854.23185400295 648.364738025311  2854.76783248288 647.20070505556  L 2852.95116178111 646.364219812813  C 2852.42771930411 647.501027210523  2851.88100785534 648.62697540457  2851.31137257273 649.741353585902  C 2850.97664753258 650.383685111377  2850.63430713391 651.022019410416  2850.28442377458 651.656221488607  L 2852.03560394354 652.622331221423  Z M 2847.82825941717 659.525141177906  C 2848.95416458358 657.845852803399  2850.02530455352 656.130486648373  2851.03998983114 654.381748338655  L 2849.31010653248 653.378003464191  C 2848.31712607049 655.089335059289  2847.26889852087 656.76800835304  2846.16707723997 658.411375594786  L 2847.82825941717 659.525141177906  Z M 2843.04037622643 666.038719903203  C 2844.30712995799 664.462963934767  2845.52243958901 662.84653441827  2846.68438822661 661.191980928031  L 2845.04767424052 660.042560496787  C 2843.91058048306 661.66172195045  2842.72126716052 663.24357492837  2841.48161016211 664.785624393391  L 2843.04037622643 666.038719903203  Z M 2837.70774605882 672.114375320876  C 2839.10587877327 670.653931278385  2840.45627305206 669.148521974276  2841.75679893493 667.60052187207  L 2840.22548947127 666.314018344483  C 2838.95278273107 667.828905660333  2837.63127431424 669.302113224528  2836.2630486197 670.731317364972  L 2837.70774605882 672.114375320876  Z M 2835.09501375599 674.737549678391  C 2835.49821717428 674.348455361986  2835.89791474198 673.955744369784  2836.2940580127 673.559464301344  L 2834.87960033273 672.145494898722  C 2833.48079469359 673.544783578801  2832.03697008187 674.898332807134  2830.55040382428 676.204007647235  L 2835.09501375599 674.737549678391  Z M 2862.2825234345 622.107095713728  C 2862.58550589962 620.108127601351  2862.8235706168 618.099857930343  2862.99634208947 616.085454319668  L 2861.00365791053 615.914545680332  C 2860.83458213843 617.885859812971  2860.60160978921 619.851171215138  2860.30510832731 621.807380025398  L 2862.2825234345 622.107095713728  Z M 2830.31512105273 667.672333336028  L 2830 678  L 2840.26698456936 679.161476582867  L 2830.31512105273 667.672333336028  Z " fill-rule="nonzero" fill="#797979" stroke="none" />
  </g>
</svg>