<?xml version="1.0" encoding="utf-8"?>
<svg version="1.1" xmlns:xlink="http://www.w3.org/1999/xlink" width="42px" height="8px" viewBox="2316 630  42 8" xmlns="http://www.w3.org/2000/svg">
  <g transform="matrix(0.13917310096008 -0.990268068741581 0.990268068741565 0.139173100960069 1383.92250747414 2860.02073064039 )">
    <path d="M 2337.55900205343 629.339785168076  C 2337.19066641706 627.351930585927  2336.75826478567 625.376482641165  2336.26247252402 623.416526770721  L 2334.32354587746 623.906999460316  C 2334.80878415182 625.825233523191  2335.23198119962 627.758629878809  2335.59247603264 629.704168770283  L 2337.55900205343 629.339785168076  Z M 2338.68847210625 637.344058234064  C 2338.4923723516 635.331899724648  2338.23137727375 633.3265949292  2337.90589451888 631.331275917846  L 2335.93198415801 631.653266425858  C 2336.25053832379 633.606110850372  2336.5059775692 635.56872849043  2336.69790292566 637.53805394866  L 2338.68847210625 637.344058234064  Z M 2339.12572809208 645.41579268943  C 2339.10331585279 643.394225309326  2339.01565935144 641.373907984965  2338.86289549805 639.357996234449  L 2336.86861334652 639.509121017627  C 2337.01812529807 641.482119821286  2337.10391584532 643.459430416805  2337.12585099269 645.437964458009  L 2339.12572809208 645.41579268943  Z M 2338.85123826151 653.501910242176  C 2338.90772062908 652.820845657201  2338.95677038745 652.139185076876  2338.9983787785 651.457050215908  C 2339.06972675458 650.118190268539  2339.11240734985 648.777956454282  2339.12639123647 647.437269711126  L 2337.12650002065 647.416410064267  C 2337.11284052144 648.725996590386  2337.07120470162 650.035141850064  2337.00162105959 651.342949774827  C 2336.96099874123 652.008004525738  2336.91314915519 652.672598111311  2336.85808078001 653.336612771173  L 2338.85123826151 653.501910242176  Z M 2337.837202911 661.52162483953  C 2338.17686131892 659.528669961286  2338.45210466389 657.525271135699  2338.66250304546 655.514557455978  L 2336.67336319235 655.306416530681  C 2336.46744358549 657.274327915478  2336.19805937748 659.235080158268  2335.86563131743 661.185610775251  L 2337.837202911 661.52162483953  Z M 2336.13755984365 669.424491620559  C 2336.64727207369 667.468109647797  2337.09370540171 665.495785375038  2337.47616254694 663.510599360362  L 2335.51227646139 663.132245765145  C 2335.1379607257 665.075172895247  2334.70103067563 667.005512072836  2334.20216874886 668.920248316  L 2336.13755984365 669.424491620559  Z M 2333.7648907122 677.15200940493  C 2334.4408836061 675.246682506946  2335.05520218266 673.320032969586  2335.60688694241 671.375070011933  L 2333.68279234311 670.82930451929  C 2333.14285136072 672.732864825244  2332.54160985484 674.618501550809  2331.88000689995 676.483269534487  L 2333.7648907122 677.15200940493  Z M 2332.32585983021 680.945953565924  C 2332.58025405373 680.316588010252  2332.82781984684 679.684483853658  2333.06851359397 679.049752458722  L 2331.19845364208 678.340615112144  C 2330.49688434039 680.190717438447  2329.73578208484 682.017693236263  2328.9163356352 683.818688966143  L 2332.32585983021 680.945953565924  Z M 2335.74567886557 621.462225334507  C 2335.20783396177 619.513389825737  2334.60722664134 617.58242203731  2333.94479498824 615.672337932938  L 2332.05520501176 616.327662067062  C 2332.70353540555 618.197085989926  2333.2913575284 620.086949043441  2333.81775326546 621.994299465072  L 2335.74567886557 621.462225334507  Z M 2325.08238312165 676.439023167351  L 2329 686  L 2338.85018976066 682.880102296715  L 2325.08238312165 676.439023167351  Z " fill-rule="nonzero" fill="#797979" stroke="none" />
  </g>
</svg>