<?xml version="1.0" encoding="utf-8"?>
<svg version="1.1" xmlns:xlink="http://www.w3.org/1999/xlink" width="42px" height="8px" viewBox="2418 630  42 8" xmlns="http://www.w3.org/2000/svg">
  <g transform="matrix(0.104528463267683 -0.994521895368264 0.994521895368274 0.104528463267656 1553.52819642663 2993.3678570915 )">
    <path d="M 2441.14899056118 629.473563479768  C 2440.84343245121 627.474823509065  2440.47264718495 625.486601267713  2440.03722825042 623.51207915325  L 2438.0841521163 623.942768849324  C 2438.5101892063 625.874746512892  2438.87298527081 627.820129110714  2439.17195960949 629.77580281545  L 2441.14899056118 629.473563479768  Z M 2442.02153762666 637.510907520978  C 2441.89105942419 635.493160592416  2441.69468627037 633.480215739928  2441.43273248489 631.475294932685  L 2439.44958782889 631.734403545807  C 2439.70589737272 633.696124910405  2439.89803933159 635.665697428488  2440.02570615837 637.639968553718  L 2442.02153762666 637.510907520978  Z M 2442.19140335738 645.593690658722  C 2442.23699487606 643.572243493323  2442.21652353046 641.549846321982  2442.1300220875 639.529736243437  L 2440.13185313624 639.615298163746  C 2440.21649075788 641.591881520854  2440.23652101339 643.570702691445  2440.19191184184 645.548594325586  L 2442.19140335738 645.593690658722  Z M 2441.63739416214 653.666399505866  C 2441.73477673327 652.841005915036  2441.82106913343 652.014341613277  2441.89624801541 651.186630262232  C 2441.99505674692 649.997427518758  2442.07092397439 648.806429935698  2442.12380738724 647.61430172315  L 2440.12577234231 647.525667873982  C 2440.07414187131 648.689551552916  2440.00012133093 649.852334047486  2439.90375182103 651.01336972359  C 2439.83035612726 651.820690423443  2439.74615481948 652.626992276216  2439.65117053591 653.432058500913  L 2441.63739416214 653.666399505866  Z M 2440.34137063659 661.64640957099  C 2440.75211583436 659.666607658788  2441.09806143424 657.673913242524  2441.37865370715 655.671515878005  L 2439.39800508588 655.393971216626  C 2439.12345865266 657.353223510387  2438.78496704152 659.302981922469  2438.38307205047 661.240125621519  L 2440.34137063659 661.64640957099  Z M 2438.35588014641 669.483377424164  C 2438.9373403963 667.54682605463  2439.4553686795 665.591792527422  2439.90913582717 663.621406117417  L 2437.96015047816 663.172567494602  C 2437.51616051859 665.100498564528  2437.0092940394 667.013407555726  2436.44036234358 668.908232618909  L 2438.35588014641 669.483377424164  Z M 2435.69598471382 677.117851466686  C 2436.44374903161 675.239241407604  2437.12993021175 673.336699743743  2437.75342993573 671.413271730211  L 2435.8508929515 670.796544056403  C 2435.24082759384 672.678528528699  2434.56943135903 674.540076683389  2433.83777890045 676.378208880601  L 2435.69598471382 677.117851466686  Z M 2434.47214728088 680.045814471017  C 2434.62624755577 679.694156677575  2434.77816449179 679.341546155488  2434.92788931688 678.988003265355  L 2433.08623343053 678.208065065063  C 2432.31472065865 680.029826118937  2431.48388791096 681.825891647166  2430.59506503883 683.59338682299  L 2434.47214728088 680.045814471017  Z M 2439.58038134313 621.542630196773  C 2439.10206130355 619.57805971731  2438.55967671893 617.629642832488  2437.95409574342 615.700498226412  L 2436.04590425658 616.299501773588  C 2436.6384369558 618.187079664682  2437.1691349383 620.093514580352  2437.63714875579 622.015755033892  L 2439.58038134313 621.542630196773  Z M 2427.3676195482 675.32705772511  L 2431 685  L 2440.93837308736 682.173564015137  L 2427.3676195482 675.32705772511  Z " fill-rule="nonzero" fill="#797979" stroke="none" />
  </g>
</svg>