<?xml version="1.0" encoding="utf-8"?>
<svg version="1.1" xmlns:xlink="http://www.w3.org/1999/xlink" width="44px" height="8px" viewBox="2520 630  44 8" xmlns="http://www.w3.org/2000/svg">
  <g transform="matrix(-0.139173100960081 -0.990268068741581 0.990268068741571 -0.139173100960071 2267.94806705837 3239.49717674978 )">
    <path d="M 2544.77085686477 630.074264454472  C 2544.94922080795 628.061339721065  2545.06518643621 626.043372727711  2545.11858690697 624.023266772987  L 2543.11928532322 623.970416255168  C 2543.06697630623 625.949233205744  2542.95338090281 627.925954913265  2542.77866254543 629.897737419714  L 2544.77085686477 630.074264454472  Z M 2543.72594851536 638.086720895634  C 2544.06978341593 636.095375310427  2544.35184876473 634.093856399141  2544.57173874743 632.085043796112  L 2542.58361420906 631.867418384128  C 2542.36821856409 633.835172808157  2542.09191835713 635.795782616425  2541.75511110805 637.746427031516  L 2543.72594851536 638.086720895634  Z M 2542.0235241662 645.985647595862  C 2542.53048544044 644.029459991114  2542.97672712788 642.058037365273  2543.36160720964 640.07421605245  L 2541.39821658484 639.693299717234  C 2541.02120307822 641.636573648769  2540.58408213756 643.567702310428  2540.08748265949 645.483907340047  L 2542.0235241662 645.985647595862  Z M 2539.66882400876 653.723176851476  C 2539.72782610822 653.558449627972  2539.78638626332 653.393564442848  2539.84450384211 653.22852307549  C 2540.44502404682 651.480407040086  2540.99589183578 649.715626545087  2541.49644408742 647.93630599137  L 2539.57117558571 647.39469617209  C 2539.08154802505 649.135182563863  2538.54277258963 650.86146685927  2537.9554960109 652.571476873331  C 2537.89940442996 652.730724087438  2537.84289219163 652.889822821152  2537.78595988767 653.048771408496  L 2539.66882400876 653.723176851476  Z M 2536.63236431998 661.211247646987  C 2537.46842899923 659.371498878626  2538.24730211211 657.506292325113  2538.96786307475 655.618311504849  L 2537.09932591451 654.905171349778  C 2536.39349251825 656.754563675348  2535.6305388155 658.581647218079  2534.81156248645 660.383793308052  L 2536.63236431998 661.211247646987  Z M 2532.98844389725 668.42326093268  C 2533.97344901092 666.658765366061  2534.90355797972 664.864180143955  2535.77743263305 663.042087180126  L 2533.97410477304 662.177212258925  C 2533.11809126907 663.962063411872  2532.20699282444 665.719969054624  2531.24212025883 667.448400045232  L 2532.98844389725 668.42326093268  Z M 2528.76191035345 675.310038545123  C 2529.88913922748 673.632828139691  2530.96414171074 671.921101387472  2531.98537117077 670.177320991742  L 2530.25954936486 669.166608819923  C 2529.25919284336 670.874748037624  2528.20616236701 672.551488757148  2527.10197295659 674.19441861051  L 2528.76191035345 675.310038545123  Z M 2524.58972220399 681.055968448175  C 2525.63414564081 679.722203451782  2526.6437573629 678.361541450601  2527.61753646311 676.975358329587  L 2525.98098895735 675.825700875647  C 2524.84311077243 677.445480488265  2523.65532879812 679.029622718665  2522.41935192548 680.575848422581  L 2524.58972220399 681.055968448175  Z M 2545.15112406481 622.002914596068  C 2545.1628008006 619.982136693277  2545.11187594764 617.96148197943  2544.99842277276 615.943857620021  L 2543.00157722724 616.056142379979  C 2543.11271152939 618.032528456646  2543.16259552781 620.011882950249  2543.15115745316 621.991358114933  L 2545.15112406481 622.002914596068  Z M 2518.85311072732 674.731375700892  L 2520 685  L 2530.32810392894 684.699551613408  L 2518.85311072732 674.731375700892  Z " fill-rule="nonzero" fill="#797979" stroke="none" />
  </g>
</svg>