<?xml version="1.0" encoding="utf-8"?>
<svg version="1.1" xmlns:xlink="http://www.w3.org/1999/xlink" width="42px" height="8px" viewBox="2626 630  42 8" xmlns="http://www.w3.org/2000/svg">
  <g transform="matrix(-0.139173100960082 -0.990268068741582 0.990268068741577 -0.13917310096006 2387.56124265918 3343.47532396765 )">
    <path d="M 2649.79594639681 630.074336139418  C 2649.97530636162 628.060840721495  2650.09029500786 626.04212914109  2650.14073638511 624.021290339394  L 2648.14135912639 623.971384655436  C 2648.09198064714 625.949640450038  2647.9794150355 627.925813848059  2647.80383453426 629.896880998279  L 2649.79594639681 630.074336139418  Z M 2648.73663098548 638.087360012047  C 2649.08665341576 636.096426036933  2649.37298174576 634.094817953142  2649.59517784883 632.085598530893  L 2647.60729657038 631.86576217627  C 2647.38978257171 633.832643434374  2647.10948773696 635.792073739732  2646.7668409606 637.741054860665  L 2648.73663098548 638.087360012047  Z M 2646.99939016237 645.981199068331  C 2647.51753664379 644.027265083066  2647.97312816224 642.057276453164  2648.36546759219 640.074247566162  L 2646.40349870247 639.686074826564  C 2646.01942662799 641.627317434975  2645.57343530963 643.555794569892  2645.06620718315 645.468555362779  L 2646.99939016237 645.981199068331  Z M 2644.58206866809 653.701629979737  C 2644.7746226546 653.177650664941  2644.96255014174 652.651982758967  2645.14582918945 652.124687632187  C 2645.61639598253 650.736564777178  2646.05474504324 649.337727904411  2646.46052365548 647.929302583281  L 2644.53869564245 647.375608544711  C 2644.14217667227 648.751894384004  2643.71388721346 650.11882763295  2643.25417065873 651.475312315672  C 2643.07555200475 651.98906246556  2642.89242552868 652.501234252692  2642.70481241016 653.011768441385  L 2644.58206866809 653.701629979737  Z M 2641.47357169697 661.162725563131  C 2642.32974570972 659.331523811587  2643.12719943909 657.473437058189  2643.86471265743 655.591308463288  L 2642.00257248698 654.861627721053  C 2641.28060010771 656.704096202922  2640.49995028065 658.523029451682  2639.66181752088 660.315644217911  L 2641.47357169697 661.162725563131  Z M 2637.7415391305 668.332288565632  C 2638.75041146511 666.580572148104  2639.70306387843 664.797072158463  2640.5980386648 662.984517627775  L 2638.80473367391 662.099047577659  C 2637.92861774834 663.873408056276  2636.9960395757 665.619326229568  2636.00842614494 667.334130572489  L 2637.7415391305 668.332288565632  Z M 2633.41303621971 675.158324258126  C 2634.56729038508 673.498796880622  2635.66823270644 671.802817859913  2636.7141785716 670.072982306423  L 2635.00271407276 669.038144507924  C 2633.97880832289 670.731529059203  2632.90106499922 672.391770500738  2631.77113321585 674.016328406153  L 2633.41303621971 675.158324258126  Z M 2630.56925127707 679.033794395637  C 2631.13747336435 678.299182090427  2631.69488254176 677.556269246574  2632.24129870448 676.805295907131  L 2630.62408649084 675.628595156704  C 2629.4598164323 677.228723105937  2628.24472391126 678.791247499737  2626.98066820734 680.31377743393  L 2630.56925127707 679.033794395637  Z M 2650.16965408463 622.000239082283  C 2650.17705083904 619.978784387514  2650.11986588689 617.957609304828  2649.99818673001 615.939806544953  L 2648.00181326999 616.060193455047  C 2648.12092841019 618.03547718314  2648.17690836409 620.014062172651  2648.16966747369 621.992920882262  L 2650.16965408463 622.000239082283  Z M 2624.81145073352 672.736114252334  L 2626 683  L 2636.32679969208 682.657643285834  L 2624.81145073352 672.736114252334  Z " fill-rule="nonzero" fill="#797979" stroke="none" />
  </g>
</svg>