<?xml version="1.0" encoding="utf-8"?>
<svg version="1.1" xmlns:xlink="http://www.w3.org/1999/xlink" width="44px" height="8px" viewBox="2732 630  44 8" xmlns="http://www.w3.org/2000/svg">
  <g transform="matrix(-0.207911690817743 -0.978147600733767 0.978147600733803 -0.207911690817748 2706.44321764683 3459.63450439925 )">
    <path d="M 2756.65056109261 630.09021642229  C 2756.9857452759 628.097759562679  2757.26018414706 626.095558718503  2757.47349622632 624.086397019939  L 2755.48467382271 623.875244357365  C 2755.27564795154 625.844034759823  2755.00672354591 627.806004176528  2754.67827442029 629.758425400423  L 2756.65056109261 630.09021642229  Z M 2754.98806739795 637.996282608055  C 2755.48373757459 636.037572866888  2755.91965278696 634.064224736927  2756.29520709746 632.078981242034  L 2754.33006076699 631.70722877083  C 2753.96205269545 633.652581572483  2753.53489658999 635.586278029951  2753.04918621275 637.505630236572  L 2754.98806739795 637.996282608055  Z M 2752.68986072931 645.74147556412  C 2753.34275131823 643.829417339837  2753.93727096921 641.89792276335  2754.47259327888 639.949676680609  L 2752.54406982561 639.419773585515  C 2752.01950406953 641.328872386304  2751.43693045996 643.22155627895  2750.79715879488 645.095194365717  L 2752.68986072931 645.74147556412  Z M 2749.77108216344 653.274768303812  C 2750.57689178188 651.421958644681  2751.32609904895 649.545042720783  2752.01766253999 647.646629511809  L 2750.13846748864 646.962066907679  C 2749.46079999935 648.822334156646  2748.72664700513 650.661536078444  2747.93702900469 652.477116117161  L 2749.77108216344 653.274768303812  Z M 2746.19244186571 660.526509980415  C 2747.15966453166 658.752612269545  2748.0726501869 656.949675191406  2748.93012974901 655.120204892463  L 2747.1191796797 654.271405831159  C 2746.27892997088 656.064115481511  2745.38428948629 657.830825059051  2744.43650180793 659.569078774813  L 2746.19244186571 660.526509980415  Z M 2742.04023338887 667.456800925485  C 2743.14813469327 665.767189291448  2744.20433276947 664.044235276329  2745.20735946472 662.290333847293  L 2743.47121326092 661.297461066401  C 2742.48834098518 663.016120297659  2741.45336573305 664.704453960047  2740.36772615685 666.360115209878  L 2742.04023338887 667.456800925485  Z M 2737.33964961467 674.027514737559  C 2738.58093046691 672.433320702944  2739.7733825054 670.801700940163  2740.91534817953 669.134923458533  L 2739.26544394352 668.004518216153  C 2738.14642447348 669.637804133961  2736.977933092 671.236638778139  2735.76159404353 672.79879971185  L 2737.33964961467 674.027514737559  Z M 2732.12165899373 680.195362149601  C 2733.48814157025 678.707088605453  2734.80899144212 677.177552554756  2736.08237258117 675.608880106842  L 2734.52958023472 674.348389754327  C 2733.28178590983 675.885541921945  2731.98747666997 677.384344083559  2730.64845165088 678.842712851007  L 2732.12165899373 680.195362149601  Z M 2757.66638894947 622.07536386072  C 2757.83887887437 620.062286614328  2757.95003334238 618.04442398306  2757.99969784483 616.024580867536  L 2756.00030215517 615.975419132464  C 2755.95163559148 617.954676323735  2755.84271461715 619.931992825818  2755.6736906362 621.90462009864  L 2757.66638894947 622.07536386072  Z M 2726.68519276042 673.672323765633  L 2727 684  L 2737.31868174181 684.533673225194  L 2726.68519276042 673.672323765633  Z " fill-rule="nonzero" fill="#797979" stroke="none" />
  </g>
</svg>