<?xml version="1.0" encoding="utf-8"?>
<svg version="1.1" xmlns:xlink="http://www.w3.org/1999/xlink" width="48px" height="8px" viewBox="2916 666  48 8" xmlns="http://www.w3.org/2000/svg">
  <g transform="matrix(-0.681998360062494 -0.731353701619165 0.731353701619184 -0.681998360062494 4455.06819849888 3277.11878400222 )">
    <path d="M 2965.88916621065 629.931727091149  C 2966.4598891381 627.995271445444  2966.97624916153 626.043206717266  2967.43763860475 624.077830186067  L 2965.49057213875 623.620739191854  C 2965.03771980369 625.54975027894  2964.53091401136 627.465695871843  2963.97075119409 629.366321197787  L 2965.88916621065 629.931727091149  Z M 2963.31938061104 637.58461669106  C 2964.03303688666 635.696157041508  2964.69364684153 633.788074531684  2965.30043303953 631.862614680732  L 2963.39291137745 631.261481493582  C 2962.79735256984 633.151314480417  2962.14896590857 635.024091659804  2961.44851444486 636.877609061512  L 2963.31938061104 637.58461669106  Z M 2960.18559770779 645.024369507632  C 2961.0382065667 643.194439656133  2961.8393815798 641.340982622586  2962.58817988753 639.466179640397  L 2960.7308431589 638.724357372941  C 2959.99589989756 640.564470797179  2959.20954905922 642.38363323775  2958.37271605768 644.17970382071  L 2960.18559770779 645.024369507632  Z M 2956.50529769874 652.209486702203  C 2957.49210330048 650.448293972235  2958.42937442861 648.659800972773  2959.31600805944 646.846112484526  L 2957.51921646294 645.967739011148  C 2956.64898825125 647.747868745476  2955.72905948997 649.503269184206  2954.76051279354 651.231874491466  L 2956.50529769874 652.209486702203  Z M 2952.26489387557 659.087326010157  C 2953.12199969271 657.816002309971  2953.95195787751 656.526585435098  2954.75420493366 655.219950829199  C 2955.00636537332 654.802076693219  2955.25569267554 654.382499476557  2955.50216968462 653.961248049442  L 2953.775945699 652.951222925267  C 2953.53532428916 653.362466605427  2953.29193518209 653.772084624223  2953.04579494609 654.180049097631  C 2952.25964093992 655.460264451371  2951.44638223785 656.723636484798  2950.60656911825 657.969310357649  L 2952.26489387557 659.087326010157  Z M 2947.50530671937 665.607820420778  C 2948.75561966069 664.022795917361  2949.96128186555 662.403054263688  2951.12087445523 660.750501646184  L 2949.48371753707 659.601712185355  C 2948.34558093754 661.2236875527  2947.16222715087 662.813459058832  2945.93504880217 664.369155787609  L 2947.50530671937 665.607820420778  Z M 2942.2723445846 671.754903025759  C 2943.63746685209 670.267614781163  2944.96065398738 668.742373757002  2946.24034880307 667.180974926979  L 2944.69349645508 665.913202150218  C 2943.43747988606 667.445710352418  2942.13877573764 668.942729778147  2940.79891238454 670.40249866618  L 2942.2723445846 671.754903025759  Z M 2936.59519686192 677.494285483062  C 2938.06751382238 676.113029570623  2939.50084516852 674.690796949367  2940.89350409016 673.229261367982  L 2939.44558463341 671.849576894363  C 2938.07869413801 673.284069621784  2936.67188378168 674.679986613402  2935.22680916349 676.035685089948  L 2936.59519686192 677.494285483062  Z M 2931.32785031243 682.12392646712  C 2932.61358204696 681.06577137034  2933.87469020536 679.978046782773  2935.11016494261 678.861623710798  L 2933.76925485187 677.377723401296  C 2932.29911492643 678.706199073285  2930.79204553096 679.99322722504  2929.24982025399 681.237293222692  L 2931.32785031243 682.12392646712  Z M 2967.88062027796 622.108388420596  C 2968.30522637263 620.134738301638  2968.67445621552 618.149579945252  2968.98787528 616.155249577005  L 2967.01212472 615.844750422995  C 2966.70450486157 617.802179613073  2966.3421068939 619.750606501393  2965.92535730355 621.6877380897  L 2967.88062027796 622.108388420596  Z M 2927.04 674.72  L 2926 685  L 2936.16 686.88  L 2927.04 674.72  Z " fill-rule="nonzero" fill="#797979" stroke="none" />
  </g>
</svg>