<?xml version="1.0" encoding="utf-8"?>
<svg version="1.1" xmlns:xlink="http://www.w3.org/1999/xlink" width="512px" height="36px" viewBox="2180 786  512 36" xmlns="http://www.w3.org/2000/svg">
  <g transform="matrix(0.961261695938318 0.275637355816999 -0.275637355817 0.96126169593832 315.978942771125 -640.30700230462 )">
    <path d="M 1741.49376302498 820.644362671967  C 1735.05778200584 818.924160298734  1728.63425065056 817.157711986378  1722.22366691272 815.345154670374  L 1721.67951086857 817.269705059324  C 1728.09931831441 819.084870328069  1734.53209200725 820.853860250431  1740.97733327664 822.576537693808  L 1741.49376302498 820.644362671967  Z M 1766.65521523336 827.118161661099  C 1760.18820752231 825.518549474089  1753.73278295507 823.872466739472  1747.2894419576 822.180041061955  L 1746.78135117692 824.114425656236  C 1753.23396301443 825.809286438108  1759.69867580785 827.457737597697  1766.17498841119 829.059651346693  L 1766.65521523336 827.118161661099  Z M 1791.93326885017 833.120557510409  C 1785.43749372033 831.642094340068  1778.95243116762 830.116952248295  1772.47858391557 828.545249464447  L 1772.00673590178 830.488792479633  C 1778.48989788702 832.062756668719  1784.98429130978 833.590093173046  1791.4894127232 835.070683593139  L 1791.93326885017 833.120557510409  Z M 1817.3190928937 838.649453260662  C 1810.79681966814 837.292655613573  1804.28438471068 835.888986978697  1797.78229286655 834.438556168704  L 1797.34685246149 836.390578620839  C 1803.8582996778 837.843096346917  1810.38010488948 839.248784615314  1816.9117625247 840.607534456755  L 1817.3190928937 838.649453260662  Z M 1842.80381873224 843.702917371637  C 1836.25732599135 842.468259250098  1829.71979377229 841.186554448933  1823.19172886603 839.857902326189  L 1822.79284819241 841.817722268994  C 1829.33030584158 843.148286089613  1835.87724442536 844.431835039674  1842.43315642359 845.66826961817  L 1842.80381873224 843.702917371637  Z M 1868.37854318235 848.279184396918  C 1861.81011796764 847.167097133319  1855.24977239809 846.00780393419  1848.69801503337 844.801394668236  L 1848.33583344165 846.768327431352  C 1854.89701763861 847.976472509109  1861.46680239724 849.137433728251  1868.04467842631 850.251121090799  L 1868.37854318235 848.279184396918  Z M 1894.03433161929 852.37665560066  C 1887.44626863441 851.387527706802  1880.86540159547 850.351051113097  1874.29224065297 849.267306167474  L 1873.96688467262 851.24066459565  C 1880.54950324337 852.325968860585  1887.13983899818 853.363936762704  1893.73738105274 854.354487838497  L 1894.03433161929 852.37665560066  Z M 1919.76222109826 855.993899516112  C 1913.1568219074 855.128076547486  1906.55773244944 854.214778656152  1899.96546428726 853.25407664117  L 1899.6770475826 855.233171334325  C 1906.2788008649 856.195255631368  1912.88738525775 857.109867598538  1919.50228846199 857.976936334882  L 1919.76222109826 855.993899516112  Z M 1945.55322348574 859.129652445705  C 1938.93279570965 858.387436880783  1932.31778924888 857.597636755807  1925.70871690041 856.760313296284  L 1925.45734023089 858.744452850353  C 1932.07592187783 859.582981071796  1938.70044617514 860.37391758092  1945.33039958817 861.117201064147  L 1945.55322348574 859.129652445705  Z M 1971.39982866327 861.738689977544  C 1964.76550936042 861.13942492332  1958.1361277744 860.486698139478  1951.51232985897 859.780573226419  L 1951.30032265861 861.769304718349  C 1957.93480646107 862.476568792227  1964.57488294215 863.130348592003  1971.21990510573 863.730580414652  L 1971.39982866327 861.738689977544  Z M 1997.29612706563 863.80455253425  C 1990.65070743371 863.344433926689  1984.00910420268 862.83076186298  1977.37196451717 862.263586394308  L 1977.20167554845 864.256323624134  C 1983.84952264471 864.824414092488  1990.50184048744 865.338914841157  1997.15798088777 865.799775738191  L 1997.29612706563 863.80455253425  Z M 2023.23002763255 865.327333027983  C 2016.5764257697 865.0065629117  2009.92551731587 864.632171128816  2003.27795032256 864.204194159335  L 2003.1494543618 866.200062087848  C 2009.8077455878 866.628729494089  2016.46938366499 867.003725267066  2023.13371949633 867.325012867922  L 2023.23002763255 865.327333027983  Z M 2049.19014242012 866.306362784211  C 2042.53128001734 866.125082013915  2035.87398684909 865.890134912609  2029.21891158901 865.601544373077  L 2029.13226506061 867.599666586336  C 2035.79807666615 867.888722696519  2042.46610975792 868.124048827837  2049.1357146158 868.305622050569  L 2049.19014242012 866.306362784211  Z M 2075.16507197337 866.741211897067  C 2068.50387303167 866.699500075719  2061.84311846097 866.604100824598  2055.18345727213 866.45502343922  L 2055.1386982238 868.454522533391  C 2061.80910315638 868.603840418876  2068.48060323475 868.699393573489  2075.15254840097 868.741172686716  L 2075.16507197337 866.741211897067  Z M 2101.14341033197 866.631689418134  C 2094.48279987838 866.729564861986  2087.82150873711 866.773755352215  2081.1601859713 866.764256582987  L 2081.15733405738 868.764254549632  C 2087.82940324747 868.773768642815  2094.50144076205 868.729506861976  2101.17279649078 868.631473519898  L 2101.14341033197 866.631689418134  Z M 2127.11375003872 865.977843440285  C 2120.45665284187 866.21526317084  2113.79775019753 866.399023997749  2107.13769093614 866.529108015715  L 2107.17674740895 868.528726627334  C 2113.84755105629 868.39843275044  2120.51719622061 868.214375470128  2127.18503302486 867.976572720575  L 2127.11375003872 865.977843440285  Z M 2153.06468714878 864.779961076573  C 2146.41402643453 865.156820839458  2139.76043630582 865.480071311057  2133.10456507544 865.749680994478  L 2133.18551278471 867.748042190149  C 2139.85212164466 867.477997557071  2146.51644572296 867.154225599447  2153.17783566086 866.776757864985  L 2153.06468714878 864.779961076573  Z M 2178.98482623721 863.03856833415  C 2172.34352240512 863.554702644891  2165.69816647792 864.017300817311  2159.04940596609 864.426317776748  L 2159.17220936655 866.422544047699  C 2165.83169603653 866.012867238868  2172.48777262943 865.549522776797  2179.13979059013 865.032555808866  L 2178.98482623721 863.03856833415  Z M 2204.86064985383 860.742358923066  C 2200.77939052626 861.149822177451  2196.69613423403 861.537029106971  2192.61103181748 861.90396540774  C 2190.06164439174 862.130406517531  2187.51156184513 862.348952252898  2184.96082086012 862.5595994701  L 2185.12542602705 864.552814245035  C 2187.68061200248 864.341799948279  2190.23513830604 864.122872347293  2192.78896818199 863.896034592109  C 2196.88099099889 863.528479979854  2200.97116442926 863.140618762833  2205.059337353 862.732465271398  L 2204.86064985383 860.742358923066  Z M 2230.68224820524 857.890847459717  C 2224.06919289568 858.691353980304  2217.44979304159 859.438547422421  2210.82469362433 860.132354981001  L 2211.03300265772 862.121477236322  C 2217.66879006173 861.426550387972  2224.29886870765 860.678151530954  2230.92259257374 859.87635358777  L 2230.68224820524 857.890847459717  Z M 2256.43842695087 854.498898835285  C 2249.84359731939 855.437798909127  2243.24130741938 856.323530552726  2236.63220056503 857.156007462123  L 2236.88214373467 859.140328104547  C 2243.50191277563 858.30650819611  2250.11485386479 857.419347639906  2256.72032265005 856.478932879129  L 2256.43842695087 854.498898835285  Z M 2282.11787618695 850.568002502566  C 2275.54416811691 851.644883845306  2268.96188733014 852.668764753056  2262.37167519138 853.639545460836  L 2262.66314274368 855.618193146999  C 2269.26398658706 854.64584632063  2275.85688628307 853.620313630043  2282.44119943243 852.541695001142  L 2282.11787618695 850.568002502566  Z M 2307.70931970277 846.099884573946  C 2301.15961980264 847.314274311708  2294.60023850218 848.475854882948  2288.03181493466 849.584513105529  L 2288.36467888208 851.55661898314  C 2294.94369900363 850.446172210135  2301.51366227064 849.282717711129  2308.07392851871 848.066368850857  L 2307.70931970277 846.099884573946  Z M 2333.20151993214 841.096507063442  C 2326.67870426815 842.447871940452  2320.14510277145 843.74664210866  2313.60135206321 844.992691018478  L 2313.97546624046 846.957389107848  C 2320.52977369908 845.709330001146  2327.07391557288 844.40846458312  2333.60725421364 843.054919607524  L 2333.20151993214 841.096507063442  Z M 2358.58328288805 835.560067025151  C 2352.0902157212 837.047813637895  2345.58526302532 838.483203094675  2339.06905863026 839.866095533952  L 2339.4842587585 841.822523108258  C 2346.01097546469 840.437399708335  2352.52642231974 838.999694599753  2359.02996447142 837.509547869652  L 2358.58328288805 835.560067025151  Z M 2383.84346307802 829.492995588496  C 2377.38299560624 831.116470646328  2370.90954812837 832.687849091765  2364.42375140429 834.20697781281  L 2364.87985516325 836.154275776928  C 2371.37611514302 834.632696311141  2377.86000595417 833.058782828713  2384.33089581903 831.432688688701  L 2383.84346307802 829.492995588496  Z M 2408.97096839831 822.897956890679  C 2402.54593750465 824.656447502637  2396.10683782737 826.363124922176  2389.65429677974 828.017822853987  L 2390.15110388779 829.955136121736  C 2396.61405454118 828.297768737223  2403.06354213986 826.588338008716  2409.49893825834 824.827010499809  L 2408.97096839831 822.897956890679  Z M 2433.95402434244 815.777895949204  C 2433.88291072618 815.799026645092  2433.81179541359 815.820151649286  2433.74067841495 815.841270958737  C 2427.4249298767 817.711719349227  2421.09437458366 819.531802965602  2414.74961566595 821.301348403292  L 2415.28690796802 823.227826272912  C 2421.64214151481 821.455359474091  2427.98314744941 819.632269160602  2434.30932160056 817.758729036554  C 2434.38077867103 817.737508778992  2434.45223403782 817.716282781515  2434.5236876984 817.695051044879  L 2433.95402434244 815.777895949204  Z M 2458.78851489807 808.145279790335  C 2452.43914502647 810.161823892801  2446.07536028874 812.132696421509  2439.69765400691 814.057744593972  L 2440.27558144076 815.972424692894  C 2446.66246412575 814.044606713017  2453.03540523598 812.070898443666  2459.39391073961 810.051452887156  L 2458.78851489807 808.145279790335  Z M 2483.47601239849 800.049835531193  C 2477.16544120685 802.184698317973  2470.83960405655 804.274166925374  2464.4989913281 806.318079377257  L 2465.11260354582 808.221623452466  C 2471.46233930633 806.174770168264  2477.79727822914 804.082295181237  2484.11692922833 801.944360700524  L 2483.47601239849 800.049835531193  Z M 2508.00789217496 791.494391345231  C 2501.73832428468 793.746826994108  2495.45264467652 795.954161716582  2489.15134061797 798.116224399505  L 2489.80042325187 800.007967440822  C 2496.11079378419 797.842793928076  2502.40551738517 795.632283237265  2508.68410608643 793.376606727682  L 2508.00789217496 791.494391345231  Z M 2532.37558392436 782.481936108584  C 2526.14920963222 784.851157722816  2519.90588349167 787.175587419798  2513.64608948695 789.455045009149  L 2514.3304157776 791.334326129133  C 2520.59921653035 789.051588799244  2526.85152572456 786.723814654729  2533.08685867962 784.351184145237  L 2532.37558392436 782.481936108584  Z M 2556.57057470326 773.01561835589  C 2550.38956921617 775.500798239137  2544.19077767241 777.941510862475  2537.97468060373 780.337567021308  L 2538.6940114792 782.203729686134  C 2544.91905242368 779.804226021827  2551.1267629436 777.360001640176  2557.31666181584 774.871246018015  L 2556.57057470326 773.01561835589  Z M 2580.58441190197 763.098745180339  C 2574.45093457715 765.699015125775  2568.29884320088 768.255158003513  2562.12861468484 770.766975660708  L 2562.88269884423 772.619367919533  C 2569.06180523927 770.103936196317  2575.22274839829 767.544115476355  2581.36505072357 764.940104197535  L 2580.58441190197 763.098745180339  Z M 2604.40870619747 752.734781078329  C 2598.32489978791 755.449232672036  2592.22165783515 758.119912806139  2586.09945346389 760.74661444891  L 2586.88802746511 762.584589161634  C 2593.01904061699 759.954108154904  2599.13106406678 757.279585379486  2605.22362400903 754.561228164998  L 2604.40870619747 752.734781078329  Z M 2628.03513448424 741.927346739128  C 2622.00312439028 744.755031677369  2615.95086405118 747.539316055859  2609.87882263952 750.279984036241  L 2610.7016109913 752.102899099586  C 2616.78238900784 749.358287777643  2622.84335749042 746.569997301187  2628.8840465912 743.738243819212  L 2628.03513448424 741.927346739128  Z M 2651.45544278201 730.680217779976  C 2645.47733630876 733.620148200525  2639.47817196283 736.517064123362  2633.45841480097 739.370740978826  L 2634.31513005917 741.177959550658  C 2640.34354859808 738.320176753614  2646.35134469152 735.419092675784  2652.33805261377 732.474932209869  L 2651.45544278201 730.680217779976  Z M 1716.45770247162 813.701422188684  C 1710.05499657821 811.861230588301  1703.66560251937 809.975033813471  1697.29001560235 808.042978082596  L 1696.70998439765 809.957021917404  C 1703.09474466843 811.891857538342  1709.49333194711 813.780768220226  1715.90525021374 815.623607534265  L 1716.45770247162 813.701422188684  Z M 2665.19625431645 723.828217425378  C 2662.41221504972 725.235761329091  2659.62344525189 726.633928930349  2656.82999233034 728.022696461158  L 2657.7203351983 729.813587182971  C 2660.52038419535 728.421540407533  2663.3157346794 727.020062690296  2666.10633904365 725.609177899411  L 2665.19625431645 723.828217425378  Z M 2668.19690332059 731.944981096305  L 2671 722  L 2661.31855693391 718.390337944052  L 2668.19690332059 731.944981096305  Z " fill-rule="nonzero" fill="#000000" stroke="none" />
  </g>
</svg>