<?xml version="1.0" encoding="utf-8"?>
<svg version="1.1" xmlns:xlink="http://www.w3.org/1999/xlink" width="456px" height="30px" viewBox="2134 782  456 30" xmlns="http://www.w3.org/2000/svg">
  <g transform="matrix(0.956304755963038 0.292371704722737 -0.292371704722731 0.956304755963035 336.22841507932 -655.756857057644 )">
    <path d="M 1741.65009816114 820.020058919613  C 1735.18821499338 818.402022473076  1728.73935314585 816.732420378161  1722.30412920987 815.011412269578  L 1721.78741698093 816.943511768172  C 1728.23292479035 818.667270150832  1734.69209230559 820.339540369951  1741.16430194982 821.960162535679  L 1741.65009816114 820.020058919613  Z M 1766.91499175802 826.068357965087  C 1760.42091566125 824.584797496033  1753.93878774655 823.049412208426  1747.4692277859 821.462348904182  L 1746.99273089242 823.404757386068  C 1753.47262959752 824.994356912565  1759.96511634109 826.532195837875  1766.46957036058 828.01812712545  L 1766.91499175802 826.068357965087  Z M 1792.2999849364 831.59093808119  C 1785.77651412413 830.242492836666  1779.26391320747 828.841985934059  1772.762804872 827.389551279236  L 1772.32672863033 829.341431785683  C 1778.83822612645 830.796187518112  1785.36123456966 832.198932514679  1791.89513027916 833.5495326555  L 1792.2999849364 831.59093808119  Z M 1817.79413963055 836.585419659472  C 1811.24408498211 835.372670667119  1804.70381725912 834.10764560985  1798.17396179245 832.790465439782  L 1797.77849410221 834.750976930688  C 1804.31878466917 836.070262033591  1810.86950413193 837.337308676713  1817.43002616016 838.551995714621  L 1817.79413963055 836.585419659472  Z M 1843.38647073846 841.049650642322  C 1836.81265458781 839.973120460019  1830.24753817538 838.844122331048  1823.6917492079 837.66276420166  L 1823.33706047101 839.631061917943  C 1829.90332598207 840.814307928406  1836.47893384396 841.945110264046  1843.06325534671 843.023360806084  L 1843.38647073846 841.049650642322  Z M 1869.06595085517 844.981707450262  C 1862.47120577481 844.041859940966  1855.88406949677 843.049375210997  1849.30517183331 842.004348154256  L 1848.99141488057 843.979583981849  C 1855.58082601672 845.026281054447  1862.17848893323 846.020351834484  1868.7837728114 846.961701276418  L 1869.06595085517 844.981707450262  Z M 1894.82151502432 848.379895810795  C 1888.20868260469 847.577135942652  1881.60236477311 846.721592260555  1875.00319317565 845.813346565113  L 1874.73050320087 847.794669400407  C 1881.34022066995 848.70436652689  1887.95709579334 849.561277419063  1894.58049591541 850.365320145575  L 1894.82151502432 848.379895810795  Z M 1920.64206550595 851.242751488441  C 1914.01399513116 850.577425160314  1907.39134232301 849.859191168805  1900.7747402894 849.088118186009  L 1900.54323479118 851.074674302582  C 1907.17041055132 851.84697950621  1913.80364675549 852.566361278673  1920.44230918391 853.23275083814  L 1920.64206550595 851.242751488441  Z M 1946.5173140306 853.523713338005  C 1939.87591680638 853.016416057991  1933.23919348834 852.449681078969  1926.60794166915 851.823576510401  L 1926.41994327442 853.814721056531  C 1933.06307705958 854.441947487663  1939.71169214747 855.009697950021  1946.36498951633 855.517904212107  L 1946.5173140306 853.523713338005  Z M 1972.43927310036 855.200597905254  C 1965.78786922672 854.847987453892  1959.13975484137 854.435846634403  1952.49572890575 853.964224977318  L 1952.35411659544 855.959205166084  C 1959.01004738583 856.431671881179  1965.67007395176 856.844551180119  1972.33339590006 857.197793443617  L 1972.43927310036 855.200597905254  Z M 1998.39323471451 856.273808228452  C 1991.73542656023 856.076075577888  1985.07952169458 855.818752131434  1978.42632001544 855.501868813883  L 1978.33117048611 857.499604173501  C 1984.99629346127 857.817055286831  1991.66412446652 858.074839808888  1998.33386217076 858.272926759467  L 1998.39323471451 856.273808228452  Z M 2024.36514233083 856.74276306199  C 2017.70453573312 856.700015303287  2011.04444519367 856.597648595027  2004.38567111338 856.435675239505  L 2004.33703589754 858.435083806002  C 2011.00774125856 858.597347387555  2017.67976543756 858.699897517856  2024.35230659952 858.742721872567  L 2024.36514233083 856.74276306199  Z M 2050.34092968763 856.607208422162  C 2043.68113199936 856.719468707302  2037.02046285948 856.772114178557  2030.35972273842 856.765138509064  L 2030.35762817669 858.765137412267  C 2037.03030310122 858.772125580858  2043.70290691746 858.719385778741  2050.37463772053 858.606924344116  L 2050.34092968763 856.607208422162  Z M 2076.306528422 855.867217724713  C 2069.65114655793 856.13442525406  2062.99350620435 856.342054392295  2056.3344074677 856.490080186821  L 2056.37885469449 858.489586236832  C 2063.04988529355 858.341295207702  2069.71945489646 858.133294036792  2076.386761963 857.86560772141  L 2076.306528422 855.867217724713  Z M 2102.2478756891 854.523191745089  C 2095.60051417241 854.945201800315  2088.9495083515 855.307702154575  2082.29565753548 855.610649243053  L 2082.38662247836 857.608579516903  C 2089.05239575353 857.305089603768  2095.71531893588 856.941939716512  2102.3745912841 856.519173498008  L 2102.2478756891 854.523191745089  Z M 2128.1509217786 852.57585840137  C 2121.51518078868 853.152442423836  2114.87441165356 853.669617665652  2108.22941245214 854.127321973379  L 2108.36684584494 856.12259440153  C 2115.02375164508 855.664069973085  2121.67641979939 855.145968049735  2128.32405079904 854.568350896282  L 2128.1509217786 852.57585840137  Z M 2153.99957449634 850.016247130184  C 2150.60104293538 850.394828649934  2147.2007895831 850.757790557999  2143.79892214683 851.105121357098  C 2140.5745307766 851.431095582474  2137.34873500782 851.743025335333  2134.12162661932 852.040901740796  L 2134.30545402878 854.032435693188  C 2137.53867453541 853.733995112135  2140.77057980068 853.421473130785  2144.00107785289 853.094878642709  C 2147.40937054139 852.746894884683  2150.81604595318 852.383248980888  2154.22099615691 852.003952452466  L 2153.99957449634 850.016247130184  Z M 2179.7808200254 846.840198825058  C 2173.17997486719 847.731462432539  2166.57128413408 848.56362331236  2159.95554204962 849.336581456546  L 2160.18763569275 851.323068944758  C 2166.81523195258 850.548725803804  2173.43576422645 849.71507384695  2180.04843686753 848.822213261385  L 2179.7808200254 846.840198825058  Z M 2205.48117543041 843.065064930381  C 2198.90285802515 844.109692967694  2192.31532181223 845.095416853645  2185.71935847289 846.022118125263  L 2185.99761606787 848.00266671362  C 2192.6053981428 847.074304966232  2199.20473799145 846.086814847002  2205.79484251408 845.040315031158  L 2205.48117543041 843.065064930381  Z M 2231.08672152106 838.692890040721  C 2224.53449465421 839.890316742284  2217.97168073972 841.029069771005  2211.39906848792 842.109012273047  L 2211.72333933175 844.082549305849  C 2218.30772847839 843.00067174834  2224.8823017308 841.85987828668  2231.44626896568 840.660306019885  L 2231.08672152106 838.692890040721  Z M 2256.58359045534 833.726042105212  C 2250.06100278179 835.07561895042  2243.5264655546 836.366784378676  2236.98076408585 837.599383219422  L 2237.35087255499 839.564839838395  C 2243.90830269945 838.330032410512  2250.45454859808 837.036553454725  2256.98882353172 835.684558419622  L 2256.58359045534 833.726042105212  Z M 2281.95797325026 828.167211145081  C 2275.46855737248 829.668207209531  2268.96583590688 831.111085748265  2262.45059034197 832.495673358042  L 2262.86633598744 834.451985081227  C 2269.39325565679 833.064916548791  2275.90762878586 831.619452640953  2282.40867248609 830.115767071613  L 2281.95797325026 828.167211145081  Z M 2307.19612726074 822.019407796744  C 2300.74339781551 823.671010148105  2294.27601395454 825.264820341161  2287.79475291949 826.800646833904  L 2288.25591057542 828.746754132173  C 2294.74878482094 827.208175724918  2301.22775702705 825.611509721383  2307.69204855945 823.956948006773  L 2307.19612726074 822.019407796744  Z M 2332.28438362256 815.285961681268  C 2325.87183537745 817.087275819566  2319.44329182551 818.831154466905  2312.99952554045 820.517388046294  L 2313.50584544605 822.452236917187  C 2319.96115775794 820.762981921858  2326.4012200605 819.015978569355  2332.82525839554 817.211436812228  L 2332.28438362256 815.285961681268  Z M 2357.20915465535 807.970519601052  C 2350.84026061606 809.920569943099  2344.45403904165 811.813572568368  2338.05125741984 813.649299978299  L 2338.60246535465 815.571842516867  C 2345.01671956647 813.732825825937  2351.41438405834 811.836431293176  2357.79468996741 809.882886824767  L 2357.20915465535 807.970519601052  Z M 2381.96083822499 800.084193608479  C 2375.63540909895 802.172954577813  2369.29340418646 804.211180270591  2362.93542986218 806.19867580705  L 2363.53215177391 808.107582027917  C 2369.90028652214 806.116910354495  2376.25242633849 804.07542745493  2382.58796387931 801.983328520404  L 2381.96083822499 800.084193608479  Z M 2406.54356278058 791.682620944432  C 2400.26285221597 793.902226949828  2393.96452049039 796.071652624823  2387.64916980281 798.190690545304  L 2388.28538575184 800.086799525873  C 2394.61082874826 797.964375255817  2400.91922558532 795.791482708602  2407.20997310177 793.568329639806  L 2406.54356278058 791.682620944432  Z M 2430.94660220846 782.772602061934  C 2424.71331648235 785.12209670383  2418.46137181349 787.421787583537  2412.19136596565 789.671454821965  L 2412.86680181476 791.553949553363  C 2419.14682750768 789.300687211872  2425.40876315868 786.997321288365  2431.65201004893 784.644072013233  L 2430.94660220846 782.772602061934  Z M 2455.1594415541 773.357976173056  C 2448.97626650881 775.836347084552  2442.77340277888 778.26531226187  2436.55144343533 780.644639465685  L 2437.26580814792 782.512708805244  C 2443.49771055534 780.129579293982  2449.71048683319 777.696732484769  2455.90354296271 775.214400988046  L 2455.1594415541 773.357976173056  Z M 2479.17164781772 763.442799918507  C 2473.04124770353 766.048979201585  2466.8901376464 768.606172066788  2460.71890576907 771.114134014626  L 2461.47189153462 772.966973035392  C 2467.65298541031 770.455003214067  2473.81392530983 767.893723801464  2479.95412217078 765.283379687711  L 2479.17164781772 763.442799918507  Z M 2502.97287444973 753.031345619686  C 2496.89789077688 755.76421030535  2490.80118482644 758.448528997057  2484.68333951945 761.084045040503  L 2485.47462188611 762.920855378072  C 2491.60224387651 760.281127622061  2497.70869272837 757.592519228243  2503.79338458916 754.855287261051  L 2502.97287444973 753.031345619686  Z M 2526.55286580898 742.128099437792  C 2520.53591620945 744.986471969957  2514.49624135761 747.796759849883  2508.43441872146 750.558694379124  L 2509.26365673589 752.378684575642  C 2515.33516652783 749.612336309534  2521.38449314202 746.797557421159  2527.41105818754 743.93461703842  L 2526.55286580898 742.128099437792  Z M 2549.90146158171 730.737759440795  C 2543.94513868142 733.720408183624  2537.96509734597 736.655454335068  2531.9619093418 739.542617268158  L 2532.82874569605 741.345003113353  C 2538.84152715434 738.453226320904  2544.83112495422 735.513489789816  2550.79696641539 732.526074595583  L 2549.90146158171 730.737759440795  Z M 1716.51619046212 813.448647078717  C 1710.08928456543 811.696831845714  1703.67646751628 809.893732353455  1697.27835245988 808.03952100071  L 1696.72164754012 809.96047899929  C 1703.12998716777 811.817653492886  1709.55305228281 813.623634446174  1715.99022876025 815.378249184893  L 1716.51619046212 813.448647078717  Z M 2567.2182593277 721.897411623593  C 2563.24176114259 723.966536549597  2559.25417504631 726.014282359677  2555.25567368862 728.040560392966  L 2556.15973487409 729.824565262055  C 2560.1674770438 727.793604360674  2564.16427091739 725.741110761809  2568.14994319991 723.667173458478  L 2567.2182593277 721.897411623593  Z M 2570.31808635177 729.978343508991  L 2573 720  L 2563.27536356502 716.508374847222  L 2570.31808635177 729.978343508991  Z " fill-rule="nonzero" fill="#000000" stroke="none" />
  </g>
</svg>