<?xml version="1.0" encoding="utf-8"?>
<svg version="1.1" xmlns:xlink="http://www.w3.org/1999/xlink" width="906px" height="52px" viewBox="910 906  906 52" xmlns="http://www.w3.org/2000/svg">
  <g transform="matrix(0.992546151641322 -0.121869343405147 0.121869343405148 0.99254615164132 -103.42263274072 173.054901731506 )">
    <path d="M 964.28630680667 869.444271472209  C 957.894536219005 867.558573333869  951.509995478803 865.648454866624  945.132824455249 863.713957916353  L 944.552254202205 865.62783831525  C 950.934301367157 867.563814429342  957.323723884049 869.47539342009  963.720381776296 871.362533409484  L 964.28630680667 869.444271472209  Z M 989.250308181839 876.674519591721  C 982.840116530609 874.852424175143  976.436911725365 873.005837798164  970.040834044895 871.134800915044  L 969.479309067274 873.054355472619  C 975.880277345875 874.926822996507  982.288378198333 876.774821318654  988.703471239582 878.598309954152  L 989.250308181839 876.674519591721  Z M 1014.28491809224 883.656364560135  C 1007.85693825318 881.898051760091  1001.43570156953 880.11517978634  995.021348714401 878.307787697114  L 994.478924451367 880.232826896422  C 1000.89818187803 882.041600961976  1007.32432839699 883.825836163434  1013.75722322712 885.585493412577  L 1014.28491809224 883.656364560135  Z M 1039.38766487966 890.389117062356  C 1032.94253148506 888.694760476483  1026.5038968892 886.975778928215  1020.07190214634 885.232210076102  L 1019.54863215125 887.162543858699  C 1025.98554495507 888.907445886327  1032.42910268911 890.627741810114  1038.8791641908 892.323393942595  L 1039.38766487966 890.389117062356  Z M 1064.55607015872 896.872112376096  C 1058.09441953434 895.241879287625  1051.63902271041 893.586957879281  1045.19002110839 891.907384406221  L 1044.68595704351 893.842822190934  C 1051.13988971047 895.523679907103  1057.60022248915 897.179866708947  1064.06681385022 898.811346313659  L 1064.55607015872 896.872112376096  Z M 1089.78764906163 903.10471043751  C 1083.31011916397 901.538761798779  1076.83859745102 899.94806392017  1070.3732256975 898.33265164986  L 1069.88841732889 900.273002351596  C 1076.35873266437 901.889649805783  1082.83520266156 903.481563971008  1089.31768543759 905.04870997251  L 1089.78764906163 903.10471043751  Z M 1115.07991048349 909.086295904385  C 1108.58714083691 907.58478632098  1102.10013316576 906.058469021089  1095.61902958474 904.507377442645  L 1095.15352477736 906.452449491261  C 1101.63958396928 908.004727072404  1108.13155176562 909.53221143194  1114.62928594326 911.034869106432  L 1115.07991048349 909.086295904385  Z M 1140.43035732822 914.816278216891  C 1133.92298896147 913.379355932297  1127.42113579234 911.917569903953  1120.92494026078 910.430952156069  L 1120.47878497376 912.380553515287  C 1126.97994765602 913.868307967624  1133.48677230132 915.331211713365  1139.99911636179 916.769232704039  L 1140.43035732822 914.816278216891  Z M 1165.8375076725 920.285728124049  C 1159.3153754214 918.918437957628  1152.798945386 917.524087397783  1146.28838590178 916.102712464028  L 1145.86179700319 918.056688388036  C 1152.37776237391 919.479243526284  1158.89960317026 920.874751851581  1165.42715091701 922.243177314509  L 1165.8375076725 920.285728124049  Z M 1191.30206090885 925.480824339547  C 1184.76555586017 924.183984623699  1178.23446072585 922.860024565249  1171.70894422019 921.508978365351  L 1171.30346267083 923.467443252228  C 1177.83439748219 924.819611260846  1184.37091555428 926.144670637688  1190.91284803272 927.442587153206  L 1191.30206090885 925.480824339547  Z M 1216.82118462478 930.400867122537  C 1210.2710677437 929.174628832417  1203.72606784582 927.921213407807  1197.18635400463 926.640653227517  L 1196.80202700975 928.603379077199  C 1203.34717094505 929.885002539837  1209.89760532619 931.1394587078  1216.45316093929 932.366715175393  L 1216.82118462478 930.400867122537  Z M 1242.39190794146 935.045283692737  C 1235.82894177781 933.889789584241  1229.27079907049 932.707064713267  1222.71764923252 931.497139632515  L 1222.3545215346 933.463897948884  C 1228.91311262294 934.674827661829  1235.47670072633 935.858534579954  1242.04511629109 937.014988125193  L 1242.39190794146 935.045283692737  Z M 1268.01125397293 939.413533357642  C 1261.43620257244 938.328917950789  1254.86568053987 937.217021323614  1248.29985760804 936.077872199148  L 1247.95797148159 938.048434016636  C 1254.52924618659 939.188529006182  1261.1052238941 940.301348869979  1267.6857347304 941.386864861151  L 1268.01125397293 939.413533357642  Z M 1293.67624017273 943.505107575479  C 1287.08986898803 942.491497138748  1280.50773255558 941.450558199869  1273.93000090818 940.382317648861  L 1273.60939615481 942.356453559106  C 1280.19258946349 943.425581097964  1286.78019121463 944.467384355456  1293.37203123423 945.481836419236  L 1293.67624017273 943.505107575479  Z M 1319.38387868102 947.319530014403  C 1312.78695448261 946.377042550035  1306.19396992774 945.407182483216  1299.60509532947 944.409974867823  L 1299.30580927326 946.387455046374  C 1305.9001547851 947.385490669128  1312.49861366612 948.356156035927  1319.10101546188 949.299426072094  L 1319.38387868102 947.319530014403  Z M 1345.13117667251 950.856356607957  C 1338.52446745943 949.985101838218  1331.92140232254 949.086433552381  1325.32215183531 948.160374965264  L 1325.04421931847 950.140969198338  C 1331.64894933476 951.067796715949  1338.25749716773 951.967211189349  1344.86969210304 952.839189384549  L 1345.13117667251 950.856356607957  Z M 1370.91579347006 954.117022260132  C 1370.27592860665 954.039086658425  1369.6360975295 953.96087391361  1368.99630041916 953.88238404776  C 1363.02080279488 953.155008854356  1357.04805285715 952.405236013035  1351.07817650398 951.63308132806  L 1350.82162988279 953.616559039344  C 1356.79615277299 954.389314715883  1362.77355133586 955.139672292109  1368.75369958882 955.86761595312  C 1369.39375927373 955.946137758394  1370.03385292262 956.024382463378  1370.6739803554 956.10235004606  L 1370.91579347006 954.117022260132  Z M 1396.73120560977 957.108949023764  C 1390.10746726309 956.380326516234  1383.48702463572 955.622048859755  1376.87007682923 954.834138858582  L 1376.63359833712 956.82010913096  C 1383.25647446726 957.608725044531  1389.88284854946 958.367682064901  1396.51252130364 959.096957367371  L 1396.73120560977 957.108949023764  Z M 1422.57969920459 959.800139946074  C 1415.94792737872 959.148677826386  1409.319105815 958.46752419986  1402.69343386698 957.756699551344  L 1402.48009130148 959.745288234241  C 1409.11169938938 960.456749732057  1415.74645991486 961.138513624722  1422.38417334567 961.790559409025  L 1422.57969920459 959.800139946074  Z M 1448.45777096184 962.19023028513  C 1441.81886447271 961.616016847113  1435.18256238871 961.012079568514  1428.54906428835 960.378436611995  L 1428.35888656416 962.36937418842  C 1434.99832781608 963.003584844827  1441.64057556387 963.608063209103  1448.2854300501 964.182791102305  L 1448.45777096184 962.19023028513  Z M 1474.36191358003 964.278896107704  C 1467.71677221055 963.782009175535  1461.07388903619 963.255370097564  1454.43346383339 962.698994711807  L 1454.26647672564 964.69201134642  C 1460.91285128632 965.248885205722  1467.56168602041 965.775996115554  1474.21278097314 966.273328223762  L 1474.36191358003 964.278896107704  Z M 1500.28861622426 966.065854333169  C 1493.63814060235 965.646361250825  1486.9895766595 965.197091749822  1480.34312434301 964.718059341381  L 1480.19935048375 966.712884917063  C 1486.85175755788 967.192346505125  1493.50627815028 967.642018520265  1500.16271213443 968.061887439148  L 1500.28861622426 966.065854333169  Z M 1526.23436500202 967.550862771872  C 1519.57945647857 967.208820394003  1512.92611285904 966.836981360269  1506.27453423445 966.435356853266  L 1506.15399310961 968.431721007728  C 1512.81153108453 968.833705342266  1519.47083563613 969.205877517853  1526.13170649327 969.548226341826  L 1526.23436500202 967.550862771872  Z M 1552.19564343946 968.733720157957  C 1545.53720396616 968.46917484218  1538.87998240952 968.174816671726  1532.22417897721 967.85065449905  L 1532.12688692396 969.84828666148  C 1538.78865349198 970.172739260855  1545.45183945454 970.467361155688  1552.11624442526 970.73214348562  L 1552.19564343946 968.733720157957  Z M 1578.16893295794 969.614266176642  C 1571.5078649649 969.427253777253  1564.8476677366 969.210416364978  1558.18854156942 968.963760460905  L 1558.11451177391 970.962389888633  C 1564.77960405349 971.209266779184  1571.44576835422 971.426298462665  1578.1128041994 971.613478412114  L 1578.16893295794 969.614266176642  Z M 1604.15071335096 970.192381485943  C 1597.48791962493 970.082927349077  1590.82564939293 969.943640083327  1584.16410301444 969.774523877585  L 1584.11334551007 971.773879692779  C 1590.7808601693 971.943147414842  1597.44909933099 972.082559472271  1604.1178624553 972.192111672407  L 1604.15071335096 970.192381485943  Z M 1630.13746326123 970.467987732858  C 1623.47384682246 970.436106693026  1616.81040653644 970.374388451663  1610.14734279785 970.282834864869  L 1610.11986446388 972.28264609125  C 1616.78889784278 972.374281703672  1623.45830810652 972.436055240274  1630.12789468079 972.467964843294  L 1630.13746326123 970.467987732858  Z M 1656.12566065792 970.441047563977  C 1649.46212463829 970.486743942074  1642.79841740628 970.502603089882  1636.13473936456 970.488624530456  L 1636.13054392517 972.488620130024  C 1642.80019215757 972.502611213263  1649.46986960648 972.486737856765  1656.13937568955 972.441000537901  L 1656.12566065792 970.441047563977  Z M 1682.11178331403 970.111564630549  C 1675.44923083454 970.234832233263  1668.78615980072 970.328266620823  1662.12277059611 970.391864983307  L 1662.14185861992 972.391773893069  C 1668.81121775643 972.328118550889  1675.48025843716 972.234600452634  1682.14878009891 972.111222410748  L 1682.11178331403 970.111564630549  Z M 1708.09230928376 969.479583587988  C 1701.4316433321 969.680405708639  1694.77011155443 969.851402672621  1688.10791428802 969.992569337414  L 1688.15028318799 971.99212050613  C 1694.81844931853 971.850827365851  1701.48594936379 971.679677200522  1708.15258280764 971.478675157257  L 1708.09230928376 969.479583587988  Z M 1734.06371737983 968.545190089818  C 1727.40584068799 968.823539510624  1720.74675101582 969.072075875503  1714.08664862716 969.290791710033  L 1714.15229266096 971.289714134947  C 1720.81836203678 971.070802346287  1727.48341778882 970.82204331016  1734.14725947374 970.54344450769  L 1734.06371737983 968.545190089818  Z M 1760.02248765072 967.308510776065  C 1753.36830257267 967.664349771829  1746.71255752438 967.990391853025  1740.05545266908 968.286627214343  L 1740.14436293986 970.284649977915  C 1746.8074320966 969.988149210383  1753.46914022847 969.661815018212  1760.12928699205 969.305657215535  L 1760.02248765072 967.308510776065  Z M 1785.96510185774 965.769713256094  C 1779.31551024713 966.20299359932  1772.66401188777 966.606497207766  1766.01080681519 966.980211946562  L 1766.12297127278 968.977064253182  C 1772.78213715299 968.603014692049  1779.43959479094 968.199149572515  1786.09514397178 967.765481040325  L 1785.96510185774 965.769713256094  Z M 1811.88698051314 963.928125196763  C 1811.56576024156 963.953134805726  1811.24453456241 963.978074871107  1810.92330349197 964.002945391642  C 1804.60057288826 964.486151650732  1798.27581207329 964.942414984501  1791.9491932898 965.371722967492  L 1792.08459673234 967.367134180187  C 1798.41721396104 966.937419158222  1804.74797136115 966.480721821369  1811.07669650863 965.997054608202  C 1811.39854539397 965.972136398773  1811.72038888188 965.947148438469  1812.0422269365 965.922090730074  L 1811.88698051314 963.928125196763  Z M 1837.78459797492 961.760052433842  C 1831.14748310563 962.35461669072  1824.50773925166 962.919459270919  1817.86556609507 963.454563187501  L 1818.02616891408 965.448104442285  C 1824.67429299436 964.912521109931  1831.31998559594 964.347172470156  1837.96304685705 963.75207552519  L 1837.78459797492 961.760052433842  Z M 1863.6552205929 959.290636498878  C 1857.02547718198 959.962427200975  1850.39275895585 960.604528846173  1843.75726538601 961.216922123992  L 1843.94106536152 963.208458608469  C 1850.58250387085 962.59551666898  1857.22116454963 961.952839745518  1863.8568477483 961.280447165802  L 1863.6552205929 959.290636498878  Z M 1889.49534207521 956.520212076243  C 1882.87386866342 957.269138174585  1876.24907500983 957.988411859546  1869.62116034684 958.678011499865  L 1869.82813256811 960.667273297524  C 1876.46198538029 959.977055824031  1883.09271438692 959.257137720018  1889.72012017699 958.507540636135  L 1889.49534207521 956.520212076243  Z M 1915.30146026384 953.449154646527  C 1908.68915427148 954.275114637804  1902.07318306033 955.071462878099  1895.45374559748 955.838175418231  L 1895.68386201319 957.824892920853  C 1902.30923003025 957.057493459768  1908.93112869015 956.260431746994  1915.54935884742 955.433731753182  L 1915.30146026384 953.449154646527  Z M 1941.0700776093 950.077880435651  C 1934.46783521406 950.980762376024  1927.8615831198 951.854077241149  1921.25152000132 952.697798767168  L 1921.50474942338 954.681702711366  C 1928.12073469731 953.837225269715  1934.73290553267 952.963127975384  1941.34106307654 952.059437115775  L 1941.0700776093 950.077880435651  Z M 1966.79770164469 946.406846358455  C 1960.20641766031 947.386527878716  1953.61078004013 948.33669100674  1947.01098713973 949.257307167555  L 1947.2872952475 951.23812867127  C 1953.89300110196 950.316687702594  1960.49454795341 949.36567329468  1967.09173726844 948.385114048117  L 1966.79770164469 946.406846358455  Z M 1992.48084545896 942.43654995677  C 1985.901413214 943.492898278925  1979.31728398649 944.519780892537  1972.72865578593 945.517166915388  L 1973.02800513089 947.494637514329  C 1979.62253628271 946.496357903176  1986.21256443076 945.468555274367  1992.79789138805 944.411260537803  L 1992.48084545896 942.43654995677  Z M 2018.11602816958 938.167529331989  C 2011.54933938628 939.300401287256  2004.9776109103 940.403864211212  1998.40104037818 941.477884918583  L 1998.72339038896 943.451736602614  C 2005.30585306963 942.376753647589  2011.88346935572 941.27230209786  2018.45604143421 940.138415168326  L 2018.11602816958 938.167529331989  Z M 2043.69977539427 933.600363072133  C 2037.14672006774 934.809605120344  2030.58828302142 935.989498800335  2024.02466149214 937.140008628274  L 2024.36996848008 939.109973877735  C 2030.93947055626 937.958433273269  2037.50378350497 936.777482490793  2044.06270991183 935.567157046082  L 2043.69977539427 933.600363072133  Z M 2069.22861972188 928.735670173436  C 2062.69008599946 930.021118423847  2056.14582925954 931.277282946768  2049.5960463125 932.504125964613  L 2049.96426347751 934.469937786582  C 2056.51991457317 933.241995602974  2063.07003451067 931.984705644257  2069.6144263032 930.698105721883  L 2069.22861972188 928.735670173436  Z M 2094.69910118236 923.57410995645  C 2088.17597524324 924.935590189956  2081.64678576458 926.267855305574  2075.1117291036 927.570865237093  L 2075.50280654056 929.532257201568  C 2082.04371815643 928.228079864045  2088.57875733346 926.894621131807  2095.10772753838 925.531921106986  L 2094.69910118236 923.57410995645  Z M 2120.10776771567 918.116381976689  C 2113.60093365082 919.553709669431  2107.08769634617 920.961894813468  2100.56825167921 922.340895059386  L 2100.98213638468 924.297601335397  C 2107.50742201928 922.917365601454  2114.02649473026 921.507918821747  2120.53915846453 920.069303383657  L 2120.10776771567 918.116381976689  Z M 2145.45117563967 912.363225929814  C 2138.96151533198 913.876206278192  2132.46511295207 915.360120596789  2125.96216387115 916.814924258731  L 2126.3987997506 918.766679650366  C 2132.90757502027 917.310572585827  2139.40979772359 915.825328783502  2145.90527231421 914.310992910273  L 2145.45117563967 912.363225929814  Z M 2170.72589011683 906.315421551382  C 2164.2542831216 907.903849498455  2157.7755961355 909.463291874044  2151.29002399698 910.993701779859  L 2151.74935187237 912.940241762211  C 2158.24073463099 911.408460715905  2164.72522606898 909.84762118866  2171.20263117252 908.25777012098  L 2170.72589011683 906.315421551382  Z M 2195.92848561978 899.973788511165  C 2189.47580904551 901.637448774447  2183.01571552128 903.272207853005  2176.54839932638 904.878016583495  L 2177.03035694418 906.819077338508  C 2183.50346740325 905.211829915412  2189.96934872068 903.575606206743  2196.42780644304 901.910455419918  L 2195.92848561978 899.973788511165  Z M 2221.05554639554 893.339186302063  C 2214.62267478506 895.077853402693  2208.18205027077 896.787707622391  2201.73386654645 898.468697539419  L 2202.23838858607 900.404015991648  C 2208.6923494332 898.721520024916  2215.13874429782 897.010133895098  2221.57737931253 895.269909070031  L 2221.05554639554 893.339186302063  Z M 2246.1033147934 886.412613711213  C 2239.69123708707 888.226017757324  2233.27107187391 890.010702181726  2226.84301222565 891.766613314137  L 2227.37003030832 893.695927166402  C 2233.80354710944 891.938525339135  2240.22916314556 890.152327143674  2246.64668519951 888.337386290691  L 2246.1033147934 886.412613711213  Z M 2271.08102139878 879.228292021466  C 2264.68679375968 881.104869864089  2258.28480601618 882.954904139965  2251.87522354739 884.778347058143  L 2252.42248274525 886.702017344435  C 2258.83738725681 884.877060374249  2265.24469073662 883.025489966977  2271.64422766898 881.147353953038  L 2271.08102139878 879.228292021466  Z M 2295.97850673002 871.77525771346  C 2289.60489871932 873.720717151745  2283.22324466282 875.639718296375  2276.83370941438 877.532211574818  L 2277.40169229072 879.449865206783  C 2283.79653293609 877.55580054206  2290.18348584555 875.635206000983  2296.56238602837 873.688131197242  L 2295.97850673002 871.77525771346  Z M 2320.79412793167 864.054024613021  C 2314.44188155045 866.068139160966  2308.08130411873 868.055883768566  2301.71255994592 870.017207087475  L 2302.30120037746 871.9286208162  C 2308.67523268383 869.965668959643  2315.04109146804 867.976273876116  2321.39861228427 865.960486956594  L 2320.79412793167 864.054024613021  Z M 2345.5249960251 856.065491608693  C 2339.19485078754 858.148026787626  2332.85609046469 860.204283449451  2326.50887880234 862.234208475986  L 2327.11810826088 864.139159778997  C 2333.47059017779 862.107549253035  2339.81461373782 860.049585227946  2346.15001505924 857.965320866012  L 2345.5249960251 856.065491608693  Z M 2370.16823189839 847.810588707472  C 2363.86092474574 849.961302073344  2357.54471947593 852.085831404631  2351.21977925211 854.184121819501  L 2351.84952681254 856.082388926662  C 2358.17971879848 853.982356246771  2364.50116857719 851.856062863729  2370.81371285077 849.703563704699  L 2370.16823189839 847.810588707472  Z M 2394.72096664162 839.29027692654  C 2388.43723185635 841.50891809815  2382.14431695795 843.701472765985  2375.84238450794 845.86788429095  L 2376.49257685647 847.759246210287  C 2382.79974196453 845.591035857613  2389.09788203346 843.396660654743  2395.38683436679 841.176177287794  L 2394.72096664162 839.29027692654  Z M 2419.18034188076 830.505548181376  C 2412.9209110011 832.791858869523  2406.65201908108 835.052183621637  2400.37382806164 837.286464047954  L 2401.04438950434 839.170700591377  C 2407.3277934687 836.934564984041  2413.60189061236 834.672363425633  2419.86651885991 832.384154354391  L 2419.18034188076 830.505548181376  Z M 2443.54351011053 821.457425170292  C 2437.30911184531 823.811139207841  2431.06497271392 826.138970902324  2424.81125401789 828.440860120104  L 2425.50210648951 830.317751929043  C 2431.76101781045 828.013951392911  2438.01034161259 825.684186839368  2444.24991646048 823.328518451973  L 2443.54351011053 821.457425170292  Z M 2467.80793773591 812.147264630786  C 2465.59669486379 813.00902378021  2463.38428018466 813.86777308921  2461.17069984577 814.723510171733  C 2457.16851761976 816.270409733916  2453.16220917784 817.806612591686  2449.15181742666 819.33210229266  L 2449.86288049971 821.201430863605  C 2453.87662143714 819.674667185059  2457.88627563567 818.137181351422  2461.89180015226 816.588989829031  C 2464.10709228222 815.732591053772  2466.32121784185 814.873177696153  2468.53417067725 814.010752144806  L 2467.80793773591 812.147264630786  Z M 2491.97673260929 802.589691356274  C 2485.7918244487 805.071122346193  2479.59745566972 807.528907620691  2473.39376197604 809.962993335616  L 2474.12426597569 811.824810702197  C 2480.33270316586 809.388863825581  2486.53180831114 806.929199268177  2492.72144560434 804.445870915207  L 2491.97673260929 802.589691356274  Z M 2516.049368848 792.792444954979  C 2509.88942189164 795.33520766656  2503.71977983637 797.854419832175  2497.54057784418 800.350026261955  L 2498.28954509185 802.204493317992  C 2504.47347185369 799.706978686224  2510.64783136837 797.18584026929  2516.81248837151 794.64113329887  L 2516.049368848 792.792444954979  Z M 2540.02346976914 782.75649270559  C 2533.8890921864 785.360336092766  2527.74478598143 787.940726428566  2521.59068576117 790.497607182858  L 2522.35804231159 792.344540837468  C 2528.51684810806 789.785705029336  2534.66585240004 787.203341663889  2540.80492047859 784.597507314089  L 2540.02346976914 782.75649270559  Z M 2563.89666841817 772.482825454141  C 2557.78846585398 775.14749244037  2551.6701021245 777.788806185327  2545.54171126833 780.406708824192  L 2546.32738136065 782.245926730267  C 2552.46045813492 779.626022378779  2558.58350011538 776.982689020546  2564.69637316119 774.315984564525  L 2563.89666841817 772.482825454141  Z M 2587.66660780256 761.972457516187  C 2581.58518331763 764.697685019836  2575.49336612753 767.399661397971  2569.39128968931 770.078327456803  L 2570.19519575461 771.909648029007  C 2576.30193799028 769.228933796348  2582.39841313322 766.524891420799  2588.4844876246 763.7975801413  L 2587.66660780256 761.972457516187  Z M 2611.33094112459 751.226426576655  C 2605.27689513569 754.011945537022  2599.21222592817 756.774317783057  2593.13706636366 759.513482798149  L 2593.95912903257 761.336725230845  C 2600.03893381334 758.595465782888  2606.10824021546 755.83098135938  2612.16691527665 753.043332522783  L 2611.33094112459 751.226426576655  Z M 2634.88733201293 740.2457935874  C 2628.86126223401 743.091328991128  2622.82433977151 745.913824377122  2616.77669687917 748.713217911627  L 2617.61683498974 750.528202196731  C 2623.66910205807 747.726668177312  2629.71064050001 744.902014641904  2635.74131795959 742.054303472059  L 2634.88733201293 740.2457935874  Z M 2658.33345475341 729.031642662452  C 2652.33595613633 731.936913570778  2646.32737644185 734.819253432863  2640.30784730346 737.678599103588  L 2641.16597790914 739.48514604834  C 2647.19010972728 736.623614051721  2653.20328372918 733.739070281879  2659.20536818093 730.831577932096  L 2658.33345475341 729.031642662452  Z M 939.39537865381 861.966334041454  C 933.022660187211 860.017219355735  926.657413855034 858.043757383405  920.299779104485 856.04599135826  L 919.700220895515 857.95400864174  C 926.062716849667 859.95330220783  932.432830205317 861.92827313759  938.810421408898 863.878878164246  L 939.39537865381 861.966334041454  Z M 2669.17318380091 723.749845830976  C 2667.3592154677 724.638904829436  2665.54421778735 725.525862087088  2663.72819441431 726.410715818066  L 2664.60423279218 728.208647062722  C 2666.42301948422 727.322446910125  2668.24077814489 726.434138436914  2670.05750510954 725.543723433947  L 2669.17318380091 723.749845830976  Z M 2672.07465575611 731.909710442529  L 2675 722  L 2665.36373945758 718.271396674541  L 2672.07465575611 731.909710442529  Z " fill-rule="nonzero" fill="#000000" stroke="none" />
  </g>
</svg>