<?xml version="1.0" encoding="utf-8"?>
<svg version="1.1" xmlns:xlink="http://www.w3.org/1999/xlink" width="864px" height="58px" viewBox="906 898  864 58" xmlns="http://www.w3.org/2000/svg">
  <g transform="matrix(0.992546151641322 -0.121869343405148 0.121869343405147 0.992546151641322 -102.99963223266 169.970898904582 )">
    <path d="M 964.349849219637 869.213593468025  C 957.94751782148 867.364622221393  951.552707589189 865.489706506651  945.16557613259 863.58889253395  L 944.595101478106 865.505806373587  C 950.987413117444 867.408161971632  957.387409760035 869.284598307287  963.794933668604 871.135069133034  L 964.349849219637 869.213593468025  Z M 989.356443766989 876.2928625821  C 982.93498166694 874.51146804401  976.520766886905 872.704051213285  970.113957514966 870.87065663646  L 969.563716853456 872.793476236532  C 975.975722367479 874.628357759224  982.395139295806 876.437240467021  988.821809421803 878.220079777163  L 989.356443766989 876.2928625821  Z M 1014.43625778814 883.10819461435  C 1007.99637823802 881.394574649853  1001.56347135709 879.65485745857  995.137695694113 877.889085918477  L 994.607750142524 879.817597705412  C 1001.03873733002 881.584801346804  1007.47686151894 883.325929508364  1013.9219640323 885.040939277442  L 1014.43625778814 883.10819461435  Z M 1039.5865055899 889.658832564588  C 1033.12892388723 888.013177510798  1026.67803942843 886.341353194772  1020.23401120537 884.643400821163  L 1019.7244196264 886.577390589143  C 1026.17367417732 888.276720060347  1032.62979052477 889.949900283263  1039.09260954763 891.596890019729  L 1039.5865055899 889.658832564588  Z M 1064.8043936558 895.94404883302  C 1058.32982706432 894.366541477978  1051.86168154752 892.762795731952  1045.40011652268 891.132851121694  L 1044.91093551827 893.072104056441  C 1051.37774109402 894.703370607697  1057.85113249855 896.308417046496  1064.33095018566 897.887203814124  L 1064.8043936558 895.94404883302  Z M 1090.08712095634 901.963145301071  C 1083.59628862636 900.453960863439  1077.11160048865 898.918471820454  1070.63321636823 897.356716016581  L 1070.16450027323 899.301016719222  C 1076.64813858543 900.864039160632  1083.1380860275 902.400773537864  1089.63418264518 903.911181975851  L 1090.08712095634 901.963145301071  Z M 1115.43187926013 907.715453408918  C 1108.92550214852 906.274759518492  1102.42499166469 904.807697730163  1095.93050802289 903.314304201735  L 1095.48230889907 905.263436712726  C 1101.98205978979 906.758041434512  1108.48784241068 908.226293060295  1114.99949641722 909.668155402865  L 1115.43187926013 907.715453408918  Z M 1140.83585894527 913.198638971064  C 1138.17801197525 912.640393937956  1135.52116859655 912.077381357522  1132.86534163568 911.509603947834  C 1129.00462224454 910.683988455983  1125.14589111817 909.849102715654  1121.28918163758 909.004953949252  L 1120.8615492678 910.958701772364  C 1124.72140679571 911.803539576993  1128.58328762951 912.639106746118  1132.44715836176 913.465396051618  C 1135.10534450616 914.03367789622  1137.76454797843 914.597190642657  1140.42475594182 915.155931570692  L 1140.83585894527 913.198638971064  Z M 1166.2994750977 918.394974555885  C 1159.76277924325 917.09995423292  1153.23181533558 915.776167640054  1146.70677317837 914.423653249338  L 1146.30084083752 916.382024750012  C 1152.83162976429 917.735730334339  1159.36834565707 919.060682819541  1165.91079854479 920.356843699639  L 1166.2994750977 918.394974555885  Z M 1191.82089131963 923.299560684735  C 1185.26980313643 922.07943202497  1178.72411731944 920.830473381905  1172.18402410021 919.552721052931  L 1171.80053021838 921.515609853296  C 1178.34638346302 922.794487531044  1184.89783423108 924.044546163577  1191.45469212323 925.265749421494  L 1191.82089131963 923.299560684735  Z M 1217.39676500457 927.911754991167  C 1210.83214250573 926.766677798038  1204.27259208499 925.592710684146  1197.71830437681 924.389887767472  L 1197.3572991812 926.357036782859  C 1203.91735941623 927.56091905608  1210.48268699895 928.735920112503  1217.05309112675 929.88200580406  L 1217.39676500457 927.911754991167  Z M 1243.02374641359 932.230953404056  C 1236.44644938486 931.161077651311  1229.8738934818 930.06225582413  1223.30626971684 928.934519856611  L 1222.96780048923 930.905671444379  C 1229.54120852657 932.034400637492  1236.11955304562 933.134190224808  1242.70264286622 934.205008244192  L 1243.02374641359 932.230953404056  Z M 1268.69847911405 936.256590226712  C 1262.10936900119 935.262056038771  1255.52466844061 934.238523413864  1248.9445687977 933.186022098024  L 1248.6286798683 935.160918091305  C 1255.21457477141 936.214346371678  1261.80507464408 937.238780447619  1268.3999879529 938.234190546977  L 1268.69847911405 936.256590226712  Z M 1294.41760041921 939.988138210976  C 1287.81754021516 939.069075844577  1281.22155741248 938.120966476682  1274.62984370444 937.143837661365  L 1274.33657644604 939.122219402877  C 1280.93409564296 940.100208800241  1287.53588769453 941.049153192038  1294.14176073843 941.969024999894  L 1294.41760041921 939.988138210976  Z M 1320.17774182862 943.425108626268  C 1313.56759596049 942.581638453408  1306.96119480879 941.709076518884  1300.35873036957 940.807448181201  L 1300.08812319215 942.789056557124  C 1306.69640258869 943.691478981675  1313.30862216499 944.564809403565  1319.92458975567 945.409022441927  L 1320.17774182862 943.425108626268  Z M 1345.9761489166 946.569161302942  C 1345.23127448574 946.482115208774  1344.4864466375 946.394670977562  1343.74166568642 946.306828646231  C 1337.86764497995 945.619615930741  1331.99633128861 944.909458904855  1326.12785901366 944.1763738249  L 1325.87994735935 946.160949298813  C 1331.75327756018 946.894641227162  1337.62945138023 947.605387335111  1343.50833432142 948.293171354589  C 1344.25351223113 948.381060167955  1344.9987370462 948.468550835456  1345.74400844633 948.555643319489  L 1345.9761489166 946.569161302942  Z M 1371.80611771551 949.426113537253  C 1365.17859763998 948.734461208837  1358.55439981562 948.011336567461  1351.93374836318 947.256764079066  L 1351.7072694803 949.243899533837  C 1358.33421262738 949.999189102676  1364.9647055167 950.723000939197  1371.59852381421 951.415310554178  L 1371.80611771551 949.426113537253  Z M 1397.66939463085 951.963902224761  C 1391.03383937505 951.354138547478  1384.40121750032 950.712863933819  1377.77175341243 950.04010008044  L 1377.56982873548 952.029880577087  C 1384.20559289278 952.703283767058  1390.84451783794 953.345167792672  1397.48637895168 953.955510936625  L 1397.66939463085 951.963902224761  Z M 1423.56203612536 954.182140412787  C 1416.91945745432 953.65435836116  1410.27942284699 953.09503155441  1403.64215695995 952.504178916602  L 1403.46481727765 954.49630106072  C 1410.10839064826 955.087715193783  1416.75473537045 955.647573536376  1423.40362657386 956.175857146427  L 1423.56203612536 954.182140412787  Z M 1449.48009418437 956.08048987254  C 1442.83150493404 955.634769920832  1436.18507004215 955.157476205084  1429.54101438181 954.648624873883  L 1429.38828673428 956.64278491402  C 1436.0386563306 957.152119813526  1442.69140741963 957.629867107959  1449.34631491427 958.076010633367  L 1449.48009418437 956.08048987254  Z M 1475.41961691782 957.658661150683  C 1468.76603084073 957.295071260638  1462.11420908795 956.899883411866  1455.46437671559 956.473110975057  L 1455.33628439018 958.469004849032  C 1461.99243618832 958.896182853469  1468.6505792572 959.291746254593  1475.31048832727 959.655681669036  L 1475.41961691782 957.658661150683  Z M 1501.37664916274 958.916413613467  C 1494.71908077297 958.63500922392  1488.06288640509 958.321987498942  1481.40829126243 957.9773590292  L 1481.30485379017 959.974682410461  C 1487.96577288475 960.319638385307  1494.62829272407 960.63295757906  1501.29218789128 960.91462939101  L 1501.37664916274 958.916413613467  Z M 1527.34723308643 959.853555483428  C 1520.68669750561 959.65437950189  1514.02714543441 959.423571629092  1507.36880218973 959.161139674104  L 1507.29003534239 961.159588018135  C 1513.95470610073 961.42226936576  1520.62058683451 961.653296578408  1527.2874520124 961.852661839575  L 1527.34723308643 959.853555483428  Z M 1553.32740878985 960.469943868622  C 1546.66492159193 960.353026664715  1540.00302724138 960.204467836832  1533.34195113436 960.024272411257  L 1533.28786692202 962.023541002011  C 1539.95527313979 962.203907669736  1546.62349837881 962.352607675087  1553.29231702844 962.469635986995  L 1553.32740878985 960.469943868622  Z M 1579.31321491144 960.765484784419  C 1572.64979196807 960.730844185248  1565.98657111906 960.664557053979  1559.32377780618 960.566625633355  L 1559.2943844754 962.566409629717  C 1565.96350953103 962.664434115897  1572.63306252886 962.730784240722  1579.30281781332 962.765457759324  L 1579.31321491144 960.765484784419  Z M 1605.30068923115 960.740133167826  C 1598.63734655628 960.787774455261  1591.97381519268 960.80376912783  1585.31032059189 960.788116644375  L 1585.30562262447 962.788111126643  C 1591.97544963432 962.803778484864  1598.64531344207 962.787768612342  1605.31498838163 962.740082050747  L 1605.30068923115 960.740133167826  Z M 1631.28586927455 960.393892884366  C 1624.62362287039 960.523808794236  1617.96079702245 960.622082831836  1611.29761715913 960.688711672184  L 1611.31761527138 962.688611688561  C 1617.98712724479 962.621919529923  1624.65628486618 962.523552101178  1631.32486249334 962.393512730459  L 1631.28586927455 960.393892884366  Z M 1657.26479291705 959.726816727482  C 1650.60465861816 959.938987450693  1643.94355420952 960.119525868851  1637.28170506056 960.268425873684  L 1637.32639620326 962.267926486778  C 1643.99457619759 962.118884980257  1650.66201074401 961.938174993994  1657.32847425862 961.725802642074  L 1657.26479291705 959.726816727482  Z M 1683.233498988 958.73900641049  C 1676.57649230739 959.033399596024  1669.91812499824 959.296174866922  1663.25862233812 959.52732333251  L 1663.32799969692 961.526119665828  C 1669.99383097276 961.294751536717  1676.65852581809 961.031726546938  1683.32185874245 960.737053595567  L 1683.233498988 958.73900641049  Z M 1709.1880278747 957.430612551073  C 1702.535163848 957.80718331095  1695.88054888217 958.152155367562  1689.22440812709 958.465517049246  L 1689.31846112359 960.463304333681  C 1695.98092729927 960.149644860152  1702.64186623587 959.80434497192  1709.30105256926 959.427416351755  L 1709.1880278747 957.430612551073  Z M 1735.12442212612 955.801834648307  C 1728.47671515779 956.260525564392  1721.82686720599 956.687641806674  1715.17510326004 957.083168924207  L 1715.29381755337 959.079642544508  C 1721.95190276071 958.683739552197  1728.60807015288 958.256217415578  1735.2620945272 957.797090599303  L 1735.12442212612 955.801834648307  Z M 1761.03768752618 953.852386861361  C 1760.83134425453 953.869393112108  1760.6249984784 953.886368913032  1760.41865019662 953.903314264229  C 1753.9836502462 954.425324822239  1747.54628231919 954.917721858026  1741.10675087049 955.380489732746  L 1741.25010835955 957.375345273965  C 1747.69608953541 956.912113898669  1754.13990491 956.419222167198  1760.5813498026 955.896685735718  C 1760.78822407746 955.879697288066  1760.9950958456 955.862678263547  1761.20196508957 955.845628663594  L 1761.03768752618 953.852386861361  Z M 1786.92368724484 951.557940787152  C 1780.28995563526 952.187234221868  1773.65327271782 952.78501839417  1767.0138630357 953.351273078842  L 1767.18381983956 955.344038665864  C 1773.82953904252 954.777245861705  1780.47252888966 954.178893607004  1787.11256462414 953.549002146224  L 1786.92368724484 951.557940787152  Z M 1812.77938188372 948.94403203536  C 1806.15392646677 949.655190114106  1799.52513089391 950.334877775085  1792.89321944145 950.983072021987  L 1793.087769748 952.97358707549  C 1799.72598359575 952.324776840814  1806.36107860262 951.644443263467  1812.9928302796 950.932609361565  L 1812.77938188372 948.94403203536  Z M 1838.60082906169 946.011059165172  C 1831.98466006243 946.803973453181  1825.36476256849 947.565460966563  1818.74136055514 948.295495941423  L 1818.96047470005 950.283456954999  C 1825.59017102194 949.552728218027  1832.21635949416 948.790517052742  1838.83881592833 947.996849247558  L 1838.60082906169 946.011059165172  Z M 1864.38409161953 942.759469385492  C 1857.77821784704 943.634018982112  1851.16822780963 944.477190239086  1844.55434514735 945.288954628857  L 1844.79798972091 947.274058485529  C 1851.41815764537 946.461522665077  1858.03442924587 945.617550131032  1864.64658066957 944.742169438099  L 1864.38409161953 942.759469385492  Z M 1890.12523822028 939.189758486761  C 1883.53066691389 940.14581004389  1876.93159219995 941.070536480805  1870.32823734922 941.963906510642  L 1870.5963752014 943.945850529081  C 1877.20600530958 943.051631517619  1883.81135121364 942.12602630064  1890.41218943036 941.169066194783  L 1890.12523822028 939.189758486761  Z M 1915.82034394867 935.302470765355  C 1909.23808062433 936.339878507771  1902.65092743648 937.346019125745  1896.05910725253 938.320858577874  L 1896.35169749867 940.299340558552  C 1902.94978197851 939.323574703304  1909.54319502729 938.316477936267  1916.13171356551 937.27808433124  L 1915.82034394867 935.302470765355  Z M 1941.46549090955 931.098198940598  C 1934.89653920654 932.216804688187  1928.32231192967 933.304206074602  1921.74303150898 934.360366309093  L 1922.06002953598 936.33508458036  C 1928.64556233585 935.277920662511  1935.22603719 934.189485903824  1941.80123145667 933.069817130061  L 1941.46549090955 931.098198940598  Z M 1967.05676882533 926.577584064381  C 1960.50213035323 927.777217256255  1953.94183140129 928.94571360815  1947.37609392833 930.083033585578  L 1947.7174514015 932.053687049663  C 1954.28942838361 930.915286261674  1960.85596167654 929.745679471863  1967.41682911025 928.544906252337  L 1967.05676882533 926.577584064381  Z M 1992.59027563216 921.741315423416  C 1986.05094981811 923.021793143924  1979.50557948134 924.271206293278  1972.95438607558 925.489512599279  L 1973.320050946 927.455800778194  C 1979.87747003948 926.236336699229  1986.42906053037 924.98573621563  1992.9746007542 923.704041639822  L 1992.59027563216 921.741315423416  Z M 2018.06211807491 916.590130434147  C 2011.53910201124 917.951257440758  2005.00965830362 919.281396881652  1998.47400786691 920.580503753366  L 1998.86392437934 922.542126834729  C 2005.40578573307 921.241785404181  2011.94143445952 919.910381913753  2018.4706494336 918.547961409733  L 2018.06211807491 916.590130434147  Z M 2043.46841230081 911.124814530295  C 2036.962700593 912.566383283375  2030.45017910006 913.977046201044  2023.93106816433 915.356755555436  L 2024.34517686573 917.313414438181  C 2030.87048300078 915.932393927324  2037.38919343113 914.52039043757  2043.90108760479 913.077451742202  L 2043.46841230081 911.124814530295  Z M 2068.80528445164 905.346201043111  C 2062.31786906666 906.867991737563  2055.82326279372 908.358963039318  2049.321685369 909.819064503386  L 2049.7599231176 911.770460843369  C 2056.2676790793 910.308971825127  2062.76845726459 908.816583633141  2069.26203772817 907.293346760405  L 2068.80528445164 905.346201043111  Z M 2094.06887125441 899.255171074309  C 2087.6007413696 900.85695167306  2081.12504059006 902.428004021144  2074.64198801307 903.968274963963  L 2075.104287988 905.914111219453  C 2081.59350149768 904.372376536292  2088.07535622317 902.799831195931  2094.54963285943 901.196528403379  L 2094.06887125441 899.255171074309  Z M 2119.2553206104 892.852653361716  C 2112.80746246215 894.534179631215  2106.35165456751 896.185073477233  2099.88811535 897.805279044016  L 2100.37440706146 899.745258521064  C 2106.84408866773 898.123513251012  2113.30603160408 896.471050538203  2119.76001723916 894.787926291542  L 2119.2553206104 892.852653361716  Z M 2144.36079218252 886.139624137663  C 2137.93418891663 887.900639684946  2131.49925826448 889.63112330674  2125.05621794323 891.331016454477  L 2125.56642724325 893.264843352154  C 2132.015590473 891.56333477293  2138.4566363267 889.831206649167  2144.88934688073 888.068517584953  L 2144.36079218252 886.139624137663  Z M 2169.3814579809 879.117106980135  C 2162.97708950217 880.957343292033  2156.56401726705 882.76715283183  2150.14245825313 884.546474367074  L 2150.67650734687 886.473853822573  C 2157.10416885519 884.692841374003  2163.52333551975 882.881311947678  2169.93379015649 881.039326834317  L 2169.3814579809 879.117106980135  Z M 2194.32491964161 871.818574174847  C 2187.94008379143 873.726279995115  2181.54688172822 875.605872473757  2175.14549925202 877.457296985822  L 2175.70117029793 879.378554305584  C 2182.1081906336 877.52549919712  2188.50702335134 875.644251313909  2194.89748248796 873.734865328868  L 2194.32491964161 871.818574174847  Z M 2219.18262280139 864.236210118129  C 2212.82003712143 866.216859959874  2206.44876404332 868.169494045137  2200.06898872979 870.094055626222  L 2200.64661052301 872.008827953157  C 2207.03200466592 870.08257136204  2213.40888908538 868.128217542548  2219.77707845538 866.145823292423  L 2219.18262280139 864.236210118129  Z M 2243.95192449249 856.369867587878  C 2237.6124223072 858.423202040219  2231.26391267646 860.448621990521  2224.90658010143 862.446068575775  L 2225.50607698933 864.354105127153  C 2231.86900862785 862.354899340202  2238.22310955161 860.327695551319  2244.56819509672 858.272552675424  L 2243.95192449249 856.369867587878  Z M 2268.62958061484 848.220576859505  C 2262.31399222537 850.34632699187  2255.98907752286 852.444267532673  2249.65502032277 854.514337511304  L 2250.27631378768 856.415388386598  C 2256.61594955217 854.343495244974  2262.94643476681 852.243706994949  2269.26758545472 850.11608466067  L 2268.62958061484 848.220576859505  Z M 2293.21235907139 839.789405266885  C 2286.92151164684 841.987292664232  2280.62102026315 844.157479022789  2274.311068026 846.299901272327  L 2274.95407669549 848.193717485943  C 2281.26958626719 846.049408350936  2287.57562665277 843.877310654441  2293.87201458578 841.677487522067  L 2293.21235907139 839.789405266885  Z M 2317.6970401915 831.077457062568  C 2311.43175766057 833.347193861847  2305.1565147875 835.589341803186  2298.87149394421 837.803835724999  L 2299.53613360176 839.690169238884  C 2305.8266898219 837.473724956257  2312.10745945985 835.229602298597  2318.3782599836 832.957866484704  L 2317.6970401915 831.077457062568  Z M 2342.08041715258 822.085873273146  C 2335.84152009567 824.427162201006  2329.59234761817 826.740978065159  2323.33308133431 829.027253621198  L 2324.01926493033 830.905857377329  C 2330.28404390834 828.617568240575  2336.53872018988 826.301714540351  2342.78311200124 823.958363580108  L 2342.08041715258 822.085873273146  Z M 2366.3592964001 812.815831549815  C 2360.14760194185 815.228365961534  2353.92531833034 817.613546701999  2347.69262639835 819.971304452787  L 2348.40026406159 821.841932405527  C 2354.6384452829 819.48209811789  2360.86620901698 817.094816688417  2367.08337427155 814.68015749666  L 2366.3592964001 812.815831549815  Z M 2390.53297018119 803.273120768849  C 2384.62819103154 805.640440735136  2378.71427331396 807.984902477362  2372.79134986046 810.306453336766  C 2372.50990148901 810.416749859993  2372.22843109909 810.526990183055  2371.94693870316 810.637174301066  L 2372.67593775245 812.49958144939  C 2372.9576972477 812.389292781122  2373.239434718 812.27894784929  2373.52115014399 812.168546661488  C 2379.44889652872 809.845105575743  2385.36762981589 807.498734877037  2391.27721706418 805.129487267456  L 2390.53297018119 803.273120768849  Z M 2414.604542599 793.474895246906  C 2408.44563236724 796.01976592366  2402.27643171737 798.539660798993  2396.09709269804 801.034517766544  L 2396.84585227523 802.889068681337  C 2403.03020295027 800.392188299286  2409.2044070338 797.870249702645  2415.36831235283 795.323315048558  L 2414.604542599 793.474895246906  Z M 2438.57151489156 783.423524137801  C 2432.439767038 786.033162094123  2426.29746611809 788.617934086719  2420.14476351819 791.177776409949  L 2420.9130265812 793.024333169439  C 2427.070719234 790.462414726262  2433.2180017705 787.875546394979  2439.35472268193 785.263791932744  L 2438.57151489156 783.423524137801  Z M 2462.43122497248 773.120123878677  C 2456.32732056937 775.794239253987  2450.21260162418 778.443601265063  2444.08721884346 781.068144614348  L 2444.87490005891 782.906502115714  C 2451.00525073533 780.279830171682  2457.12492892696 777.628319437299  2463.23378380606 774.952035262628  L 2462.43122497248 773.120123878677  Z M 2486.18102266933 762.565838900345  C 2480.10563969627 765.304134672356  2474.01918190693 768.017792428908  2467.92179931064 770.70674528808  L 2468.72881118832 772.536699339219  C 2474.83113897097 769.845565647078  2480.92253308643 767.129707020965  2487.0028434034 764.38919039719  L 2486.18102266933 762.565838900345  Z M 2509.81827001799 751.761841500159  C 2503.77208328683 754.564013517769  2497.71456269497 757.341665605463  2491.64585753854 760.094729304091  L 2492.47211044112 761.916076646299  C 2498.54573752541 759.160780118664  2504.60817097456 756.380875259707  2510.65926137037 753.57643058456  L 2509.81827001799 751.761841500159  Z M 2533.34034155567 740.709331711814  C 2527.32402263534 743.575068728982  2521.29611206844 746.416406625442  2515.256758422 749.2332753721  L 2516.102160575 751.045813702647  C 2522.14641234444 748.226660378795  2528.17921175344 745.383018059905  2534.20041011482 742.514956831701  L 2533.34034155567 740.709331711814  Z M 2556.7446246125 729.409537172052  C 2550.7588417542 732.338520882479  2544.76121075132 735.243228991338  2538.75187942459 738.123589907679  L 2539.61633692656 739.927117902277  C 2545.63054202704 737.044420914468  2551.63303731447 734.137356987657  2557.62367484792 731.20599777101  L 2556.7446246125 729.409537172052  Z M 939.419251706544 861.871173588632  C 933.0367621372 859.95483100446  926.662066744174 858.012624658439  920.295322641529 856.044602419199  L 919.704677358471 857.955397580801  C 926.076585108891 859.925015953558  932.456450598631 861.868797495573  938.844116585865 863.78669429929  L 939.419251706544 861.871173588632  Z M 2568.18122950834 723.776651574056  C 2566.16505528237 724.776164532339  2564.14751384554 725.772917241156  2562.12861086995 726.766906898247  L 2563.01202770289 728.561224233416  C 2565.03402333184 727.565711934823  2567.05465435288 726.567430359521  2569.07391507839 725.566382317435  L 2568.18122950834 723.776651574056  Z M 2571.12094495665 731.923257633326  L 2574 722  L 2564.34643977139 718.3164181952  L 2571.12094495665 731.923257633326  Z " fill-rule="nonzero" fill="#000000" stroke="none" />
  </g>
</svg>