<?xml version="1.0" encoding="utf-8"?>
<svg version="1.1" xmlns:xlink="http://www.w3.org/1999/xlink" width="66px" height="66px" xmlns="http://www.w3.org/2000/svg">
  <g transform="matrix(1 0 0 1 -202 -422 )">
    <path d="M 235 424  C 252.36 424  266 437.64  266 455  C 266 472.36  252.36 486  235 486  C 217.64 486  204 472.36  204 455  C 204 437.64  217.64 424  235 424  Z " fill-rule="nonzero" fill="#ffffff" stroke="none" />
    <path d="M 235 423.5  C 252.64 423.5  266.5 437.36  266.5 455  C 266.5 472.64  252.64 486.5  235 486.5  C 217.36 486.5  203.5 472.64  203.5 455  C 203.5 437.36  217.36 423.5  235 423.5  Z " stroke-width="3" stroke="#797979" fill="none" />
  </g>
</svg>