<?xml version="1.0" encoding="utf-8"?>
<svg version="1.1" xmlns:xlink="http://www.w3.org/1999/xlink" width="42px" height="8px" viewBox="210 500  42 8" xmlns="http://www.w3.org/2000/svg">
  <g transform="matrix(-0.173648177666932 -0.984807753012196 0.984807753012209 -0.17364817766693 -225.230378477092 819.00927248995 )">
    <path d="M 231.88085154462 501.589106184538  C 232.30932810608 499.658405970445  232.802889434818 497.742727745397  233.360691528902 495.845347365964  L 231.441891838394 495.281248307549  C 230.87138858232 497.221832066477  230.366588854776 499.18113031324  229.928355875631 501.15579259996  L 231.88085154462 501.589106184538  Z M 230.516893233542 509.377853076162  C 230.769999645931 507.416442200179  231.089278063824 505.46413916555  231.474182513324 503.524282458168  L 229.512426984436 503.135032866161  C 229.118758254889 505.11906013966  228.792209862666 507.115817143461  228.533340213497 509.121889374301  L 230.516893233542 509.377853076162  Z M 229.85892819456 517.257703482332  C 229.934613186069 515.281477973317  230.077021137899 513.308372344517  230.285908528973 511.341760654765  L 228.297095983765 511.130515157716  C 228.083452223686 513.141906624932  227.937801640672 515.159939898285  227.860393300779 517.181164091571  L 229.85892819456 517.257703482332  Z M 229.939934716728 525.156052058636  C 229.869042269353 523.966799663689  229.822353121388 522.776228007416  229.799896256614 521.585076175278  C 229.7912787746 520.801536233743  229.79314679153 520.017916054254  229.80549980569 519.234426102808  L 227.805748346698 519.202896715553  C 227.793072784732 520.006844262351  227.791191137293 520.810925756091  227.800103913063 521.614923822196  C 227.823014741517 522.835817738346  227.870816283798 524.056117619198  227.943478737945 525.275062666487  L 229.939934716728 525.156052058636  Z M 230.765275341494 533.020133268113  C 230.47052686933 531.06454670174  230.241909968323 529.099563200608  230.079815578959 527.128542934513  L 228.086544689492 527.292467188983  C 228.252329970516 529.30836761589  228.486152481764 531.318093820607  228.787612381028 533.31820912222  L 230.765275341494 533.020133268113  Z M 232.294512827324 540.778122255477  C 231.825086746023 538.856967749819  231.420679162431 536.920506969559  231.081981623397 534.972051309947  L 229.111530069687 535.314572366936  C 229.457939756729 537.307394390935  229.871555707021 539.287948411999  230.351670627184 541.252847634363  L 232.294512827324 540.778122255477  Z M 234.515253644892 548.36714529124  C 233.87495436414 546.49599262203  233.298033572714 544.603748386323  232.785477819262 542.693648367993  L 230.853814899301 543.211990304988  C 231.378041554892 545.165583329182  231.968098841331 547.100913994316  232.622977746241 549.01467283767  L 234.515253644892 548.36714529124  Z M 233.939749084532 493.954585810848  C 234.54012325605 492.070243396478  235.203967484609 490.20671537486  235.93014658036 488.367188424442  L 234.06985341964 487.632811575558  C 233.327139215064 489.514224582033  232.648179243534 491.420185164456  232.034134543189 493.347434083664  L 233.939749084532 493.954585810848  Z M 226.290046752206 551.46774747142  L 236 555  L 240.317074367662 545.612621830134  L 226.290046752206 551.46774747142  Z " fill-rule="nonzero" fill="#797979" stroke="none" />
  </g>
</svg>