<?xml version="1.0" encoding="utf-8"?>
<svg version="1.1" xmlns:xlink="http://www.w3.org/1999/xlink" width="42px" height="10px" viewBox="324 536  42 10" xmlns="http://www.w3.org/2000/svg">
  <g transform="matrix(-0.258819045102517 -0.965925826289066 0.965925826289067 -0.258819045102521 -88.2733014620168 1014.26551347019 )">
    <path d="M 347.559002053434 501.339785168076  C 347.190666417063 499.351930585928  346.758264785666 497.376482641163  346.262472524022 495.416526770722  L 344.323545877457 495.906999460316  C 344.808784151817 497.825233523192  345.231981199617 499.758629878808  345.592476032644 501.704168770283  L 347.559002053434 501.339785168076  Z M 348.688472106248 509.344058234064  C 348.492372351604 507.331899724647  348.231377273748 505.326594929201  347.905894518884 503.331275917846  L 345.931984158014 503.653266425858  C 346.250538323786 505.606110850371  346.505977569198 507.568728490431  346.697902925657 509.53805394866  L 348.688472106248 509.344058234064  Z M 349.125728092083 517.41579268943  C 349.103315852785 515.394225309321  349.015659351436 513.373907984971  348.862895498052 511.357996234449  L 346.868613346522 511.509121017627  C 347.018125298071 513.482119821282  347.103915845325 515.459430416808  347.12585099269 517.437964458009  L 349.125728092083 517.41579268943  Z M 348.851238261511 525.501910242176  C 348.907720629076 524.820845657208  348.956770387452 524.139185076878  348.9983787785 523.457050215917  C 349.069726754577 522.118190268547  349.112407349852 520.777956454283  349.12639123647 519.437269711126  L 347.126500020645 519.416410064267  C 347.112840521444 520.725996590388  347.071204701625 522.035141850072  347.001621059588 523.342949774837  C 346.960998741228 524.008004525733  346.913149155185 524.672598111325  346.858080780006 525.336612771173  L 348.851238261511 525.501910242176  Z M 347.837202911004 533.52162483953  C 348.176861318919 531.528669961285  348.45210466389 529.5252711357  348.662503045458 527.514557455978  L 346.673363192351 527.306416530681  C 346.467443585495 529.274327915472  346.19805937748 531.235080158274  345.865631317425 533.185610775251  L 347.837202911004 533.52162483953  Z M 346.13755984365 541.424491620559  C 346.647272073688 539.468109647801  347.09370540171 537.495785375034  347.476162546936 535.510599360362  L 345.512276461394 535.132245765145  C 345.137960725705 537.075172895249  344.701030675632 539.005512072834  344.202168748856 540.920248316  L 346.13755984365 541.424491620559  Z M 343.7648907122 549.15200940493  C 344.440883606101 547.246682506945  345.055202182656 545.320032969586  345.60688694241 543.375070011933  L 343.682792343114 542.82930451929  C 343.142851360724 544.732864825246  342.541609854842 546.618501550808  341.880006899951 548.483269534487  L 343.7648907122 549.15200940493  Z M 342.325859830209 552.945953565924  C 342.58025405373 552.316588010261  342.827819846839 551.684483853649  343.068513593974 551.049752458722  L 341.198453642077 550.340615112144  C 340.496884340385 552.19071743845  339.735782084843 554.01769323626  338.916335635205 555.818688966143  L 342.325859830209 552.945953565924  Z M 345.745678865575 493.462225334507  C 345.207833961767 491.513389825739  344.607226641339 489.582422037307  343.944794988243 487.672337932939  L 342.055205011757 488.327662067061  C 342.703535405547 490.197085989922  343.291357528398 492.086949043445  343.817753265459 493.994299465072  L 345.745678865575 493.462225334507  Z M 335.082383121647 548.439023167351  L 339 558  L 348.850189760661 554.880102296715  L 335.082383121647 548.439023167351  Z " fill-rule="nonzero" fill="#797979" stroke="none" />
  </g>
</svg>