<?xml version="1.0" encoding="utf-8"?>
<svg version="1.1" xmlns:xlink="http://www.w3.org/1999/xlink" width="42px" height="8px" viewBox="426 536  42 8" xmlns="http://www.w3.org/2000/svg">
  <g transform="matrix(-0.275637355816998 -0.961261695938319 0.961261695938322 -0.275637355816999 51.1285822435044 1118.52815022561 )">
    <path d="M 451.148990561182 501.473563479768  C 450.843432451215 499.474823509063  450.47264718495 497.486601267716  450.037228250423 495.51207915325  L 448.084152116296 495.942768849324  C 448.510189206303 497.874746512893  448.872985270807 499.820129110713  449.171959609485 501.77580281545  L 451.148990561182 501.473563479768  Z M 452.021537626659 509.510907520978  C 451.891059424193 507.493160592413  451.694686270367 505.480215739931  451.432732484891 503.475294932685  L 449.449587828895 503.734403545807  C 449.705897372718 505.696124910407  449.898039331594 507.665697428485  450.025706158366 509.639968553718  L 452.021537626659 509.510907520978  Z M 452.191403357381 517.593690658722  C 452.236994876064 515.572243493328  452.216523530457 513.549846321978  452.1300220875 511.529736243437  L 450.131853136237 511.615298163746  C 450.216490757884 513.591881520853  450.236521013391 515.570702691445  450.191911841836 517.548594325586  L 452.191403357381 517.593690658722  Z M 451.637394162141 525.666399505866  C 451.73477673327 524.841005915028  451.821069133427 524.014341613261  451.89624801541 523.186630262209  C 451.995056746923 521.997427518746  452.070923974388 520.806429935687  452.123807387243 519.61430172315  L 450.125772342309 519.525667873982  C 450.074141871308 520.689551552906  450.000121330932 521.852334047474  449.903751821032 523.013369723569  C 449.830356127264 523.820690423438  449.746154819483 524.626992276199  449.65117053591 525.432058500913  L 451.637394162141 525.666399505866  Z M 450.341370636589 533.64640957099  C 450.752115834364 531.666607658787  451.098061434235 529.673913242525  451.378653707146 527.671515878005  L 449.398005085876 527.393971216626  C 449.123458652659 529.353223510383  448.784967041517 531.302981922473  448.383072050468 533.240125621519  L 450.341370636589 533.64640957099  Z M 448.355880146412 541.483377424164  C 448.937340396298 539.546826054626  449.455368679498 537.591792527426  449.909135827173 535.621406117417  L 447.960150478159 535.172567494602  C 447.516160518591 537.100498564529  447.009294039403 539.013407555725  446.440362343575 540.908232618909  L 448.355880146412 541.483377424164  Z M 445.695984713821 549.117851466686  C 446.44374903161 547.239241407599  447.129930211748 545.336699743748  447.753429935727 543.413271730211  L 445.850892951498 542.796544056403  C 445.240827593839 544.678528528701  444.569431359035 546.540076683388  443.837778900449 548.378208880601  L 445.695984713821 549.117851466686  Z M 444.472147280875 552.045814471016  C 444.626247555777 551.694156677563  444.778164491788 551.3415461555  444.927889316881 550.988003265355  L 443.086233430532 550.208065065063  C 442.314720658654 552.029826118938  441.483887910962 553.825891647166  440.595065038831 555.59338682299  L 444.472147280875 552.045814471016  Z M 449.580381343133 493.542630196773  C 449.102061303545 491.578059717308  448.55967671893 489.62964283249  447.954095743423 487.700498226412  L 446.045904256577 488.299501773588  C 446.638436955801 490.18707966468  447.169134938297 492.093514580354  447.637148755793 494.015755033892  L 449.580381343133 493.542630196773  Z M 437.367619548195 547.32705772511  L 441 557  L 450.938373087355 554.173564015137  L 437.367619548195 547.32705772511  Z " fill-rule="nonzero" fill="#797979" stroke="none" />
  </g>
</svg>