<?xml version="1.0" encoding="utf-8"?>
<svg version="1.1" xmlns:xlink="http://www.w3.org/1999/xlink" width="44px" height="8px" viewBox="530 502  44 8" xmlns="http://www.w3.org/2000/svg">
  <g transform="matrix(-0.139173100960065 -0.99026806874157 0.99026806874157 -0.139173100960063 127.747908946721 1123.04956303114 )">
    <path d="M 554.770856864766 502.074264454472  C 554.949220807946 500.06133972107  555.065186436211 498.043372727705  555.118586906967 496.023266772987  L 553.119285323222 495.970416255168  C 553.066976306235 497.949233205746  552.953380902806 499.925954913263  552.778662545429 501.897737419714  L 554.770856864766 502.074264454472  Z M 553.725948515361 510.086720895634  C 554.069783415933 508.095375310429  554.351848764733 506.093856399139  554.571738747425 504.085043796112  L 552.583614209057 503.867418384128  C 552.368218564093 505.835172808159  552.09191835713 507.795782616423  551.755111108054 509.746427031516  L 553.725948515361 510.086720895634  Z M 552.0235241662 517.985647595862  C 552.530485440444 516.02945999111  552.976727127878 514.058037365277  553.36160720964 512.07421605245  L 551.398216584837 511.693299717234  C 551.021203078217 513.636573648768  550.584082137563 515.567702310428  550.087482659492 517.483907340047  L 552.0235241662 517.985647595862  Z M 549.668824008761 525.723176851476  C 549.727826108219 525.558449627972  549.786386263313 525.393564442874  549.8445038421 525.228523075516  C 550.445024046812 523.480407040101  550.995891835773 521.715626545097  551.496444087417 519.93630599137  L 549.571175585712 519.39469617209  C 549.081548025046 521.135182563876  548.542772589622 522.861466859282  547.955496010891 524.571476873356  C 547.899404429954 524.730724087463  547.842892191634 524.889822821153  547.785959887673 525.048771408496  L 549.668824008761 525.723176851476  Z M 546.632364319981 533.211247646987  C 547.468428999232 531.371498878628  548.247302112106 529.506292325111  548.967863074755 527.618311504849  L 547.099325914507 526.905171349778  C 546.393492518253 528.75456367535  545.630538815499 530.581647218077  544.811562486453 532.383793308052  L 546.632364319981 533.211247646987  Z M 542.988443897254 540.42326093268  C 543.973449010924 538.658765366062  544.903557979718 536.864180143954  545.777432633052 535.042087180126  L 543.974104773045 534.177212258925  C 543.118091269071 535.96206341187  542.20699282444 537.719969054627  541.242120258829 539.448400045232  L 542.988443897254 540.42326093268  Z M 538.761910353445 547.310038545123  C 539.889139227487 545.632828139688  540.964141710739 543.921101387475  541.985371170766 542.177320991742  L 540.259549364861 541.166608819923  C 539.259192843358 542.874748037622  538.206162367008 544.55148875715  537.101972956585 546.194418610511  L 538.761910353445 547.310038545123  Z M 534.589722203991 553.055968448175  C 535.63414564081 551.722203451782  536.643757362901 550.361541450601  537.617536463106 548.975358329587  L 535.980988957348 547.825700875648  C 534.843110772431 549.445480488262  533.655328798121 551.029622718668  532.419351925478 552.575848422581  L 534.589722203991 553.055968448175  Z M 555.151124064814 494.002914596068  C 555.162800800604 491.982136693277  555.111875947641 489.961481979429  554.998422772762 487.943857620021  L 553.001577227238 488.056142379979  C 553.112711529388 490.032528456646  553.162595527805 492.011882950248  553.151157453157 493.991358114933  L 555.151124064814 494.002914596068  Z M 528.853110727324 546.731375700892  L 530 557  L 540.32810392894 556.699551613408  L 528.853110727324 546.731375700892  Z " fill-rule="nonzero" fill="#797979" stroke="none" />
  </g>
</svg>