<?xml version="1.0" encoding="utf-8"?>
<svg version="1.1" xmlns:xlink="http://www.w3.org/1999/xlink" width="42px" height="8px" viewBox="636 502  42 8" xmlns="http://www.w3.org/2000/svg">
  <g transform="matrix(-0.139173100960065 -0.99026806874157 0.99026806874157 -0.139173100960065 247.361084547528 1227.027710249 )">
    <path d="M 659.795946396806 502.074336139418  C 659.97530636162 500.060840721495  660.090295007864 498.04212914109  660.140736385111 496.021290339395  L 658.141359126386 495.971384655436  C 658.091980647141 497.949640450044  657.979415035496 499.925813848054  657.803834534263 501.896880998279  L 659.795946396806 502.074336139418  Z M 658.736630985481 510.087360012047  C 659.086653415758 508.096426036928  659.372981745762 506.094817953147  659.595177848827 504.085598530893  L 657.607296570384 503.86576217627  C 657.389782571712 505.832643434377  657.109487736956 507.792073739729  656.766840960599 509.741054860665  L 658.736630985481 510.087360012047  Z M 656.999390162374 517.981199068331  C 657.517536643787 516.027265083065  657.973128162239 514.057276453164  658.365467592187 512.074247566162  L 656.403498702466 511.686074826564  C 656.019426627991 513.627317434977  655.573435309635 515.55579456989  655.066207183151 517.468555362779  L 656.999390162374 517.981199068331  Z M 654.582068668085 525.701629979737  C 654.774622654598 525.177650664943  654.962550141736 524.651982758971  655.145829189451 524.124687632195  C 655.616395982532 522.736564777179  656.054745043238 521.337727904418  656.460523655475 519.929302583281  L 654.538695642449 519.375608544711  C 654.142176672271 520.751894384002  653.713887213458 522.11882763296  653.25417065873 523.475312315679  C 653.075552004746 523.989062465574  652.892425528678 524.501234252687  652.704812410165 525.011768441385  L 654.582068668085 525.701629979737  Z M 651.473571696968 533.162725563131  C 652.329745709722 531.331523811585  653.12719943909 529.473437058191  653.86471265743 527.591308463288  L 652.002572486978 526.861627721053  C 651.280600107708 528.704096202922  650.499950280651 530.523029451681  649.661817520878 532.315644217911  L 651.473571696968 533.162725563131  Z M 647.741539130503 540.332288565632  C 648.750411465108 538.580572148101  649.703063878424 536.797072158466  650.5980386648 534.984517627775  L 648.804733673911 534.099047577659  C 647.92861774834 535.873408056275  646.996039575698 537.619326229569  646.008426144941 539.334130572489  L 647.741539130503 540.332288565632  Z M 643.413036219706 547.158324258126  C 644.567290385083 545.498796880621  645.668232706435 543.802817859914  646.7141785716 542.072982306423  L 645.002714072757 541.038144507924  C 643.978808322892 542.731529059201  642.90106499922 544.391770500741  641.771133215849 546.016328406153  L 643.413036219706 547.158324258126  Z M 640.569251277074 551.033794395637  C 641.137473364343 550.299182090432  641.694882541767 549.556269246569  642.241298704478 548.805295907131  L 640.624086490838 547.628595156704  C 639.459816432302 549.228723105936  638.244723911259 550.791247499737  636.980668207343 552.31377743393  L 640.569251277074 551.033794395637  Z M 660.169654084631 494.000239082283  C 660.177050839043 491.978784387515  660.119865886894 489.957609304827  659.998186730011 487.939806544953  L 658.001813269989 488.060193455047  C 658.12092841019 490.035477183144  658.176908364088 492.014062172647  658.169667473689 493.992920882262  L 660.169654084631 494.000239082283  Z M 634.811450733516 544.736114252334  L 636 555  L 646.326799692076 554.657643285834  L 634.811450733516 544.736114252334  Z " fill-rule="nonzero" fill="#797979" stroke="none" />
  </g>
</svg>