<?xml version="1.0" encoding="utf-8"?>
<svg version="1.1" xmlns:xlink="http://www.w3.org/1999/xlink" width="44px" height="8px" viewBox="726 538  44 8" xmlns="http://www.w3.org/2000/svg">
  <g transform="matrix(-0.57357643635106 -0.81915204428899 0.819152044288982 -0.573576436351045 733.054766385964 1465.60415763043 )">
    <path d="M 766.650561092609 502.09021642229  C 766.9857452759 500.097759562679  767.260184147057 498.095558718504  767.473496226318 496.086397019939  L 765.484673822711 495.875244357365  C 765.275647951535 497.844034759821  765.006723545907 499.80600417653  764.67827442029 501.758425400423  L 766.650561092609 502.09021642229  Z M 764.988067397954 509.996282608055  C 765.483737574591 508.037572866893  765.919652786961 506.064224736923  766.295207097459 504.078981242034  L 764.33006076699 503.70722877083  C 763.962052695446 505.652581572485  763.534896589986 507.586278029948  763.049186212745 509.505630236571  L 764.988067397954 509.996282608055  Z M 762.689860729312 517.74147556412  C 763.342751318226 515.829417339838  763.937270969214 513.897922763349  764.47259327888 511.949676680609  L 762.54406982561 511.419773585515  C 762.019504069532 513.328872386305  761.436930459965 515.221556278949  760.797158794884 517.095194365717  L 762.689860729312 517.74147556412  Z M 759.771082163441 525.274768303812  C 760.576891781881 523.421958644681  761.326099048953 521.545042720783  762.017662539989 519.646629511809  L 760.138467488637 518.962066907679  C 759.460799999349 520.822334156648  758.726647005134 522.661536078441  757.937029004688 524.477116117161  L 759.771082163441 525.274768303812  Z M 756.192441865712 532.526509980414  C 757.159664531655 530.752612269548  758.0726501869 528.949675191403  758.930129749005 527.120204892463  L 757.119179679697 526.271405831159  C 756.278929970884 528.064115481511  755.384289486293 529.830825059051  754.436501807925 531.569078774813  L 756.192441865712 532.526509980414  Z M 752.040233388872 539.456800925485  C 753.148134693264 537.76718929145  754.204332769472 536.044235276327  755.207359464716 534.290333847293  L 753.471213260918 533.297461066401  C 752.488340985175 535.016120297663  751.453365733049 536.704453960043  750.367726156844 538.360115209878  L 752.040233388872 539.456800925485  Z M 747.33964961467 546.027514737559  C 748.580930466911 544.433320702946  749.773382505404 542.80170094016  750.915348179528 541.134923458533  L 749.26544394352 540.004518216153  C 748.14642447348 541.637804133959  746.977933092 543.236638778141  745.761594043533 544.79879971185  L 747.33964961467 546.027514737559  Z M 742.121658993727 552.195362149601  C 743.488141570249 550.707088605456  744.808991442119 549.177552554753  746.082372581174 547.608880106842  L 744.529580234717 546.348389754327  C 743.281785909834 547.885541921945  741.987476669973 549.384344083559  740.648451650881 550.842712851007  L 742.121658993727 552.195362149601  Z M 767.666388949471 494.07536386072  C 767.838878874372 492.062286614327  767.950033342375 490.04442398306  767.999697844827 488.024580867536  L 766.000302155173 487.975419132464  C 765.951635591482 489.954676323738  765.842714617152 491.931992825814  765.6736906362 493.90462009864  L 767.666388949471 494.07536386072  Z M 736.685192760419 545.672323765633  L 737 556  L 747.318681741807 556.533673225194  L 736.685192760419 545.672323765633  Z " fill-rule="nonzero" fill="#797979" stroke="none" />
  </g>
</svg>