<?xml version="1.0" encoding="utf-8"?>
<svg version="1.1" xmlns:xlink="http://www.w3.org/1999/xlink" width="42px" height="8px" viewBox="830 532  42 8" xmlns="http://www.w3.org/2000/svg">
  <g transform="matrix(-0.629320391049837 -0.777145961456978 0.777145961456974 -0.629320391049841 970.001417442473 1534.6669428026 )">
    <path d="M 870.726683212743 502.039932183943  C 871.201204041267 500.074607307038  871.611853235722 498.094408044308  871.957983084205 496.102457739587  L 869.987510118207 495.760059885813  C 869.648784225129 497.709401004148  869.246919099245 499.647242443363  868.782548597452 501.570527670088  L 870.726683212743 502.039932183943  Z M 868.491420030383 509.808724352897  C 869.133931955062 507.891734442875  869.714095830181 505.954408512878  870.230996570425 503.999802283169  L 868.297465033173 503.48847480058  C 867.791621155106 505.401270659341  867.223867384109 507.297155855882  866.595099231193 509.173140033894  L 868.491420030383 509.808724352897  Z M 865.593443535115 517.355396830996  C 866.399143475943 515.501072292565  867.144485032829 513.62110212136  867.828292587739 511.718451571121  L 865.946156540414 511.042016874079  C 865.276976099187 512.903968421073  864.547577910589 514.743724737928  863.759112445373 516.558383999728  L 865.593443535115 517.355396830996  Z M 862.035603943536 524.622331221423  C 862.394399120614 523.971975493212  862.745431820885 523.317367393694  863.088627282462 522.658646339329  C 863.672000642159 521.517628719469  864.231854002949 520.364738025318  864.767832482883 519.20070505556  L 862.951161781114 518.364219812813  C 862.427719304109 519.501027210529  861.881007855332 520.626975404577  861.311372572722 521.741353585915  C 860.976647532576 522.383685111387  860.634307133907 523.022019410419  860.284423774576 523.656221488607  L 862.035603943536 524.622331221423  Z M 857.828259417175 531.525141177906  C 858.954164583582 529.845852803402  860.025304553518 528.13048664837  861.03998983114 526.381748338656  L 859.310106532479 525.378003464191  C 858.31712607049 527.089335059291  857.268898520866 528.768008353039  856.167077239972 530.411375594786  L 857.828259417175 531.525141177906  Z M 853.040376226434 538.038719903203  C 854.307129957992 536.462963934766  855.522439589007 534.846534418271  856.684388226606 533.191980928032  L 855.047674240523 532.042560496787  C 853.910580483063 533.661721950449  852.721267160522 535.243574928371  851.48161016211 536.785624393391  L 853.040376226434 538.038719903203  Z M 847.707746058823 544.114375320876  C 849.105878773277 542.653931278382  850.456273052053 541.148521974279  851.756798934934 539.60052187207  L 850.225489471271 538.314018344483  C 848.95278273107 539.828905660333  847.631274314245 541.302113224528  846.2630486197 542.731317364972  L 847.707746058823 544.114375320876  Z M 845.095013755993 546.737549678391  C 845.498217174277 546.348455361992  845.897914741989 545.955744369778  846.294058012704 545.559464301344  L 844.879600332726 544.145494898722  C 843.480794693592 545.544783578802  842.036970081866 546.898332807134  840.550403824278 548.204007647235  L 845.095013755993 546.737549678391  Z M 872.282523434502 494.107095713728  C 872.585505899626 492.108127601347  872.823570616794 490.099857930347  872.99634208947 488.085454319668  L 871.00365791053 487.914545680332  C 870.834582138426 489.885859812975  870.601609789215 491.851171215133  870.305108327305 493.807380025398  L 872.282523434502 494.107095713728  Z M 840.31512105273 539.672333336028  L 840 550  L 850.266984569359 551.161476582867  L 840.31512105273 539.672333336028  Z " fill-rule="nonzero" fill="#797979" stroke="none" />
  </g>
</svg>