<?xml version="1.0" encoding="utf-8"?>
<svg version="1.1" xmlns:xlink="http://www.w3.org/1999/xlink" width="48px" height="8px" viewBox="948 504  48 8" xmlns="http://www.w3.org/2000/svg">
  <g transform="matrix(-0.342020143325671 -0.939692620785911 0.939692620785909 -0.342020143325668 827.07972795331 1595.12746021335 )">
    <path d="M 975.88916621065 501.931727091149  C 976.459889138101 499.995271445446  976.976249161533 498.043206717264  977.437638604748 496.077830186067  L 975.490572138751 495.620739191854  C 975.037719803692 497.549750278935  974.530914011359 499.465695871847  973.970751194093 501.366321197787  L 975.88916621065 501.931727091149  Z M 973.319380611043 509.58461669106  C 974.033036886654 507.696157041512  974.693646841532 505.78807453168  975.300433039529 503.862614680732  L 973.392911377448 503.261481493582  C 972.797352569839 505.151314480416  972.148965908572 507.024091659805  971.448514444862 508.877609061512  L 973.319380611043 509.58461669106  Z M 970.185597707793 517.024369507631  C 971.038206566698 515.19443965613  971.839381579797 513.340982622589  972.588179887528 511.466179640397  L 970.730843158901 510.724357372941  C 969.995899897561 512.56447079718  969.209549059221 514.383633237749  968.372716057674 516.17970382071  L 970.185597707793 517.024369507631  Z M 966.505297698738 524.209486702203  C 967.492103300472 522.44829397224  968.429374428617 520.659800972768  969.316008059442 518.846112484526  L 967.519216462939 517.967739011148  C 966.648988251249 519.747868745473  965.729059489971 521.503269184209  964.760512793537 523.231874491466  L 966.505297698738 524.209486702203  Z M 962.264893875569 531.087326010157  C 963.121999692715 529.816002309967  963.951957877517 528.526585435085  964.754204933672 527.219950829183  C 965.006365373332 526.802076693206  965.255692675543 526.382499476554  965.502169684622 525.961248049442  L 963.775945699001 524.951222925267  C 963.535324289163 525.362466605424  963.291935182102 525.772084624211  963.045794946096 526.180049097615  C 962.259640939924 527.460264451363  961.446382237859 528.723636484791  960.606569118247 529.969310357648  L 962.264893875569 531.087326010157  Z M 957.505306719371 537.607820420778  C 958.755619660696 536.022795917356  959.961281865541 534.403054263692  961.12087445523 532.750501646184  L 959.483717537067 531.601712185355  C 958.345580937541 533.223687552698  957.162227150873 534.813459058834  955.935048802169 536.369155787609  L 957.505306719371 537.607820420778  Z M 952.272344584602 543.754903025759  C 953.637466852088 542.267614781165  954.960653987383 540.742373757  956.240348803072 539.180974926978  L 954.693496455075 537.913202150218  C 953.437479886057 539.445710352415  952.13877573764 540.94272977815  950.798912384537 542.40249866618  L 952.272344584602 543.754903025759  Z M 946.595196861918 549.494285483062  C 948.067513822375 548.113029570623  949.500845168516 546.690796949367  950.893504090164 545.229261367982  L 949.445584633408 543.849576894363  C 948.078694138006 545.284069621787  946.671883781679 546.679986613399  945.226809163491 548.035685089948  L 946.595196861918 549.494285483062  Z M 941.327850312431 554.123926467119  C 942.613582046963 553.06577137034  943.874690205361 551.978046782773  945.110164942612 550.861623710798  L 943.769254851867 549.377723401296  C 942.299114926424 550.706199073286  940.792045530963 551.993227225039  939.24982025399 553.237293222692  L 941.327850312431 554.123926467119  Z M 977.880620277963 494.108388420596  C 978.30522637263 492.134738301637  978.674456215524 490.149579945254  978.987875280002 488.155249577005  L 977.012124719998 487.844750422995  C 976.704504861572 489.802179613068  976.342106893896 491.750606501398  975.925357303548 493.6877380897  L 977.880620277963 494.108388420596  Z M 937.04 546.72  L 936 557  L 946.16 558.88  L 937.04 546.72  Z " fill-rule="nonzero" fill="#797979" stroke="none" />
  </g>
</svg>