<svg width="20" height="20" viewBox="0 0 20 20" fill="none" xmlns="http://www.w3.org/2000/svg">
<path d="M15.5 0.5H4.5C2.29086 0.5 0.5 2.29086 0.5 4.5V15.5C0.5 17.7091 2.29086 19.5 4.5 19.5H15.5C17.7091 19.5 19.5 17.7091 19.5 15.5V4.5C19.5 2.29086 17.7091 0.5 15.5 0.5Z" stroke="#718096"/>
<path fill-rule="evenodd" clip-rule="evenodd" d="M9 5V4L4.448 6.5V7.5L9 9.5V8.5C6.733 7.513 5.567 7.013 5.5 7C5.569 6.983 6.735 6.317 9 5ZM5.292 14.262C5.29136 14.0835 5.36147 13.912 5.487 13.785C5.5514 13.7214 5.62792 13.6714 5.712 13.638C5.80354 13.6013 5.90139 13.583 6 13.584C6.12 13.584 6.227 13.606 6.321 13.65C6.41225 13.6918 6.4924 13.7545 6.555 13.833C6.61831 13.9135 6.66612 14.005 6.696 14.103C6.728 14.205 6.744 14.316 6.744 14.436C6.744 14.616 6.718 14.803 6.666 14.997C6.61203 15.1961 6.53763 15.3892 6.444 15.573C6.23615 15.9759 5.95067 16.3338 5.604 16.626L5.424 16.452C5.39967 16.4313 5.3801 16.4055 5.36664 16.3765C5.35318 16.3475 5.34614 16.316 5.346 16.284C5.346 16.232 5.374 16.178 5.43 16.122C5.47 16.078 5.521 16.019 5.583 15.945C5.645 15.871 5.708 15.786 5.772 15.69C5.836 15.594 5.895 15.488 5.949 15.372C6.003 15.256 6.042 15.132 6.066 15H5.988C5.8913 15.0014 5.79533 14.983 5.706 14.946C5.62315 14.9108 5.54856 14.8587 5.487 14.793C5.42397 14.7253 5.37502 14.6458 5.343 14.559C5.3081 14.4639 5.29082 14.3633 5.292 14.262V14.262Z" fill="#718096"/>
</svg>
