<?xml version="1.0" encoding="utf-8"?>
<svg version="1.1" xmlns:xlink="http://www.w3.org/1999/xlink" width="66px" height="66px" xmlns="http://www.w3.org/2000/svg">
  <g transform="matrix(1 0 0 1 -302 -507 )">
    <path d="M 335 507  C 353.48 507  368 521.52  368 540  C 368 558.48  353.48 573  335 573  C 316.52 573  302 558.48  302 540  C 302 521.52  316.52 507  335 507  Z " fill-rule="nonzero" fill="#ffffff" stroke="none" />
    <path d="M 335 507.5  C 353.2 507.5  367.5 521.8  367.5 540  C 367.5 558.2  353.2 572.5  335 572.5  C 316.8 572.5  302.5 558.2  302.5 540  C 302.5 521.8  316.8 507.5  335 507.5  Z " stroke-width="1" stroke="#797979" fill="none" />
  </g>
</svg>