<?xml version="1.0" encoding="utf-8"?>
<svg version="1.1" xmlns:xlink="http://www.w3.org/1999/xlink" width="66px" height="66px" xmlns="http://www.w3.org/2000/svg">
  <g transform="matrix(1 0 0 1 -356 -411 )">
    <path d="M 389 413  C 406.36 413  420 426.64  420 444  C 420 461.36  406.36 475  389 475  C 371.64 475  358 461.36  358 444  C 358 426.64  371.64 413  389 413  Z " fill-rule="nonzero" fill="#ffffff" stroke="none" />
    <path d="M 389 412.5  C 406.64 412.5  420.5 426.36  420.5 444  C 420.5 461.64  406.64 475.5  389 475.5  C 371.36 475.5  357.5 461.64  357.5 444  C 357.5 426.36  371.36 412.5  389 412.5  Z " stroke-width="3" stroke="#027db4" fill="none" />
  </g>
</svg>