<?xml version="1.0" encoding="utf-8"?>
<svg version="1.1" xmlns:xlink="http://www.w3.org/1999/xlink" width="66px" height="66px" xmlns="http://www.w3.org/2000/svg">
  <g transform="matrix(1 0 0 1 -568 -411 )">
    <path d="M 601 413  C 618.36 413  632 426.64  632 444  C 632 461.36  618.36 475  601 475  C 583.64 475  570 461.36  570 444  C 570 426.64  583.64 413  601 413  Z " fill-rule="nonzero" fill="#ffffff" stroke="none" />
    <path d="M 601 412.5  C 618.64 412.5  632.5 426.36  632.5 444  C 632.5 461.64  618.64 475.5  601 475.5  C 583.36 475.5  569.5 461.64  569.5 444  C 569.5 426.36  583.36 412.5  601 412.5  Z " stroke-width="3" stroke="#009999" fill="none" />
  </g>
</svg>