<?xml version="1.0" encoding="utf-8"?>
<svg version="1.1" xmlns:xlink="http://www.w3.org/1999/xlink" width="66px" height="66px" xmlns="http://www.w3.org/2000/svg">
  <g transform="matrix(1 0 0 1 -883 -305 )">
    <path d="M 916 307  C 933.36 307  947 320.64  947 338  C 947 355.36  933.36 369  916 369  C 898.64 369  885 355.36  885 338  C 885 320.64  898.64 307  916 307  Z " fill-rule="nonzero" fill="#ffffff" stroke="none" />
    <path d="M 916 306.5  C 933.64 306.5  947.5 320.36  947.5 338  C 947.5 355.64  933.64 369.5  916 369.5  C 898.36 369.5  884.5 355.64  884.5 338  C 884.5 320.36  898.36 306.5  916 306.5  Z " stroke-width="3" stroke="#aaaaaa" fill="none" />
  </g>
</svg>