<?xml version="1.0" encoding="utf-8"?>
<svg version="1.1" xmlns:xlink="http://www.w3.org/1999/xlink" width="242px" height="32px" viewBox="238 382  242 32" xmlns="http://www.w3.org/2000/svg">
  <g transform="matrix(-0.798635510047293 -0.601815023152049 0.601815023152048 -0.798635510047293 406.187768892463 931.908526310408 )">
    <path d="M 448.198314280768 343.729237655543  C 450.067621624012 343.026355874525  451.93999561412 342.331656972525  453.815382477015 341.645160901108  L 453.127884742932 339.76703767149  C 451.247019153292 340.45553926212  449.369175238156 341.152267646975  447.494406928785 341.857202816171  L 448.198314280768 343.729237655543  Z M 440.737669445451 346.58431993751  C 442.598648146861 345.859674496974  444.462788766088 345.143175596056  446.330037765517 344.434843812409  L 445.620672458836 342.56487032017  C 443.747968506494 343.275271413549  441.878382015083 343.993863483509  440.011966678713 344.720625892247  L 440.737669445451 346.58431993751  Z M 433.310846260078 349.526260380273  C 435.163242943217 348.779949942328  437.018896384695 348.0417485954  438.877753290504 347.31167754049  L 438.146616992898 345.450108386705  C 436.282329650687 346.182312260134  434.421255131386 346.922670177282  432.563446884642 347.671160875234  L 433.310846260078 349.526260380273  Z M 425.918855903246 352.554658432058  C 427.762418360207 351.78678460852  429.609331972473 351.026981323386  431.459543697182 350.275270398002  L 430.706735954495 348.422359039477  C 428.851119049285 349.17626600177  426.998809891601 349.938288964699  425.149861679209 350.708406043192  L 425.918855903246 352.554658432058  Z M 418.562704810983 355.669101769694  C 420.397182036565 354.879769108322  422.235104358292 354.09846733386  424.076418991386 353.325218885146  L 423.302042300077 351.481217599909  C 421.455348478309 352.256725004926  419.612056878184 353.040309262543  417.772220438628 353.831947868394  L 418.562704810983 355.669101769694  Z M 411.24339453972 358.86916635475  C 413.068536765791 358.058482324932  414.897217559647 357.255788437168  416.729384402068 356.461107744611  L 415.933544195255 354.626267597563  C 414.096024888378 355.423269858256  412.262001814183 356.22830872377  410.431527645264 357.041361073631  L 411.24339453972 358.86916635475  Z M 403.961921629928 362.154416491274  C 405.777480359267 361.322491469464  407.596670646318 360.498514756947  409.419440244426 359.68251001811  L 408.602244877535 357.857080826843  C 406.774150267962 358.67546942955  404.949645425947 359.501853295161  403.128782750866 360.336208690115  L 403.961921629928 362.154416491274  Z M 396.719277470439 365.524404885106  C 398.525005510638 364.67135213977  400.334457604103 363.826204788751  402.147581783715 362.988987104517  L 401.309142519723 361.1732174053  C 399.490721506601 362.012880924592  397.675983307232 362.860497276266  395.864980040493 363.716042116968  L 396.719277470439 365.524404885106  Z M 389.516448163461 368.978672704788  C 391.312099660678 368.104608380932  393.111567199463 367.238405460179  394.914799099736 366.380088819577  L 394.055230094025 364.574225833517  C 392.246730259422 365.435049947338  390.442005783411 366.30378338019  388.641108497138 367.180401182308  L 389.516448163461 368.978672704788  Z M 382.359126368565 372.517483071188  C 383.918608306946 371.72819058168  385.48372864306 370.950088154349  387.054366722086 370.183235772958  C 387.276877404734 370.073820757136  387.499447514073 369.964526635832  387.722076952035 369.855353457203  L 386.84149523685 368.059643056587  C 386.619056366056 368.168722784755  386.396676549566 368.277922897083  386.17435588505 368.38724334561  C 384.595976902935 369.157890120935  383.023139995322 369.93983636014  381.455966282495 370.733021847476  L 382.359126368565 372.517483071188  Z M 375.280607687561 376.1976290712  C 377.040141394287 375.258321019855  378.807330055476 374.333423272953  380.581996267277 373.42302867877  L 379.669117370913 371.643519723869  C 377.884745823387 372.558893105116  376.107892719898 373.488848954249  374.338736434441 374.433293915243  L 375.280607687561 376.1976290712  Z M 368.284051723064 380.031309539677  C 370.02267676515 379.05384268934  371.769269285233 378.090615730026  373.523653947125 377.141725357753  L 372.572174224661 375.382553297452  C 370.808195143265 376.336632983388  369.052050817514 377.30512766063  367.303917542498 378.287940104334  L 368.284051723064 380.031309539677  Z M 361.372788158896 384.016700015569  C 363.089677118999 383.001539545912  364.814842288916 382.000441777029  366.5481104835 381.013507206696  L 365.558482747242 379.275509236723  C 363.81573561538 380.26784117771  362.081135822183 381.274413773283  360.35485749994 382.295125976047  L 361.372788158896 384.016700015569  Z M 354.55010608795 388.15190383854  C 356.244441893008 387.099532867743  357.947358701023 386.061040714987  359.658685560308 385.036531631978  L 358.631380777326 383.320534871241  C 356.910694974046 384.350646813269  355.198465215109 385.394818295988  353.494863387128 386.452944497543  L 354.55010608795 388.15190383854  Z M 347.819252446894 392.43495305159  C 349.490228756956 391.345872406441  351.170086779423 390.270480091603  352.858657877359 389.208884063144  L 351.794164945353 387.515705160101  C 350.096359350647 388.583106869534  348.4073144817 389.664380314783  346.727199897652 390.759416949415  L 347.819252446894 392.43495305159  Z M 341.183430470949 396.863809337618  C 342.830252062956 395.738537315137  344.486251849915 394.626756620959  346.151263590026 393.52857886405  L 345.050089104657 391.859023608069  C 343.375971709749 392.96320710495  341.71091555276 394.081067931166  340.055087784659 395.212493867365  L 341.183430470949 396.863809337618  Z M 334.645798169455 401.436364989459  C 336.267681315624 400.275437110283  337.899034771393 399.127797136812  339.539694769145 397.993560277839  L 338.402362782946 396.348423215717  C 336.752730305769 397.488863015514  335.112455266398 398.642779229081  333.481702328086 399.810056017552  L 334.645798169455 401.436364989459  Z M 328.214874027828 406.148841887447  C 329.183893688771 405.414761398377  330.160024273348 404.690115185567  331.143127509801 403.975005897275  C 331.769656915835 403.515237859263  332.397650230087 403.057468036452  333.027097881902 402.601703405281  L 331.854149654877 400.981767463116  C 331.222390615513 401.439205702395  330.592088642904 401.898652902279  329.963253308615 402.360102085747  C 328.970819714074 403.082031883032  327.985417226336 403.813578166145  327.007185112672 404.554637545397  L 328.214874027828 406.148841887447  Z M 321.975634791933 411.087027003274  C 323.509065736793 409.819564724054  325.062556661043 408.576569337007  326.635518281114 407.358512345858  L 325.410995746091 405.777201319773  C 323.82126865818 407.008241015046  322.2512197952 408.264484913004  320.701444721619 409.545456484383  L 321.975634791933 411.087027003274  Z M 315.951361671314 416.285287467034  C 317.429679316391 414.953954288546  318.929076189515 413.646215552851  320.448983526525 412.36256732269  L 319.158521588948 410.834592196039  C 317.622414265077 412.131922236897  316.107036016607 413.453599552807  314.612961669892 414.799122793725  L 315.951361671314 416.285287467034  Z M 310.152887397895 421.734275866857  C 311.573433460868 420.341465766786  313.016040096276 418.971335233059  314.48016008212 417.624403995415  L 313.126079225797 416.152512343648  C 311.646353864575 417.513799896195  310.188371154606 418.898534015353  308.752684150475 420.306189431828  L 310.152887397895 421.734275866857  Z M 304.590638676461 427.424193936726  C 305.950858758755 425.97241143937  307.334081088969 424.54235284996  308.739780971284 423.134560630646  L 307.324516078337 421.72139918099  C 305.903833493415 423.144196404161  304.505868038383 424.589497324338  303.131150001562 426.056753697505  L 304.590638676461 427.424193936726  Z M 299.27461743556 433.344810175529  C 300.572065615612 431.836665848225  301.893416356876 430.349250706946  303.238168433199 428.883128970824  L 301.764264405707 427.531238842987  C 300.405179241151 429.012987290214  299.069744835623 430.51625609912  297.758467757612 432.040475036825  L 299.27461743556 433.344810175529  Z M 294.214382842222 439.485478245153  C 295.446726073697 437.923684003991  296.703829198557 436.381586952103  297.985215361595 434.859772051051  L 296.455322545399 433.571584187829  C 295.160278681985 435.109619407584  293.889776678389 436.6681529562  292.644298472383 438.246593637296  L 294.214382842222 439.485478245153  Z M 289.506687083706 445.866089658295  C 290.624138876636 444.229530057147  291.786681170238 442.6242183031  292.992978122268 441.051999011412  L 291.406218146921 439.834545611632  C 290.177452810115 441.436048926576  288.993257102295 443.071261081281  287.854991746993 444.738303102835  L 289.506687083706 445.866089658295  Z M 285.28270732757 452.570853858417  C 286.276421142595 450.856339731483  287.317407172368 449.169662969942  288.404469251275 447.512761683133  L 286.732244098645 446.415645901226  C 285.624934493601 448.103408490956  284.564559146277 449.821501150884  283.552336501966 451.567949672615  L 285.28270732757 452.570853858417  Z M 281.564701200839 459.568874893043  C 282.429264915083 457.78574410097  283.343025096665 456.026888580281  284.304931771351 454.294329378746  L 282.556348981119 453.323526501894  C 281.576525914246 455.088356204257  280.645746112979 456.879972018781  279.765079108277 458.696315253841  L 281.564701200839 459.568874893043  Z M 278.372918302249 466.822039022425  C 279.103623190741 464.9800031369  279.885180857502 463.158548216889  280.716693238218 461.359767241244  L 278.901276221227 460.520564611113  C 278.054276161391 462.352849528737  277.258161267778 464.20823071369  276.513846331972 466.084576203478  L 278.372918302249 466.822039022425  Z M 275.724742229554 474.290842905744  C 276.317608610635 472.399934316782  276.962707118396 470.525800296124  277.65929648962 468.670594354583  L 275.786932659951 467.96756257056  C 275.077368674146 469.857323420709  274.420254616261 471.766364902775  273.816345556221 473.692493394831  L 275.724742229554 474.290842905744  Z M 273.673617240106 481.929547250304  C 273.890509985358 480.940686110006  274.123445074877 479.955411951841  274.372330398462 478.974114385637  C 274.618821918688 478.041626212735  274.877866366792 477.112501529123  275.149393207999 476.186993324595  L 273.23028013256 475.623961350655  C 272.952754728541 476.56991585461  272.68803093316 477.519579163764  272.436181318943 478.472690933309  C 272.181044737401 479.478192157484  271.942304776769 480.487782865479  271.720056454874 481.50106124306  L 273.673617240106 481.929547250304  Z M 272.306823509161 489.723612514545  C 272.5658813352 487.761634629261  272.8871501362 485.808373954868  273.270144626188 483.866780949057  L 271.307955370353 483.479723686773  C 270.916770345038 485.462838663581  270.588631044506 487.457870828104  270.324033132822 489.46180662558  L 272.306823509161 489.723612514545  Z M 271.603801841406 497.605321655389  C 271.696074482282 495.628467098442  271.851072327632 493.655039478141  272.068561248654 491.688019714944  L 270.080675510598 491.468223690333  C 269.858535476473 493.477309188891  269.700222922005 495.49293957989  269.605976982963 497.51207019435  L 271.603801841406 497.605321655389  Z M 271.569585279833 505.5182482741  C 271.494412141156 503.540669659027  271.482029376838 501.561203172375  271.532455691409 499.582838856488  L 269.533105058634 499.531877623951  C 269.481600351236 501.552550284327  269.494247927376 503.574348685961  269.571028682517 505.594218842904  L 271.569585279833 505.5182482741  Z M 272.204418786202 513.405742481095  C 271.962338044328 511.441597605078  271.782663320504 509.470263564827  271.665666018685 507.494718118389  L 269.669164157681 507.612956517428  C 269.788663507333 509.630750025373  269.972180668089 511.644242064031  270.219438431878 513.65039119446  L 272.204418786202 513.405742481095  Z M 273.506263464219 521.209966067015  C 273.435213284413 520.873499353379  273.365412931873 520.536769931219  273.296863850674 520.199784767001  C 272.978130767943 518.596389427267  272.701493941681 516.984912450913  272.467238556741 515.367015109257  L 270.487878739192 515.653606652526  C 270.727356863387 517.307575122102  271.010199871529 518.954973985571  271.336115661448 520.594101914746  C 271.405936311285 520.937393511172  271.477037061858 521.280423510039  271.549416429667 521.623184754108  L 273.506263464219 521.209966067015  Z M 275.36857731826 528.93025676  C 274.847919101731 527.01394897469  274.368417160647 525.086695712132  273.930402213819 523.149826224316  L 271.979662549013 523.590977853753  C 272.423984675361 525.555737219882  272.910391186357 527.510741892281  273.438546601015 529.454643478453  L 275.36857731826 528.93025676  Z M 277.669099781579 536.531486770393  C 277.039766182148 534.648069735557  276.450895992488 532.751372830603  275.902895364131 530.84270423239  L 273.980558539208 531.394629165277  C 274.536450081709 533.330781564165  275.133799685206 535.254789883861  275.772195349796 537.16532711045  L 277.669099781579 536.531486770393  Z M 280.400309614564 543.988804929312  C 279.664358151283 542.144436216126  278.968044942584 540.284496656646  278.311850244865 538.410269075702  L 276.424201073862 539.071162869902  C 277.089844622101 540.972378319409  277.796184366291 542.859100007635  278.542733134595 544.730026637756  L 280.400309614564 543.988804929312  Z M 283.55327750489 551.277830567743  C 282.713114269153 549.478540084305  281.911634541022 547.661438685114  281.149391111635 545.82777964897  L 279.302601002112 546.595481603747  C 280.075820326687 548.455544343242  280.888840931592 550.298811024719  281.741102065796 552.124010322845  L 283.55327750489 551.277830567743  Z M 287.117695260671 558.374733225763  C 286.176067049828 556.626403503134  285.272041129248 554.858081025629  284.406241017526 553.070985428571  L 282.606347793998 553.942985648695  C 283.484614961405 555.755814460639  284.401658368745 557.549599830209  285.356845519095 559.323104559994  L 287.117695260671 558.374733225763  Z M 291.079498176484 565.267344336674  C 290.855717375718 564.896575391331  290.632846925235 564.525257758014  290.410888838892 564.153394791951  C 289.608626401095 562.820857440091  288.828804165769 561.474937903414  288.071752142788 560.116205756262  L 286.324640306895 561.089653357772  C 287.091974758599 562.466840070833  287.88237014138 563.831050691137  288.695492509627 565.181708833548  C 288.918483907194 565.555290885418  289.142389226618 565.928326658087  289.367206456348 566.300812800225  L 291.079498176484 565.267344336674  Z M 295.299916924397 572.0276971024  C 294.219433926179 570.3536048598  293.157889864279 568.667364760744  292.115487774571 566.969299323387  L 290.411024632914 568.015628811995  C 291.461303757856 569.72652588257  292.530869503573 571.425508255263  293.619517299935 573.112250974787  L 295.299916924397 572.0276971024  Z M 299.721964043617 578.657916042994  C 298.591567066322 577.017114098845  297.479734689854 575.363599589201  296.386679568442 573.697688772934  L 294.714492195012 574.794862135782  C 295.815807117307 576.473361605047  296.936041187223 578.139371093534  298.074980143572 579.792571952505  L 299.721964043617 578.657916042994  Z M 304.341630036646 585.151989497896  C 303.162344018218 583.54596557749  302.001231432465 581.926675909078  300.858514359201 580.294430205562  L 299.220118936643 581.441452628769  C 300.371471087232 583.086032590864  301.541357758181 584.717558614029  302.729555191514 586.335718644995  L 304.341630036646 585.151989497896  Z M 309.154726223728 591.504029250503  C 307.927620430097 589.934239545665  306.718280423037 588.350642938464  305.526937506562 586.753542314977  L 303.923819578147 587.949373786211  C 305.124165018909 589.558543090303  306.342643547404 591.154106333402  307.579022111752 592.735758340644  L 309.154726223728 591.504029250503  Z M 314.156888540755 597.708275867048  C 312.883075596338 596.176143715817  311.626604684049 594.629676026683  310.387716122356 593.069168584243  L 308.821329245034 594.312724835706  C 310.069579615326 595.885024438027  311.335545199343 597.443178193988  312.618983862608 598.986888083841  L 314.156888540755 597.708275867048  Z M 319.343581496189 603.759103918717  C 318.024216375075 602.266018514809  316.721753807496 600.758081935548  315.436442908522 599.235582595924  L 313.908207334971 600.525736087465  C 315.203230838456 602.059740374231  316.515535619162 603.579071855398  317.844870679562 605.083439936548  L 319.343581496189 603.759103918717  Z M 324.710102283417 609.651027082256  C 323.346381262121 608.19834221544  321.999107990141 606.730304001505  320.668540153227 605.247193224263  L 319.179841544103 606.582774165724  C 320.520463974952 608.077092245751  321.877918077479 609.556223864866  323.251944218686 611.01988611746  L 324.710102283417 609.651027082256  Z M 330.219667647899 615.430533904058  C 328.831704787151 613.995985284042  327.452182414585 612.55329424314  326.081171960655 611.102535482622  L 324.627570564285 612.47623231252  C 326.003961673479 613.932684707786  327.38889810712 615.381037720951  328.782308154395 616.821216357544  L 330.219667647899 615.430533904058  Z M 335.816226858935 621.124985984637  C 334.405959306994 619.712358617654  333.004003640163 618.291457592196  331.61043245047 616.862356481265  L 330.178531139971 618.258658252729  C 331.577571526597 619.693368001002  332.98502929599 621.119845481805  334.400831571256 622.538016833421  L 335.816226858935 621.124985984637  Z M 341.501314036321 626.731057986151  C 340.069087970553 625.34069862883  338.645043146482 623.941936406346  337.229253299949 622.534843745429  L 335.819403563102 623.953407709271  C 337.240749805717 625.366022633375  338.670383423238 626.770274425439  340.108230390526 628.166090374573  L 341.501314036321 626.731057986151  Z M 347.273533665815 632.247373790157  C 345.819700653699 630.879623732987  344.37391623168 629.503343666665  342.936255261199 628.118604853761  L 341.5488031728 629.559082796111  C 342.992106374569 630.949256142481  344.443564909088 632.330937545134  345.903103621141 633.704055461853  L 347.273533665815 632.247373790157  Z M 353.131468844834 637.6725793106  C 351.65638575772 636.327774294207  350.189216633391 634.974314218503  348.730037440571 633.612269164458  L 347.365323577481 635.074307492235  C 348.830229451802 636.441698016016  350.303156614858 637.80046986894  351.784028799754 639.150552694972  L 353.131468844834 637.6725793106  Z M 359.073681630264 643.005342826199  C 357.57771055573 641.6838129589  356.089516874037 640.353505106681  354.60917764254 639.014488151711  L 353.267537000086 640.497727979424  C 354.753685957589 641.842000028269  356.24772019078 643.177528794683  357.749562339911 644.50424512619  L 359.073681630264 643.005342826199  Z M 365.098713391425 648.244355307349  C 363.58222154442 646.946424984134  362.07336861117 645.63959590509  360.572232718808 644.323935736727  L 359.253994628548 645.828012974566  C 360.761021865315 647.148836570978  362.275796429154 648.460794419619  363.798239886405 649.763818588492  L 365.098713391425 648.244355307349  Z M 371.205085168123 653.38833073744  C 369.668444800796 652.114318560319  368.139302993047 650.831289040857  366.617738922554 649.539308613243  L 365.32322697144 651.063854056457  C 366.850762558572 652.360904978814  368.385905622463 653.648969864352  369.928576674729 654.927982018183  L 371.205085168123 653.38833073744  Z M 374.944456826222 656.458767180155  C 374.209370645693 655.86100014852  373.475952940815 655.261184278441  372.744212267738 654.659326567449  L 371.473744218683 656.203965986968  C 373.021413193144 657.476925849134  374.576547926588 658.74078159118  376.139067895538 659.995467771795  L 374.944456826222 656.458767180155  Z M 455.691764982542 340.961402260213  C 457.569146457217 340.280379837649  459.449498890345 339.60757551936  461.332768278565 338.943008628158  L 460.667231721435 337.056991371842  C 458.778460578532 337.7234997187  456.892614912371 338.398269557303  455.009748883874 339.081281508464  L 455.691764982542 340.961402260213  Z M 368.781389689215 662.529706938048  L 379 661  L 378.313921020178 650.69032999396  L 368.781389689215 662.529706938048  Z " fill-rule="nonzero" fill="#f59a23" stroke="none" />
  </g>
</svg>