<?xml version="1.0" encoding="utf-8"?>
<svg version="1.1" xmlns:xlink="http://www.w3.org/1999/xlink" width="132px" height="14px" viewBox="458 592  132 14" xmlns="http://www.w3.org/2000/svg">
  <g transform="matrix(0.292371704722743 -0.956304755963033 0.956304755963034 0.292371704722736 -202.029322096575 924.973040995711 )">
    <path d="M 433.289975733639 452.37095464271  C 431.794410549295 451.034412972514  430.287357364067 449.710782026169  428.768983990259 448.40020919168  L 427.462172440424 449.914224902701  C 428.971849221213 451.217291336749  430.470270650604 452.533341091362  431.957269877479 453.862227622737  L 433.289975733639 452.37095464271  Z M 439.210259226021 457.785338915113  C 437.745794575278 456.4147907972  436.26954834396 455.056886069412  434.781684913978 453.711775936183  L 433.440435185886 455.195369265533  C 434.919776770748 456.532775183447  436.387567695289 457.882902413956  437.843644519109 459.245600618662  L 439.210259226021 457.785338915113  Z M 445.004589706764 463.334307103826  C 443.57199864735 461.930476019514  442.127338646901 460.539014317442  440.670770570162 459.160076938655  L 439.295790679175 460.61246473101  C 440.744016157192 461.983504146497  442.18040176327 463.36699615129  443.604787554058 464.762786691808  L 445.004589706764 463.334307103826  Z M 450.669908480007 469.014930034187  C 449.269947244306 467.578557034119  447.857636078029 466.154272878889  446.433132243839 464.742236164364  L 445.025148010706 466.162651737093  C 446.441492896437 467.566600909485  447.845714948624 468.982727374469  449.237657805369 470.410873444573  L 450.669908480007 469.014930034187  Z M 456.203224952251 474.824209033978  C 454.836632548094 473.356052346932  453.457415743084 471.899697585908  452.065728114757 470.455306917849  L 450.625482782476 471.843000465734  C 452.009199419525 473.279118282054  453.380516660796 474.727131666132  454.739281808381 476.18687937985  L 456.203224952251 474.824209033978  Z M 461.601618211019 480.759077516354  C 460.269116031602 479.259912149011  458.923721645164 477.772255558877  457.565584863096 476.296273398421  L 456.093838704565 477.65051238946  C 457.444196660247 479.118040755624  458.781885203289 480.597176685329  460.106755380356 482.08775547489  L 461.601618211019 480.759077516354  Z M 466.862238566747 486.816402598625  C 465.564530009794 485.287019926433  464.253668245169 483.768846807427  462.92979923901 482.262052292131  L 461.427329155703 483.582121854225  C 462.743615606633 485.080286095244  464.046969315945 486.5897637682  465.33724515353 488.110386790818  L 466.862238566747 486.816402598625  Z M 471.975750450148 493.002032895939  C 470.717512096985 491.439119075839  469.444205652495 489.888396054463  468.156009330228 488.350080872932  L 466.622643411115 489.63413264685  C 467.902570606102 491.162573150265  469.167703503697 492.703341845728  470.417865034321 494.256223085326  L 471.975750450148 493.002032895939  Z M 476.927594157325 499.317766766474  C 475.710028313085 497.722963713627  474.477085384889 496.139959314891  473.228937936961 494.568975129528  L 471.663008120872 495.813106879418  C 472.903143521309 497.374006679382  474.128172002134 498.946849533155  475.33792210683 500.531415303685  L 476.927594157325 499.317766766474  Z M 481.715124301172 505.75894721306  C 480.539038825571 504.133313085554  479.347277476144 502.519077639092  478.140007053287 500.916466804072  L 476.542552340803 502.119853043632  C 477.742073111984 503.712176477  478.926184364832 505.316049901674  480.094720369655 506.931248837526  L 481.715124301172 505.75894721306  Z M 486.33516433664 512.321300487184  C 485.201339567011 510.665913899644  484.051550534686 509.021518457012  482.885958165565 507.388344310915  L 481.25803847416 508.550186588653  C 482.416148729344 510.172877142574  483.558557091748 511.806716961835  484.685103668472 513.451477372174  L 486.33516433664 512.321300487184  Z M 490.784648849028 519.000472441681  C 489.693837082556 517.316431749609  488.586783256871 515.642967373639  487.4636423166 513.980313533924  L 485.806337777381 515.099840962925  C 486.922269105865 516.751821975846  488.022216585393 518.41454413056  489.106026265942 520.087774710395  L 490.784648849028 519.000472441681  Z M 495.060625587893 525.792031419738  C 494.013550582468 524.080453990743  492.949966497981 522.37903103162  491.870022194984 520.688000675637  L 490.184432436019 521.764470445057  C 491.25744441299 523.444645821096  492.314201190164 525.135147088573  493.354554862561 526.835737642851  L 495.060625587893 525.792031419738  Z M 499.160257425879 532.691471195306  C 498.157613919878 530.953492667734  497.138205268807 529.22524002627  496.102174150367 527.506955159301  L 494.38941756708 528.539653027221  C 495.418798244875 530.246907963413  496.43166315743 531.964066689437  497.427870542927 533.690888869643  L 499.160257425879 532.691471195306  Z M 503.080928705368 539.695286773388  C 503.013491832257 539.570814095938  502.945970132102 539.446387394884  502.878363651901 539.322006756835  C 501.98599261981 537.684109961722  501.078931543587 536.054259525964  500.157290133312 534.432652581842  L 498.41850314642 535.420893349172  C 499.334065444655 537.031804234948  500.235146160958 538.650902787096  501.121636347368 540.277993243481  C 501.188650966111 540.401285929368  501.255581743455 540.524624168032  501.322428632978 540.648007873923  L 503.080928705368 539.695286773388  Z M 506.812778941688 546.800393685843  C 505.902738701719 545.012185050346  504.97544594329 543.232808943175  504.031030451449 541.462514408019  L 502.266431532067 542.403891406737  C 503.204784677841 544.162822153174  504.126125003625 545.930776175647  505.030323557476 547.707506029102  L 506.812778941688 546.800393685843  Z M 510.360388915642 553.999262617587  C 509.496708460119 552.188207832889  508.615553715265 550.385538282964  507.717048008593 548.591506271681  L 505.928787984298 549.487121192004  C 506.821526046767 551.269637040115  507.697024525873 553.060734981205  508.555160885754 554.86016433097  L 510.360388915642 553.999262617587  Z M 513.721404774086 561.28711709082  C 512.904657158381 559.454417798881  512.070225076735 557.629650884527  511.218225317296 555.813071744399  L 509.407490705634 556.662330342312  C 510.254021349588 558.467248585833  511.083097085338 560.280302045024  511.894601874407 562.10123696266  L 513.721404774086 561.28711709082  Z M 516.893596469799 568.659121585486  C 516.124323609166 566.805993789488  515.337167839684 564.960340250704  514.532239332667 563.122419289129  L 512.700231563163 563.924758078218  C 513.499993112196 565.750881146808  514.282096009583 567.584687156012  515.046430791226 569.425919444051  L 516.893596469799 568.659121585486  Z M 519.874859241139 576.110384747659  C 519.153571551136 574.238058005159  518.414214374772 572.372742440338  517.656891193395 570.514699125078  L 515.804825810397 571.269585750407  C 516.557287619584 573.115702004245  517.291898750261 574.969043825963  518.008556385351 576.82935181956  L 519.874859241139 576.110384747659  Z M 522.66321500855 583.635962634975  C 521.990391066394 581.745679242124  521.299323049532 579.861939295455  520.590107680703 577.985006445551  L 518.719213536864 578.691940036879  C 519.423876344837 580.556824570578  520.11050829144 582.428472505247  520.77901327482 584.306621882737  L 522.66321500855 583.635962634975  Z M 525.256813687035 591.230861996961  C 524.632899914052 589.32387616421  523.990579583035 587.422961704544  523.329942593935 585.528384672312  L 521.441461034865 586.186896176426  C 522.097857295083 588.069311631769  522.736054474624 589.958023833647  523.355963250611 591.85276843554  L 525.256813687035 591.230861996961  Z M 527.653184913138 598.890023729354  C 527.382648888263 597.985669808646  527.108446896528 597.082416606216  526.830585700628 596.180286399169  C 526.517102379217 595.165177202045  526.198428991191 594.151678059905  525.87457804187 593.139828744289  L 523.969762082497 593.749481236221  C 524.291458884329 594.754600070831  524.608013768312 595.761357375888  524.919414318081 596.769713662923  C 525.195609390452 597.66644128335  525.46816813051 598.564284872485  525.737083819604 599.463222298227  L 527.653184913138 598.890023729354  Z M 529.864063812239 606.602178303332  C 529.33351451254 604.667862843697  528.786308831311 602.738154542513  528.222507700605 600.813268275273  L 526.303145769739 601.37545132228  C 526.863717688801 603.289312664581  527.407789210016 605.207968422261  527.935299750332 607.131204950578  L 529.864063812239 606.602178303332  Z M 531.897179629243 614.363090218439  C 531.411209452421 612.417096425012  530.908481445175 610.475325909244  530.389051586903 608.537994889734  L 528.457280619648 609.055934007845  C 528.973735405938 610.982168824194  529.473584002259 612.912817709267  529.956770749839 614.847665682871  L 531.897179629243 614.363090218439  Z M 533.751459128347 622.168662665007  C 533.310324607055 620.212017783854  532.852339652521 618.259210070177  532.377555261947 616.310456971581  L 530.434394996455 616.783878752464  C 530.906460025183 618.721470227111  531.361821837857 620.663093093758  531.800429729357 622.608531150209  L 533.751459128347 622.168662665007  Z M 535.42592347739 630.014775258081  C 535.029857476555 628.048512157737  534.616857334616 626.085698089113  534.186969039671 624.126551614073  L 532.233445226248 624.55520614909  C 532.660871304975 626.503131471374  533.07150595881 628.454703380836  533.465303463056 630.409704567439  L 535.42592347739 630.014775258081  Z M 536.919688764557 637.897286212483  C 536.568900358449 635.922442838704  536.201103042536 633.950658540262  535.816337771513 631.982152877829  L 533.853481631146 632.365813889956  C 534.236043131324 634.323044794207  534.601733861583 636.283535555861  534.95051310179 638.247067871758  L 536.919688764557 637.897286212483  Z M 538.231966464976 645.812034529164  C 537.926640826855 643.829653357063  537.604240488837 641.849939689061  537.264801350612 639.873113968813  L 535.293649030614 640.21157893209  C 535.631144006691 642.177082240437  535.951697773515 644.145456955589  536.25527463702 646.116483896537  L 538.231966464976 645.812034529164  Z M 539.253502610238 652.931082721257  C 539.02558353162 651.217381518657  538.78494108124 649.505396546987  538.531595165844 647.795269427342  L 536.553187192891 648.088359673779  C 536.845437488908 650.061097841517  537.120685079227 652.036317449751  537.378899314676 654.013798555244  L 539.253502610238 652.931082721257  Z M 427.246864413221 447.094012417477  C 425.720988170269 445.792182725078  424.183923570392 444.50352427499  422.635841767675 443.22818056096  L 421.364158232325 444.77181943904  C 422.903373284843 446.039858529949  424.43163423636 447.321136095816  425.948770913059 448.615509464743  L 427.246864413221 447.094012417477  Z M 530.62960010828 652.942244173566  L 539 659  L 545.724146899439 651.154883781946  L 530.62960010828 652.942244173566  Z " fill-rule="nonzero" fill="#027db4" stroke="none" />
  </g>
</svg>