<?xml version="1.0" encoding="utf-8"?>
<svg version="1.1" xmlns:xlink="http://www.w3.org/1999/xlink" width="188px" height="12px" viewBox="930 608  188 12" xmlns="http://www.w3.org/2000/svg">
  <g transform="matrix(0.866025403784439 -0.499999999999999 0.5 0.866025403784439 -169.810013475265 594.260402076353 )">
    <path d="M 850.00971997594 455.50456539494  C 848.960705911618 453.807389617717  847.923938834987 452.102674518712  846.899499543775 450.390552950436  L 845.183261819033 451.417455123076  C 846.2126357654 453.137823865777  847.254396879315 454.850750462769  848.30846397382 456.556101421546  L 850.00971997594 455.50456539494  Z M 854.270741712477 462.252495391983  C 853.189301280322 460.575795443383  852.119960665845 458.891322175507  851.062803205308 457.19920686337  L 849.366619834272 458.258905863945  C 850.428869551191 459.959171981728  851.503361107479 461.65175924403  852.590010765458 463.336535743507  L 854.270741712477 462.252495391983  Z M 858.660673249995 468.917280953436  C 857.547205990614 467.261676294037  856.445686908594 465.598067189739  855.356201847941 463.926583289561  L 853.680699489384 465.018687609885  C 854.775432526294 466.698222935585  855.882257551639 468.369845533037  857.001088307917 470.033425128723  L 858.660673249995 468.917280953436  Z M 863.177892718382 475.496459759234  C 862.032810004766 473.862562055914  860.899519413913 472.22043173933  859.778109265859 470.570196784611  L 858.123906937908 471.694302944278  C 859.250718843211 473.352486969768  860.389468418625 475.002527317651  861.540066918646 476.644295396301  L 863.177892718382 475.496459759234  Z M 867.820731220714 481.987601116924  C 866.644456106255 480.376014016875  865.479812703335 478.755969176757  864.326891775389 477.127592850523  L 862.694600626827 478.283285545977  C 863.853075097337 479.919505651449  865.02332850919 481.547354138591  866.205269661758 483.166704145303  L 867.820731220714 481.987601116924  Z M 872.58747344983 488.388306859684  C 871.380440512024 486.799625767398  870.184874577169 485.202264932966  869.000868818569 483.596348842525  L 867.391091903043 484.783201100492  C 868.580800937746 486.396852780725  869.782125833289 488.001907994851  870.994972967571 489.598241657103  L 872.58747344983 488.388306859684  Z M 877.476358322058 494.696212232336  C 876.239013501955 493.131024089636  875.012966739683 491.556937409436  873.798313584035 489.974074864121  L 872.211645637259 491.191648199356  C 873.432149695467 492.782135287097  874.664102242508 494.363804236936  875.907407269393 495.936531785653  L 877.476358322058 494.696212232336  Z M 882.485579627853 500.908986765008  C 881.218380065272 499.367869834166  879.962305441356 497.817638858112  878.717453644994 496.258414650042  L 877.154480865021 497.506259227329  C 878.405329028757 499.072994113534  879.667454079647 500.630692447924  880.940757657288 502.179232835366  L 882.485579627853 500.908986765008  Z M 887.613286699099 507.024335134131  C 886.316700563786 505.507858784283  885.031062137815 503.982056248688  883.756471614052 502.447046436775  L 882.217771444702 503.724701237119  C 883.498501585288 505.26710508805  884.790332845079 506.800257311827  886.093164548597 508.324038426253  L 887.613286699099 507.024335134131  Z M 892.857950371529 513.040705447881  C 891.533293028011 511.548083904078  890.218395401192 510.046829338128  888.913341570906 508.537037746278  L 887.400262297201 509.844933426936  C 888.711009120851 511.361311132948  890.031642682265 512.869114572229  891.362078534909 514.368247329859  L 892.857950371529 513.040705447881  Z M 898.208268062935 518.964742630065  C 896.857824638153 517.495409887872  895.516989148072 516.017275513319  894.185847331046 514.530434024195  L 892.695768135608 515.864474500089  C 894.032716748756 517.357801988887  895.379401321336 518.842384380342  896.735735741007 520.318126744379  L 898.208268062935 518.964742630065  Z M 903.66091355815 524.794731741407  C 902.28509342348 523.349133212128  900.918726528953 521.894567108359  899.5619002455 520.43112644084  L 898.095272828671 521.790907312968  C 899.458017950747 523.260731899528  900.830345302579 524.721643209107  902.212167132124 526.173547825255  L 903.66091355815 524.794731741407  Z M 909.214233950509 530.528905487872  C 907.813454169966 529.107479388038  906.421970069393 527.676922490029  905.039870625762 526.237326269284  L 903.597139578747 527.62243533574  C 904.985268109268 529.068311459672  906.382822235124 530.505108828942  907.789712591175 531.932735569043  L 909.214233950509 530.528905487872  Z M 914.866545814914 536.165525620751  C 913.441231018769 534.768702839327  912.025051524488 533.362588803882  910.61809788822 531.94727342694  L 909.199700558315 533.357290807868  C 910.612791702099 534.778780168471  912.035148949565 536.191028048882  913.466681349509 537.593944144327  L 914.866545814914 536.165525620751  Z M 920.616135718139 541.702883463585  C 919.166717974142 540.331087431296  917.726272384671 538.949842505706  916.294891057543 537.559237009108  L 914.901257415558 538.993735273983  C 916.338882810322 540.390406963153  917.785612008149 541.777677247992  919.241352499449 543.155457420948  L 920.616135718139 541.702883463585  Z M 926.461260738242 547.139300430137  C 924.988179420686 545.792946991146  923.52390439051 544.436989883898  922.068529279282 543.071515813681  L 920.7000817892 544.53006011088  C 922.161805635349 545.901490743667  923.632468224284 547.263362897965  925.111975515962 548.615589490226  L 926.461260738242 547.139300430137  Z M 932.400148992913 552.473128533234  C 930.903850649427 551.152625819076  929.416190056653 549.822367572945  927.937262341523 548.482438856842  L 926.594415832436 549.964587045464  C 928.079795025245 551.310360888489  929.573945190829 552.646422076356  931.076770787314 553.972685176028  L 932.400148992913 552.473128533234  Z M 938.431000176595 557.702750884335  C 936.911938392795 556.408499190203  935.401343204573 555.104343057635  933.899311205449 553.790365879608  L 932.582472745807 555.295668663505  C 934.091057009667 556.615377760913  935.608241817528 557.925222970828  937.133930154534 559.225120536513  L 938.431000176595 557.702750884335  Z M 944.551986106231 562.826582183672  C 943.010621368176 561.55897384704  941.477549504074 560.281315167975  939.952868544634 558.993687845051  L 938.662437318844 560.521688909025  C 940.193769343824 561.814933206217  941.733528876849 563.098165373676  943.281617459542 564.371303356411  L 944.551986106231 562.826582183672  Z M 950.760896521108 567.845611612915  C 949.649608922736 566.961303410467  948.541733695118 566.072715438542  947.437295523406 565.179867496238  C 946.989546544837 564.817696792092  946.542480341085 564.454682790981  946.096099292909 564.090827426063  L 944.832466480331 565.641063574195  C 945.280865347551 566.0065637094  945.729952575617 566.37121854422  946.179725772657 566.735026136477  C 947.288230597764 567.631162537846  948.400185357823 568.523023009842  949.515565273775 569.410587678041  L 950.760896521108 567.845611612915  Z M 957.045196605596 572.77263022156  C 955.465247174819 571.552243043599  953.89192117197 570.323304944922  952.325287868158 569.085870033773  L 951.08561721992 570.655333854285  C 952.657919235135 571.897246304227  954.236938166259 573.13063119679  955.82260449156 574.355434227966  L 957.045196605596 572.77263022156  Z M 963.400021346374 577.608345518785  C 961.802605903276 576.410911190691  960.211689661946 575.204831145798  958.627342667963 573.990158485942  L 957.410475396745 575.577368000858  C 959.00055519741 576.796435836497  960.597228015595 578.006879965615  962.200423552296 579.208647094252  L 963.400021346374 577.608345518785  Z M 969.824044326814 582.351748165473  C 968.2094962934 581.177516622827  966.601321879042 579.994546371883  964.999591889169 578.802889496987  L 963.805781986709 580.407513414542  C 965.413307681936 581.603482184809  967.027301120224 582.790732899451  968.647691239845 583.969213285586  L 969.824044326814 582.351748165473  Z M 976.315924686818 587.001848090553  C 974.684581061109 585.851064425911  973.059484141405 584.691450885467  971.440705478204 583.523058525207  L 970.270202123572 585.144761918801  C 971.894838181126 586.317381994047  973.525815357171 587.481191484155  975.163061842337 588.636139148417  L 976.315924686818 587.001848090553  Z M 982.874307402696 591.557674697645  C 981.22650868839 590.430579109386  979.584828463185 589.294564320842  977.949339007721 588.149680348987  L 976.802386515304 589.78812472709  C 978.443793831489 590.937151351082  980.091414318167 592.077276699512  981.745175433059 593.20845057436  L 982.874307402696 591.557674697645  Z M 989.497823569994 596.018277067658  C 987.833913705389 594.915104809842  986.175992835898 593.80292588893  984.524133957209 592.681789272437  L 983.400971725718 594.336632649242  C 985.058807696307 595.461825990358  986.722727592475 596.57802922337  988.392658154308 597.685193203512  L 989.497823569994 596.018277067658  Z M 996.185090689217 600.382724157266  C 994.505416975428 599.303705490536  992.831601512706 598.215594577822  991.163717996553 597.118439326962  L 990.064580459058 598.789336293764  C 991.738499050735 599.890461495005  993.418371053143 600.982509632027  995.104122504148 602.065432623659  L 996.185090689217 600.382724157266  Z M 1002.93471295439 604.650104993242  C 1001.23962598288 603.595465136774  999.550265295554 602.53164934918  997.866705272478 601.458704468703  L 996.79182184747 603.145306265999  C 998.481473670019 604.222133493982  1000.17694714588 605.289798596291  1001.87816762602 606.348254565303  L 1002.93471295439 604.650104993242  Z M 1009.74528154442 608.819528862602  C 1008.03513512375 607.789487947054  1006.33058182522 606.750189330535  1004.63169669781 605.701678771834  L 1003.58129174132 607.403633362115  C 1005.28632412061 608.455937855088  1006.99704518067 609.498997073305  1008.71337960113 610.532765092502  L 1009.74528154442 608.819528862602  Z M 1016.61537491711 612.89012549852  C 1014.89052599914 611.884898520116  1013.1711358739 610.870334003256  1011.4572802435 609.846476617646  L 1010.43157300226 611.563428758877  C 1012.15163005383 612.590990873604  1013.87724162631 613.609226494263  1015.60833174359 614.618090789454  L 1016.61537491711 612.89012549852  Z M 1023.54279432435 616.866431724971  C 1022.14414576383 616.074472536023  1020.74820350587 615.277743345175  1019.35499192825 614.476258065961  C 1019.01713254675 614.281940199853  1018.67947879293 614.08726502878  1018.34203123335 613.892232879402  L 1017.34123579906 615.623824199171  C 1017.67987515746 615.819545163978  1018.01872142055 616.014907920648  1018.35777401974 616.209912141365  C 1019.75489993515 617.013648991059  1021.15476414488 617.812616489698  1022.55734220357 618.606800685177  L 1023.54279432435 616.866431724971  Z M 1030.51653502136 620.763288602702  C 1028.76760859024 619.798938910903  1027.02277860794 618.827178564115  1025.28209211997 617.848033763729  L 1024.30156305981 619.591181136212  C 1026.04717653908 620.573097393689  1027.79694524082 621.547608295976  1029.55082198629 622.514687567497  L 1030.51653502136 620.763288602702  Z M 1037.53388674312 624.581053347648  C 1035.77416943222 623.636538141124  1034.01846452568 622.684566440019  1032.26681936212 621.725163912093  L 1031.30606048495 623.479285452905  C 1033.06266365818 624.441403557655  1034.82333806553 625.396069802771  1036.58803623421 626.343258447741  L 1037.53388674312 624.581053347648  Z M 1044.59395250979 628.319237961182  C 1042.82366925175 627.394677970857  1041.05731384054 626.462616599361  1039.29493390221 625.523078977762  L 1038.35406801522 627.287950469604  C 1040.12143634792 628.230147440683  1041.89279140596 629.164847000202  1043.66808542862 630.092023946009  L 1044.59395250979 628.319237961182  Z M 1051.6958298817 631.977364616861  C 1049.91520695958 631.072878022847  1048.1384268249 630.160846120031  1046.36553738465 629.241293499359  L 1045.44468475228 631.016689350839  C 1047.22259233388 631.938844753684  1049.00440162249 632.853458151386  1050.79006457549 633.760504883374  L 1051.6958298817 631.977364616861  Z M 1058.83861107468 635.554965721498  C 1057.04787609329 634.670668138111  1055.26089834869 633.778782282721  1053.47772602282 632.879332203078  L 1052.57700435132 634.665025477548  C 1054.36522392412 635.567021439373  1056.15725968686 636.461431766514  1057.95306332118 637.348232343133  L 1058.83861107468 635.554965721498  Z M 1066.02138307609 639.051583974935  C 1064.22076493279 638.187588435857  1062.42381799535 637.315962631531  1060.63059071451 636.436730063439  L 1059.75011513694 638.232492508001  C 1061.54841812513 639.114213732862  1063.35045129839 639.988306663118  1065.15616606879 640.854747730746  L 1066.02138307609 639.051583974935  Z M 1073.24322776158 642.466772428495  C 1071.432956617 641.623189372337  1069.6262701781 640.771935033011  1067.82321715821 639.913032362725  L 1066.96310021971 641.718634437409  C 1068.77125675858 642.579968220943  1070.58305700084 643.433632025023  1072.39845209521 644.279602832453  L 1073.24322776158 642.466772428495  Z M 1080.50322201237 645.800094542112  C 1078.68352926103 644.977031798298  1076.86733425697 644.146257733962  1075.05468596992 643.307794749108  L 1074.21503761332 645.123005656212  C 1076.03281657867 645.963841900051  1077.85415229991 646.796967459957  1079.67899566881 647.622359872568  L 1080.50322201237 645.800094542112  Z M 1087.8004378333 649.051124240133  C 1085.97155607401 648.248687015115  1084.14608465652 647.438499417908  1082.32407280067 646.620583293446  L 1081.50500035246 648.445171007036  C 1083.33216939007 649.265402232853  1085.16280778152 650.077883055893  1086.99686616773 650.882591569434  L 1087.8004378333 649.051124240133  Z M 1095.13394247143 652.219445965776  C 1093.29610547758 651.43773682959  1091.46159098412 650.648239260223  1089.63044845472 649.850974544749  L 1088.8320566113 651.68470584032  C 1090.66838216672 652.484227203594  1092.50808923044 653.27595943593  1094.35112819889 654.059881190043  L 1095.13394247143 652.219445965776  Z M 1098.83398909624 653.780828756279  C 1098.2132468727 653.520957407531  1097.59287621035 653.260199417457  1096.97287900829 652.998555584309  L 1096.1952698226 654.841196068593  C 1098.04051717092 655.619905371994  1099.88905774987 656.390787811956  1101.74084171753 657.153822603302  L 1098.83398909624 653.780828756279  Z M 845.879182284478 448.675984000268  C 844.86298214861 446.958959419854  843.859171645748 445.234632300538  842.867829005274 443.50313702331  L 841.132170994726 444.49686297669  C 842.128288866027 446.236698750218  843.136934656548 447.969331837259  844.158029760127 449.6946272096  L 845.879182284478 448.675984000268  Z M 1094.6320409356 661.359052989787  L 1104 657  L 1100.42431700347 647.305955895069  L 1094.6320409356 661.359052989787  Z " fill-rule="nonzero" fill="#027db4" stroke="none" />
  </g>
</svg>