<?xml version="1.0" encoding="utf-8"?>
<svg version="1.1" xmlns:xlink="http://www.w3.org/1999/xlink" width="168px" height="14px" viewBox="1040 474  168 14" xmlns="http://www.w3.org/2000/svg">
  <g transform="matrix(0.866025403784438 -0.500000000000001 0.500000000000001 0.866025403784441 -89.9125538537089 626.441780779685 )">
    <path d="M 1065.4871252529 447.938786397189  C 1063.61893064445 447.212468381266  1061.74595180706 446.498516607231  1059.86831167913 445.796977937391  L 1059.16831906916 447.670480098049  C 1061.03769692644 448.368931753357  1062.90243400451 449.079741890886  1064.76240790588 449.802863854522  L 1065.4871252529 447.938786397189  Z M 1072.93386484523 450.909805915832  C 1071.07877263285 450.150647277039  1069.21867880415 449.403768565739  1067.35370545179 448.669218805492  L 1066.62077450168 450.530082105781  C 1068.47754132161 451.261399591199  1070.32945008952 452.004991776  1072.17637924993 452.760809852325  L 1072.93386484523 450.909805915832  Z M 1080.3270391661 454.011718389998  C 1078.48562659653 453.219955354789  1076.63899657961 452.440382111545  1074.78727032427 451.673049829831  L 1074.02162909923 453.520695227225  C 1075.865207114 454.284650979601  1077.70371131556 455.060793829006  1079.53702102837 455.84907283105  L 1080.3270391661 454.011718389998  Z M 1087.66434769062 457.243558601428  C 1085.83718775393 456.419437541724  1084.00459616236 455.607412345378  1082.16669320341 454.80753631203  L 1081.36857994707 456.641388877001  C 1083.19839549278 457.437745177172  1085.02292304293 458.24619717977  1086.84204283942 459.066691819735  L 1087.66434769062 457.243558601428  Z M 1094.94350727758 460.604320902407  C 1093.13116852887 459.748098258938  1091.31318560791 458.903873786363  1089.48967784332 458.071702897816  L 1088.65934090359 459.891191992734  C 1090.47482459879 460.71970103948  1092.28480776162 461.560210630296  1094.08917158849 462.412665595864  L 1094.94350727758 460.604320902407  Z M 1102.16225287992 464.092959528696  C 1100.36529926237 463.204901731195  1098.56249071154 462.328740678685  1096.75394555996 461.464533880518  L 1095.89164331176 463.269093337216  C 1097.69223023467 464.12949732442  1099.48710579988 465.001802963094  1101.27615219553 465.885952996927  L 1102.16225287992 464.092959528696  Z M 1109.31833824952 467.708388924936  C 1107.53732891899 466.788772309258  1105.75025571594 465.88094731074  1103.95723594014 464.984973517122  L 1103.063236705 466.77404181307  C 1104.84836656919 467.666073009885  1106.62757602761 468.569903262164  1108.40074829667 469.485473244385  L 1109.31833824952 467.708388924936  Z M 1116.40953663616 471.449484082443  C 1114.64502578709 470.49859480454  1112.87424401322 469.559388346816  1111.09730754492 468.631926356791  L 1110.17188950746 470.404946789825  C 1111.9410068363 471.328327624008  1113.70399655352 472.263401246151  1115.46074294018 473.210106279985  L 1116.40953663616 471.449484082443  Z M 1123.43364148042 475.315080889273  C 1121.68617817348 474.333214836195  1119.93223884073 473.362919170951  1118.17193860707 472.404257581729  L 1117.21538972849 474.160678443277  C 1118.96794402792 475.115121587558  1120.71416541662 476.081147613867  1122.45393927627 477.05869311428  L 1123.43364148042 475.315080889273  Z M 1130.38824516706 479.307251176409  C 1129.61877709599 478.855356161773  1128.84781948258 478.406002277762  1128.07538492692 477.959196868356  C 1127.11193216329 477.402852593175  1126.14643992041 476.850047697564  1125.17892772241 476.300793360303  L 1124.19154565082 478.040068107063  C 1125.15458542035 478.586783457481  1126.11561502176 479.137032164849  1127.07461502991 479.690803107067  C 1127.84302508281 480.13528247643  1128.60996629193 480.582296336967  1129.37542612987 481.03183738704  L 1130.38824516706 479.307251176409  Z M 1137.26303396514 483.436658692613  C 1135.5545933876 482.387340280487  1133.83839411226 481.350706817854  1132.11457773029 480.326843829823  L 1131.09324430433 482.046401340645  C 1132.80855870752 483.065214567288  1134.51629357215 484.096735283691  1136.21630800541 485.140878386559  L 1137.26303396514 483.436658692613  Z M 1144.05481619656 487.701212781147  C 1142.36746078084 486.618313876311  1140.67209733022 485.547944006228  1138.96886571681 484.490191479351  L 1137.91372647971 486.189215078459  C 1139.60855763979 487.241750698455  1141.29555944342 488.306841432068  1142.97459270829 489.384399406389  L 1144.05481619656 487.701212781147  Z M 1150.76093546896 492.099245495589  C 1149.09532517118 490.983189639954  1147.42146063341 489.879502003971  1145.73947995415 488.788273644942  L 1144.65094759048 490.466098812606  C 1146.32463262748 491.551945159695  1147.99024155231 492.650189333724  1149.64763694765 493.760740726531  L 1150.76093546896 492.099245495589  Z M 1157.37876889438 496.629036683544  C 1155.73555516567 495.480260387298  1154.08384422036 494.343686658205  1152.42377232914 493.219409266718  L 1151.30227258416 494.875379774309  C 1152.95415688873 495.99411215379  1154.59772148413 497.125080224511  1156.23283077178 498.268190678499  L 1157.37876889438 496.629036683544  Z M 1163.90572811506 501.288814659427  C 1162.2855536469 500.107767230353  1160.6566423089 498.938751943262  1159.01912849073 497.781865245122  L 1157.86510000385 499.415333411773  C 1159.4945374933 500.566514266605  1161.1154149306 501.72976389137  1162.72759858889 502.90498631478  L 1163.90572811506 501.288814659427  Z M 1170.33926031587 506.076756897402  C 1168.74275878861 504.863900265117  1167.13728415544 503.662900643648  1165.52296887244 502.473857118762  L 1164.33686300566 504.084184064692  C 1165.94321637669 505.26736314663  1167.54077270057 506.462439356876  1169.1294001745 507.669314098359  L 1170.33926031587 506.076756897402  Z M 1176.6768492227 510.990990744208  C 1175.1046450578 509.746799279507  1173.52323506043 508.514285056935  1171.93274970133 507.293549762347  L 1170.71503036271 508.880105658737  C 1172.29767134065 510.094820204436  1173.87128171711 511.321255583629  1175.43573166493 512.559310612027  L 1176.6768492227 510.990990744208  Z M 1182.91601608665 516.029594151585  C 1181.36872420237 514.754554480875  1179.81199735971 513.491007716468  1178.2459639929 512.239058104441  L 1176.99710745513 513.801222419771  C 1178.55541703964 515.046997331779  1180.10446600041 516.304312198232  1181.64412653664 517.573063287196  L 1182.91601608665 516.029594151585  Z M 1189.05432065351 521.190596428026  C 1187.53254622451 519.885207243045  1186.00111140135 518.591122133428  1184.46014253162 517.308447864749  L 1183.18063724573 518.845609607499  C 1184.71400595295 520.121957640079  1186.23788763616 521.409660234561  1187.75215657093 522.708611151942  L 1189.05432065351 521.190596428026  Z M 1195.08849542043 526.474449364568  C 1194.48123964305 525.931247439273  1193.87234812912 525.389876910149  1193.2618291745 524.850345153119  C 1192.36895927688 524.062865437385  1191.4726258062 523.279321558833  1190.57285483669 522.499736310648  L 1189.26320124098 524.01129426827  C 1190.15828504842 524.786818435873  1191.0499502178 525.566279516178  1191.93817082515 526.349654847388  C 1192.54543004138 526.886308541041  1193.15107115779 527.424790444997  1193.75508592956 527.965093228703  L 1195.08849542043 526.474449364568  Z M 1201.01255104494 531.880029112441  C 1199.5449419813 530.51402692601  1198.06722224693 529.1589279351  1196.57951375777 527.814843939098  L 1195.2387504638 529.298876886689  C 1196.71912147424 530.636331769671  1198.18955299511 531.984747320863  1199.64992371176 533.344012292279  L 1201.01255104494 531.880029112441  Z M 1206.82854876232 537.401704402109  C 1205.38824042337 536.006946277658  1203.93760777201 534.622889270367  1202.47677048948 533.249647568791  L 1201.10692152713 534.706875697927  C 1202.56055386156 536.073344478718  1204.00403189471 537.450575223382  1205.4372365357 538.838454306598  L 1206.82854876232 537.401704402109  Z M 1212.53421382767 543.037315603664  C 1211.12176954477 541.614347057021  1209.69879134587 540.201873363822  1208.26539663059 538.800011057026  L 1206.86699777326 540.22986441868  C 1208.29332288902 541.624812645917  1209.70928286338 543.030319923511  1211.1147608757 544.446270293195  L 1212.53421382767 543.037315603664  Z M 1218.12731464926 548.784658524748  C 1216.74328685566 547.334036105395  1215.34851966243 545.893698170985  1213.94312814174 544.463763553408  L 1212.51672632925 545.865682905338  C 1213.91518636407 547.288564988832  1215.30307447133 548.7217990793  1216.6802761464 550.165266930935  L 1218.12731464926 548.784658524748  Z M 1223.60566366134 554.641485272647  C 1222.25059367604 553.163776345974  1220.8845830079 551.696137513346  1219.50774435655 550.238689858994  L 1218.05389748116 551.612126884466  C 1219.42394547133 553.062386308589  1220.78321888261 554.522786647383  1222.13160557125 555.993207413865  L 1223.60566366134 554.641485272647  Z M 1228.9671181797 560.605505133486  C 1227.64153599579 559.101287658958  1226.30481612489 557.606921948918  1224.9570688501 556.122531292697  L 1223.47634553838 557.466948814944  C 1224.81744563262 558.944018356233  1226.14757271085 560.431013753675  1227.46661703393 561.927812326064  L 1228.9671181797 560.605505133486  Z M 1234.20958123978 566.674385468171  C 1232.91400531709 565.144247773201  1231.60709905946 563.623739660011  1230.28897029025 562.112986574694  L 1228.78194968062 563.42785876702  C 1230.09357734974 564.931160716114  1231.39403785747 566.444169580628  1232.68322391224 567.966760533172  L 1234.20958123978 566.674385468171  Z M 1239.33100241677 572.845752624725  C 1238.06593947914 571.290293174634  1236.78935799011 569.744237357279  1235.50136327116 568.207712726508  L 1233.96863478741 569.492525317941  C 1235.25027702945 571.021471705488  1236.52056233238 572.559902271165  1237.77938589418 574.107690090223  L 1239.33100241677 572.845752624725  Z M 1244.32937862757 579.11719286667  C 1243.09532346466 577.53702003058  1241.84956603899 575.966021200245  1240.59220912899 574.404325987381  L 1239.03437224974 575.658576463821  C 1240.28552779057 577.21256929045  1241.5251410565 578.775819848483  1242.75310977602 580.348199165452  L 1244.32937862757 579.11719286667  Z M 1249.20205714117 585.48697309709  C 1248.76016849807 584.897286774999  1248.31684644773 584.30867595561  1247.87209492294 583.721145860591  C 1247.10596302864 582.710621061234  1246.33509515312 581.703695611884  1245.55951673924 580.700402746615  L 1243.97718076347 581.923600547371  C 1244.74878278045 582.921749521878  1245.51569932898 583.923511749272  1246.2779051065 584.928854178809  C 1246.72054936767 585.513602507402  1247.16177140226 586.099426077615  1247.6015672987 586.686319695928  L 1249.20205714117 585.48697309709  Z M 1253.95318356676 591.945121842993  C 1252.77966886544 590.320144242825  1251.59541761147 588.702947338157  1250.40050753665 587.093637278425  L 1248.79474409496 588.285913995183  C 1249.98439614921 589.888142530051  1251.16343628511 591.498223204978  1252.33178711296 593.116050337647  L 1253.95318356676 591.945121842993  Z M 1258.58965363224 598.486072299012  C 1257.44498496272 596.840647553757  1256.28944416506 595.202812908281  1255.12310708654 593.572675866639  L 1253.4965625617 594.736442556629  C 1254.65776735079 596.359406427432  1255.8082233664 597.990034029918  1256.94785509503 599.628218333112  L 1258.58965363224 598.486072299012  Z M 1263.11002461296 605.107789125698  C 1261.99455816037 603.442429240125  1260.86808738722 601.78446649684  1259.73068623266 600.134009721  L 1258.08386675453 601.268904256383  C 1259.21626294779 602.912098447465  1260.33777685714 604.562765577139  1261.44833486876 606.220797299079  L 1263.11002461296 605.107789125698  Z M 1267.51288991069 611.808211851634  C 1266.42697277335 610.123435033725  1265.32992254722 608.445860098822  1264.22181124032 606.775597159384  L 1262.55522924767 607.881266396434  C 1263.65846447879 609.544179597094  1264.75068730179 611.214372617912  1265.83182602543 612.891735830922  L 1267.51288991069 611.808211851634  Z M 1271.79687949128 618.585255514584  C 1270.74084957269 616.881586014253  1269.67356126132 615.184920896645  1268.59508461173 613.495371527258  L 1266.9092586928 614.571471416249  C 1267.98298966944 616.253586179837  1269.04558154047 617.942785379927  1270.09696455954 619.638958140964  L 1271.79687949128 618.585255514584  Z M 1275.96066031102 625.436811310269  C 1274.93484621468 623.714779256244  1273.89765192487 621.999551905113  1272.84914552082 620.29124184076  L 1271.14460025199 621.337437533023  C 1272.18849286261 623.038230437983  1273.22112313626 624.745910191304  1274.24242329321 626.460364704402  L 1275.96066031102 625.436811310269  Z M 1280.00293673137 632.360747248564  C 1279.00765765861 630.620888483435  1278.0008801328 628.887632623929  1276.98267023673 627.161093437347  L 1275.25993601923 628.177059389464  C 1276.27366543706 629.896001202177  1277.27601279105 631.621630132134  1278.26691228918 633.353832912607  L 1280.00293673137 632.360747248564  Z M 1283.9224509222 639.354908816903  C 1282.95801657276 637.597764730356  1281.98196908868 635.847019697573  1280.9943725357 634.10278863381  L 1279.2539854306 635.088208708917  C 1280.23723621473 636.824764548399  1281.20898874986 638.567805693155  1282.16917925221 640.317217733622  L 1283.9224509222 639.354908816903  Z M 1287.71798325314 646.417119650699  C 1286.78469372885 644.64323701107  1285.839680002 642.875547582196  1284.88300410129 641.11416739146  L 1283.1255056627 642.068734957611  C 1284.07797185618 643.822364461911  1285.01882719345 645.582275441559  1285.94800991871 647.348352379621  L 1287.71798325314 646.417119650699  Z M 1289.17253588204 649.205118898738  C 1288.99789878892 648.867542475693  1288.82283832817 648.530185240185  1288.64735491285 648.193047988255  L 1286.87329201937 649.116466013845  C 1287.79467724449 650.886623508267  1288.70434261909 652.662856693441  1289.60222843464 654.445048981149  L 1289.17253588204 649.205118898738  Z M 1057.98913758183 445.099584322532  C 1056.10842190112 444.406332936955  1054.22314086754 443.725530259675  1052.333418227 443.05722097716  L 1051.666581773 444.94277902284  C 1053.54798897564 445.608147511707  1055.42497411593 446.285954420045  1057.2974139925 446.976155258032  L 1057.98913758183 445.099584322532  Z M 1281.06222300617 652.171468858067  L 1291 655  L 1294.63441963252 645.327823722928  L 1281.06222300617 652.171468858067  Z " fill-rule="nonzero" fill="#009999" stroke="none" />
  </g>
</svg>