<svg width="13" height="13" viewBox="0 0 13 13" fill="none" xmlns="http://www.w3.org/2000/svg">
	<path d="M4 10H1V13H4V10Z" fill="#37465E"/>
	<path d="M12 10H9V13H12V10Z" fill="#37465E"/>
	<path fill-rule="evenodd" clip-rule="evenodd" d="M6.47275 0L1 3.52708L6.47275 7L12 3.52708L6.47275 0ZM10.1308 3.52054L6.47542 1.18796L2.85608 3.52056L6.47539 5.81732L10.1308 3.52054Z" fill="#37465E"/>
	<path fill-rule="evenodd" clip-rule="evenodd" d="M2.45 9H10.55H11V8H10.55H2.45H2V9H2.45Z" fill="#37465E"/>
	<path fill-rule="evenodd" clip-rule="evenodd" d="M7 7.66667V6.33333V6H6V6.33333V7.66667V8H7V7.66667Z" fill="#37465E"/>
	<path fill-rule="evenodd" clip-rule="evenodd" d="M3 10.6667V9.33333V9H2V9.33333V10.6667V11H3V10.6667Z" fill="#37465E"/>
	<path fill-rule="evenodd" clip-rule="evenodd" d="M11 10.6667V9.33333V9H10V9.33333V10.6667V11H11V10.6667Z" fill="#37465E"/>
</svg>
