<svg width="15" height="15" viewBox="0 0 15 15" fill="none" xmlns="http://www.w3.org/2000/svg">
<mask id="path-1-inside-1_8335_27807" fill="white">
<path fill-rule="evenodd" clip-rule="evenodd" d="M2 2C1.44772 2 1 2.44772 1 3V5V13C1 13.5523 1.44772 14 2 14H13C13.5523 14 14 13.5523 14 13V5C14 4.44772 13.5523 4 13 4H7L6.50955 3.0191C6.50318 3.00637 6.49738 2.9941 6.4913 2.98123C6.42647 2.84394 6.00736 2 5.5 2H2Z"/>
</mask>
<path fill-rule="evenodd" clip-rule="evenodd" d="M2 2C1.44772 2 1 2.44772 1 3V5V13C1 13.5523 1.44772 14 2 14H13C13.5523 14 14 13.5523 14 13V5C14 4.44772 13.5523 4 13 4H7L6.50955 3.0191C6.50318 3.00637 6.49738 2.9941 6.4913 2.98123C6.42647 2.84394 6.00736 2 5.5 2H2Z" fill="#718096"/>
<path d="M7 4L6.10557 4.44721L6.38197 5H7V4ZM6.50955 3.0191L5.61512 3.46631L5.61512 3.46631L6.50955 3.0191ZM6.4913 2.98123L5.58703 3.40819L5.58703 3.4082L6.4913 2.98123ZM2 3V3V1C0.895431 1 0 1.89543 0 3H2ZM2 5V3H0V5H2ZM2 13V5H0V13H2ZM2 13H2H0C0 14.1046 0.895431 15 2 15V13ZM13 13H2V15H13V13ZM13 13V15C14.1046 15 15 14.1046 15 13H13ZM13 5V13H15V5H13ZM13 5H15C15 3.89543 14.1046 3 13 3V5ZM7 5H13V3H7V5ZM5.61512 3.46631L6.10557 4.44721L7.89443 3.55279L7.40398 2.57188L5.61512 3.46631ZM5.58703 3.4082C5.59283 3.42048 5.60308 3.44223 5.61512 3.46631L7.40398 2.57189C7.40384 2.57162 7.40325 2.57044 7.40189 2.5676C7.40039 2.56447 7.39863 2.56075 7.39556 2.55426L5.58703 3.4082ZM5.5 3C5.42263 3 5.36198 2.98361 5.32376 2.96877C5.30505 2.96151 5.29159 2.9546 5.28343 2.95C5.27928 2.94767 5.27625 2.94578 5.27431 2.94453C5.27238 2.94328 5.2714 2.94257 5.27135 2.94253C5.2713 2.9425 5.27205 2.94304 5.27358 2.94427C5.27511 2.9455 5.27729 2.94732 5.2801 2.9498C5.28582 2.95485 5.29346 2.96203 5.30286 2.97169C5.32209 2.99145 5.34489 3.01767 5.37033 3.05059C5.48139 3.19432 5.5662 3.36407 5.58703 3.40819L7.39557 2.55426C7.35158 2.4611 7.19441 2.14024 6.95287 1.82767C6.83209 1.67137 6.66401 1.4825 6.44829 1.32549C6.23413 1.16962 5.90965 1 5.5 1V3ZM2 3H5.5V1H2V3Z" fill="#37465E" mask="url(#path-1-inside-1_8335_27807)"/>
</svg>
