<?xml version="1.0" encoding="utf-8"?>
<svg version="1.1" xmlns:xlink="http://www.w3.org/1999/xlink" width="140px" height="14px" viewBox="978 600  140 14" xmlns="http://www.w3.org/2000/svg">
  <g transform="matrix(0.224951054343861 0.974370064785242 -0.974370064785237 0.224951054343866 1403.69392437227 -550.68511788166 )">
    <path d="M 1039.55522869143 630.06717476804  C 1038.80177026705 636.027634542208  1038.18486559594 642.004562438503  1037.70499953664 647.993260868202  L 1038.70180461661 648.07313347011  C 1039.18045164049 642.099648526386  1039.79578914794 636.137904214583  1040.54733351214 630.192586189869  L 1039.55522869143 630.06717476804  Z M 1043.48172165653 605.349523258913  C 1042.35101631401 611.250055925131  1041.35554222712 617.175701020238  1040.4960817924 623.121801261393  L 1041.48579650187 623.264856474043  C 1042.3430735925 617.333861503864  1043.33601881086 611.423269716181  1044.46385174795 605.53772656262  L 1043.48172165653 605.349523258913  Z M 1049.39335163131 581.01794673906  C 1047.70622274629 586.592256847201  1046.23414175957 592.229401921051  1044.98037353215 597.916879594702  C 1044.94078989959 598.103882942343  1044.90134248071 598.290915097027  1044.86203130695 598.477975909634  L 1045.84065490665 598.683635458701  C 1045.87957887437 598.498417152153  1045.91863675668 598.313227013227  1045.95782852292 598.128065187243  C 1047.2058804207 592.467017259786  1048.67117831732 586.85605969455  1050.35047395961 581.307630788789  L 1049.39335163131 581.01794673906  Z M 1058.06088536878 557.517651557465  C 1056.54570004474 560.872066986271  1055.14710451005 564.277935220185  1053.86761192586 567.729136194079  C 1053.05413719129 569.919184921479  1052.27450417259 572.121655507318  1051.52899127874 574.335761443647  L 1052.47670999944 574.654868363707  C 1053.21897314703 572.450413880134  1053.99520919033 570.257544546724  1054.80514090888 568.077043512165  C 1056.07663918891 564.64738522927  1057.46650029228 561.262777749515  1058.97222661236 557.929303276452  L 1058.06088536878 557.517651557465  Z M 1070.13035757241 535.557910214144  C 1068.61958136451 537.798991231271  1067.19481489694 540.09686844363  1065.85916368182 542.446533251059  C 1064.17939807678 545.308669310005  1062.58938556973 548.222543151426  1061.09144905028 551.183897823111  L 1061.98378629879 551.635267111967  C 1063.47337130983 548.690423005408  1065.05458277687 545.792828553036  1066.72510743519 542.946722848222  C 1068.04918138601 540.617068815772  1069.46168735688 538.338798540025  1070.95954126081 536.116886430903  L 1070.13035757241 535.557910214144  Z M 1086.48950456195 516.574510822696  C 1082.04069779783 520.647961858341  1077.94663565133 525.092642896281  1074.25163784727 529.860438633547  L 1075.04205642265 530.473005752879  C 1078.7022987629 525.750056308081  1082.75785181243 521.347182318249  1087.16481272151 517.312046509717  L 1086.48950456195 516.574510822696  Z M 1106.91569092613 502.062110305416  C 1104.27743296281 503.464104243801  1101.7011700959 504.979769461562  1099.19415266673 506.604840442822  C 1096.66328872132 508.296953100779  1094.20627598716 510.096996016156  1091.82990820241 511.999991998539  L 1092.45498407083 512.780555998936  C 1094.80714878423 510.896941842822  1097.23907518154 509.115151384978  1099.74404944901 507.440103610326  C 1102.22494647362 505.832208662854  1104.774302912 504.33249211952  1107.38495562743 502.945167857396  L 1106.91569092613 502.062110305416  Z M 1130.30668056053 493.070332249928  C 1124.45463018902 494.536807276574  1118.74213198377 496.512568119364  1113.234551943 498.975006879775  L 1113.64271377485 499.887916469505  C 1119.09703596688 497.449289290598  1124.7542947815 495.492633893636  1130.54975630432 494.040339560611  L 1130.30668056053 493.070332249928  Z M 1037.20740621034 654.984385140167  C 1036.83424042087 660.98067796243  1036.59839888897 666.984728030724  1036.50006697515 672.991816439551  L 1037.49993302485 673.008183560449  C 1037.59801513962 667.016355354865  1037.83325754771 661.027557771325  1038.20547535949 655.046497727565  L 1037.20740621034 654.984385140167  Z M 1139.98927421021 491.130026279454  C 1139.05162972078 491.27174487411  1138.11597890656 491.426353959186  1137.18258727578 491.593809661492  L 1137.35917356376 492.578094824897  C 1138.26767537448 492.415104496138  1139.17833911191 492.264403491732  1140.09091515136 492.126033120766  L 1139.98927421021 491.130026279454  Z M 1139.79224904058 497.96916996095  L 1145 491  L 1138.29300240444 485.458683978222  L 1139.79224904058 497.96916996095  Z " fill-rule="nonzero" fill="#199ed8" stroke="none" />
  </g>
</svg>