<?xml version="1.0" encoding="utf-8"?>
<svg version="1.1" xmlns:xlink="http://www.w3.org/1999/xlink" width="480px" height="38px" viewBox="812 902  480 38" xmlns="http://www.w3.org/2000/svg">
  <g transform="matrix(-0.615661475325655 -0.788010753606719 0.788010753606725 -0.615661475325657 973.917967970795 2317.0115315692 )">
    <path d="M 1544.62436567072 548.745742748459  C 1553.92963363838 545.115090954117  1563.2768374432 541.592850043915  1572.66407842976 538.179735474792  L 1571.63896267251 535.360313958904  C 1562.22984809763 538.78138156376  1552.86086399677 542.311829789362  1543.53391344942 545.950941511687  L 1544.62436567072 548.745742748459  Z M 1508.55395776807 563.451930337041  C 1517.74513243994 559.541437714261  1526.98150339648 555.738037715367  1536.26119449524 552.04250290788  L 1535.15125491194 549.255383584739  C 1525.84994083118 552.959529506732  1516.59204783469 556.771791961141  1507.37945643651 560.69139658029  L 1508.55395776807 563.451930337041  Z M 1472.94495006181 579.242587379394  C 1482.01361792534 575.055833555365  1491.13070114875 570.974756063441  1500.29434782006 567.000183874471  L 1499.10060043869 564.2479180462  C 1489.91560118519 568.23175154591  1480.77727387895 572.322338520875  1471.68747474717 576.518848068616  L 1472.94495006181 579.242587379394  Z M 1437.82993869385 596.103259260487  C 1446.767798378 591.644076749254  1455.75724817833 587.289057543226  1464.79646210849 583.039086257794  L 1463.51999967387 580.324193321965  C 1454.45972310727 584.584067636663  1445.44932662788 588.949234648354  1436.4906404769 593.418807680357  L 1437.82993869385 596.103259260487  Z M 1403.24106760663 614.018511884038  C 1412.03993748093 609.290982578227  1420.89352500261 604.666008200636  1429.80003178243 600.144528201433  L 1428.44202275596 597.469493344832  C 1419.51476256597 602.00150902669  1410.6405449434 606.637260243363  1401.82117246802 611.375805355618  L 1403.24106760663 614.018511884038  Z M 1369.24134334943 633.017169413405  C 1377.05723577626 628.473502956757  1384.92651881855 624.022304912336  1392.84754607348 619.664506554945  C 1393.67689345722 619.209040222141  1394.50674268233 618.75448827733  1395.33709223638 618.300851548952  L 1393.89877972642 615.668123472665  C 1393.06616874356 616.122995665265  1392.23405964905 616.578785927025  1391.402453961 617.035493426395  C 1383.46040052426 621.40484942255  1375.57023067734 625.867856872761  1367.73359532853 630.42358195479  L 1369.24134334943 633.017169413405  Z M 1335.9071324159 653.159628807787  C 1344.36606814196 647.850347291613  1352.89391400114 642.651655350736  1361.48849271446 637.564880284332  L 1359.96048828414 634.983174944654  C 1351.34345392019 640.083240580327  1342.79332676793 645.295515503434  1334.31228979506 650.618668946878  L 1335.9071324159 653.159628807787  Z M 1303.27523329262 674.421036301725  C 1311.54923748088 668.827922810311  1319.89586282467 663.342998174057  1328.31297831304 657.967662771443  L 1326.69829392018 655.439265193632  C 1318.25918645163 660.828645107077  1309.89075330215 666.327900585532  1301.59513105051 671.935627591663  L 1303.27523329262 674.421036301725  Z M 1271.38319127602 696.776929149614  C 1279.46274410238 690.906418953639  1287.61854555089 685.141572413829  1295.8485133306 679.483861376667  L 1294.14900678325 677.011680660073  C 1285.89753599712 682.684173990429  1277.72042532172 688.464082743772  1269.6197624885 694.349931228032  L 1271.38319127602 696.776929149614  Z M 1240.26770040485 720.201585323427  C 1248.1435057752 714.060432858011  1256.09909950488 708.022297276292  1264.13245041882 702.088720199295  L 1262.35007711884 699.675600761813  C 1254.29573691299 705.624680906301  1246.31935705297 711.678592742745  1238.42297402085 717.835790622234  L 1240.26770040485 720.201585323427  Z M 1209.96456124113 744.668053107712  C 1217.62755748713 738.26332420094  1225.3737900275 731.958846877263  1233.2012811401 725.756230758423  L 1231.33809183343 723.404949063791  C 1223.49014929308 729.623771187033  1215.72367763481 735.944720654964  1208.04065974818 742.366183640207  L 1209.96456124113 744.668053107712  Z M 1180.53132916724 770.171983173001  C 1187.96608457997 763.503664360286  1195.48752505459 756.932630493253  1203.09373026147 750.46055924936  L 1201.14959996183 748.175749108882  C 1193.52352149619 754.664730381244  1185.98242923349 761.252932843233  1178.52824852074 767.938674434023  L 1180.53132916724 770.171983173001  Z M 1151.98279736719 796.664805240058  C 1159.1871184436 789.748171545615  1166.4813741497 782.925826890804  1173.86370215932 776.199513116264  L 1171.84320054227 773.98195292193  C 1164.44158421333 780.725841001994  1157.12827030052 787.56601086885  1149.90512599583 794.500716130844  L 1151.98279736719 796.664805240058  Z M 1124.34919793906 824.110614968698  C 1131.31479560074 816.953624466355  1138.37347398379 809.887818611417  1145.52343090824 802.915001403597  L 1143.42888270308 800.767242614471  C 1136.26024459133 807.758278184396  1129.18312351075 814.842545359306  1122.19932634997 822.018235426067  L 1124.34919793906 824.110614968698  Z M 1097.66232528371 852.477834023315  C 1104.38118512036 845.088721334321  1111.19616467412 837.787583986153  1118.10552398477 830.576286061965  L 1115.93933911662 828.500799825685  C 1109.0119272447 835.73093920705  1102.1791417222 843.05115274207  1095.44272705546 850.459571477184  L 1097.66232528371 852.477834023315  Z M 1071.95288452625 881.733823922029  C 1078.41727601677 874.121090740547  1084.98071562766 866.593022371488  1091.64152762038 859.151540836694  L 1089.40619843737 857.150715146237  C 1082.72798328016 864.61163955486  1076.14739491635 872.159377029154  1069.66611346279 879.792000525494  L 1071.95288452625 881.733823922029  Z M 1047.25118824384 911.844095337278  C 1047.26777058329 911.82313660386  1047.28435357329 911.802178389341  1047.30093721788 911.781220688608  C 1053.48714823638 903.975299689354  1059.77466486346 896.250201541872  1066.1618905053 888.607887886165  L 1063.85998891097 886.684024832299  C 1057.45583621789 894.346591699978  1051.15166051913 902.092165531932  1044.94906275814 909.918779342085  C 1044.93220951819 909.940077708025  1044.91535695832 909.961376596281  1044.89850506316 909.982676026274  L 1047.25118824384 911.844095337278  Z M 1023.54670807728 942.754350911881  C 1029.50448109908 934.737207716  1035.55535010141 926.78966820283  1041.69808599864 918.913346720099  L 1039.33246331076 917.06839975647  C 1033.17541397722 924.963074173103  1027.11044560129 932.929132568236  1021.13879013263 940.964956832363  L 1023.54670807728 942.754350911881  Z M 1000.78817303883 974.367565910634  C 1006.50068495078 966.173857833192  1012.30835588125 958.046905245652  1018.21000614433 949.988358939108  L 1015.78965293556 948.215821113059  C 1009.87425099951 956.293144962904  1004.05304738106 964.439034490039  998.327224515039 972.65183505667  L 1000.78817303883 974.367565910634  Z M 978.996416071766 1006.65480190169  C 984.458437695591 998.292029383984  990.017594268317 989.993103055989  995.672756583562 981.75970864115  L 993.199888421854 980.061202516695  C 987.53154878514 988.313781895455  981.95943859775 996.632045885986  976.484689697359 1005.01430483674  L 978.996416071766 1006.65480190169  Z M 958.191385140059 1039.5865034609  C 963.397916593907 1031.06232170414  968.7034700106 1022.59901839278  974.106967697023 1014.1983126394  L 971.583848222026 1012.57539301265  C 966.16775962801 1020.99567358885  960.849843527603 1029.47869758415  955.631180125115 1038.02274188014  L 958.191385140059 1039.5865034609  Z M 938.392124968194 1073.13252522654  C 943.338400243429 1064.45473718443  948.385493851707 1055.83480411585  953.532380599687 1047.27447694888  L 950.961319450612 1045.7286294248  C 945.802439734523 1054.30890335488  940.743585690141 1062.9489220767  935.785784899669 1071.64693058223  L 938.392124968194 1073.13252522654  Z M 921.610930019822 1103.51855019712  C 925.654666982596 1095.95738075384  929.773838867819 1088.43679675469  933.967829069974 1080.95792396808  L 931.35117977138 1079.49056360056  C 926.45423132191 1088.22297658458  921.659070159712 1097.01208104319  916.966670304242 1105.85609168524  L 921.610930019822 1103.51855019712  Z M 1581.12315526654 535.137486515805  C 1590.53399857753 531.7899990135  1599.98347889047 528.552141417332  1609.46967677506 525.424571418697  L 1608.53032322494 522.575428581303  C 1599.02202116858 525.710286256759  1589.55052224097 528.955688515327  1580.11775034494 532.310976133086  L 1581.12315526654 535.137486515805  Z M 913.364518427383 1096.87592173668  L 917 1109  L 929.082702863549 1105.22928501327  L 913.364518427383 1096.87592173668  Z " fill-rule="nonzero" fill="#d9001b" stroke="none" />
  </g>
</svg>