<?xml version="1.0" encoding="utf-8"?>
<svg version="1.1" xmlns:xlink="http://www.w3.org/1999/xlink" width="402px" height="30px" viewBox="1506 1738  402 30" xmlns="http://www.w3.org/2000/svg">
  <g transform="matrix(0.838670567945428 0.544639035015027 -0.544639035015022 0.838670567945423 1230.14156889849 -646.888338378979 )">
    <path d="M 1360.07042758049 2126.91057528221  C 1355.51621714686 2135.82903714893  1351.08548437971 2144.81001588693  1346.77949865715 2153.8509385002  L 1349.4879889811 2155.14093081221  C 1353.78208889625 2146.12496384719  1358.20059151686 2137.16877529443  1362.74223096868 2128.27493104769  L 1360.07042758049 2126.91057528221  Z M 1378.45258552525 2092.45568761146  C 1373.58091261096 2101.20477886476  1368.83039168842 2110.02078265957  1364.20238375304 2118.90117326428  L 1366.86278170739 2120.28763737291  C 1371.47801495781 2111.43175930011  1376.21542302294 2102.64009031041  1381.0736486641 2093.91514916358  L 1378.45258552525 2092.45568761146  Z M 1398.06069463459 2058.68343461783  C 1392.87784893941 2067.25185951637  1387.81367314475 2075.89150623756  1382.86961810631 2084.59989957496  L 1385.47848891523 2086.08104544973  C 1390.40889688427 2077.39668988038  1395.45909404031 2068.78089116608  1400.62763353252 2060.23611768088  L 1398.06069463459 2058.68343461783  Z M 1418.86943935041 2025.63741884495  C 1413.38211232175 2034.01411490142  1408.01081989057 2042.46625010887  1402.75710089963 2050.99140298176  L 1405.31107631277 2052.56531835085  C 1410.55029346927 2044.06369744757  1415.90675952813 2035.6348926592  1421.37893989434 2027.28131878716  L 1418.86943935041 2025.63741884495  Z M 1440.90064689032 1993.3876117633  C 1435.94323260541 2000.33954764438  1431.07786715361 2007.35666589642  1426.3058238935 2014.43713000623  C 1425.48109974546 2015.66276719461  1424.65887536609 2016.89008461224  1423.83915588224 2018.11907460636  L 1426.33493852337 2019.78372742549  C 1427.15218935601 2018.55843863366  1427.9719369116 2017.33481696046  1428.79417608093 2016.11287003229  C 1433.55125461946 2009.05462719937  1438.40135842 2002.05952880927  1443.3432182289 1995.12940545256  L 1440.90064689032 1993.3876117633  Z M 1464.21343391934 1962.05033739002  C 1458.07462783992 1969.96419917133  1452.05881574583 1977.9727068578  1446.16816393386 1986.07297658198  L 1448.59443679114 1987.83740284058  C 1454.46686205013 1979.76219655588  1460.46406032674 1971.77846838348  1466.58387202697 1963.88909326775  L 1464.21343391934 1962.05033739002  Z M 1488.76942548931 1931.67742047012  C 1482.31686666656 1939.33761844493  1475.98339013586 1947.0973391584  1469.77127658515 1954.95378833136  L 1472.12451790081 1956.81450198753  C 1478.31741024811 1948.982361837  1484.6312900603 1941.2466508537  1491.0638837062 1933.61015467092  L 1488.76942548931 1931.67742047012  Z M 1514.52877304022 1902.31814905616  C 1507.77293244929 1909.71225253692  1501.13206921477 1917.21059408799  1494.60857471471 1924.81047355295  L 1496.8849657353 1926.764455109  C 1503.38827557297 1919.18809080162  1510.00859098878 1911.71295023473  1516.74352800396 1904.34172521004  L 1514.52877304022 1902.31814905616  Z M 1541.44967525022 1874.02016629402  C 1534.40151602075 1881.13617640154  1527.46404263104 1888.3609707573  1520.6397532686 1895.69194770938  L 1522.83559995048 1897.73602631591  C 1529.6387739465 1890.42773249703  1536.55478176155 1883.22529272974  1543.58113293792 1876.13130061602  L 1541.44967525022 1874.02016629402  Z M 1569.5091510746 1846.84884565089  C 1562.52459996641 1853.34141816392  1555.6362143479 1859.93668098943  1548.84624289368 1866.63248114107  C 1548.50476780674 1866.96988838667  1548.16354335058 1867.30754919063  1547.82256980762 1867.64546327348  L 1549.93430881156 1869.7763218749  C 1550.27387538418 1869.43980213804  1550.61369157576 1869.10353437396  1550.95375710607 1868.76751885998  C 1557.72237681438 1862.09279485545  1564.58909581641 1855.51828678333  1571.55167274415 1849.04614063095  L 1569.5091510746 1846.84884565089  Z M 1598.64612059034 1820.83831294497  C 1591.04161915968 1827.35641898622  1583.53857242602 1833.99196570289  1576.13968224017 1840.74256363136  L 1578.16168805998 1842.95875235633  C 1585.53768497898 1836.22904178203  1593.01751616991 1829.61402643398  1600.59848814195 1823.11608838241  L 1598.64612059034 1820.83831294497  Z M 1628.80703255705 1796.02238673731  C 1620.94618219069 1802.22893004997  1613.18197423703 1808.5569048736  1605.51720459111 1815.00403250141  L 1607.44831198672 1817.29986007042  C 1615.08936569518 1810.87268081454  1622.82955003447 1804.56428568633  1630.66607776046 1798.37694634193  L 1628.80703255705 1796.02238673731  Z M 1659.94294295601 1772.4413374003  C 1651.83849995284 1778.32624623414  1643.82573025029 1784.33638035992  1635.90751925059 1790.46957552545  L 1637.74459449194 1792.84131635396  C 1645.63830536892 1786.72709820662  1653.6262823701 1780.73556032985  1661.70564902103 1774.86886027935  L 1659.94294295601 1772.4413374003  Z M 1692.00332557694 1750.13343139353  C 1683.66844152901 1755.68715593493  1675.42011290554 1761.36969633825  1667.26130993366 1767.17900631795  L 1669.00137188261 1769.62281163217  C 1677.13493030443 1763.83147652171  1685.35773737216 1758.1665187437  1693.666832049 1752.62997825218  L 1692.00332557694 1750.13343139353  Z M 1724.91567650945 1729.10977244857  C 1716.37985469947 1734.34613958338  1707.91681124813 1739.70022844017  1699.52897076605 1745.17050510496  L 1701.16776274002 1747.68334430914  C 1709.53245027571 1742.2281672427  1717.97213319798 1736.88885727121  1726.48439358889 1731.66694407455  L 1724.91567650945 1729.10977244857  Z M 1758.56455664206 1709.29069373812  C 1749.84612463315 1714.21702483218  1741.196194761 1719.2636162712  1732.61724517804 1724.42902223737  L 1734.16470362637 1726.99911413275  C 1742.7199727447 1721.84796623071  1751.34602622544 1716.81530489219  1760.04039275654 1711.90257194417  L 1758.56455664206 1709.29069373812  Z M 1792.90373033397 1690.69327011906  C 1784.01394428402 1695.30320490477  1775.18829570749 1700.0357833932  1766.42931309915 1704.88964972932  L 1767.88344013545 1707.51367613206  C 1776.61824533423 1702.67320791757  1785.41953248318 1697.95369276009  1794.28478006697 1693.35648277204  L 1792.90373033397 1690.69327011906  Z M 1827.88886310387 1673.34151227778  C 1818.83920040188 1677.62909897919  1809.84922770355 1682.04155439876  1800.92152058163 1686.57761439475  L 1802.28043881747 1689.25218748747  C 1811.18350279974 1684.72864837265  1820.1486604868 1680.32837264867  1829.1733434153 1676.05262096788  L 1827.88886310387 1673.34151227778  Z M 1863.4747864882 1657.25782265151  C 1854.27693093601 1661.21752566857  1845.13424085351 1665.30416120418  1836.04933556594 1669.51655846207  L 1837.31129053466 1672.23822516777  C 1846.37111876866 1668.03745538517  1855.48857229428 1663.96210018491  1864.66103901642 1660.01332713151  L 1863.4747864882 1657.25782265151  Z M 1342.93795356235 2162.00361375322  C 1338.70708544094 2171.07993182175  1334.60186124173 2180.21429037725  1330.62345708658 2189.40407248132  L 1333.37654291342 2190.59592751868  C 1337.34396548417 2181.43151195953  1341.43785803777 2172.3223669634  1345.65704769879 2163.27110224515  L 1342.93795356235 2162.00361375322  Z M 1870.15760827591 1665.69449624355  L 1875 1654  L 1863.25213045751 1649.28857121326  L 1870.15760827591 1665.69449624355  Z " fill-rule="nonzero" fill="#d9001b" stroke="none" />
  </g>
</svg>