<?xml version="1.0" encoding="utf-8"?>
<svg version="1.1" xmlns:xlink="http://www.w3.org/1999/xlink" width="626px" height="18px" viewBox="1840 1414  626 18" xmlns="http://www.w3.org/2000/svg">
  <g transform="matrix(0.25881904510251 0.965925826289045 -0.965925826289071 0.258819045102515 2970.27504670364 -1024.93780518119 )">
    <path d="M 2089.96705787477 1653.40570098457  C 2087.69100888958 1663.14506067323  2085.4322347125 1672.88844933657  2083.19074600005 1682.63582100692  L 2086.11443820996 1683.30814820535  C 2088.35513199546 1673.56423336628  2090.61310511528 1663.82430012238  2092.888346917 1654.08839442363  L 2089.96705787477 1653.40570098457  Z M 2098.93118913342 1615.44280845268  C 2096.61025466986 1625.17156938837  2094.30657625253 1634.9044389127  2092.02016474982 1644.6413711076  L 2094.94072567325 1645.32717274985  C 2097.2263263175 1635.59369368395  2099.52918775262 1625.86427584853  2101.84929911441 1616.13896514397  L 2098.93118913342 1615.44280845268  Z M 2108.07027779003 1577.52165449955  C 2105.70450719807 1587.23960981987  2103.35597352263 1596.96175325927  2101.02468784556 1606.68803894258  L 2103.94205538309 1607.38730044655  C 2106.27251428741 1597.66446411654  2108.62021507307 1587.94576856212  2110.98514666246 1578.23125964081  L 2108.07027779003 1577.52165449955  Z M 2117.38412952157 1539.64304543674  C 2114.9735731036 1549.34998851289  2112.58023410779 1559.06119914181  2110.20412382552 1568.77663150761  L 2113.11823594562 1569.48933800502  C 2115.49350355844 1559.77735114348  2117.88599377459 1550.06958452231  2120.29569530705 1540.36608393974  L 2117.38412952157 1539.64304543674  Z M 2126.87254628908 1501.80778667118  C 2124.4172553007 1511.50351110468  2121.97916187309 1521.20358243774  2119.55827750878 1530.90795490702  L 2122.46907224915 1531.6340912437  C 2124.88909806522 1521.93316035637  2127.32632684134 1512.23652908059  2129.78074707944 1502.54424316208  L 2126.87254628908 1501.80778667118  Z M 2136.53532634184 1464.01668268807  C 2134.03535298951 1473.70098232024  2131.5525569709 1483.38970810633  2129.08694999944 1493.08281433654  L 2131.9943654683 1493.82236507278  C 2134.45909803098 1484.13269642902  2136.94101354467 1474.44740667659  2139.44010030045 1464.7665415077  L 2136.53532634184 1464.01668268807  Z M 2146.37226422167 1426.27053703373  C 2143.82766166193 1435.94320594881  2141.30021584363 1445.62038017809  2138.78993869083 1455.30201406623  L 2141.69391306825 1456.05496347706  C 2144.20329997001 1446.37676310808  2146.72984944935 1436.70302081324  2149.27354958478 1427.03378223795  L 2146.37226422167 1426.27053703373  Z M 2156.38110498557 1388.57107500139  C 2156.23682317469 1389.11146951844  2156.09264302884 1389.65189116556  2155.94856455132 1390.19233993032  C 2153.50611338987 1399.31294230248  2151.0789342273 1408.4376275898  2148.66703726982 1417.56635742332  L 2151.56750880906 1418.33268949891  C 2153.97869400618 1409.20665358977  2156.40515780844 1400.08466127425  2158.8468900113 1390.96675091501  C 2158.99101615104 1390.42612254403  2159.13524409475 1389.88552132854  2159.27957383994 1389.34494727782  L 2156.38110498557 1388.57107500139  Z M 2166.60956557731 1350.92280067686  C 2163.9446742758 1360.56468045745  2161.31223124307 1370.21549914854  2158.71228117838 1379.87509287775  L 2161.6091818833 1380.6548148191  C 2164.20738299803 1371.00171896316  2166.83805522356 1361.35739224137  2169.50115389005 1351.72199841812  L 2166.60956557731 1350.92280067686  Z M 2177.16697241896 1313.36544285618  C 2174.41783834838 1322.98364191876  2171.70107310942 1332.61106340006  2169.0167228337 1342.24754382306  L 2171.9066918856 1343.05257728764  C 2174.58923643661 1333.42257918959  2177.30417414582 1323.80163393926  2180.05145891254 1314.18990490401  L 2177.16697241896 1313.36544285618  Z M 2188.05251760962 1275.90187559953  C 2185.21935114615 1285.495657916  2182.4184716004 1295.09894545269  2179.64992653229 1304.7115751424  L 2182.53274277755 1305.54185852538  C 2185.2994254843 1295.93569511657  2188.09842091779 1286.33886757628  2190.92968155 1276.75153886235  L 2188.05251760962 1275.90187559953  Z M 2199.26536813775 1238.53496578985  C 2196.34838608821 1248.10359720026  2193.46360657174 1257.68201590501  2190.61107857292 1267.27005925918  L 2193.48652140531 1268.12552902349  C 2196.33713054864 1258.54393541134  2199.21996951452 1248.97195997407  2202.13498935123 1239.40976524754  L 2199.26536813775 1238.53496578985  Z M 2210.80466594494 1201.26757291339  C 2207.80409153008 1210.81032118244  2204.83563279937 1220.363138071  2201.89934015828 1229.92586136886  L 2204.76718953581 1230.80645205006  C 2207.70150697401 1221.25016146208  2210.66796886449 1211.7037706184  2213.66652483501 1202.16744162232  L 2210.80466594494 1201.26757291339  Z M 2222.66952799151 1164.10254884093  C 2219.58559082897 1173.61868371403  2216.53368004401 1183.14516776129  2213.51384745915 1192.68183921967  L 2216.37388392091 1193.58748343094  C 2219.39168510693 1184.05722715711  2222.44154291424 1174.53715144226  2225.5234055557 1165.02741793903  L 2222.66952799151 1164.10254884093  Z M 2234.85904632414 1127.04273760949  C 2231.69198241084 1136.53153086863  2228.55685311776 1146.03095306462  2225.45371168048 1155.54084289395  L 2228.30571636345 1156.47147133127  C 2231.40677036108 1146.96797867119  2234.53979069681 1137.47494660284  2237.70472417072 1127.99253632158  L 2234.85904632414 1127.04273760949  Z M 2247.59802176583 1090.15347940494  C 2244.25788585981 1099.58557388967  2240.97450239227 1109.03766983078  2237.74804947608 1118.50925448274  L 2240.58780855378 1119.47660570159  C 2243.81038319903 1110.01640611319  2247.08981996377 1100.57567180984  2250.42594094926 1091.15491492058  L 2247.59802176583 1090.15347940494  Z M 2260.9115559315 1053.47175765598  C 2257.42435693907 1062.85047598137  2253.993590724 1072.25008064605  2250.61944339421 1081.670061752  L 2253.44373075903 1082.68169453166  C 2256.81382228576 1073.2730364607  2260.24046464061 1063.88473033789  2263.72347193926 1054.51728544868  L 2260.9115559315 1053.47175765598  Z M 2274.79650165818 1017.0021467088  C 2274.37519453836 1018.08250590309  2273.95507056356 1019.1633261154  2273.53613048989 1020.24460540059  C 2270.33525297547 1028.49176573023  2267.17824718485 1036.75588643258  2264.06524698466 1045.03661708384  L 2266.87337218291 1046.0922841104  C 2269.98273300872 1037.8212343705  2273.13604942729 1029.5667757095  2276.33318771926 1021.32925816555  C 2276.75144120201 1020.24974919727  2277.17087694501 1019.17069866477  2277.5914941929 1018.09210851129  L 2274.79650165818 1017.0021467088  Z M 2289.42484023085 980.810826151998  C 2285.56011704949 990.044164470751  2281.78275462532 999.313826302186  2278.09325915251 1008.6185694439  L 2280.88202536265 1009.72436464429  C 2284.56455277779 1000.43719463346  2288.33478119692 991.185039677656  2292.19220538192 981.969139633149  L 2289.42484023085 980.810826151998  Z M 2304.93808385588 944.989893092232  C 2300.84763865342 954.125476260414  2296.84363525846 963.299518671795  2292.9266102367 972.510790937667  L 2295.68736187231 973.684780037479  C 2299.59698911937 964.490904371448  2303.59343047046 955.334188246881  2307.67615037328 946.21585873054  L 2304.93808385588 944.989893092232  Z M 2321.41361937718 909.587615084598  C 2318.03586829181 916.502487629795  2314.7426151335 923.458316616209  2311.53459528678 930.453548804927  C 2310.56603327936 932.559723970196  2309.60208307614 934.668016898136  2308.64275160599 936.778412434377  L 2311.37382141103 938.019886445374  C 2312.33155760728 935.913000289404  2313.29390589875 933.808213720256  2314.26085936467 931.705541874591  C 2317.45891302806 924.732010784127  2320.74194137094 917.797763180675  2324.10921119202 910.904347695181  L 2321.41361937718 909.587615084598  Z M 2339.27792682469 874.853131763501  C 2334.5140235264 883.663767146782  2329.89033724128 892.549499825544  2325.40861680566 901.506968911709  L 2328.09154055179 902.849325113503  C 2332.55904952833 893.920260009053  2337.16807418308 885.062703837085  2341.91687122526 876.280006828351  L 2339.27792682469 874.853131763501  Z M 2358.67560347427 840.928427787324  C 2355.33228753497 846.362439800246  2352.08919419157 851.857480993961  2348.94796862434 857.410763803466  C 2347.14799128252 860.578282019374  2345.3663254987 863.756171027135  2343.60306044109 866.944271780845  L 2346.22828991673 868.396225705827  C 2347.98644180118 865.217369909991  2349.76294603958 862.048699024615  2351.55771367362 858.890371720594  C 2354.68128349464 853.368228281585  2357.90616559863 847.904008189219  2361.23072353474 842.50048423561  L 2358.67560347427 840.928427787324  Z M 2380.40350313834 808.417118127543  C 2374.52116463502 816.540610733961  2368.87491846219 824.832473005472  2363.47184102495 833.282312802854  L 2365.99930961299 834.898450957991  C 2371.37123699871 826.497326535894  2376.98493119329 818.25326886091  2382.83335658884 810.176610159091  L 2380.40350313834 808.417118127543  Z M 2081.17807461698 1691.40952489619  C 2078.94695950573 1701.15927625003  2076.73313759628 1710.91297688283  2074.53661933482 1720.67058077049  L 2077.46338066518 1721.32941922951  C 2079.65911994842 1711.57527580062  2081.87215674202 1701.82503424691  2084.10248060554 1692.078740567  L 2081.17807461698 1691.40952489619  Z M 2388.61604940475 814.553819511265  L 2387 802  L 2374.46501992841 803.75621029627  L 2388.61604940475 814.553819511265  Z " fill-rule="nonzero" fill="#d9001b" stroke="none" />
  </g>
</svg>