<?xml version="1.0" encoding="utf-8"?>
<svg version="1.1" xmlns:xlink="http://www.w3.org/1999/xlink" width="12px" height="234px" preserveAspectRatio="xMidYMin meet" viewBox="52 90  10 234" xmlns="http://www.w3.org/2000/svg">
  <path d="M 57.5 326  L 57.5 336.5  L 410.158536585366 336.5  L 410.158536585366 988.304878048781  L 668.5 988.304878048781  L 668.5 964  A 3 3 0 0 0 671.5 961 A 3 3 0 0 0 668.5 958 L 668.5 863  A 3 3 0 0 0 671.5 860 A 3 3 0 0 0 668.5 857 L 668.5 743  A 3 3 0 0 0 671.5 740 A 3 3 0 0 0 668.5 737 L 668.5 96.5  L 57.5 96.5  L 57.5 325  " stroke-width="3" stroke-dasharray="27,12" stroke="#d9001b" fill="none" />
</svg>