<?xml version="1.0" encoding="utf-8"?>
<svg version="1.1" xmlns:xlink="http://www.w3.org/1999/xlink" width="36px" height="12px" preserveAspectRatio="xMinYMid meet" viewBox="1233 91  36 10" xmlns="http://www.w3.org/2000/svg">
  <path d="M 1233 96.5  L 1263.5 96.5  L 1263.5 341.963414634146  L 1085.76829268293 341.963414634146  L 1085.76829268293 989.524390243903  L 690.646341463415 989.524390243903  L 690.646341463415 964  A 3 3 0 0 0 693.646341463415 961 A 3 3 0 0 0 690.646341463415 958 L 690.646341463415 863  A 3 3 0 0 0 693.646341463415 860 A 3 3 0 0 0 690.646341463415 857 L 690.646341463415 743  A 3 3 0 0 0 693.646341463415 740 A 3 3 0 0 0 690.646341463415 737 L 690.646341463415 96.8414634146341  L 1263.5 96.8414634146341  L 1263.5 90  " stroke-width="3" stroke-dasharray="27,12" stroke="#c280ff" fill="none" />
</svg>