<?xml version="1.0" encoding="utf-8"?>
<svg version="1.1" xmlns:xlink="http://www.w3.org/1999/xlink" width="366px" height="48px" viewBox="330 320  366 48" xmlns="http://www.w3.org/2000/svg">
  <g transform="matrix(-0.342020143325669 -0.939692620785909 0.939692620785908 -0.342020143325669 365.202071975716 943.717243767201 )">
    <path d="M 924.982625550622 84.5043131342078  C 926.979348419364 84.5569081608743  928.97585967059 84.6172514732369  930.972114206287 84.685341708236  L 931.040292546694 82.68650411756  C 929.03886688429 82.6182375006284  927.037183841288 82.5577378740721  925.03528863266 82.5050066044856  L 924.982625550622 84.5043131342078  Z M 916.994798123098 84.3352618202639  C 918.991958338913 84.3671918023447  920.988987128346 84.4068718450902  922.985839381695 84.4543010521914  L 923.033329959852 82.4548649704458  C 921.031305031459 82.4073129020385  919.029103109611 82.3675300715333  917.026769421001 82.3355173775637  L 916.994798123098 84.3352618202639  Z M 909.005649030648 84.2488781571099  C 911.003032726785 84.2601396753693  913.000365201751 84.2791521993436  914.997601338981 84.3059152995701  L 915.02439906934 82.3060948372166  C 913.021989262596 82.2792624094664  911.019482868648 82.2602006351745  909.016925120757 82.2489099449146  L 909.005649030648 84.2488781571099  Z M 901.016033794695 84.2451713951772  C 903.013427080474 84.2357632436707  905.010849355775 84.2341062129094  907.008255502006 84.2402003403232  L 907.01435751492 82.2402096489853  C 905.011777258833 82.2340997352554  903.009180831826 82.2357610584132  901.006613469504 82.2451935809319  L 901.016033794695 84.2451713951772  Z M 893.02680798658 84.3241419314057  C 895.023996970292 84.2940651176092  897.021295151116 84.2717387095564  899.018657413263 84.2571632115653  L 899.004063055296 82.2572164610953  C 897.001526796918 82.2718297156682  894.999054785948 82.2942139583719  892.996692254869 82.3243686835839  L 893.02680798658 84.3241419314057  Z M 885.038827135939 84.4857813092022  C 887.035597947754 84.4350390539042  889.032558152578 84.3920456593927  891.029662642254 84.3568020968202  L 890.994373476249 82.3571134523651  C 888.992095658131 82.3924483103734  886.989962498556 82.4355530755991  884.988019222664 82.4864267743714  L 885.038827135939 84.4857813092022  Z M 877.052946639095 84.7300722193453  C 879.049085453963 84.6586699563016  881.045493837454 84.5950141792973  883.042126693879 84.5391063262152  L 882.98614649879 82.5398899252826  C 880.984341535599 82.5959426028798  878.982761626905 82.6597632747312  876.981451985042 82.7313504992347  L 877.052946639095 84.7300722193453  Z M 869.070021667452 85.0569885018392  C 871.065314728 84.9649338771915  873.060957503919 84.8806225343003  875.056904916814 84.8040563776247  L 874.980239687305 82.8055263071518  C 872.979121943278 82.8822908019104  870.978309625293 82.9668205461302  868.977847928657 83.0591136304129  L 869.070021667452 85.0569885018392  Z M 861.090907075918 85.4664951487149  C 863.085140715342 85.3537980201718  865.079804179436 85.2488401399096  867.074852411925 85.15162387876  L 866.977510357725 83.153994152188  C 864.977294123302 83.2514622437533  862.97746365407 83.3566920084292  860.978064122846 83.4696810692518  L 861.090907075918 85.4664951487149  Z M 853.11645731137 85.9585483077791  C 855.109417976261 85.8252207435639  857.102888529249 85.6996275653834  859.096823940693 85.5817716102074  L 858.978815485717 83.5852561445638  C 856.979714954954 83.7034173955219  854.981080487066 83.8293359120843  852.982957227855 83.9630088499629  L 853.11645731137 85.9585483077791  Z M 845.147526321146 86.5330952873106  C 847.139000594569 86.3791515648552  849.131064764602 86.2329365379683  851.123673833686 86.0944535094148  L 850.985011614919 84.099266102406  C 848.987240862397 84.2381078594056  846.990016420371 84.3847016438242  844.993383403101 84.5390441443314  L 845.147526321146 86.5330952873106  Z M 837.184967461603 87.1900745617019  C 839.174742085639 87.0155311661388  841.165186551785 86.8487099480371  843.156255899067 86.6896146756231  L 842.996954765211 84.6959689827397  C 841.000727723009 84.8554763778553  839.005127180575 85.022729732066  837.010198215489 85.1977252673731  L 837.184967461603 87.1900745617019  Z M 829.230205818503 87.9292416440497  C 829.969164371338 87.8562700284653  830.708274033477 87.7848368327014  831.447530000442 87.7149425210991  C 832.69654336464 87.5959803834918  833.94584485317 87.4800629906551  835.195423331169 87.3671913757461  L 835.015500341055 85.3753008873837  C 833.762914544132 85.4884441466508  832.510606352109 85.6046399544928  831.258586922481 85.7238872756576  C 830.516797327673 85.7940220981551  829.77515449534 85.8657006011079  829.033663243643 85.938922318849  L 829.230205818503 87.9292416440497  Z M 821.289930983347 88.7732123617473  C 823.273393568768 88.5474101642718  825.258104350208 88.3327104088154  827.243970081174 88.1291231824895  L 827.040002878691 86.1395510223729  C 825.046713903203 86.3438992657902  823.054584194477 86.559401577412  821.063707347587 86.7860478324182  L 821.289930983347 88.7732123617473  Z M 813.363135589435 89.7355874514048  C 815.343007480455 89.4802097795175  817.324293118115 89.2359146855128  819.306899416847 89.0027136469624  L 819.07326313078 87.0164070025006  C 817.083245771388 87.2504797557449  815.094554009815 87.4956880344531  813.107281279458 87.7520203181657  L 813.363135589435 89.7355874514048  Z M 805.451585168165 90.8161525636727  C 807.427425388878 90.5312562975182  809.404844591892 90.2574202767035  811.383749873449 89.9946573666824  L 811.120496541499 88.0120586470174  C 809.134194033882 88.2758037751688  807.149383159737 88.5506634058516  805.166157170282 88.8366246254954  L 805.451585168165 90.8161525636727  Z M 797.557041855431 92.0146670247931  C 799.528410327825 91.7003156191898  801.50152266665 91.3969996629183  803.47628617034 91.1047334064925  L 803.183474426797 89.1262841949019  C 801.20132917915 89.4196429541355  799.220841268474 89.7240927174309  797.242103742885 90.0396191810015  L 797.557041855431 92.0146670247931  Z M 789.681263999142 93.3308638902053  C 791.647721641272 92.9871273604899  793.616087645476 92.6543990261888  795.586269533182 92.3326945196801  L 795.263964595867 90.3588354752236  C 793.286418090466 90.6817425258812  791.310694256398 91.015714611837  789.336885917949 91.3607360422741  L 789.681263999142 93.3308638902053  Z M 781.826005767583 94.7644500040027  C 783.787114591266 94.3914049104502  785.750295847618 94.0293383065444  787.715457301657 93.6782672030459  L 787.363730957398 91.7094379624172  C 785.391223652242 92.0618213835639  783.420703946819 92.4252414067349  781.452264420912 92.7996809575781  L 781.826005767583 94.7644500040027  Z M 773.993016758716 96.3151060642261  C 775.948339967109 95.9128354949943  777.905899217173 95.5215112644076  779.865602538061 95.1411517578206  L 779.4845331267 93.1777908374279  C 777.517504357413 93.5595721428705  775.552627673559 93.9523591588863  773.5899953898 94.356133431391  L 773.993016758716 96.3151060642261  Z M 766.184041610487 97.9824866939828  C 768.1331436954 97.5510802466001  770.084644932877 97.1305855488048  772.038453636843 96.7210223564174  L 771.628126033791 94.7635670547124  C 769.667013915736 95.174661210486  767.708217889559 95.596727734069  765.751829984086 96.0297467957876  L 766.184041610487 97.9824866939828  Z M 758.400819612248 99.7662205183715  C 760.343266451067 99.3057742797978  762.288275019058 98.8562027713695  764.235753935186 98.4175271150032  L 763.796259532516 96.4664134150818  C 761.841500863321 96.9067288583685  759.889221776435 97.3579808828628  757.939513994653 97.8201482876527  L 758.400819612248 99.7662205183715  Z M 750.645084317363 101.665910247199  C 752.580443269795 101.176526772414  754.518525957509 100.69797858619  756.459241324714 100.230288171873  L 755.990678010806 98.2859506443697  C 754.042708172922 98.7553893039238  752.097380855577 99.2357263221678  750.154787454957 99.7269391317065  L 750.645084317363 101.665910247199  Z M 742.918563157095 103.681132763468  C 744.846403161604 103.16292105261  746.777128300697 102.655502775427  748.710647864412 102.158901771613  L 748.213120002152 100.221773477907  C 746.272372865982 100.720230795878  744.334430600015 101.229545822634  742.399384253467 101.749694629324  L 742.918563157095 103.681132763468  Z M 735.225369929589 105.8132557185  C 736.119298861027 105.556853351571  737.014136627688 105.303630235695  737.909866260586 105.053591172794  C 738.936294512346 104.766971661161  739.963576808651 104.483419456377  740.991699394845 104.202938355024  L 740.465317798381 102.273450750788  C 739.433380085211 102.55497265314  738.402285757121 102.839576971346  737.372048618971 103.127259894966  C 736.471780838494 103.378565976879  735.572409415602 103.633072144  734.673951404219 103.89077357037  L 735.225369929589 105.8132557185  Z M 727.577894050703 108.091172371748  C 729.483914979194 107.502267054124  731.394399904571 106.927907966407  733.309182118922 106.368145226869  L 732.747995332564 104.448491770951  C 730.823452022606 105.011108045255  728.903227908184 105.588395076376  726.987490546998 106.180302490565  L 727.577894050703 108.091172371748  Z M 719.978327712491 110.524150601903  C 721.871977380419 109.896602844256  723.770385960037 109.283507520045  725.673387797208 108.684918127646  L 725.073275582262 106.777075018406  C 723.160572702991 107.378715874436  721.252486496611 107.994936609995  719.349183461676 108.625683454  L 719.978327712491 110.524150601903  Z M 712.429814614792 113.111183962949  C 714.31030967928 112.445253361905  716.195856601652 111.793675419312  718.086290850071 111.156506991521  L 717.447501453948 109.261263443213  C 715.547430229951 109.901680001207  713.652271246429 110.556579530207  711.762189873914 111.225904884041  L 712.429814614792 113.111183962949  Z M 704.935477338337 115.851202281141  C 706.802039898152 115.147164311093  708.673945172249 114.457373287271  710.551029819157 113.78188940048  L 709.873827488794 111.900029415319  C 707.987173919341 112.578956755235  706.105726125909 113.272264166489  704.229648282599 113.979891151458  L 704.935477338337 115.851202281141  Z M 697.498416053036 118.743072097705  C 699.350273970379 118.001217996857  701.207763248292 117.273499236501  703.070721803236 116.559979316995  L 702.355386675783 114.692281360838  C 700.482931209699 115.40943863194  698.615972901681 116.140867126145  696.754674661557 116.886503019377  L 697.498416053036 118.743072097705  Z M 690.121707235534 121.785597137713  C 691.958094455452 121.006233787605  693.800399352713 120.240888324912  695.648461168757 119.489627533276  L 694.895289155695 117.636864213599  C 693.037806368474 118.391954750648  691.186109847401 119.161201759  689.340361170567 119.944538114553  L 690.121707235534 121.785597137713  Z M 682.808402396574 124.977518804944  C 684.628559263851 124.160968603504  686.454917677288 123.358313037644  688.287318269807 122.569622146669  L 687.496620934537 120.732559892962  C 685.654879207951 121.525271338929  683.819210462034 122.332018648298  681.989774876233 123.152731424743  L 682.808402396574 124.977518804944  Z M 675.561526818682 128.317516702525  C 677.364700392085 127.464117430701  679.174356815082 126.624483794855  680.990338178001 125.798689060976  L 680.16244260696 123.978087807694  C 678.337203811239 124.808092242957  676.518322198438 125.652006127562  674.705956483238 126.509755822013  L 675.561526818682 128.317516702525  Z M 668.384078304702 131.804209179136  C 670.169522668449 130.914313861173  671.961728503473 130.038049485175  673.760539422833 129.175492513513  L 672.895788090192 127.372105385718  C 671.087807268789 128.239059463742  669.286465202828 129.119790823132  667.491919076498 130.01422261172  L 668.384078304702 131.804209179136  Z M 661.279025937702 135.43615390056  C 663.046002510022 134.510130657957  664.820016378298 133.59759802462  666.600912743007 132.698635627668  L 665.699663368997 130.913208629484  C 663.909688426301 131.816753718831  662.126631065326 132.733938222345  660.350646874747 133.664682106974  L 661.279025937702 135.43615390056  Z M 654.257810673801 139.219866900925  C 655.611845622333 138.468364069856  656.971242868399 137.726563746168  658.335897922538 136.994522948012  C 658.728382113682 136.784567241443  659.121223324804 136.575279619283  659.514419849263 136.366660990749  L 658.577045252198 134.599932696762  C 658.181503797579 134.809795476968  657.78632008349 135.020331820253  657.391495829761 135.231540810368  C 656.018087352436 135.968270932655  654.649971678076 136.714825610766  653.287254018289 137.47114743273  L 654.257810673801 139.219866900925  Z M 647.332684441854 143.175468202345  C 649.051738445199 142.165334832643  650.780066132978 141.171067086241  652.517447284144 140.192791651317  L 651.536164033235 138.450068729713  C 649.788074667472 139.434373689756  648.049094565405 140.434769528661  646.319445305424 141.451128777404  L 647.332684441854 143.175468202345  Z M 640.506860533921 147.300063086949  C 642.200570837112 146.247988232272  643.903941929114 145.211546303913  645.616756768782 144.190869363842  L 644.592941644607 142.472788285571  C 642.869570002902 143.499756089168  641.155700314674 144.54258604734  639.451550958781 145.601145284164  L 640.506860533921 147.300063086949  Z M 633.784462055977 151.591160113111  C 635.451805581489 150.497779274193  637.129191164619 149.419789221625  638.81640507526 148.357327311381  L 637.750676508401 146.664925875024  C 636.053063585067 147.733936187235  634.3653395654 148.818570348264  632.68771949678 149.918690155579  L 633.784462055977 151.591160113111  Z M 627.169549640364 156.046167264391  C 628.80951923739 154.912140892648  630.459906094986 153.793253870558  632.120499923184 152.689648765128  L 631.013501661837 151.023949257601  C 629.342672891774 152.134356347902  627.682114002191 153.260139543775  626.032036579157 154.401155399515  L 627.169549640364 156.046167264391  Z M 620.666118992986 160.662393515232  C 622.27772404581 159.488406613818  623.90011526966 158.329298480508  625.53308594173 157.185216807228  L 624.38548666285 155.547225386276  C 622.742451302104 156.698358518628  621.110060595195 157.864610725434  619.488522539042 159.045833404485  L 620.666118992986 160.662393515232  Z M 614.278098479726 165.437050456454  C 615.860365506096 164.223812166488  617.453781098614 163.025183075631  619.058142226508 161.841315911511  L 617.870635131897 160.232021997942  C 616.256385648046 161.423185835935  614.653149161535 162.629202584661  613.061129954496 163.849918575166  L 614.278098479726 165.437050456454  Z M 608.009346753529 170.367253979586  C 609.561319992695 169.115497151797  611.124797458875 167.878071129514  612.699579936005 166.655133583794  L 611.47288233359 165.075509263827  C 609.888393806239 166.305984290697  608.315279967386 167.551037092747  606.753741260975 168.810509027107  L 608.009346753529 170.367253979586  Z M 601.863650423609 175.450026018996  C 603.384392413618 174.160506771058  604.916987342467 172.885031278548  606.46123992907 171.623762060756  L 605.196092799616 170.074761498835  C 603.642322331409 171.343804452082  602.100281372032 172.627141239323  600.570166406167 173.924608339597  L 601.863650423609 175.450026018996  Z M 595.84472176816 180.682296350774  C 597.333313912165 179.355793610555  598.834100547096 178.043039092647  600.346890444865 176.744200066356  L 599.044057994386 175.22675892879  C 597.521944132872 176.533603249146  596.011907515367 177.854448828189  594.514140548604 179.18912736564  L 595.84472176816 180.682296350774  Z M 589.963058958304 186.065133233242  C 590.869430242332 185.212911278262  591.78076184087 184.365980241126  592.697007300182 183.524383292848  C 593.249667511053 183.018788959772  593.804076676552 182.515109717827  594.360224826671 182.01335462474  L 593.020494024818 180.528389514522  C 592.460421824302 181.033684873402  591.902102432916 181.540919674651  591.345545908784 182.05008478043  C 590.423078566845 182.897386113638  589.505561037851 183.75006062121  588.593040140825 184.608064792931  L 589.963058958304 186.065133233242  Z M 584.221581052343 191.599946860664  C 585.639650815021 190.198425468939  587.070783032472 188.810182654869  588.514790353142 187.435400155295  L 587.135723343014 185.986892584871  C 585.682694452465 187.370264165822  584.242621103542 188.767180155832  582.815691818289 190.177457682648  L 584.221581052343 191.599946860664  Z M 578.619756793686 197.276063086576  C 580.002474667148 195.839652509575  581.39858171108 194.416191004485  582.807895159152 193.005864918648  L 581.393173791156 191.592159344303  C 579.975055526402 193.011296573371  578.570226174013 194.443651286454  577.178869642193 195.889035971967  L 578.619756793686 197.276063086576  Z M 573.161062691508 203.089959295984  C 574.507570556831 201.619550974485  575.867785998976 200.161754182906  577.241530950233 198.716759763468  L 575.792033204751 197.338733535182  C 574.409705654301 198.792755691485  573.040992139816 200.25966020395  571.686071841523 201.739255038028  L 573.161062691508 203.089959295984  Z M 567.848886427969 209.038027367219  C 569.158348638273 207.534533841103  570.481828324799 206.043306476147  571.819152228941 204.564540491045  L 570.335777668685 203.223048816086  C 568.99009870922 204.711053529052  567.658350460408 206.211597475497  566.340707263302 207.724484217085  L 567.848886427969 209.038027367219  Z M 562.686524755818 215.116575911142  C 563.958128654876 213.580930253061  565.244051230256 212.057197774976  566.544124140005 210.545577950873  L 565.027793351737 209.241453363055  C 563.719598115713 210.762517172433  562.425641619589 212.29576931072  561.146093257044 213.841009057706  L 562.686524755818 215.116575911142  Z M 557.677181452409 221.321832562041  C 558.910137878978 219.754987798355  560.157705295742 218.199695840162  561.4197203819 216.656160292914  L 559.87137440512 215.390212135923  C 558.601474762483 216.94339106488  557.346113052375 218.50839985408  556.105453616002 220.085033625971  L 557.677181452409 221.321832562041  Z M 552.823965331432 227.649946318764  C 554.017509108996 226.052874838109  555.225947123026 224.466988618707  556.449121175184 222.892495271179  L 554.869720918115 221.665509196291  C 553.638904972437 223.249839337272  552.422917129658 224.845633528149  551.221916576468 226.452682861242  L 552.823965331432 227.649946318764  Z M 548.129888313573 234.096989934667  C 549.283278725237 232.470682884455  550.451837376219 230.855186609666  551.635411288845 229.250712597214  L 550.025936932089 228.06345007572  C 548.834968531494 229.677948188614  547.659109201788 231.30353742645  546.498512876382 232.940004981035  L 548.129888313573 234.096989934667  Z M 543.597863557307 240.658962354871  C 544.710384805473 239.004429026207  545.838338882354 237.360325277932  546.981578125877 235.726866342007  L 545.343028514116 234.580064192638  C 544.192646777216 236.223728315007  543.05764570246 237.878103754176  541.938173874447 239.542973933512  L 543.597863557307 240.658962354871  Z M 539.232141225575 247.332944636699  C 539.801735474897 246.438881740181  540.375084168204 245.54721629318  540.95217211955 244.657971912707  C 541.461534698247 243.875387258397  541.974318856231 243.095034946704  542.490509869297 242.316937384847  L 540.823901891403 241.211307316505  C 540.304238714034 241.994638759833  539.788006941578 242.780241198133  539.275221411307 243.568092052016  C 538.694836932293 244.462409203182  538.118214620581 245.35916227052  537.545369761691 246.258327482254  L 539.232141225575 247.332944636699  Z M 535.016261501662 254.106944923188  C 536.052343832908 252.40238709614  537.101887934982 250.706048231238  538.164795383292 249.018087408469  L 536.472382733689 247.952376648711  C 535.403857557663 249.649258760265  534.348766356462 251.354563193949  533.307208074851 253.06813002904  L 535.016261501662 254.106944923188  Z M 530.944139916443 260.968325799007  C 531.944053550757 259.242302419432  532.957599249671 257.524212351105  533.984681964505 255.814216713738  L 532.270176385709 254.784425171592  C 531.237665285713 256.503458557146  530.218762748074 258.230629154768  529.213564323882 259.965774993096  L 530.944139916443 260.968325799007  Z M 527.017586820863 267.914036886825  C 527.980887224699 266.167315296291  528.957983926513 264.428237839108  529.948785295715 262.696967603224  L 528.212949008777 261.703553095101  C 527.216911010256 263.443973520679  526.23465011166 265.192242430654  525.266258427881 266.948195875097  L 527.017586820863 267.914036886825  Z M 523.238347850205 274.940990318471  C 524.164606767252 273.17434706035  525.104820082187 271.415055359355  526.058899623288 269.663280199089  L 524.302504332294 268.706684369194  C 523.343382245776 270.467718092741  522.398199671856 272.236308083765  521.467045248243 274.012288486727  L 523.238347850205 274.940990318471  Z M 519.608103148026 282.046062107704  C 520.49690878957 280.260282581998  521.399820725181 278.481558768894  522.3167542812 276.710057474308  L 520.54058083019 275.790705598293  C 519.618801054437 277.57156971364  518.711117006821 279.359694520273  517.817613808499 281.154912330708  L 519.608103148026 282.046062107704  Z M 516.128466619214 289.226093539058  C 516.979423847224 287.421971653202  517.844632994198 285.624606498688  518.72401292222 283.834166629517  L 516.928850948053 282.95246742542  C 516.044823280478 284.752370210372  515.175041290012 286.55923488252  514.319586543421 288.372891996985  L 516.128466619214 289.226093539058  Z M 512.800985212494 296.47789257211  C 513.613715715261 294.656230388075  514.440837425922 292.841022950197  515.282272778306 291.032440485771  L 513.468920359602 290.188785932307  C 512.623037814089 292.006927200612  511.791544561431 293.831728456962  510.974518577736 295.663018574416  L 512.800985212494 296.47789257211  Z M 509.627138232689 303.798235260581  C 510.401280693057 301.959842638212  511.18994725229 300.12759990729  511.993063950509 298.301678892578  L 510.16232725285 297.496444054879  C 509.354965885034 299.332015511966  508.562131028743 301.173942097106  507.783897034763 303.022051077369  L 509.627138232689 303.798235260581  Z M 506.608336683073 311.183867185602  C 507.343546939026 309.329561422678  508.093407727837 307.481097962347  508.857848728742 305.638650150601  L 507.010541646272 304.872193013471  C 506.242060386354 306.724378615799  505.488236398551 308.582611660874  504.749140375272 310.446717886573  L 506.608336683073 311.183867185602  Z M 503.745922638073 318.631504902546  C 504.441873835779 316.762110371332  505.152595487092 314.898247956606  505.878020941683 313.040092448378  L 504.014964735274 312.312753757146  C 503.285705228449 314.180730074989  502.571227238118 316.054443461749  501.871597766886 317.933718203584  L 503.745922638073 318.631504902546  Z M 501.028424953452 326.137597611564  C 501.692873996793 324.255346006263  502.368381204886 322.377016301348  503.054911569099 320.502705842573  L 501.176926909849 319.814829676667  C 500.487700981115 321.696499350761  499.809541489363 323.58220405201  499.142483580689 325.471846052422  L 501.028424953452 326.137597611564  Z M 498.429751206367 333.687103596142  C 499.064616174111 331.794668627751  499.710599420118 329.905981752054  500.367667465852 328.021140851572  L 498.479131722127 327.362784758964  C 497.819483791504 329.255026221059  497.170964183507 331.151128759058  496.533606508124 333.050994106096  L 498.429751206367 333.687103596142  Z M 495.949727809359 341.27641382865  C 496.554852721516 339.37426044957  497.171153293793 337.475680434622  497.798597585983 335.580772179045  L 495.899974752182 334.952097911263  C 495.270066888589 336.854446256501  494.651346499147 338.760480777765  494.043845649481 340.670102693459  L 495.949727809359 341.27641382865  Z M 493.588964079446 348.903663691248  C 494.164200262859 346.992259241595  494.750666742503 345.084252549573  495.348333124342 343.179742498962  L 493.440089673163 342.580904515004  C 492.84007663868 344.492892355367  492.251307481223 346.408390566222  491.673812714173 348.327299875511  L 493.588964079446 348.903663691248  Z M 491.348040032735 356.566979244703  C 491.89324615761 354.646793337491  492.449734455654 352.72982874661  493.017476086473 350.816184820094  L 491.100080854302 350.247330248481  C 490.530110066147 352.168487827624  489.971436795386 354.092979109261  489.424089995658 356.020704355263  L 491.348040032735 356.566979244703  Z M 489.227506241917 364.264477688806  C 489.742548356545 362.335982094562  490.268921749365 360.410530583908  490.806599140707 358.488222944715  L 488.880523212431 357.949491547343  C 488.340734706744 359.879346856006  487.81229458313 361.812358380109  487.295230228375 363.748425939955  L 489.227506241917 364.264477688806  Z M 487.227883700997 371.994267824948  C 487.712635264667 370.05793635581  488.208764427569 368.124470989616  488.716245477461 366.193971929565  L 486.781962070729 365.685496067365  C 486.272488468163 367.623574959344  485.774411324165 369.564631804259  485.287756451938 371.508566005455  L 487.227883700997 371.994267824948  Z M 485.349663697293 379.754450520778  C 485.804005611381 377.810758914077  486.269768650377 375.869754725504  486.746928675785 373.931538548962  L 484.804913024741 373.453443149383  C 484.325879497879 375.399269458021  483.858287706085 377.347894725436  483.402161882634 379.299217962736  L 485.349663697293 379.754450520778  Z M 483.593307690731 387.543119176792  C 484.017128327959 385.592544978173  484.452410809715 383.644478852594  484.899132577179 381.699021759947  L 482.949861815702 381.251424286261  C 482.501386058305 383.204519941439  482.064394501354 385.160234873558  481.638909792247 387.118467726301  L 483.593307690731 387.543119176792  Z M 481.959247200466 395.358360194772  C 482.35244243233 393.401382640864  482.757137412281 391.4467331987  483.173311166718 389.494513169355  L 481.217264211195 389.077523591798  C 480.799456409285 391.037408737389  480.393172451645 392.999732834557  479.998433394232 394.964394184459  L 481.959247200466 395.358360194772  Z M 480.447883698866 403.198253447935  C 480.810356921218 401.235353348608  481.184364969843 399.274600827735  481.569888461512 397.316097502685  L 479.607545893175 396.929818271438  C 479.220508697961 398.896011383206  478.845032159549 400.864462521962  478.481135737279 402.83506967132  L 480.447883698866 403.198253447935  Z M 479.059340653429 411.061593731822  C 479.069235399205 411.003139033471  479.079137250648 410.944685541316  479.089046208587 410.886233250464  C 479.411563286829 408.976220253782  479.744972776885 407.068062485635  480.089258406529 405.161853074665  L 478.121102353378 404.806379094682  C 477.775503316973 406.719860456941  477.440820698588 408.635297393647  477.117070828954 410.55259644168  C 477.10717090245 410.610995769498  477.097278050606 410.669396290936  477.087392271839 410.727798015333  L 479.059340653429 411.061593731822  Z M 477.769019974383 418.945743517849  C 478.08083430294 416.972961419781  478.400726783504 415.001464618654  478.728689367898 413.03130271536  L 476.755836973 412.702892258851  C 476.426977726311 414.678440660416  476.106210647422 416.655327609497  475.793543806521 418.63350336955  L 477.769019974383 418.945743517849  Z M 476.564879099381 426.843514726009  C 476.855130065607 424.867444950278  477.153472738827 422.892572173285  477.459899613039 420.918946080857  L 475.483578298242 420.612100744116  C 475.176313641194 422.591122806042  474.877155287649 424.571394961038  474.58611076414 426.55286738739  L 476.564879099381 426.843514726009  Z M 475.447061648652 434.753965373737  C 475.715714633748 432.774843610037  475.992471915713 430.796830404102  476.277326531611 428.81997552077  L 474.29777201661 428.534731901841  C 474.012138597258 430.516991582309  473.734624650257 432.500412752299  473.465237157587 434.484945510873  L 475.447061648652 434.753965373737  Z M 474.415700946461 442.676151966166  C 474.662723907662 440.694214268207  474.917862788993 438.71329655482  475.181111171411 436.733448663919  L 473.198559561532 436.469840784364  C 472.93459144793 438.455101655398  472.678755007102 440.441435273875  472.431056675642 442.428791665581  L 474.415700946461 442.676151966166  Z M 473.470920005211 450.609129608662  C 473.696283479607 448.624612366016  473.92977352939 446.641026413094  474.171384280182 444.658421654941  L 472.186072038218 444.416480955784  C 471.943800714358 446.404506231453  471.709672293814 448.393515384533  471.483692667028 450.3834583735  L 473.470920005211 450.609129608662  Z M 472.612831510764 458.55195211952  C 472.816508618815 456.565092029426  473.028321988237 454.579074423132  473.248266290018 452.593949266859  L 471.26043020803 452.373704604841  C 471.03988457008 454.364257169544  470.827492094783 456.355704624128  470.623258125695 458.347996866029  L 472.612831510764 458.55195211952  Z M 471.841537809009 466.503672142818  C 472.023504257748 464.514706181952  472.213615683416 462.526493798476  472.411867303 460.539085013831  L 470.421744474073 460.34056265796  C 470.22295082695 462.333405094513  470.032319629344 464.327053326986  469.849855677349 466.32145719714  L 471.841537809009 466.503672142818  Z M 471.157130893647 474.463341261412  C 471.317364979582 472.47250665762  471.485751786537 470.482336634928  471.662287078067 468.49288126403  L 469.670114868027 468.316104892455  C 469.493096922234 470.310999510706  469.324249739283 472.306610734656  469.163577567207 474.302888356677  L 471.157130893647 474.463341261412  Z M 470.559692395227 482.430010110052  C 470.698175006926 480.437544314058  470.844817111344 478.445654023608  470.999615019111 476.454389352676  L 469.005631038222 476.299380049859  C 468.850409907033 478.29608891484  468.703366877471 480.293425109827  468.564505648996 482.291338383792  L 470.559692395227 482.430010110052  Z M 470.049293571402 490.402728488618  C 470.166008191771 488.408869145752  470.290888103368 486.415496164077  470.423930164322 484.422659695181  L 468.42837223894 484.289435949385  C 468.294966435877 486.287720909789  468.169745097819 488.286543849528  468.052711375192 490.28585448048  L 470.049293571402 490.402728488618  Z M 469.625995298434 498.380545475451  C 469.720928006699 496.385530397099  469.824030830793 494.390912477887  469.935301176754 492.396741900413  L 467.938407320961 492.285319601493  C 467.826832757603 494.284942317876  467.723448046429 496.285013599066  467.628255788496 498.285483125225  L 469.625995298434 498.380545475451  Z M 469.289848063934 506.362509540769  C 469.362987537282 504.366576676319  469.444300976605 502.370951721434  469.533786336138 500.375684884046  L 467.535794723357 500.286077321556  C 467.446064707413 502.286799295121  467.364528954029 504.287880365156  467.291189514552 506.289270186727  L 469.289848063934 506.362509540769  Z M 469.164801983635 510.025701134826  C 469.182378896566 509.469959168763  469.200589424506 508.914237423177  469.219433531933 508.358536981998  L 467.220582466517 508.290754843608  C 467.152707700266 510.292337444244  467.093030629592 512.29418963049  467.041552755912 514.296261037704  L 469.164801983635 510.025701134826  Z M 932.968275933328 84.7560139960101  C 934.964347635082 84.8292684351015  936.960127550846 84.9102685551917  938.955570599125 84.9990125266171  L 939.044429400875 83.0009874733829  C 937.043817327925 82.9120136182843  935.042867514951 82.8308036743094  933.041625160053 82.7573594758544  L 932.968275933328 84.7560139960101  Z M 460.597791340415 508.79116465995  L 468 516  L 475.79190172386 509.214259986877  L 460.597791340415 508.79116465995  Z " fill-rule="nonzero" fill="#aaaaaa" stroke="none" />
  </g>
</svg>