<?xml version="1.0" encoding="utf-8"?>
<svg version="1.1" xmlns:xlink="http://www.w3.org/1999/xlink" width="242px" height="34px" viewBox="514 234  242 34" xmlns="http://www.w3.org/2000/svg">
  <g transform="matrix(-0.798635510047293 -0.601815023152048 0.601815023152048 -0.798635510047293 991.077978068867 833.610052723421 )">
    <path d="M 723.198314280768 196.729237655543  C 725.067621624036 196.026355874516  726.939995614095 195.331656972534  728.815382477015 194.645160901108  L 728.127884742932 192.76703767149  C 726.247019153292 193.45553926212  724.369175238156 194.152267646975  722.494406928785 194.85720281617  L 723.198314280768 196.729237655543  Z M 715.737669445451 199.58431993751  C 717.598648146837 198.859674496984  719.462788766113 198.143175596046  721.330037765517 197.434843812409  L 720.620672458836 195.56487032017  C 718.747968506494 196.275271413548  716.878382015083 196.993863483509  715.011966678713 197.720625892247  L 715.737669445451 199.58431993751  Z M 708.310846260079 202.526260380273  C 710.163242943241 201.779949942318  712.018896384671 201.041748595409  713.877753290504 200.31167754049  L 713.146616992898 198.450108386705  C 711.282329650687 199.182312260134  709.421255131386 199.922670177282  707.563446884642 200.671160875234  L 708.310846260079 202.526260380273  Z M 700.918855903246 205.554658432058  C 702.762418360183 204.78678460853  704.609331972497 204.026981323376  706.459543697182 203.275270398002  L 705.706735954495 201.422359039477  C 703.851119049308 202.17626600176  701.998809891577 202.938288964708  700.149861679209 203.708406043191  L 700.918855903246 205.554658432058  Z M 693.562704810983 208.669101769694  C 695.397182036565 207.879769108322  697.235104358292 207.09846733386  699.076418991387 206.325218885146  L 698.302042300077 204.481217599909  C 696.455348478309 205.256725004926  694.612056878184 206.040309262543  692.772220438628 206.831947868393  L 693.562704810983 208.669101769694  Z M 686.24339453972 211.86916635475  C 688.068536765791 211.058482324932  689.897217559647 210.255788437168  691.729384402068 209.461107744611  L 690.933544195255 207.626267597562  C 689.096024888402 208.423269858245  687.26200181416 209.228308723781  685.431527645264 210.041361073631  L 686.24339453972 211.86916635475  Z M 678.961921629928 215.154416491273  C 680.777480359267 214.322491469464  682.596670646318 213.498514756947  684.419440244426 212.68251001811  L 683.602244877535 210.857080826843  C 681.774150267962 211.67546942955  679.949645425947 212.501853295161  678.128782750866 213.336208690115  L 678.961921629928 215.154416491273  Z M 671.719277470439 218.524404885106  C 673.525005510662 217.671352139759  675.334457604079 216.826204788761  677.147581783715 215.988987104517  L 676.309142519723 214.1732174053  C 674.490721506602 215.012880924592  672.675983307232 215.860497276266  670.864980040493 216.716042116968  L 671.719277470439 218.524404885106  Z M 664.516448163461 221.978672704788  C 666.312099660654 221.104608380943  668.111567199487 220.238405460168  669.914799099736 219.380088819577  L 669.055230094025 217.574225833517  C 667.246730259422 218.435049947338  665.442005783411 219.30378338019  663.641108497138 220.180401182308  L 664.516448163461 221.978672704788  Z M 657.359126368565 225.517483071188  C 658.918608306959 224.728190581674  660.483728643091 223.950088154334  662.054366722129 223.183235772937  C 662.276877404603 223.0738207572  662.499447514246 222.964526635747  662.722076952035 222.855353457203  L 661.84149523685 221.059643056587  C 661.619056366063 221.168722784752  661.396676549538 221.277922897097  661.174355885029 221.38724334562  C 659.595976902921 222.157890120942  658.023139995316 222.939836360143  656.455966282495 223.733021847476  L 657.359126368565 225.517483071188  Z M 650.280607687561 229.1976290712  C 652.040141394287 228.258321019855  653.807330055476 227.333423272953  655.581996267277 226.42302867877  L 654.669117370913 224.643519723868  C 652.884745823387 225.558893105116  651.107892719897 226.488848954249  649.338736434441 227.433293915243  L 650.280607687561 229.1976290712  Z M 643.284051723064 233.031309539677  C 645.02267676515 232.05384268934  646.769269285233 231.090615730026  648.523653947125 230.141725357752  L 647.572174224661 228.382553297452  C 645.808195143265 229.336632983388  644.052050817514 230.30512766063  642.303917542498 231.287940104334  L 643.284051723064 233.031309539677  Z M 636.372788158896 237.016700015569  C 638.089677118999 236.001539545912  639.814842288916 235.000441777028  641.5481104835 234.013507206696  L 640.558482747242 232.275509236723  C 638.81573561538 233.26784117771  637.081135822183 234.274413773283  635.35485749994 235.295125976047  L 636.372788158896 237.016700015569  Z M 629.55010608795 241.15190383854  C 631.244441893008 240.099532867743  632.947358701023 239.061040714987  634.658685560308 238.036531631978  L 633.631380777326 236.32053487124  C 631.910694974047 237.350646813269  630.198465215109 238.394818295988  628.494863387127 239.452944497543  L 629.55010608795 241.15190383854  Z M 622.819252446894 245.43495305159  C 624.490228756956 244.345872406441  626.170086779423 243.270480091603  627.858657877359 242.208884063144  L 626.794164945353 240.515705160101  C 625.096359350647 241.583106869534  623.4073144817 242.664380314783  621.727199897652 243.759416949415  L 622.819252446894 245.43495305159  Z M 616.183430470949 249.863809337618  C 617.830252062945 248.738537315145  619.486251849926 247.626756620952  621.151263590026 246.528578864049  L 620.050089104657 244.859023608069  C 618.375971709749 245.96320710495  616.71091555276 247.081067931166  615.055087784659 248.212493867365  L 616.183430470949 249.863809337618  Z M 609.645798169455 254.436364989459  C 611.267681315624 253.275437110283  612.899034771393 252.127797136812  614.539694769145 250.993560277839  L 613.402362782946 249.348423215717  C 611.752730305769 250.488863015514  610.112455266398 251.642779229081  608.481702328086 252.810056017552  L 609.645798169455 254.436364989459  Z M 603.214874027828 259.148841887447  C 604.183893688776 258.414761398373  605.160024273363 257.690115185555  606.143127509823 256.975005897259  C 606.769656915863 256.515237859242  607.39765023008 256.057468036457  608.027097881902 255.601703405281  L 606.854149654877 253.981767463116  C 606.222390615484 254.439205702416  605.592088642939 254.898652902252  604.963253308622 255.360102085742  C 603.970819714079 256.082031883028  602.985417226338 256.813578166143  602.007185112672 257.554637545397  L 603.214874027828 259.148841887447  Z M 596.975634791933 264.087027003274  C 598.509065736791 262.819564724056  600.062556661046 261.576569337005  601.635518281114 260.358512345858  L 600.410995746091 258.777201319772  C 598.82126865818 260.008241015045  597.2512197952 261.264484913004  595.701444721619 262.545456484383  L 596.975634791933 264.087027003274  Z M 590.951361671314 269.285287467034  C 592.429679316393 267.953954288544  593.929076189513 266.646215552853  595.448983526525 265.36256732269  L 594.158521588947 263.834592196039  C 592.622414265077 265.131922236897  591.107036016607 266.453599552807  589.612961669892 267.799122793725  L 590.951361671314 269.285287467034  Z M 585.152887397895 274.734275866857  C 586.57343346087 273.341465766783  588.016040096273 271.971335233061  589.48016008212 270.624403995415  L 588.126079225796 269.152512343648  C 586.646353864572 270.513799896197  585.188371154609 271.898534015351  583.752684150475 273.306189431827  L 585.152887397895 274.734275866857  Z M 579.590638676461 280.424193936725  C 580.950858758755 278.97241143937  582.334081088969 277.54235284996  583.739780971283 276.134560630646  L 582.324516078337 274.72139918099  C 580.903833493415 276.144196404161  579.505868038383 277.589497324338  578.131150001562 279.056753697505  L 579.590638676461 280.424193936725  Z M 574.27461743556 286.344810175529  C 575.57206561561 284.836665848227  576.893416356878 283.349250706943  578.238168433199 281.883128970824  L 576.764264405707 280.531238842987  C 575.405179241151 282.012987290214  574.069744835623 283.51625609912  572.758467757612 285.040475036825  L 574.27461743556 286.344810175529  Z M 569.214382842222 292.485478245153  C 570.446726073697 290.923684003991  571.703829198557 289.381586952103  572.985215361595 287.859772051051  L 571.455322545399 286.571584187829  C 570.160278681985 288.109619407584  568.889776678389 289.668152956199  567.644298472383 291.246593637295  L 569.214382842222 292.485478245153  Z M 564.506687083707 298.866089658295  C 565.624138876636 297.229530057147  566.786681170238 295.6242183031  567.992978122268 294.051999011412  L 566.406218146921 292.834545611632  C 565.177452810115 294.436048926576  563.993257102295 296.071261081281  562.854991746992 297.738303102835  L 564.506687083707 298.866089658295  Z M 560.28270732757 305.570853858417  C 561.276421142595 303.856339731482  562.317407172368 302.169662969943  563.404469251275 300.512761683133  L 561.732244098645 299.415645901226  C 560.624934493601 301.103408490956  559.564559146277 302.821501150883  558.552336501966 304.567949672615  L 560.28270732757 305.570853858417  Z M 556.564701200839 312.568874893043  C 557.429264915084 310.785744100969  558.343025096665 309.026888580281  559.304931771351 307.294329378746  L 557.556348981119 306.323526501894  C 556.576525914246 308.088356204257  555.645746112979 309.879972018781  554.765079108277 311.696315253841  L 556.564701200839 312.568874893043  Z M 553.372918302249 319.822039022425  C 554.103623190741 317.9800031369  554.885180857503 316.158548216889  555.716693238218 314.359767241244  L 553.901276221227 313.520564611113  C 553.054276161391 315.352849528738  552.258161267778 317.20823071369  551.513846331972 319.084576203478  L 553.372918302249 319.822039022425  Z M 550.724742229554 327.290842905744  C 551.317608610635 325.399934316782  551.962707118396 323.525800296123  552.65929648962 321.670594354583  L 550.786932659951 320.96756257056  C 550.077368674146 322.857323420709  549.420254616261 324.766364902775  548.816345556221 326.692493394831  L 550.724742229554 327.290842905744  Z M 548.673617240106 334.929547250304  C 548.890509985358 333.940686110004  549.123445074878 332.955411951839  549.372330398463 331.974114385632  C 549.618821918688 331.041626212734  549.877866366793 330.112501529119  550.149393207999 329.186993324595  L 548.23028013256 328.623961350655  C 547.952754728542 329.569915854606  547.68803093316 330.519579163763  547.436181318944 331.472690933306  C 547.181044737401 332.478192157482  546.942304776769 333.487782865477  546.720056454874 334.50106124306  L 548.673617240106 334.929547250304  Z M 547.306823509161 342.723612514545  C 547.5658813352 340.761634629262  547.8871501362 338.808373954866  548.270144626188 336.866780949056  L 546.307955370353 336.479723686773  C 545.916770345038 338.462838663581  545.588631044506 340.457870828104  545.324033132822 342.46180662558  L 547.306823509161 342.723612514545  Z M 546.603801841406 350.605321655389  C 546.696074482282 348.628467098442  546.851072327632 346.655039478141  547.068561248654 344.688019714944  L 545.080675510598 344.468223690332  C 544.858535476473 346.47730918889  544.700222922005 348.49293957989  544.605976982963 350.51207019435  L 546.603801841406 350.605321655389  Z M 546.569585279833 358.5182482741  C 546.494412141157 356.540669659026  546.482029376839 354.561203172375  546.532455691409 352.582838856488  L 544.533105058634 352.531877623951  C 544.481600351236 354.552550284325  544.494247927376 356.574348685962  544.571028682517 358.594218842904  L 546.569585279833 358.5182482741  Z M 547.204418786202 366.405742481095  C 546.962338044328 364.441597605077  546.782663320505 362.470263564828  546.665666018685 360.494718118389  L 544.669164157681 360.612956517428  C 544.788663507334 362.630750025374  544.972180668089 364.64424206403  545.219438431879 366.65039119446  L 547.204418786202 366.405742481095  Z M 548.50626346422 374.209966067015  C 548.435213284414 373.873499353387  548.365412931872 373.536769931214  548.296863850675 373.199784767005  C 547.978130767944 371.596389427267  547.701493941682 369.984912450916  547.467238556741 368.367015109257  L 545.487878739193 368.653606652526  C 545.727356863387 370.307575122102  546.010199871529 371.954973985573  546.336115661449 373.594101914747  C 546.405936311285 373.937393511173  546.477037061858 374.280423510039  546.549416429667 374.623184754108  L 548.50626346422 374.209966067015  Z M 550.36857731826 381.93025676  C 549.847919101731 380.01394897469  549.368417160647 378.086695712132  548.930402213819 376.149826224316  L 546.979662549013 376.590977853752  C 547.423984675361 378.555737219882  547.910391186357 380.510741892281  548.438546601015 382.454643478453  L 550.36857731826 381.93025676  Z M 552.669099781579 389.531486770393  C 552.039766182148 387.648069735558  551.450895992488 385.751372830601  550.902895364131 383.84270423239  L 548.980558539208 384.394629165277  C 549.53645008171 386.330781564167  550.133799685205 388.25478988386  550.772195349796 390.16532711045  L 552.669099781579 389.531486770393  Z M 555.400309614564 396.988804929312  C 554.664358151283 395.144436216128  553.968044942583 393.284496656644  553.311850244865 391.410269075702  L 551.424201073862 392.071162869902  C 552.089844622101 393.972378319409  552.796184366291 395.859100007635  553.542733134595 397.730026637756  L 555.400309614564 396.988804929312  Z M 558.55327750489 404.277830567743  C 557.713114269153 402.478540084305  556.911634541022 400.661438685115  556.149391111635 398.82777964897  L 554.302601002111 399.595481603747  C 555.075820326686 401.455544343242  555.888840931591 403.298811024719  556.741102065796 405.124010322845  L 558.55327750489 404.277830567743  Z M 562.117695260671 411.374733225763  C 561.176067049828 409.626403503136  560.272041129247 407.858081025628  559.406241017526 406.070985428571  L 557.606347793998 406.942985648695  C 558.484614961404 408.755814460638  559.401658368746 410.549599830211  560.356845519095 412.323104559994  L 562.117695260671 411.374733225763  Z M 566.079498176484 418.267344336674  C 565.855717375719 417.896575391333  565.632846925231 417.525257758008  565.410888838888 417.153394791946  C 564.608626401093 415.820857440088  563.828804165768 414.474937903412  563.071752142788 413.116205756262  L 561.324640306895 414.089653357772  C 562.091974758595 415.466840070827  562.882370141375 416.831050691129  563.695492509618 418.181708833535  C 563.918483907199 418.555290885426  564.142389226606 418.928326658066  564.367206456348 419.300812800225  L 566.079498176484 418.267344336674  Z M 570.299916924397 425.0276971024  C 569.219433926178 423.3536048598  568.157889864279 421.667364760745  567.115487774571 419.969299323387  L 565.411024632914 421.015628811995  C 566.461303757856 422.72652588257  567.530869503573 424.425508255263  568.619517299935 426.112250974787  L 570.299916924397 425.0276971024  Z M 574.721964043617 431.657916042994  C 573.591567066322 430.017114098845  572.479734689854 428.363599589201  571.386679568442 426.697688772934  L 569.714492195012 427.794862135782  C 570.815807117307 429.473361605047  571.936041187223 431.139371093534  573.074980143571 432.792571952505  L 574.721964043617 431.657916042994  Z M 579.341630036645 438.151989497896  C 578.162344018218 436.54596557749  577.001231432465 434.926675909078  575.858514359201 433.294430205562  L 574.220118936643 434.441452628769  C 575.371471087232 436.086032590864  576.541357758181 437.71755861403  577.729555191514 439.335718644995  L 579.341630036645 438.151989497896  Z M 584.154726223728 444.504029250503  C 582.927620430097 442.934239545665  581.718280423037 441.350642938464  580.526937506562 439.753542314977  L 578.923819578147 440.949373786211  C 580.124165018909 442.558543090304  581.342643547404 444.154106333402  582.579022111752 445.735758340644  L 584.154726223728 444.504029250503  Z M 589.156888540755 450.708275867048  C 587.883075596342 449.176143715822  586.626604684045 447.629676026677  585.387716122356 446.069168584243  L 583.821329245034 447.312724835706  C 585.069579615326 448.885024438027  586.335545199343 450.443178193988  587.618983862608 451.986888083841  L 589.156888540755 450.708275867048  Z M 594.343581496189 456.759103918716  C 593.02421637507 455.266018514804  591.7217538075 453.758081935553  590.436442908522 452.235582595925  L 588.908207334971 453.525736087465  C 590.203230838456 455.059740374231  591.515535619162 456.579071855398  592.844870679562 458.083439936548  L 594.343581496189 456.759103918716  Z M 599.710102283417 462.651027082256  C 598.346381262121 461.19834221544  596.999107990141 459.730304001505  595.668540153227 458.247193224263  L 594.179841544103 459.582774165724  C 595.520463974952 461.077092245751  596.877918077479 462.556223864866  598.251944218686 464.01988611746  L 599.710102283417 462.651027082256  Z M 605.219667647899 468.430533904058  C 603.831704787151 466.995985284042  602.452182414585 465.55329424314  601.081171960655 464.102535482622  L 599.627570564286 465.47623231252  C 601.003961673479 466.932684707786  602.38889810712 468.381037720951  603.782308154395 469.821216357544  L 605.219667647899 468.430533904058  Z M 610.816226858935 474.124985984637  C 609.405959307003 472.712358617664  608.004003640153 471.291457592187  606.61043245047 469.862356481265  L 605.178531139971 471.258658252729  C 606.577571526579 472.693368000983  607.985029296008 474.119845481823  609.400831571256 475.538016833422  L 610.816226858935 474.124985984637  Z M 616.501314036321 479.731057986151  C 615.069087970553 478.340698628831  613.645043146482 476.941936406346  612.229253299949 475.534843745429  L 610.819403563102 476.953407709271  C 612.240749805699 478.366022633356  613.670383423257 479.770274425457  615.108230390526 481.166090374573  L 616.501314036321 479.731057986151  Z M 622.273533665815 485.247373790157  C 620.819700653709 483.879623732996  619.37391623167 482.503343666656  617.936255261199 481.118604853761  L 616.5488031728 482.559082796111  C 617.992106374551 483.949256142463  619.443564909106 485.330937545152  620.903103621141 486.704055461853  L 622.273533665815 485.247373790157  Z M 628.131468844834 490.6725793106  C 626.65638575773 489.327774294216  625.189216633381 487.974314218494  623.730037440571 486.612269164458  L 622.365323577481 488.074307492235  C 623.830229451792 489.441698016007  625.303156614868 490.800469868949  626.784028799754 492.150552694972  L 628.131468844834 490.6725793106  Z M 634.073681630264 496.005342826199  C 632.57771055574 494.683812958909  631.089516874027 493.353505106673  629.60917764254 492.014488151711  L 628.267537000086 493.497727979423  C 629.75368595758 494.84200002826  631.24772019079 496.177528794691  632.749562339912 497.50424512619  L 634.073681630264 496.005342826199  Z M 640.098713391425 501.244355307349  C 638.58222154442 499.946424984134  637.07336861117 498.63959590509  635.572232718808 497.323935736726  L 634.253994628548 498.828012974566  C 635.761021865305 500.14883657097  637.275796429164 501.460794419627  638.798239886405 502.763818588492  L 640.098713391425 501.244355307349  Z M 646.205085168123 506.38833073744  C 644.668444800785 505.114318560311  643.139302993058 503.831289040866  641.617738922554 502.539308613244  L 640.32322697144 504.063854056457  C 641.850762558573 505.360904978814  643.385905622463 506.648969864352  644.928576674728 507.927982018183  L 646.205085168123 506.38833073744  Z M 649.944456826222 509.458767180155  C 649.209370645672 508.861000148503  648.475952940836 508.261184278458  647.744212267738 507.65932656745  L 646.473744218683 509.203965986968  C 648.021413193135 510.476925849126  649.576547926598 511.740781591188  651.139067895539 512.995467771795  L 649.944456826222 509.458767180155  Z M 730.691764982542 193.961402260213  C 732.569146457241 193.28037983764  734.449498890321 192.607575519369  736.332768278565 191.943008628158  L 735.667231721435 190.056991371842  C 733.778460578557 190.723499718691  731.892614912346 191.398269557312  730.009748883874 192.081281508464  L 730.691764982542 193.961402260213  Z M 643.781389689215 515.529706938048  L 654 514  L 653.313921020178 503.69032999396  L 643.781389689215 515.529706938048  Z " fill-rule="nonzero" fill="#f59a23" stroke="none" />
  </g>
</svg>