<?xml version="1.0" encoding="utf-8"?>
<svg version="1.1" xmlns:xlink="http://www.w3.org/1999/xlink" width="276px" height="42px" viewBox="920 260  276 42" xmlns="http://www.w3.org/2000/svg">
  <g transform="matrix(-0.669130606358856 -0.743144825477393 0.743144825477396 -0.669130606358857 1557.11648556852 1255.27292574192 )">
    <path d="M 1146.74989677265 199.380302149235  C 1148.4253354607 198.291881987242  1150.1041404531 197.208652472572  1151.78628760415 196.130629184956  L 1150.7071513212 194.446745316387  C 1149.02152804412 195.526996319225  1147.33925383233 196.612464307598  1145.66035288117 197.703133669763  L 1146.74989677265 199.380302149235  Z M 1140.06619844652 203.761599179028  C 1141.73259260324 202.659381523087  1143.40239581016 201.562326541008  1145.07558405131 200.4704500112  L 1143.98258022354 198.795534302129  C 1142.30593436987 199.889667174573  1140.63268054542 200.988989200541  1138.96284281602 202.093484568863  L 1140.06619844652 203.761599179028  Z M 1133.41890566701 208.197936145667  C 1135.07614167063 207.081996149632  1136.7368292381 205.971190501815  1138.40094448429 204.865535178567  L 1137.29414763727 203.199701831734  C 1135.62659352768 204.307641971268  1133.96247418007 205.420743078413  1132.30181352888 206.538989143821  L 1133.41890566701 208.197936145667  Z M 1126.80847167428 212.689010561193  C 1128.45643652757 211.559424314479  1130.10789522289 210.434943740344  1131.76282400786 209.315585011818  L 1130.6423096076 207.658947610689  C 1128.98396094289 208.780619473334  1127.32908953872 209.90742376578  1125.67771919653 211.039344281591  L 1126.80847167428 212.689010561193  Z M 1120.23534719529 217.23451620542  C 1121.87392853309 216.091360727958  1123.51604575301 214.953281899221  1125.16167523676 213.820296087995  L 1124.02751968461 212.172967589018  C 1122.37848953791 213.308294694507  1120.73297891321 214.448725342038  1119.09101147733 215.59424312919  L 1120.23534719529 217.23451620542  Z M 1113.69998041308 221.834143146814  C 1115.32906651016 220.677496383654  1116.9617302881 219.525896899394  1118.59794826485 218.379361257107  L 1117.45022889227 216.74145398201  C 1115.81062970129 217.890358919036  1114.17459205392 219.044338162273  1112.54213948049 220.203375114616  L 1113.69998041308 221.834143146814  Z M 1107.20281693621 226.487577763624  C 1108.82229671465 225.317518579797  1110.44539572888 224.152476960812  1112.0720906344 222.992469663075  L 1110.91088569769 221.364095291208  C 1109.28082925718 222.52649972261  1107.65437613894 223.693948878495  1106.03154973543 224.866425968026  L 1107.20281693621 226.487577763624  Z M 1100.7442997684 231.19450276527  C 1102.35406280531 230.01111094029  1103.96748638617 228.832706623977  1105.58454730562 227.659306764927  L 1104.40993598057 226.040576325646  C 1102.78953343462 227.216400993812  1101.17277574377 228.397240460852  1099.5596861613 229.583077743162  L 1100.7442997684 231.19450276527  Z M 1094.32486927828 235.954597213972  C 1095.92480581327 234.757953436461  1097.52844395088 233.566266771278  1099.13576062627 232.379554358243  L 1097.94782300277 230.770578223341  C 1096.33718483714 231.95974295567  1094.73023281106 233.153892219246  1093.12699003676 234.353008839032  L 1094.32486927828 235.954597213972  Z M 1087.9449631694 240.767536546635  C 1089.53496411224 239.557722408664  1091.12870746362 238.352834648966  1092.72617030151 237.152890596855  L 1091.52498737812 235.553778473036  C 1089.92422341284 236.756202187317  1088.32718662022 237.96357982535  1086.73389996987 239.17589402184  L 1087.9449631694 240.767536546635  Z M 1081.60501645037 245.632992596981  C 1083.18497338807 244.410090588786  1084.76871328532 243.192083888723  1086.35621336396 241.978990014787  L 1085.14186704233 240.389850936186  C 1083.55108642417 241.605451646154  1081.96407375763 242.825975334602  1080.38085186816 244.051404447158  L 1081.60501645037 245.632992596981  Z M 1075.30052759659 250.546275902233  C 1075.93900881253 250.044840028002  1076.57885072322 249.54513915814  1077.22004624906 249.047178821641  C 1078.15412924237 248.315574199042  1079.08955678888 247.585687873922  1080.02632414384 246.857523548452  L 1078.79889722317 245.278465869199  C 1077.86127681245 246.007293288624  1076.92499588252 246.737842288466  1075.99005917151 247.470109171725  C 1075.34709256865 247.969454375663  1074.70548105806 248.470541983331  1074.06523171483 248.973366469205  L 1075.30052759659 250.546275902233  Z M 1069.06710555165 255.532080344362  C 1070.61433076237 254.271786264367  1072.16995234657 253.021835366516  1073.73386631062 251.782311210309  L 1072.49158230852 250.214915134603  C 1070.92069247862 251.459968210199  1069.35813201687 252.715494536105  1067.80400538077 253.9814101801  L 1069.06710555165 255.532080344362  Z M 1062.92342567297 260.628058550145  C 1064.44797068121 259.340421357983  1065.98109485584 258.062976241606  1067.52269570722 256.795808598457  L 1066.25270666895 255.250775316391  C 1064.70422947976 256.523595183191  1063.16426677767 257.80673836607  1061.63292150949 259.100119086668  L 1062.92342567297 260.628058550145  Z M 1056.87143499034 265.832595523105  C 1058.37281664354 264.518023291489  1059.88295753723 263.213488799193  1061.4017567181 261.919079254692  L 1060.10446512338 260.396898411867  C 1058.57889131193 261.69708169301  1057.06201440813 263.007435084431  1055.55393581555 264.32787098871  L 1056.87143499034 265.832595523105  Z M 1050.91305147579 271.144041862761  C 1052.39079396228 269.802951200491  1053.87747298731 268.471740760056  1055.37298916611 267.150499533124  L 1054.04880614725 265.65165353284  C 1052.54661919213 266.97878817959  1051.05330880904 268.315936507722  1049.5689748261 269.663009128567  L 1050.91305147579 271.144041862761  Z M 1045.05016343575 276.56071428736  C 1046.50379843542 275.193530207404  1047.96654443963 273.836065700524  1049.4383036635 272.488411513528  L 1048.08764887514 271.013375363903  C 1046.60932484326 272.367040786208  1045.14005423468 273.730560287478  1043.67993527041 275.103842716177  L 1045.05016343575 276.56071428736  Z M 1039.2846289126 282.080896167327  C 1040.71369574544 280.68805195203  1042.15204516135 279.304763580815  1043.5995810064 277.931123526768  L 1042.22288249252 276.480364690199  C 1040.76888988828 277.860131889957  1039.32412468938 279.249590443399  1037.8886834787 280.648647464908  L 1039.2846289126 282.080896167327  Z M 1033.61827509587 287.702838069298  C 1035.02232086788 286.284775133135  1036.43581785971 284.876101283636  1037.85867157883 283.476910690909  L 1036.45636563707 282.050888935927  C 1035.02716525381 283.456320642993  1033.60736333366 284.871277907095  1032.1970547907 286.295666138019  L 1033.61827509587 287.702838069298  Z M 1028.05289774313 293.424758310538  C 1029.43147748988 291.9819260602  1030.81967409799 290.548313163527  1032.21739476622 289.124015457865  L 1030.7899258096 287.723182713426  C 1029.38597058364 289.153833524167  1027.99158190006 290.593841076465  1026.606852974 292.043109105547  L 1028.05289774313 293.424758310538  Z M 1022.59026061091 299.244843523591  C 1023.94293743858 297.777699215528  1025.30539372138 296.31960160643  1026.67753837884 294.870648170392  L 1025.22535879497 293.495448382655  C 1023.84709366203 294.950864901083  1022.47856011892 296.415466380318  1021.11984965237 297.889154911477  L 1022.59026061091 299.244843523591  Z M 1017.30159363319 305.196295421844  C 1018.44554205295 303.857809889431  1019.60487929489 302.532553471059  1020.77937436685 301.220790217467  C 1020.93307352034 301.052071928512  1021.08690147127 300.883471016665  1021.24085808521 300.714987629255  L 1019.76442809288 299.365856620888  C 1019.6078517969 299.537206873788  1019.45140798916 299.708678144483  1019.29509680969 299.880270279514  C 1018.10838594123 301.205577648687  1016.93701423681 302.544540498809  1015.78121584171 303.896891184833  L 1017.30159363319 305.196295421844  Z M 1012.23282868861 311.340095921825  C 1013.47321518998 309.78225469843  1014.7338556647 308.240648254297  1016.01442883811 306.715669468333  L 1014.48281681736 305.429526156766  C 1013.19106694561 306.967814785705  1011.9194237429 308.522876197153  1010.66821128794 310.094314083172  L 1012.23282868861 311.340095921825  Z M 1007.38064023522 317.656339256257  C 1008.56613802727 316.056332089043  1009.77244176299 314.471846010764  1010.99924401548 312.903284828217  L 1009.4238600268 311.671146326168  C 1008.18635038252 313.253397733938  1006.96951816374 314.851713028142  1005.77367348056 316.465684877587  L 1007.38064023522 317.656339256257  Z M 1002.7508903288 324.137394606355  C 1003.88006718064 322.497154505838  1005.03057681028 320.871703052479  1006.20212600995 319.261454493147  L 1004.58487331596 318.084809379369  C 1003.40309896691 319.709112006655  1002.24254781888 321.348750217105  1001.10351563874 323.003306148368  L 1002.7508903288 324.137394606355  Z M 998.395386330119 330.786796026741  C 999.438128257433 329.096377064337  1000.51603669794 327.42790486166  1001.6284075281 325.782469316998  L 999.971505270857 324.662346596075  C 998.843549343911 326.330835848657  997.750538648905 328.022684519015  996.693187174651 329.736787438622  L 998.395386330119 330.786796026741  Z M 994.414820877707 337.660765833688  C 995.361920173428 335.914962316831  996.345352308 334.189115471386  997.364474872755 332.484352674563  L 995.647831923542 331.458128047634  C 994.614430735706 333.18677576886  993.617220026059 334.936802941032  992.656851203856 336.707066391612  L 994.414820877707 337.660765833688  Z M 990.822777429592 344.745509025548  C 991.671301447553 342.949726748554  992.557212127179 341.171849259814  993.47993076387 339.413037924586  L 991.708862622752 338.483889045495  C 990.77321604974 340.267342563117  989.874893139129 342.070129364454  989.014480703577 343.891071812708  L 990.822777429592 344.745509025548  Z M 987.661239802828 352.016032294483  C 988.150553465265 350.758989487787  988.667518450169 349.512886051089  989.21175801546 348.278630091538  C 989.466268252329 347.69973328439  989.724622451107 347.122534089267  989.986803500319 346.547070735584  L 988.166794192274 345.71787466792  C 987.901089826312 346.301071378683  987.639261547656 346.886026268906  987.381326678332 347.472700639168  C 986.82538951555 348.733524726214  986.297306672085 350.00644777964  985.797462789449 351.290542636117  L 987.661239802828 352.016032294483  Z M 985.1118392181 359.505337463167  C 985.668127476176 357.606529781445  986.285668441947 355.726206200012  986.963494107797 353.867314163084  L 985.084513425039 353.182163381269  C 984.39191814127 355.081560118035  983.760921143111 357.002855386227  983.192511530772 358.943037517713  L 985.1118392181 359.505337463167  Z M 983.216832679519 367.186358584725  C 983.607543155012 365.246700737943  984.060870524406 363.320183696376  984.576104188131 361.409827313392  L 982.645102995215 360.889025630447  C 982.118642544523 362.841008105928  981.655437307743 364.809503375899  981.256213368198 366.791425785284  L 983.216832679519 367.186358584725  Z M 982.051555411586 374.988134873707  C 982.208947163811 373.265325536455  982.432650555654 371.54921906188  982.722167951149 369.843632988444  C 982.76286889125 369.605561095014  982.804509362537 369.367650778862  982.847088391909 369.129907599729  L 980.87841246348 368.777324150281  C 980.834836447903 369.020634076083  980.79222249481 369.26411532295  980.750571603213 369.507762182886  C 980.452362099576 371.264373177093  980.221950550665 373.031822744744  980.059849741684 374.806177393837  L 982.051555411586 374.988134873707  Z M 981.794837773447 382.862425045808  C 981.743746158888 380.89202809785  981.779165259513 378.920338084118  981.900992817635 376.953047426467  L 979.904816722712 376.829431092358  C 979.779371925077 378.855133505204  979.742901179222 380.88536589749  979.795509779017 382.914266830974  L 981.794837773447 382.862425045808  Z M 982.46116116172 390.708255190107  C 982.431056756456 390.505248590067  982.401934135169 390.302097611289  982.373794319206 390.098809378394  C 982.13852149894 388.350245531212  981.972038763834 386.593113100252  981.87473129645 384.831477472655  L 979.87777545831 384.941783322538  C 979.978041993301 386.75698933956  980.149637053245 388.567551495312  980.392163074033 390.369274945654  C 980.421348453587 390.580206479822  980.451559694893 390.790994799798  980.482795725699 391.001632424324  L 982.46116116172 390.708255190107  Z M 984.094902365974 398.40810335409  C 983.567819692434 396.510521697173  983.129071819659 394.589504508223  982.780074235671 392.651249371306  L 980.811727360952 393.005665201628  C 981.171688602359 395.004810058956  981.624219611727 396.986175443201  982.167860433889 398.943369075006  L 984.094902365974 398.40810335409  Z M 986.666319986094 405.847497381416  C 985.909103778592 404.02946110441  985.236655277071 402.177267877743  984.651143934333 400.296893245672  L 982.741576169056 400.891494750727  C 983.345481180036 402.830940804012  984.039054455312 404.741320141254  984.820058389356 406.616469498211  L 986.666319986094 405.847497381416  Z M 990.125003096438 412.931281161495  C 989.427707855801 411.676938777415  988.764428230644 410.403986618835  988.1358901567 409.113817886182  C 987.901563629547 408.629859038927  987.673377707056 408.142950963697  987.451387320494 407.653210874019  L 985.629788385334 408.478908954085  C 985.859085797586 408.98476930677  986.094791978904 409.487700139211  986.336850022386 409.987580028054  C 986.981478100125 411.310875244115  987.661759195642 412.616503346757  988.376947951105 413.903033809483  L 990.125003096438 412.931281161495  Z M 994.299636099726 419.635356172656  C 993.173608455698 418.012267142293  992.108330251007 416.347864377791  991.106009835168 414.645598229508  L 989.382578436075 415.660381069636  C 990.410057581816 417.405374926115  991.502074787526 419.111555009462  992.656366273047 420.775384363854  L 994.299636099726 419.635356172656  Z M 999.117433457012 425.893232097563  C 997.836259111714 424.389587008939  996.611445943163 422.838817226533  995.44553302102 421.244137536571  L 993.831025764356 422.424546922411  C 995.026203667871 424.059253848141  996.281760242619 425.648948706277  997.595092687066 427.190336017904  L 999.117433457012 425.893232097563  Z M 1004.48480067825 431.726176259494  C 1003.09342288071 430.312536121186  1001.73744664101 428.864483058697  1000.41813167186 427.383362324834  L 998.924697326368 428.713645699046  C 1000.26608645848 430.219547854485  1001.64475026042 431.691829065687  1003.05940794257 433.129121571708  L 1004.48480067825 431.726176259494  Z M 1010.23351012637 437.191677908056  C 1008.75144009259 435.873429437133  1007.30241133171 434.518495902036  1005.88777000295 433.128136046785  L 1004.4858510959 434.554538296524  C 1005.92416154382 435.968161004643  1007.39743477835 437.345764655941  1008.90430211695 438.686069445671  L 1010.23351012637 437.191677908056  Z M 1016.33204636709 442.263879038726  C 1014.76581036049 441.046827113891  1013.23010984531 439.790979526775  1011.72637149952 438.497502969766  L 1010.42214135058 440.013742963497  C 1011.95103954528 441.328861367199  1013.51243468549 442.605721210631  1015.10487622273 443.843136280844  L 1016.33204636709 442.263879038726  Z M 1022.73552448915 446.978702863037  C 1021.19485674063 445.894428406645  1019.67030235141 444.787437008117  1018.16236104612 443.658091521598  C 1018.07756517951 443.594779935764  1017.99285342475 443.531355773443  1017.90822600584 443.467819202365  L 1016.70742776433 445.067220209988  C 1016.793077863 445.131524588548  1016.87881292676 445.195715720078  1016.96463273091 445.259793436327  C 1018.48796726184 446.400649297177  1020.02807989645 447.518928710056  1021.58446607031 448.614265309539  L 1022.73552448915 446.978702863037  Z M 1029.33717847673 451.422195821872  C 1027.66384514593 450.345816628746  1026.007418781 449.24337808326  1024.36850494091 448.115283216628  L 1023.23453171494 449.76273722897  C 1024.89059282647 450.902634881333  1026.56434968908 452.016607781175  1028.25519040808 453.104248680527  L 1029.33717847673 451.422195821872  Z M 1036.11805252759 455.587074229853  C 1034.40136970111 454.58127272028  1032.70049458687 453.54873076242  1031.01604899346 452.489825834583  L 1029.95162624629 454.183048860441  C 1031.65369549087 455.253032668562  1033.3723661515 456.296377681949  1035.10700991386 457.312702472905  L 1036.11805252759 455.587074229853  Z M 1043.06177623826 459.457182648249  C 1042.87609164357 459.360490235125  1042.69048690968 459.263644537965  1042.50496222595 459.166645655567  C 1040.93801023247 458.327463045508  1039.38283942603 457.466465308823  1037.8399035966 456.583903679734  L 1036.84687599191 458.319961333253  C 1038.40883300777 459.213403109752  1039.98319855635 460.084974777422  1041.56951154932 460.934421076904  C 1041.75893975029 461.033467115048  1041.94845097509 461.132354287037  1042.13804502363 461.231082488466  L 1043.06177623826 459.457182648249  Z M 1050.17690250099 463.067923130061  C 1048.38870899253 462.183923575664  1046.60749715808 461.28587081916  1044.83343233078 460.373848218325  L 1043.919016686 462.152567990683  C 1045.70240974855 463.069386110396  1047.49298739802 463.972160930744  1049.29058343195 464.860808655644  L 1050.17690250099 463.067923130061  Z M 1057.36620137707 466.528623959677  C 1055.55985873013 465.682327629935  1053.76020144443 464.821834744039  1051.96739656523 463.947225173438  L 1051.09049211823 465.744734169476  C 1052.89272377002 466.623942536974  1054.70184385902 467.488959992629  1056.51768446167 468.339706245018  L 1057.36620137707 466.528623959677  Z M 1064.62650935052 469.837762320685  C 1062.80281241227 469.029541612405  1060.98550158072 468.206987240853  1059.17474553972 467.370175556003  L 1058.33573815585 469.185682815642  C 1060.15601535867 470.026894551794  1061.98288181789 470.853774008068  1063.8161679627 471.666244433033  L 1064.62650935052 469.837762320685  Z M 1071.95463165916 472.993882088889  C 1070.11438291319 472.224092644417  1068.28021820929 471.439838736814  1066.4523077957 470.641193160983  L 1065.65156666438 472.473899804345  C 1067.48908843945 473.276744749723  1069.33289739061 474.065122353839  1071.18282237443 474.838959439028  L 1071.95463165916 472.993882088889  Z M 1079.34734370039 475.995594473054  C 1077.49135291359 475.264575023779  1075.64114142707 474.518966676329  1073.79688097854 473.758838638506  L 1073.03475845089 475.607938217448  C 1074.88871623125 476.37206309521  1076.74865634083 477.121591936409  1078.61440613892 477.856455169342  L 1079.34734370039 475.995594473054  Z M 1086.80139245008 478.841578626011  C 1084.93047631635 478.149650843314  1083.06503219804 477.443016146971  1081.20523324675 476.721740127223  L 1080.48206468046 478.5864189802  C 1082.35164266681 479.311487551543  1084.2268955031 480.021837813732  1086.10764912729 480.717403831645  L 1086.80139245008 478.841578626011  Z M 1094.31349789407 481.530582225879  C 1092.42847967493 480.878050579588  1090.54862377847 480.210700475678  1088.67410469402 479.528593857974  L 1087.99020830585 481.408031468073  C 1089.8745838255 482.093724680187  1091.76432421871 482.764583787073  1093.65925407868 483.420546519201  L 1094.31349789407 481.530582225879  Z M 1101.88035447141 484.061422027118  C 1099.98206363373 483.44857365153  1098.08862315442 482.820801794936  1096.20020878372 482.178164727484  L 1095.55588550944 484.071534083477  C 1097.45422937832 484.717550209941  1099.35762578367 485.348622962572  1101.26589805114 485.964693764833  L 1101.88035447141 484.061422027118  Z M 1109.49863252898 486.4329843812  C 1107.58790437998 485.860088948734  1105.68171249074 485.272171578672  1103.7802337951 484.669286841847  L 1103.17576715704 486.575754802103  C 1105.08724404459 487.181809575652  1107.00345890824 487.772818282314  1108.92423388382 488.348726064319  L 1109.49863252898 486.4329843812  Z M 1117.15822338885 488.723572354423  C 1115.24177829108 488.159845664443  1113.32733997737 487.589319004098  1111.4149446202 487.012003153242  L 1110.83694557485 488.926661635472  C 1112.75387120175 489.50534508875  1114.67284462485 490.077223268649  1116.59382958577 490.642285369712  L 1117.15822338885 488.723572354423  Z M 1124.83455184975 490.942167454236  C 1122.91285733837 490.396603710302  1120.99310516461 489.844221307863  1119.07533160137 489.285030683947  L 1118.51547923232 491.205073736817  C 1120.43779580576 491.765589026352  1122.3620956768 492.319279966417  1124.28834248671 492.866136095281  L 1124.83455184975 490.942167454236  Z M 1132.53153383036 493.088012566681  C 1130.60476203898 492.560660637045  1128.6798679648 492.02647197154  1126.75688797787 491.485456663431  L 1126.21523243326 493.410712301261  C 1128.14276776388 493.953009219519  1130.07222171598 494.488463323541  1132.00355783345 495.017064496174  L 1132.53153383036 493.088012566681  Z M 1140.24847988227 495.160915480117  C 1138.31680339928 494.65182260173  1136.38693984488 494.135875522502  1134.458925683 493.613083991031  L 1133.93551548102 495.543379761233  C 1135.86809691202 496.067409732582  1137.80253211654 496.584579037868  1139.73878454433 497.094877905419  L 1140.24847988227 495.160915480117  Z M 1147.98469876877 497.160690516616  C 1146.04829062191 496.669902290896  1144.11363045262 496.172243013319  1142.18075481549 495.667722086945  L 1141.67563684 497.602885085465  C 1143.61309126261 498.108601170515  1145.5523344447 498.60743935221  1147.49332974519 499.099390205238  L 1147.98469876877 497.160690516616  Z M 1155.73949752685 499.0871585486  C 1153.79853116767 498.614718937344  1151.85924767849 498.135392038684  1149.92168370125 497.649186909297  L 1149.43490319763 499.589043796104  C 1151.37705706654 500.076400695911  1153.3209345207 500.556863071152  1155.26649883145 501.030421843717  L 1155.73949752685 499.0871585486  Z M 1163.5121815292 500.940147014879  C 1161.56683081751 500.486098336318  1159.62309771766 500.025146751762  1157.68101895535 499.557300970622  L 1157.2126195264 501.501677985237  C 1159.1592988754 501.970632045359  1161.10763648101 502.432675577273  1163.0575955303 502.887799850886  L 1163.5121815292 500.940147014879  Z M 1171.30205454647 502.719489936115  C 1169.35249373496 502.283872861168  1167.40448513192 501.841337879883  1165.45806554414 501.391893353768  L 1165.00808914622 503.340616330827  C 1166.95911960371 503.791125545236  1168.91174284064 504.234708846799  1170.8659219631 504.671357854218  L 1171.30205454647 502.719489936115  Z M 1179.10841880962 504.425027929683  C 1177.15482252789 504.007881478232  1175.20271291252 503.583802739833  1173.2521268475 503.152799727206  L 1172.82061378673 505.105694112057  C 1174.77582059137 505.537718126902  1176.7325545556 505.962801464642  1178.69077870786 506.380936093529  L 1179.10841880962 504.425027929683  Z M 1186.93057507244 506.056608223954  C 1184.97311831175 505.657969761441  1183.01708254186 505.252385252256  1181.06250472123 504.839862359743  L 1180.6494936499 506.796753224089  C 1182.60870166627 507.210253341308  1184.56937108558 507.616798638868  1186.53146486192 508.016381435287  L 1186.93057507244 506.056608223954  Z M 1194.76782267414 507.614084671972  C 1192.80668077141 507.233989905975  1190.84689405679 506.846935955798  1188.88849955959 506.452930134659  L 1188.4940274727 508.41364219222  C 1190.45706120695 508.80858137301  1192.42149045661 509.196552214556  1194.38727810471 509.577547386332  L 1194.76782267414 507.614084671972  Z M 1153.46954492298 195.054343791393  C 1155.15391390404 193.979795336318  1156.84160621381 192.910465148276  1158.53259757906 191.846368606921  L 1157.46740242094 190.153631393079  C 1155.77291665335 191.219926870237  1154.08173675853 192.291466809392  1152.39388706016 193.368235798957  L 1153.46954492298 195.054343791393  Z M 1193.69905935302 516.152591679549  L 1202 510  L 1196.54927393559 501.222210678607  L 1193.69905935302 516.152591679549  Z " fill-rule="nonzero" fill="#aaaaaa" stroke="none" />
  </g>
</svg>