<?xml version="1.0" encoding="utf-8"?>
<svg version="1.1" xmlns:xlink="http://www.w3.org/1999/xlink" width="132px" height="14px" viewBox="674 336  132 14" xmlns="http://www.w3.org/2000/svg">
  <g transform="matrix(0.642787609686533 -0.766044443118973 0.766044443118984 0.642787609686537 1.58392484215381 689.396737785558 )">
    <path d="M 708.289975733639 305.37095464271  C 706.794410549291 304.03441297251  705.287357364072 302.710782026173  703.768983990259 301.40020919168  L 702.462172440424 302.914224902701  C 703.971849221213 304.217291336749  705.470270650604 305.533341091362  706.957269877479 306.862227622737  L 708.289975733639 305.37095464271  Z M 714.210259226021 310.785338915113  C 712.745794575278 309.4147907972  711.26954834396 308.056886069412  709.781684913978 306.711775936183  L 708.440435185886 308.195369265533  C 709.919776770748 309.532775183447  711.387567695289 310.882902413956  712.843644519109 312.245600618662  L 714.210259226021 310.785338915113  Z M 720.004589706764 316.334307103826  C 718.57199864735 314.930476019514  717.127338646902 313.539014317442  715.670770570162 312.160076938655  L 714.295790679175 313.61246473101  C 715.744016157187 314.983504146492  717.180401763275 316.366996151295  718.604787554058 317.762786691808  L 720.004589706764 316.334307103826  Z M 725.669908480007 322.014930034187  C 724.269947244306 320.578557034119  722.857636078029 319.154272878889  721.433132243839 317.742236164364  L 720.025148010706 319.162651737093  C 721.441492896437 320.566600909485  722.845714948624 321.982727374469  724.237657805369 323.410873444573  L 725.669908480007 322.014930034187  Z M 731.203224952251 327.824209033978  C 729.836632548098 326.356052346937  728.45741574308 324.899697585904  727.065728114757 323.455306917849  L 725.625482782476 324.843000465734  C 727.009199419525 326.279118282054  728.380516660796 327.727131666132  729.739281808381 329.18687937985  L 731.203224952251 327.824209033978  Z M 736.601618211019 333.759077516354  C 735.269116031598 332.259912149006  733.923721645168 330.772255558882  732.565584863096 329.296273398421  L 731.093838704565 330.65051238946  C 732.444196660252 332.118040755629  733.781885203285 333.597176685324  735.106755380356 335.08775547489  L 736.601618211019 333.759077516354  Z M 741.862238566747 339.816402598625  C 740.56453000979 338.287019926428  739.253668245173 336.768846807432  737.92979923901 335.262052292131  L 736.427329155703 336.582121854225  C 737.743615606638 338.080286095249  739.04696931594 339.589763768195  740.33724515353 341.110386790818  L 741.862238566747 339.816402598625  Z M 746.975750450148 346.002032895939  C 745.717512096985 344.439119075839  744.444205652495 342.888396054463  743.156009330228 341.350080872932  L 741.622643411115 342.63413264685  C 742.902570606106 344.16257315027  744.167703503693 345.703341845723  745.417865034321 347.256223085326  L 746.975750450148 346.002032895939  Z M 751.927594157325 352.317766766474  C 750.710028313085 350.722963713627  749.477085384889 349.139959314891  748.228937936961 347.568975129528  L 746.663008120872 348.813106879418  C 747.903143521313 350.374006679387  749.12817200213 351.946849533149  750.33792210683 353.531415303685  L 751.927594157325 352.317766766474  Z M 756.715124301172 358.75894721306  C 755.539038825571 357.133313085554  754.347277476144 355.519077639092  753.140007053287 353.916466804072  L 751.542552340803 355.119853043632  C 752.742073111984 356.712176477  753.926184364832 358.316049901674  755.094720369655 359.931248837526  L 756.715124301172 358.75894721306  Z M 761.33516433664 365.321300487184  C 760.201339567011 363.665913899644  759.051550534686 362.021518457012  757.885958165565 360.388344310916  L 756.258038474161 361.550186588653  C 757.416148729344 363.172877142574  758.558557091748 364.806716961835  759.685103668472 366.451477372174  L 761.33516433664 365.321300487184  Z M 765.784648849029 372.000472441681  C 764.693837082556 370.316431749609  763.586783256871 368.642967373639  762.4636423166 366.980313533924  L 760.806337777381 368.099840962925  C 761.922269105865 369.751821975846  763.022216585393 371.41454413056  764.106026265942 373.087774710395  L 765.784648849029 372.000472441681  Z M 770.060625587893 378.792031419738  C 769.013550582471 377.080453990749  767.949966497978 375.379031031614  766.870022194984 373.688000675637  L 765.184432436019 374.764470445057  C 766.257444412987 376.44464582109  767.314201190167 378.135147088579  768.354554862561 379.835737642851  L 770.060625587893 378.792031419738  Z M 774.160257425879 385.691471195306  C 773.157613919881 383.953492667739  772.138205268804 382.225240026264  771.102174150367 380.506955159301  L 769.38941756708 381.539653027221  C 770.418798244871 383.246907963408  771.431663157433 384.964066689442  772.427870542927 386.690888869643  L 774.160257425879 385.691471195306  Z M 778.080928705368 392.695286773388  C 778.01349183229 392.570814095998  777.945970132104 392.446387394887  777.878363651935 392.322006756898  C 776.985992619832 390.684109961763  776.078931543599 389.054259525985  775.157290133312 387.432652581842  L 773.41850314642 388.420893349172  C 774.334065444674 390.031804234982  775.235146160983 391.650902787142  776.121636347412 393.277993243562  C 776.188650966169 393.401285929475  776.255581743441 393.524624168005  776.322428632978 393.648007873923  L 778.080928705368 392.695286773388  Z M 781.812778941688 399.800393685843  C 780.902738701719 398.012185050346  779.97544594329 396.232808943175  779.03103045145 394.462514408019  L 777.266431532067 395.403891406737  C 778.204784677841 397.162822153173  779.126125003626 398.930776175647  780.030323557476 400.707506029102  L 781.812778941688 399.800393685843  Z M 785.360388915643 406.999262617587  C 784.496708460119 405.188207832889  783.615553715265 403.385538282964  782.717048008594 401.591506271681  L 780.928787984298 402.487121192004  C 781.821526046767 404.269637040115  782.697024525873 406.060734981205  783.555160885754 407.86016433097  L 785.360388915643 406.999262617587  Z M 788.721404774086 414.28711709082  C 787.904657158381 412.454417798881  787.070225076735 410.629650884527  786.218225317296 408.813071744399  L 784.407490705634 409.662330342312  C 785.254021349588 411.467248585833  786.083097085338 413.280302045024  786.894601874407 415.10123696266  L 788.721404774086 414.28711709082  Z M 791.893596469799 421.659121585486  C 791.124323609164 419.805993789482  790.337167839687 417.96034025071  789.532239332667 416.122419289129  L 787.700231563163 416.924758078218  C 788.499993112193 418.750881146802  789.282096009586 420.584687156018  790.046430791226 422.425919444051  L 791.893596469799 421.659121585486  Z M 794.874859241139 429.110384747659  C 794.153571551138 427.238058005165  793.414214374769 425.372742440332  792.656891193395 423.514699125078  L 790.804825810397 424.269585750407  C 791.557287619582 426.115702004239  792.291898750263 427.969043825969  793.008556385351 429.82935181956  L 794.874859241139 429.110384747659  Z M 797.66321500855 436.635962634975  C 796.990391066394 434.745679242124  796.299323049532 432.861939295455  795.590107680703 430.985006445551  L 793.719213536864 431.691940036879  C 794.423876344835 433.556824570572  795.110508291442 435.428472505253  795.77901327482 437.306621882737  L 797.66321500855 436.635962634975  Z M 800.256813687035 444.230861996961  C 799.632899914052 442.32387616421  798.990579583035 440.422961704544  798.329942593936 438.528384672312  L 796.441461034865 439.186896176425  C 797.097857295083 441.069311631769  797.736054474624 442.958023833647  798.355963250611 444.85276843554  L 800.256813687035 444.230861996961  Z M 802.653184913138 451.890023729354  C 802.382648888257 450.985669808628  802.108446896502 450.08241660613  801.830585700596 449.180286399065  C 801.517102379196 448.165177201976  801.19842899118 447.15167805987  800.87457804187 446.139828744289  L 798.969762082497 446.749481236221  C 799.291458884316 447.754600070792  799.608013768285 448.761357375802  799.919414318042 449.769713662796  C 800.195609390421 450.666441283247  800.468168130503 451.564284872462  800.737083819604 452.463222298227  L 802.653184913138 451.890023729354  Z M 804.864063812239 459.602178303332  C 804.33351451254 457.667862843697  803.786308831311 455.738154542513  803.222507700605 453.813268275273  L 801.303145769738 454.375451322279  C 801.8637176888 456.289312664575  802.407789210018 458.207968422267  802.935299750332 460.131204950578  L 804.864063812239 459.602178303332  Z M 806.897179629243 467.363090218439  C 806.411209452421 465.417096425012  805.908481445175 463.475325909244  805.389051586903 461.537994889734  L 803.457280619648 462.055934007845  C 803.973735405936 463.982168824188  804.47358400226 465.912817709273  804.956770749839 467.847665682871  L 806.897179629243 467.363090218439  Z M 808.751459128347 475.168662665007  C 808.310324607055 473.212017783854  807.852339652521 471.259210070177  807.377555261947 469.310456971581  L 805.434394996455 469.783878752464  C 805.906460025183 471.721470227111  806.361821837857 473.663093093758  806.800429729357 475.608531150209  L 808.751459128347 475.168662665007  Z M 810.42592347739 483.014775258081  C 810.029857476555 481.048512157737  809.616857334616 479.085698089113  809.186969039671 477.126551614073  L 807.233445226248 477.55520614909  C 807.660871304975 479.503131471374  808.07150595881 481.454703380836  808.465303463056 483.409704567439  L 810.42592347739 483.014775258081  Z M 811.919688764557 490.897286212483  C 811.568900358449 488.922442838704  811.201103042536 486.950658540262  810.816337771513 484.982152877828  L 808.853481631146 485.365813889956  C 809.236043131326 487.323044794213  809.601733861582 489.283535555854  809.95051310179 491.247067871758  L 811.919688764557 490.897286212483  Z M 813.231966464976 498.812034529164  C 812.926640826855 496.829653357063  812.604240488837 494.849939689061  812.264801350612 492.873113968813  L 810.293649030614 493.21157893209  C 810.63114400669 495.17708224043  810.951697773516 497.145456955595  811.25527463702 499.116483896537  L 813.231966464976 498.812034529164  Z M 814.253502610238 505.931082721257  C 814.02558353162 504.217381518657  813.78494108124 502.505396546987  813.531595165844 500.795269427342  L 811.553187192891 501.088359673779  C 811.845437488908 503.061097841517  812.120685079227 505.036317449751  812.378899314676 507.013798555244  L 814.253502610238 505.931082721257  Z M 702.246864413221 300.094012417477  C 700.720988170274 298.792182725082  699.183923570387 297.503524274986  697.635841767675 296.22818056096  L 696.364158232325 297.77181943904  C 697.903373284848 299.039858529953  699.431634236355 300.321136095812  700.948770913059 301.615509464743  L 702.246864413221 300.094012417477  Z M 805.62960010828 505.942244173566  L 814 512  L 820.724146899439 504.154883781946  L 805.62960010828 505.942244173566  Z " fill-rule="nonzero" fill="#027db4" stroke="none" />
  </g>
</svg>