<?xml version="1.0" encoding="utf-8"?>
<svg version="1.1" xmlns:xlink="http://www.w3.org/1999/xlink" width="120px" height="16px" viewBox="878 472  120 16" xmlns="http://www.w3.org/2000/svg">
  <g transform="matrix(0.754709580222767 -0.656059028990508 0.656059028990514 0.754709580222773 -84.8259201644025 733.122770686165 )">
    <path d="M 876.078393090277 343.999249602613  C 876.142535875156 342.009854882912  876.235340802042 340.021487672313  876.356778971227 338.034767153797  L 874.360504792087 337.912745017696  C 874.237894466686 339.918641935376  874.144193759892 341.926201439498  874.079431850362 343.934798370524  L 876.078393090277 343.999249602613  Z M 875.974747934348 351.959661428079  C 875.962422247959 349.969271083183  875.978777019049 347.978806453969  876.023807154697 345.988887376598  L 874.024319035596 345.94364070187  C 873.978854256098 347.952767051824  873.962341624042 349.962444219438  873.97478628151 351.972046385727  L 875.974747934348 351.959661428079  Z M 876.176972614362 359.918179124747  C 876.088196651885 357.929731369314  876.028077124261 355.94010764582  875.996632752877 353.949927528567  L 873.996882338616 353.981523108363  C 874.028630220137 355.990913017828  874.089330038773 357.999741163063  874.178962892431 360.007381989453  L 876.176972614362 359.918179124747  Z M 876.684768606199 367.863054327042  C 876.51967341873 365.879484508083  876.383168340853 363.893638773294  876.275295880624 361.906135520482  L 874.278235203204 362.0145267134  C 874.387148879516 364.021213920557  874.524971543756 366.026227610851  874.691660277568 368.028943417518  L 876.684768606199 367.863054327042  Z M 877.497386301307 375.782558808446  C 877.256215602398 373.806795072169  877.043526483092 371.827658831982  876.859385175368 369.845766396357  L 874.8679622962 370.030793195294  C 875.05388098891 372.031815428043  875.268623044907 374.030054861752  875.512121592927 376.02488923918  L 877.497386301307 375.782558808446  Z M 878.613626113264 383.665001794702  C 878.296735919153 381.699960763963  878.008176730145 379.730455619744  877.748038404365 377.757099671347  L 875.76519306234 378.018488939703  C 876.027842318233 380.010892288581  876.319186763718 381.999407664221  876.639135673334 383.983415837459  L 878.613626113264 383.665001794702  Z M 880.043914142999 391.489225862832  C 879.850162385563 390.558829059268  879.664885641134 389.626687483098  879.488106946764 388.6929170355  C 879.297714796764 387.672817291713  879.114988571195 386.651301667867  878.939943737522 385.628456633534  L 876.96860300937 385.965822508412  C 877.145482665503 386.999389019077  877.330130606629 388.031611068413  877.522531176911 389.062401136893  C 877.701712964939 390.008949562935  877.889516807817 390.953845476411  878.085919312419 391.896971179693  L 880.043914142999 391.489225862832  Z M 881.861361969797 399.22702638058  C 881.357975683581 397.304467869832  880.891239767764 395.372499335991  880.461407968486 393.432171115115  L 878.508746099785 393.864735129478  C 878.944068463139 395.829848618553  879.416766347001 397.786495636031  879.926582763943 399.733612429138  L 881.861361969797 399.22702638058  Z M 884.069152977424 406.862622776555  C 883.468847553517 404.968087905292  882.904667725355 403.062295169355  882.376920215538 401.146280674032  L 880.448726621981 401.677382797701  C 880.983215446711 403.61787198376  881.554601967123 405.548008840234  882.16257554262 407.46674402688  L 884.069152977424 406.862622776555  Z M 886.661597437057 414.376337249391  C 885.965919930892 412.514708449704  885.305750146045 410.640002956561  884.681446991115 408.753239974321  L 882.782690847152 409.381511496646  C 883.414968694696 411.2923755181  884.083571323531 413.191028031101  884.78813524045 415.07643681223  L 886.661597437057 414.376337249391  Z M 889.632014324123 421.748806101317  C 888.842757575849 419.924881002603  888.088299167027 418.086094081781  887.369049267302 416.23344501567  L 885.504623883725 416.957266809398  C 886.233061302073 418.833581152074  886.997156974225 420.695856277885  887.796495491124 422.543079740377  L 889.632014324123 421.748806101317  Z M 892.972748536071 428.961029640609  C 892.0919465502 427.179508705538  891.245143842627 425.381379120305  890.432800787 423.567618457928  L 888.607511000323 424.385125151877  C 889.430230723301 426.22205434006  890.287850277217 428.043152783629  891.179903407719 429.84743042228  L 892.972748536071 428.961029640609  Z M 896.675190620429 435.994421145961  C 895.705113323976 434.259895556842  894.768148624654 432.50705729189  893.86480591368 430.736859301005  L 892.083355703525 431.645944087335  C 892.998237488725 433.438754145339  893.947170741159 435.21398272861  894.929639562769 436.970664714495  L 896.675190620429 435.994421145961  Z M 900.745842385447 442.816920810646  C 899.877457540512 441.444895005299  899.029475947585 440.060061288502  898.202177548222 438.662876831151  C 898.019104152532 438.35011454017  897.837117199389 438.036717572555  897.656219979331 437.722691594896  L 895.923200345741 438.721011658598  C 896.107245507744 439.040502261678  896.292404430074 439.359349980006  896.478673734116 439.677548995537  C 897.316862262256 441.093223016194  898.176029031471 442.496370865713  899.055889828677 443.886528381611  L 900.745842385447 442.816920810646  Z M 905.159390619415 449.430211421802  C 904.016148230872 447.803888753917  902.902540263786 446.156934667867  901.819117732624 444.490164078371  L 900.142240451949 445.580156090066  C 901.238861878216 447.267232266292  902.366036477262 448.934250522681  903.523206521849 450.580386016754  L 905.159390619415 449.430211421802  Z M 909.887954535888 455.822058104021  C 908.66731220958 454.252994405418  907.475270651633 452.661888692391  906.312419685533 451.049528245815  L 904.690282471114 452.219430317613  C 905.867299976565 453.851433494325  907.073863690944 455.461922999728  908.309376605189 457.050101961833  L 909.887954535888 455.822058104021  Z M 914.920443178782 461.977468633003  C 913.625263959534 460.469344178898  912.357584771779 458.937818814157  911.118032864591 457.38365033924  L 909.5544404768 458.630718438761  C 910.809093339642 460.203820714741  912.092216146243 461.75400402876  913.403174006014 463.28050134839  L 914.920443178782 461.977468633003  Z M 920.245052729534 467.882005350917  C 918.878374490173 466.438357482113  917.538031043482 464.970004693846  916.224685592888 463.477673528706  L 914.723305473851 464.798982628865  C 916.052650876761 466.309494256326  917.409323181349 467.795735388123  918.792651104652 469.256970630493  L 920.245052729534 467.882005350917  Z M 925.849294193233 473.521819030262  C 924.414322509196 472.146033856242  923.004458610135 470.744297699886  921.62040009828 469.317304141807  L 920.184753769809 470.709755081535  C 921.585673702384 472.154133120502  923.012713398673 473.57294605711  924.465166757855 474.965491861146  L 925.849294193233 473.521819030262  Z M 931.720022691843 478.883681357547  C 930.220123322416 477.578985814271  928.744045839392 476.247154094423  927.292520607539 474.888845189811  L 925.925975411318 476.349171943208  C 927.395183983439 477.724028571567  928.889243916802 479.072085454414  930.407415948898 480.39267557171  L 931.720022691843 478.883681357547  Z M 937.835218160897 483.980260957486  C 936.282909349881 482.732759688013  934.746692281339 481.465366104937  933.226947291236 480.178393989018  L 931.934457726334 481.704654361503  C 933.467275469861 483.002696932824  935.016706983643 484.280992557965  936.582368660079 485.539224757033  L 937.835218160897 483.980260957486  Z M 944.128623630183 488.862867694614  C 942.5344942261 487.669270817467  940.955765736021 486.4552420984  939.392829020871 485.221082106126  L 938.153377993375 486.79071937328  C 939.729758994528 488.035495534302  941.32206761049 489.259967254134  942.929909618177 490.463831378593  L 944.128623630183 488.862867694614  Z M 950.585583287517 493.527036745349  C 948.951504256856 492.388745137867  947.332117236295 491.229506140198  945.727823152963 490.049606756228  L 944.542865357412 491.66077869701  C 946.160959480293 492.850827503291  947.794276368939 494.020038203901  949.442411647443 495.168121326146  L 950.585583287517 493.527036745349  Z M 957.198518855301 497.967293959362  C 955.526408051852 496.885643589287  953.868263111151 495.782554865869  952.224494556015 494.658300891343  L 951.095420730404 496.309116537113  C 952.753328882086 497.443041275546  954.425737084118 498.555618700675  956.112231282399 499.646573361058  L 957.198518855301 497.967293959362  Z M 963.959668993195 502.178427982773  C 962.251488907123 501.154688340266  960.556532145277 500.10904454261  958.875218344328 499.041755469851  L 957.803353637848 500.730277323723  C 959.49912999725 501.80674715179  961.208666673462 502.861385513419  962.931540420128 503.893931301698  L 963.959668993195 502.178427982773  Z M 970.861098407292 506.155496374506  C 969.118853861855 505.190868982206  967.389074582421 504.203897340986  965.672188827024 503.194825804872  L 964.658791244794 504.919072115679  C 966.390445546423 505.936823623413  968.135104281382 506.932285134303  969.892335507811 507.905210192417  L 970.861098407292 506.155496374506  Z M 977.894707163458 509.893831407038  C 976.120442962011 508.989448409876  974.357871338374 508.06230729459  972.607428669277 507.112637602381  L 971.653687595868 508.870584690576  C 973.419187465713 509.828423383376  975.196920622619 510.763539709812  976.986446936178 511.675702154186  L 977.894707163458 509.893831407038  Z M 876.487755081145 336.048694810033  C 876.6282716497 334.063232460463  876.79738973373 332.079897896567  876.995056669399 330.099308734185  L 875.004943330601 329.900691265815  C 874.805368456687 331.900397645751  874.634617996157 333.9028759266  874.492745121175 335.907502531132  L 876.487755081145 336.048694810033  Z M 974.390568229153 517.797212272371  L 984 514  L 981.004076775312 504.11139827722  L 974.390568229153 517.797212272371  Z " fill-rule="nonzero" fill="#009999" stroke="none" />
  </g>
</svg>