<?xml version="1.0" encoding="utf-8"?>
<svg version="1.1" xmlns:xlink="http://www.w3.org/1999/xlink" width="188px" height="14px" viewBox="1204 460  188 14" xmlns="http://www.w3.org/2000/svg">
  <g transform="matrix(0.866025403784439 -0.500000000000002 0.500000000000002 0.866025403784441 -59.6009741122023 711.566136432668 )">
    <path d="M 1125.00971997594 308.50456539494  C 1123.96070591162 306.807389617717  1122.92393883499 305.102674518712  1121.89949954378 303.390552950436  L 1120.18326181903 304.417455123076  C 1121.21263576541 306.137823865788  1122.25439687931 307.850750462758  1123.30846397382 309.556101421546  L 1125.00971997594 308.50456539494  Z M 1129.27074171248 315.252495391983  C 1128.18930128032 313.575795443383  1127.11996066584 311.891322175506  1126.06280320531 310.19920686337  L 1124.36661983427 311.258905863945  C 1125.42886955119 312.959171981728  1126.50336110748 314.65175924403  1127.59001076546 316.336535743507  L 1129.27074171248 315.252495391983  Z M 1133.66067324999 321.917280953436  C 1132.54720599061 320.261676294037  1131.44568690859 318.598067189739  1130.35620184794 316.926583289561  L 1128.68069948938 318.018687609885  C 1129.77543252629 319.698222935585  1130.88225755164 321.369845533037  1132.00108830792 323.033425128723  L 1133.66067324999 321.917280953436  Z M 1138.17789271838 328.496459759234  C 1137.03281000477 326.862562055914  1135.89951941391 325.22043173933  1134.77810926586 323.570196784611  L 1133.12390693791 324.694302944278  C 1134.25071884322 326.352486969779  1135.38946841862 328.002527317641  1136.54006691865 329.644295396301  L 1138.17789271838 328.496459759234  Z M 1142.82073122071 334.987601116924  C 1141.64445610625 333.376014016865  1140.47981270334 331.755969176767  1139.32689177539 330.127592850523  L 1137.69460062683 331.283285545977  C 1138.85307509734 332.919505651449  1140.02332850919 334.547354138591  1141.20526966176 336.166704145303  L 1142.82073122071 334.987601116924  Z M 1147.58747344983 341.388306859684  C 1146.38044051202 339.799625767398  1145.18487457717 338.202264932966  1144.00086881857 336.596348842525  L 1142.39109190304 337.783201100492  C 1143.58080093775 339.396852780725  1144.78212583329 341.001907994851  1145.99497296757 342.598241657103  L 1147.58747344983 341.388306859684  Z M 1152.47635832206 347.696212232336  C 1151.23901350194 346.131024089616  1150.0129667397 344.556937409456  1148.79831358404 342.974074864121  L 1147.21164563726 344.191648199356  C 1148.43214969546 345.782135287087  1149.66410224252 347.363804236946  1150.90740726939 348.936531785654  L 1152.47635832206 347.696212232336  Z M 1157.48557962785 353.908986765008  C 1156.21838006528 352.367869834176  1154.96230544135 350.817638858102  1153.71745364499 349.258414650042  L 1152.15448086502 350.506259227329  C 1153.40532902876 352.072994113534  1154.66745407965 353.630692447924  1155.94075765729 355.179232835366  L 1157.48557962785 353.908986765008  Z M 1162.6132866991 360.024335134131  C 1161.31670056378 358.507858784273  1160.03106213782 356.982056248698  1158.75647161405 355.447046436775  L 1157.2177714447 356.724701237119  C 1158.49850158529 358.26710508805  1159.79033284508 359.800257311827  1161.0931645486 361.324038426253  L 1162.6132866991 360.024335134131  Z M 1167.85795037153 366.040705447881  C 1166.53329302799 364.548083904058  1165.21839540121 363.046829338148  1163.91334157091 361.537037746278  L 1162.4002622972 362.844933426936  C 1163.71100912085 364.361311132948  1165.03164268227 365.869114572229  1166.36207853491 367.368247329859  L 1167.85795037153 366.040705447881  Z M 1173.20826806293 371.964742630065  C 1171.85782463815 370.495409887872  1170.51698914807 369.017275513319  1169.18584733105 367.530434024195  L 1167.69576813561 368.864474500089  C 1169.03271674875 370.357801988878  1170.37940132134 371.842384380351  1171.73573574101 373.318126744379  L 1173.20826806293 371.964742630065  Z M 1178.66091355815 377.794731741407  C 1177.28509342348 376.349133212128  1175.91872652895 374.894567108359  1174.5619002455 373.43112644084  L 1173.09527282867 374.790907312968  C 1174.45801795075 376.260731899528  1175.83034530258 377.721643209107  1177.21216713212 379.173547825255  L 1178.66091355815 377.794731741407  Z M 1184.21423395051 383.528905487872  C 1182.81345416998 382.107479388057  1181.42197006938 380.67692249001  1180.03987062576 379.237326269284  L 1178.59713957875 380.62243533574  C 1179.98526810926 382.068311459662  1181.38282223513 383.505108828951  1182.78971259117 384.932735569043  L 1184.21423395051 383.528905487872  Z M 1189.86654581491 389.165525620751  C 1188.44123101876 387.768702839318  1187.0250515245 386.362588803891  1185.61809788822 384.94727342694  L 1184.19970055832 386.357290807868  C 1185.61279170211 387.778780168481  1187.03514894956 389.191028048873  1188.46668134951 390.593944144327  L 1189.86654581491 389.165525620751  Z M 1195.61613571814 394.702883463584  C 1194.16671797414 393.331087431295  1192.72627238467 391.949842505706  1191.29489105754 390.559237009108  L 1189.90125741556 391.993735273983  C 1191.33888281032 393.390406963153  1192.78561200815 394.777677247992  1194.24135249945 396.155457420948  L 1195.61613571814 394.702883463584  Z M 1201.46126073824 400.139300430137  C 1199.98817942069 398.792946991146  1198.52390439051 397.436989883898  1197.06852927928 396.071515813681  L 1195.7000817892 397.530060110879  C 1197.16180563536 398.901490743675  1198.63246822427 400.263362897956  1200.11197551596 401.615589490226  L 1201.46126073824 400.139300430137  Z M 1207.40014899291 405.473128533234  C 1205.90385064942 404.152625819068  1204.41619005666 402.822367572954  1202.93726234152 401.482438856842  L 1201.59441583244 402.964587045464  C 1203.07979502524 404.31036088848  1204.57394519084 405.646422076365  1206.07677078731 406.972685176028  L 1207.40014899291 405.473128533234  Z M 1213.4310001766 410.702750884335  C 1211.91193839279 409.408499190195  1210.40134320458 408.104343057643  1208.89931120545 406.790365879608  L 1207.58247274581 408.295668663505  C 1209.09105700968 409.615377760922  1210.60824181752 410.92522297082  1212.13393015453 412.225120536513  L 1213.4310001766 410.702750884335  Z M 1219.55198610623 415.826582183672  C 1218.01062136818 414.55897384704  1216.47754950407 413.281315167974  1214.95286854463 411.993687845051  L 1213.66243731884 413.521688909025  C 1215.19376934382 414.814933206217  1216.73352887685 416.098165373676  1218.28161745954 417.371303356411  L 1219.55198610623 415.826582183672  Z M 1225.76089652111 420.845611612915  C 1224.64960892281 419.96130341053  1223.54173369532 419.072715438704  1222.43729552368 418.179867496463  C 1221.98954654496 417.817696792194  1221.54248034124 417.454682791104  1221.09609929291 417.090827426062  L 1219.83246648033 418.641063574195  C 1220.28086534767 419.006563709496  1220.72995257597 419.371218544511  1221.17972577313 419.735026136863  C 1222.28823059809 420.631162538108  1223.40018535798 421.523023009963  1224.51556527378 422.410587678041  L 1225.76089652111 420.845611612915  Z M 1232.0451966056 425.77263022156  C 1230.46524717482 424.552243043599  1228.89192117197 423.323304944923  1227.32528786816 422.085870033773  L 1226.08561721992 423.655333854285  C 1227.65791923514 424.897246304228  1229.23693816626 426.13063119679  1230.82260449156 427.355434227966  L 1232.0451966056 425.77263022156  Z M 1238.40002134637 430.608345518785  C 1236.80260590328 429.410911190691  1235.21168966195 428.204831145798  1233.62734266796 426.990158485943  L 1232.41047539675 428.577368000858  C 1234.00055519741 429.796435836497  1235.5972280156 431.006879965615  1237.2004235523 432.208647094252  L 1238.40002134637 430.608345518785  Z M 1244.82404432681 435.351748165473  C 1243.2094962934 434.177516622827  1241.60132187904 432.994546371883  1239.99959188917 431.802889496987  L 1238.80578198671 433.407513414543  C 1240.41330768196 434.603482184825  1242.0273011202 435.790732899436  1243.64769123985 436.969213285586  L 1244.82404432681 435.351748165473  Z M 1251.31592468682 440.001848090553  C 1249.68458106111 438.851064425911  1248.0594841414 437.691450885467  1246.4407054782 436.523058525207  L 1245.27020212357 438.144761918801  C 1246.89483818113 439.317381994047  1248.52581535717 440.481191484155  1250.16306184234 441.636139148417  L 1251.31592468682 440.001848090553  Z M 1257.8743074027 444.557674697645  C 1256.22650868839 443.430579109386  1254.58482846319 442.294564320842  1252.94933900772 441.149680348987  L 1251.8023865153 442.78812472709  C 1253.44379383151 443.937151351097  1255.09141431815 445.077276699498  1256.74517543306 446.20845057436  L 1257.8743074027 444.557674697645  Z M 1264.49782356999 449.018277067658  C 1262.83391370539 447.915104809842  1261.1759928359 446.80292588893  1259.52413395721 445.681789272437  L 1258.40097172572 447.336632649242  C 1260.05880769633 448.461825990373  1261.72272759245 449.578029223356  1263.39265815431 450.685193203513  L 1264.49782356999 449.018277067658  Z M 1271.18509068922 453.382724157266  C 1269.50541697543 452.303705490536  1267.83160151271 451.215594577822  1266.16371799655 450.118439326962  L 1265.06458045906 451.789336293764  C 1266.73849905074 452.890461495006  1268.41837105314 453.982509632027  1270.10412250415 455.065432623659  L 1271.18509068922 453.382724157266  Z M 1277.93471295439 457.650104993242  C 1276.23962598286 456.595465136761  1274.55026529558 455.531649349194  1272.86670527248 454.458704468703  L 1271.79182184747 456.145306265999  C 1273.48147367002 457.222133493982  1275.17694714588 458.289798596291  1276.87816762602 459.348254565303  L 1277.93471295439 457.650104993242  Z M 1284.74528154442 461.819528862602  C 1283.03513512372 460.789487947041  1281.33058182524 459.750189330549  1279.63169669781 458.701678771834  L 1278.58129174132 460.403633362115  C 1280.28632412061 461.455937855088  1281.99704518067 462.498997073305  1283.71337960113 463.532765092502  L 1284.74528154442 461.819528862602  Z M 1291.61537491711 465.89012549852  C 1289.89052599914 464.884898520116  1288.1711358739 463.870334003256  1286.4572802435 462.846476617646  L 1285.43157300226 464.563428758877  C 1287.15163005385 465.590990873618  1288.87724162629 466.60922649425  1290.60833174359 467.618090789454  L 1291.61537491711 465.89012549852  Z M 1298.54279432436 469.866431724971  C 1297.1441457637 469.07447253595  1295.74820350555 468.277743344992  1294.3549919278 467.476258065703  C 1294.0171325465 467.281940199707  1293.67947879273 467.087265028668  1293.34203123335 466.892232879403  L 1292.34123579906 468.623824199171  C 1292.67987515745 468.819545163976  1293.01872142056 469.014907920655  1293.35777401975 469.20991214137  C 1294.75489993516 470.013648991066  1296.15476414488 470.812616489697  1297.55734220357 471.606800685177  L 1298.54279432436 469.866431724971  Z M 1305.51653502136 473.763288602702  C 1303.76760859024 472.798938910903  1302.02277860794 471.827178564115  1300.28209211997 470.848033763729  L 1299.30156305981 472.591181136212  C 1301.04717653908 473.573097393689  1302.79694524082 474.547608295977  1304.55082198629 475.514687567498  L 1305.51653502136 473.763288602702  Z M 1312.53388674312 477.581053347648  C 1310.77416943224 476.636538141136  1309.01846452566 475.684566440007  1307.26681936212 474.725163912093  L 1306.30606048495 476.479285452905  C 1308.06266365819 477.441403557656  1309.82333806553 478.396069802771  1311.58803623421 479.343258447742  L 1312.53388674312 477.581053347648  Z M 1319.59395250979 481.319237961182  C 1317.82366925172 480.394677970845  1316.05731384056 479.462616599374  1314.29493390221 478.523078977762  L 1313.35406801523 480.287950469604  C 1315.12143634792 481.230147440684  1316.89279140597 482.164847000202  1318.66808542862 483.092023946009  L 1319.59395250979 481.319237961182  Z M 1326.6958298817 484.977364616861  C 1324.91520695958 484.072878022847  1323.1384268249 483.160846120032  1321.36553738465 482.241293499359  L 1320.44468475228 484.016689350839  C 1322.22259233388 484.938844753685  1324.00440162249 485.853458151386  1325.79006457549 486.760504883374  L 1326.6958298817 484.977364616861  Z M 1333.83861107468 488.554965721498  C 1332.04787609329 487.670668138111  1330.26089834869 486.778782282722  1328.47772602282 485.879332203079  L 1327.57700435132 487.665025477548  C 1329.3652239241 488.567021439362  1331.15725968688 489.461431766526  1332.95306332118 490.348232343133  L 1333.83861107468 488.554965721498  Z M 1341.0213830761 492.051583974936  C 1339.22076493279 491.187588435857  1337.42381799535 490.315962631532  1335.63059071452 489.43673006344  L 1334.75011513694 491.232492508001  C 1336.54841812513 492.114213732862  1338.35045129839 492.988306663119  1340.15616606879 493.854747730746  L 1341.0213830761 492.051583974936  Z M 1348.24322776158 495.466772428495  C 1346.432956617 494.623189372337  1344.6262701781 493.771935033011  1342.82321715821 492.913032362726  L 1341.96310021971 494.718634437409  C 1343.7712567586 495.579968220954  1345.58305700082 496.433632025012  1347.39845209521 497.279602832453  L 1348.24322776158 495.466772428495  Z M 1355.50322201237 498.800094542112  C 1353.68352926103 497.977031798298  1351.86733425697 497.146257733962  1350.05468596992 496.307794749108  L 1349.21503761332 498.123005656212  C 1351.03281657869 498.963841900062  1352.85415229989 499.796967459947  1354.67899566881 500.622359872568  L 1355.50322201237 498.800094542112  Z M 1362.8004378333 502.051124240133  C 1360.97155607401 501.248687015115  1359.14608465652 500.438499417908  1357.32407280067 499.620583293446  L 1356.50500035246 501.445171007036  C 1358.33216939005 502.265402232842  1360.16280778154 503.077883055903  1361.99686616773 503.882591569434  L 1362.8004378333 502.051124240133  Z M 1370.13394247143 505.219445965776  C 1368.29610547758 504.43773682959  1366.46159098413 503.648239260224  1364.63044845472 502.850974544749  L 1363.8320566113 504.68470584032  C 1365.66838216672 505.484227203594  1367.50808923044 506.27595943593  1369.35112819889 507.059881190043  L 1370.13394247143 505.219445965776  Z M 1373.83398909624 506.780828756279  C 1373.2132468727 506.520957407531  1372.59287621035 506.260199417457  1371.97287900829 505.998555584309  L 1371.1952698226 507.841196068593  C 1373.04051717095 508.619905372005  1374.88905774984 509.390787811946  1376.74084171753 510.153822603302  L 1373.83398909624 506.780828756279  Z M 1120.87918228448 301.675984000268  C 1119.86298214861 299.958959419854  1118.85917164575 298.234632300538  1117.86782900527 296.50313702331  L 1116.13217099473 297.49686297669  C 1117.12828886603 299.236698750218  1118.13693465655 300.969331837259  1119.15802976013 302.6946272096  L 1120.87918228448 301.675984000268  Z M 1369.6320409356 514.359052989786  L 1379 510  L 1375.42431700347 500.305955895069  L 1369.6320409356 514.359052989786  Z " fill-rule="nonzero" fill="#027db4" stroke="none" />
  </g>
</svg>