<?xml version="1.0" encoding="utf-8"?>
<svg version="1.1" xmlns:xlink="http://www.w3.org/1999/xlink" width="170px" height="14px" viewBox="1314 328  170 14" xmlns="http://www.w3.org/2000/svg">
  <g transform="matrix(0.866025403784438 -0.500000000000001 0.500000000000001 0.866025403784441 19.9304601055705 744.381489732214 )">
    <path d="M 1340.4871252529 300.938786397189  C 1338.61893064445 300.212468381266  1336.74595180706 299.498516607231  1334.86831167913 298.796977937391  L 1334.16831906916 300.670480098049  C 1336.03769692645 301.368931753361  1337.9024340045 302.079741890881  1339.76240790588 302.802863854522  L 1340.4871252529 300.938786397189  Z M 1347.93386484523 303.909805915832  C 1346.07877263285 303.150647277039  1344.21867880415 302.403768565739  1342.35370545179 301.669218805492  L 1341.62077450168 303.530082105782  C 1343.47754132162 304.261399591204  1345.32945008951 305.004991775995  1347.17637924993 305.760809852325  L 1347.93386484523 303.909805915832  Z M 1355.3270391661 307.011718389998  C 1353.48562659653 306.219955354789  1351.63899657961 305.440382111545  1349.78727032427 304.673049829831  L 1349.02162909923 306.520695227225  C 1350.865207114 307.284650979601  1352.70371131556 308.060793829006  1354.53702102837 308.84907283105  L 1355.3270391661 307.011718389998  Z M 1362.66434769062 310.243558601428  C 1360.83718775393 309.419437541724  1359.00459616236 308.607412345378  1357.16669320341 307.80753631203  L 1356.36857994707 309.641388877002  C 1358.19839549277 310.437745177167  1360.02292304294 311.246197179775  1361.84204283942 312.066691819735  L 1362.66434769062 310.243558601428  Z M 1369.94350727758 313.604320902407  C 1368.13116852887 312.748098258938  1366.31318560791 311.903873786363  1364.48967784332 311.071702897816  L 1363.65934090359 312.891191992734  C 1365.4748245988 313.719701039486  1367.2848077616 314.560210630291  1369.08917158849 315.412665595864  L 1369.94350727758 313.604320902407  Z M 1377.16225287992 317.092959528696  C 1375.36529926237 316.204901731195  1373.56249071154 315.328740678685  1371.75394555996 314.464533880518  L 1370.89164331176 316.269093337216  C 1372.69223023467 317.12949732442  1374.48710579988 318.001802963094  1376.27615219553 318.885952996927  L 1377.16225287992 317.092959528696  Z M 1384.31833824952 320.708388924936  C 1382.53732891899 319.788772309258  1380.75025571594 318.88094731074  1378.95723594014 317.984973517122  L 1378.063236705 319.77404181307  C 1379.84836656919 320.666073009885  1381.62757602761 321.569903262163  1383.40074829667 322.485473244385  L 1384.31833824952 320.708388924936  Z M 1391.40953663616 324.449484082443  C 1389.6450257871 323.498594804546  1387.87424401321 322.55938834681  1386.09730754492 321.631926356791  L 1385.17188950746 323.404946789825  C 1386.9410068363 324.328327624008  1388.70399655352 325.263401246151  1390.46074294018 326.210106279985  L 1391.40953663616 324.449484082443  Z M 1398.43364148042 328.315080889273  C 1396.68617817348 327.333214836195  1394.93223884073 326.362919170951  1393.17193860707 325.404257581729  L 1392.21538972849 327.160678443277  C 1393.96794402792 328.115121587559  1395.71416541662 329.081147613867  1397.45393927627 330.05869311428  L 1398.43364148042 328.315080889273  Z M 1405.38824516706 332.307251176409  C 1404.61877709599 331.855356161773  1403.84781948259 331.406002277763  1403.07538492693 330.959196868357  C 1402.11193216327 330.402852593164  1401.14643992043 329.850047697575  1400.17892772241 329.300793360303  L 1399.19154565082 331.040068107063  C 1400.15458542034 331.586783457476  1401.11561502173 332.137032164834  1402.07461502987 332.690803107047  C 1402.84302508279 333.135282476418  1403.60996629192 333.582296336959  1404.37542612987 334.03183738704  L 1405.38824516706 332.307251176409  Z M 1412.26303396514 336.436658692613  C 1410.5545933876 335.387340280487  1408.83839411226 334.350706817854  1407.11457773029 333.326843829823  L 1406.09324430433 335.046401340645  C 1407.80855870752 336.065214567288  1409.51629357215 337.096735283691  1411.21630800541 338.140878386559  L 1412.26303396514 336.436658692613  Z M 1419.05481619656 340.701212781147  C 1417.36746078084 339.618313876311  1415.67209733022 338.547944006228  1413.96886571681 337.490191479351  L 1412.91372647971 339.189215078459  C 1414.60855763979 340.241750698455  1416.29555944342 341.306841432068  1417.97459270829 342.384399406389  L 1419.05481619656 340.701212781147  Z M 1425.76093546896 345.099245495589  C 1424.09532517117 343.983189639947  1422.42146063342 342.879502003978  1420.73947995415 341.788273644942  L 1419.65094759048 343.466098812606  C 1421.32463262748 344.551945159695  1422.99024155231 345.650189333724  1424.64763694765 346.760740726531  L 1425.76093546896 345.099245495589  Z M 1432.37876889438 349.629036683544  C 1430.73555516567 348.480260387298  1429.08384422036 347.343686658205  1427.42377232914 346.219409266719  L 1426.30227258416 347.875379774309  C 1427.95415688872 348.994112153782  1429.59772148414 350.125080224518  1431.23283077178 351.268190678499  L 1432.37876889438 349.629036683544  Z M 1438.90572811506 354.288814659427  C 1437.2855536469 353.107767230353  1435.6566423089 351.938751943262  1434.01912849073 350.781865245122  L 1432.86510000385 352.415333411773  C 1434.4945374933 353.566514266605  1436.1154149306 354.72976389137  1437.72759858889 355.90498631478  L 1438.90572811506 354.288814659427  Z M 1445.33926031587 359.076756897402  C 1443.74275878861 357.863900265117  1442.13728415544 356.662900643648  1440.52296887244 355.473857118762  L 1439.33686300566 357.084184064692  C 1440.94321637669 358.26736314663  1442.54077270057 359.462439356876  1444.1294001745 360.669314098359  L 1445.33926031587 359.076756897402  Z M 1451.6768492227 363.990990744208  C 1450.10464505779 362.746799279499  1448.52323506044 361.514285056943  1446.93274970133 360.293549762347  L 1445.71503036271 361.880105658737  C 1447.29767134065 363.094820204436  1448.87128171711 364.321255583629  1450.43573166493 365.559310612027  L 1451.6768492227 363.990990744208  Z M 1457.91601608665 369.029594151585  C 1456.36872420238 367.754554480883  1454.8119973597 366.49100771646  1453.2459639929 365.239058104441  L 1451.99710745513 366.80122241977  C 1453.55541703964 368.046997331779  1455.10446600041 369.304312198232  1456.64412653664 370.573063287196  L 1457.91601608665 369.029594151585  Z M 1464.05432065351 374.190596428026  C 1462.53254622451 372.885207243045  1461.00111140135 371.591122133428  1459.46014253162 370.308447864749  L 1458.18063724573 371.845609607499  C 1459.71400595295 373.121957640079  1461.23788763616 374.409660234561  1462.75215657093 375.708611151942  L 1464.05432065351 374.190596428026  Z M 1470.08849542043 379.474449364567  C 1469.48123964308 378.931247439293  1468.87234812918 378.389876910195  1468.26182917458 377.850345153185  C 1467.36895927691 377.062865437415  1466.47262580624 376.279321558869  1465.57285483669 375.499736310648  L 1464.26320124098 377.01129426827  C 1465.15828504844 377.786818435894  1466.04995021785 378.566279516224  1466.93817082523 379.349654847456  C 1467.54543004143 379.886308541089  1468.15107115781 380.424790445016  1468.75508592956 380.965093228703  L 1470.08849542043 379.474449364567  Z M 1476.01255104494 384.880029112441  C 1474.5449419813 383.51402692601  1473.06722224693 382.1589279351  1471.57951375777 380.814843939098  L 1470.2387504638 382.298876886689  C 1471.71912147424 383.636331769671  1473.18955299511 384.984747320863  1474.64992371176 386.344012292279  L 1476.01255104494 384.880029112441  Z M 1481.82854876232 390.401704402109  C 1480.38824042337 389.006946277658  1478.93760777201 387.622889270367  1477.47677048948 386.249647568791  L 1476.10692152713 387.706875697926  C 1477.56055386156 389.073344478718  1479.00403189471 390.450575223382  1480.4372365357 391.838454306598  L 1481.82854876232 390.401704402109  Z M 1487.53421382767 396.037315603664  C 1486.12176954478 394.61434705703  1484.69879134586 393.201873363813  1483.26539663059 391.800011057026  L 1481.86699777326 393.22986441868  C 1483.29332288903 394.624812645926  1484.70928286337 396.030319923502  1486.1147608757 397.446270293195  L 1487.53421382767 396.037315603664  Z M 1493.12731464926 401.784658524748  C 1491.74328685566 400.334036105395  1490.34851966243 398.893698170985  1488.94312814174 397.463763553408  L 1487.51672632925 398.865682905338  C 1488.91518636408 400.288564988841  1490.30307447132 401.721799079291  1491.6802761464 403.165266930935  L 1493.12731464926 401.784658524748  Z M 1498.60566366134 407.641485272647  C 1497.25059367604 406.163776345974  1495.8845830079 404.696137513346  1494.50774435655 403.238689858994  L 1493.05389748116 404.612126884466  C 1494.42394547132 406.06238630858  1495.78321888261 407.522786647393  1497.13160557125 408.993207413865  L 1498.60566366134 407.641485272647  Z M 1503.9671181797 413.605505133486  C 1502.64153599579 412.101287658958  1501.30481612489 410.606921948918  1499.9570688501 409.122531292697  L 1498.47634553838 410.466948814944  C 1499.81744563262 411.944018356233  1501.14757271085 413.431013753675  1502.46661703393 414.927812326064  L 1503.9671181797 413.605505133486  Z M 1509.20958123978 419.674385468171  C 1507.91400531709 418.144247773201  1506.60709905946 416.623739660011  1505.28897029025 415.112986574694  L 1503.78194968062 416.42785876702  C 1505.09357734974 417.931160716104  1506.39403785748 419.444169580637  1507.68322391224 420.966760533171  L 1509.20958123978 419.674385468171  Z M 1514.33100241677 425.845752624725  C 1513.06593947915 424.290293174644  1511.7893579901 422.744237357269  1510.50136327116 421.207712726508  L 1508.96863478741 422.492525317941  C 1510.25027702945 424.021471705488  1511.52056233238 425.559902271165  1512.77938589418 427.107690090223  L 1514.33100241677 425.845752624725  Z M 1519.32937862757 432.11719286667  C 1518.09532346466 430.537020030581  1516.84956603899 428.966021200245  1515.59220912899 427.404325987381  L 1514.03437224974 428.658576463821  C 1515.28552779056 430.21256929044  1516.5251410565 431.775819848493  1517.75310977602 433.348199165452  L 1519.32937862757 432.11719286667  Z M 1524.20205714117 438.48697309709  C 1523.76016849811 437.897286775047  1523.31684644772 437.308675955587  1522.87209492296 436.721145860615  C 1522.10596302864 435.710621061233  1521.33509515314 434.703695611908  1520.55951673924 433.700402746615  L 1518.97718076347 434.923600547371  C 1519.74878278047 435.921749521908  1520.515699329 436.923511749296  1521.27790510655 437.928854178864  C 1521.72054936773 438.513602507475  1522.16177140225 439.099426077597  1522.6015672987 439.686319695928  L 1524.20205714117 438.48697309709  Z M 1528.95318356676 444.945121842993  C 1527.77966886544 443.320144242825  1526.59541761147 441.702947338157  1525.40050753665 440.093637278425  L 1523.79474409496 441.285913995183  C 1524.98439614921 442.888142530051  1526.16343628511 444.498223204978  1527.33178711296 446.116050337647  L 1528.95318356676 444.945121842993  Z M 1533.58965363224 451.486072299011  C 1532.44498496272 449.840647553746  1531.28944416507 448.202812908292  1530.12310708654 446.572675866639  L 1528.4965625617 447.736442556628  C 1529.65776735079 449.359406427432  1530.8082233664 450.990034029917  1531.94785509503 452.628218333112  L 1533.58965363224 451.486072299011  Z M 1538.11002461296 458.107789125698  C 1536.99455816037 456.442429240125  1535.86808738722 454.78446649684  1534.73068623266 453.134009721  L 1533.08386675453 454.268904256383  C 1534.21626294779 455.912098447464  1535.33777685714 457.562765577139  1536.44833486876 459.220797299079  L 1538.11002461296 458.107789125698  Z M 1542.51288991069 464.808211851634  C 1541.42697277335 463.123435033725  1540.32992254722 461.445860098822  1539.22181124032 459.775597159383  L 1537.55522924767 460.881266396433  C 1538.65846447879 462.544179597083  1539.75068730179 464.214372617922  1540.83182602543 465.891735830922  L 1542.51288991069 464.808211851634  Z M 1546.79687949128 471.585255514584  C 1545.7408495727 469.881586014264  1544.67356126132 468.184920896634  1543.59508461173 466.495371527258  L 1541.9092586928 467.571471416248  C 1542.98298966945 469.253586179848  1544.04558154046 470.942785379916  1545.09696455954 472.638958140964  L 1546.79687949128 471.585255514584  Z M 1550.96066031102 478.436811310269  C 1549.93484621468 476.714779256244  1548.89765192487 474.999551905113  1547.84914552082 473.29124184076  L 1546.14460025199 474.337437533023  C 1547.18849286261 476.038230437983  1548.22112313626 477.745910191303  1549.24242329321 479.460364704402  L 1550.96066031102 478.436811310269  Z M 1555.00293673137 485.360747248564  C 1554.00765765861 483.620888483435  1553.0008801328 481.887632623928  1551.98267023673 480.161093437347  L 1550.25993601923 481.177059389464  C 1551.27366543707 482.896001202188  1552.27601279105 484.621630132123  1553.26691228918 486.353832912607  L 1555.00293673137 485.360747248564  Z M 1558.9224509222 492.354908816903  C 1557.95801657276 490.597764730356  1556.98196908868 488.847019697573  1555.9943725357 487.10278863381  L 1554.2539854306 488.088208708917  C 1555.23723621474 489.82476454841  1556.20898874986 491.567805693143  1557.16917925221 493.317217733622  L 1558.9224509222 492.354908816903  Z M 1562.71798325314 499.417119650699  C 1561.78469372885 497.64323701107  1560.839680002 495.875547582196  1559.88300410129 494.114167391459  L 1558.1255056627 495.068734957611  C 1559.07797185618 496.822364461911  1560.01882719345 498.582275441558  1560.94800991871 500.348352379621  L 1562.71798325314 499.417119650699  Z M 1564.17253588204 502.205118898738  C 1563.99789878898 501.867542475813  1563.8228383281 501.530185240064  1563.64735491285 501.193047988255  L 1561.87329201937 502.116466013845  C 1562.79467724449 503.886623508267  1563.70434261909 505.662856693441  1564.60222843464 507.445048981149  L 1564.17253588204 502.205118898738  Z M 1332.98913758183 298.099584322532  C 1331.10842190111 297.406332936951  1329.22314086755 296.725530259679  1327.333418227 296.05722097716  L 1326.666581773 297.94277902284  C 1328.54798897564 298.608147511707  1330.42497411593 299.285954420045  1332.2974139925 299.976155258032  L 1332.98913758183 298.099584322532  Z M 1556.06222300617 505.171468858067  L 1566 508  L 1569.63441963252 498.327823722928  L 1556.06222300617 505.171468858067  Z " fill-rule="nonzero" fill="#009999" stroke="none" />
  </g>
</svg>