<?xml version="1.0" encoding="utf-8"?>
<svg version="1.1" xmlns:xlink="http://www.w3.org/1999/xlink" width="836px" height="48px" viewBox="166 668  836 48" xmlns="http://www.w3.org/2000/svg">
  <g transform="matrix(0.997564050259824 -0.0697564737441252 0.0697564737441259 0.997564050259823 -46.8488851826725 42.4234578867714 )">
    <path d="M 222.429895781893 661.242466094029  C 215.864603228832 660.095874119404  209.302779475807 658.929507959664  202.74451383568 657.743383490197  L 202.388569542059 659.711454540702  C 208.950787493397 660.898293823093  215.516565702357 662.065362888574  222.085814801367 663.212645852031  L 222.429895781893 661.242466094029  Z M 248.051766797983 665.613858055327  C 241.477695546565 664.518720326629  234.906938118254 663.403781851806  228.339583947507 662.269057806266  L 227.999064415838 664.239856235469  C 234.570376374959 665.375264117684  241.145093643048 666.490874505566  247.723126730862 667.586672214411  L 248.051766797983 665.613858055327  Z M 273.70708853297 669.784446589195  C 267.124641839807 668.740830282684  260.545353789552 667.677387883627  253.969313932772 666.594133866519  L 253.644240050681 668.567538784721  C 260.224242930229 669.651445620307  266.807495961206 670.715528898526  273.39390953819 671.759774136015  L 273.70708853297 669.784446589195  Z M 299.394287277387 673.753975869774  C 292.803868912847 672.761945001365  286.21645381726 671.750063910129  279.632131651815 670.718346368762  L 279.322523359488 672.694236726379  C 285.910813539 673.726576027984  292.502198513038 674.739066925173  299.096588565493 675.731695636813  L 299.394287277387 673.753975869774  Z M 325.111787366415 677.522202404277  C 318.51380158985 676.581817825608  311.918663524066 675.621560111455  305.326462935364 674.641442331867  L 305.032339224319 676.619696926858  C 311.628512574986 677.600405370304  318.227625173438 678.561241779796  324.829587198386 679.502193077277  L 325.111787366415 677.522202404277  Z M 350.85801127654 681.088895047922  C 344.252862811493 680.200214442624  337.650406324371 679.291639008211  331.050731681089 678.363181111287  L 330.772110593012 680.343678596587  C 337.375762502466 681.272696024759  343.982197932673 682.181819008398  350.591326962668 683.071035173325  L 350.85801127654 681.088895047922  Z M 376.631379722312 684.453835018109  C 370.019473731687 683.616912898267  363.410103821006 682.760075476039  356.803359950281 681.883334413821  L 356.54025857592 683.865953304786  C 363.150983973058 684.743222731318  369.764336993169 685.600576523074  376.380227621137 686.438003010511  L 376.631379722312 684.453835018109  Z M 402.430311753226 687.616815907842  C 395.812053814684 686.831703610681  389.1961759018 686.026656759386  382.582768064645 685.201686311613  L 382.335202542762 687.18630499347  C 388.952595922587 688.011772606245  395.572460866429 688.817304615634  402.194707270535 689.602890057448  L 402.430311753226 687.616815907842  Z M 428.253224850691 690.57764369839  C 421.629020930783 689.844389383009  415.007040837736 689.091182484718  408.387374703198 688.318033255403  L 408.155360219578 690.304529990711  C 414.779015668323 691.078145155187  421.404986469781 691.831805970443  428.033182438574 692.565502178481  L 428.253224850691 690.57764369839  Z M 454.098535025109 693.336136771189  C 447.468791455857 692.654785415779  440.841115377518 691.953464672497  434.215596999267 691.232184087006  L 433.999147785788 693.220437023125  C 440.628659004829 693.942152285327  447.260329224735 694.643895676654  453.89406818107 695.325657645593  L 454.098535025109 693.336136771189  Z M 479.964656913031 695.892125918978  C 473.329780366016 695.262719317952  466.696814847144 694.613327749022  460.065850637585 693.943960051046  L 459.864979971342 695.933847227607  C 466.499940303846 696.603618317237  473.13690315145 697.25340123926  479.775778179163 697.883187149552  L 479.964656913031 695.892125918978  Z M 505.850003874414 698.245454356187  C 499.210401336074 697.66803111764  492.572553245884 697.070608557045  485.936549951471 696.453194805911  L 485.751270153965 698.444594162303  C 492.391272607859 699.062379995238  499.033120969737 699.660162590066  505.676724836627 700.2379338103  L 505.850003874414 698.245454356187  Z M 531.752988089934 700.395977728543  C 525.109066836603 699.870573271888  518.466743343808 699.325156365809  511.826108020096 698.759734433967  L 511.656430456477 700.752523816818  C 518.301067731144 701.31828649781  524.947394192708 701.864032097131  531.595319377245 702.389753186572  L 531.752988089934 700.395977728543  Z M 557.672020658392 702.343564121936  C 551.024188231313 701.870210675728  544.377796779156 701.376832880294  537.732936765828 700.863437450989  L 537.578871844198 702.857494621665  C 544.227736354471 703.371199446566  550.878133226938 703.864874574088  557.529971942274 704.338513284759  L 557.672020658392 702.343564121936  Z M 583.605511694176 704.088094070502  C 576.954175874758 703.66682067048  570.304124155508 703.225512249683  563.655447051643 702.76417481485  L 563.517004222415 704.759377456948  C 570.169688123827 705.220992914863  576.823747468735 705.662567288322  583.479091687964 706.084094567002  L 583.605511694176 704.088094070502  Z M 609.551786195288 705.619332494485  C 602.89723878931 705.254638760542  596.243878737449 704.868592929344  589.591808797656 704.461200963183  L 589.46955208311 706.457460789896  C 596.125892406789 706.865114286694  602.78352367071 707.251407945094  609.442343051016 707.616335798981  L 609.551786195288 705.619332494485  Z M 635.510130744115 706.933361258373  C 628.852772377775 706.624197418151  622.196423189095 706.29367231796  615.541185982195 705.941791062602  L 615.43558781197 707.939001373622  C 622.095097436274 708.291108523799  628.755719755434 708.621845808904  635.417351900884 708.931208120935  L 635.510130744115 706.933361258373  Z M 661.478534517253 708.030780404912  C 654.818828559953 707.777167977016  648.15995353436 707.502186613269  641.502012282116 707.205840560563  L 641.413080006124 709.203862344801  C 648.075295411422 709.500398640757  654.738445189484 709.77555653241  661.402426432713 710.029331770143  L 661.478534517253 708.030780404912  Z M 687.455190045509 708.91151355084  C 680.793600030544 708.713470187375  674.132662642755 708.494051699473  667.472480755635 708.253261475897  L 667.400220563797 710.251955665781  C 674.064678042127 710.492900467802  680.729891506842 710.712459814308  687.395758016983 710.91063031431  L 687.455190045509 708.91151355084  Z M 713.438289285341 709.575499394816  C 706.775278877144 709.433038880126  700.112742745423 709.26919854016  693.45078378985 709.083980905354  L 693.395200711664 711.083208386512  C 700.061436399508 711.268544924218  706.728249633993 711.432490443647  713.395537449455 711.57504241274  L 713.438289285341 709.575499394816  Z M 739.426023744711 710.022691721678  C 732.762056705834 709.935823971379  726.098385561208 709.827573183092  719.435113226549 709.697941028676  L 719.396211130744 711.697562649619  C 726.063761040814 711.827278023104  732.731710016841 711.935598304408  739.399955077105 712.022521820604  L 739.426023744711 710.022691721678  Z M 765.416584608958 710.253059405665  C 758.752124769278 710.221790465985  752.087782420289 710.169136763905  745.42366048807 710.095099112626  L 745.401442082334 712.094975694429  C 752.069842135127 712.169060875151  758.738462746902 712.221748378972  765.407200924079 712.253037392158  L 765.416584608958 710.253059405665  Z M 791.408162866695 710.266586412579  C 784.743674090393 710.290918459919  778.079124392297 710.293865508883  771.414616703178 710.275427513955  L 771.40908353397 712.27541985995  C 778.077869591801 712.293869691392  784.7466976848 712.290920750531  791.415464817673 712.266573082912  L 791.408162866695 710.266586412579  Z M 817.39894943572 710.063271800906  C 810.734895588493 710.143203141689  804.070602411972 710.201750736578  797.406172832967 710.238913681332  L 797.417325285411 712.238882586792  C 804.086033182984 712.201695784794  810.754604589731 712.143110604511  817.422936514321 712.063127950748  L 817.39894943572 710.063271800906  Z M 843.387135288938 709.643129721877  C 836.723980206211 709.778654792677  830.060407404092 709.892798858416  823.396519796777 709.985560156217  L 823.424357094633 711.985366418045  C 830.092522672341 711.892545570907  836.760373242729 711.778328228884  843.427805825597 711.64271615598  L 843.387135288938 709.643129721877  Z M 869.370911580267 709.006189418486  C 862.709119035405 709.197298786399  856.046730409384 709.367031378264  849.383848598111 709.515384572681  L 849.428368803828 711.514888999103  C 856.095527939564 711.366440567406  862.762193574152 711.196599013456  869.428262744208 711.005366960375  L 869.370911580267 709.006189418486  Z M 895.348469770546 708.152495223452  C 888.688503442077 708.399175586754  882.027762711427 708.624484890929  875.36635045054 708.828419656181  L 875.427550465396 710.827483076431  C 882.093239107597 710.623417392571  888.75825578843 710.397963448123  895.422497569977 710.151124725113  L 895.348469770546 708.152495223452  Z M 921.318001753408 707.082106556138  C 914.660325192007 707.384340745246  908.001695962791 707.665211079575  901.342216903605 707.924713221282  L 901.420092467919 709.923196495288  C 908.083846667373 709.663527762765  914.746750491266 709.382477120027  921.408701035799 709.080048907702  L 921.318001753408 707.082106556138  Z M 947.277699981129 705.795097918408  C 940.622776579091 706.152864897005  933.966722308421 706.489276712218  927.309639968689 706.804328168328  L 927.404185662115 708.802092196399  C 934.065541603759 708.486838488847  940.725868815581 708.150210709666  947.385064433572 707.792214057833  L 947.277699981129 705.795097918408  Z M 973.225757590444 704.29155888945  C 966.574050547689 704.704833756024  959.921034514947 705.096763636952  953.266812244857 705.467342479065  L 953.378021486768 707.464248211571  C 960.036515522461 707.09343147149  966.693802546415 706.701249986017  973.349779740091 706.287709812201  L 973.225757590444 704.29155888945  Z M 999.159906609732 702.569434959428  C 996.696356196482 702.743910808414  994.232596388685 702.915417376177  991.768632555846 703.083954288938  C 987.583627014979 703.369038965183  983.398049975004 703.645671170117  979.211927044655 703.913849211214  L 979.339792094594 705.909757658264  C 983.528695146031 705.641401512644  987.717051931852 705.364585401191  991.904836826193 705.079311017567  C 994.370496699287 704.910658319074  996.835952399428 704.739033809655  999.301198553068 704.564437863373  L 999.159906609732 702.569434959428  Z M 1025.07843678511 700.623639794657  C 1018.43480304511 701.150658020939  1011.78947281405 701.656067268387  1005.14255153112 702.139859517846  L 1005.2877362975 704.134582903083  C 1011.93898263847 703.650475856823  1018.5886368932 703.144737746628  1025.23659355208 702.617376597011  L 1025.07843678511 700.623639794657  Z M 1050.9795865197 698.458745408885  C 1044.3406468115 699.04192379477  1037.69982794523 699.603508320113  1031.05723528995 700.14349007432  L 1031.21928237715 702.136914449994  C 1037.86619727413 701.596581337246  1044.51133722811 701.034631396729  1051.15459680109 700.451073544862  L 1050.9795865197 698.458745408885  Z M 1076.86150371754 696.074906605748  C 1070.22773276682 696.714203450338  1063.59190012684 697.331923096649  1056.9541110861 697.928055743535  L 1057.13300890673 699.920038567199  C 1063.77511706354 699.323518025175  1070.41526754675 698.705396437354  1077.05335499902 698.06568361129  L 1076.86150371754 696.074906605748  Z M 1102.72233765791 693.472293844792  C 1096.09420982148 694.167663434298  1089.4638379113 694.841474030759  1082.83132712922 695.493714943051  L 1083.02706289096 697.484113775339  C 1089.66388935462 696.83144845905  1096.29857555481 696.157199423485  1102.93101622089 695.461377366757  L 1102.72233765791 693.472293844792  Z M 1128.5602391277 690.651093229285  C 1121.93822835884 691.402485840358  1115.31379129147 692.132339205304  1108.68703303476 692.840641743626  L 1108.89959274126 694.829314258438  C 1115.53066293672 694.12055083758  1122.15941043188 693.39022256734  1128.78573005035 692.638341035625  L 1128.5602391277 690.651093229285  Z M 1154.37336055358 687.611506492906  C 1147.75794036769 688.418868396249  1141.13991183276 689.204712340501  1134.51937995627 689.969025856768  L 1134.74874840818 691.955829851447  C 1141.37358817199 691.191019007085  1147.99592296477 690.404663725259  1154.61564771187 689.596776482839  L 1154.37336055358 687.611506492906  Z M 1180.15985613417 684.353750985325  C 1173.55149957538 685.21702444949  1166.94035280426 686.058802780174  1160.32652071764 686.879072621168  L 1160.57268151365 688.863866026666  C 1167.19081712764 688.043062447642  1173.80626567973 687.200736383542  1180.41892220304 686.336901199495  L 1180.15985613417 684.353750985325  Z M 1205.91788197201 680.878059656657  C 1199.31706158008 681.797182952069  1192.71326931058 682.694835476839  1186.10660994513 683.571002988019  L 1186.36954548319 685.553643879059  C 1192.98050370932 684.676906257957  1199.58859297333 683.778669643346  1206.19370842659 682.858948287286  L 1205.91788197201 680.878059656657  Z M 1231.64559620541 677.184681040808  C 1225.05278398047 678.159588444372  1218.45681842599 679.113050975334  1211.85780419937 680.045053505214  L 1212.13749567794 682.025400110437  C 1218.74080379064 681.092791139571  1225.3410612469 680.138708203984  1231.93816332237 679.163166441834  L 1231.64559620541 677.184681040808  Z M 1257.34115914013 673.273879237698  C 1250.75682650995 674.304501037372  1244.16915932372 675.313705395925  1237.57826210718 676.301476300433  L 1237.87468952653 678.279387012536  C 1244.46987534753 677.290973379343  1251.06182903591 676.281112345743  1257.65044599907 675.249819934907  L 1257.34115914013 673.273879237698  Z M 1283.00273338096 669.145933894382  C 1276.42735116695 670.232196394191  1269.84845340883 671.297070415845  1263.26614449318 672.340539063114  L 1263.57928665689 674.315872448978  C 1270.16587858871 673.271724831282  1276.74905714284 672.206157911116  1283.32871786591 671.119188595521  L 1283.00273338096 669.145933894382  Z M 1308.62848396311 664.80114018505  C 1302.06252234667 665.942965710357  1295.49286444943 667.063433249887  1288.91961451139 668.162525025313  L 1289.24944902781 670.135139836111  C 1295.82697608748 669.035332897068  1302.40090876847 667.914136285109  1308.97114276413 666.771567789933  L 1308.62848396311 664.80114018505  Z M 1334.21657848339 660.239808789923  C 1327.66050697229 661.437115692984  1321.10055870802 662.613096629876  1314.53683777651 663.767732941448  L 1314.88334106039 665.737488122749  C 1321.45133291313 664.582100505509  1328.01554964324 663.405354374403  1334.5758870982 662.207268400518  L 1334.21657848339 660.239808789923  Z M 1359.76518723128 655.462265873032  C 1353.21947462608 656.714968538834  1346.66970507254 657.946378783017  1340.1159824951 659.156477066939  L 1340.47912976927 661.123231768794  C 1347.03711676215 659.912346090876  1353.59114815838 658.68013458541  1360.14111996704 657.426616803538  L 1359.76518723128 655.462265873032  Z M 1385.27248331971 650.468853058903  C 1378.73759768 651.776861911334  1372.19847518763 653.063613409093  1365.65521959662 654.329087135734  L 1366.03498489373 656.292700722747  C 1372.58249808922 655.026403570134  1379.12587549689 653.738814801222  1385.66501329486 652.429954845809  L 1385.27248331971 650.468853058903  Z M 1410.73604608076 645.257115878597  C 1404.21240542532 646.620490041305  1397.68450992501 647.963425173539  1391.15245566524 649.28590150837  L 1391.54932256202 651.246130236412  C 1398.08547050911 649.922825095758  1404.61745709062 648.579048335977  1411.14518616051 647.214819736472  L 1410.73604608076 645.257115878597  Z M 1436.15628949607 639.836411593406  C 1429.64396928958 641.252872688423  1423.12722791181 642.648930084852  1416.60616128542 644.024563233535  L 1417.0189802104 645.981494641424  C 1423.54413363831 644.604999373094  1430.06495910643 643.208067057099  1436.58136063301 641.790718255255  L 1436.15628949607 639.836411593406  Z M 1461.53154056123 634.208850521191  C 1455.03097279744 635.678304587788  1448.52581782995 637.12739164101  1442.01617141088 638.556090351134  L 1442.44491497975 640.509594626059  C 1448.95864104297 639.080000539755  1455.46787284001 637.630005332779  1461.9725145583 636.159630348314  L 1461.53154056123 634.208850521191  Z M 1486.86011601198 628.374805965544  C 1480.37173190502 629.897155527719  1473.87859486698 631.399176112605  1467.38080047161 632.880845611665  L 1467.82544024373 634.830793168152  C 1474.3273068555 633.348195095723  1480.82451319136 631.845233183239  1487.31696361722 630.321929553194  L 1486.86011601198 628.374805965544  Z M 1512.14033568028 622.334664927116  C 1505.66456563659 623.909808999936  1499.18387724897 625.464663480238  1492.69836590797 626.999205481811  L 1493.1588723882 628.945466970323  C 1499.64844824773 627.409963259786  1506.1331981315 625.854134340487  1512.61302658876 624.278003113082  L 1512.14033568028 622.334664927116  Z M 1537.37052260576 616.088828077943  C 1530.90779619478 617.716662174415  1524.43998635329 619.324247409046  1517.96718828227 620.911560119472  L 1518.44353092298 622.854006434983  C 1524.92038554478 621.265698943854  1531.39224881182 619.657106223346  1537.8590254616 618.028251951118  L 1537.37052260576 616.088828077943  Z M 1562.54900314699 609.63770973487  C 1556.09974907314 611.318125872749  1549.64524681869 612.978335222858  1543.18559139018 614.618313347876  L 1543.67773859323 616.556815638441  C 1550.14144233641 614.915809726791  1556.59998967548 613.25455991112  1563.0532855454 611.573090643801  L 1562.54900314699 609.63770973487  Z M 1587.67410709245 602.981737832064  C 1581.23875316575 604.714624541272  1574.79798665794 606.427347876821  1568.35190237194 608.119882628799  L 1568.85982149081 610.0543123041  C 1575.30994558586 608.360716827982  1581.75474857096 606.64692011571  1588.19413558192 604.91294739349  L 1587.67410709245 602.981737832064  Z M 1612.74416777138 596.121353892627  C 1606.3231408805 597.906596222267  1599.89653736633 599.671719930082  1593.46445182331 601.416699034868  L 1593.98810916524 603.346927774743  C 1600.4242257442 601.600855078551  1606.85485685961 599.834625154301  1613.27990785588 598.048263999991  L 1612.74416777138 596.121353892627  Z M 1637.75752216427 589.057012999311  C 1631.35124824728 590.894492525546  1624.93923403472 592.711899516356  1618.52157390631 594.509207220969  L 1619.06093473456 596.435106983925  C 1625.48261685839 594.636672893182  1631.89864952896 592.818126919606  1638.30893830554 590.979495831261  L 1637.75752216427 589.057012999311  Z M 1662.71251101325 581.789183764328  C 1656.32141502955 583.678778598173  1649.92441545881 585.548348314502  1643.52160645973 587.397865394749  L 1644.07663499586 589.319308426454  C 1650.48345668329 587.468632240003  1656.88446530177 585.597890850271  1663.27956663317 583.707111793195  L 1662.71251101325 581.789183764328  Z M 1687.60747893209 574.318348298266  C 1681.23198483429 576.259933093672  1674.85042424957 578.181541517835  1668.46289110939 580.083145286221  L 1669.03355053564 582.00000412798  C 1675.42508679044 580.097208610343  1681.81064674765 578.174395899585  1688.1901364151 576.231594298521  L 1687.60747893209 574.318348298266  Z M 1712.44077451608 566.645002178104  C 1706.08130522181 568.638448140275  1699.71560694317 570.611967802607  1693.34377337814 572.565532116473  L 1693.93002583989 574.477679613682  C 1700.30585268073 572.522890986432  1706.67554039036 570.548134504485  1713.03899521166 568.553439234803  L 1712.44077451608 566.645002178104  Z M 1737.2107504515 558.769654414344  C 1730.8677278154 560.814829308279  1724.51831411068 562.840129295588  1718.16260279562 564.845524565477  L 1718.76440940389 566.752833876062  C 1725.12410389059 564.746181810014  1731.4774968211 562.719612551821  1737.82449467675 560.673155931541  L 1737.2107504515 558.769654414344  Z M 1761.91576362495 550.692827417241  C 1755.5896084109 552.78959557643  1749.25690046723 554.866541540837  1742.91773300774 556.923634739017  L 1743.53505384175 558.82597934184  C 1749.8781941052 556.767596947872  1756.2148708041 554.689349345964  1762.54499066722 552.591267126391  L 1761.91576362495 550.692827417241  Z M 196.843047142281 656.670538848531  C 190.286936005702 655.47256296047  183.73444843331 654.25484066126  177.185673610891 653.017388525297  L 176.814326389109 654.982611474703  C 183.367047803137 656.220809355993  189.923484205053 657.439265510508  196.48354635444 658.6379633537  L 196.843047142281 656.670538848531  Z M 1778.99548670437 544.978309874066  C 1775.20189956427 546.259479044598  1771.40590456881 547.533507387755  1767.60752188587 548.80038813471  L 1768.24031599573 550.697641837969  C 1772.04226817754 549.429570550259  1775.84182968 548.154342711435  1779.63898030234 546.871965101388  L 1778.99548670437 544.978309874066  Z M 1780.81008903563 553.444821126453  L 1785 544  L 1775.93082289428 539.049239793217  L 1780.81008903563 553.444821126453  Z " fill-rule="nonzero" fill="#000000" stroke="none" />
  </g>
</svg>