<?xml version="1.0" encoding="utf-8"?>
<svg version="1.1" xmlns:xlink="http://www.w3.org/1999/xlink" width="40px" height="8px" viewBox="1816 456  40 8" xmlns="http://www.w3.org/2000/svg">
  <g transform="matrix(-0.173648177666934 -0.984807753012211 0.984807753012205 -0.173648177666928 1701.80648781088 2347.98519625721 )">
    <path d="M 1836.88085154462 456.589106184538  C 1837.30932810608 454.658405970443  1837.80288943482 452.742727745399  1838.3606915289 450.845347365964  L 1836.44189183839 450.281248307549  C 1835.87138858232 452.221832066479  1835.36658885478 454.181130313238  1834.92835587563 456.15579259996  L 1836.88085154462 456.589106184538  Z M 1835.51689323354 464.377853076162  C 1835.76999964593 462.416442200178  1836.08927806382 460.46413916555  1836.47418251332 458.524282458168  L 1834.51242698444 458.135032866161  C 1834.11875825489 460.119060139661  1833.79220986267 462.11581714346  1833.5333402135 464.121889374301  L 1835.51689323354 464.377853076162  Z M 1834.85892819456 472.257703482332  C 1834.93461318607 470.281477973317  1835.0770211379 468.308372344518  1835.28590852897 466.341760654765  L 1833.29709598377 466.130515157716  C 1833.08345222369 468.141906624933  1832.93780164067 470.159939898283  1832.86039330078 472.181164091571  L 1834.85892819456 472.257703482332  Z M 1834.93993471673 480.156052058635  C 1834.86904226935 478.966799663684  1834.82235312139 477.776228007411  1834.79989625661 476.585076175268  C 1834.7912787746 475.801536233737  1834.79314679153 475.017916054251  1834.80549980569 474.234426102808  L 1832.8057483467 474.202896715553  C 1832.79307278473 475.00684426235  1832.79119113729 475.810925756083  1832.80010391306 476.614923822187  C 1832.82301474152 477.835817738338  1832.8708162838 479.056117619197  1832.94347873794 480.275062666487  L 1834.93993471673 480.156052058635  Z M 1835.76527534149 488.020133268113  C 1835.47052686933 486.064546701738  1835.24190996832 484.099563200609  1835.07981557896 482.128542934513  L 1833.08654468949 482.292467188983  C 1833.25232997052 484.30836761589  1833.48615248176 486.318093820607  1833.78761238103 488.31820912222  L 1835.76527534149 488.020133268113  Z M 1837.29451282732 495.778122255477  C 1836.82508674602 493.856967749819  1836.42067916243 491.920506969559  1836.0819816234 489.972051309947  L 1834.11153006969 490.314572366936  C 1834.45793975673 492.307394390933  1834.87155570702 494.287948412002  1835.35167062718 496.252847634363  L 1837.29451282732 495.778122255477  Z M 1839.51525364489 503.36714529124  C 1838.87495436414 501.495992622028  1838.29803357271 499.603748386325  1837.78547781926 497.693648367993  L 1835.8538148993 498.211990304988  C 1836.37804155489 500.165583329181  1836.96809884133 502.100913994317  1837.62297774624 504.01467283767  L 1839.51525364489 503.36714529124  Z M 1838.93974908453 448.954585810848  C 1839.54012325605 447.070243396477  1840.20396748461 445.20671537486  1840.93014658036 443.367188424442  L 1839.06985341964 442.632811575558  C 1838.32713921506 444.514224582032  1837.64817924353 446.420185164457  1837.03413454319 448.347434083664  L 1838.93974908453 448.954585810848  Z M 1831.29004675221 506.46774747142  L 1841 510  L 1845.31707436766 500.612621830134  L 1831.29004675221 506.46774747142  Z " fill-rule="nonzero" fill="#797979" stroke="none" />
  </g>
</svg>