<?xml version="1.0" encoding="utf-8"?>
<svg version="1.1" xmlns:xlink="http://www.w3.org/1999/xlink" width="42px" height="8px" viewBox="1930 456  42 8" xmlns="http://www.w3.org/2000/svg">
  <g transform="matrix(0.139173100960053 -0.990268068741585 0.990268068741574 0.139173100960071 1223.94996840581 2327.9933756732 )">
    <path d="M 1952.55900205343 456.339785168076  C 1952.19066641706 454.351930585928  1951.75826478567 452.376482641163  1951.26247252402 450.416526770722  L 1949.32354587746 450.906999460316  C 1949.80878415182 452.825233523194  1950.23198119962 454.758629878807  1950.59247603264 456.704168770283  L 1952.55900205343 456.339785168076  Z M 1953.68847210625 464.344058234064  C 1953.4923723516 462.331899724648  1953.23137727375 460.3265949292  1952.90589451888 458.331275917846  L 1950.93198415801 458.653266425858  C 1951.25053832379 460.606110850371  1951.5059775692 462.568728490431  1951.69790292566 464.53805394866  L 1953.68847210625 464.344058234064  Z M 1954.12572809208 472.41579268943  C 1954.10331585279 470.394225309322  1954.01565935144 468.37390798497  1953.86289549805 466.357996234449  L 1951.86861334652 466.509121017627  C 1952.01812529807 468.482119821282  1952.10391584532 470.459430416809  1952.12585099269 472.437964458009  L 1954.12572809208 472.41579268943  Z M 1953.85123826151 480.501910242176  C 1953.90772062908 479.820845657214  1953.95677038745 479.139185076872  1953.9983787785 478.457050215918  C 1954.06972675458 477.118190268546  1954.11240734985 475.777956454284  1954.12639123647 474.437269711126  L 1952.12650002065 474.416410064267  C 1952.11284052144 475.725996590387  1952.07120470162 477.035141850074  1952.00162105959 478.342949774837  C 1951.96099874123 479.008004525733  1951.91314915518 479.672598111325  1951.85808078001 480.336612771174  L 1953.85123826151 480.501910242176  Z M 1952.837202911 488.52162483953  C 1953.17686131892 486.528669961286  1953.45210466389 484.5252711357  1953.66250304546 482.514557455978  L 1951.67336319235 482.306416530681  C 1951.4674435855 484.274327915472  1951.19805937748 486.235080158273  1950.86563131743 488.185610775251  L 1952.837202911 488.52162483953  Z M 1951.13755984365 496.424491620559  C 1951.64727207369 494.468109647799  1952.09370540171 492.495785375036  1952.47616254694 490.510599360362  L 1950.51227646139 490.132245765145  C 1950.1379607257 492.07517289525  1949.70103067563 494.005512072833  1949.20216874886 495.920248316  L 1951.13755984365 496.424491620559  Z M 1948.7648907122 504.15200940493  C 1949.4408836061 502.246682506946  1950.05520218266 500.320032969586  1950.60688694241 498.375070011933  L 1948.68279234311 497.82930451929  C 1948.14285136072 499.732864825245  1947.54160985484 501.618501550808  1946.88000689995 503.483269534487  L 1948.7648907122 504.15200940493  Z M 1947.32585983021 507.945953565924  C 1947.58025405373 507.316588010257  1947.82781984684 506.684483853653  1948.06851359397 506.049752458721  L 1946.19845364208 505.340615112144  C 1945.49688434039 507.190717438449  1944.73578208484 509.017693236261  1943.9163356352 510.818688966143  L 1947.32585983021 507.945953565924  Z M 1950.74567886557 448.462225334507  C 1950.20783396177 446.513389825738  1949.60722664134 444.582422037308  1948.94479498824 442.672337932939  L 1947.05520501176 443.327662067061  C 1947.70353540555 445.197085989925  1948.2913575284 447.086949043443  1948.81775326546 448.994299465072  L 1950.74567886557 448.462225334507  Z M 1940.08238312165 503.439023167351  L 1944 513  L 1953.85018976066 509.880102296715  L 1940.08238312165 503.439023167351  Z " fill-rule="nonzero" fill="#797979" stroke="none" />
  </g>
</svg>