<?xml version="1.0" encoding="utf-8"?>
<svg version="1.1" xmlns:xlink="http://www.w3.org/1999/xlink" width="42px" height="8px" viewBox="2034 456  42 8" xmlns="http://www.w3.org/2000/svg">
  <g transform="matrix(0.104528463267682 -0.994521895368265 0.994521895368265 0.104528463267644 1382.71393611551 2455.65940187867 )">
    <path d="M 2056.14899056118 456.473563479768  C 2055.84343245121 454.474823509065  2055.47264718495 452.486601267713  2055.03722825042 450.51207915325  L 2053.0841521163 450.942768849324  C 2053.5101892063 452.874746512892  2053.87298527081 454.820129110713  2054.17195960949 456.77580281545  L 2056.14899056118 456.473563479768  Z M 2057.02153762666 464.510907520978  C 2056.89105942419 462.493160592411  2056.69468627037 460.480215739932  2056.43273248489 458.475294932685  L 2054.44958782889 458.734403545807  C 2054.70589737272 460.696124910401  2054.89803933159 462.665697428492  2055.02570615837 464.639968553718  L 2057.02153762666 464.510907520978  Z M 2057.19140335738 472.593690658722  C 2057.23699487607 470.572243493323  2057.21652353046 468.549846321982  2057.1300220875 466.529736243437  L 2055.13185313624 466.615298163746  C 2055.21649075788 468.591881520853  2055.23652101339 470.570702691445  2055.19191184184 472.548594325586  L 2057.19140335738 472.593690658722  Z M 2056.63739416214 480.666399505866  C 2056.73477673327 479.841005915038  2056.82106913343 479.014341613262  2056.89624801541 478.18663026222  C 2056.99505674692 476.997427518751  2057.07092397439 475.806429935693  2057.12380738724 474.61430172315  L 2055.12577234231 474.525667873982  C 2055.07414187131 475.689551552913  2055.00012133093 476.852334047477  2054.90375182103 478.013369723578  C 2054.83035612726 478.820690423441  2054.74615481948 479.626992276206  2054.65117053591 480.432058500913  L 2056.63739416214 480.666399505866  Z M 2055.34137063659 488.64640957099  C 2055.75211583436 486.666607658788  2056.09806143424 484.673913242525  2056.37865370715 482.671515878005  L 2054.39800508588 482.393971216626  C 2054.12345865266 484.353223510386  2053.78496704152 486.30298192247  2053.38307205047 488.240125621519  L 2055.34137063659 488.64640957099  Z M 2053.35588014641 496.483377424164  C 2053.9373403963 494.546826054631  2054.4553686795 492.591792527421  2054.90913582717 490.621406117417  L 2052.96015047816 490.172567494602  C 2052.51616051859 492.100498564529  2052.0092940394 494.013407555725  2051.44036234358 495.908232618909  L 2053.35588014641 496.483377424164  Z M 2050.69598471382 504.117851466686  C 2051.44374903161 502.239241407604  2052.12993021175 500.336699743743  2052.75342993573 498.413271730211  L 2050.8508929515 497.796544056403  C 2050.24082759384 499.678528528699  2049.56943135903 501.540076683389  2048.83777890045 503.378208880601  L 2050.69598471382 504.117851466686  Z M 2049.47214728088 507.045814471017  C 2049.62624755577 506.694156677575  2049.77816449179 506.341546155488  2049.92788931688 505.988003265355  L 2048.08623343053 505.208065065063  C 2047.31472065865 507.029826118937  2046.48388791096 508.825891647166  2045.59506503883 510.59338682299  L 2049.47214728088 507.045814471017  Z M 2054.58038134313 448.542630196773  C 2054.10206130355 446.57805971731  2053.55967671893 444.629642832488  2052.95409574342 442.700498226412  L 2051.04590425658 443.299501773588  C 2051.6384369558 445.187079664681  2052.1691349383 447.093514580352  2052.63714875579 449.015755033892  L 2054.58038134313 448.542630196773  Z M 2042.3676195482 502.32705772511  L 2046 512  L 2055.93837308736 509.173564015137  L 2042.3676195482 502.32705772511  Z " fill-rule="nonzero" fill="#797979" stroke="none" />
  </g>
</svg>