<?xml version="1.0" encoding="utf-8"?>
<svg version="1.1" xmlns:xlink="http://www.w3.org/1999/xlink" width="44px" height="8px" viewBox="2136 458  44 8" xmlns="http://www.w3.org/2000/svg">
  <g transform="matrix(-0.139173100960081 -0.990268068741581 0.990268068741571 -0.139173100960071 2000.83170411325 2663.29646498789 )">
    <path d="M 2159.77085686477 457.074264454472  C 2159.94922080795 455.061339721064  2160.06518643621 453.043372727712  2160.11858690697 451.023266772987  L 2158.11928532322 450.970416255168  C 2158.06697630623 452.949233205744  2157.95338090281 454.925954913265  2157.77866254543 456.897737419714  L 2159.77085686477 457.074264454472  Z M 2158.72594851536 465.086720895634  C 2159.06978341593 463.095375310432  2159.35184876473 461.093856399136  2159.57173874743 459.085043796112  L 2157.58361420906 458.867418384128  C 2157.36821856409 460.835172808162  2157.09191835713 462.79578261642  2156.75511110805 464.746427031516  L 2158.72594851536 465.086720895634  Z M 2157.0235241662 472.985647595862  C 2157.53048544044 471.029459991114  2157.97672712788 469.058037365273  2158.36160720964 467.07421605245  L 2156.39821658484 466.693299717234  C 2156.02120307822 468.636573648769  2155.58408213756 470.567702310427  2155.08748265949 472.483907340047  L 2157.0235241662 472.985647595862  Z M 2154.66882400876 480.723176851476  C 2154.72782610822 480.558449627977  2154.78638626331 480.393564442882  2154.8445038421 480.228523075528  C 2155.44502404681 478.48040704011  2155.99589183577 476.715626545101  2156.49644408742 474.93630599137  L 2154.57117558571 474.39469617209  C 2154.08154802505 476.135182563879  2153.54277258962 477.861466859292  2152.95549601089 479.571476873368  C 2152.89940442998 479.730724087398  2152.84289219161 479.88982282123  2152.78595988767 480.048771408497  L 2154.66882400876 480.723176851476  Z M 2151.63236431998 488.211247646987  C 2152.46842899923 486.37149887863  2153.24730211211 484.506292325109  2153.96786307476 482.618311504849  L 2152.09932591451 481.905171349778  C 2151.39349251825 483.754563675352  2150.6305388155 485.581647218075  2149.81156248645 487.383793308053  L 2151.63236431998 488.211247646987  Z M 2147.98844389725 495.42326093268  C 2148.97344901093 493.658765366061  2149.90355797972 491.864180143955  2150.77743263305 490.042087180126  L 2148.97410477305 489.177212258925  C 2148.11809126907 490.962063411872  2147.20699282444 492.719969054625  2146.24212025883 494.448400045232  L 2147.98844389725 495.42326093268  Z M 2143.76191035345 502.310038545123  C 2144.88913922749 500.632828139688  2145.96414171074 498.921101387476  2146.98537117077 497.177320991742  L 2145.25954936486 496.166608819923  C 2144.25919284336 497.87474803762  2143.20616236701 499.551488757152  2142.10197295659 501.194418610511  L 2143.76191035345 502.310038545123  Z M 2139.58972220399 508.055968448175  C 2140.63414564081 506.722203451781  2141.6437573629 505.361541450602  2142.61753646311 503.975358329587  L 2140.98098895735 502.825700875648  C 2139.84311077243 504.445480488266  2138.65532879812 506.029622718665  2137.41935192548 507.575848422581  L 2139.58972220399 508.055968448175  Z M 2160.15112406481 449.002914596068  C 2160.1628008006 446.982136693277  2160.11187594764 444.961481979429  2159.99842277276 442.943857620021  L 2158.00157722724 443.056142379979  C 2158.11271152939 445.032528456646  2158.16259552781 447.011882950248  2158.15115745316 448.991358114933  L 2160.15112406481 449.002914596068  Z M 2133.85311072732 501.731375700892  L 2135 512  L 2145.32810392894 511.699551613408  L 2133.85311072732 501.731375700892  Z " fill-rule="nonzero" fill="#797979" stroke="none" />
  </g>
</svg>