<?xml version="1.0" encoding="utf-8"?>
<svg version="1.1" xmlns:xlink="http://www.w3.org/1999/xlink" width="42px" height="10px" viewBox="2242 456  42 10" xmlns="http://www.w3.org/2000/svg">
  <g transform="matrix(-0.139173100960083 -0.990268068741604 0.990268068741565 -0.139173100960072 2121.43514778281 2766.13543910484 )">
    <path d="M 2264.79594639681 457.074336139418  C 2264.97530636162 455.0608407215  2265.09029500786 453.042129141085  2265.14073638511 451.021290339395  L 2263.14135912639 450.971384655436  C 2263.09198064714 452.949640450043  2262.9794150355 454.925813848054  2262.80383453426 456.896880998279  L 2264.79594639681 457.074336139418  Z M 2263.73663098548 465.087360012047  C 2264.08665341576 463.096426036933  2264.37298174576 461.094817953142  2264.59517784883 459.085598530893  L 2262.60729657038 458.86576217627  C 2262.38978257171 460.832643434374  2262.10948773696 462.792073739732  2261.7668409606 464.741054860665  L 2263.73663098548 465.087360012047  Z M 2261.99939016237 472.981199068331  C 2262.51753664379 471.027265083066  2262.97312816224 469.057276453164  2263.36546759219 467.074247566162  L 2261.40349870247 466.686074826564  C 2261.01942662799 468.627317434976  2260.57343530963 470.555794569891  2260.06620718315 472.468555362779  L 2261.99939016237 472.981199068331  Z M 2259.58206866808 480.701629979737  C 2259.7746226546 480.177650664947  2259.96255014175 479.65198275894  2260.14582918946 479.124687632167  C 2260.61639598254 477.736564777158  2261.05474504324 476.337727904411  2261.46052365548 474.929302583281  L 2259.53869564245 474.375608544711  C 2259.14217667227 475.751894383989  2258.71388721346 477.118827632946  2258.25417065874 478.475312315653  C 2258.07555200475 478.989062465564  2257.89242552868 479.50123425267  2257.70481241016 480.011768441385  L 2259.58206866808 480.701629979737  Z M 2256.47357169697 488.162725563131  C 2257.32974570972 486.33152381159  2258.12719943909 484.473437058185  2258.86471265743 482.591308463288  L 2257.00257248698 481.861627721053  C 2256.28060010771 483.704096202925  2255.49995028065 485.523029451679  2254.66181752088 487.315644217911  L 2256.47357169697 488.162725563131  Z M 2252.7415391305 495.332288565632  C 2253.75041146511 493.580572148099  2254.70306387842 491.797072158468  2255.5980386648 489.984517627775  L 2253.80473367391 489.099047577659  C 2252.92861774834 490.873408056272  2251.9960395757 492.619326229571  2251.00842614494 494.334130572489  L 2252.7415391305 495.332288565632  Z M 2248.41303621971 502.158324258126  C 2249.56729038509 500.498796880618  2250.66823270643 498.802817859917  2251.7141785716 497.072982306422  L 2250.00271407276 496.038144507924  C 2248.97880832289 497.731529059199  2247.90106499922 499.391770500742  2246.77113321585 501.016328406153  L 2248.41303621971 502.158324258126  Z M 2245.56925127707 506.033794395637  C 2246.13747336435 505.299182090427  2246.69488254176 504.556269246574  2247.24129870448 503.805295907131  L 2245.62408649084 502.628595156704  C 2244.4598164323 504.228723105936  2243.24472391126 505.791247499737  2241.98066820734 507.31377743393  L 2245.56925127707 506.033794395637  Z M 2265.16965408463 449.000239082283  C 2265.17705083904 446.978784387514  2265.11986588689 444.957609304828  2264.99818673001 442.939806544953  L 2263.00181326999 443.060193455047  C 2263.12092841019 445.03547718314  2263.17690836409 447.014062172651  2263.16966747369 448.992920882262  L 2265.16965408463 449.000239082283  Z M 2239.81145073352 499.736114252334  L 2241 510  L 2251.32679969208 509.657643285834  L 2239.81145073352 499.736114252334  Z " fill-rule="nonzero" fill="#797979" stroke="none" />
  </g>
</svg>