<?xml version="1.0" encoding="utf-8"?>
<svg version="1.1" xmlns:xlink="http://www.w3.org/1999/xlink" width="44px" height="8px" viewBox="2332 492  44 8" xmlns="http://www.w3.org/2000/svg">
  <g transform="matrix(-0.573576436351047 -0.819152044288971 0.819152044288992 -0.573576436351031 3297.89951720302 2708.77782468635 )">
    <path d="M 2371.65056109261 457.09021642229  C 2371.9857452759 455.097759562679  2372.26018414706 453.095558718504  2372.47349622632 451.086397019939  L 2370.48467382271 450.875244357365  C 2370.27564795153 452.844034759824  2370.00672354591 454.806004176527  2369.67827442029 456.758425400423  L 2371.65056109261 457.09021642229  Z M 2369.98806739795 464.996282608055  C 2370.48373757459 463.037572866888  2370.91965278696 461.064224736928  2371.29520709746 459.078981242034  L 2369.33006076699 458.70722877083  C 2368.96205269545 460.652581572483  2368.53489658999 462.586278029951  2368.04918621275 464.505630236572  L 2369.98806739795 464.996282608055  Z M 2367.68986072931 472.741475564121  C 2368.34275131823 470.829417339837  2368.93727096921 468.89792276335  2369.47259327888 466.949676680609  L 2367.54406982561 466.419773585515  C 2367.01950406953 468.328872386303  2366.43693045996 470.221556278951  2365.79715879488 472.095194365717  L 2367.68986072931 472.741475564121  Z M 2364.77108216344 480.274768303812  C 2365.57689178188 478.421958644681  2366.32609904895 476.545042720783  2367.01766253999 474.646629511809  L 2365.13846748864 473.962066907679  C 2364.46079999935 475.822334156646  2363.72664700513 477.661536078444  2362.93702900469 479.477116117161  L 2364.77108216344 480.274768303812  Z M 2361.19244186571 487.526509980414  C 2362.15966453166 485.752612269546  2363.0726501869 483.949675191405  2363.93012974901 482.120204892463  L 2362.1191796797 481.271405831159  C 2361.27892997088 483.064115481511  2360.38428948629 484.830825059051  2359.43650180793 486.569078774813  L 2361.19244186571 487.526509980414  Z M 2357.04023338887 494.456800925485  C 2358.14813469326 492.767189291452  2359.20433276947 491.044235276326  2360.20735946472 489.290333847293  L 2358.47121326092 488.297461066401  C 2357.48834098518 490.016120297663  2356.45336573305 491.704453960043  2355.36772615684 493.360115209878  L 2357.04023338887 494.456800925485  Z M 2352.33964961467 501.027514737559  C 2353.58093046691 499.433320702944  2354.7733825054 497.801700940163  2355.91534817953 496.134923458533  L 2354.26544394352 495.004518216153  C 2353.14642447348 496.637804133961  2351.977933092 498.236638778139  2350.76159404353 499.79879971185  L 2352.33964961467 501.027514737559  Z M 2347.12165899373 507.195362149601  C 2348.48814157025 505.707088605455  2349.80899144212 504.177552554754  2351.08237258117 502.608880106842  L 2349.52958023472 501.348389754327  C 2348.28178590983 502.885541921948  2346.98747666998 504.384344083556  2345.64845165088 505.842712851007  L 2347.12165899373 507.195362149601  Z M 2372.66638894947 449.07536386072  C 2372.83887887437 447.062286614328  2372.95003334238 445.04442398306  2372.99969784483 443.024580867536  L 2371.00030215517 442.975419132464  C 2370.95163559148 444.954676323735  2370.84271461715 446.931992825818  2370.6736906362 448.90462009864  L 2372.66638894947 449.07536386072  Z M 2341.68519276042 500.672323765633  L 2342 511  L 2352.31868174181 511.533673225194  L 2341.68519276042 500.672323765633  Z " fill-rule="nonzero" fill="#797979" stroke="none" />
  </g>
</svg>