<?xml version="1.0" encoding="utf-8"?>
<svg version="1.1" xmlns:xlink="http://www.w3.org/1999/xlink" width="42px" height="8px" viewBox="2452 456  42 8" xmlns="http://www.w3.org/2000/svg">
  <g transform="matrix(-0.275637355816964 -0.961261695938313 0.961261695938319 -0.275637355816999 2712.47080080373 2963.99335773127 )">
    <path d="M 2475.72668321274 457.039932183943  C 2476.20120404127 455.074607307042  2476.61185323572 453.094408044303  2476.9579830842 451.102457739587  L 2474.98751011821 450.760059885813  C 2474.64878422513 452.709401004145  2474.24691909924 454.647242443366  2473.78254859745 456.570527670088  L 2475.72668321274 457.039932183943  Z M 2473.49142003038 464.808724352897  C 2474.13393195506 462.891734442874  2474.71409583018 460.954408512879  2475.23099657042 458.999802283169  L 2473.29746503317 458.48847480058  C 2472.79162115511 460.401270659344  2472.22386738411 462.297155855879  2471.59509923119 464.173140033894  L 2473.49142003038 464.808724352897  Z M 2470.59344353512 472.355396830996  C 2471.39914347594 470.50107229256  2472.14448503283 468.621102121365  2472.82829258774 466.718451571121  L 2470.94615654041 466.042016874079  C 2470.27697609919 467.903968421076  2469.54757791059 469.743724737925  2468.75911244537 471.558383999728  L 2470.59344353512 472.355396830996  Z M 2467.03560394354 479.622331221423  C 2467.39439912061 478.971975493227  2467.74543182088 478.317367393711  2468.08862728245 477.65864633936  C 2468.67200064215 476.517628719486  2469.23185400294 475.364738025332  2469.76783248288 474.20070505556  L 2467.95116178111 473.364219812812  C 2467.4277193041 474.501027210538  2466.88100785532 475.626975404598  2466.31137257271 476.741353585945  C 2465.97664753257 477.3836851114  2465.6343071339 478.022019410435  2465.28442377458 478.656221488607  L 2467.03560394354 479.622331221423  Z M 2462.82825941717 486.525141177906  C 2463.95416458358 484.845852803402  2465.02530455352 483.13048664837  2466.03998983114 481.381748338656  L 2464.31010653248 480.378003464191  C 2463.31712607049 482.089335059292  2462.26889852087 483.768008353038  2461.16707723997 485.411375594786  L 2462.82825941717 486.525141177906  Z M 2458.04037622643 493.038719903203  C 2459.30712995799 491.462963934767  2460.52243958901 489.84653441827  2461.68438822661 488.191980928031  L 2460.04767424052 487.042560496787  C 2458.91058048306 488.661721950449  2457.72126716052 490.243574928371  2456.48161016211 491.785624393391  L 2458.04037622643 493.038719903203  Z M 2452.70774605882 499.114375320877  C 2454.10587877328 497.653931278382  2455.45627305205 496.148521974279  2456.75679893493 494.600521872071  L 2455.22548947127 493.314018344484  C 2453.95278273107 494.828905660331  2452.63127431424 496.302113224531  2451.2630486197 497.731317364972  L 2452.70774605882 499.114375320877  Z M 2450.09501375599 501.737549678392  C 2450.49821717428 501.348455361986  2450.89791474198 500.955744369784  2451.2940580127 500.559464301345  L 2449.87960033273 499.145494898722  C 2448.48079469359 500.544783578801  2447.03697008187 501.898332807135  2445.55040382428 503.204007647236  L 2450.09501375599 501.737549678392  Z M 2477.2825234345 449.107095713728  C 2477.58550589962 447.108127601355  2477.8235706168 445.099857930339  2477.99634208947 443.085454319668  L 2476.00365791053 442.914545680332  C 2475.83458213843 444.885859812976  2475.60160978921 446.851171215132  2475.3051083273 448.807380025398  L 2477.2825234345 449.107095713728  Z M 2445.31512105273 494.672333336028  L 2445 505  L 2455.26698456936 506.161476582867  L 2445.31512105273 494.672333336028  Z " fill-rule="nonzero" fill="#797979" stroke="none" />
  </g>
</svg>