<?xml version="1.0" encoding="utf-8"?>
<svg version="1.1" xmlns:xlink="http://www.w3.org/1999/xlink" width="48px" height="8px" viewBox="2532 494  48 8" xmlns="http://www.w3.org/2000/svg">
  <g transform="matrix(-0.681998360062517 -0.7313537016192 0.731353701619153 -0.681998360062517 3934.97366491346 2706.97524464981 )">
    <path d="M 2580.88916621065 456.931727091149  C 2581.4598891381 454.995271445443  2581.97624916153 453.043206717267  2582.43763860475 451.077830186067  L 2580.49057213875 450.620739191854  C 2580.03771980369 452.549750278941  2579.53091401136 454.465695871842  2578.97075119409 456.366321197787  L 2580.88916621065 456.931727091149  Z M 2578.31938061104 464.58461669106  C 2579.03303688666 462.696157041508  2579.69364684153 460.788074531684  2580.30043303953 458.862614680732  L 2578.39291137745 458.261481493582  C 2577.79735256984 460.151314480417  2577.14896590857 462.024091659804  2576.44851444486 463.877609061512  L 2578.31938061104 464.58461669106  Z M 2575.18559770779 472.024369507632  C 2576.0382065667 470.194439656134  2576.8393815798 468.340982622586  2577.58817988753 466.466179640397  L 2575.7308431589 465.724357372941  C 2574.99589989756 467.564470797179  2574.20954905922 469.38363323775  2573.37271605768 471.17970382071  L 2575.18559770779 472.024369507632  Z M 2571.50529769874 479.209486702203  C 2572.49210330048 477.448293972235  2573.42937442861 475.659800972773  2574.31600805944 473.846112484526  L 2572.51921646294 472.967739011148  C 2571.64898825125 474.747868745476  2570.72905948997 476.503269184206  2569.76051279354 478.231874491466  L 2571.50529769874 479.209486702203  Z M 2567.26489387557 486.087326010157  C 2568.12199969272 484.816002309964  2568.95195787751 483.526585435093  2569.75420493367 482.219950829188  C 2570.00636537332 481.802076693235  2570.25569267556 481.382499476529  2570.50216968462 480.961248049442  L 2568.775945699 479.951222925267  C 2568.53532428917 480.362466605419  2568.2919351821 480.77208462422  2568.04579494609 481.18004909762  C 2567.25964093992 482.460264451369  2566.44638223786 483.72363648479  2565.60656911825 484.969310357649  L 2567.26489387557 486.087326010157  Z M 2562.50530671937 492.607820420778  C 2563.75561966069 491.02279591736  2564.96128186554 489.403054263688  2566.12087445523 487.750501646184  L 2564.48371753707 486.601712185355  C 2563.34558093754 488.2236875527  2562.16222715087 489.813459058832  2560.93504880217 491.369155787609  L 2562.50530671937 492.607820420778  Z M 2557.2723445846 498.754903025759  C 2558.63746685209 497.267614781163  2559.96065398738 495.742373757002  2561.24034880307 494.180974926979  L 2559.69349645508 492.913202150218  C 2558.43747988606 494.445710352418  2557.13877573764 495.942729778147  2555.79891238454 497.40249866618  L 2557.2723445846 498.754903025759  Z M 2551.59519686192 504.494285483062  C 2553.06751382237 503.113029570624  2554.50084516852 501.690796949366  2555.89350409016 500.229261367982  L 2554.44558463341 498.849576894363  C 2553.07869413801 500.284069621784  2551.67188378168 501.679986613402  2550.22680916349 503.035685089948  L 2551.59519686192 504.494285483062  Z M 2546.32785031243 509.12392646712  C 2547.61358204696 508.06577137034  2548.87469020536 506.978046782773  2550.11016494261 505.861623710798  L 2548.76925485187 504.377723401296  C 2547.29911492643 505.706199073285  2545.79204553096 506.99322722504  2544.24982025399 508.237293222692  L 2546.32785031243 509.12392646712  Z M 2582.88062027796 449.108388420596  C 2583.30522637263 447.134738301633  2583.67445621552 445.149579945257  2583.98787528 443.155249577005  L 2582.01212472 442.844750422995  C 2581.70450486157 444.802179613067  2581.3421068939 446.7506065014  2580.92535730355 448.6877380897  L 2582.88062027796 449.108388420596  Z M 2542.04 501.72  L 2541 512  L 2551.16 513.88  L 2542.04 501.72  Z " fill-rule="nonzero" fill="#797979" stroke="none" />
  </g>
</svg>