<?xml version="1.0" encoding="utf-8"?>
<svg version="1.1" xmlns:xlink="http://www.w3.org/1999/xlink" width="494px" height="34px" viewBox="932 650  494 34" xmlns="http://www.w3.org/2000/svg">
  <g transform="matrix(0.994521895368273 -0.104528463267654 0.104528463267654 0.994521895368274 -63.2617996387189 126.892953981925 )">
    <path d="M 983.492782510219 640.64567506648  C 977.056151519415 638.928450769243  970.632319785456 637.163605326346  964.221815248752 635.351283781007  L 963.677718522923 637.275850940901  C 970.097720301676 639.090857463107  976.531069022107 640.85831754644  982.977235961626 642.57808593279  L 983.492782510219 640.64567506648  Z M 1008.65842180755 647.100857027377  C 1002.18993616035 645.507818662868  995.733330968067 643.866921659841  989.289136864588 642.178300874854  L 988.78217768693 644.112982345326  C 995.235918943969 645.804104842968  1001.70208967701 647.447432855278  1008.18015846599 649.0428313259  L 1008.65842180755 647.100857027377  Z M 1033.94362567707 653.070550542777  C 1027.44568113362 651.60228813129  1020.95869384294 650.085947314032  1014.48319693586 648.521652710954  L 1014.01356307097 650.465731935921  C 1020.4986535071 652.032344060871  1026.99525134999 653.550931355877  1033.50282267895 655.021369016353  L 1033.94362567707 653.070550542777  Z M 1059.33902913189 658.552544592276  C 1052.81403236313 657.209601940313  1046.29906558671 655.818378922327  1039.79466423296 654.378989875506  L 1039.3625296211 656.331746818197  C 1045.8765673262 657.773268337759  1052.40118610678 659.166552469919  1058.93584973925 660.511484708092  L 1059.33902913189 658.552544592276  Z M 1084.83522636998 663.544808786763  C 1078.28559406631 662.327683285622  1071.74506077972 661.062093340008  1065.21416404168 659.748142961997  L 1064.81968873435 661.708854371641  C 1071.36026107698 663.024751383448  1077.91048424485 664.29221631628  1084.46981991008 665.51114500396  L 1084.83522636998 663.544808786763  Z M 1110.42277425795 668.045494120429  C 1103.85093223413 666.954636561983  1097.28725488207 665.815148430592  1090.73228163534 664.627123374698  L 1090.37561173602 666.595063054393  C 1096.94029625702 667.784848184161  1103.51369777851 668.926024481356  1110.09527606789 670.018498158821  L 1110.42277425795 668.045494120429  Z M 1136.09219582844 672.052933655586  C 1129.50057812515 671.08874806532  1122.91618772431 670.075783785147  1116.3395657618 669.014124065189  L 1116.02083337181 670.988563140869  C 1122.6071986814 672.051795722881  1129.20134393837 673.066260722212  1135.80272720511 674.0318747654  L 1136.09219582844 672.052933655586  Z M 1161.83398379021 675.56564314006  C 1155.22503177252 674.728486627431  1148.62236701117 673.842421374301  1142.02653214391 672.907520201638  L 1141.74585531351 674.887727392029  C 1148.351461992 675.824013632384  1154.96390868317 676.711391602188  1161.58265194532 677.549788372582  L 1161.83398379021 675.56564314006  Z M 1187.63797452811 678.576444294838  C 1185.72829919934 678.374235931732  1183.81911037774 678.167459045049  1181.91042445507 677.956115410114  C 1177.19864021644 677.430843260955  1172.48965572518 676.880753748644  1167.78366699231 676.305869770604  L 1167.54114967695 678.29111165807  C 1172.25435656309 678.866877406319  1176.97056395759 679.417809361232  1181.68957552828 679.943884587926  C 1183.60167840049 680.155607766625  1185.51428513916 680.362755431673  1187.42737931941 680.565325804147  L 1187.63797452811 678.576444294838  Z M 1213.49948293981 681.033002513804  C 1206.86175067336 680.474676210316  1200.22876611672 679.861274485927  1193.60121446317 679.192860705586  L 1193.40052493316 681.182766158753  C 1200.03908576928 681.85229025701  1206.68308853321 682.46671091749  1213.33184689349 683.025964669986  L 1213.49948293981 681.033002513804  Z M 1239.40797190191 682.931026568571  C 1232.75973878813 682.516039379351  1226.11506402619 682.045887157111  1219.47463401695 681.520618468996  L 1219.3169234352 683.514390615558  C 1225.96838401955 684.040531839895  1232.62409640767 684.511465043095  1239.28337305847 684.927141577336  L 1239.40797190191 682.931026568571  Z M 1265.3513800975 684.26963286189  C 1258.69574112376 683.998177978134  1252.04246948741 683.671494130513  1245.39225247722 683.289615065754  L 1245.27759426358 685.28632573434  C 1251.93885810627 685.668839147431  1258.60318164932 685.996065657309  1265.26987646211 686.267971461182  L 1265.3513800975 684.26963286189  Z M 1291.31762995354 685.04819822524  C 1284.65768355496 684.920402018788  1277.99891237709 684.737338628654  1271.34200427697 684.49902696545  L 1271.27045180889 686.497746616704  C 1277.93841785627 686.736454145041  1284.6082500762 686.919821626095  1291.27925946902 687.047830117843  L 1291.31762995354 685.04819822524  Z M 1317.2946332634 685.266360208939  C 1310.63347988029 685.28228217344  1303.97230905417 685.242924463271  1297.31180888998 685.148291144118  L 1297.28339547765 687.148089303433  C 1303.95495955597 687.242879820227  1310.62719541025 687.282302908419  1317.29941379256 687.266354495566  L 1317.2946332634 685.266360208939  Z M 1343.27029681432 684.924017250878  C 1336.61103744889 685.083649974094  1329.95056798487 685.188016266294  1323.28957645474 685.237105346345  L 1323.30431532562 687.237051037029  C 1329.9763715861 687.187880413948  1336.64790491324 687.083340756435  1343.31822613166 686.923442863532  L 1343.27029681432 684.924017250878  Z M 1369.23252801725 684.021328723797  C 1362.57826278998 684.324597891058  1355.92159537195 684.572639599428  1349.26321340273 684.765428225983  L 1349.32109769535 686.764590402663  C 1355.99054006008 686.571481530368  1362.65826502562 686.323027794056  1369.32358380998 686.019254859221  L 1369.23252801725 684.021328723797  Z M 1395.16924053638 682.558714861095  C 1388.52306724287 683.005479289887  1381.87330078456 683.397080942255  1375.22062808833 683.733479365396  L 1375.32163085551 685.730927347453  C 1381.98535446348 685.393970124946  1388.64616700588 685.001717973825  1395.30338041482 684.55421141409  L 1395.16924053638 682.558714861095  Z M 1421.06730437712 680.536193712781  C 1420.81539439093 680.558848184298  1420.56347727346 680.58142327662  1420.31155306014 680.60391898657  C 1413.92847488203 681.167508732155  1407.54099913037 681.680131795834  1401.14973641801 682.141739173234  L 1401.29381063939 684.136543078066  C 1407.69602029481 683.674145060396  1414.09443630219 683.160641340911  1420.48844693989 682.596081013223  C 1420.74111945701 682.573518692857  1420.99378484906 682.55087665017  1421.24644307822 682.528154888549  L 1421.06730437712 680.536193712781  Z M 1446.91420002285 677.930376932991  C 1440.29421832944 678.670012168145  1433.6682125519 679.354696942459  1427.03686716261 679.984360527381  L 1427.22592204544 681.975405040012  C 1433.86828291917 681.344695506039  1440.50529531138 680.658873385677  1447.13627361273 679.918009524966  L 1446.91420002285 677.930376932991  Z M 1472.69885881852 674.767519616808  C 1466.09637568192 675.649808873927  1459.48668430657 676.477290430584  1452.87046747951 677.24987880719  L 1453.10243516593 679.236381007657  C 1459.729642347 678.462509266252  1466.3503132368 677.63365316044  1472.96376391407 676.749898311799  L 1472.69885881852 674.767519616808  Z M 1498.40927709453 671.049094186049  C 1491.82736620391 672.073626728314  1485.23706627557 673.043519845416  1478.63905809342 673.958673346524  L 1478.91383059427 675.939708447873  C 1485.52279888363 675.023034763672  1492.12404611482 674.051530534208  1498.71689037307 673.025296116741  L 1498.40927709453 671.049094186049  Z M 1524.03348574288 666.776831699116  C 1517.47521121028 667.943130570434  1510.90737074639 669.054983728471  1504.33064281505 670.112276317795  L 1504.64809221403 672.086922078202  C 1511.23574490345 671.027873195188  1517.81449536224 669.914173111612  1524.38366399956 668.745936873695  L 1524.03348574288 666.776831699116  Z M 1549.5595557892 661.952721045127  C 1543.02797072307 663.260243292177  1536.48564728546 664.513538884212  1529.9332613041 665.712478354706  L 1530.29323981729 667.679815506808  C 1536.85651012172 666.47888444965  1543.40970116735 665.223506978697  1549.95213600367 663.913812775569  L 1549.5595557892 661.952721045127  Z M 1574.9756039461 656.579008018016  C 1568.47374903009 658.027144942987  1561.95998830133 659.421299515671  1555.43499463716 660.761327718644  L 1555.83733468185 662.720440397495  C 1562.37316716707 661.378186242033  1568.89774805767 659.981715806252  1575.4104033584 658.531173346841  L 1574.9756039461 656.579008018016  Z M 1600.26979814526 650.658194271039  C 1593.80070022251 652.246271715041  1587.31853458839 653.780636240153  1580.82397085645 655.261129345143  L 1581.26848512914 657.21110551458  C 1587.77383713428 655.72815312753  1594.26677044682 654.191239833269  1600.74661434091 652.60052439632  L 1600.26979814526 650.658194271039  Z M 1625.43036304571 644.193036152166  C 1618.99703370984 645.920314809043  1612.54948084746 647.594174985694  1606.0883704966 649.214443770856  L 1606.57485206018 651.154375648085  C 1613.04669511405 649.531415396178  1619.50495815875 647.854774730858  1625.94897404991 646.124626850611  L 1625.43036304571 644.193036152166  Z M 1650.4455855156 637.1865434209  C 1644.05101970869 639.052219181418  1637.6410811817 640.86479576856  1631.21643208704 642.624085941535  L 1631.74465446717 644.553070419732  C 1638.17997569817 642.790857848302  1644.60056192543 640.975270347385  1651.00574989662 639.1064954688  L 1650.4455855156 637.1865434209  Z M 1675.30650171378 629.646420850001  C 1668.95070008033 631.642132100334  1662.58021302896 633.590769653236  1656.19556411611 635.492173360542  L 1656.76640516487 637.408978122914  C 1663.16051301436 635.504757462404  1669.54043802135 633.553232978791  1675.90565585384 631.554565057457  L 1675.30650171378 629.646420850001  Z M 1700.0175913021 621.625147462988  C 1693.70137258188 623.742801560598  1687.3695652669 625.813673287562  1681.02268973459 627.837592449995  L 1681.63031247816 629.743056855721  C 1687.98659098537 627.716139231925  1694.3277789515 625.642199482786  1700.65335522816 623.521408054342  L 1700.0175913021 621.625147462988  Z M 1724.56974158809 613.129813936531  C 1718.29544514552 615.368626556986  1712.00466270489 617.56096546059  1705.69791127201 619.706650470721  L 1706.34209066263 621.600068784963  C 1712.65818562604 619.451204915855  1718.95828793896 617.255618034945  1725.2418798296 615.0134885858  L 1724.56974158809 613.129813936531  Z M 1748.95385908895 604.163566722909  C 1742.72380876149 606.522708667797  1736.47638113867 608.835702762294  1730.21208966319 611.102358913772  L 1730.89258711342 612.983029863256  C 1737.16615921448 610.713015632552  1743.42284247889 608.396594808586  1749.66212270325 606.03395776562  L 1748.95385908895 604.163566722909  Z M 1773.16091255689 594.729726688676  C 1766.9774157944 597.20832419271  1760.77565687534 599.641116804784  1754.55614548914 602.027904586673  L 1755.27270896029 603.895131619417  C 1761.50143462978 601.504807781812  1767.71238153174 599.068410957254  1773.90503922142 596.586141380262  L 1773.16091255689 594.729726688676  Z M 1797.18193632409 584.831787884701  C 1791.04728333419 587.428922939323  1784.89349009027 589.980613025404  1778.72106233988 592.486648433098  L 1779.47342643534 594.339739976401  C 1785.65499871409 591.82999184613  1791.81790887906 589.274521399528  1797.96165043354 586.673538657071  L 1797.18193632409 584.831787884701  Z M 1821.0080336233 574.473416252057  C 1814.92449652308 577.188126945497  1808.82094816061 579.857769425386  1802.6978901539 582.482124288074  L 1803.48577621743 584.320394004656  C 1809.61790561058 581.692151127661  1815.73049645574 579.018553539291  1821.82304639169 576.29982096826  L 1821.0080336233 574.473416252057  Z M 1844.63037988302 563.658448264253  C 1838.60021185764 566.489729137723  1832.54916897334 569.276335244773  1826.477748533 572.018037569134  L 1827.30086475193 573.840804611336  C 1833.38128007705 571.095040420934  1839.44128765646 568.304305922364  1845.48038945065 565.468830471121  L 1844.63037988302 563.658448264253  Z M 1868.04022599588 552.390889506306  C 1862.06566046394 555.337691926444  1856.06936420792 558.240229573672  1850.05183003137 561.098263903927  L 1850.9098715447 562.904853165881  C 1856.93632077283 560.042584622287  1862.9415006162 557.135746829497  1868.92491754114 554.184578684993  L 1868.04022599588 552.390889506306  Z M 958.456028488381 633.707395492879  C 952.053636115964 631.866621278475  945.664957061806 629.97848104891  939.290516377307 628.043129980344  L 938.709483622693 629.956870019656  C 945.093368120196 631.895088334855  951.491512081695 633.786025867612  957.903389677888 635.629527211866  L 958.456028488381 633.707395492879  Z M 1879.19512475477 546.824837336637  C 1877.26953882591 547.796793346308  1875.34162617645 548.764132910622  1873.41140341767 549.726847694785  L 1874.30405242897 551.516590062456  C 1876.23978636603 550.551126531919  1878.17320041653 549.581018656644  1880.10427787578 548.606274818366  L 1879.19512475477 546.824837336637  Z M 1882.19169944285 554.943512859182  L 1885 545  L 1875.32044721491 541.385272087608  L 1882.19169944285 554.943512859182  Z " fill-rule="nonzero" fill="#000000" stroke="none" />
  </g>
</svg>