<?xml version="1.0" encoding="utf-8"?>
<svg version="1.1" xmlns:xlink="http://www.w3.org/1999/xlink" width="50px" height="50px" xmlns="http://www.w3.org/2000/svg">
  <defs>
    <pattern id="BGPattern" patternUnits="userSpaceOnUse" alignment="0 0" imageRepeat="None" />
    <mask fill="white" id="Clip2">
      <path d="M 48.821548821548824 37.37373737373737  C 49.607182940516275 38.15937149270482  50 39.11335578002244  50 40.235690235690235  C 50 41.35802469135803  49.607182940516275 42.31200897867564  48.821548821548824 43.09764309764309  L 43.09764309764309 48.821548821548824  C 42.31200897867565 49.607182940516275  41.358024691358025 50  40.235690235690235 50  C 39.11335578002245 50  38.15937149270483 49.607182940516275  37.37373737373738 48.821548821548824  L 25 36.44781144781145  L 12.626262626262626 48.821548821548824  C 11.840628507295175 49.607182940516275  10.886644219977553 50  9.764309764309765 50  C 8.641975308641976 50  7.687991021324356 49.607182940516275  6.902356902356903 48.821548821548824  L 1.1784511784511784 43.09764309764309  C 0.3928170594837265 42.31200897867564  0 41.35802469135803  0 40.235690235690235  C 0 39.11335578002244  0.3928170594837265 38.15937149270482  1.1784511784511784 37.37373737373737  L 13.552188552188552 25  L 1.1784511784511784 12.626262626262625  C 0.3928170594837265 11.84062850729517  0 10.886644219977553  0 9.764309764309765  C 0 8.641975308641975  0.3928170594837265 7.687991021324347  1.1784511784511784 6.902356902356904  L 6.902356902356903 1.1784511784511786  C 7.687991021324356 0.39281705948372436  8.641975308641976 0  9.764309764309765 0  C 10.886644219977553 0  11.840628507295175 0.39281705948372436  12.626262626262626 1.1784511784511786  L 25 13.552188552188554  L 37.37373737373738 1.1784511784511786  C 38.15937149270483 0.39281705948372436  39.11335578002245 0  40.235690235690235 0  C 41.358024691358025 0  42.31200897867565 0.39281705948372436  43.09764309764309 1.1784511784511786  L 48.821548821548824 6.902356902356904  C 49.607182940516275 7.687991021324347  50 8.641975308641975  50 9.764309764309765  C 50 10.886644219977553  49.607182940516275 11.84062850729517  48.821548821548824 12.626262626262625  L 36.447811447811446 25  L 48.821548821548824 37.37373737373737  Z " fill-rule="evenodd" />
    </mask>
  </defs>
  <g transform="matrix(1 0 0 1 -979 -445 )">
    <path d="M 48.821548821548824 37.37373737373737  C 49.607182940516275 38.15937149270482  50 39.11335578002244  50 40.235690235690235  C 50 41.35802469135803  49.607182940516275 42.31200897867564  48.821548821548824 43.09764309764309  L 43.09764309764309 48.821548821548824  C 42.31200897867565 49.607182940516275  41.358024691358025 50  40.235690235690235 50  C 39.11335578002245 50  38.15937149270483 49.607182940516275  37.37373737373738 48.821548821548824  L 25 36.44781144781145  L 12.626262626262626 48.821548821548824  C 11.840628507295175 49.607182940516275  10.886644219977553 50  9.764309764309765 50  C 8.641975308641976 50  7.687991021324356 49.607182940516275  6.902356902356903 48.821548821548824  L 1.1784511784511784 43.09764309764309  C 0.3928170594837265 42.31200897867564  0 41.35802469135803  0 40.235690235690235  C 0 39.11335578002244  0.3928170594837265 38.15937149270482  1.1784511784511784 37.37373737373737  L 13.552188552188552 25  L 1.1784511784511784 12.626262626262625  C 0.3928170594837265 11.84062850729517  0 10.886644219977553  0 9.764309764309765  C 0 8.641975308641975  0.3928170594837265 7.687991021324347  1.1784511784511784 6.902356902356904  L 6.902356902356903 1.1784511784511786  C 7.687991021324356 0.39281705948372436  8.641975308641976 0  9.764309764309765 0  C 10.886644219977553 0  11.840628507295175 0.39281705948372436  12.626262626262626 1.1784511784511786  L 25 13.552188552188554  L 37.37373737373738 1.1784511784511786  C 38.15937149270483 0.39281705948372436  39.11335578002245 0  40.235690235690235 0  C 41.358024691358025 0  42.31200897867565 0.39281705948372436  43.09764309764309 1.1784511784511786  L 48.821548821548824 6.902356902356904  C 49.607182940516275 7.687991021324347  50 8.641975308641975  50 9.764309764309765  C 50 10.886644219977553  49.607182940516275 11.84062850729517  48.821548821548824 12.626262626262625  L 36.447811447811446 25  L 48.821548821548824 37.37373737373737  Z " fill-rule="nonzero" fill="rgba(217, 0, 27, 1)" stroke="none" transform="matrix(1 0 0 1 979 445 )" class="fill" />
    <path d="M 48.821548821548824 37.37373737373737  C 49.607182940516275 38.15937149270482  50 39.11335578002244  50 40.235690235690235  C 50 41.35802469135803  49.607182940516275 42.31200897867564  48.821548821548824 43.09764309764309  L 43.09764309764309 48.821548821548824  C 42.31200897867565 49.607182940516275  41.358024691358025 50  40.235690235690235 50  C 39.11335578002245 50  38.15937149270483 49.607182940516275  37.37373737373738 48.821548821548824  L 25 36.44781144781145  L 12.626262626262626 48.821548821548824  C 11.840628507295175 49.607182940516275  10.886644219977553 50  9.764309764309765 50  C 8.641975308641976 50  7.687991021324356 49.607182940516275  6.902356902356903 48.821548821548824  L 1.1784511784511784 43.09764309764309  C 0.3928170594837265 42.31200897867564  0 41.35802469135803  0 40.235690235690235  C 0 39.11335578002244  0.3928170594837265 38.15937149270482  1.1784511784511784 37.37373737373737  L 13.552188552188552 25  L 1.1784511784511784 12.626262626262625  C 0.3928170594837265 11.84062850729517  0 10.886644219977553  0 9.764309764309765  C 0 8.641975308641975  0.3928170594837265 7.687991021324347  1.1784511784511784 6.902356902356904  L 6.902356902356903 1.1784511784511786  C 7.687991021324356 0.39281705948372436  8.641975308641976 0  9.764309764309765 0  C 10.886644219977553 0  11.840628507295175 0.39281705948372436  12.626262626262626 1.1784511784511786  L 25 13.552188552188554  L 37.37373737373738 1.1784511784511786  C 38.15937149270483 0.39281705948372436  39.11335578002245 0  40.235690235690235 0  C 41.358024691358025 0  42.31200897867565 0.39281705948372436  43.09764309764309 1.1784511784511786  L 48.821548821548824 6.902356902356904  C 49.607182940516275 7.687991021324347  50 8.641975308641975  50 9.764309764309765  C 50 10.886644219977553  49.607182940516275 11.84062850729517  48.821548821548824 12.626262626262625  L 36.447811447811446 25  L 48.821548821548824 37.37373737373737  Z " stroke-width="0" stroke-dasharray="0" stroke="rgba(255, 255, 255, 0)" fill="none" transform="matrix(1 0 0 1 979 445 )" class="stroke" mask="url(#Clip2)" />
  </g>
</svg>