<?xml version="1.0" encoding="utf-8"?>
<svg version="1.1" xmlns:xlink="http://www.w3.org/1999/xlink" width="146px" height="12px" viewBox="680 698  146 12" xmlns="http://www.w3.org/2000/svg">
  <g transform="matrix(0.829037572555047 -0.559192903470751 0.559192903470739 0.829037572555046 -264.937096177351 541.429805234723 )">
    <path d="M 731.976987861987 688.192548297835  C 726.800476957762 685.15005446481  721.584632090373 682.174984273644  716.330775382357 679.268091850936  L 715.846649778618 680.143090365109  C 721.092923115725 683.045787004669  726.301239478165 686.016563005492  731.470278651739 689.054665329478  L 731.976987861987 688.192548297835  Z M 753.311930794921 701.256058378841  C 748.248637731307 698.02866047689  743.143602151925 694.867222187712  737.998118091158 691.772544878856  L 737.482718034099 692.629494574686  C 742.62077514809 695.71970505333  747.718442163682 698.876580150079  752.774426914288 702.099319654072  L 753.311930794921 701.256058378841  Z M 774.10367352417 715.181152170771  C 769.976816548574 712.221352722869  765.785247933038 709.352838553536  761.532019084259 706.577697903273  C 760.755666185899 706.067269295557  759.978287283385 705.558402933029  759.199887095325 705.051101904453  L 758.653884589967 705.888885446988  C 759.431649130236 706.395772209506  760.208392577964 706.904224009153  760.984110212408 707.414237755761  C 765.225538967967 710.181648475701  769.40547210792 713.042184327705  773.520865996703 715.993762400787  L 774.10367352417 715.181152170771  Z M 793.902516297015 730.495968151423  C 789.285685736948 726.649760472546  784.569370263188 722.924565791041  779.758376261702 719.324180444014  L 779.159213746774 720.124807873413  C 783.956293003274 723.714779895471  788.658967568925 727.429200268383  793.262444959175 731.264283635112  L 793.902516297015 730.495968151423  Z M 812.544405761842 747.203869746533  C 811.711597477115 746.392323900791  810.86995147653 745.589896996378  810.019618311837 744.796732569621  C 806.496103508022 741.468390947718  802.902989390515 738.214510297905  799.242658654013 735.037248359661  L 798.587142125624 735.792429186356  C 802.237679074094 738.96118986278  805.821164600537 742.206380770331  809.335221362841 745.525848997006  C 810.181012735959 746.314745649183  811.018155826985 747.112863642309  811.846500617911 747.920059951767  L 812.544405761842 747.203869746533  Z M 829.060433225684 766.041632512665  C 825.458710297108 761.21738672246  821.587104477293 756.60064156515  817.464151234019 752.213499892909  L 816.735444 752.898325248083  C 820.832583798668 757.257999415394  824.679949837804 761.845839540716  828.259122698548 766.639881155873  L 829.060433225684 766.041632512665  Z M 842.363402464577 787.281771638742  C 841.531667907712 785.572922208214  840.640538747724 783.893625448625  839.691642600888 782.246948536836  C 837.642757697483 778.667621228208  835.456005488606 775.168995132112  833.136303138342 771.758937312094  L 832.309473951157 772.321390417  C 834.614923150767 775.710495519597  836.788223511056 779.187634872706  838.824486970709 782.744987895856  C 839.762032827275 784.37190097806  840.642490380386 786.031051842505  841.464250684658 787.71940856208  L 842.363402464577 787.281771638742  Z M 849.743000595428 811.22502153206  C 848.869939941602 805.245268969462  847.33588808345 799.380888847027  845.169018107739 793.739581363517  L 844.23551382174 794.098147602893  C 846.375852218116 799.670381815408  847.891120845603 805.462957321873  848.75349157421 811.369492625803  L 849.743000595428 811.22502153206  Z M 710.184321882739 675.907809997611  C 704.901342538248 673.054187192976  699.581489068812 670.269364148872  694.226109961317 667.554046767706  L 693.773890038683 668.445953232294  C 699.121539238731 671.157351348059  704.433714078095 673.938154802883  709.709068016325 676.787658713277  L 710.184321882739 675.907809997611  Z M 843.484485689502 813.234752974096  L 850 819  L 856.076032804387 812.773297392679  L 843.484485689502 813.234752974096  Z " fill-rule="nonzero" fill="#8400ff" stroke="none" />
  </g>
</svg>