<?xml version="1.0" encoding="utf-8"?>
<svg version="1.1" xmlns:xlink="http://www.w3.org/1999/xlink" width="382px" height="24px" viewBox="464 608  382 24" xmlns="http://www.w3.org/2000/svg">
  <g transform="matrix(-0.974370064785235 0.224951054343864 -0.224951054343866 -0.974370064785232 1432.68204612753 1076.76649957161 )">
    <path d="M 797.154462304605 649.276827665964  C 803.120967822398 649.922408698878  809.090010694481 650.544319872797  815.061450039829 651.142546509405  L 815.161132381357 650.147527197639  C 809.192324329405 649.549564167459  803.225911694764 648.92792703648  797.262035296292 648.282630476539  L 797.154462304605 649.276827665964  Z M 772.309377685087 646.450002742637  C 778.268407764396 647.16128572392  784.230235846711 647.848928240512  790.194721222111 648.512914062806  L 790.305360998838 647.519053489181  C 784.34350385259 646.855360249865  778.384302828547 646.168020740495  772.427898574534 645.457051183514  L 772.309377685087 646.450002742637  Z M 747.49694825215 643.349597199212  C 753.447779418555 644.126495773363  759.401668897393 644.879786147313  765.358476166109 645.609450542048  L 765.480059945473 644.616869369249  C 759.525877522717 643.887526498537  753.574611603759 643.134568059268  747.626402649966 642.358011822713  L 747.49694825215 643.349597199212  Z M 722.720186434721 639.975987449914  C 728.662096209353 640.818407295183  734.607324234542 641.637254070969  740.555730192158 642.432508451006  L 740.688243212909 641.441327186387  C 734.742458398971 640.64642323233  728.799850117572 639.827937278492  722.860558624098 638.985888642496  L 722.720186434721 639.975987449914  Z M 697.9852496633 636.292689726917  C 703.913927924769 637.229799196082  709.848891444472 638.126702817294  715.78973102824 638.983338752308  L 715.932449381974 637.993575411146  C 709.996083377193 637.137584541272  704.065589011733 636.241356307636  698.141375171514 635.304952501899  L 697.9852496633 636.292689726917  Z M 673.320744299722 632.155710942041  C 679.230724049468 633.204300205198  685.147745079763 634.21280911096  691.071399433506 635.181168126302  L 691.232731218509 634.194267900774  C 685.313537502907 633.226638080435  679.400972115778 632.218888603411  673.495442706904 631.171088950347  L 673.320744299722 632.155710942041  Z M 648.73851822082 627.554995856076  C 654.627703441684 628.714693023442  660.524683468067 629.834449538741  666.429051724829 630.914188198868  L 666.608939723613 629.930501100298  C 660.709017582183 628.85157550643  654.816478107594 627.732662191681  648.931727568912 626.573838301037  L 648.73851822082 627.554995856076  Z M 624.24728969141 622.492176146004  C 630.11359174106 623.762569922552  635.98843935692 624.993176917642  641.871427489596 626.183912285393  L 642.069807903578 625.203787185547  C 636.191249786511 624.013948466938  630.320826056334 622.784268145189  624.458941457316 621.514831002266  L 624.24728969141 622.492176146004  Z M 599.862314360077 616.923925057069  C 604.782776719838 618.128578845426  609.716029508625 619.280375786832  614.661219980356 620.379116785401  C 615.576342061317 620.584386796291  616.491681337374 620.788687319997  617.407236267403 620.992018012546  L 617.624038739528 620.015802519901  C 616.70884383853 619.812551784272  615.793864584343 619.608331249806  614.87910251873 619.403141260622  C 609.940567610206 618.305886439535  605.0139550429 617.155643550487  600.100116528692 615.952611447259  L 599.862314360077 616.923925057069  Z M 575.67249312427 610.546518424839  C 581.450475205623 612.17955535734  587.249002360697 613.73900647382  593.066666503944 615.224493084911  L 593.314069379946 614.255580386601  C 587.504624275167 612.772192430795  581.71428912233 611.214944464649  575.944470017701 609.584214642534  L 575.67249312427 610.546518424839  Z M 551.723137489461 603.318300701876  C 557.439804449654 605.154493889311  563.179603949223 606.917873218204  568.941142163752 608.608010478273  L 569.222628927657 607.648445367535  C 563.469230458402 605.96069588765  557.737539992228 604.199807813349  552.028949384415 602.36620874996  L 551.723137489461 603.318300701876  Z M 528.042685332071 595.245026783994  C 529.934236050631 595.938153813305  531.831947307621 596.614351608352  533.735591471994 597.273539059  C 537.500915964844 598.595317341233  541.277350999446 599.88522982746  545.064491479706 601.143138149483  L 545.379710529546 600.194119208356  C 541.597248429062 598.937764822049  537.825480461355 597.6494401315  534.064811365719 596.329283383716  C 532.166128006964 595.671827140212  530.27336407276 594.997398908393  528.386746760641 594.306079643112  L 528.042685332071 595.245026783994  Z M 504.874709710243 585.768113456328  C 510.348543375295 588.247669932237  515.887545668977 590.580769891014  521.485806663599 592.76492399409  L 521.849272157293 591.833316332629  C 516.267578347522 589.655625894752  510.74496787175 587.329430383321  505.28733316817 584.857211770103  L 504.874709710243 585.768113456328  Z M 482.471831961737 574.602180928355  C 487.747096984818 577.480137537846  493.098193350719 580.216863594644  498.519411620993 582.809439104809  L 498.950842597596 581.907293156291  C 493.545667581694 579.322389971112  488.210406955271 576.593762830479  482.950753260571 573.72432308706  L 482.471831961737 574.602180928355  Z M 461.172166513262 561.430575988289  C 465.309812394388 564.391989951181  469.569283465815 567.17938078084  473.939454489336 569.785468139772  C 474.742042921882 570.254019087371  475.54656089637 570.719257048711  476.35298787508 571.181170147206  L 476.850016943654 570.31343625655  C 476.047322040798 569.853660852809  475.24652412176 569.390581508617  474.44764356095 568.924210005931  C 470.102772950873 566.333059669328  465.867933416148 563.561710399572  461.754179093948 560.617396207476  L 461.172166513262 561.430575988289  Z M 441.995535741425 545.306348323311  C 445.147546508458 548.513728235878  448.474246121169 551.544625949772  451.960444999065 554.385202504415  C 453.143048437074 555.350647270285  454.337698045852 556.301241619619  455.544112713588 557.236761869003  L 456.156908976253 556.446520930766  C 454.956969054572 555.516021555387  453.768732263458 554.570527436449  452.592478263489 553.610261103194  C 449.13468306261 550.792850355613  445.83509203368 547.786662507123  442.708772037941 544.605424657472  L 441.995535741425 545.306348323311  Z M 426.652629027634 525.496108561265  C 429.160647382749 529.862457083873  432.042587569891 534.003088108585  435.266061969983 537.871468684798  C 435.906599577118 538.640355188013  436.556560498403 539.401342231136  437.215797551985 540.154257490753  L 437.968158194824 539.49550604817  C 437.314303282686 538.748737737362  436.669648968417 537.993963371672  436.034341238465 537.231353874997  C 432.847860139511 533.407373439623  429.998994701833 529.314265831292  427.519761118891 524.998030318101  L 426.652629027634 525.496108561265  Z M 417.879742764766 502.037635090541  C 418.987859362824 507.985303435157  420.842047540138 513.769376167035  423.398371070953 519.25279582435  L 424.304719184944 518.830264054816  C 421.783940686058 513.423089960494  419.955534526228 507.719443296544  418.862826009104 501.854475775461  L 417.879742764766 502.037635090541  Z M 417.595872852694 476.991851507362  C 417.364425401109 478.532219064123  417.171997699931 480.078197275323  417.018774554544 481.628301401014  C 416.583329233695 486.091776487099  416.557077427242 490.585726407392  416.940347240105 495.053984090438  L 417.936688644986 494.968521789272  C 417.558648649109 490.56123465268  417.584522740294 486.128606630288  418.013987565481 481.726033052621  C 418.165540863011 480.192931777526  418.355863327728 478.663910836317  418.584772226625 477.140438277426  L 417.595872852694 476.991851507362  Z M 424.534199100653 452.915332463036  C 423.467770688252 455.482335765455  422.482721644522 458.082395541522  421.580526526666 460.711619663335  C 420.524737469699 463.784650401783  419.631916713737 466.91127596432  418.905791532528 470.078443574895  L 419.880502676344 470.301912109862  C 420.5987770713 467.168987570016  421.481947985955 464.076167575348  422.526328286811 461.036364281383  C 423.421703052249 458.427004042794  424.399307665163 455.846588358713  425.457678644959 453.298980128542  L 424.534199100653 452.915332463036  Z M 436.192772241664 430.740678292303  C 434.548180524993 433.36844450251  432.965365073131 436.034371814454  431.445628136202 438.736266855454  C 430.012034721303 441.279135625641  428.663216960451 443.868875622869  427.401401472972 446.501211721697  L 428.303152375728 446.933467790918  C 429.555476439549 444.320932223447  430.894153221709 441.750674787429  432.316972592916 439.226938927827  C 433.829128129047 436.538506910919  435.404051210567 433.885865124607  437.040445942524 431.271196243808  L 436.192772241664 430.740678292303  Z M 822.029185717175 651.829728769864  C 828.002442291866 652.409529475698  833.977975263253 652.965633801857  839.955643597955 653.498028623271  L 840.044356402045 652.501971376729  C 834.06932210552 651.969811153188  828.096422231415 651.413951872417  822.125797750875 650.83440665369  L 822.029185717175 651.829728769864  Z M 443.621281935367 419.710792358633  C 442.393817025651 421.407763479995  441.193283378196 423.124052870236  440.02013190681 424.859015900537  L 440.848526097489 425.419161475232  C 442.011065084342 423.699893151687  443.200629507939 421.999054553813  444.416776167136 420.317279370378  L 443.621281935367 419.710792358633  Z M 448.41217849402 424.584622991199  L 447 416  L 438.356738845586 416.991986197785  L 448.41217849402 424.584622991199  Z " fill-rule="nonzero" fill="#d9001b" stroke="none" />
  </g>
</svg>