<?xml version="1.0" encoding="utf-8"?>
<svg version="1.1" xmlns:xlink="http://www.w3.org/1999/xlink" width="192px" height="10px" viewBox="1102 406  192 10" xmlns="http://www.w3.org/2000/svg">
  <g transform="matrix(-0.173648177666928 0.984807753012211 -0.984807753012207 -0.17364817766693 1810.786503333 -697.43028708752 )">
    <path d="M 1243.16618607809 613.276341278789  C 1244.93645481533 619.011670701791  1246.74622566309 624.734732811902  1248.59536971019 630.445119951619  L 1249.54673291278 630.137048439189  C 1247.69900418101 624.43103196954  1245.89061851279 618.712350230847  1244.12170472056 612.981410568474  L 1243.16618607809 613.276341278789  Z M 1236.01925898548 589.310094647242  C 1237.67942407672 595.078257861181  1239.37931884884 600.834912115215  1241.11882221728 606.579647359246  L 1242.07590789045 606.289842227826  C 1240.33773591955 600.549503943571  1238.63914222895 594.797255771964  1236.98024781057 589.033507449323  L 1236.01925898548 589.310094647242  Z M 1229.33237659634 565.211440153995  C 1230.88182974488 571.01032366147  1232.47122558746 576.798460779091  1234.1004509104 582.575439214216  L 1235.06290837095 582.304006650534  C 1233.4349300399 576.531449853817  1231.84675070412 570.747742915207  1230.29848349068 564.953297812052  L 1229.33237659634 565.211440153995  Z M 1223.10798903348 540.989207723054  C 1224.54616250832 546.816686770557  1226.02447705503 552.634185935811  1227.54282737235 558.441290834701  L 1228.5103039688 558.188330293641  C 1226.9931157808 552.385670091605  1225.51593272044 546.572623578829  1224.07886000841 540.749604822338  L 1223.10798903348 540.989207723054  Z M 1217.34837695823 516.652272558292  C 1218.67474380203 522.506211914697  1220.04143538758 528.350941553163  1221.44835436458 534.186045149929  L 1222.42049560638 533.951649318093  C 1221.01465347034 528.121011848089  1219.64900793611 522.280755704018  1218.3236562795 516.431296891067  L 1217.34837695823 516.652272558292  Z M 1212.03539760551 492.215629572942  C 1212.6729766895 495.248450524987  1213.31749600363 498.27980831044  1213.96895048397 501.309679112231  C 1214.57626848775 504.148030032527  1215.19304339999 506.984349230511  1215.81926494674 509.818589460071  L 1216.79571463421 509.602844221813  C 1216.16993657211 506.770611176491  1215.55359899495 503.936300516585  1214.94671217057 501.09995946015  C 1214.29554276952 498.071418158736  1213.6513058632 495.041390444985  1213.01400651383 492.009900127907  L 1212.03539760551 492.215629572942  Z M 1207.04165732063 467.713334252697  C 1208.20394368379 473.601197915653  1209.39231940291 479.483881401529  1210.60674946404 485.361211384623  L 1211.58606172926 485.158856530031  C 1210.37222956048 479.284420094041  1209.18443890651 473.404632790788  1208.02272476413 467.519667860914  L 1207.04165732063 467.713334252697  Z M 1202.34993843179 443.151418776469  C 1203.43965237775 449.053144932395  1204.55551747474 454.950012484758  1205.69750084524 460.841847689942  L 1206.67923004842 460.651564291761  C 1205.53780890304 454.762629774873  1204.42249317256 448.868665388417  1203.33331571827 442.969844790334  L 1202.34993843179 443.151418776469  Z M 1197.96095202364 418.533605788668  C 1198.97792839354 424.448299962147  1200.02111374607 430.358457842165  1201.09047734504 436.263905293111  L 1202.07447469368 436.085722191007  C 1201.00563756742 430.183182129984  1199.96296579945 424.275933959013  1198.94649011082 418.364151727835  L 1197.96095202364 418.533605788668  Z M 1193.8753632982 393.863626405625  C 1194.81944795744 399.790392155992  1195.78979545857 405.712944610116  1196.78637721154 411.631109267608  L 1197.77249356937 411.465053467305  C 1196.77640245692 405.549802460783  1195.80653268056 399.630165817708  1194.86291281629 393.70631795283  L 1193.8753632982 393.863626405625  Z M 1190.09379147403 369.145219650093  C 1190.96484133558 375.08315870689  1191.86220391786 381.017208103443  1192.78585278124 386.947193000618  L 1193.77393869084 386.793289669807  C 1192.85074456142 380.866224242983  1191.95382377172 374.935096317693  1191.0832027484 369.000080647265  L 1190.09379147403 369.145219650093  Z M 1186.61680969239 344.382131884563  C 1187.41469273849 350.330344283955  1188.23893439617 356.274991248622  1189.08951038021 362.215897627191  L 1190.07941608567 362.074170091715  C 1189.22925886009 356.136188560398  1188.40542299585 350.194468284424  1187.60793276624 344.249184329208  L 1186.61680969239 344.382131884563  Z M 1250.77053918758 637.10139863984  C 1252.65026293136 642.801792805111  1254.56924674141 648.489165799242  1256.52735392724 654.163112506887  L 1257.47264607276 653.836887493113  C 1255.51603760151 648.167283564413  1253.59852256145 642.484263625627  1251.72023753838 636.788232481907  L 1250.77053918758 637.10139863984  Z M 1184.11464756149 325.023015953909  C 1184.62964490101 329.163950945755  1185.1574016304 333.303289102571  1185.69791023222 337.440971463236  L 1186.68948570178 337.311441203555  C 1186.14934948987 333.176609548998  1185.62195385757 329.040123562652  1185.10730631421 324.902042141865  L 1184.11464756149 325.023015953909  Z M 1190.99528427403 325.172620025244  L 1184 320  L 1178.49250002801 326.734793542387  L 1190.99528427403 325.172620025244  Z " fill-rule="nonzero" fill="#70b603" stroke="none" />
  </g>
</svg>