<svg width="16" height="18" viewBox="0 0 16 18" fill="none" xmlns="http://www.w3.org/2000/svg">
  <path fill-rule="evenodd" clip-rule="evenodd" d="M9 15H15C15.2652 15 15.5196 15.1054 15.7071 15.2929C15.8946 15.4804 16 15.7348 16 16C16 16.2652 15.8946 16.5196 15.7071 16.7071C15.5196 16.8946 15.2652 17 15 17H9C8.73478 17 8.48043 16.8946 8.29289 16.7071C8.10536 16.5196 8 16.2652 8 16C8 15.7348 8.10536 15.4804 8.29289 15.2929C8.48043 15.1054 8.73478 15 9 15Z" fill="#1482C5"/>
  <path d="M3.70132 17C3.64771 17 3.59411 17 3.5405 16.9568C3.32608 16.9135 3.16526 16.6973 3.16526 16.5243L4.13017 10.6432H1.55709C1.39627 10.6432 1.23545 10.6 1.12824 10.4703C1.02103 10.3838 0.967424 10.2541 1.02103 10.1243L3.37968 1.34595C3.43329 1.12973 3.64771 1 3.91574 1L10.5093 1.12973C10.6701 1.12973 10.8845 1.21622 10.9381 1.34595C10.9917 1.47568 11.0453 1.64865 10.9381 1.77838L7.45372 7.61622H10.3484C10.5629 7.61622 10.7237 7.7027 10.8309 7.83243C10.9381 7.96216 10.9381 8.13514 10.8309 8.26486L4.18377 16.7838C4.07656 16.9135 3.91574 17 3.70132 17ZM2.25396 9.77838H4.77343C4.93425 9.77838 5.09507 9.82162 5.20228 9.90811C5.30949 9.99459 5.3631 10.1243 5.30949 10.2541L4.61262 14.6649L9.43714 8.48108H6.64964C6.48882 8.48108 6.2744 8.39459 6.22079 8.26486C6.16719 8.13514 6.11358 7.96216 6.16719 7.83243L9.65156 1.99459L4.39819 1.90811L2.25396 9.77838Z" fill="#1482C5" stroke="#1482C5" stroke-width="0.5"/>
</svg>
